G04 Layer_Color=8388736*
%FSLAX25Y25*%
%MOIN*%
G70*
G01*
G75*
%ADD76C,0.04000*%
%ADD80R,0.04000X0.04000*%
%ADD128R,0.20276X0.20276*%
%ADD129R,0.20285X0.20285*%
%ADD130R,0.04537X0.08474*%
%ADD131R,0.12411X0.24222*%
%ADD132R,0.04143X0.03750*%
%ADD133R,0.04143X0.05324*%
%ADD134R,0.04143X0.02962*%
%ADD135O,0.02762X0.01345*%
%ADD136O,0.01345X0.02762*%
%ADD137R,0.13983X0.13983*%
%ADD138O,0.01654X0.03898*%
%ADD139O,0.03898X0.01654*%
%ADD140R,0.04222X0.02175*%
%ADD141R,0.01870X0.01752*%
%ADD142R,0.01752X0.01870*%
%ADD143R,0.02962X0.04143*%
%ADD144R,0.04537X0.07687*%
%ADD145R,0.04537X0.05324*%
%ADD146R,0.02962X0.02568*%
%ADD147R,0.02568X0.02962*%
%ADD148R,0.03356X0.04537*%
%ADD149C,0.03750*%
%ADD150R,0.02175X0.04222*%
%ADD151R,0.01378X0.02709*%
%ADD152R,0.02709X0.01378*%
%ADD153R,0.03102X0.01378*%
%ADD154R,0.03228X0.02756*%
%ADD155R,0.03150X0.02756*%
%ADD156R,0.02323X0.01535*%
%ADD157R,0.01535X0.02323*%
%ADD158R,0.01535X0.01929*%
%ADD159R,0.03347X0.01378*%
%ADD160R,0.02568X0.03198*%
%ADD161R,0.03200X0.01800*%
%ADD162R,0.01800X0.03200*%
%ADD163R,0.03356X0.05718*%
%ADD164R,0.07687X0.04537*%
%ADD165R,0.02765X0.02765*%
%ADD166R,0.03356X0.02765*%
%ADD167R,0.11033X0.03750*%
%ADD168R,0.05324X0.04537*%
%ADD169R,0.05718X0.06506*%
%ADD170R,0.02568X0.02568*%
%ADD171C,0.05800*%
%ADD172C,0.06600*%
%ADD173C,0.04537*%
%ADD174R,0.04537X0.04537*%
%ADD175C,0.04600*%
%ADD176R,0.04600X0.04600*%
%ADD177C,0.04931*%
%ADD178P,0.05337X8X112.5*%
%ADD179R,0.04537X0.04537*%
%ADD180C,0.03200*%
G36*
X127652Y65135D02*
X126506D01*
Y65529D01*
X128046D01*
X127652Y65135D01*
D02*
G37*
G36*
X209597Y35971D02*
X211030Y35378D01*
X212319Y34516D01*
X213416Y33419D01*
X214278Y32130D01*
X214871Y30697D01*
X215174Y29175D01*
Y28400D01*
Y27624D01*
X214871Y26103D01*
X214278Y24670D01*
X213416Y23381D01*
X212319Y22284D01*
X211030Y21422D01*
X209597Y20829D01*
X208075Y20526D01*
X206524D01*
X205003Y20829D01*
X203570Y21422D01*
X202281Y22284D01*
X201184Y23381D01*
X200322Y24670D01*
X199729Y26103D01*
X199426Y27624D01*
Y28400D01*
Y29175D01*
X199729Y30697D01*
X200322Y32130D01*
X201184Y33419D01*
X202281Y34516D01*
X203570Y35378D01*
X205003Y35971D01*
X206524Y36274D01*
X208075D01*
X209597Y35971D01*
D02*
G37*
G36*
X26397Y30771D02*
X27830Y30178D01*
X29119Y29316D01*
X30216Y28219D01*
X31078Y26930D01*
X31671Y25497D01*
X31974Y23976D01*
Y23200D01*
Y22424D01*
X31671Y20903D01*
X31078Y19470D01*
X30216Y18181D01*
X29119Y17084D01*
X27830Y16222D01*
X26397Y15629D01*
X24875Y15326D01*
X23325D01*
X21803Y15629D01*
X20370Y16222D01*
X19081Y17084D01*
X17984Y18181D01*
X17122Y19470D01*
X16529Y20903D01*
X16226Y22424D01*
Y23200D01*
Y23976D01*
X16529Y25497D01*
X17122Y26930D01*
X17984Y28219D01*
X19081Y29316D01*
X20370Y30178D01*
X21803Y30771D01*
X23325Y31074D01*
X24875D01*
X26397Y30771D01*
D02*
G37*
G36*
X204297Y210571D02*
X205730Y209978D01*
X207019Y209116D01*
X208116Y208019D01*
X208978Y206730D01*
X209571Y205297D01*
X209874Y203776D01*
Y203000D01*
Y202224D01*
X209571Y200703D01*
X208978Y199270D01*
X208116Y197981D01*
X207019Y196884D01*
X205730Y196022D01*
X204297Y195429D01*
X202776Y195126D01*
X201224D01*
X199703Y195429D01*
X198270Y196022D01*
X196981Y196884D01*
X195884Y197981D01*
X195022Y199270D01*
X194429Y200703D01*
X194126Y202224D01*
Y203000D01*
Y203776D01*
X194429Y205297D01*
X195022Y206730D01*
X195884Y208019D01*
X196981Y209116D01*
X198270Y209978D01*
X199703Y210571D01*
X201224Y210874D01*
X202776D01*
X204297Y210571D01*
D02*
G37*
G36*
X172065Y205077D02*
Y171084D01*
X112956D01*
X101894Y174513D01*
X86795Y180572D01*
X81243Y184588D01*
X62905Y205077D01*
X172065Y205077D01*
D02*
G37*
G36*
X134450Y165810D02*
X149550Y159750D01*
X155101Y155735D01*
X173439Y135246D01*
X64279Y135246D01*
Y169239D01*
X123388D01*
X134450Y165810D01*
D02*
G37*
D76*
X108500Y10000D02*
D03*
Y15000D02*
D03*
X103500D02*
D03*
Y10000D02*
D03*
X118500D02*
D03*
Y15000D02*
D03*
X113500D02*
D03*
Y10000D02*
D03*
X123500D02*
D03*
Y15000D02*
D03*
X128500D02*
D03*
Y10000D02*
D03*
X97500Y102000D02*
D03*
X102500D02*
D03*
Y97000D02*
D03*
X97500D02*
D03*
X102500Y67000D02*
D03*
Y72000D02*
D03*
X97500D02*
D03*
Y82000D02*
D03*
X102500D02*
D03*
Y77000D02*
D03*
X97500D02*
D03*
Y92000D02*
D03*
X102500D02*
D03*
Y87000D02*
D03*
X97500D02*
D03*
D80*
Y67000D02*
D03*
D128*
X48619Y71816D02*
D03*
D129*
X165219Y145617D02*
D03*
X71125Y194706D02*
D03*
D130*
X61085Y147391D02*
D03*
X175259Y192932D02*
D03*
D131*
X72699Y149947D02*
D03*
X155376D02*
D03*
X80968Y190376D02*
D03*
X163645D02*
D03*
D132*
X33637Y202937D02*
D03*
X25763D02*
D03*
Y195063D02*
D03*
D133*
X33637Y195850D02*
D03*
D134*
X175300Y203856D02*
D03*
Y198344D02*
D03*
X61000Y136444D02*
D03*
Y141956D02*
D03*
X90600Y59956D02*
D03*
Y54444D02*
D03*
X85500Y59956D02*
D03*
Y54444D02*
D03*
X152720Y45194D02*
D03*
Y50706D02*
D03*
X157140Y45204D02*
D03*
Y50716D02*
D03*
X77800Y36256D02*
D03*
Y30744D02*
D03*
X25800Y113344D02*
D03*
Y118856D02*
D03*
X20600Y113344D02*
D03*
Y118856D02*
D03*
X19500Y88944D02*
D03*
Y94456D02*
D03*
X58900Y112456D02*
D03*
Y106944D02*
D03*
X63700Y112456D02*
D03*
Y106944D02*
D03*
X77300Y114756D02*
D03*
Y109244D02*
D03*
X67100Y44056D02*
D03*
Y38544D02*
D03*
X123500Y91556D02*
D03*
Y86044D02*
D03*
X153900Y69556D02*
D03*
Y64044D02*
D03*
X92500Y120044D02*
D03*
Y125556D02*
D03*
X133100Y91456D02*
D03*
Y85944D02*
D03*
X128400Y91556D02*
D03*
Y86044D02*
D03*
X117600Y91456D02*
D03*
Y85944D02*
D03*
X133300Y76744D02*
D03*
Y82256D02*
D03*
X107200Y20544D02*
D03*
Y26056D02*
D03*
X54100Y27644D02*
D03*
Y33156D02*
D03*
X72300Y56156D02*
D03*
Y50644D02*
D03*
X60900Y154744D02*
D03*
Y160256D02*
D03*
X137300Y38812D02*
D03*
Y33300D02*
D03*
X131300Y49056D02*
D03*
Y43544D02*
D03*
X117800Y34144D02*
D03*
Y39656D02*
D03*
X94300Y44956D02*
D03*
Y39444D02*
D03*
X135700Y54056D02*
D03*
Y48544D02*
D03*
X82800Y36256D02*
D03*
Y30744D02*
D03*
X25100Y94556D02*
D03*
Y89044D02*
D03*
X48800Y27644D02*
D03*
Y33156D02*
D03*
D135*
X142559Y99759D02*
D03*
Y101727D02*
D03*
Y103696D02*
D03*
Y105665D02*
D03*
Y107633D02*
D03*
Y109602D02*
D03*
Y111570D02*
D03*
Y113539D02*
D03*
X123661D02*
D03*
Y111570D02*
D03*
Y109602D02*
D03*
Y107633D02*
D03*
Y105665D02*
D03*
Y103696D02*
D03*
Y101727D02*
D03*
Y99759D02*
D03*
D136*
X140000Y116098D02*
D03*
X138031D02*
D03*
X136063D02*
D03*
X134095D02*
D03*
X132126D02*
D03*
X130157D02*
D03*
X128189D02*
D03*
X126221D02*
D03*
Y97200D02*
D03*
X128189D02*
D03*
X130157D02*
D03*
X132126D02*
D03*
X134095D02*
D03*
X136063D02*
D03*
X138031D02*
D03*
X140000D02*
D03*
D137*
X133110Y106649D02*
D03*
D138*
X59446Y58135D02*
D03*
X57477D02*
D03*
X55509D02*
D03*
X53540D02*
D03*
X51572D02*
D03*
X49603D02*
D03*
X47635D02*
D03*
X45666D02*
D03*
X43698D02*
D03*
X41729D02*
D03*
X39761D02*
D03*
X37792D02*
D03*
Y85497D02*
D03*
X39761D02*
D03*
X41729D02*
D03*
X43698D02*
D03*
X45666D02*
D03*
X47635D02*
D03*
X49603D02*
D03*
X51572D02*
D03*
X53540D02*
D03*
X55509D02*
D03*
X57477D02*
D03*
X59446D02*
D03*
D139*
X34938Y60989D02*
D03*
Y62958D02*
D03*
Y64926D02*
D03*
Y66895D02*
D03*
Y68863D02*
D03*
Y70832D02*
D03*
Y72800D02*
D03*
Y74769D02*
D03*
Y76737D02*
D03*
Y78706D02*
D03*
Y80674D02*
D03*
Y82643D02*
D03*
X62300D02*
D03*
Y80674D02*
D03*
Y78706D02*
D03*
Y76737D02*
D03*
Y74769D02*
D03*
Y72800D02*
D03*
Y70832D02*
D03*
Y68863D02*
D03*
Y66895D02*
D03*
Y64926D02*
D03*
Y62958D02*
D03*
Y60989D02*
D03*
D140*
X127140Y81659D02*
D03*
X119660D02*
D03*
Y79100D02*
D03*
Y76541D02*
D03*
X127140D02*
D03*
Y79100D02*
D03*
X39660Y160441D02*
D03*
Y165559D02*
D03*
X47140D02*
D03*
Y163000D02*
D03*
Y160441D02*
D03*
X124560Y35741D02*
D03*
X132040D02*
D03*
Y38300D02*
D03*
Y40859D02*
D03*
X124560D02*
D03*
Y38300D02*
D03*
X72260Y42141D02*
D03*
X79740D02*
D03*
Y44700D02*
D03*
Y47259D02*
D03*
X72260D02*
D03*
Y44700D02*
D03*
D141*
X153762Y37620D02*
D03*
Y35651D02*
D03*
Y39588D02*
D03*
X147758D02*
D03*
Y35651D02*
D03*
Y37620D02*
D03*
D142*
X151744Y40622D02*
D03*
X149776D02*
D03*
Y34618D02*
D03*
X151744D02*
D03*
D143*
X70344Y25400D02*
D03*
X75856D02*
D03*
X63056Y23900D02*
D03*
X57544D02*
D03*
X22244Y109300D02*
D03*
X27756D02*
D03*
X47144Y117800D02*
D03*
X52656D02*
D03*
X52756Y112700D02*
D03*
X47244D02*
D03*
X52756Y108400D02*
D03*
X47244D02*
D03*
X55744Y117700D02*
D03*
X61256D02*
D03*
X66744Y102800D02*
D03*
X72256D02*
D03*
X88256Y112600D02*
D03*
X82744D02*
D03*
X88356Y117300D02*
D03*
X82844D02*
D03*
X149656Y72600D02*
D03*
X144144D02*
D03*
X165944Y160000D02*
D03*
X171456D02*
D03*
X66644Y181300D02*
D03*
X72156D02*
D03*
X115024Y122000D02*
D03*
X120536D02*
D03*
X111256Y124700D02*
D03*
X105744D02*
D03*
X104944Y116300D02*
D03*
X110456D02*
D03*
X120356Y116100D02*
D03*
X114844D02*
D03*
X118444Y126800D02*
D03*
X123956D02*
D03*
X133456Y126300D02*
D03*
X127944D02*
D03*
X114256Y85900D02*
D03*
X108744D02*
D03*
X141964Y52280D02*
D03*
X147476D02*
D03*
X113656Y36000D02*
D03*
X108144D02*
D03*
X84344Y47400D02*
D03*
X89856D02*
D03*
X84344Y42400D02*
D03*
X89856D02*
D03*
X171256Y166100D02*
D03*
X165744D02*
D03*
X66644Y176200D02*
D03*
X72156D02*
D03*
X145044Y94600D02*
D03*
X150556D02*
D03*
X85656Y21600D02*
D03*
X80144D02*
D03*
X125444Y30500D02*
D03*
X130956D02*
D03*
X124244Y25500D02*
D03*
X129756D02*
D03*
X122244Y48900D02*
D03*
X127756D02*
D03*
X98000Y116600D02*
D03*
X92488D02*
D03*
X108744Y80900D02*
D03*
X114256D02*
D03*
X64256Y53500D02*
D03*
X58744D02*
D03*
D144*
X59121Y46500D02*
D03*
X49279D02*
D03*
D145*
X36541Y44346D02*
D03*
X41659Y37653D02*
D03*
X36541D02*
D03*
X41659Y44346D02*
D03*
D146*
X40600Y199432D02*
D03*
Y203368D02*
D03*
X29200Y164969D02*
D03*
Y161031D02*
D03*
X38800Y192631D02*
D03*
Y196569D02*
D03*
X42300Y192631D02*
D03*
Y196569D02*
D03*
X153900Y94832D02*
D03*
Y98769D02*
D03*
X167900Y103832D02*
D03*
Y107768D02*
D03*
X154700Y110231D02*
D03*
Y114169D02*
D03*
Y120668D02*
D03*
Y116732D02*
D03*
X138900Y87868D02*
D03*
Y83931D02*
D03*
X153900Y102631D02*
D03*
Y106569D02*
D03*
X193400Y100432D02*
D03*
Y104368D02*
D03*
X163900Y97768D02*
D03*
Y93831D02*
D03*
X156500Y87868D02*
D03*
Y83931D02*
D03*
X31000Y43569D02*
D03*
Y39632D02*
D03*
D147*
X43632Y176400D02*
D03*
X47569D02*
D03*
X43632Y172200D02*
D03*
X47569D02*
D03*
X47569Y168900D02*
D03*
X43632D02*
D03*
X40069D02*
D03*
X36132D02*
D03*
X32131Y165000D02*
D03*
X36068D02*
D03*
X29131Y168900D02*
D03*
X33068D02*
D03*
X33332Y176400D02*
D03*
X37268D02*
D03*
X43632Y203400D02*
D03*
X47569D02*
D03*
X189232Y97500D02*
D03*
X193168D02*
D03*
X160869Y102800D02*
D03*
X156931D02*
D03*
X156931Y98800D02*
D03*
X160869D02*
D03*
X167868Y100800D02*
D03*
X163932D02*
D03*
X146432Y98800D02*
D03*
X150368D02*
D03*
X146432Y102800D02*
D03*
X150368D02*
D03*
X171869Y97300D02*
D03*
X167931D02*
D03*
X52668Y40600D02*
D03*
X48731D02*
D03*
X59668D02*
D03*
X55731D02*
D03*
X37031Y31800D02*
D03*
X40968D02*
D03*
D148*
X32741Y180565D02*
D03*
X37859D02*
D03*
X35300Y188635D02*
D03*
X42341Y180565D02*
D03*
X47459D02*
D03*
X44900Y188635D02*
D03*
D149*
X42443Y116347D02*
D03*
X32757D02*
D03*
Y109653D02*
D03*
X42443D02*
D03*
D150*
X72759Y107560D02*
D03*
X67641D02*
D03*
Y115040D02*
D03*
X70200D02*
D03*
X72759D02*
D03*
D151*
X105762Y45400D02*
D03*
X104187D02*
D03*
X102613D02*
D03*
X101038D02*
D03*
Y54600D02*
D03*
X102613D02*
D03*
X104187D02*
D03*
X105762D02*
D03*
D152*
X100380Y47638D02*
D03*
Y49213D02*
D03*
Y50787D02*
D03*
X106420Y52362D02*
D03*
Y50787D02*
D03*
Y49213D02*
D03*
X106420Y47638D02*
D03*
D153*
X100577Y52362D02*
D03*
D154*
X90067Y22202D02*
D03*
X93807D02*
D03*
X97547D02*
D03*
X101287D02*
D03*
Y27713D02*
D03*
X97547D02*
D03*
X93807D02*
D03*
D155*
X90067D02*
D03*
D156*
X127963Y63639D02*
D03*
Y61671D02*
D03*
Y59702D02*
D03*
X120679D02*
D03*
Y61671D02*
D03*
Y63639D02*
D03*
D157*
X127274Y57045D02*
D03*
X125305D02*
D03*
X123337D02*
D03*
X121369D02*
D03*
Y66297D02*
D03*
X123337D02*
D03*
X125305D02*
D03*
D158*
X127274Y66494D02*
D03*
D159*
X59898Y35453D02*
D03*
Y33484D02*
D03*
Y31516D02*
D03*
Y29547D02*
D03*
X72102Y35453D02*
D03*
Y33484D02*
D03*
Y31516D02*
D03*
Y29547D02*
D03*
D160*
X98032Y120256D02*
D03*
X101969D02*
D03*
X100000Y124744D02*
D03*
D161*
X137100Y59347D02*
D03*
Y61316D02*
D03*
Y63300D02*
D03*
Y65300D02*
D03*
X147894D02*
D03*
Y63300D02*
D03*
Y61316D02*
D03*
Y59347D02*
D03*
D162*
X139500Y67700D02*
D03*
X141500D02*
D03*
X143484D02*
D03*
X145453D02*
D03*
Y56906D02*
D03*
X143484D02*
D03*
X141500D02*
D03*
X139500D02*
D03*
D163*
X111960Y29600D02*
D03*
X119440D02*
D03*
D164*
X160800Y119721D02*
D03*
Y109879D02*
D03*
D165*
X174696Y97300D02*
D03*
D166*
X185523D02*
D03*
D167*
X180405Y93068D02*
D03*
Y101532D02*
D03*
D168*
X143853Y83341D02*
D03*
X150547Y88459D02*
D03*
Y83341D02*
D03*
X143853Y88459D02*
D03*
D169*
X92860Y34500D02*
D03*
X100340D02*
D03*
D170*
X113544Y24500D02*
D03*
X119056D02*
D03*
D171*
X40500Y215000D02*
D03*
D172*
X45500Y210000D02*
D03*
X35500D02*
D03*
X45500Y220000D02*
D03*
X35500D02*
D03*
D173*
X164000Y67500D02*
D03*
Y62500D02*
D03*
Y57500D02*
D03*
Y52500D02*
D03*
Y47500D02*
D03*
Y42500D02*
D03*
Y37500D02*
D03*
X93000Y10000D02*
D03*
X88000D02*
D03*
X83000D02*
D03*
X10500Y165000D02*
D03*
X161000Y19000D02*
D03*
Y14000D02*
D03*
X141000Y19000D02*
D03*
X146000D02*
D03*
X151000D02*
D03*
X156000D02*
D03*
Y14000D02*
D03*
X146000D02*
D03*
X141000D02*
D03*
X151000D02*
D03*
X10500Y64600D02*
D03*
Y69600D02*
D03*
Y74600D02*
D03*
Y79600D02*
D03*
Y84600D02*
D03*
X10500Y89600D02*
D03*
X22300Y101800D02*
D03*
X27300D02*
D03*
X32300D02*
D03*
X37300D02*
D03*
X42300D02*
D03*
X47300D02*
D03*
X52300D02*
D03*
X12800Y115800D02*
D03*
Y110800D02*
D03*
X10500Y206000D02*
D03*
Y211000D02*
D03*
Y216000D02*
D03*
Y140000D02*
D03*
Y145000D02*
D03*
Y150000D02*
D03*
X140000Y128000D02*
D03*
X145000D02*
D03*
X150000D02*
D03*
X155000D02*
D03*
X160000D02*
D03*
X37000Y10000D02*
D03*
X42000D02*
D03*
X47000D02*
D03*
X52000D02*
D03*
X57000D02*
D03*
X62000D02*
D03*
X67000D02*
D03*
X10500Y45000D02*
D03*
Y40000D02*
D03*
Y35000D02*
D03*
D174*
X164000Y32500D02*
D03*
X10500Y170000D02*
D03*
Y59600D02*
D03*
X12800Y120800D02*
D03*
X10500Y221000D02*
D03*
Y155000D02*
D03*
Y30000D02*
D03*
D175*
X82500Y125000D02*
D03*
Y130000D02*
D03*
X67500D02*
D03*
Y125000D02*
D03*
X62500D02*
D03*
Y130000D02*
D03*
X77500D02*
D03*
Y125000D02*
D03*
X72500D02*
D03*
Y130000D02*
D03*
X47500D02*
D03*
Y125000D02*
D03*
X52500D02*
D03*
Y130000D02*
D03*
X37500D02*
D03*
Y125000D02*
D03*
X42500D02*
D03*
Y130000D02*
D03*
X32500D02*
D03*
Y125000D02*
D03*
X27500D02*
D03*
X57500Y130000D02*
D03*
Y125000D02*
D03*
D176*
X27500Y130000D02*
D03*
D177*
X65000Y217453D02*
D03*
X88500D02*
D03*
X173500D02*
D03*
X149500D02*
D03*
X124500D02*
D03*
D178*
X65000Y211547D02*
D03*
X88500D02*
D03*
X173500D02*
D03*
X149500D02*
D03*
X124500D02*
D03*
D179*
X78000Y10000D02*
D03*
X17300Y101800D02*
D03*
X165000Y128000D02*
D03*
X32000Y10000D02*
D03*
D180*
X137600Y104500D02*
D03*
X127500Y102700D02*
D03*
M02*
