G04 Layer_Color=48896*
%FSLAX25Y25*%
%MOIN*%
G70*
G01*
G75*
%ADD10C,0.00800*%
%ADD55C,0.01000*%
%ADD57C,0.01600*%
%ADD63C,0.00600*%
%ADD115C,0.00394*%
%ADD116C,0.00787*%
%ADD119C,0.00984*%
D10*
X94308Y104920D02*
G03*
X94308Y104920I-318J0D01*
G01*
D55*
X24800Y181100D02*
G03*
X24800Y184300I0J1600D01*
G01*
Y190574D02*
X44800D01*
X24800Y184400D02*
Y190574D01*
Y174826D02*
X44800D01*
Y190574D01*
X24800Y174900D02*
Y181100D01*
X144250Y93000D02*
Y95100D01*
Y93000D02*
X151950D01*
Y97200D01*
X144250D02*
X151950D01*
X144250Y95100D02*
Y97200D01*
X55550Y87400D02*
Y89500D01*
X47850D02*
X55550D01*
X47850Y85300D02*
Y89500D01*
Y85300D02*
X55550D01*
Y87400D01*
D57*
X140491Y41668D02*
G03*
X140491Y41668I-197J0D01*
G01*
X54791Y46268D02*
G03*
X54791Y46268I-197J0D01*
G01*
X44391Y32068D02*
G03*
X44391Y32068I-197J0D01*
G01*
X58991Y111268D02*
G03*
X58991Y111268I-197J0D01*
G01*
D63*
X50199Y201600D02*
X50599Y201200D01*
Y200400D01*
X50199Y200000D01*
X48600D01*
X48200Y200400D01*
Y201200D01*
X48600Y201600D01*
X48200Y203999D02*
Y202399D01*
X49799Y203999D01*
X50199D01*
X50599Y203599D01*
Y202799D01*
X50199Y202399D01*
X48200Y204798D02*
Y205598D01*
Y205198D01*
X50599D01*
X50199Y204798D01*
X133200Y76400D02*
X135599D01*
Y77600D01*
X135199Y78000D01*
X134400D01*
X134000Y77600D01*
Y76400D01*
Y77200D02*
X133200Y78000D01*
X135199Y78799D02*
X135599Y79199D01*
Y79999D01*
X135199Y80399D01*
X134800D01*
X134400Y79999D01*
X134000Y80399D01*
X133600D01*
X133200Y79999D01*
Y79199D01*
X133600Y78799D01*
X134000D01*
X134400Y79199D01*
X134800Y78799D01*
X135199D01*
X134400Y79199D02*
Y79999D01*
X135599Y82798D02*
Y81198D01*
X134400D01*
X134800Y81998D01*
Y82398D01*
X134400Y82798D01*
X133600D01*
X133200Y82398D01*
Y81598D01*
X133600Y81198D01*
X104000Y126599D02*
Y124000D01*
X102700D01*
X102267Y124433D01*
Y126166D01*
X102700Y126599D01*
X104000D01*
X99668Y124000D02*
X101401D01*
X99668Y125733D01*
Y126166D01*
X100101Y126599D01*
X100968D01*
X101401Y126166D01*
X98802Y124433D02*
X98369Y124000D01*
X97502D01*
X97069Y124433D01*
Y126166D01*
X97502Y126599D01*
X98369D01*
X98802Y126166D01*
Y125733D01*
X98369Y125300D01*
X97069D01*
X95700Y131400D02*
Y133999D01*
X94400D01*
X93967Y133566D01*
Y132700D01*
X94400Y132266D01*
X95700D01*
X94834D02*
X93967Y131400D01*
X91368Y133999D02*
X93101D01*
Y132700D01*
X92234Y133133D01*
X91801D01*
X91368Y132700D01*
Y131833D01*
X91801Y131400D01*
X92668D01*
X93101Y131833D01*
X90502Y133566D02*
X90069Y133999D01*
X89202D01*
X88769Y133566D01*
Y131833D01*
X89202Y131400D01*
X90069D01*
X90502Y131833D01*
Y133566D01*
X51800Y135999D02*
Y133600D01*
X50600D01*
X50200Y134000D01*
Y135599D01*
X50600Y135999D01*
X51800D01*
X47801Y133600D02*
X49401D01*
X47801Y135199D01*
Y135599D01*
X48201Y135999D01*
X49001D01*
X49401Y135599D01*
X45402Y135999D02*
X46202Y135599D01*
X47002Y134800D01*
Y134000D01*
X46602Y133600D01*
X45802D01*
X45402Y134000D01*
Y134400D01*
X45802Y134800D01*
X47002D01*
X57400Y101700D02*
X59799D01*
Y102900D01*
X59399Y103299D01*
X58600D01*
X58200Y102900D01*
Y101700D01*
Y102500D02*
X57400Y103299D01*
X59799Y105699D02*
Y104099D01*
X58600D01*
X59000Y104899D01*
Y105299D01*
X58600Y105699D01*
X57800D01*
X57400Y105299D01*
Y104499D01*
X57800Y104099D01*
X57400Y107698D02*
X59799D01*
X58600Y106498D01*
Y108098D01*
X97499Y106900D02*
X95500D01*
X95100Y107300D01*
Y108100D01*
X95500Y108500D01*
X97499D01*
Y110899D02*
Y109299D01*
X96300D01*
X96700Y110099D01*
Y110499D01*
X96300Y110899D01*
X95500D01*
X95100Y110499D01*
Y109699D01*
X95500Y109299D01*
X88600Y91999D02*
X89000Y92399D01*
X89800D01*
X90200Y91999D01*
Y90400D01*
X89800Y90000D01*
X89000D01*
X88600Y90400D01*
X86201Y90000D02*
X87801D01*
X86201Y91600D01*
Y91999D01*
X86601Y92399D01*
X87401D01*
X87801Y91999D01*
X85402D02*
X85002Y92399D01*
X84202D01*
X83802Y91999D01*
Y91600D01*
X84202Y91200D01*
X83802Y90800D01*
Y90400D01*
X84202Y90000D01*
X85002D01*
X85402Y90400D01*
Y90800D01*
X85002Y91200D01*
X85402Y91600D01*
Y91999D01*
X85002Y91200D02*
X84202D01*
X119600Y197100D02*
Y199699D01*
X118300D01*
X117867Y199266D01*
Y198400D01*
X118300Y197966D01*
X119600D01*
X118734D02*
X117867Y197100D01*
X117001D02*
X116134D01*
X116568D01*
Y199699D01*
X117001Y199266D01*
X113102Y199699D02*
X114835D01*
Y198400D01*
X113969Y198833D01*
X113535D01*
X113102Y198400D01*
Y197533D01*
X113535Y197100D01*
X114402D01*
X114835Y197533D01*
X120299Y19300D02*
X117700D01*
Y20600D01*
X118133Y21033D01*
X119866D01*
X120299Y20600D01*
Y19300D01*
X119866Y21899D02*
X120299Y22332D01*
Y23199D01*
X119866Y23632D01*
X119433D01*
X119000Y23199D01*
Y22765D01*
Y23199D01*
X118566Y23632D01*
X118133D01*
X117700Y23199D01*
Y22332D01*
X118133Y21899D01*
Y24498D02*
X117700Y24931D01*
Y25798D01*
X118133Y26231D01*
X119866D01*
X120299Y25798D01*
Y24931D01*
X119866Y24498D01*
X119433D01*
X119000Y24931D01*
Y26231D01*
X65800Y23400D02*
Y25999D01*
X64500D01*
X64067Y25566D01*
Y24700D01*
X64500Y24266D01*
X65800D01*
X64934D02*
X64067Y23400D01*
X61468Y25999D02*
X63201D01*
Y24700D01*
X62335Y25133D01*
X61901D01*
X61468Y24700D01*
Y23833D01*
X61901Y23400D01*
X62768D01*
X63201Y23833D01*
X58869Y25999D02*
X59735Y25566D01*
X60602Y24700D01*
Y23833D01*
X60168Y23400D01*
X59302D01*
X58869Y23833D01*
Y24266D01*
X59302Y24700D01*
X60602D01*
X50600Y24199D02*
Y22033D01*
X50167Y21600D01*
X49300D01*
X48867Y22033D01*
Y24199D01*
X48001Y23766D02*
X47568Y24199D01*
X46701D01*
X46268Y23766D01*
Y23333D01*
X46701Y22900D01*
X46268Y22466D01*
Y22033D01*
X46701Y21600D01*
X47568D01*
X48001Y22033D01*
Y22466D01*
X47568Y22900D01*
X48001Y23333D01*
Y23766D01*
X47568Y22900D02*
X46701D01*
X158800Y52300D02*
Y54699D01*
X157600D01*
X157201Y54299D01*
Y53500D01*
X157600Y53100D01*
X158800D01*
X158000D02*
X157201Y52300D01*
X156401D02*
X155601D01*
X156001D01*
Y54699D01*
X156401Y54299D01*
X152802Y52300D02*
X154401D01*
X152802Y53900D01*
Y54299D01*
X153202Y54699D01*
X154002D01*
X154401Y54299D01*
X150403Y54699D02*
X152002D01*
Y53500D01*
X151202Y53900D01*
X150803D01*
X150403Y53500D01*
Y52700D01*
X150803Y52300D01*
X151602D01*
X152002Y52700D01*
X156500Y44300D02*
Y46699D01*
X155300D01*
X154901Y46299D01*
Y45500D01*
X155300Y45100D01*
X156500D01*
X155700D02*
X154901Y44300D01*
X154101D02*
X153301D01*
X153701D01*
Y46699D01*
X154101Y46299D01*
X150502Y44300D02*
X152101D01*
X150502Y45900D01*
Y46299D01*
X150902Y46699D01*
X151702D01*
X152101Y46299D01*
X148503Y44300D02*
Y46699D01*
X149702Y45500D01*
X148103D01*
X145300Y52100D02*
Y53699D01*
X145700Y54099D01*
X146500D01*
X146900Y53699D01*
Y52100D01*
X146500Y51700D01*
X145700D01*
X146100Y52500D02*
X145300Y51700D01*
X145700D02*
X145300Y52100D01*
X144501Y53699D02*
X144101Y54099D01*
X143301D01*
X142901Y53699D01*
Y53299D01*
X143301Y52900D01*
X143701D01*
X143301D01*
X142901Y52500D01*
Y52100D01*
X143301Y51700D01*
X144101D01*
X144501Y52100D01*
X142102Y51700D02*
X141302D01*
X141702D01*
Y54099D01*
X142102Y53699D01*
X138101Y52500D02*
Y54099D01*
X138500Y54499D01*
X139300D01*
X139700Y54099D01*
Y52500D01*
X139300Y52100D01*
X138500D01*
X138900Y52900D02*
X138101Y52100D01*
X138500D02*
X138101Y52500D01*
X137301Y54099D02*
X136901Y54499D01*
X136101D01*
X135701Y54099D01*
Y53699D01*
X136101Y53300D01*
X136501D01*
X136101D01*
X135701Y52900D01*
Y52500D01*
X136101Y52100D01*
X136901D01*
X137301Y52500D01*
X134902Y54099D02*
X134502Y54499D01*
X133702D01*
X133302Y54099D01*
Y52500D01*
X133702Y52100D01*
X134502D01*
X134902Y52500D01*
Y54099D01*
X160299Y62199D02*
X160699Y61800D01*
Y61000D01*
X160299Y60600D01*
X158700D01*
X158300Y61000D01*
Y61800D01*
X158700Y62199D01*
X158300Y62999D02*
Y63799D01*
Y63399D01*
X160699D01*
X160299Y62999D01*
X158300Y64999D02*
Y65798D01*
Y65398D01*
X160699D01*
X160299Y64999D01*
X160699Y68597D02*
X160299Y67798D01*
X159500Y66998D01*
X158700D01*
X158300Y67398D01*
Y68198D01*
X158700Y68597D01*
X159100D01*
X159500Y68198D01*
Y66998D01*
X158000Y200199D02*
Y197800D01*
X156800D01*
X156401Y198200D01*
Y199799D01*
X156800Y200199D01*
X158000D01*
X154001Y197800D02*
X155601D01*
X154001Y199399D01*
Y199799D01*
X154401Y200199D01*
X155201D01*
X155601Y199799D01*
X152002Y197800D02*
Y200199D01*
X153202Y199000D01*
X151602D01*
X128700Y199699D02*
Y197300D01*
X127500D01*
X127101Y197700D01*
Y199299D01*
X127500Y199699D01*
X128700D01*
X124701Y197300D02*
X126301D01*
X124701Y198899D01*
Y199299D01*
X125101Y199699D01*
X125901D01*
X126301Y199299D01*
X123902D02*
X123502Y199699D01*
X122702D01*
X122302Y199299D01*
Y198899D01*
X122702Y198500D01*
X123102D01*
X122702D01*
X122302Y198100D01*
Y197700D01*
X122702Y197300D01*
X123502D01*
X123902Y197700D01*
X98400Y200699D02*
Y198300D01*
X97200D01*
X96801Y198700D01*
Y200299D01*
X97200Y200699D01*
X98400D01*
X94401Y198300D02*
X96001D01*
X94401Y199899D01*
Y200299D01*
X94801Y200699D01*
X95601D01*
X96001Y200299D01*
X92002Y198300D02*
X93602D01*
X92002Y199899D01*
Y200299D01*
X92402Y200699D01*
X93202D01*
X93602Y200299D01*
X69200Y203599D02*
Y201200D01*
X68000D01*
X67601Y201600D01*
Y203199D01*
X68000Y203599D01*
X69200D01*
X65201Y201200D02*
X66801D01*
X65201Y202800D01*
Y203199D01*
X65601Y203599D01*
X66401D01*
X66801Y203199D01*
X64402Y201200D02*
X63602D01*
X64002D01*
Y203599D01*
X64402Y203199D01*
X164399Y197500D02*
X162000D01*
Y198700D01*
X162400Y199100D01*
X163999D01*
X164399Y198700D01*
Y197500D01*
X162000Y201499D02*
Y199899D01*
X163600Y201499D01*
X163999D01*
X164399Y201099D01*
Y200299D01*
X163999Y199899D01*
Y202298D02*
X164399Y202698D01*
Y203498D01*
X163999Y203898D01*
X162400D01*
X162000Y203498D01*
Y202698D01*
X162400Y202298D01*
X163999D01*
X136499Y197000D02*
X134100D01*
Y198200D01*
X134500Y198600D01*
X136099D01*
X136499Y198200D01*
Y197000D01*
X134100Y199399D02*
Y200199D01*
Y199799D01*
X136499D01*
X136099Y199399D01*
X134500Y201399D02*
X134100Y201798D01*
Y202598D01*
X134500Y202998D01*
X136099D01*
X136499Y202598D01*
Y201798D01*
X136099Y201399D01*
X135699D01*
X135300Y201798D01*
Y202998D01*
X105699Y196700D02*
X103300D01*
Y197900D01*
X103700Y198300D01*
X105299D01*
X105699Y197900D01*
Y196700D01*
X103300Y199099D02*
Y199899D01*
Y199499D01*
X105699D01*
X105299Y199099D01*
Y201099D02*
X105699Y201498D01*
Y202298D01*
X105299Y202698D01*
X104900D01*
X104500Y202298D01*
X104100Y202698D01*
X103700D01*
X103300Y202298D01*
Y201498D01*
X103700Y201099D01*
X104100D01*
X104500Y201498D01*
X104900Y201099D01*
X105299D01*
X104500Y201498D02*
Y202298D01*
X76899Y197200D02*
X74500D01*
Y198400D01*
X74900Y198800D01*
X76499D01*
X76899Y198400D01*
Y197200D01*
X74500Y199599D02*
Y200399D01*
Y199999D01*
X76899D01*
X76499Y199599D01*
X76899Y201599D02*
Y203198D01*
X76499D01*
X74900Y201599D01*
X74500D01*
X84500Y25000D02*
Y27399D01*
X83300D01*
X82901Y26999D01*
Y26200D01*
X83300Y25800D01*
X84500D01*
X83700D02*
X82901Y25000D01*
X82101D02*
X81301D01*
X81701D01*
Y27399D01*
X82101Y26999D01*
X78502Y25000D02*
X80101D01*
X78502Y26599D01*
Y26999D01*
X78902Y27399D01*
X79702D01*
X80101Y26999D01*
X77702Y25400D02*
X77302Y25000D01*
X76503D01*
X76103Y25400D01*
Y26999D01*
X76503Y27399D01*
X77302D01*
X77702Y26999D01*
Y26599D01*
X77302Y26200D01*
X76103D01*
X84300Y21000D02*
Y23399D01*
X83100D01*
X82701Y22999D01*
Y22200D01*
X83100Y21800D01*
X84300D01*
X83500D02*
X82701Y21000D01*
X81901D02*
X81101D01*
X81501D01*
Y23399D01*
X81901Y22999D01*
X78302Y21000D02*
X79901D01*
X78302Y22600D01*
Y22999D01*
X78702Y23399D01*
X79502D01*
X79901Y22999D01*
X77502D02*
X77102Y23399D01*
X76303D01*
X75903Y22999D01*
Y22600D01*
X76303Y22200D01*
X75903Y21800D01*
Y21400D01*
X76303Y21000D01*
X77102D01*
X77502Y21400D01*
Y21800D01*
X77102Y22200D01*
X77502Y22600D01*
Y22999D01*
X77102Y22200D02*
X76303D01*
X78966Y52133D02*
X79399Y51700D01*
Y50833D01*
X78966Y50400D01*
X77233D01*
X76800Y50833D01*
Y51700D01*
X77233Y52133D01*
X76800Y52999D02*
Y53865D01*
Y53432D01*
X79399D01*
X78966Y52999D01*
X76800Y55165D02*
Y56032D01*
Y55598D01*
X79399D01*
X78966Y55165D01*
X76800Y59064D02*
Y57331D01*
X78533Y59064D01*
X78966D01*
X79399Y58631D01*
Y57764D01*
X78966Y57331D01*
X119200Y187700D02*
Y190099D01*
X118000D01*
X117601Y189699D01*
Y188900D01*
X118000Y188500D01*
X119200D01*
X118400D02*
X117601Y187700D01*
X115201D02*
X116801D01*
X115201Y189299D01*
Y189699D01*
X115601Y190099D01*
X116401D01*
X116801Y189699D01*
X112802Y190099D02*
X113602Y189699D01*
X114402Y188900D01*
Y188100D01*
X114002Y187700D01*
X113202D01*
X112802Y188100D01*
Y188500D01*
X113202Y188900D01*
X114402D01*
X89200Y188600D02*
Y190999D01*
X88000D01*
X87600Y190599D01*
Y189800D01*
X88000Y189400D01*
X89200D01*
X88400D02*
X87600Y188600D01*
X85201D02*
X86801D01*
X85201Y190199D01*
Y190599D01*
X85601Y190999D01*
X86401D01*
X86801Y190599D01*
X82802Y190999D02*
X84402D01*
Y189800D01*
X83602Y190199D01*
X83202D01*
X82802Y189800D01*
Y189000D01*
X83202Y188600D01*
X84002D01*
X84402Y189000D01*
X148800Y200900D02*
Y203299D01*
X147600D01*
X147201Y202899D01*
Y202100D01*
X147600Y201700D01*
X148800D01*
X148000D02*
X147201Y200900D01*
X146401Y202899D02*
X146001Y203299D01*
X145201D01*
X144801Y202899D01*
Y202500D01*
X145201Y202100D01*
X145601D01*
X145201D01*
X144801Y201700D01*
Y201300D01*
X145201Y200900D01*
X146001D01*
X146401Y201300D01*
X144002Y200900D02*
X143202D01*
X143602D01*
Y203299D01*
X144002Y202899D01*
X184600Y176700D02*
Y179099D01*
X183400D01*
X183001Y178699D01*
Y177900D01*
X183400Y177500D01*
X184600D01*
X183800D02*
X183001Y176700D01*
X180601D02*
X182201D01*
X180601Y178299D01*
Y178699D01*
X181001Y179099D01*
X181801D01*
X182201Y178699D01*
X179802D02*
X179402Y179099D01*
X178602D01*
X178202Y178699D01*
Y178299D01*
X178602Y177900D01*
X178202Y177500D01*
Y177100D01*
X178602Y176700D01*
X179402D01*
X179802Y177100D01*
Y177500D01*
X179402Y177900D01*
X179802Y178299D01*
Y178699D01*
X179402Y177900D02*
X178602D01*
X199367Y113033D02*
Y114766D01*
X199800Y115199D01*
X200667D01*
X201100Y114766D01*
Y113033D01*
X200667Y112600D01*
X199800D01*
X200234Y113466D02*
X199367Y112600D01*
X199800D02*
X199367Y113033D01*
X198501Y112600D02*
X197634D01*
X198068D01*
Y115199D01*
X198501Y114766D01*
X196335D02*
X195902Y115199D01*
X195035D01*
X194602Y114766D01*
Y113033D01*
X195035Y112600D01*
X195902D01*
X196335Y113033D01*
Y114766D01*
X191667Y112733D02*
Y114466D01*
X192100Y114899D01*
X192967D01*
X193400Y114466D01*
Y112733D01*
X192967Y112300D01*
X192100D01*
X192534Y113166D02*
X191667Y112300D01*
X192100D02*
X191667Y112733D01*
X190801D02*
X190368Y112300D01*
X189501D01*
X189068Y112733D01*
Y114466D01*
X189501Y114899D01*
X190368D01*
X190801Y114466D01*
Y114033D01*
X190368Y113600D01*
X189068D01*
X66867Y122266D02*
X67300Y122699D01*
X68167D01*
X68600Y122266D01*
Y120533D01*
X68167Y120100D01*
X67300D01*
X66867Y120533D01*
X66001Y122266D02*
X65568Y122699D01*
X64701D01*
X64268Y122266D01*
Y121833D01*
X64701Y121400D01*
X65135D01*
X64701D01*
X64268Y120966D01*
Y120533D01*
X64701Y120100D01*
X65568D01*
X66001Y120533D01*
X61669Y120100D02*
X63402D01*
X61669Y121833D01*
Y122266D01*
X62102Y122699D01*
X62968D01*
X63402Y122266D01*
X159966Y25033D02*
X160399Y24600D01*
Y23733D01*
X159966Y23300D01*
X158233D01*
X157800Y23733D01*
Y24600D01*
X158233Y25033D01*
X157800Y25899D02*
Y26766D01*
Y26332D01*
X160399D01*
X159966Y25899D01*
X157800Y28065D02*
Y28931D01*
Y28498D01*
X160399D01*
X159966Y28065D01*
X160399Y30231D02*
Y31964D01*
X159966D01*
X158233Y30231D01*
X157800D01*
X176900Y190800D02*
X179499D01*
Y192100D01*
X179066Y192533D01*
X178200D01*
X177766Y192100D01*
Y190800D01*
Y191666D02*
X176900Y192533D01*
X179066Y193399D02*
X179499Y193832D01*
Y194699D01*
X179066Y195132D01*
X178633D01*
X178200Y194699D01*
Y194266D01*
Y194699D01*
X177766Y195132D01*
X177333D01*
X176900Y194699D01*
Y193832D01*
X177333Y193399D01*
X176900Y197731D02*
Y195998D01*
X178633Y197731D01*
X179066D01*
X179499Y197298D01*
Y196432D01*
X179066Y195998D01*
X77300Y119400D02*
Y121999D01*
X76000D01*
X75567Y121566D01*
Y120700D01*
X76000Y120266D01*
X77300D01*
X76434D02*
X75567Y119400D01*
X72968Y121999D02*
X74701D01*
Y120700D01*
X73835Y121133D01*
X73401D01*
X72968Y120700D01*
Y119833D01*
X73401Y119400D01*
X74268D01*
X74701Y119833D01*
X70369Y119400D02*
X72102D01*
X70369Y121133D01*
Y121566D01*
X70802Y121999D01*
X71668D01*
X72102Y121566D01*
X208967Y113133D02*
Y114866D01*
X209400Y115299D01*
X210267D01*
X210700Y114866D01*
Y113133D01*
X210267Y112700D01*
X209400D01*
X209834Y113566D02*
X208967Y112700D01*
X209400D02*
X208967Y113133D01*
X208101Y112700D02*
X207235D01*
X207668D01*
Y115299D01*
X208101Y114866D01*
X205935Y112700D02*
X205068D01*
X205502D01*
Y115299D01*
X205935Y114866D01*
X199967Y122133D02*
Y123866D01*
X200400Y124299D01*
X201267D01*
X201700Y123866D01*
Y122133D01*
X201267Y121700D01*
X200400D01*
X200834Y122566D02*
X199967Y121700D01*
X200400D02*
X199967Y122133D01*
X197368Y121700D02*
X199101D01*
X197368Y123433D01*
Y123866D01*
X197801Y124299D01*
X198668D01*
X199101Y123866D01*
X9700Y107500D02*
Y110099D01*
X8400D01*
X7967Y109666D01*
Y108800D01*
X8400Y108366D01*
X9700D01*
X8834D02*
X7967Y107500D01*
X5368Y110099D02*
X7101D01*
Y108800D01*
X6234Y109233D01*
X5801D01*
X5368Y108800D01*
Y107933D01*
X5801Y107500D01*
X6668D01*
X7101Y107933D01*
X4502Y107500D02*
X3635D01*
X4069D01*
Y110099D01*
X4502Y109666D01*
X119400Y200700D02*
Y203299D01*
X118100D01*
X117667Y202866D01*
Y202000D01*
X118100Y201566D01*
X119400D01*
X118534D02*
X117667Y200700D01*
X116801Y202866D02*
X116368Y203299D01*
X115501D01*
X115068Y202866D01*
Y202433D01*
X115501Y202000D01*
X115934D01*
X115501D01*
X115068Y201566D01*
Y201133D01*
X115501Y200700D01*
X116368D01*
X116801Y201133D01*
X114202Y202866D02*
X113768Y203299D01*
X112902D01*
X112469Y202866D01*
Y201133D01*
X112902Y200700D01*
X113768D01*
X114202Y201133D01*
Y202866D01*
X148000Y197200D02*
Y199799D01*
X146700D01*
X146267Y199366D01*
Y198500D01*
X146700Y198066D01*
X148000D01*
X147134D02*
X146267Y197200D01*
X145401D02*
X144534D01*
X144968D01*
Y199799D01*
X145401Y199366D01*
X141502Y199799D02*
X142368Y199366D01*
X143235Y198500D01*
Y197633D01*
X142802Y197200D01*
X141935D01*
X141502Y197633D01*
Y198066D01*
X141935Y198500D01*
X143235D01*
X89400Y196900D02*
Y199499D01*
X88100D01*
X87667Y199066D01*
Y198200D01*
X88100Y197766D01*
X89400D01*
X88534D02*
X87667Y196900D01*
X86801D02*
X85935D01*
X86368D01*
Y199499D01*
X86801Y199066D01*
X83335Y196900D02*
Y199499D01*
X84635Y198200D01*
X82902D01*
X69100Y197800D02*
Y200399D01*
X67800D01*
X67367Y199966D01*
Y199100D01*
X67800Y198666D01*
X69100D01*
X68234D02*
X67367Y197800D01*
X66501D02*
X65635D01*
X66068D01*
Y200399D01*
X66501Y199966D01*
X64335D02*
X63902Y200399D01*
X63035D01*
X62602Y199966D01*
Y199533D01*
X63035Y199100D01*
X63468D01*
X63035D01*
X62602Y198666D01*
Y198233D01*
X63035Y197800D01*
X63902D01*
X64335Y198233D01*
X177200Y159100D02*
X179799D01*
Y160400D01*
X179366Y160833D01*
X178500D01*
X178066Y160400D01*
Y159100D01*
Y159966D02*
X177200Y160833D01*
Y161699D02*
Y162566D01*
Y162132D01*
X179799D01*
X179366Y161699D01*
X177200Y165598D02*
Y163865D01*
X178933Y165598D01*
X179366D01*
X179799Y165165D01*
Y164298D01*
X179366Y163865D01*
X146800Y169100D02*
X149399D01*
Y170400D01*
X148966Y170833D01*
X148100D01*
X147666Y170400D01*
Y169100D01*
Y169966D02*
X146800Y170833D01*
Y171699D02*
Y172566D01*
Y172132D01*
X149399D01*
X148966Y171699D01*
X147233Y173865D02*
X146800Y174298D01*
Y175165D01*
X147233Y175598D01*
X148966D01*
X149399Y175165D01*
Y174298D01*
X148966Y173865D01*
X148533D01*
X148100Y174298D01*
Y175598D01*
X147000Y154900D02*
X149599D01*
Y156200D01*
X149166Y156633D01*
X148300D01*
X147866Y156200D01*
Y154900D01*
Y155766D02*
X147000Y156633D01*
Y157499D02*
Y158366D01*
Y157932D01*
X149599D01*
X149166Y157499D01*
X147000Y159665D02*
Y160531D01*
Y160098D01*
X149599D01*
X149166Y159665D01*
X87300Y170300D02*
X89899D01*
Y171600D01*
X89466Y172033D01*
X88600D01*
X88166Y171600D01*
Y170300D01*
Y171166D02*
X87300Y172033D01*
Y172899D02*
Y173766D01*
Y173332D01*
X89899D01*
X89466Y172899D01*
X89899Y175065D02*
Y176798D01*
X89466D01*
X87733Y175065D01*
X87300D01*
Y159100D02*
X89899D01*
Y160400D01*
X89466Y160833D01*
X88600D01*
X88166Y160400D01*
Y159100D01*
Y159966D02*
X87300Y160833D01*
X87733Y161699D02*
X87300Y162132D01*
Y162999D01*
X87733Y163432D01*
X89466D01*
X89899Y162999D01*
Y162132D01*
X89466Y161699D01*
X89033D01*
X88600Y162132D01*
Y163432D01*
X121100Y159500D02*
X123699D01*
Y160800D01*
X123266Y161233D01*
X122400D01*
X121966Y160800D01*
Y159500D01*
Y160366D02*
X121100Y161233D01*
X123699Y162099D02*
Y163832D01*
X123266D01*
X121533Y162099D01*
X121100D01*
X91500Y159100D02*
X94099D01*
Y160400D01*
X93666Y160833D01*
X92800D01*
X92366Y160400D01*
Y159100D01*
Y159966D02*
X91500Y160833D01*
X94099Y163432D02*
X93666Y162566D01*
X92800Y161699D01*
X91933D01*
X91500Y162132D01*
Y162999D01*
X91933Y163432D01*
X92366D01*
X92800Y162999D01*
Y161699D01*
X62200Y158800D02*
X64799D01*
Y160100D01*
X64366Y160533D01*
X63500D01*
X63066Y160100D01*
Y158800D01*
Y159666D02*
X62200Y160533D01*
X64799Y163132D02*
Y161399D01*
X63500D01*
X63933Y162266D01*
Y162699D01*
X63500Y163132D01*
X62633D01*
X62200Y162699D01*
Y161832D01*
X62633Y161399D01*
X217067Y135833D02*
Y137566D01*
X217500Y137999D01*
X218367D01*
X218800Y137566D01*
Y135833D01*
X218367Y135400D01*
X217500D01*
X217934Y136266D02*
X217067Y135400D01*
X217500D02*
X217067Y135833D01*
X214468Y135400D02*
X216201D01*
X214468Y137133D01*
Y137566D01*
X214901Y137999D01*
X215768D01*
X216201Y137566D01*
X212302Y135400D02*
Y137999D01*
X213602Y136700D01*
X211869D01*
X200267Y135833D02*
Y137566D01*
X200700Y137999D01*
X201567D01*
X202000Y137566D01*
Y135833D01*
X201567Y135400D01*
X200700D01*
X201134Y136266D02*
X200267Y135400D01*
X200700D02*
X200267Y135833D01*
X197668Y135400D02*
X199401D01*
X197668Y137133D01*
Y137566D01*
X198101Y137999D01*
X198968D01*
X199401Y137566D01*
X195069Y135400D02*
X196802D01*
X195069Y137133D01*
Y137566D01*
X195502Y137999D01*
X196369D01*
X196802Y137566D01*
X191867Y135733D02*
Y137466D01*
X192300Y137899D01*
X193167D01*
X193600Y137466D01*
Y135733D01*
X193167Y135300D01*
X192300D01*
X192734Y136166D02*
X191867Y135300D01*
X192300D02*
X191867Y135733D01*
X189268Y135300D02*
X191001D01*
X189268Y137033D01*
Y137466D01*
X189701Y137899D01*
X190568D01*
X191001Y137466D01*
X188402Y135300D02*
X187535D01*
X187969D01*
Y137899D01*
X188402Y137466D01*
X217467Y113133D02*
Y114866D01*
X217900Y115299D01*
X218767D01*
X219200Y114866D01*
Y113133D01*
X218767Y112700D01*
X217900D01*
X218334Y113566D02*
X217467Y112700D01*
X217900D02*
X217467Y113133D01*
X216601Y112700D02*
X215735D01*
X216168D01*
Y115299D01*
X216601Y114866D01*
X212702Y112700D02*
X214435D01*
X212702Y114433D01*
Y114866D01*
X213135Y115299D01*
X214002D01*
X214435Y114866D01*
X216767Y121933D02*
Y123666D01*
X217200Y124099D01*
X218067D01*
X218500Y123666D01*
Y121933D01*
X218067Y121500D01*
X217200D01*
X217634Y122366D02*
X216767Y121500D01*
X217200D02*
X216767Y121933D01*
X214601Y121500D02*
Y124099D01*
X215901Y122800D01*
X214168D01*
X209267Y121833D02*
Y123566D01*
X209700Y123999D01*
X210567D01*
X211000Y123566D01*
Y121833D01*
X210567Y121400D01*
X209700D01*
X210134Y122266D02*
X209267Y121400D01*
X209700D02*
X209267Y121833D01*
X208401Y123566D02*
X207968Y123999D01*
X207101D01*
X206668Y123566D01*
Y123133D01*
X207101Y122700D01*
X207535D01*
X207101D01*
X206668Y122266D01*
Y121833D01*
X207101Y121400D01*
X207968D01*
X208401Y121833D01*
X191867D02*
Y123566D01*
X192300Y123999D01*
X193167D01*
X193600Y123566D01*
Y121833D01*
X193167Y121400D01*
X192300D01*
X192734Y122266D02*
X191867Y121400D01*
X192300D02*
X191867Y121833D01*
X191001Y121400D02*
X190134D01*
X190568D01*
Y123999D01*
X191001Y123566D01*
X179899Y149700D02*
X177300D01*
Y151000D01*
X177733Y151433D01*
X179466D01*
X179899Y151000D01*
Y149700D01*
Y152299D02*
Y154032D01*
X179466D01*
X177733Y152299D01*
X177300D01*
X149899Y146400D02*
X147300D01*
Y147700D01*
X147733Y148133D01*
X149466D01*
X149899Y147700D01*
Y146400D01*
X149466Y148999D02*
X149899Y149432D01*
Y150299D01*
X149466Y150732D01*
X149033D01*
X148600Y150299D01*
X148166Y150732D01*
X147733D01*
X147300Y150299D01*
Y149432D01*
X147733Y148999D01*
X148166D01*
X148600Y149432D01*
X149033Y148999D01*
X149466D01*
X148600Y149432D02*
Y150299D01*
X119899Y150400D02*
X117300D01*
Y151700D01*
X117733Y152133D01*
X119466D01*
X119899Y151700D01*
Y150400D01*
Y154732D02*
X119466Y153866D01*
X118600Y152999D01*
X117733D01*
X117300Y153432D01*
Y154299D01*
X117733Y154732D01*
X118166D01*
X118600Y154299D01*
Y152999D01*
X90499Y150900D02*
X87900D01*
Y152200D01*
X88333Y152633D01*
X90066D01*
X90499Y152200D01*
Y150900D01*
Y155232D02*
Y153499D01*
X89200D01*
X89633Y154366D01*
Y154799D01*
X89200Y155232D01*
X88333D01*
X87900Y154799D01*
Y153932D01*
X88333Y153499D01*
X175466Y134633D02*
X175899Y134200D01*
Y133333D01*
X175466Y132900D01*
X173733D01*
X173300Y133333D01*
Y134200D01*
X173733Y134633D01*
X173300Y137232D02*
Y135499D01*
X175033Y137232D01*
X175466D01*
X175899Y136799D01*
Y135932D01*
X175466Y135499D01*
X175899Y139831D02*
Y138098D01*
X174600D01*
X175033Y138965D01*
Y139398D01*
X174600Y139831D01*
X173733D01*
X173300Y139398D01*
Y138531D01*
X173733Y138098D01*
X116466Y135133D02*
X116899Y134700D01*
Y133833D01*
X116466Y133400D01*
X114733D01*
X114300Y133833D01*
Y134700D01*
X114733Y135133D01*
X114300Y137732D02*
Y135999D01*
X116033Y137732D01*
X116466D01*
X116899Y137299D01*
Y136432D01*
X116466Y135999D01*
Y138598D02*
X116899Y139032D01*
Y139898D01*
X116466Y140331D01*
X116033D01*
X115600Y139898D01*
Y139465D01*
Y139898D01*
X115166Y140331D01*
X114733D01*
X114300Y139898D01*
Y139032D01*
X114733Y138598D01*
X86566Y135233D02*
X86999Y134800D01*
Y133933D01*
X86566Y133500D01*
X84833D01*
X84400Y133933D01*
Y134800D01*
X84833Y135233D01*
X84400Y137832D02*
Y136099D01*
X86133Y137832D01*
X86566D01*
X86999Y137399D01*
Y136532D01*
X86566Y136099D01*
X84400Y140431D02*
Y138698D01*
X86133Y140431D01*
X86566D01*
X86999Y139998D01*
Y139131D01*
X86566Y138698D01*
X21700Y208600D02*
Y211199D01*
X20400D01*
X19967Y210766D01*
Y209900D01*
X20400Y209466D01*
X21700D01*
X20834D02*
X19967Y208600D01*
X19101D02*
X18235D01*
X18668D01*
Y211199D01*
X19101Y210766D01*
X15202Y208600D02*
X16935D01*
X15202Y210333D01*
Y210766D01*
X15635Y211199D01*
X16502D01*
X16935Y210766D01*
X14336D02*
X13903Y211199D01*
X13036D01*
X12603Y210766D01*
Y210333D01*
X13036Y209900D01*
X13469D01*
X13036D01*
X12603Y209466D01*
Y209033D01*
X13036Y208600D01*
X13903D01*
X14336Y209033D01*
X21400Y204100D02*
Y206699D01*
X20100D01*
X19667Y206266D01*
Y205400D01*
X20100Y204966D01*
X21400D01*
X20534D02*
X19667Y204100D01*
X18801D02*
X17934D01*
X18368D01*
Y206699D01*
X18801Y206266D01*
X14902Y204100D02*
X16635D01*
X14902Y205833D01*
Y206266D01*
X15335Y206699D01*
X16202D01*
X16635Y206266D01*
X12303Y204100D02*
X14036D01*
X12303Y205833D01*
Y206266D01*
X12736Y206699D01*
X13602D01*
X14036Y206266D01*
X21700Y200400D02*
Y202999D01*
X20400D01*
X19967Y202566D01*
Y201700D01*
X20400Y201266D01*
X21700D01*
X20834D02*
X19967Y200400D01*
X19101D02*
X18235D01*
X18668D01*
Y202999D01*
X19101Y202566D01*
X15202Y200400D02*
X16935D01*
X15202Y202133D01*
Y202566D01*
X15635Y202999D01*
X16502D01*
X16935Y202566D01*
X14336Y200400D02*
X13469D01*
X13903D01*
Y202999D01*
X14336Y202566D01*
X21500Y197100D02*
Y199699D01*
X20200D01*
X19767Y199266D01*
Y198400D01*
X20200Y197966D01*
X21500D01*
X20634D02*
X19767Y197100D01*
X18901D02*
X18034D01*
X18468D01*
Y199699D01*
X18901Y199266D01*
X15002Y197100D02*
X16735D01*
X15002Y198833D01*
Y199266D01*
X15435Y199699D01*
X16302D01*
X16735Y199266D01*
X14136D02*
X13702Y199699D01*
X12836D01*
X12403Y199266D01*
Y197533D01*
X12836Y197100D01*
X13702D01*
X14136Y197533D01*
Y199266D01*
X150200Y92099D02*
Y89500D01*
X148467D01*
X145868D02*
X147601D01*
X145868Y91233D01*
Y91666D01*
X146301Y92099D01*
X147168D01*
X147601Y91666D01*
X169400Y119900D02*
Y122499D01*
X168100D01*
X167667Y122066D01*
Y121200D01*
X168100Y120766D01*
X169400D01*
X168534D02*
X167667Y119900D01*
X166801Y122499D02*
X165068D01*
Y122066D01*
X166801Y120333D01*
Y119900D01*
X164202Y120333D02*
X163768Y119900D01*
X162902D01*
X162469Y120333D01*
Y122066D01*
X162902Y122499D01*
X163768D01*
X164202Y122066D01*
Y121633D01*
X163768Y121200D01*
X162469D01*
X110600Y56999D02*
Y54400D01*
X109300D01*
X108867Y54833D01*
Y56566D01*
X109300Y56999D01*
X110600D01*
X108001Y56566D02*
X107568Y56999D01*
X106701D01*
X106268Y56566D01*
Y56133D01*
X106701Y55700D01*
X107134D01*
X106701D01*
X106268Y55266D01*
Y54833D01*
X106701Y54400D01*
X107568D01*
X108001Y54833D01*
X103669Y54400D02*
X105402D01*
X103669Y56133D01*
Y56566D01*
X104102Y56999D01*
X104969D01*
X105402Y56566D01*
X55400Y106299D02*
Y104133D01*
X54967Y103700D01*
X54100D01*
X53667Y104133D01*
Y106299D01*
X51068D02*
X51934Y105866D01*
X52801Y105000D01*
Y104133D01*
X52368Y103700D01*
X51501D01*
X51068Y104133D01*
Y104566D01*
X51501Y105000D01*
X52801D01*
X103700Y21200D02*
Y23799D01*
X102400D01*
X101967Y23366D01*
Y22500D01*
X102400Y22066D01*
X103700D01*
X102834D02*
X101967Y21200D01*
X101101D02*
X100234D01*
X100668D01*
Y23799D01*
X101101Y23366D01*
X97202Y21200D02*
X98935D01*
X97202Y22933D01*
Y23366D01*
X97635Y23799D01*
X98502D01*
X98935Y23366D01*
X96336Y23799D02*
X94603D01*
Y23366D01*
X96336Y21633D01*
Y21200D01*
X45900Y57199D02*
Y54600D01*
X44600D01*
X44167Y55033D01*
Y56766D01*
X44600Y57199D01*
X45900D01*
X43301Y56766D02*
X42868Y57199D01*
X42001D01*
X41568Y56766D01*
Y56333D01*
X42001Y55900D01*
X42434D01*
X42001D01*
X41568Y55466D01*
Y55033D01*
X42001Y54600D01*
X42868D01*
X43301Y55033D01*
X39402Y54600D02*
Y57199D01*
X40702Y55900D01*
X38969D01*
X79201Y118800D02*
X81800D01*
Y117500D01*
X81367Y117067D01*
X79634D01*
X79201Y117500D01*
Y118800D01*
X79634Y116201D02*
X79201Y115768D01*
Y114901D01*
X79634Y114468D01*
X80067D01*
X80500Y114901D01*
Y115334D01*
Y114901D01*
X80934Y114468D01*
X81367D01*
X81800Y114901D01*
Y115768D01*
X81367Y116201D01*
X81800Y113602D02*
Y112735D01*
Y113169D01*
X79201D01*
X79634Y113602D01*
X50500Y110499D02*
Y108333D01*
X50067Y107900D01*
X49200D01*
X48767Y108333D01*
Y110499D01*
X46601Y107900D02*
Y110499D01*
X47901Y109200D01*
X46168D01*
X108200Y80800D02*
X110799D01*
Y82100D01*
X110366Y82533D01*
X109500D01*
X109066Y82100D01*
Y80800D01*
Y81666D02*
X108200Y82533D01*
X110366Y83399D02*
X110799Y83832D01*
Y84699D01*
X110366Y85132D01*
X109933D01*
X109500Y84699D01*
X109066Y85132D01*
X108633D01*
X108200Y84699D01*
Y83832D01*
X108633Y83399D01*
X109066D01*
X109500Y83832D01*
X109933Y83399D01*
X110366D01*
X109500Y83832D02*
Y84699D01*
X108200Y87731D02*
Y85998D01*
X109933Y87731D01*
X110366D01*
X110799Y87298D01*
Y86431D01*
X110366Y85998D01*
X63500Y56199D02*
Y54033D01*
X63067Y53600D01*
X62200D01*
X61767Y54033D01*
Y56199D01*
X60901Y54033D02*
X60468Y53600D01*
X59601D01*
X59168Y54033D01*
Y55766D01*
X59601Y56199D01*
X60468D01*
X60901Y55766D01*
Y55333D01*
X60468Y54900D01*
X59168D01*
X133967Y25966D02*
X134400Y26399D01*
X135267D01*
X135700Y25966D01*
Y24233D01*
X135267Y23800D01*
X134400D01*
X133967Y24233D01*
X133101Y23800D02*
X132234D01*
X132668D01*
Y26399D01*
X133101Y25966D01*
X129202Y23800D02*
X130935D01*
X129202Y25533D01*
Y25966D01*
X129635Y26399D01*
X130502D01*
X130935Y25966D01*
X128336Y23800D02*
X127469D01*
X127902D01*
Y26399D01*
X128336Y25966D01*
X128667Y115533D02*
Y117266D01*
X129100Y117699D01*
X129967D01*
X130400Y117266D01*
Y115533D01*
X129967Y115100D01*
X129100D01*
X129534Y115966D02*
X128667Y115100D01*
X129100D02*
X128667Y115533D01*
X126068Y115100D02*
X127801D01*
X126068Y116833D01*
Y117266D01*
X126501Y117699D01*
X127368D01*
X127801Y117266D01*
X123469Y117699D02*
X124335Y117266D01*
X125202Y116400D01*
Y115533D01*
X124768Y115100D01*
X123902D01*
X123469Y115533D01*
Y115966D01*
X123902Y116400D01*
X125202D01*
X111600Y89400D02*
X114199D01*
Y90700D01*
X113766Y91133D01*
X112900D01*
X112466Y90700D01*
Y89400D01*
Y90266D02*
X111600Y91133D01*
X113766Y91999D02*
X114199Y92432D01*
Y93299D01*
X113766Y93732D01*
X113333D01*
X112900Y93299D01*
X112466Y93732D01*
X112033D01*
X111600Y93299D01*
Y92432D01*
X112033Y91999D01*
X112466D01*
X112900Y92432D01*
X113333Y91999D01*
X113766D01*
X112900Y92432D02*
Y93299D01*
X113766Y94598D02*
X114199Y95031D01*
Y95898D01*
X113766Y96331D01*
X112033D01*
X111600Y95898D01*
Y95031D01*
X112033Y94598D01*
X113766D01*
X156266Y25033D02*
X156699Y24600D01*
Y23733D01*
X156266Y23300D01*
X154533D01*
X154100Y23733D01*
Y24600D01*
X154533Y25033D01*
X154100Y25899D02*
Y26766D01*
Y26332D01*
X156699D01*
X156266Y25899D01*
X154100Y28065D02*
Y28931D01*
Y28498D01*
X156699D01*
X156266Y28065D01*
Y30231D02*
X156699Y30664D01*
Y31531D01*
X156266Y31964D01*
X155833D01*
X155400Y31531D01*
X154966Y31964D01*
X154533D01*
X154100Y31531D01*
Y30664D01*
X154533Y30231D01*
X154966D01*
X155400Y30664D01*
X155833Y30231D01*
X156266D01*
X155400Y30664D02*
Y31531D01*
X90067Y121366D02*
X90500Y121799D01*
X91367D01*
X91800Y121366D01*
Y119633D01*
X91367Y119200D01*
X90500D01*
X90067Y119633D01*
X87468Y119200D02*
X89201D01*
X87468Y120933D01*
Y121366D01*
X87901Y121799D01*
X88768D01*
X89201Y121366D01*
X86602Y121799D02*
X84869D01*
Y121366D01*
X86602Y119633D01*
Y119200D01*
X53667Y98366D02*
X54100Y98799D01*
X54967D01*
X55400Y98366D01*
Y96633D01*
X54967Y96200D01*
X54100D01*
X53667Y96633D01*
X52801Y98366D02*
X52368Y98799D01*
X51501D01*
X51068Y98366D01*
Y97933D01*
X51501Y97500D01*
X51934D01*
X51501D01*
X51068Y97066D01*
Y96633D01*
X51501Y96200D01*
X52368D01*
X52801Y96633D01*
X50202Y98366D02*
X49768Y98799D01*
X48902D01*
X48469Y98366D01*
Y97933D01*
X48902Y97500D01*
X48469Y97066D01*
Y96633D01*
X48902Y96200D01*
X49768D01*
X50202Y96633D01*
Y97066D01*
X49768Y97500D01*
X50202Y97933D01*
Y98366D01*
X49768Y97500D02*
X48902D01*
X164166Y73233D02*
X164599Y72800D01*
Y71933D01*
X164166Y71500D01*
X162433D01*
X162000Y71933D01*
Y72800D01*
X162433Y73233D01*
X162000Y75399D02*
X164599D01*
X163300Y74099D01*
Y75832D01*
X164599Y76698D02*
Y78431D01*
X164166D01*
X162433Y76698D01*
X162000D01*
X129066Y65533D02*
X129499Y65100D01*
Y64233D01*
X129066Y63800D01*
X127333D01*
X126900Y64233D01*
Y65100D01*
X127333Y65533D01*
X129499Y68132D02*
Y66399D01*
X128200D01*
X128633Y67265D01*
Y67699D01*
X128200Y68132D01*
X127333D01*
X126900Y67699D01*
Y66832D01*
X127333Y66399D01*
X126900Y70731D02*
Y68998D01*
X128633Y70731D01*
X129066D01*
X129499Y70298D01*
Y69432D01*
X129066Y68998D01*
X89467Y59166D02*
X89900Y59599D01*
X90767D01*
X91200Y59166D01*
Y57433D01*
X90767Y57000D01*
X89900D01*
X89467Y57433D01*
X88601Y59166D02*
X88168Y59599D01*
X87301D01*
X86868Y59166D01*
Y58733D01*
X87301Y58300D01*
X87735D01*
X87301D01*
X86868Y57866D01*
Y57433D01*
X87301Y57000D01*
X88168D01*
X88601Y57433D01*
X86002Y59166D02*
X85568Y59599D01*
X84702D01*
X84269Y59166D01*
Y57433D01*
X84702Y57000D01*
X85568D01*
X86002Y57433D01*
Y59166D01*
X69367Y80562D02*
X69800Y80995D01*
X70667D01*
X71100Y80562D01*
Y78829D01*
X70667Y78396D01*
X69800D01*
X69367Y78829D01*
X67201Y78396D02*
Y80995D01*
X68501Y79696D01*
X66768D01*
X65902Y78396D02*
X65035D01*
X65469D01*
Y80995D01*
X65902Y80562D01*
X130166Y96133D02*
X130599Y95700D01*
Y94833D01*
X130166Y94400D01*
X128433D01*
X128000Y94833D01*
Y95700D01*
X128433Y96133D01*
X128000Y98299D02*
X130599D01*
X129300Y96999D01*
Y98732D01*
X128433Y99598D02*
X128000Y100031D01*
Y100898D01*
X128433Y101331D01*
X130166D01*
X130599Y100898D01*
Y100031D01*
X130166Y99598D01*
X129733D01*
X129300Y100031D01*
Y101331D01*
X52534Y20267D02*
X52101Y20700D01*
Y21567D01*
X52534Y22000D01*
X54267D01*
X54700Y21567D01*
Y20700D01*
X54267Y20267D01*
X52534Y19401D02*
X52101Y18968D01*
Y18101D01*
X52534Y17668D01*
X52967D01*
X53400Y18101D01*
Y18534D01*
Y18101D01*
X53834Y17668D01*
X54267D01*
X54700Y18101D01*
Y18968D01*
X54267Y19401D01*
X52101Y16802D02*
Y15069D01*
X52534D01*
X54267Y16802D01*
X54700D01*
X72566Y40833D02*
X72999Y40400D01*
Y39533D01*
X72566Y39100D01*
X70833D01*
X70400Y39533D01*
Y40400D01*
X70833Y40833D01*
X70400Y42999D02*
X72999D01*
X71700Y41699D01*
Y43432D01*
X70400Y46031D02*
Y44298D01*
X72133Y46031D01*
X72566D01*
X72999Y45598D01*
Y44732D01*
X72566Y44298D01*
X40066Y91933D02*
X40499Y91500D01*
Y90633D01*
X40066Y90200D01*
X38333D01*
X37900Y90633D01*
Y91500D01*
X38333Y91933D01*
X40066Y92799D02*
X40499Y93232D01*
Y94099D01*
X40066Y94532D01*
X39633D01*
X39200Y94099D01*
Y93665D01*
Y94099D01*
X38766Y94532D01*
X38333D01*
X37900Y94099D01*
Y93232D01*
X38333Y92799D01*
X37900Y96698D02*
X40499D01*
X39200Y95398D01*
Y97131D01*
X34767Y83366D02*
X35200Y83799D01*
X36067D01*
X36500Y83366D01*
Y81633D01*
X36067Y81200D01*
X35200D01*
X34767Y81633D01*
X33901Y83366D02*
X33468Y83799D01*
X32601D01*
X32168Y83366D01*
Y82933D01*
X32601Y82500D01*
X33034D01*
X32601D01*
X32168Y82066D01*
Y81633D01*
X32601Y81200D01*
X33468D01*
X33901Y81633D01*
X29569Y83799D02*
X31302D01*
Y82500D01*
X30435Y82933D01*
X30002D01*
X29569Y82500D01*
Y81633D01*
X30002Y81200D01*
X30869D01*
X31302Y81633D01*
X28667Y76966D02*
X29100Y77399D01*
X29967D01*
X30400Y76966D01*
Y75233D01*
X29967Y74800D01*
X29100D01*
X28667Y75233D01*
X26501Y74800D02*
Y77399D01*
X27801Y76100D01*
X26068D01*
X25202Y76966D02*
X24769Y77399D01*
X23902D01*
X23469Y76966D01*
Y75233D01*
X23902Y74800D01*
X24769D01*
X25202Y75233D01*
Y76966D01*
X75066Y99033D02*
X75499Y98600D01*
Y97733D01*
X75066Y97300D01*
X73333D01*
X72900Y97733D01*
Y98600D01*
X73333Y99033D01*
X75066Y99899D02*
X75499Y100332D01*
Y101199D01*
X75066Y101632D01*
X74633D01*
X74200Y101199D01*
Y100766D01*
Y101199D01*
X73766Y101632D01*
X73333D01*
X72900Y101199D01*
Y100332D01*
X73333Y99899D01*
X75499Y104231D02*
X75066Y103365D01*
X74200Y102498D01*
X73333D01*
X72900Y102931D01*
Y103798D01*
X73333Y104231D01*
X73766D01*
X74200Y103798D01*
Y102498D01*
X51766Y114033D02*
X52199Y113600D01*
Y112733D01*
X51766Y112300D01*
X50033D01*
X49600Y112733D01*
Y113600D01*
X50033Y114033D01*
X49600Y116632D02*
Y114899D01*
X51333Y116632D01*
X51766D01*
X52199Y116199D01*
Y115332D01*
X51766Y114899D01*
X52199Y119231D02*
X51766Y118365D01*
X50900Y117498D01*
X50033D01*
X49600Y117931D01*
Y118798D01*
X50033Y119231D01*
X50466D01*
X50900Y118798D01*
Y117498D01*
X122966Y112133D02*
X123399Y111700D01*
Y110833D01*
X122966Y110400D01*
X121233D01*
X120800Y110833D01*
Y111700D01*
X121233Y112133D01*
X123399Y114732D02*
Y112999D01*
X122100D01*
X122533Y113866D01*
Y114299D01*
X122100Y114732D01*
X121233D01*
X120800Y114299D01*
Y113432D01*
X121233Y112999D01*
X120800Y116898D02*
X123399D01*
X122100Y115598D01*
Y117331D01*
X54966Y113833D02*
X55399Y113400D01*
Y112533D01*
X54966Y112100D01*
X53233D01*
X52800Y112533D01*
Y113400D01*
X53233Y113833D01*
X54966Y114699D02*
X55399Y115132D01*
Y115999D01*
X54966Y116432D01*
X54533D01*
X54100Y115999D01*
Y115566D01*
Y115999D01*
X53666Y116432D01*
X53233D01*
X52800Y115999D01*
Y115132D01*
X53233Y114699D01*
X54966Y117298D02*
X55399Y117731D01*
Y118598D01*
X54966Y119031D01*
X54533D01*
X54100Y118598D01*
Y118165D01*
Y118598D01*
X53666Y119031D01*
X53233D01*
X52800Y118598D01*
Y117731D01*
X53233Y117298D01*
X40166Y26433D02*
X40599Y26000D01*
Y25133D01*
X40166Y24700D01*
X38433D01*
X38000Y25133D01*
Y26000D01*
X38433Y26433D01*
X40166Y27299D02*
X40599Y27732D01*
Y28599D01*
X40166Y29032D01*
X39733D01*
X39300Y28599D01*
Y28166D01*
Y28599D01*
X38866Y29032D01*
X38433D01*
X38000Y28599D01*
Y27732D01*
X38433Y27299D01*
Y29898D02*
X38000Y30332D01*
Y31198D01*
X38433Y31631D01*
X40166D01*
X40599Y31198D01*
Y30332D01*
X40166Y29898D01*
X39733D01*
X39300Y30332D01*
Y31631D01*
X53566Y39833D02*
X53999Y39400D01*
Y38533D01*
X53566Y38100D01*
X51833D01*
X51400Y38533D01*
Y39400D01*
X51833Y39833D01*
X51400Y41999D02*
X53999D01*
X52700Y40699D01*
Y42432D01*
X53566Y43298D02*
X53999Y43731D01*
Y44598D01*
X53566Y45031D01*
X53133D01*
X52700Y44598D01*
Y44165D01*
Y44598D01*
X52266Y45031D01*
X51833D01*
X51400Y44598D01*
Y43731D01*
X51833Y43298D01*
X124467Y42166D02*
X124900Y42599D01*
X125767D01*
X126200Y42166D01*
Y40433D01*
X125767Y40000D01*
X124900D01*
X124467Y40433D01*
X123601Y40000D02*
X122734D01*
X123168D01*
Y42599D01*
X123601Y42166D01*
X119702Y40000D02*
X121435D01*
X119702Y41733D01*
Y42166D01*
X120135Y42599D01*
X121002D01*
X121435Y42166D01*
X118836D02*
X118403Y42599D01*
X117536D01*
X117103Y42166D01*
Y40433D01*
X117536Y40000D01*
X118403D01*
X118836Y40433D01*
Y42166D01*
X134767Y29666D02*
X135200Y30099D01*
X136067D01*
X136500Y29666D01*
Y27933D01*
X136067Y27500D01*
X135200D01*
X134767Y27933D01*
X133901Y27500D02*
X133034D01*
X133468D01*
Y30099D01*
X133901Y29666D01*
X131735Y27500D02*
X130868D01*
X131302D01*
Y30099D01*
X131735Y29666D01*
X129569Y27933D02*
X129136Y27500D01*
X128269D01*
X127836Y27933D01*
Y29666D01*
X128269Y30099D01*
X129136D01*
X129569Y29666D01*
Y29233D01*
X129136Y28800D01*
X127836D01*
X56666Y220333D02*
X57099Y219900D01*
Y219033D01*
X56666Y218600D01*
X54933D01*
X54500Y219033D01*
Y219900D01*
X54933Y220333D01*
X54500Y221199D02*
Y222065D01*
Y221632D01*
X57099D01*
X56666Y221199D01*
Y223365D02*
X57099Y223798D01*
Y224665D01*
X56666Y225098D01*
X56233D01*
X55800Y224665D01*
Y224232D01*
Y224665D01*
X55366Y225098D01*
X54933D01*
X54500Y224665D01*
Y223798D01*
X54933Y223365D01*
X99366Y219933D02*
X99799Y219500D01*
Y218633D01*
X99366Y218200D01*
X97633D01*
X97200Y218633D01*
Y219500D01*
X97633Y219933D01*
X97200Y220799D02*
Y221666D01*
Y221232D01*
X99799D01*
X99366Y220799D01*
X97200Y224698D02*
Y222965D01*
X98933Y224698D01*
X99366D01*
X99799Y224265D01*
Y223398D01*
X99366Y222965D01*
X198166Y152833D02*
X198599Y152400D01*
Y151533D01*
X198166Y151100D01*
X196433D01*
X196000Y151533D01*
Y152400D01*
X196433Y152833D01*
X196000Y153699D02*
Y154566D01*
Y154132D01*
X198599D01*
X198166Y153699D01*
X116266Y220133D02*
X116699Y219700D01*
Y218833D01*
X116266Y218400D01*
X114533D01*
X114100Y218833D01*
Y219700D01*
X114533Y220133D01*
X114100Y220999D02*
Y221866D01*
Y221432D01*
X116699D01*
X116266Y220999D01*
Y223165D02*
X116699Y223598D01*
Y224465D01*
X116266Y224898D01*
X114533D01*
X114100Y224465D01*
Y223598D01*
X114533Y223165D01*
X116266D01*
X134966Y219633D02*
X135399Y219200D01*
Y218333D01*
X134966Y217900D01*
X133233D01*
X132800Y218333D01*
Y219200D01*
X133233Y219633D01*
Y220499D02*
X132800Y220932D01*
Y221799D01*
X133233Y222232D01*
X134966D01*
X135399Y221799D01*
Y220932D01*
X134966Y220499D01*
X134533D01*
X134100Y220932D01*
Y222232D01*
X198166Y163733D02*
X198599Y163300D01*
Y162433D01*
X198166Y162000D01*
X196433D01*
X196000Y162433D01*
Y163300D01*
X196433Y163733D01*
X196000Y166332D02*
Y164599D01*
X197733Y166332D01*
X198166D01*
X198599Y165899D01*
Y165032D01*
X198166Y164599D01*
X79966Y220033D02*
X80399Y219600D01*
Y218733D01*
X79966Y218300D01*
X78233D01*
X77800Y218733D01*
Y219600D01*
X78233Y220033D01*
X77800Y220899D02*
Y221765D01*
Y221332D01*
X80399D01*
X79966Y220899D01*
X77800Y223065D02*
Y223932D01*
Y223498D01*
X80399D01*
X79966Y223065D01*
X159666Y220333D02*
X160099Y219900D01*
Y219033D01*
X159666Y218600D01*
X157933D01*
X157500Y219033D01*
Y219900D01*
X157933Y220333D01*
X160099Y221199D02*
Y222932D01*
X159666D01*
X157933Y221199D01*
X157500D01*
X191466Y220933D02*
X191899Y220500D01*
Y219633D01*
X191466Y219200D01*
X189733D01*
X189300Y219633D01*
Y220500D01*
X189733Y220933D01*
X191899Y223532D02*
Y221799D01*
X190600D01*
X191033Y222666D01*
Y223099D01*
X190600Y223532D01*
X189733D01*
X189300Y223099D01*
Y222232D01*
X189733Y221799D01*
X143800Y87899D02*
Y85300D01*
X142500D01*
X142067Y85733D01*
Y87466D01*
X142500Y87899D01*
X143800D01*
X141201Y87466D02*
X140768Y87899D01*
X139901D01*
X139468Y87466D01*
Y87033D01*
X139901Y86600D01*
X140334D01*
X139901D01*
X139468Y86166D01*
Y85733D01*
X139901Y85300D01*
X140768D01*
X141201Y85733D01*
X136869Y87899D02*
X138602D01*
Y86600D01*
X137735Y87033D01*
X137302D01*
X136869Y86600D01*
Y85733D01*
X137302Y85300D01*
X138169D01*
X138602Y85733D01*
X128200Y22299D02*
Y19700D01*
X126900D01*
X126467Y20133D01*
Y21866D01*
X126900Y22299D01*
X128200D01*
X124301Y19700D02*
Y22299D01*
X125601Y21000D01*
X123868D01*
X123002Y21866D02*
X122569Y22299D01*
X121702D01*
X121269Y21866D01*
Y20133D01*
X121702Y19700D01*
X122569D01*
X123002Y20133D01*
Y21866D01*
X39600Y89199D02*
Y86600D01*
X37867D01*
X37001D02*
X36134D01*
X36568D01*
Y89199D01*
X37001Y88766D01*
X99600Y43456D02*
X97001D01*
Y42156D01*
X97434Y41723D01*
X98300D01*
X98734Y42156D01*
Y43456D01*
Y42590D02*
X99600Y41723D01*
Y40857D02*
Y39990D01*
Y40424D01*
X97001D01*
X97434Y40857D01*
Y38691D02*
X97001Y38258D01*
Y37391D01*
X97434Y36958D01*
X99167D01*
X99600Y37391D01*
Y38258D01*
X99167Y38691D01*
X97434D01*
X99167Y36092D02*
X99600Y35658D01*
Y34792D01*
X99167Y34359D01*
X97434D01*
X97001Y34792D01*
Y35658D01*
X97434Y36092D01*
X97867D01*
X98300Y35658D01*
Y34359D01*
X153300Y25900D02*
Y28499D01*
X152000D01*
X151567Y28066D01*
Y27200D01*
X152000Y26766D01*
X153300D01*
X152434D02*
X151567Y25900D01*
X150701D02*
X149834D01*
X150268D01*
Y28499D01*
X150701Y28066D01*
X148535D02*
X148102Y28499D01*
X147235D01*
X146802Y28066D01*
Y27633D01*
X147235Y27200D01*
X147669D01*
X147235D01*
X146802Y26766D01*
Y26333D01*
X147235Y25900D01*
X148102D01*
X148535Y26333D01*
X145936Y25900D02*
X145069D01*
X145502D01*
Y28499D01*
X145936Y28066D01*
X39500Y40400D02*
X42099D01*
Y41700D01*
X41666Y42133D01*
X40800D01*
X40366Y41700D01*
Y40400D01*
Y41266D02*
X39500Y42133D01*
X42099Y44732D02*
X41666Y43866D01*
X40800Y42999D01*
X39933D01*
X39500Y43432D01*
Y44299D01*
X39933Y44732D01*
X40366D01*
X40800Y44299D01*
Y42999D01*
X39500Y46898D02*
X42099D01*
X40800Y45598D01*
Y47331D01*
X29100Y32900D02*
X31699D01*
Y34200D01*
X31266Y34633D01*
X30400D01*
X29966Y34200D01*
Y32900D01*
Y33766D02*
X29100Y34633D01*
X31699Y37232D02*
X31266Y36366D01*
X30400Y35499D01*
X29533D01*
X29100Y35932D01*
Y36799D01*
X29533Y37232D01*
X29966D01*
X30400Y36799D01*
Y35499D01*
X31699Y39831D02*
Y38098D01*
X30400D01*
X30833Y38965D01*
Y39398D01*
X30400Y39831D01*
X29533D01*
X29100Y39398D01*
Y38532D01*
X29533Y38098D01*
X60900Y96700D02*
X63499D01*
Y98000D01*
X63066Y98433D01*
X62200D01*
X61766Y98000D01*
Y96700D01*
Y97566D02*
X60900Y98433D01*
X63499Y101032D02*
Y99299D01*
X62200D01*
X62633Y100165D01*
Y100599D01*
X62200Y101032D01*
X61333D01*
X60900Y100599D01*
Y99732D01*
X61333Y99299D01*
X63499Y103631D02*
Y101898D01*
X62200D01*
X62633Y102765D01*
Y103198D01*
X62200Y103631D01*
X61333D01*
X60900Y103198D01*
Y102331D01*
X61333Y101898D01*
X82100Y88400D02*
Y90999D01*
X80800D01*
X80367Y90566D01*
Y89700D01*
X80800Y89266D01*
X82100D01*
X81234D02*
X80367Y88400D01*
X77768Y90999D02*
X79501D01*
Y89700D01*
X78635Y90133D01*
X78201D01*
X77768Y89700D01*
Y88833D01*
X78201Y88400D01*
X79068D01*
X79501Y88833D01*
X76902Y90999D02*
X75169D01*
Y90566D01*
X76902Y88833D01*
Y88400D01*
X150400Y122200D02*
Y124799D01*
X149100D01*
X148667Y124366D01*
Y123500D01*
X149100Y123066D01*
X150400D01*
X149534D02*
X148667Y122200D01*
X147801Y124799D02*
X146068D01*
Y124366D01*
X147801Y122633D01*
Y122200D01*
X145202Y124799D02*
X143469D01*
Y124366D01*
X145202Y122633D01*
Y122200D01*
X164200Y98300D02*
X166799D01*
Y99600D01*
X166366Y100033D01*
X165500D01*
X165066Y99600D01*
Y98300D01*
Y99166D02*
X164200Y100033D01*
X166799Y100899D02*
Y102632D01*
X166366D01*
X164633Y100899D01*
X164200D01*
X166366Y103498D02*
X166799Y103931D01*
Y104798D01*
X166366Y105231D01*
X165933D01*
X165500Y104798D01*
X165066Y105231D01*
X164633D01*
X164200Y104798D01*
Y103931D01*
X164633Y103498D01*
X165066D01*
X165500Y103931D01*
X165933Y103498D01*
X166366D01*
X165500Y103931D02*
Y104798D01*
X112700Y97600D02*
X115299D01*
Y98900D01*
X114866Y99333D01*
X114000D01*
X113566Y98900D01*
Y97600D01*
Y98466D02*
X112700Y99333D01*
X114866Y100199D02*
X115299Y100632D01*
Y101499D01*
X114866Y101932D01*
X114433D01*
X114000Y101499D01*
X113566Y101932D01*
X113133D01*
X112700Y101499D01*
Y100632D01*
X113133Y100199D01*
X113566D01*
X114000Y100632D01*
X114433Y100199D01*
X114866D01*
X114000Y100632D02*
Y101499D01*
X114866Y102798D02*
X115299Y103232D01*
Y104098D01*
X114866Y104531D01*
X114433D01*
X114000Y104098D01*
Y103665D01*
Y104098D01*
X113566Y104531D01*
X113133D01*
X112700Y104098D01*
Y103232D01*
X113133Y102798D01*
X164000Y109600D02*
X166599D01*
Y110900D01*
X166166Y111333D01*
X165300D01*
X164866Y110900D01*
Y109600D01*
Y110466D02*
X164000Y111333D01*
X166166Y112199D02*
X166599Y112632D01*
Y113499D01*
X166166Y113932D01*
X165733D01*
X165300Y113499D01*
X164866Y113932D01*
X164433D01*
X164000Y113499D01*
Y112632D01*
X164433Y112199D01*
X164866D01*
X165300Y112632D01*
X165733Y112199D01*
X166166D01*
X165300Y112632D02*
Y113499D01*
X164000Y114798D02*
Y115665D01*
Y115232D01*
X166599D01*
X166166Y114798D01*
X60600Y66800D02*
Y69399D01*
X59300D01*
X58867Y68966D01*
Y68100D01*
X59300Y67666D01*
X60600D01*
X59734D02*
X58867Y66800D01*
X56268Y69399D02*
X57134Y68966D01*
X58001Y68100D01*
Y67233D01*
X57568Y66800D01*
X56701D01*
X56268Y67233D01*
Y67666D01*
X56701Y68100D01*
X58001D01*
X53669Y69399D02*
X54535Y68966D01*
X55402Y68100D01*
Y67233D01*
X54969Y66800D01*
X54102D01*
X53669Y67233D01*
Y67666D01*
X54102Y68100D01*
X55402D01*
X77600Y68400D02*
Y70999D01*
X76300D01*
X75867Y70566D01*
Y69700D01*
X76300Y69266D01*
X77600D01*
X76734D02*
X75867Y68400D01*
X73268Y70999D02*
X74134Y70566D01*
X75001Y69700D01*
Y68833D01*
X74568Y68400D01*
X73701D01*
X73268Y68833D01*
Y69266D01*
X73701Y69700D01*
X75001D01*
X72402Y70999D02*
X70669D01*
Y70566D01*
X72402Y68833D01*
Y68400D01*
X79100Y65300D02*
X81699D01*
Y66600D01*
X81266Y67033D01*
X80400D01*
X79966Y66600D01*
Y65300D01*
Y66166D02*
X79100Y67033D01*
X81699Y69632D02*
X81266Y68765D01*
X80400Y67899D01*
X79533D01*
X79100Y68332D01*
Y69199D01*
X79533Y69632D01*
X79966D01*
X80400Y69199D01*
Y67899D01*
X81266Y70498D02*
X81699Y70932D01*
Y71798D01*
X81266Y72231D01*
X80833D01*
X80400Y71798D01*
X79966Y72231D01*
X79533D01*
X79100Y71798D01*
Y70932D01*
X79533Y70498D01*
X79966D01*
X80400Y70932D01*
X80833Y70498D01*
X81266D01*
X80400Y70932D02*
Y71798D01*
X77300Y80700D02*
X79899D01*
Y82000D01*
X79466Y82433D01*
X78600D01*
X78166Y82000D01*
Y80700D01*
Y81566D02*
X77300Y82433D01*
X79899Y85032D02*
X79466Y84166D01*
X78600Y83299D01*
X77733D01*
X77300Y83732D01*
Y84599D01*
X77733Y85032D01*
X78166D01*
X78600Y84599D01*
Y83299D01*
X77733Y85898D02*
X77300Y86331D01*
Y87198D01*
X77733Y87631D01*
X79466D01*
X79899Y87198D01*
Y86331D01*
X79466Y85898D01*
X79033D01*
X78600Y86331D01*
Y87631D01*
X66200Y58400D02*
Y60999D01*
X64900D01*
X64467Y60566D01*
Y59700D01*
X64900Y59266D01*
X66200D01*
X65334D02*
X64467Y58400D01*
X63601Y60999D02*
X61868D01*
Y60566D01*
X63601Y58833D01*
Y58400D01*
X61002Y60566D02*
X60568Y60999D01*
X59702D01*
X59269Y60566D01*
Y58833D01*
X59702Y58400D01*
X60568D01*
X61002Y58833D01*
Y60566D01*
X57100Y58900D02*
Y61499D01*
X55800D01*
X55367Y61066D01*
Y60200D01*
X55800Y59766D01*
X57100D01*
X56234D02*
X55367Y58900D01*
X54501Y61499D02*
X52768D01*
Y61066D01*
X54501Y59333D01*
Y58900D01*
X51902D02*
X51035D01*
X51468D01*
Y61499D01*
X51902Y61066D01*
X43300Y64900D02*
X45899D01*
Y66200D01*
X45466Y66633D01*
X44600D01*
X44166Y66200D01*
Y64900D01*
Y65766D02*
X43300Y66633D01*
X45899Y67499D02*
Y69232D01*
X45466D01*
X43733Y67499D01*
X43300D01*
Y71831D02*
Y70098D01*
X45033Y71831D01*
X45466D01*
X45899Y71398D01*
Y70531D01*
X45466Y70098D01*
X57400Y55000D02*
Y57599D01*
X56100D01*
X55667Y57166D01*
Y56300D01*
X56100Y55866D01*
X57400D01*
X56534D02*
X55667Y55000D01*
X53068Y57599D02*
X53935Y57166D01*
X54801Y56300D01*
Y55433D01*
X54368Y55000D01*
X53501D01*
X53068Y55433D01*
Y55866D01*
X53501Y56300D01*
X54801D01*
X52202Y57166D02*
X51768Y57599D01*
X50902D01*
X50469Y57166D01*
Y55433D01*
X50902Y55000D01*
X51768D01*
X52202Y55433D01*
Y57166D01*
X9500Y111800D02*
Y114399D01*
X8200D01*
X7767Y113966D01*
Y113100D01*
X8200Y112666D01*
X9500D01*
X8634D02*
X7767Y111800D01*
X5601D02*
Y114399D01*
X6901Y113100D01*
X5168D01*
X4302Y112233D02*
X3869Y111800D01*
X3002D01*
X2569Y112233D01*
Y113966D01*
X3002Y114399D01*
X3869D01*
X4302Y113966D01*
Y113533D01*
X3869Y113100D01*
X2569D01*
X9000Y116400D02*
Y118999D01*
X7700D01*
X7267Y118566D01*
Y117700D01*
X7700Y117266D01*
X9000D01*
X8134D02*
X7267Y116400D01*
X5101D02*
Y118999D01*
X6401Y117700D01*
X4668D01*
X3802Y118566D02*
X3368Y118999D01*
X2502D01*
X2069Y118566D01*
Y118133D01*
X2502Y117700D01*
X2069Y117266D01*
Y116833D01*
X2502Y116400D01*
X3368D01*
X3802Y116833D01*
Y117266D01*
X3368Y117700D01*
X3802Y118133D01*
Y118566D01*
X3368Y117700D02*
X2502D01*
X126800Y60000D02*
Y62599D01*
X125500D01*
X125067Y62166D01*
Y61300D01*
X125500Y60866D01*
X126800D01*
X125934D02*
X125067Y60000D01*
X124201Y62599D02*
X122468D01*
Y62166D01*
X124201Y60433D01*
Y60000D01*
X120302D02*
Y62599D01*
X121602Y61300D01*
X119869D01*
X143000Y68400D02*
Y70999D01*
X141700D01*
X141267Y70566D01*
Y69700D01*
X141700Y69266D01*
X143000D01*
X142134D02*
X141267Y68400D01*
X140401Y70999D02*
X138668D01*
Y70566D01*
X140401Y68833D01*
Y68400D01*
X136069Y70999D02*
X137802D01*
Y69700D01*
X136935Y70133D01*
X136502D01*
X136069Y69700D01*
Y68833D01*
X136502Y68400D01*
X137369D01*
X137802Y68833D01*
X113600Y22400D02*
X116199D01*
Y23700D01*
X115766Y24133D01*
X114900D01*
X114466Y23700D01*
Y22400D01*
Y23266D02*
X113600Y24133D01*
Y24999D02*
Y25866D01*
Y25432D01*
X116199D01*
X115766Y24999D01*
X113600Y28898D02*
Y27165D01*
X115333Y28898D01*
X115766D01*
X116199Y28465D01*
Y27598D01*
X115766Y27165D01*
X116199Y31497D02*
X115766Y30631D01*
X114900Y29764D01*
X114033D01*
X113600Y30198D01*
Y31064D01*
X114033Y31497D01*
X114466D01*
X114900Y31064D01*
Y29764D01*
X89200Y200800D02*
Y203399D01*
X87900D01*
X87467Y202966D01*
Y202100D01*
X87900Y201666D01*
X89200D01*
X88334D02*
X87467Y200800D01*
X84868D02*
X86601D01*
X84868Y202533D01*
Y202966D01*
X85301Y203399D01*
X86168D01*
X86601Y202966D01*
X84002Y201233D02*
X83569Y200800D01*
X82702D01*
X82269Y201233D01*
Y202966D01*
X82702Y203399D01*
X83569D01*
X84002Y202966D01*
Y202533D01*
X83569Y202100D01*
X82269D01*
X148200Y188200D02*
Y190799D01*
X146900D01*
X146467Y190366D01*
Y189500D01*
X146900Y189066D01*
X148200D01*
X147334D02*
X146467Y188200D01*
X143868D02*
X145601D01*
X143868Y189933D01*
Y190366D01*
X144301Y190799D01*
X145168D01*
X145601Y190366D01*
X143002Y190799D02*
X141269D01*
Y190366D01*
X143002Y188633D01*
Y188200D01*
X149300Y50699D02*
Y48533D01*
X148867Y48100D01*
X148000D01*
X147567Y48533D01*
Y50699D01*
X144968Y48100D02*
X146701D01*
X144968Y49833D01*
Y50266D01*
X145401Y50699D01*
X146268D01*
X146701Y50266D01*
X144102Y50699D02*
X142369D01*
Y50266D01*
X144102Y48533D01*
Y48100D01*
X127600Y49299D02*
Y47133D01*
X127167Y46700D01*
X126300D01*
X125867Y47133D01*
Y49299D01*
X123268Y46700D02*
X125001D01*
X123268Y48433D01*
Y48866D01*
X123701Y49299D01*
X124568D01*
X125001Y48866D01*
X122402D02*
X121968Y49299D01*
X121102D01*
X120669Y48866D01*
Y48433D01*
X121102Y48000D01*
X120669Y47566D01*
Y47133D01*
X121102Y46700D01*
X121968D01*
X122402Y47133D01*
Y47566D01*
X121968Y48000D01*
X122402Y48433D01*
Y48866D01*
X121968Y48000D02*
X121102D01*
X47400Y78899D02*
Y76733D01*
X46967Y76300D01*
X46100D01*
X45667Y76733D01*
Y78899D01*
X44801D02*
X43068D01*
Y78466D01*
X44801Y76733D01*
Y76300D01*
X154899Y70000D02*
X152733D01*
X152300Y70433D01*
Y71300D01*
X152733Y71733D01*
X154899D01*
X152300Y72599D02*
Y73466D01*
Y73032D01*
X154899D01*
X154466Y72599D01*
X152300Y74765D02*
Y75631D01*
Y75198D01*
X154899D01*
X154466Y74765D01*
X141799Y108100D02*
X139633D01*
X139200Y108533D01*
Y109400D01*
X139633Y109833D01*
X141799D01*
X139200Y110699D02*
Y111566D01*
Y111132D01*
X141799D01*
X141366Y110699D01*
Y112865D02*
X141799Y113298D01*
Y114165D01*
X141366Y114598D01*
X139633D01*
X139200Y114165D01*
Y113298D01*
X139633Y112865D01*
X141366D01*
X75166Y220433D02*
X75599Y220000D01*
Y219133D01*
X75166Y218700D01*
X73433D01*
X73000Y219133D01*
Y220000D01*
X73433Y220433D01*
X73000Y221299D02*
Y222165D01*
Y221732D01*
X75599D01*
X75166Y221299D01*
X73000Y224765D02*
X75599D01*
X74300Y223465D01*
Y225198D01*
X107866Y220433D02*
X108299Y220000D01*
Y219133D01*
X107866Y218700D01*
X106133D01*
X105700Y219133D01*
Y220000D01*
X106133Y220433D01*
X107866Y221299D02*
X108299Y221732D01*
Y222599D01*
X107866Y223032D01*
X107433D01*
X107000Y222599D01*
X106566Y223032D01*
X106133D01*
X105700Y222599D01*
Y221732D01*
X106133Y221299D01*
X106566D01*
X107000Y221732D01*
X107433Y221299D01*
X107866D01*
X107000Y221732D02*
Y222599D01*
X183566Y220633D02*
X183999Y220200D01*
Y219333D01*
X183566Y218900D01*
X181833D01*
X181400Y219333D01*
Y220200D01*
X181833Y220633D01*
X181400Y222799D02*
X183999D01*
X182700Y221499D01*
Y223232D01*
X65300Y96900D02*
X67899D01*
Y98200D01*
X67466Y98633D01*
X66600D01*
X66166Y98200D01*
Y96900D01*
Y97766D02*
X65300Y98633D01*
X67899Y101232D02*
Y99499D01*
X66600D01*
X67033Y100365D01*
Y100799D01*
X66600Y101232D01*
X65733D01*
X65300Y100799D01*
Y99932D01*
X65733Y99499D01*
X67466Y102098D02*
X67899Y102532D01*
Y103398D01*
X67466Y103831D01*
X67033D01*
X66600Y103398D01*
X66166Y103831D01*
X65733D01*
X65300Y103398D01*
Y102532D01*
X65733Y102098D01*
X66166D01*
X66600Y102532D01*
X67033Y102098D01*
X67466D01*
X66600Y102532D02*
Y103398D01*
X29300Y59999D02*
Y57400D01*
X28000D01*
X27567Y57833D01*
Y59566D01*
X28000Y59999D01*
X29300D01*
X26701Y59566D02*
X26268Y59999D01*
X25401D01*
X24968Y59566D01*
Y59133D01*
X25401Y58700D01*
X25834D01*
X25401D01*
X24968Y58266D01*
Y57833D01*
X25401Y57400D01*
X26268D01*
X26701Y57833D01*
X24102Y59566D02*
X23668Y59999D01*
X22802D01*
X22369Y59566D01*
Y59133D01*
X22802Y58700D01*
X23235D01*
X22802D01*
X22369Y58266D01*
Y57833D01*
X22802Y57400D01*
X23668D01*
X24102Y57833D01*
X165166Y220833D02*
X165599Y220400D01*
Y219533D01*
X165166Y219100D01*
X163433D01*
X163000Y219533D01*
Y220400D01*
X163433Y220833D01*
X165166Y221699D02*
X165599Y222132D01*
Y222999D01*
X165166Y223432D01*
X164733D01*
X164300Y222999D01*
Y222566D01*
Y222999D01*
X163866Y223432D01*
X163433D01*
X163000Y222999D01*
Y222132D01*
X163433Y221699D01*
X72300Y49900D02*
X74899D01*
Y51200D01*
X74466Y51633D01*
X73600D01*
X73166Y51200D01*
Y49900D01*
Y50766D02*
X72300Y51633D01*
X74899Y54232D02*
X74466Y53365D01*
X73600Y52499D01*
X72733D01*
X72300Y52932D01*
Y53799D01*
X72733Y54232D01*
X73166D01*
X73600Y53799D01*
Y52499D01*
X72300Y56831D02*
Y55098D01*
X74033Y56831D01*
X74466D01*
X74899Y56398D01*
Y55532D01*
X74466Y55098D01*
X168367Y94966D02*
X168800Y95399D01*
X169667D01*
X170100Y94966D01*
Y93233D01*
X169667Y92800D01*
X168800D01*
X168367Y93233D01*
X166201Y92800D02*
Y95399D01*
X167501Y94100D01*
X165768D01*
X163169Y95399D02*
X164035Y94966D01*
X164902Y94100D01*
Y93233D01*
X164469Y92800D01*
X163602D01*
X163169Y93233D01*
Y93666D01*
X163602Y94100D01*
X164902D01*
X153800Y86000D02*
Y88599D01*
X152500D01*
X152067Y88166D01*
Y87300D01*
X152500Y86866D01*
X153800D01*
X152934D02*
X152067Y86000D01*
X151201Y88166D02*
X150768Y88599D01*
X149901D01*
X149468Y88166D01*
Y87733D01*
X149901Y87300D01*
X149468Y86866D01*
Y86433D01*
X149901Y86000D01*
X150768D01*
X151201Y86433D01*
Y86866D01*
X150768Y87300D01*
X151201Y87733D01*
Y88166D01*
X150768Y87300D02*
X149901D01*
X147302Y86000D02*
Y88599D01*
X148602Y87300D01*
X146869D01*
X117200Y110000D02*
X119799D01*
Y111300D01*
X119366Y111733D01*
X118500D01*
X118066Y111300D01*
Y110000D01*
Y110866D02*
X117200Y111733D01*
X119366Y112599D02*
X119799Y113032D01*
Y113899D01*
X119366Y114332D01*
X118933D01*
X118500Y113899D01*
X118066Y114332D01*
X117633D01*
X117200Y113899D01*
Y113032D01*
X117633Y112599D01*
X118066D01*
X118500Y113032D01*
X118933Y112599D01*
X119366D01*
X118500Y113032D02*
Y113899D01*
X119799Y116931D02*
X119366Y116065D01*
X118500Y115198D01*
X117633D01*
X117200Y115631D01*
Y116498D01*
X117633Y116931D01*
X118066D01*
X118500Y116498D01*
Y115198D01*
X139266Y91333D02*
X139699Y90900D01*
Y90033D01*
X139266Y89600D01*
X137533D01*
X137100Y90033D01*
Y90900D01*
X137533Y91333D01*
X137100Y93499D02*
X139699D01*
X138400Y92199D01*
Y93932D01*
X137100Y96098D02*
X139699D01*
X138400Y94798D01*
Y96531D01*
X122966Y65733D02*
X123399Y65300D01*
Y64433D01*
X122966Y64000D01*
X121233D01*
X120800Y64433D01*
Y65300D01*
X121233Y65733D01*
X123399Y68332D02*
Y66599D01*
X122100D01*
X122533Y67466D01*
Y67899D01*
X122100Y68332D01*
X121233D01*
X120800Y67899D01*
Y67032D01*
X121233Y66599D01*
X122966Y69198D02*
X123399Y69631D01*
Y70498D01*
X122966Y70931D01*
X122533D01*
X122100Y70498D01*
Y70065D01*
Y70498D01*
X121666Y70931D01*
X121233D01*
X120800Y70498D01*
Y69631D01*
X121233Y69198D01*
X89667Y55866D02*
X90100Y56299D01*
X90967D01*
X91400Y55866D01*
Y54133D01*
X90967Y53700D01*
X90100D01*
X89667Y54133D01*
X88801Y55866D02*
X88368Y56299D01*
X87501D01*
X87068Y55866D01*
Y55433D01*
X87501Y55000D01*
X87934D01*
X87501D01*
X87068Y54566D01*
Y54133D01*
X87501Y53700D01*
X88368D01*
X88801Y54133D01*
X86202Y53700D02*
X85335D01*
X85769D01*
Y56299D01*
X86202Y55866D01*
X113566Y82733D02*
X113999Y82300D01*
Y81433D01*
X113566Y81000D01*
X111833D01*
X111400Y81433D01*
Y82300D01*
X111833Y82733D01*
X111400Y84899D02*
X113999D01*
X112700Y83599D01*
Y85332D01*
X113566Y86198D02*
X113999Y86632D01*
Y87498D01*
X113566Y87931D01*
X113133D01*
X112700Y87498D01*
X112266Y87931D01*
X111833D01*
X111400Y87498D01*
Y86632D01*
X111833Y86198D01*
X112266D01*
X112700Y86632D01*
X113133Y86198D01*
X113566D01*
X112700Y86632D02*
Y87498D01*
X162100Y79600D02*
X164699D01*
Y80900D01*
X164266Y81333D01*
X163400D01*
X162966Y80900D01*
Y79600D01*
Y80466D02*
X162100Y81333D01*
X164699Y82199D02*
Y83932D01*
X164266D01*
X162533Y82199D01*
X162100D01*
X164699Y86531D02*
X164266Y85665D01*
X163400Y84798D01*
X162533D01*
X162100Y85232D01*
Y86098D01*
X162533Y86531D01*
X162966D01*
X163400Y86098D01*
Y84798D01*
X103899Y116100D02*
X101300D01*
Y117400D01*
X101733Y117833D01*
X103466D01*
X103899Y117400D01*
Y116100D01*
X101300Y120432D02*
Y118699D01*
X103033Y120432D01*
X103466D01*
X103899Y119999D01*
Y119132D01*
X103466Y118699D01*
X103899Y121298D02*
Y123031D01*
X103466D01*
X101733Y121298D01*
X101300D01*
X83100Y106000D02*
X85699D01*
Y107300D01*
X85266Y107733D01*
X84400D01*
X83966Y107300D01*
Y106000D01*
Y106866D02*
X83100Y107733D01*
X85699Y110332D02*
Y108599D01*
X84400D01*
X84833Y109466D01*
Y109899D01*
X84400Y110332D01*
X83533D01*
X83100Y109899D01*
Y109032D01*
X83533Y108599D01*
X85266Y111198D02*
X85699Y111632D01*
Y112498D01*
X85266Y112931D01*
X84833D01*
X84400Y112498D01*
Y112065D01*
Y112498D01*
X83966Y112931D01*
X83533D01*
X83100Y112498D01*
Y111632D01*
X83533Y111198D01*
X28933Y43533D02*
X30666D01*
X31099Y43100D01*
Y42233D01*
X30666Y41800D01*
X28933D01*
X28500Y42233D01*
Y43100D01*
X29366Y42666D02*
X28500Y43533D01*
Y43100D02*
X28933Y43533D01*
X28500Y46132D02*
Y44399D01*
X30233Y46132D01*
X30666D01*
X31099Y45699D01*
Y44832D01*
X30666Y44399D01*
X31099Y48731D02*
Y46998D01*
X29800D01*
X30233Y47865D01*
Y48298D01*
X29800Y48731D01*
X28933D01*
X28500Y48298D01*
Y47431D01*
X28933Y46998D01*
X61800Y152800D02*
X64399D01*
Y154100D01*
X63966Y154533D01*
X63100D01*
X62666Y154100D01*
Y152800D01*
Y153666D02*
X61800Y154533D01*
Y155399D02*
Y156266D01*
Y155832D01*
X64399D01*
X63966Y155399D01*
X91500Y149700D02*
X94099D01*
Y151000D01*
X93666Y151433D01*
X92800D01*
X92366Y151000D01*
Y149700D01*
Y150566D02*
X91500Y151433D01*
Y154032D02*
Y152299D01*
X93233Y154032D01*
X93666D01*
X94099Y153599D01*
Y152732D01*
X93666Y152299D01*
X120800Y150600D02*
X123399D01*
Y151900D01*
X122966Y152333D01*
X122100D01*
X121666Y151900D01*
Y150600D01*
Y151466D02*
X120800Y152333D01*
X122966Y153199D02*
X123399Y153632D01*
Y154499D01*
X122966Y154932D01*
X122533D01*
X122100Y154499D01*
Y154066D01*
Y154499D01*
X121666Y154932D01*
X121233D01*
X120800Y154499D01*
Y153632D01*
X121233Y153199D01*
X177200Y180800D02*
X179799D01*
Y182100D01*
X179366Y182533D01*
X178500D01*
X178066Y182100D01*
Y180800D01*
Y181666D02*
X177200Y182533D01*
Y185132D02*
Y183399D01*
X178933Y185132D01*
X179366D01*
X179799Y184699D01*
Y183832D01*
X179366Y183399D01*
X177200Y187298D02*
X179799D01*
X178500Y185998D01*
Y187731D01*
X208267Y135633D02*
Y137366D01*
X208700Y137799D01*
X209567D01*
X210000Y137366D01*
Y135633D01*
X209567Y135200D01*
X208700D01*
X209134Y136066D02*
X208267Y135200D01*
X208700D02*
X208267Y135633D01*
X205668Y135200D02*
X207401D01*
X205668Y136933D01*
Y137366D01*
X206101Y137799D01*
X206968D01*
X207401Y137366D01*
X204802D02*
X204368Y137799D01*
X203502D01*
X203069Y137366D01*
Y136933D01*
X203502Y136500D01*
X203935D01*
X203502D01*
X203069Y136066D01*
Y135633D01*
X203502Y135200D01*
X204368D01*
X204802Y135633D01*
X140766Y220333D02*
X141199Y219900D01*
Y219033D01*
X140766Y218600D01*
X139033D01*
X138600Y219033D01*
Y219900D01*
X139033Y220333D01*
X141199Y222932D02*
X140766Y222065D01*
X139900Y221199D01*
X139033D01*
X138600Y221632D01*
Y222499D01*
X139033Y222932D01*
X139466D01*
X139900Y222499D01*
Y221199D01*
X70500Y27000D02*
Y29599D01*
X69200D01*
X68767Y29166D01*
Y28300D01*
X69200Y27866D01*
X70500D01*
X69634D02*
X68767Y27000D01*
X67901D02*
X67035D01*
X67468D01*
Y29599D01*
X67901Y29166D01*
X65735D02*
X65302Y29599D01*
X64435D01*
X64002Y29166D01*
Y28733D01*
X64435Y28300D01*
X64868D01*
X64435D01*
X64002Y27866D01*
Y27433D01*
X64435Y27000D01*
X65302D01*
X65735Y27433D01*
X63136Y29166D02*
X62703Y29599D01*
X61836D01*
X61403Y29166D01*
Y27433D01*
X61836Y27000D01*
X62703D01*
X63136Y27433D01*
Y29166D01*
X76800Y116699D02*
Y114100D01*
X75500D01*
X75067Y114533D01*
Y116266D01*
X75500Y116699D01*
X76800D01*
X74201Y116266D02*
X73768Y116699D01*
X72901D01*
X72468Y116266D01*
Y115833D01*
X72901Y115400D01*
X73334D01*
X72901D01*
X72468Y114966D01*
Y114533D01*
X72901Y114100D01*
X73768D01*
X74201Y114533D01*
X71602Y116266D02*
X71169Y116699D01*
X70302D01*
X69869Y116266D01*
Y114533D01*
X70302Y114100D01*
X71169D01*
X71602Y114533D01*
Y116266D01*
X137566Y117633D02*
X137999Y117200D01*
Y116333D01*
X137566Y115900D01*
X135833D01*
X135400Y116333D01*
Y117200D01*
X135833Y117633D01*
X137999Y120232D02*
Y118499D01*
X136700D01*
X137133Y119366D01*
Y119799D01*
X136700Y120232D01*
X135833D01*
X135400Y119799D01*
Y118932D01*
X135833Y118499D01*
X137566Y121098D02*
X137999Y121531D01*
Y122398D01*
X137566Y122831D01*
X135833D01*
X135400Y122398D01*
Y121531D01*
X135833Y121098D01*
X137566D01*
X101800Y53100D02*
X104399D01*
Y54400D01*
X103966Y54833D01*
X103100D01*
X102666Y54400D01*
Y53100D01*
Y53966D02*
X101800Y54833D01*
Y55699D02*
Y56565D01*
Y56132D01*
X104399D01*
X103966Y55699D01*
Y57865D02*
X104399Y58298D01*
Y59165D01*
X103966Y59598D01*
X102233D01*
X101800Y59165D01*
Y58298D01*
X102233Y57865D01*
X103966D01*
Y60464D02*
X104399Y60897D01*
Y61764D01*
X103966Y62197D01*
X103533D01*
X103100Y61764D01*
X102666Y62197D01*
X102233D01*
X101800Y61764D01*
Y60897D01*
X102233Y60464D01*
X102666D01*
X103100Y60897D01*
X103533Y60464D01*
X103966D01*
X103100Y60897D02*
Y61764D01*
X89367Y62566D02*
X89800Y62999D01*
X90667D01*
X91100Y62566D01*
Y60833D01*
X90667Y60400D01*
X89800D01*
X89367Y60833D01*
X86768Y60400D02*
X88501D01*
X86768Y62133D01*
Y62566D01*
X87201Y62999D01*
X88068D01*
X88501Y62566D01*
X85902Y60833D02*
X85469Y60400D01*
X84602D01*
X84169Y60833D01*
Y62566D01*
X84602Y62999D01*
X85469D01*
X85902Y62566D01*
Y62133D01*
X85469Y61700D01*
X84169D01*
X116266Y65633D02*
X116699Y65200D01*
Y64333D01*
X116266Y63900D01*
X114533D01*
X114100Y64333D01*
Y65200D01*
X114533Y65633D01*
X116699Y68232D02*
Y66499D01*
X115400D01*
X115833Y67365D01*
Y67799D01*
X115400Y68232D01*
X114533D01*
X114100Y67799D01*
Y66932D01*
X114533Y66499D01*
X114100Y69098D02*
Y69965D01*
Y69532D01*
X116699D01*
X116266Y69098D01*
X91500Y52299D02*
Y50133D01*
X91067Y49700D01*
X90200D01*
X89767Y50133D01*
Y52299D01*
X87168Y49700D02*
X88901D01*
X87168Y51433D01*
Y51866D01*
X87601Y52299D01*
X88468D01*
X88901Y51866D01*
X86302D02*
X85869Y52299D01*
X85002D01*
X84569Y51866D01*
Y51433D01*
X85002Y51000D01*
X85435D01*
X85002D01*
X84569Y50566D01*
Y50133D01*
X85002Y49700D01*
X85869D01*
X86302Y50133D01*
X21399Y125200D02*
X19000D01*
Y126400D01*
X19400Y126799D01*
X20999D01*
X21399Y126400D01*
Y125200D01*
X19000Y129199D02*
Y127599D01*
X20599Y129199D01*
X20999D01*
X21399Y128799D01*
Y127999D01*
X20999Y127599D01*
Y129998D02*
X21399Y130398D01*
Y131198D01*
X20999Y131598D01*
X20599D01*
X20200Y131198D01*
X19800Y131598D01*
X19400D01*
X19000Y131198D01*
Y130398D01*
X19400Y129998D01*
X19800D01*
X20200Y130398D01*
X20599Y129998D01*
X20999D01*
X20200Y130398D02*
Y131198D01*
X64099Y173300D02*
X61700D01*
Y174500D01*
X62100Y174899D01*
X63699D01*
X64099Y174500D01*
Y173300D01*
X62100Y175699D02*
X61700Y176099D01*
Y176899D01*
X62100Y177299D01*
X63699D01*
X64099Y176899D01*
Y176099D01*
X63699Y175699D01*
X63300D01*
X62900Y176099D01*
Y177299D01*
X73399Y197200D02*
X71000D01*
Y198400D01*
X71400Y198800D01*
X72999D01*
X73399Y198400D01*
Y197200D01*
X71000Y199599D02*
Y200399D01*
Y199999D01*
X73399D01*
X72999Y199599D01*
Y201599D02*
X73399Y201998D01*
Y202798D01*
X72999Y203198D01*
X72600D01*
X72200Y202798D01*
Y202398D01*
Y202798D01*
X71800Y203198D01*
X71400D01*
X71000Y202798D01*
Y201998D01*
X71400Y201599D01*
X93600Y169599D02*
Y167200D01*
X92400D01*
X92001Y167600D01*
Y169199D01*
X92400Y169599D01*
X93600D01*
X91201Y167200D02*
X90401D01*
X90801D01*
Y169599D01*
X91201Y169199D01*
X89201D02*
X88802Y169599D01*
X88002D01*
X87602Y169199D01*
Y167600D01*
X88002Y167200D01*
X88802D01*
X89201Y167600D01*
Y169199D01*
X102299Y196800D02*
X99900D01*
Y198000D01*
X100300Y198399D01*
X101899D01*
X102299Y198000D01*
Y196800D01*
X99900Y199199D02*
Y199999D01*
Y199599D01*
X102299D01*
X101899Y199199D01*
X99900Y202398D02*
X102299D01*
X101100Y201199D01*
Y202798D01*
X125600Y169399D02*
Y167000D01*
X124400D01*
X124001Y167400D01*
Y168999D01*
X124400Y169399D01*
X125600D01*
X123201Y167000D02*
X122401D01*
X122801D01*
Y169399D01*
X123201Y168999D01*
X121201Y167000D02*
X120402D01*
X120802D01*
Y169399D01*
X121201Y168999D01*
X132599Y197200D02*
X130200D01*
Y198400D01*
X130600Y198800D01*
X132199D01*
X132599Y198400D01*
Y197200D01*
X130200Y199599D02*
Y200399D01*
Y199999D01*
X132599D01*
X132199Y199599D01*
X132599Y203198D02*
Y201599D01*
X131400D01*
X131799Y202398D01*
Y202798D01*
X131400Y203198D01*
X130600D01*
X130200Y202798D01*
Y201998D01*
X130600Y201599D01*
X153300Y168099D02*
Y165700D01*
X152100D01*
X151700Y166100D01*
Y167699D01*
X152100Y168099D01*
X153300D01*
X150901Y165700D02*
X150101D01*
X150501D01*
Y168099D01*
X150901Y167699D01*
X147302Y165700D02*
X148901D01*
X147302Y167299D01*
Y167699D01*
X147702Y168099D01*
X148502D01*
X148901Y167699D01*
X161199Y197500D02*
X158800D01*
Y198700D01*
X159200Y199100D01*
X160799D01*
X161199Y198700D01*
Y197500D01*
X158800Y199899D02*
Y200699D01*
Y200299D01*
X161199D01*
X160799Y199899D01*
X161199Y203498D02*
X160799Y202698D01*
X160000Y201899D01*
X159200D01*
X158800Y202298D01*
Y203098D01*
X159200Y203498D01*
X159600D01*
X160000Y203098D01*
Y201899D01*
X64399Y142400D02*
X62000D01*
Y143600D01*
X62400Y144000D01*
X63999D01*
X64399Y143600D01*
Y142400D01*
X62000Y144799D02*
Y145599D01*
Y145199D01*
X64399D01*
X63999Y144799D01*
X98099Y138100D02*
X95700D01*
Y139300D01*
X96100Y139699D01*
X97699D01*
X98099Y139300D01*
Y138100D01*
X95700Y142099D02*
Y140499D01*
X97299Y142099D01*
X97699D01*
X98099Y141699D01*
Y140899D01*
X97699Y140499D01*
X127699Y137500D02*
X125300D01*
Y138700D01*
X125700Y139100D01*
X127299D01*
X127699Y138700D01*
Y137500D01*
X127299Y139899D02*
X127699Y140299D01*
Y141099D01*
X127299Y141499D01*
X126900D01*
X126500Y141099D01*
Y140699D01*
Y141099D01*
X126100Y141499D01*
X125700D01*
X125300Y141099D01*
Y140299D01*
X125700Y139899D01*
X157599Y137500D02*
X155200D01*
Y138700D01*
X155600Y139100D01*
X157199D01*
X157599Y138700D01*
Y137500D01*
X155200Y141099D02*
X157599D01*
X156400Y139899D01*
Y141499D01*
X81300Y95799D02*
Y93400D01*
X80100D01*
X79700Y93800D01*
Y95399D01*
X80100Y95799D01*
X81300D01*
X77301Y93400D02*
X78901D01*
X77301Y94999D01*
Y95399D01*
X77701Y95799D01*
X78501D01*
X78901Y95399D01*
X74902Y95799D02*
X76502D01*
Y94600D01*
X75702Y94999D01*
X75302D01*
X74902Y94600D01*
Y93800D01*
X75302Y93400D01*
X76102D01*
X76502Y93800D01*
X191800Y117500D02*
Y119099D01*
X192200Y119499D01*
X193000D01*
X193400Y119099D01*
Y117500D01*
X193000Y117100D01*
X192200D01*
X192600Y117900D02*
X191800Y117100D01*
X192200D02*
X191800Y117500D01*
X189401Y119499D02*
X191001D01*
Y118300D01*
X190201Y118700D01*
X189801D01*
X189401Y118300D01*
Y117500D01*
X189801Y117100D01*
X190601D01*
X191001Y117500D01*
X199700Y117600D02*
Y119199D01*
X200100Y119599D01*
X200900D01*
X201300Y119199D01*
Y117600D01*
X200900Y117200D01*
X200100D01*
X200500Y118000D02*
X199700Y117200D01*
X200100D02*
X199700Y117600D01*
X197301Y119599D02*
X198101Y119199D01*
X198901Y118400D01*
Y117600D01*
X198501Y117200D01*
X197701D01*
X197301Y117600D01*
Y118000D01*
X197701Y118400D01*
X198901D01*
X209201Y117500D02*
Y119099D01*
X209600Y119499D01*
X210400D01*
X210800Y119099D01*
Y117500D01*
X210400Y117100D01*
X209600D01*
X210000Y117900D02*
X209201Y117100D01*
X209600D02*
X209201Y117500D01*
X208401Y119499D02*
X206801D01*
Y119099D01*
X208401Y117500D01*
Y117100D01*
X217200Y117600D02*
Y119199D01*
X217600Y119599D01*
X218400D01*
X218800Y119199D01*
Y117600D01*
X218400Y117200D01*
X217600D01*
X218000Y118000D02*
X217200Y117200D01*
X217600D02*
X217200Y117600D01*
X216401Y119199D02*
X216001Y119599D01*
X215201D01*
X214801Y119199D01*
Y118799D01*
X215201Y118400D01*
X214801Y118000D01*
Y117600D01*
X215201Y117200D01*
X216001D01*
X216401Y117600D01*
Y118000D01*
X216001Y118400D01*
X216401Y118799D01*
Y119199D01*
X216001Y118400D02*
X215201D01*
X209201Y126800D02*
Y128399D01*
X209600Y128799D01*
X210400D01*
X210800Y128399D01*
Y126800D01*
X210400Y126400D01*
X209600D01*
X210000Y127200D02*
X209201Y126400D01*
X209600D02*
X209201Y126800D01*
X208401Y126400D02*
X207601D01*
X208001D01*
Y128799D01*
X208401Y128399D01*
X204802Y128799D02*
X206401D01*
Y127600D01*
X205602Y127999D01*
X205202D01*
X204802Y127600D01*
Y126800D01*
X205202Y126400D01*
X206002D01*
X206401Y126800D01*
X217301Y126600D02*
Y128199D01*
X217700Y128599D01*
X218500D01*
X218900Y128199D01*
Y126600D01*
X218500Y126200D01*
X217700D01*
X218100Y127000D02*
X217301Y126200D01*
X217700D02*
X217301Y126600D01*
X216501Y126200D02*
X215701D01*
X216101D01*
Y128599D01*
X216501Y128199D01*
X212902Y128599D02*
X213702Y128199D01*
X214501Y127400D01*
Y126600D01*
X214102Y126200D01*
X213302D01*
X212902Y126600D01*
Y127000D01*
X213302Y127400D01*
X214501D01*
X191901Y127000D02*
Y128599D01*
X192300Y128999D01*
X193100D01*
X193500Y128599D01*
Y127000D01*
X193100Y126600D01*
X192300D01*
X192700Y127400D02*
X191901Y126600D01*
X192300D02*
X191901Y127000D01*
X191101Y126600D02*
X190301D01*
X190701D01*
Y128999D01*
X191101Y128599D01*
X189101D02*
X188702Y128999D01*
X187902D01*
X187502Y128599D01*
Y128200D01*
X187902Y127800D01*
X188302D01*
X187902D01*
X187502Y127400D01*
Y127000D01*
X187902Y126600D01*
X188702D01*
X189101Y127000D01*
X200500Y126800D02*
Y128399D01*
X200900Y128799D01*
X201700D01*
X202100Y128399D01*
Y126800D01*
X201700Y126400D01*
X200900D01*
X201300Y127200D02*
X200500Y126400D01*
X200900D02*
X200500Y126800D01*
X199701Y126400D02*
X198901D01*
X199301D01*
Y128799D01*
X199701Y128399D01*
X196502Y126400D02*
Y128799D01*
X197701Y127600D01*
X196102D01*
X217500Y131100D02*
Y132699D01*
X217900Y133099D01*
X218700D01*
X219100Y132699D01*
Y131100D01*
X218700Y130700D01*
X217900D01*
X218300Y131500D02*
X217500Y130700D01*
X217900D02*
X217500Y131100D01*
X215101Y130700D02*
X216701D01*
X215101Y132299D01*
Y132699D01*
X215501Y133099D01*
X216301D01*
X216701Y132699D01*
X214302D02*
X213902Y133099D01*
X213102D01*
X212702Y132699D01*
Y131100D01*
X213102Y130700D01*
X213902D01*
X214302Y131100D01*
Y132699D01*
X200500Y131100D02*
Y132699D01*
X200900Y133099D01*
X201700D01*
X202100Y132699D01*
Y131100D01*
X201700Y130700D01*
X200900D01*
X201300Y131500D02*
X200500Y130700D01*
X200900D02*
X200500Y131100D01*
X199701Y130700D02*
X198901D01*
X199301D01*
Y133099D01*
X199701Y132699D01*
X197701D02*
X197302Y133099D01*
X196502D01*
X196102Y132699D01*
Y132299D01*
X196502Y131900D01*
X196102Y131500D01*
Y131100D01*
X196502Y130700D01*
X197302D01*
X197701Y131100D01*
Y131500D01*
X197302Y131900D01*
X197701Y132299D01*
Y132699D01*
X197302Y131900D02*
X196502D01*
X209101Y131200D02*
Y132799D01*
X209500Y133199D01*
X210300D01*
X210700Y132799D01*
Y131200D01*
X210300Y130800D01*
X209500D01*
X209900Y131600D02*
X209101Y130800D01*
X209500D02*
X209101Y131200D01*
X208301Y130800D02*
X207501D01*
X207901D01*
Y133199D01*
X208301Y132799D01*
X206301Y131200D02*
X205902Y130800D01*
X205102D01*
X204702Y131200D01*
Y132799D01*
X205102Y133199D01*
X205902D01*
X206301Y132799D01*
Y132399D01*
X205902Y132000D01*
X204702D01*
X192000Y131000D02*
Y132599D01*
X192400Y132999D01*
X193200D01*
X193600Y132599D01*
Y131000D01*
X193200Y130600D01*
X192400D01*
X192800Y131400D02*
X192000Y130600D01*
X192400D02*
X192000Y131000D01*
X191201Y130600D02*
X190401D01*
X190801D01*
Y132999D01*
X191201Y132599D01*
X189201Y132999D02*
X187602D01*
Y132599D01*
X189201Y131000D01*
Y130600D01*
X147500Y180300D02*
X149899D01*
Y181500D01*
X149499Y181899D01*
X148700D01*
X148300Y181500D01*
Y180300D01*
Y181100D02*
X147500Y181899D01*
Y184299D02*
Y182699D01*
X149100Y184299D01*
X149499D01*
X149899Y183899D01*
Y183099D01*
X149499Y182699D01*
Y185098D02*
X149899Y185498D01*
Y186298D01*
X149499Y186698D01*
X149100D01*
X148700Y186298D01*
Y185898D01*
Y186298D01*
X148300Y186698D01*
X147900D01*
X147500Y186298D01*
Y185498D01*
X147900Y185098D01*
X87700Y180700D02*
X90099D01*
Y181900D01*
X89699Y182299D01*
X88900D01*
X88500Y181900D01*
Y180700D01*
Y181500D02*
X87700Y182299D01*
Y184699D02*
Y183099D01*
X89299Y184699D01*
X89699D01*
X90099Y184299D01*
Y183499D01*
X89699Y183099D01*
X87700Y185498D02*
Y186298D01*
Y185898D01*
X90099D01*
X89699Y185498D01*
X117200Y180300D02*
X119599D01*
Y181500D01*
X119199Y181899D01*
X118400D01*
X118000Y181500D01*
Y180300D01*
Y181100D02*
X117200Y181899D01*
Y184299D02*
Y182699D01*
X118799Y184299D01*
X119199D01*
X119599Y183899D01*
Y183099D01*
X119199Y182699D01*
X117200Y186698D02*
Y185098D01*
X118799Y186698D01*
X119199D01*
X119599Y186298D01*
Y185498D01*
X119199Y185098D01*
X150800Y158200D02*
X153399D01*
Y159500D01*
X152966Y159933D01*
X152100D01*
X151666Y159500D01*
Y158200D01*
Y159066D02*
X150800Y159933D01*
X152966Y160799D02*
X153399Y161232D01*
Y162099D01*
X152966Y162532D01*
X152533D01*
X152100Y162099D01*
X151666Y162532D01*
X151233D01*
X150800Y162099D01*
Y161232D01*
X151233Y160799D01*
X151666D01*
X152100Y161232D01*
X152533Y160799D01*
X152966D01*
X152100Y161232D02*
Y162099D01*
X150600Y149600D02*
X153199D01*
Y150900D01*
X152766Y151333D01*
X151900D01*
X151466Y150900D01*
Y149600D01*
Y150466D02*
X150600Y151333D01*
Y153499D02*
X153199D01*
X151900Y152199D01*
Y153932D01*
X186600Y171700D02*
X189199D01*
Y173000D01*
X188766Y173433D01*
X187900D01*
X187466Y173000D01*
Y171700D01*
Y172566D02*
X186600Y173433D01*
Y176032D02*
Y174299D01*
X188333Y176032D01*
X188766D01*
X189199Y175599D01*
Y174732D01*
X188766Y174299D01*
Y176898D02*
X189199Y177331D01*
Y178198D01*
X188766Y178631D01*
X187033D01*
X186600Y178198D01*
Y177331D01*
X187033Y176898D01*
X188766D01*
X116800Y168600D02*
X119399D01*
Y169900D01*
X118966Y170333D01*
X118100D01*
X117666Y169900D01*
Y168600D01*
Y169466D02*
X116800Y170333D01*
Y171199D02*
Y172066D01*
Y171632D01*
X119399D01*
X118966Y171199D01*
Y173365D02*
X119399Y173798D01*
Y174665D01*
X118966Y175098D01*
X118533D01*
X118100Y174665D01*
X117666Y175098D01*
X117233D01*
X116800Y174665D01*
Y173798D01*
X117233Y173365D01*
X117666D01*
X118100Y173798D01*
X118533Y173365D01*
X118966D01*
X118100Y173798D02*
Y174665D01*
X145799Y134399D02*
X146199Y134000D01*
Y133200D01*
X145799Y132800D01*
X144200D01*
X143800Y133200D01*
Y134000D01*
X144200Y134399D01*
X143800Y136799D02*
Y135199D01*
X145399Y136799D01*
X145799D01*
X146199Y136399D01*
Y135599D01*
X145799Y135199D01*
X143800Y138798D02*
X146199D01*
X145000Y137598D01*
Y139198D01*
X32100Y208400D02*
Y210999D01*
X30800D01*
X30367Y210566D01*
Y209700D01*
X30800Y209266D01*
X32100D01*
X31234D02*
X30367Y208400D01*
X29501D02*
X28634D01*
X29068D01*
Y210999D01*
X29501Y210566D01*
X27335Y208400D02*
X26469D01*
X26902D01*
Y210999D01*
X27335Y210566D01*
X25169Y208833D02*
X24736Y208400D01*
X23869D01*
X23436Y208833D01*
Y210566D01*
X23869Y210999D01*
X24736D01*
X25169Y210566D01*
Y210133D01*
X24736Y209700D01*
X23436D01*
X31900Y204000D02*
Y206599D01*
X30600D01*
X30167Y206166D01*
Y205300D01*
X30600Y204866D01*
X31900D01*
X31034D02*
X30167Y204000D01*
X29301D02*
X28434D01*
X28868D01*
Y206599D01*
X29301Y206166D01*
X27135Y204000D02*
X26269D01*
X26702D01*
Y206599D01*
X27135Y206166D01*
X24969D02*
X24536Y206599D01*
X23669D01*
X23236Y206166D01*
Y205733D01*
X23669Y205300D01*
X23236Y204866D01*
Y204433D01*
X23669Y204000D01*
X24536D01*
X24969Y204433D01*
Y204866D01*
X24536Y205300D01*
X24969Y205733D01*
Y206166D01*
X24536Y205300D02*
X23669D01*
X32000Y200200D02*
Y202799D01*
X30700D01*
X30267Y202366D01*
Y201500D01*
X30700Y201066D01*
X32000D01*
X31134D02*
X30267Y200200D01*
X29401D02*
X28534D01*
X28968D01*
Y202799D01*
X29401Y202366D01*
X27235Y200200D02*
X26368D01*
X26802D01*
Y202799D01*
X27235Y202366D01*
X25069Y202799D02*
X23336D01*
Y202366D01*
X25069Y200633D01*
Y200200D01*
X125900Y225399D02*
X126300Y225799D01*
X127100D01*
X127500Y225399D01*
Y223800D01*
X127100Y223400D01*
X126300D01*
X125900Y223800D01*
X125101Y223400D02*
X124301D01*
X124701D01*
Y225799D01*
X125101Y225399D01*
X123101Y225799D02*
X121502D01*
Y225399D01*
X123101Y223800D01*
Y223400D01*
X67601Y225099D02*
X68000Y225499D01*
X68800D01*
X69200Y225099D01*
Y223500D01*
X68800Y223100D01*
X68000D01*
X67601Y223500D01*
X66801Y223100D02*
X66001D01*
X66401D01*
Y225499D01*
X66801Y225099D01*
X64801Y223500D02*
X64402Y223100D01*
X63602D01*
X63202Y223500D01*
Y225099D01*
X63602Y225499D01*
X64402D01*
X64801Y225099D01*
Y224699D01*
X64402Y224300D01*
X63202D01*
X41600Y201400D02*
X43999D01*
Y202600D01*
X43599Y202999D01*
X42800D01*
X42400Y202600D01*
Y201400D01*
Y202200D02*
X41600Y202999D01*
X43599Y203799D02*
X43999Y204199D01*
Y204999D01*
X43599Y205399D01*
X43200D01*
X42800Y204999D01*
Y204599D01*
Y204999D01*
X42400Y205399D01*
X42000D01*
X41600Y204999D01*
Y204199D01*
X42000Y203799D01*
X43999Y207798D02*
X43599Y206998D01*
X42800Y206198D01*
X42000D01*
X41600Y206598D01*
Y207398D01*
X42000Y207798D01*
X42400D01*
X42800Y207398D01*
Y206198D01*
X40500Y204400D02*
Y206799D01*
X39300D01*
X38901Y206399D01*
Y205600D01*
X39300Y205200D01*
X40500D01*
X39700D02*
X38901Y204400D01*
X38101Y206399D02*
X37701Y206799D01*
X36901D01*
X36501Y206399D01*
Y205999D01*
X36901Y205600D01*
X37301D01*
X36901D01*
X36501Y205200D01*
Y204800D01*
X36901Y204400D01*
X37701D01*
X38101Y204800D01*
X34502Y204400D02*
Y206799D01*
X35702Y205600D01*
X34102D01*
X21000Y162500D02*
X23399D01*
Y163700D01*
X22999Y164100D01*
X22200D01*
X21800Y163700D01*
Y162500D01*
Y163300D02*
X21000Y164100D01*
X22999Y164899D02*
X23399Y165299D01*
Y166099D01*
X22999Y166499D01*
X22600D01*
X22200Y166099D01*
Y165699D01*
Y166099D01*
X21800Y166499D01*
X21400D01*
X21000Y166099D01*
Y165299D01*
X21400Y164899D01*
X23399Y167298D02*
Y168898D01*
X22999D01*
X21400Y167298D01*
X21000D01*
X20400Y171400D02*
X22799D01*
Y172600D01*
X22399Y173000D01*
X21600D01*
X21200Y172600D01*
Y171400D01*
Y172200D02*
X20400Y173000D01*
X22399Y173799D02*
X22799Y174199D01*
Y174999D01*
X22399Y175399D01*
X22000D01*
X21600Y174999D01*
Y174599D01*
Y174999D01*
X21200Y175399D01*
X20800D01*
X20400Y174999D01*
Y174199D01*
X20800Y173799D01*
Y176198D02*
X20400Y176598D01*
Y177398D01*
X20800Y177798D01*
X22399D01*
X22799Y177398D01*
Y176598D01*
X22399Y176198D01*
X22000D01*
X21600Y176598D01*
Y177798D01*
X43000Y199999D02*
Y198000D01*
X42600Y197600D01*
X41800D01*
X41401Y198000D01*
Y199999D01*
X40601Y199599D02*
X40201Y199999D01*
X39401D01*
X39001Y199599D01*
Y199199D01*
X39401Y198800D01*
X39801D01*
X39401D01*
X39001Y198400D01*
Y198000D01*
X39401Y197600D01*
X40201D01*
X40601Y198000D01*
X25300Y152399D02*
X25700Y152799D01*
X26500D01*
X26900Y152399D01*
Y150800D01*
X26500Y150400D01*
X25700D01*
X25300Y150800D01*
X24501Y150400D02*
X23701D01*
X24101D01*
Y152799D01*
X24501Y152399D01*
X22501Y150400D02*
X21702D01*
X22102D01*
Y152799D01*
X22501Y152399D01*
X18903Y152799D02*
X20502D01*
Y151600D01*
X19702Y151999D01*
X19302D01*
X18903Y151600D01*
Y150800D01*
X19302Y150400D01*
X20102D01*
X20502Y150800D01*
X20500Y134700D02*
Y137099D01*
X19300D01*
X18901Y136699D01*
Y135900D01*
X19300Y135500D01*
X20500D01*
X19700D02*
X18901Y134700D01*
X18101D02*
X17301D01*
X17701D01*
Y137099D01*
X18101Y136699D01*
X16101Y134700D02*
X15302D01*
X15702D01*
Y137099D01*
X16101Y136699D01*
X12503Y137099D02*
X14102D01*
Y135900D01*
X13302Y136300D01*
X12902D01*
X12503Y135900D01*
Y135100D01*
X12902Y134700D01*
X13702D01*
X14102Y135100D01*
X37800Y134699D02*
Y132700D01*
X37400Y132300D01*
X36600D01*
X36200Y132700D01*
Y134699D01*
X33801Y132300D02*
X35401D01*
X33801Y133899D01*
Y134299D01*
X34201Y134699D01*
X35001D01*
X35401Y134299D01*
X31402Y134699D02*
X33002D01*
Y133500D01*
X32202Y133899D01*
X31802D01*
X31402Y133500D01*
Y132700D01*
X31802Y132300D01*
X32602D01*
X33002Y132700D01*
X32256Y196800D02*
Y199399D01*
X30956D01*
X30523Y198966D01*
Y198100D01*
X30956Y197666D01*
X32256D01*
X31389D02*
X30523Y196800D01*
X29657D02*
X28790D01*
X29224D01*
Y199399D01*
X29657Y198966D01*
X27491Y196800D02*
X26624D01*
X27058D01*
Y199399D01*
X27491Y198966D01*
X23592Y199399D02*
X24458Y198966D01*
X25325Y198100D01*
Y197233D01*
X24892Y196800D01*
X24025D01*
X23592Y197233D01*
Y197666D01*
X24025Y198100D01*
X25325D01*
X20500Y181300D02*
X22899D01*
Y182500D01*
X22499Y182899D01*
X21700D01*
X21300Y182500D01*
Y181300D01*
Y182100D02*
X20500Y182899D01*
X22499Y183699D02*
X22899Y184099D01*
Y184899D01*
X22499Y185299D01*
X22099D01*
X21700Y184899D01*
Y184499D01*
Y184899D01*
X21300Y185299D01*
X20900D01*
X20500Y184899D01*
Y184099D01*
X20900Y183699D01*
X22499Y186098D02*
X22899Y186498D01*
Y187298D01*
X22499Y187698D01*
X22099D01*
X21700Y187298D01*
X21300Y187698D01*
X20900D01*
X20500Y187298D01*
Y186498D01*
X20900Y186098D01*
X21300D01*
X21700Y186498D01*
X22099Y186098D01*
X22499D01*
X21700Y186498D02*
Y187298D01*
X135766Y90633D02*
X136199Y90200D01*
Y89333D01*
X135766Y88900D01*
X134033D01*
X133600Y89333D01*
Y90200D01*
X134033Y90633D01*
X133600Y92799D02*
X136199D01*
X134900Y91499D01*
Y93232D01*
X136199Y95831D02*
Y94098D01*
X134900D01*
X135333Y94965D01*
Y95398D01*
X134900Y95831D01*
X134033D01*
X133600Y95398D01*
Y94532D01*
X134033Y94098D01*
X47099Y201500D02*
X47499Y201100D01*
Y200300D01*
X47099Y199900D01*
X45500D01*
X45100Y200300D01*
Y201100D01*
X45500Y201500D01*
X45100Y203899D02*
Y202299D01*
X46700Y203899D01*
X47099D01*
X47499Y203499D01*
Y202699D01*
X47099Y202299D01*
Y204698D02*
X47499Y205098D01*
Y205898D01*
X47099Y206298D01*
X45500D01*
X45100Y205898D01*
Y205098D01*
X45500Y204698D01*
X47099D01*
X151801Y225299D02*
X152200Y225699D01*
X153000D01*
X153400Y225299D01*
Y223700D01*
X153000Y223300D01*
X152200D01*
X151801Y223700D01*
X151001Y223300D02*
X150201D01*
X150601D01*
Y225699D01*
X151001Y225299D01*
X147402Y225699D02*
X148202Y225299D01*
X149001Y224500D01*
Y223700D01*
X148602Y223300D01*
X147802D01*
X147402Y223700D01*
Y224100D01*
X147802Y224500D01*
X149001D01*
X176200Y225299D02*
X176600Y225699D01*
X177400D01*
X177800Y225299D01*
Y223700D01*
X177400Y223300D01*
X176600D01*
X176200Y223700D01*
X175401Y223300D02*
X174601D01*
X175001D01*
Y225699D01*
X175401Y225299D01*
X171802Y225699D02*
X173401D01*
Y224500D01*
X172602Y224900D01*
X172202D01*
X171802Y224500D01*
Y223700D01*
X172202Y223300D01*
X173002D01*
X173401Y223700D01*
X90701Y225299D02*
X91100Y225699D01*
X91900D01*
X92300Y225299D01*
Y223700D01*
X91900Y223300D01*
X91100D01*
X90701Y223700D01*
X89901Y223300D02*
X89101D01*
X89501D01*
Y225699D01*
X89901Y225299D01*
X87901D02*
X87502Y225699D01*
X86702D01*
X86302Y225299D01*
Y224900D01*
X86702Y224500D01*
X86302Y224100D01*
Y223700D01*
X86702Y223300D01*
X87502D01*
X87901Y223700D01*
Y224100D01*
X87502Y224500D01*
X87901Y224900D01*
Y225299D01*
X87502Y224500D02*
X86702D01*
X26300Y50400D02*
Y52799D01*
X25100D01*
X24701Y52399D01*
Y51600D01*
X25100Y51200D01*
X26300D01*
X25500D02*
X24701Y50400D01*
X22301Y52799D02*
X23101Y52399D01*
X23901Y51600D01*
Y50800D01*
X23501Y50400D01*
X22701D01*
X22301Y50800D01*
Y51200D01*
X22701Y51600D01*
X23901D01*
X21502Y50400D02*
X20702D01*
X21102D01*
Y52799D01*
X21502Y52399D01*
X42800Y47700D02*
Y50099D01*
X41600D01*
X41201Y49699D01*
Y48900D01*
X41600Y48500D01*
X42800D01*
X42000D02*
X41201Y47700D01*
X38801Y50099D02*
X39601Y49699D01*
X40401Y48900D01*
Y48100D01*
X40001Y47700D01*
X39201D01*
X38801Y48100D01*
Y48500D01*
X39201Y48900D01*
X40401D01*
X38002Y49699D02*
X37602Y50099D01*
X36802D01*
X36402Y49699D01*
Y49299D01*
X36802Y48900D01*
X37202D01*
X36802D01*
X36402Y48500D01*
Y48100D01*
X36802Y47700D01*
X37602D01*
X38002Y48100D01*
X31300Y62300D02*
X33899D01*
Y63600D01*
X33466Y64033D01*
X32600D01*
X32166Y63600D01*
Y62300D01*
Y63166D02*
X31300Y64033D01*
X33899Y64899D02*
Y66632D01*
X33466D01*
X31733Y64899D01*
X31300D01*
X33466Y67498D02*
X33899Y67931D01*
Y68798D01*
X33466Y69231D01*
X33033D01*
X32600Y68798D01*
Y68365D01*
Y68798D01*
X32166Y69231D01*
X31733D01*
X31300Y68798D01*
Y67931D01*
X31733Y67498D01*
X63900Y36300D02*
Y38699D01*
X62700D01*
X62300Y38299D01*
Y37500D01*
X62700Y37100D01*
X63900D01*
X63100D02*
X62300Y36300D01*
X59901Y38699D02*
X61501D01*
Y37500D01*
X60701Y37900D01*
X60301D01*
X59901Y37500D01*
Y36700D01*
X60301Y36300D01*
X61101D01*
X61501Y36700D01*
X59102D02*
X58702Y36300D01*
X57902D01*
X57502Y36700D01*
Y38299D01*
X57902Y38699D01*
X58702D01*
X59102Y38299D01*
Y37900D01*
X58702Y37500D01*
X57502D01*
X64299Y136600D02*
Y135800D01*
Y136200D01*
X62300D01*
X61900Y135800D01*
Y135400D01*
X62300Y135000D01*
X64299Y137399D02*
X62300D01*
X61900Y137799D01*
Y138599D01*
X62300Y138999D01*
X64299D01*
X61900Y141398D02*
Y139798D01*
X63499Y141398D01*
X63899D01*
X64299Y140998D01*
Y140198D01*
X63899Y139798D01*
X27399Y63099D02*
Y62300D01*
Y62700D01*
X25400D01*
X25000Y62300D01*
Y61900D01*
X25400Y61500D01*
X27399Y63899D02*
X25400D01*
X25000Y64299D01*
Y65099D01*
X25400Y65499D01*
X27399D01*
X25000Y66298D02*
Y67098D01*
Y66698D01*
X27399D01*
X26999Y66298D01*
X20500Y189600D02*
X22899D01*
Y190800D01*
X22499Y191200D01*
X21700D01*
X21300Y190800D01*
Y189600D01*
Y190400D02*
X20500Y191200D01*
Y193199D02*
X22899D01*
X21700Y191999D01*
Y193599D01*
X22499Y194398D02*
X22899Y194798D01*
Y195598D01*
X22499Y195998D01*
X20900D01*
X20500Y195598D01*
Y194798D01*
X20900Y194398D01*
X22499D01*
X20600Y154600D02*
X22999D01*
Y155800D01*
X22599Y156200D01*
X21800D01*
X21400Y155800D01*
Y154600D01*
Y155400D02*
X20600Y156200D01*
X22599Y156999D02*
X22999Y157399D01*
Y158199D01*
X22599Y158599D01*
X22199D01*
X21800Y158199D01*
Y157799D01*
Y158199D01*
X21400Y158599D01*
X21000D01*
X20600Y158199D01*
Y157399D01*
X21000Y156999D01*
X22599Y159398D02*
X22999Y159798D01*
Y160598D01*
X22599Y160998D01*
X22199D01*
X21800Y160598D01*
Y160198D01*
Y160598D01*
X21400Y160998D01*
X21000D01*
X20600Y160598D01*
Y159798D01*
X21000Y159398D01*
X40800Y200900D02*
Y203299D01*
X39600D01*
X39200Y202899D01*
Y202100D01*
X39600Y201700D01*
X40800D01*
X40000D02*
X39200Y200900D01*
X38401Y202899D02*
X38001Y203299D01*
X37201D01*
X36801Y202899D01*
Y202500D01*
X37201Y202100D01*
X37601D01*
X37201D01*
X36801Y201700D01*
Y201300D01*
X37201Y200900D01*
X38001D01*
X38401Y201300D01*
X34402Y203299D02*
X36002D01*
Y202100D01*
X35202Y202500D01*
X34802D01*
X34402Y202100D01*
Y201300D01*
X34802Y200900D01*
X35602D01*
X36002Y201300D01*
X108000Y43899D02*
Y41900D01*
X107600Y41500D01*
X106800D01*
X106401Y41900D01*
Y43899D01*
X104001Y41500D02*
X105601D01*
X104001Y43099D01*
Y43499D01*
X104401Y43899D01*
X105201D01*
X105601Y43499D01*
X101602Y43899D02*
X102402Y43499D01*
X103202Y42700D01*
Y41900D01*
X102802Y41500D01*
X102002D01*
X101602Y41900D01*
Y42300D01*
X102002Y42700D01*
X103202D01*
D115*
X156520Y99127D02*
G03*
X156520Y99127I-197J0D01*
G01*
X91020Y186338D02*
X94170D01*
X91020D02*
Y187519D01*
X94170Y186338D02*
Y187519D01*
X98570Y186338D02*
Y187519D01*
X95420Y186338D02*
Y187519D01*
Y186338D02*
X98570D01*
X93238Y194030D02*
X94419D01*
X93238Y197180D02*
X94419D01*
X93238Y194030D02*
Y197180D01*
X63138Y193930D02*
X64319D01*
X63138Y197080D02*
X64319D01*
X63138Y193930D02*
Y197080D01*
X65530Y148362D02*
X68680D01*
Y147181D02*
Y148362D01*
X65530Y147181D02*
Y148362D01*
X95330Y149262D02*
X98480D01*
Y148081D02*
Y149262D01*
X95330Y148081D02*
Y149262D01*
X125030Y149462D02*
X128180D01*
Y148281D02*
Y149462D01*
X125030Y148281D02*
Y149462D01*
X121120Y186738D02*
X124270D01*
X121120D02*
Y187919D01*
X124270Y186738D02*
Y187919D01*
X122938Y193230D02*
X124119D01*
X122938Y196380D02*
X124119D01*
X122938Y193230D02*
Y196380D01*
X128670Y186738D02*
Y187919D01*
X125520Y186738D02*
Y187919D01*
Y186738D02*
X128670D01*
X64620Y171638D02*
X67770D01*
X64620D02*
Y172819D01*
X67770Y171638D02*
Y172819D01*
X96362Y170020D02*
Y173170D01*
X95181Y170020D02*
X96362D01*
X95181Y173170D02*
X96362D01*
X126362Y170220D02*
Y173370D01*
X125181Y170220D02*
X126362D01*
X125181Y173370D02*
X126362D01*
X155562Y169520D02*
Y172670D01*
X154381Y169520D02*
X155562D01*
X154381Y172670D02*
X155562D01*
X154530Y149358D02*
X157680D01*
Y148177D02*
Y149358D01*
X154530Y148177D02*
Y149358D01*
X61320Y186138D02*
X64470D01*
X61320D02*
Y187319D01*
X64470Y186138D02*
Y187319D01*
X68970Y186138D02*
Y187319D01*
X65820Y186138D02*
Y187319D01*
Y186138D02*
X68970D01*
X150720D02*
X153870D01*
X150720D02*
Y187319D01*
X153870Y186138D02*
Y187319D01*
X158570Y186038D02*
Y187219D01*
X155420Y186038D02*
Y187219D01*
Y186038D02*
X158570D01*
X152838Y193930D02*
X154019D01*
X152838Y197080D02*
X154019D01*
X152838Y193930D02*
Y197080D01*
X55038Y133130D02*
Y136280D01*
X56219D01*
X55038Y133130D02*
X56219D01*
X68438Y93330D02*
Y96480D01*
X69619D01*
X68438Y93330D02*
X69619D01*
X89694Y123130D02*
Y126280D01*
X90875D01*
X89694Y123130D02*
X90875D01*
X121570Y32838D02*
Y34019D01*
X118420Y32838D02*
Y34019D01*
Y32838D02*
X121570D01*
X75781Y108570D02*
X76962D01*
X75781Y105420D02*
X76962D01*
Y108570D01*
X95540Y116538D02*
X98690D01*
X95540D02*
Y117719D01*
X98690Y116538D02*
Y117719D01*
X44862Y57120D02*
Y60270D01*
X43681Y57120D02*
X44862D01*
X43681Y60270D02*
X44862D01*
X120338Y26930D02*
Y30080D01*
X121519D01*
X120338Y26930D02*
X121519D01*
X133238Y84730D02*
X134419D01*
X133238Y87880D02*
X134419D01*
X133238Y84730D02*
Y87880D01*
X82770Y108538D02*
Y109719D01*
X79620Y108538D02*
Y109719D01*
Y108538D02*
X82770D01*
X46730Y58262D02*
X49880D01*
Y57081D02*
Y58262D01*
X46730Y57081D02*
Y58262D01*
X106138Y50230D02*
X107319D01*
X106138Y53380D02*
X107319D01*
X106138Y50230D02*
Y53380D01*
X83820Y152038D02*
X86970D01*
X83820D02*
Y153219D01*
X86970Y152038D02*
Y153219D01*
X116770Y151482D02*
Y152663D01*
X113620Y151482D02*
Y152663D01*
Y151482D02*
X116770D01*
X143320Y150682D02*
X146470D01*
X143320D02*
Y151863D01*
X146470Y150682D02*
Y151863D01*
X176370Y150838D02*
Y152019D01*
X173220Y150838D02*
Y152019D01*
Y150838D02*
X176370D01*
D116*
X72874Y214500D02*
G03*
X72874Y214500I-7874J0D01*
G01*
X96374D02*
G03*
X96374Y214500I-7874J0D01*
G01*
X181374D02*
G03*
X181374Y214500I-7874J0D01*
G01*
X157374D02*
G03*
X157374Y214500I-7874J0D01*
G01*
X132374D02*
G03*
X132374Y214500I-7874J0D01*
G01*
X36475Y135995D02*
G03*
X33325Y135995I-1575J0D01*
G01*
X101875Y28295D02*
G03*
X98725Y28295I-1575J0D01*
G01*
X31694Y112016D02*
G03*
X31694Y113984I0J984D01*
G01*
X128194Y42040D02*
G03*
X128194Y44009I0J984D01*
G01*
X53089Y200430D02*
X57026D01*
X55058Y198461D02*
Y202398D01*
X52656Y139957D02*
X56593D01*
X81805Y180013D02*
Y183556D01*
X78656D02*
X81805D01*
X69994Y180013D02*
Y183556D01*
X73144D01*
X82006Y153013D02*
Y156556D01*
X78856D02*
X82006D01*
X70195Y153013D02*
Y156556D01*
X73344D01*
X81805Y171013D02*
Y174556D01*
X78656D02*
X81805D01*
X69994Y171013D02*
Y174556D01*
X73144D01*
X111805Y153013D02*
Y156556D01*
X108656D02*
X111805D01*
X99994Y153013D02*
Y156556D01*
X103144D01*
X111805Y171013D02*
Y174556D01*
X108656D02*
X111805D01*
X99994Y171013D02*
Y174556D01*
X103144D01*
X111805Y180013D02*
Y183556D01*
X108656D02*
X111805D01*
X99994Y180013D02*
Y183556D01*
X103144D01*
X171806Y171013D02*
Y174556D01*
X168656D02*
X171806D01*
X159994Y171013D02*
Y174556D01*
X163144D01*
X171806Y153013D02*
Y156556D01*
X168656D02*
X171806D01*
X159994Y153013D02*
Y156556D01*
X163144D01*
X171806Y180013D02*
Y183556D01*
X168656D02*
X171806D01*
X159994Y180013D02*
Y183556D01*
X163144D01*
X141905Y153013D02*
Y156556D01*
X138756D02*
X141905D01*
X130095Y153013D02*
Y156556D01*
X133244D01*
X141806Y171013D02*
Y174556D01*
X138656D02*
X141806D01*
X129994Y171013D02*
Y174556D01*
X133144D01*
X141806Y180013D02*
Y183556D01*
X138656D02*
X141806D01*
X129994Y180013D02*
Y183556D01*
X133144D01*
X68543Y211547D02*
X70118D01*
X69331Y210563D02*
Y212531D01*
X92831Y210563D02*
Y212531D01*
X92043Y211547D02*
X93618D01*
X177043D02*
X178618D01*
X177831Y210563D02*
Y212531D01*
X153831Y210563D02*
Y212531D01*
X153043Y211547D02*
X154618D01*
X128831Y210563D02*
Y212531D01*
X128043Y211547D02*
X129618D01*
X40806Y135995D02*
Y147806D01*
X28995D02*
X40806D01*
X28995Y135995D02*
Y147806D01*
X36475Y135995D02*
X40806D01*
X28995D02*
X33325D01*
X23046Y109290D02*
Y120510D01*
X16353Y109290D02*
Y120510D01*
X22653D02*
X23046D01*
X22653Y109290D02*
X23046D01*
X16353Y120510D02*
X16747D01*
X16353Y109290D02*
X16747D01*
X86057Y105825D02*
Y108975D01*
Y105825D02*
X93143D01*
X86057Y108975D02*
X93143D01*
Y105825D02*
Y108975D01*
X101875Y28295D02*
X106205D01*
X94394D02*
X98725D01*
X94394D02*
Y40106D01*
X106205D01*
Y28295D02*
Y40106D01*
X132315Y55354D02*
Y58504D01*
Y55354D02*
X135858D01*
X132315Y64016D02*
Y67165D01*
X135858D01*
X141244Y55395D02*
Y58544D01*
Y55395D02*
X144787D01*
X141244Y64056D02*
Y67206D01*
X144787D01*
X99994Y147556D02*
X103144D01*
X99994Y144013D02*
Y147556D01*
X108656D02*
X111805D01*
Y144013D02*
Y147556D01*
X69994D02*
X73144D01*
X69994Y144013D02*
Y147556D01*
X78656D02*
X81805D01*
Y144013D02*
Y147556D01*
X159994D02*
X163144D01*
X159994Y144013D02*
Y147556D01*
X168656D02*
X171806D01*
Y144013D02*
Y147556D01*
X129994D02*
X133144D01*
X129994Y144013D02*
Y147556D01*
X138656D02*
X141806D01*
Y144013D02*
Y147556D01*
X125450Y111875D02*
X131750D01*
Y108725D02*
Y111875D01*
X125450Y108725D02*
X131750D01*
X125450D02*
Y111875D01*
X31694Y113984D02*
Y115953D01*
Y110047D02*
Y112016D01*
Y115953D02*
X43505D01*
Y110047D02*
Y115953D01*
X31694Y110047D02*
X43505D01*
X85847Y204601D02*
X87421Y206176D01*
X79154Y217199D02*
X79350D01*
X77579Y206176D02*
X79154Y204601D01*
X77579Y217199D02*
X87421D01*
X77579Y206176D02*
Y217199D01*
X79350Y204601D02*
X85650D01*
X87421Y206176D02*
Y217199D01*
X160021Y206576D02*
Y217599D01*
X151950Y205001D02*
X158250D01*
X150179Y206576D02*
Y217599D01*
X160021D01*
X150179Y206576D02*
X151753Y205001D01*
X151753Y217599D02*
X151950D01*
X158447Y205001D02*
X160021Y206576D01*
X196021D02*
Y217599D01*
X187950Y205001D02*
X194250D01*
X186179Y206576D02*
Y217599D01*
X196021D01*
X186179Y206576D02*
X187753Y205001D01*
X187753Y217599D02*
X187950D01*
X194447Y205001D02*
X196021Y206576D01*
X181801Y149554D02*
X183376Y147979D01*
X194399Y156050D02*
Y156246D01*
X181801Y156246D02*
X183376Y157821D01*
X194399Y147979D02*
Y157821D01*
X183376D02*
X194399D01*
X181801Y149750D02*
Y156050D01*
X183376Y147979D02*
X194399D01*
X133947Y204601D02*
X135521Y206176D01*
X127253Y217199D02*
X127450D01*
X125679Y206176D02*
X127253Y204601D01*
X125679Y217199D02*
X135521D01*
X125679Y206176D02*
Y217199D01*
X127450Y204601D02*
X133750D01*
X135521Y206176D02*
Y217199D01*
X183376Y160079D02*
X194399D01*
X181801Y161850D02*
Y168150D01*
X183376Y169921D02*
X194399D01*
Y160079D02*
Y169921D01*
X181801Y168347D02*
X183376Y169921D01*
X194399Y168150D02*
Y168347D01*
X181801Y161653D02*
X183376Y160079D01*
X99921Y206176D02*
Y217199D01*
X91850Y204601D02*
X98150D01*
X90079Y206176D02*
Y217199D01*
X99921D01*
X90079Y206176D02*
X91654Y204601D01*
X91654Y217199D02*
X91850D01*
X98347Y204601D02*
X99921Y206176D01*
X62247Y204501D02*
X63821Y206076D01*
X55554Y217099D02*
X55750D01*
X53979Y206076D02*
X55554Y204501D01*
X53979Y217099D02*
X63821D01*
X53979Y206076D02*
Y217099D01*
X55750Y204501D02*
X62050D01*
X63821Y206076D02*
Y217099D01*
X172021Y206576D02*
Y217599D01*
X163950Y205001D02*
X170250D01*
X162179Y206576D02*
Y217599D01*
X172021D01*
X162179Y206576D02*
X163753Y205001D01*
X163753Y217599D02*
X163950D01*
X170447Y205001D02*
X172021Y206576D01*
X111921Y206176D02*
Y217199D01*
X103850Y204601D02*
X110150D01*
X102079Y206176D02*
Y217199D01*
X111921D01*
X102079Y206176D02*
X103654Y204601D01*
X103654Y217199D02*
X103850D01*
X110346Y204601D02*
X111921Y206176D01*
X74146Y204601D02*
X75721Y206176D01*
X67453Y217199D02*
X67650D01*
X65879Y206176D02*
X67453Y204601D01*
X65879Y217199D02*
X75721D01*
X65879Y206176D02*
Y217199D01*
X67650Y204601D02*
X73950D01*
X75721Y206176D02*
Y217199D01*
X182346Y205001D02*
X183921Y206576D01*
X175654Y217599D02*
X175850D01*
X174079Y206576D02*
X175654Y205001D01*
X174079Y217599D02*
X183921D01*
X174079Y206576D02*
Y217599D01*
X175850Y205001D02*
X182150D01*
X183921Y206576D02*
Y217599D01*
X61848Y82490D02*
Y83613D01*
X60726D02*
X61848D01*
Y71211D02*
Y72333D01*
X60726Y71211D02*
X61848D01*
X49446D02*
X50568D01*
X49446D02*
Y72333D01*
Y82490D02*
Y83613D01*
X50568D01*
X128194Y40072D02*
X140006D01*
Y45977D01*
X128194D02*
X140006D01*
X128194Y40072D02*
Y42040D01*
Y44009D02*
Y45977D01*
X123621Y206176D02*
Y217199D01*
X115550Y204601D02*
X121850D01*
X113779Y206176D02*
Y217199D01*
X123621D01*
X113779Y206176D02*
X115354Y204601D01*
X115354Y217199D02*
X115550D01*
X122046Y204601D02*
X123621Y206176D01*
X156323Y114087D02*
X156953D01*
X143567D02*
X144197D01*
X143567Y100702D02*
X144197D01*
X156323D02*
X156953D01*
Y102867D01*
Y111922D02*
Y114087D01*
X143567Y111922D02*
Y114087D01*
Y100702D02*
Y102867D01*
X36569Y40650D02*
Y46950D01*
X33420Y40650D02*
X36569D01*
X33420D02*
Y46950D01*
X36569D01*
X146447Y204601D02*
X148021Y206176D01*
X139753Y217199D02*
X139950D01*
X138179Y206176D02*
X139753Y204601D01*
X138179Y217199D02*
X148021D01*
X138179Y206176D02*
Y217199D01*
X139950Y204601D02*
X146250D01*
X148021Y206176D02*
Y217199D01*
X145925Y80343D02*
X149075D01*
X145925Y73257D02*
Y80343D01*
X149075Y73257D02*
Y80343D01*
X145925Y73257D02*
X149075D01*
X81805Y162013D02*
Y165556D01*
X78656D02*
X81805D01*
X69994Y162013D02*
Y165556D01*
X73144D01*
X111805Y162013D02*
Y165556D01*
X108656D02*
X111805D01*
X99994Y162013D02*
Y165556D01*
X103144D01*
X141806Y162013D02*
Y165556D01*
X138656D02*
X141806D01*
X129994Y162013D02*
Y165556D01*
X133144D01*
X171806Y162013D02*
Y165556D01*
X168656D02*
X171806D01*
X159994Y162013D02*
Y165556D01*
X163144D01*
X81805Y189013D02*
Y192556D01*
X78656D02*
X81805D01*
X69994Y189013D02*
Y192556D01*
X73144D01*
X111805Y189013D02*
Y192556D01*
X108656D02*
X111805D01*
X99994Y189013D02*
Y192556D01*
X103144D01*
X141806Y189013D02*
Y192556D01*
X138656D02*
X141806D01*
X129994Y189013D02*
Y192556D01*
X133144D01*
X171806Y189013D02*
Y192556D01*
X168656D02*
X171806D01*
X159994Y189013D02*
Y192556D01*
X163144D01*
X141869Y36944D02*
Y42456D01*
X150728D01*
Y36944D02*
Y42456D01*
X141869Y36944D02*
X150728D01*
X56169Y41544D02*
Y47056D01*
X65028D01*
Y41544D02*
Y47056D01*
X56169Y41544D02*
X65028D01*
X45769Y27344D02*
Y32856D01*
X54628D01*
Y27344D02*
Y32856D01*
X45769Y27344D02*
X54628D01*
X60369Y106544D02*
Y112056D01*
X69228D01*
Y106544D02*
Y112056D01*
X60369Y106544D02*
X69228D01*
X83925Y48543D02*
X87075D01*
X83925Y41457D02*
Y48543D01*
X87075Y41457D02*
Y48543D01*
X83925Y41457D02*
X87075D01*
D119*
X23735Y122184D02*
G03*
X23735Y122184I-492J0D01*
G01*
X50529Y86172D02*
G03*
X50529Y86172I-492J0D01*
G01*
M02*
