G04 Layer_Physical_Order=3*
G04 Layer_Color=16440176*
%FSLAX25Y25*%
%MOIN*%
G70*
G01*
G75*
%ADD10C,0.00800*%
%ADD55C,0.01000*%
%ADD56C,0.01200*%
%ADD57C,0.01600*%
%ADD58C,0.01400*%
%ADD76C,0.04000*%
%ADD77C,0.03937*%
%ADD78R,0.03937X0.03937*%
%ADD85C,0.02600*%
D10*
X132200Y53737D02*
G03*
X132553Y54402I-467J673D01*
G01*
X112100Y62200D02*
G03*
X110688Y60865I-38J-1374D01*
G01*
X110700Y60800D02*
G03*
X109200Y62200I-1450J-50D01*
G01*
X69100Y23000D02*
Y28535D01*
X57000Y10900D02*
X69100Y23000D01*
X57000Y10000D02*
Y10900D01*
X110300Y62200D02*
X112100D01*
X107600D02*
X110300D01*
X110700Y61800D01*
Y51900D02*
Y61800D01*
X152737Y25300D02*
X167243D01*
X167343Y25400D01*
X154900Y23900D02*
X168200D01*
X168300Y24000D01*
X158088Y22500D02*
X169300D01*
X169400Y22600D01*
X152200Y31000D02*
X152300D01*
X150800D02*
X152300D01*
X150700Y30900D02*
X150800Y31000D01*
X156000Y20412D02*
X158088Y22500D01*
X151000Y20000D02*
X154900Y23900D01*
X147337Y19900D02*
X152737Y25300D01*
X169100Y20000D02*
X175600Y26500D01*
X160100Y20000D02*
X169100D01*
X128300Y121400D02*
X128900Y120800D01*
X98800Y52800D02*
X102600Y56600D01*
X98800Y52600D02*
Y52800D01*
X87100Y63300D02*
Y63700D01*
X89300Y65900D01*
X86900Y63500D02*
X87100Y63700D01*
X89300Y65900D02*
X92000D01*
X149100Y67600D02*
X163100D01*
X139800Y76900D02*
X149100Y67600D01*
X123100Y76900D02*
X139800D01*
X163000Y62700D02*
X163100Y62600D01*
X151440Y62700D02*
X163000D01*
X93700Y52600D02*
X98800D01*
X83000Y63300D02*
X93700Y52600D01*
X83000Y63300D02*
Y65900D01*
X102600Y56600D02*
Y59700D01*
X103600Y60700D01*
X106100D01*
X107600Y62200D01*
X112100D02*
X114400Y64500D01*
Y65900D01*
X123700Y75200D01*
X138940D01*
X151440Y62700D01*
X112600Y50000D02*
X114300D01*
X110700Y51900D02*
X112600Y50000D01*
X114300D02*
X115100Y49200D01*
X92500Y62100D02*
X105367D01*
X108167Y64900D01*
X94400Y63500D02*
X104788D01*
X108588Y67300D01*
X126400Y45700D02*
X139700D01*
X108000Y27300D02*
X126400Y45700D01*
X107200Y27300D02*
X108000D01*
X137780Y72400D02*
X157580Y52600D01*
X133500Y72400D02*
X137780D01*
X132800Y73800D02*
X138360D01*
X155260Y56900D01*
X162400D01*
X157580Y52600D02*
X163100D01*
X160600Y47600D02*
X163100D01*
X138300Y69900D02*
X160600Y47600D01*
X134300Y69900D02*
X138300D01*
X108167Y64900D02*
X111100D01*
X91100Y63500D02*
X92500Y62100D01*
X92000Y65900D02*
X94400Y63500D01*
X113500Y67300D02*
X123100Y76900D01*
X95250Y55150D02*
X97700D01*
X87100Y63300D02*
X95250Y55150D01*
X108588Y67300D02*
X113500D01*
X162400Y56900D02*
X163100Y57600D01*
X118200Y66300D02*
X125300D01*
X132800Y73800D01*
X124000Y62900D02*
X133500Y72400D01*
X124000Y54000D02*
Y62900D01*
X152200Y31000D02*
Y33683D01*
X156117Y37600D01*
X163100D01*
X142800Y42600D02*
X163100D01*
X139700Y45700D02*
X142800Y42600D01*
X148557Y23100D02*
X152257Y26800D01*
X145100Y23100D02*
X148557D01*
X141000Y19000D02*
X145100Y23100D01*
X146000Y19900D02*
X147337D01*
X82150Y60550D02*
X93200Y49500D01*
X78400Y56500D02*
X84193Y50706D01*
Y43628D02*
Y50706D01*
X76900Y54700D02*
X81200Y50400D01*
X77900Y68600D02*
X86300Y77000D01*
X39820Y68600D02*
X77900D01*
X77300Y70000D02*
X88500Y81200D01*
X40400Y70000D02*
X77300D01*
X75900Y71400D02*
X86200Y81700D01*
X41300Y71400D02*
X75900D01*
X88547Y84900D02*
X88700D01*
X88353Y88700D02*
X91300Y85753D01*
X88000Y71400D02*
X91300Y74700D01*
X82800Y88700D02*
X88353D01*
X93700Y73100D02*
Y103700D01*
X80650Y60550D02*
X82150D01*
X69100Y28535D02*
X84193Y43628D01*
X138200Y43400D02*
X150700Y30900D01*
X75000Y62600D02*
Y65353D01*
X73353Y67000D02*
X75000Y65353D01*
X39440Y67000D02*
X73353D01*
X114100Y62200D02*
X118200Y66300D01*
X114100Y52700D02*
Y62200D01*
X83800Y71400D02*
X88000D01*
X80200Y67800D02*
X83800Y71400D01*
X78400Y56500D02*
Y62300D01*
X80200Y64100D01*
X76900Y54700D02*
Y66000D01*
X131800Y120028D02*
Y120200D01*
X83000Y10500D02*
X83500Y10000D01*
X34400Y51700D02*
X35200D01*
X32500Y89600D02*
X35300Y86800D01*
Y77400D02*
Y86800D01*
X125000Y120800D02*
X125600Y120200D01*
X122900Y52900D02*
X124000Y54000D01*
X118800Y52900D02*
X122900D01*
X16900Y29900D02*
X28700D01*
X34000Y24600D01*
X36700D01*
X36900Y24400D01*
X30500Y16100D02*
X36000D01*
X41500Y21600D01*
X69100Y64200D02*
X69500Y63800D01*
X79600Y91900D02*
X82800Y88700D01*
X86200Y81700D02*
Y82553D01*
X88700Y76900D02*
X89000D01*
X86200Y82553D02*
X88547Y84900D01*
X86300Y77000D02*
X89000D01*
X91300Y74700D02*
Y85753D01*
X79600Y91900D02*
Y105900D01*
X82400Y92900D02*
X83300Y93800D01*
X85600Y93900D02*
X85700Y93800D01*
X89000Y93700D02*
X89300Y94000D01*
X85600Y93900D02*
X87900Y96200D01*
X82400Y93800D02*
X86500Y97900D01*
X101300Y116100D02*
X109200Y108200D01*
X93700Y103700D02*
X95900Y105900D01*
X104300D01*
X108400Y97700D02*
X111800D01*
X109200Y100200D02*
Y108200D01*
X91200Y91100D02*
X91500Y91400D01*
X86500Y97900D02*
Y111200D01*
X87900Y96200D02*
Y110600D01*
X86500Y111200D02*
X102700Y127400D01*
Y130800D01*
X87900Y110600D02*
X106400Y129100D01*
Y130800D01*
X89300Y94000D02*
Y109800D01*
X109500Y130000D01*
Y130800D01*
X91500Y91400D02*
Y109800D01*
X108800Y127100D01*
X110300D01*
X113000Y129800D01*
Y130800D01*
X23300Y83140D02*
Y83400D01*
X21400Y78600D02*
X25860D01*
X38860Y65600D01*
X21900Y89600D02*
X32500D01*
X23300Y83140D02*
X39440Y67000D01*
X23033Y85900D02*
X25100D01*
X22453Y87300D02*
X25680D01*
X28100Y82300D02*
Y84880D01*
X25680Y87300D02*
X28100Y84880D01*
X26700Y81720D02*
Y84300D01*
X25100Y85900D02*
X26700Y84300D01*
X27180Y75300D02*
X38280Y64200D01*
X69100D01*
X19200Y82067D02*
X23033Y85900D01*
X17700Y82547D02*
X22453Y87300D01*
X17700Y71800D02*
Y82547D01*
X10500Y59600D02*
X19200Y68300D01*
X10500Y64600D02*
X17700Y71800D01*
X19200Y68300D02*
Y82067D01*
X10500Y88847D02*
X13647Y85700D01*
X18000D01*
X10500Y88847D02*
Y89600D01*
X18000Y85700D02*
X21900Y89600D01*
X36700Y27700D02*
X37500D01*
X41600Y23600D01*
Y21700D02*
Y23600D01*
X41500Y21600D02*
X41600Y21700D01*
X38860Y65600D02*
X70400D01*
X72400Y63600D01*
X104300Y105900D02*
X106500Y103700D01*
Y99600D02*
Y103700D01*
Y99600D02*
X108400Y97700D01*
X21300Y75300D02*
X27180D01*
X88800Y68200D02*
X93700Y73100D01*
X80200Y64100D02*
Y67800D01*
X26700Y81720D02*
X39820Y68600D01*
X28100Y82300D02*
X40400Y70000D01*
X35300Y77400D02*
X41300Y71400D01*
D55*
X132700Y54900D02*
G03*
X134000Y53544I1328J-28D01*
G01*
X126400Y127900D02*
X134400D01*
X24180Y145700D02*
X36800D01*
X17200Y141500D02*
Y143300D01*
X143100Y95804D02*
X150700Y88204D01*
Y82100D02*
Y88204D01*
Y82100D02*
X154100Y78700D01*
X144700Y96467D02*
X170800Y70367D01*
X146300Y97130D02*
X172400Y71030D01*
X147900Y97792D02*
X174000Y71692D01*
X132300Y120600D02*
X143100Y109800D01*
Y95804D02*
Y109800D01*
X132494Y123000D02*
X144700Y110794D01*
Y96467D02*
Y110794D01*
X133157Y124600D02*
X146300Y111457D01*
Y97130D02*
Y111457D01*
X133820Y126200D02*
X147900Y112120D01*
Y97792D02*
Y112120D01*
X134400Y127900D02*
X149500Y112800D01*
Y98455D02*
Y112800D01*
Y98455D02*
X175600Y72355D01*
Y26500D02*
Y72355D01*
X174000Y27200D02*
Y71692D01*
X172400Y28100D02*
Y71030D01*
X170800Y28857D02*
Y70367D01*
X169200Y29520D02*
Y69704D01*
X154100Y78700D02*
X160204D01*
X169200Y69704D01*
X166480Y26800D02*
X169200Y29520D01*
X152257Y26800D02*
X166480D01*
X167343Y25400D02*
X170800Y28857D01*
X168300Y24000D02*
X172400Y28100D01*
X169400Y22600D02*
X174000Y27200D01*
X128300Y120800D02*
Y121400D01*
X114379Y35800D02*
X132123Y53544D01*
X132700D01*
X95500Y35800D02*
X114379D01*
X108400Y55600D02*
Y59900D01*
X86200Y26500D02*
X95500Y35800D01*
X86200Y25600D02*
Y26500D01*
X156000Y19000D02*
Y20412D01*
X2631Y124151D02*
X24180Y145700D01*
X4231Y123488D02*
X24143Y143400D01*
X19506Y136500D02*
X33800D01*
X5832Y122826D02*
X19506Y136500D01*
X7431Y121943D02*
X19088Y133600D01*
X105200Y54663D02*
Y58700D01*
X92666Y42129D02*
X105200Y54663D01*
X84815Y42129D02*
X92666D01*
X93328Y40529D02*
X108400Y55600D01*
X85478Y40529D02*
X93328D01*
X151000Y19000D02*
Y20000D01*
X70800Y17800D02*
Y28114D01*
X84815Y42129D01*
X134862Y53544D02*
X143506Y44900D01*
X144370Y47530D02*
Y51630D01*
X146600Y44900D02*
X149100Y47400D01*
X132700Y53544D02*
X134862D01*
X132700D02*
Y57500D01*
X143506Y44900D02*
X146600D01*
X114428Y38129D02*
X130200Y53900D01*
X74900Y19600D02*
Y29951D01*
X83000Y34657D02*
X86472Y38129D01*
X83000Y10500D02*
Y34657D01*
X86472Y38129D02*
X114428D01*
X74900Y29951D02*
X85478Y40529D01*
X16000Y106100D02*
X43800D01*
X14200Y104300D02*
X16000Y106100D01*
X14200Y88100D02*
X14500Y87800D01*
X14200Y88100D02*
Y104300D01*
X9300Y54000D02*
X26800D01*
X9400Y51000D02*
X29200D01*
X128300Y121400D02*
Y121900D01*
X125000Y120800D02*
Y121000D01*
X128600Y124600D01*
X128300Y121900D02*
X129400Y123000D01*
X132494D01*
X128600Y124600D02*
X133157D01*
X131500Y120600D02*
X132300D01*
X122400Y118600D02*
X124200Y116800D01*
X131100Y64900D02*
X144370Y51630D01*
X130200Y53900D02*
Y64000D01*
X131100Y64900D01*
X4231Y59069D02*
X9300Y54000D01*
X5832Y84268D02*
X10500Y79600D01*
X7431Y87669D02*
X10500Y84600D01*
X2631Y57768D02*
X9400Y51000D01*
X47000Y149700D02*
Y150700D01*
X125000Y120200D02*
Y120800D01*
X122400Y118600D02*
Y121100D01*
X127500Y126200D01*
X133820D01*
X110600Y115500D02*
X117800Y122700D01*
X121200D01*
X126400Y127900D01*
X110600Y111600D02*
Y115500D01*
X160100Y20000D02*
X161100Y19000D01*
X33800Y136500D02*
X47000Y149700D01*
X7431Y87669D02*
Y121943D01*
X19088Y133600D02*
X19700D01*
X4231Y59069D02*
Y123488D01*
X24143Y143400D02*
X35600D01*
X5832Y84268D02*
Y122826D01*
X2631Y57768D02*
Y124151D01*
X10700Y135000D02*
X17200Y141500D01*
X9700Y135000D02*
X10700D01*
X146000Y19000D02*
Y19900D01*
X86200Y11800D02*
Y25600D01*
Y11800D02*
X88000Y10000D01*
D56*
X167500Y30224D02*
Y69000D01*
X159500Y77000D02*
X167500Y69000D01*
X153000Y77000D02*
X159500D01*
X165776Y28500D02*
X167500Y30224D01*
X151270Y28500D02*
X165776D01*
X146100Y83900D02*
X153000Y77000D01*
X130400Y83900D02*
X146100D01*
X148570Y25800D02*
X151270Y28500D01*
X141700Y25800D02*
X148570D01*
X115600Y98700D02*
X130400Y83900D01*
X137600Y21700D02*
X141700Y25800D01*
X74700Y73500D02*
Y82100D01*
X56100Y100700D02*
Y107500D01*
Y100700D02*
X74700Y82100D01*
X137600Y17400D02*
X141000Y14000D01*
X115600Y98700D02*
X116300Y99400D01*
X137600Y17400D02*
Y21700D01*
X116300Y99400D02*
Y111900D01*
D57*
X65400Y51900D02*
X75300D01*
X76800Y50400D01*
X137100Y90500D02*
X140800Y94200D01*
X133500Y90500D02*
X137100D01*
X119100Y115900D02*
X140800Y94200D01*
X116300Y115900D02*
X119100D01*
D58*
X50500Y121200D02*
X70300D01*
X47700Y124000D02*
X50500Y121200D01*
X47700Y124000D02*
Y124900D01*
X59400Y57900D02*
X65400Y51900D01*
X66100Y133600D02*
X84100D01*
X86800Y123800D02*
Y130900D01*
X84100Y133600D02*
X86800Y130900D01*
X76300Y117900D02*
X80900D01*
X70300Y121200D02*
X72700Y123600D01*
Y124900D01*
X57700Y129900D02*
Y131100D01*
X55100Y133700D02*
X57700Y131100D01*
X47700Y129900D02*
Y130800D01*
X50600Y133700D01*
X55100D01*
X62500Y130000D02*
X66100Y133600D01*
X80900Y117900D02*
X86800Y123800D01*
X34400Y57900D02*
X59400D01*
X102200Y91800D02*
X104600D01*
X111900Y84500D01*
Y69700D02*
Y84500D01*
D76*
X62500Y130000D02*
D03*
X72500Y125000D02*
D03*
X47500Y130000D02*
D03*
Y125000D02*
D03*
X57500Y130000D02*
D03*
X102500Y92000D02*
D03*
D77*
X164000Y67500D02*
D03*
Y62500D02*
D03*
Y57500D02*
D03*
Y52500D02*
D03*
Y47500D02*
D03*
Y42500D02*
D03*
Y37500D02*
D03*
X88000Y10000D02*
D03*
X83000D02*
D03*
X161000Y19000D02*
D03*
X141000D02*
D03*
X146000D02*
D03*
X151000D02*
D03*
X156000D02*
D03*
X141000Y14000D02*
D03*
X10500Y64600D02*
D03*
Y79600D02*
D03*
Y84600D02*
D03*
X10500Y89600D02*
D03*
X57000Y10000D02*
D03*
D78*
X10500Y59600D02*
D03*
D85*
X17200Y143800D02*
D03*
X152300Y31000D02*
D03*
X108400Y59600D02*
D03*
X90800Y63300D02*
D03*
X86900Y63500D02*
D03*
X88800Y68200D02*
D03*
X134300Y69900D02*
D03*
X107200Y27300D02*
D03*
X93200Y49800D02*
D03*
X81200Y50400D02*
D03*
X77500Y66300D02*
D03*
X88700Y84900D02*
D03*
X88500Y81600D02*
D03*
X97700Y55150D02*
D03*
X70800Y17800D02*
D03*
X137100Y43400D02*
D03*
X144270Y47930D02*
D03*
X149100Y47400D02*
D03*
X132700Y57500D02*
D03*
X79600Y105900D02*
D03*
X29200Y51000D02*
D03*
X131100Y64900D02*
D03*
X21600Y75400D02*
D03*
X118200Y66300D02*
D03*
X124200Y116800D02*
D03*
X131500Y120600D02*
D03*
X34400Y57900D02*
D03*
X35000Y52300D02*
D03*
X26800Y54000D02*
D03*
X36700Y27700D02*
D03*
X36900Y24400D02*
D03*
X41500Y21600D02*
D03*
X140900Y94200D02*
D03*
X116300Y116000D02*
D03*
X133500Y90500D02*
D03*
X74800Y73800D02*
D03*
X56100Y107500D02*
D03*
X69100Y63200D02*
D03*
X19600Y133200D02*
D03*
X128300Y120800D02*
D03*
X111100Y64900D02*
D03*
X112400Y69700D02*
D03*
X124000Y54000D02*
D03*
X118800Y52900D02*
D03*
X114400Y52400D02*
D03*
X45200Y106100D02*
D03*
X47000Y150700D02*
D03*
X36800Y145600D02*
D03*
X35600Y142600D02*
D03*
X30500Y16100D02*
D03*
X16900Y30700D02*
D03*
X106100Y130800D02*
D03*
X125000Y120200D02*
D03*
X91300Y91100D02*
D03*
X82400Y93800D02*
D03*
X85700D02*
D03*
X89000Y93700D02*
D03*
Y77000D02*
D03*
X102700Y130800D02*
D03*
X113000D02*
D03*
X101300Y116100D02*
D03*
X75600Y118400D02*
D03*
X110600Y111600D02*
D03*
X109200Y100200D02*
D03*
X111800Y97700D02*
D03*
X116300Y112100D02*
D03*
X109500Y130800D02*
D03*
X115600Y98700D02*
D03*
X9700Y135000D02*
D03*
X24000Y83400D02*
D03*
X14600Y88000D02*
D03*
X65400Y51900D02*
D03*
X77200Y50800D02*
D03*
X86200Y25600D02*
D03*
X105000Y58400D02*
D03*
X74900Y19600D02*
D03*
X86472Y38129D02*
D03*
X115100Y49200D02*
D03*
X21900Y78600D02*
D03*
X83000Y65900D02*
D03*
X74500Y61800D02*
D03*
X81100Y60400D02*
D03*
X72100Y64400D02*
D03*
M02*
