G04 Layer_Color=65535*
%FSLAX25Y25*%
%MOIN*%
G70*
G01*
G75*
%ADD10C,0.00800*%
%ADD55C,0.01000*%
%ADD57C,0.01600*%
%ADD63C,0.00600*%
%ADD114C,0.01181*%
%ADD115C,0.00394*%
%ADD116C,0.00787*%
%ADD117C,0.00591*%
%ADD118C,0.00100*%
%ADD119C,0.00984*%
%ADD120C,0.00400*%
D10*
X121238Y83490D02*
G03*
X121238Y83490I-318J0D01*
G01*
X131098Y33910D02*
G03*
X131098Y33910I-318J0D01*
G01*
X78798Y40310D02*
G03*
X78798Y40310I-318J0D01*
G01*
X136000Y57261D02*
X137500Y55863D01*
X135800Y66700D02*
Y69000D01*
X138100D01*
X146831D02*
X149193D01*
Y66700D02*
Y69000D01*
Y55607D02*
Y57969D01*
X146831Y55607D02*
X149193D01*
X200238Y178800D02*
X202371D01*
X203437Y177734D01*
X202371Y176667D01*
X200238D01*
X201838D01*
Y178800D01*
X203437Y175601D02*
X200238D01*
Y174002D01*
X200771Y173468D01*
X201305D01*
X201838D01*
X202371Y174002D01*
Y175601D01*
X200238Y172402D02*
Y170803D01*
X200771Y170269D01*
X201305Y170803D01*
Y171869D01*
X201838Y172402D01*
X202371Y171869D01*
Y170269D01*
X202904Y168670D02*
X202371D01*
Y169203D01*
Y168137D01*
Y168670D01*
X200771D01*
X200238Y168137D01*
X202371Y166537D02*
X200238D01*
X201305D01*
X201838Y166004D01*
X202371Y165471D01*
Y164938D01*
Y162805D02*
Y161739D01*
X201838Y161206D01*
X200238D01*
Y162805D01*
X200771Y163338D01*
X201305Y162805D01*
Y161206D01*
X202371Y158007D02*
Y159606D01*
X201838Y160139D01*
X200771D01*
X200238Y159606D01*
Y158007D01*
X202904Y156407D02*
X202371D01*
Y156940D01*
Y155874D01*
Y156407D01*
X200771D01*
X200238Y155874D01*
X203437Y151076D02*
X200238D01*
Y148943D01*
X202371Y147344D02*
Y146277D01*
X201838Y145744D01*
X200238D01*
Y147344D01*
X200771Y147877D01*
X201305Y147344D01*
Y145744D01*
X203437Y144678D02*
X200238D01*
Y143078D01*
X200771Y142545D01*
X201305D01*
X201838D01*
X202371Y143078D01*
Y144678D01*
X197678Y176667D02*
Y178800D01*
X194479D01*
Y176667D01*
X196079Y178800D02*
Y177734D01*
X194479Y175601D02*
X197678D01*
Y174002D01*
X197145Y173468D01*
X196079D01*
X195546Y174002D01*
Y175601D01*
Y174535D02*
X194479Y173468D01*
Y169203D02*
X196612D01*
X197678Y168137D01*
X196612Y167070D01*
X194479D01*
X196079D01*
Y169203D01*
X197145Y163872D02*
X197678Y164405D01*
Y165471D01*
X197145Y166004D01*
X195012D01*
X194479Y165471D01*
Y164405D01*
X195012Y163872D01*
X197678Y159606D02*
X194479D01*
Y158007D01*
X195012Y157474D01*
X195546D01*
X196079Y158007D01*
Y159606D01*
Y158007D01*
X196612Y157474D01*
X197145D01*
X197678Y158007D01*
Y159606D01*
Y156407D02*
X194479D01*
Y154275D01*
Y147877D02*
Y150009D01*
X196612Y147877D01*
X197145D01*
X197678Y148410D01*
Y149476D01*
X197145Y150009D01*
Y146810D02*
X197678Y146277D01*
Y145211D01*
X197145Y144678D01*
X195012D01*
X194479Y145211D01*
Y146277D01*
X195012Y146810D01*
X197145D01*
X194479Y143611D02*
Y142545D01*
Y143078D01*
X197678D01*
X197145Y143611D01*
Y140945D02*
X197678Y140412D01*
Y139346D01*
X197145Y138813D01*
X196612D01*
X196079Y139346D01*
X195546Y138813D01*
X195012D01*
X194479Y139346D01*
Y140412D01*
X195012Y140945D01*
X195546D01*
X196079Y140412D01*
X196612Y140945D01*
X197145D01*
X196079Y140412D02*
Y139346D01*
D55*
X137373Y8232D02*
G03*
X137373Y8232I-841J0D01*
G01*
X65022Y135774D02*
Y169239D01*
X63841Y137742D02*
Y161365D01*
X172503Y178958D02*
Y202580D01*
X171322Y171084D02*
Y204549D01*
X47500Y208000D02*
Y222000D01*
X33500D02*
X47500D01*
X33500Y208000D02*
Y222000D01*
Y208000D02*
X47500D01*
X51200Y43500D02*
X57200D01*
X51200Y49500D02*
X57200D01*
X163800Y111800D02*
Y117800D01*
X157800Y111800D02*
Y117800D01*
X216565Y189034D02*
X217232Y189701D01*
Y191033D01*
X216565Y191700D01*
X213899D01*
X213233Y191033D01*
Y189701D01*
X213899Y189034D01*
X213233Y187701D02*
X215899D01*
X217232Y186368D01*
X215899Y185036D01*
X213233D01*
X215232D01*
Y187701D01*
X213233Y183703D02*
X217232D01*
Y181703D01*
X216565Y181037D01*
X215232D01*
X214566Y181703D01*
Y183703D01*
X215899Y179704D02*
X213899D01*
X213233Y179037D01*
Y177038D01*
X212566D01*
X211900Y177705D01*
Y178371D01*
X213233Y177038D02*
X215899D01*
X217232Y175705D02*
X213233D01*
Y173706D01*
X213899Y173039D01*
X214566D01*
X215232D01*
X215899Y173706D01*
Y175705D01*
Y171040D02*
Y169707D01*
X215232Y169041D01*
X213233D01*
Y171040D01*
X213899Y171706D01*
X214566Y171040D01*
Y169041D01*
X215899Y167708D02*
X213233D01*
X214566D01*
X215232Y167041D01*
X215899Y166375D01*
Y165708D01*
Y163043D02*
Y161710D01*
X215232Y161043D01*
X213233D01*
Y163043D01*
X213899Y163709D01*
X214566Y163043D01*
Y161043D01*
X215899Y155712D02*
X213233Y154379D01*
X215899Y153046D01*
X213233Y149047D02*
Y151713D01*
X215899Y149047D01*
X216565D01*
X217232Y149714D01*
Y151047D01*
X216565Y151713D01*
X213233Y147714D02*
X213899D01*
Y147048D01*
X213233D01*
Y147714D01*
X216565Y144382D02*
X217232Y143716D01*
Y142383D01*
X216565Y141716D01*
X213899D01*
X213233Y142383D01*
Y143716D01*
X213899Y144382D01*
X216565D01*
D57*
X153801Y42896D02*
G03*
X153801Y42896I-88J0D01*
G01*
D63*
X56200Y142500D02*
X58599D01*
Y141300D01*
X58199Y140901D01*
X57400D01*
X57000Y141300D01*
Y142500D01*
Y141700D02*
X56200Y140901D01*
Y138901D02*
X58599D01*
X57400Y140101D01*
Y138501D01*
X56200Y136502D02*
X58599D01*
X57400Y137702D01*
Y136102D01*
X178500Y204700D02*
X180899D01*
Y203500D01*
X180499Y203100D01*
X179700D01*
X179300Y203500D01*
Y204700D01*
Y203900D02*
X178500Y203100D01*
Y201101D02*
X180899D01*
X179700Y202301D01*
Y200701D01*
X180499Y199902D02*
X180899Y199502D01*
Y198702D01*
X180499Y198302D01*
X180099D01*
X179700Y198702D01*
Y199102D01*
Y198702D01*
X179300Y198302D01*
X178900D01*
X178500Y198702D01*
Y199502D01*
X178900Y199902D01*
X121500Y74799D02*
Y72633D01*
X121933Y72200D01*
X122800D01*
X123233Y72633D01*
Y74799D01*
X124099Y72200D02*
X124966D01*
X124532D01*
Y74799D01*
X124099Y74366D01*
X126265Y72633D02*
X126698Y72200D01*
X127565D01*
X127998Y72633D01*
Y74366D01*
X127565Y74799D01*
X126698D01*
X126265Y74366D01*
Y73933D01*
X126698Y73500D01*
X127998D01*
X86800Y20599D02*
Y18433D01*
X87233Y18000D01*
X88100D01*
X88533Y18433D01*
Y20599D01*
X89399Y18000D02*
X90266D01*
X89832D01*
Y20599D01*
X89399Y20166D01*
X92865Y18000D02*
Y20599D01*
X91565Y19300D01*
X93298D01*
X118500Y71399D02*
Y69233D01*
X118933Y68800D01*
X119800D01*
X120233Y69233D01*
Y71399D01*
X121099Y68800D02*
X121966D01*
X121532D01*
Y71399D01*
X121099Y70966D01*
X123265D02*
X123698Y71399D01*
X124565D01*
X124998Y70966D01*
Y70533D01*
X124565Y70100D01*
X124998Y69666D01*
Y69233D01*
X124565Y68800D01*
X123698D01*
X123265Y69233D01*
Y69666D01*
X123698Y70100D01*
X123265Y70533D01*
Y70966D01*
X123698Y70100D02*
X124565D01*
X155533Y30799D02*
X154666D01*
X155100D01*
Y28633D01*
X154666Y28200D01*
X154233D01*
X153800Y28633D01*
X156399Y28200D02*
X157266D01*
X156832D01*
Y30799D01*
X156399Y30366D01*
X122000Y45299D02*
Y43133D01*
X122433Y42700D01*
X123300D01*
X123733Y43133D01*
Y45299D01*
X124599Y42700D02*
X125466D01*
X125032D01*
Y45299D01*
X124599Y44866D01*
X126765D02*
X127198Y45299D01*
X128065D01*
X128498Y44866D01*
Y44433D01*
X128065Y44000D01*
X127631D01*
X128065D01*
X128498Y43566D01*
Y43133D01*
X128065Y42700D01*
X127198D01*
X126765Y43133D01*
X68699Y26800D02*
X66533D01*
X66100Y26367D01*
Y25500D01*
X66533Y25067D01*
X68699D01*
X66100Y24201D02*
Y23335D01*
Y23768D01*
X68699D01*
X68266Y24201D01*
X68699Y22035D02*
Y20302D01*
X68266D01*
X66533Y22035D01*
X66100D01*
X157100Y161800D02*
Y164399D01*
X158400D01*
X158833Y163966D01*
Y163100D01*
X158400Y162666D01*
X157100D01*
X157966D02*
X158833Y161800D01*
X160999D02*
Y164399D01*
X159699Y163100D01*
X161432D01*
X164031Y164399D02*
X162298D01*
Y163100D01*
X163165Y163533D01*
X163598D01*
X164031Y163100D01*
Y162233D01*
X163598Y161800D01*
X162732D01*
X162298Y162233D01*
X188300Y92200D02*
Y94799D01*
X189600D01*
X190033Y94366D01*
Y93500D01*
X189600Y93066D01*
X188300D01*
X189166D02*
X190033Y92200D01*
X190899Y92633D02*
X191332Y92200D01*
X192199D01*
X192632Y92633D01*
Y94366D01*
X192199Y94799D01*
X191332D01*
X190899Y94366D01*
Y93933D01*
X191332Y93500D01*
X192632D01*
X193498Y92633D02*
X193931Y92200D01*
X194798D01*
X195231Y92633D01*
Y94366D01*
X194798Y94799D01*
X193931D01*
X193498Y94366D01*
Y93933D01*
X193931Y93500D01*
X195231D01*
X115166Y97867D02*
X115599Y98300D01*
Y99167D01*
X115166Y99600D01*
X113433D01*
X113000Y99167D01*
Y98300D01*
X113433Y97867D01*
X115599Y97001D02*
Y95268D01*
X115166D01*
X113433Y97001D01*
X113000D01*
Y93102D02*
X115599D01*
X114300Y94402D01*
Y92669D01*
X59100Y179800D02*
Y182399D01*
X60400D01*
X60833Y181966D01*
Y181100D01*
X60400Y180666D01*
X59100D01*
X59966D02*
X60833Y179800D01*
X62999D02*
Y182399D01*
X61699Y181100D01*
X63432D01*
X64298Y179800D02*
X65165D01*
X64732D01*
Y182399D01*
X64298Y181966D01*
X149533Y169166D02*
X149100Y169599D01*
X148233D01*
X147800Y169166D01*
Y168733D01*
X148233Y168300D01*
X149100D01*
X149533Y167866D01*
Y167433D01*
X149100Y167000D01*
X148233D01*
X147800Y167433D01*
X152132Y167000D02*
X150399D01*
X152132Y168733D01*
Y169166D01*
X151699Y169599D01*
X150832D01*
X150399Y169166D01*
X63733Y49966D02*
X63300Y50399D01*
X62433D01*
X62000Y49966D01*
Y48233D01*
X62433Y47800D01*
X63300D01*
X63733Y48233D01*
X64599Y47800D02*
X65465D01*
X65032D01*
Y50399D01*
X64599Y49966D01*
X66765Y47800D02*
X67632D01*
X67198D01*
Y50399D01*
X66765Y49966D01*
X68931D02*
X69364Y50399D01*
X70231D01*
X70664Y49966D01*
Y49533D01*
X70231Y49100D01*
X69797D01*
X70231D01*
X70664Y48666D01*
Y48233D01*
X70231Y47800D01*
X69364D01*
X68931Y48233D01*
X46633Y37866D02*
X46200Y38299D01*
X45333D01*
X44900Y37866D01*
Y36133D01*
X45333Y35700D01*
X46200D01*
X46633Y36133D01*
X47499Y35700D02*
X48366D01*
X47932D01*
Y38299D01*
X47499Y37866D01*
X49665Y35700D02*
X50532D01*
X50098D01*
Y38299D01*
X49665Y37866D01*
X51831Y35700D02*
X52697D01*
X52264D01*
Y38299D01*
X51831Y37866D01*
X55033Y37466D02*
X54600Y37899D01*
X53733D01*
X53300Y37466D01*
Y35733D01*
X53733Y35300D01*
X54600D01*
X55033Y35733D01*
X55899Y35300D02*
X56766D01*
X56332D01*
Y37899D01*
X55899Y37466D01*
X58065Y35300D02*
X58931D01*
X58498D01*
Y37899D01*
X58065Y37466D01*
X60231D02*
X60664Y37899D01*
X61531D01*
X61964Y37466D01*
Y35733D01*
X61531Y35300D01*
X60664D01*
X60231Y35733D01*
Y37466D01*
X86733Y40166D02*
X86300Y40599D01*
X85433D01*
X85000Y40166D01*
Y38433D01*
X85433Y38000D01*
X86300D01*
X86733Y38433D01*
X89332Y40599D02*
X87599D01*
Y39300D01*
X88465Y39733D01*
X88899D01*
X89332Y39300D01*
Y38433D01*
X88899Y38000D01*
X88032D01*
X87599Y38433D01*
X90198Y40599D02*
X91931D01*
Y40166D01*
X90198Y38433D01*
Y38000D01*
X69566Y55267D02*
X69999Y55700D01*
Y56567D01*
X69566Y57000D01*
X67833D01*
X67400Y56567D01*
Y55700D01*
X67833Y55267D01*
X69999Y52668D02*
Y54401D01*
X68700D01*
X69133Y53535D01*
Y53101D01*
X68700Y52668D01*
X67833D01*
X67400Y53101D01*
Y53968D01*
X67833Y54401D01*
X69999Y50069D02*
X69566Y50935D01*
X68700Y51802D01*
X67833D01*
X67400Y51368D01*
Y50502D01*
X67833Y50069D01*
X68266D01*
X68700Y50502D01*
Y51802D01*
X169400Y131000D02*
X171999D01*
Y129700D01*
X171566Y129267D01*
X170700D01*
X170266Y129700D01*
Y131000D01*
X171999Y128401D02*
Y126668D01*
X171566D01*
X169833Y128401D01*
X169400D01*
X153200Y80599D02*
Y80166D01*
X154066Y79300D01*
X154933Y80166D01*
Y80599D01*
X154066Y79300D02*
Y78000D01*
X157532D02*
X155799D01*
X157532Y79733D01*
Y80166D01*
X157099Y80599D01*
X156232D01*
X155799Y80166D01*
X179333Y88766D02*
X178900Y89199D01*
X178033D01*
X177600Y88766D01*
Y87033D01*
X178033Y86600D01*
X178900D01*
X179333Y87033D01*
X181499Y89199D02*
X180632D01*
X180199Y88766D01*
Y87033D01*
X180632Y86600D01*
X181499D01*
X181932Y87033D01*
Y88766D01*
X181499Y89199D01*
X182798Y86600D02*
X183665D01*
X183231D01*
Y89199D01*
X182798Y88766D01*
X142166Y79767D02*
X142599Y80200D01*
Y81067D01*
X142166Y81500D01*
X140433D01*
X140000Y81067D01*
Y80200D01*
X140433Y79767D01*
X142166Y78901D02*
X142599Y78468D01*
Y77601D01*
X142166Y77168D01*
X141733D01*
X141300Y77601D01*
X140866Y77168D01*
X140433D01*
X140000Y77601D01*
Y78468D01*
X140433Y78901D01*
X140866D01*
X141300Y78468D01*
X141733Y78901D01*
X142166D01*
X141300Y78468D02*
Y77601D01*
X142166Y76302D02*
X142599Y75868D01*
Y75002D01*
X142166Y74569D01*
X140433D01*
X140000Y75002D01*
Y75868D01*
X140433Y76302D01*
X142166D01*
X161066Y84967D02*
X161499Y85400D01*
Y86267D01*
X161066Y86700D01*
X159333D01*
X158900Y86267D01*
Y85400D01*
X159333Y84967D01*
X161066Y84101D02*
X161499Y83668D01*
Y82801D01*
X161066Y82368D01*
X160633D01*
X160200Y82801D01*
X159766Y82368D01*
X159333D01*
X158900Y82801D01*
Y83668D01*
X159333Y84101D01*
X159766D01*
X160200Y83668D01*
X160633Y84101D01*
X161066D01*
X160200Y83668D02*
Y82801D01*
X158900Y81502D02*
Y80635D01*
Y81068D01*
X161499D01*
X161066Y81502D01*
X56300Y91399D02*
Y89233D01*
X56733Y88800D01*
X57600D01*
X58033Y89233D01*
Y91399D01*
X58899Y88800D02*
X59765D01*
X59332D01*
Y91399D01*
X58899Y90966D01*
X8200Y102100D02*
Y104699D01*
X9500D01*
X9933Y104266D01*
Y103400D01*
X9500Y102966D01*
X8200D01*
X10799Y102533D02*
X11232Y102100D01*
X12099D01*
X12532Y102533D01*
Y104266D01*
X12099Y104699D01*
X11232D01*
X10799Y104266D01*
Y103833D01*
X11232Y103400D01*
X12532D01*
X142733Y45966D02*
X142300Y46399D01*
X141433D01*
X141000Y45966D01*
Y44233D01*
X141433Y43800D01*
X142300D01*
X142733Y44233D01*
X145332Y46399D02*
X144466Y45966D01*
X143599Y45100D01*
Y44233D01*
X144032Y43800D01*
X144899D01*
X145332Y44233D01*
Y44666D01*
X144899Y45100D01*
X143599D01*
X147498Y43800D02*
Y46399D01*
X146198Y45100D01*
X147931D01*
X147433Y92166D02*
X147000Y92599D01*
X146133D01*
X145700Y92166D01*
Y90433D01*
X146133Y90000D01*
X147000D01*
X147433Y90433D01*
X148299Y92599D02*
X150032D01*
Y92166D01*
X148299Y90433D01*
Y90000D01*
X150898Y90433D02*
X151331Y90000D01*
X152198D01*
X152631Y90433D01*
Y92166D01*
X152198Y92599D01*
X151331D01*
X150898Y92166D01*
Y91733D01*
X151331Y91300D01*
X152631D01*
X121733Y131266D02*
X121300Y131699D01*
X120433D01*
X120000Y131266D01*
Y129533D01*
X120433Y129100D01*
X121300D01*
X121733Y129533D01*
X122599Y131266D02*
X123032Y131699D01*
X123899D01*
X124332Y131266D01*
Y130833D01*
X123899Y130400D01*
X124332Y129966D01*
Y129533D01*
X123899Y129100D01*
X123032D01*
X122599Y129533D01*
Y129966D01*
X123032Y130400D01*
X122599Y130833D01*
Y131266D01*
X123032Y130400D02*
X123899D01*
X126931Y129100D02*
X125198D01*
X126931Y130833D01*
Y131266D01*
X126498Y131699D01*
X125631D01*
X125198Y131266D01*
X152066Y119767D02*
X152499Y120200D01*
Y121067D01*
X152066Y121500D01*
X150333D01*
X149900Y121067D01*
Y120200D01*
X150333Y119767D01*
X152066Y118901D02*
X152499Y118468D01*
Y117601D01*
X152066Y117168D01*
X151633D01*
X151200Y117601D01*
X150766Y117168D01*
X150333D01*
X149900Y117601D01*
Y118468D01*
X150333Y118901D01*
X150766D01*
X151200Y118468D01*
X151633Y118901D01*
X152066D01*
X151200Y118468D02*
Y117601D01*
X152066Y116302D02*
X152499Y115868D01*
Y115002D01*
X152066Y114569D01*
X151633D01*
X151200Y115002D01*
Y115435D01*
Y115002D01*
X150766Y114569D01*
X150333D01*
X149900Y115002D01*
Y115868D01*
X150333Y116302D01*
X152366Y112667D02*
X152799Y113100D01*
Y113967D01*
X152366Y114400D01*
X150633D01*
X150200Y113967D01*
Y113100D01*
X150633Y112667D01*
X152366Y111801D02*
X152799Y111368D01*
Y110501D01*
X152366Y110068D01*
X151933D01*
X151500Y110501D01*
X151066Y110068D01*
X150633D01*
X150200Y110501D01*
Y111368D01*
X150633Y111801D01*
X151066D01*
X151500Y111368D01*
X151933Y111801D01*
X152366D01*
X151500Y111368D02*
Y110501D01*
X150200Y107902D02*
X152799D01*
X151500Y109202D01*
Y107469D01*
X92766Y132267D02*
X93199Y132700D01*
Y133567D01*
X92766Y134000D01*
X91033D01*
X90600Y133567D01*
Y132700D01*
X91033Y132267D01*
X92766Y131401D02*
X93199Y130968D01*
Y130101D01*
X92766Y129668D01*
X92333D01*
X91900Y130101D01*
X91466Y129668D01*
X91033D01*
X90600Y130101D01*
Y130968D01*
X91033Y131401D01*
X91466D01*
X91900Y130968D01*
X92333Y131401D01*
X92766D01*
X91900Y130968D02*
Y130101D01*
X93199Y127069D02*
Y128802D01*
X91900D01*
X92333Y127935D01*
Y127502D01*
X91900Y127069D01*
X91033D01*
X90600Y127502D01*
Y128368D01*
X91033Y128802D01*
X174566Y106567D02*
X174999Y107000D01*
Y107867D01*
X174566Y108300D01*
X172833D01*
X172400Y107867D01*
Y107000D01*
X172833Y106567D01*
X174566Y105701D02*
X174999Y105268D01*
Y104401D01*
X174566Y103968D01*
X174133D01*
X173700Y104401D01*
X173266Y103968D01*
X172833D01*
X172400Y104401D01*
Y105268D01*
X172833Y105701D01*
X173266D01*
X173700Y105268D01*
X174133Y105701D01*
X174566D01*
X173700Y105268D02*
Y104401D01*
X172833Y103102D02*
X172400Y102668D01*
Y101802D01*
X172833Y101369D01*
X174566D01*
X174999Y101802D01*
Y102668D01*
X174566Y103102D01*
X174133D01*
X173700Y102668D01*
Y101369D01*
X161466Y94067D02*
X161899Y94500D01*
Y95367D01*
X161466Y95800D01*
X159733D01*
X159300Y95367D01*
Y94500D01*
X159733Y94067D01*
X161466Y93201D02*
X161899Y92768D01*
Y91901D01*
X161466Y91468D01*
X161033D01*
X160600Y91901D01*
X160166Y91468D01*
X159733D01*
X159300Y91901D01*
Y92768D01*
X159733Y93201D01*
X160166D01*
X160600Y92768D01*
X161033Y93201D01*
X161466D01*
X160600Y92768D02*
Y91901D01*
X161466Y90602D02*
X161899Y90168D01*
Y89302D01*
X161466Y88869D01*
X161033D01*
X160600Y89302D01*
X160166Y88869D01*
X159733D01*
X159300Y89302D01*
Y90168D01*
X159733Y90602D01*
X160166D01*
X160600Y90168D01*
X161033Y90602D01*
X161466D01*
X160600Y90168D02*
Y89302D01*
X123166Y30967D02*
X123599Y31400D01*
Y32267D01*
X123166Y32700D01*
X121433D01*
X121000Y32267D01*
Y31400D01*
X121433Y30967D01*
X123599Y28368D02*
X123166Y29234D01*
X122300Y30101D01*
X121433D01*
X121000Y29668D01*
Y28801D01*
X121433Y28368D01*
X121866D01*
X122300Y28801D01*
Y30101D01*
X121000Y27502D02*
Y26635D01*
Y27068D01*
X123599D01*
X123166Y27502D01*
X119266Y97167D02*
X119699Y97600D01*
Y98467D01*
X119266Y98900D01*
X117533D01*
X117100Y98467D01*
Y97600D01*
X117533Y97167D01*
X119699Y96301D02*
Y94568D01*
X119266D01*
X117533Y96301D01*
X117100D01*
X119266Y93702D02*
X119699Y93269D01*
Y92402D01*
X119266Y91969D01*
X118833D01*
X118400Y92402D01*
Y92835D01*
Y92402D01*
X117966Y91969D01*
X117533D01*
X117100Y92402D01*
Y93269D01*
X117533Y93702D01*
X104533Y112866D02*
X104100Y113299D01*
X103233D01*
X102800Y112866D01*
Y111133D01*
X103233Y110700D01*
X104100D01*
X104533Y111133D01*
X105399Y113299D02*
X107132D01*
Y112866D01*
X105399Y111133D01*
Y110700D01*
X109731Y113299D02*
X107998D01*
Y112000D01*
X108865Y112433D01*
X109298D01*
X109731Y112000D01*
Y111133D01*
X109298Y110700D01*
X108431D01*
X107998Y111133D01*
X137466Y90467D02*
X137899Y90900D01*
Y91767D01*
X137466Y92200D01*
X135733D01*
X135300Y91767D01*
Y90900D01*
X135733Y90467D01*
X137899Y89601D02*
Y87868D01*
X137466D01*
X135733Y89601D01*
X135300D01*
X137899Y87002D02*
Y85269D01*
X137466D01*
X135733Y87002D01*
X135300D01*
X107933Y122766D02*
X107500Y123199D01*
X106633D01*
X106200Y122766D01*
Y121033D01*
X106633Y120600D01*
X107500D01*
X107933Y121033D01*
X108799Y123199D02*
X110532D01*
Y122766D01*
X108799Y121033D01*
Y120600D01*
X111398Y122766D02*
X111831Y123199D01*
X112698D01*
X113131Y122766D01*
Y122333D01*
X112698Y121900D01*
X113131Y121466D01*
Y121033D01*
X112698Y120600D01*
X111831D01*
X111398Y121033D01*
Y121466D01*
X111831Y121900D01*
X111398Y122333D01*
Y122766D01*
X111831Y121900D02*
X112698D01*
X146333Y77466D02*
X145900Y77899D01*
X145033D01*
X144600Y77466D01*
Y75733D01*
X145033Y75300D01*
X145900D01*
X146333Y75733D01*
X148932Y77899D02*
X148066Y77466D01*
X147199Y76600D01*
Y75733D01*
X147632Y75300D01*
X148499D01*
X148932Y75733D01*
Y76166D01*
X148499Y76600D01*
X147199D01*
X151531Y77899D02*
X149798D01*
Y76600D01*
X150665Y77033D01*
X151098D01*
X151531Y76600D01*
Y75733D01*
X151098Y75300D01*
X150232D01*
X149798Y75733D01*
X157866Y68267D02*
X158299Y68700D01*
Y69567D01*
X157866Y70000D01*
X156133D01*
X155700Y69567D01*
Y68700D01*
X156133Y68267D01*
X158299Y65668D02*
X157866Y66535D01*
X157000Y67401D01*
X156133D01*
X155700Y66968D01*
Y66101D01*
X156133Y65668D01*
X156566D01*
X157000Y66101D01*
Y67401D01*
X158299Y63069D02*
X157866Y63935D01*
X157000Y64802D01*
X156133D01*
X155700Y64368D01*
Y63502D01*
X156133Y63069D01*
X156566D01*
X157000Y63502D01*
Y64802D01*
X109133Y40966D02*
X108700Y41399D01*
X107833D01*
X107400Y40966D01*
Y39233D01*
X107833Y38800D01*
X108700D01*
X109133Y39233D01*
X111732Y41399D02*
X110866Y40966D01*
X109999Y40100D01*
Y39233D01*
X110432Y38800D01*
X111299D01*
X111732Y39233D01*
Y39666D01*
X111299Y40100D01*
X109999D01*
X112598Y40966D02*
X113031Y41399D01*
X113898D01*
X114331Y40966D01*
Y39233D01*
X113898Y38800D01*
X113031D01*
X112598Y39233D01*
Y40966D01*
X124033Y53366D02*
X123600Y53799D01*
X122733D01*
X122300Y53366D01*
Y51633D01*
X122733Y51200D01*
X123600D01*
X124033Y51633D01*
X126632Y53799D02*
X125766Y53366D01*
X124899Y52500D01*
Y51633D01*
X125332Y51200D01*
X126199D01*
X126632Y51633D01*
Y52066D01*
X126199Y52500D01*
X124899D01*
X127498Y53799D02*
X129231D01*
Y53366D01*
X127498Y51633D01*
Y51200D01*
X110799Y96867D02*
Y98600D01*
X109500D01*
Y97734D01*
Y98600D01*
X108200D01*
X110799Y96001D02*
X108200D01*
Y94701D01*
X108633Y94268D01*
X109066D01*
X109500Y94701D01*
Y96001D01*
Y94701D01*
X109933Y94268D01*
X110366D01*
X110799Y94701D01*
Y96001D01*
X108200Y93402D02*
Y92535D01*
Y92968D01*
X110799D01*
X110366Y93402D01*
X114600Y111199D02*
Y108600D01*
X116333D01*
X117199Y110766D02*
X117632Y111199D01*
X118499D01*
X118932Y110766D01*
Y110333D01*
X118499Y109900D01*
X118066D01*
X118499D01*
X118932Y109466D01*
Y109033D01*
X118499Y108600D01*
X117632D01*
X117199Y109033D01*
X9500Y125900D02*
Y128499D01*
X10800D01*
X11233Y128066D01*
Y127200D01*
X10800Y126766D01*
X9500D01*
X12099Y125900D02*
X12966D01*
X12532D01*
Y128499D01*
X12099Y128066D01*
X14265D02*
X14698Y128499D01*
X15565D01*
X15998Y128066D01*
Y126333D01*
X15565Y125900D01*
X14698D01*
X14265Y126333D01*
Y128066D01*
X7200Y131400D02*
Y133999D01*
X8500D01*
X8933Y133566D01*
Y132700D01*
X8500Y132266D01*
X7200D01*
X9799Y131400D02*
X10666D01*
X10232D01*
Y133999D01*
X9799Y133566D01*
X11965D02*
X12398Y133999D01*
X13265D01*
X13698Y133566D01*
Y133133D01*
X13265Y132700D01*
X12832D01*
X13265D01*
X13698Y132266D01*
Y131833D01*
X13265Y131400D01*
X12398D01*
X11965Y131833D01*
X8400Y52500D02*
Y55099D01*
X9700D01*
X10133Y54666D01*
Y53800D01*
X9700Y53366D01*
X8400D01*
X10999Y54666D02*
X11432Y55099D01*
X12299D01*
X12732Y54666D01*
Y54233D01*
X12299Y53800D01*
X12732Y53366D01*
Y52933D01*
X12299Y52500D01*
X11432D01*
X10999Y52933D01*
Y53366D01*
X11432Y53800D01*
X10999Y54233D01*
Y54666D01*
X11432Y53800D02*
X12299D01*
X24100Y12400D02*
X26699D01*
Y11100D01*
X26266Y10667D01*
X25400D01*
X24966Y11100D01*
Y12400D01*
X26266Y9801D02*
X26699Y9368D01*
Y8501D01*
X26266Y8068D01*
X25833D01*
X25400Y8501D01*
Y8934D01*
Y8501D01*
X24966Y8068D01*
X24533D01*
X24100Y8501D01*
Y9368D01*
X24533Y9801D01*
X96333Y127133D02*
Y128866D01*
X95900Y129299D01*
X95033D01*
X94600Y128866D01*
Y127133D01*
X95033Y126700D01*
X95900D01*
X95466Y127566D02*
X96333Y126700D01*
X95900D02*
X96333Y127133D01*
X98932Y126700D02*
X97199D01*
X98932Y128433D01*
Y128866D01*
X98499Y129299D01*
X97632D01*
X97199Y128866D01*
X99798D02*
X100232Y129299D01*
X101098D01*
X101531Y128866D01*
Y128433D01*
X101098Y128000D01*
X101531Y127566D01*
Y127133D01*
X101098Y126700D01*
X100232D01*
X99798Y127133D01*
Y127566D01*
X100232Y128000D01*
X99798Y128433D01*
Y128866D01*
X100232Y128000D02*
X101098D01*
X109700Y26500D02*
X112299D01*
Y25200D01*
X111866Y24767D01*
X111000D01*
X110566Y25200D01*
Y26500D01*
Y25634D02*
X109700Y24767D01*
X110133Y23901D02*
X109700Y23468D01*
Y22601D01*
X110133Y22168D01*
X111866D01*
X112299Y22601D01*
Y23468D01*
X111866Y23901D01*
X111433D01*
X111000Y23468D01*
Y22168D01*
X109700Y19569D02*
Y21302D01*
X111433Y19569D01*
X111866D01*
X112299Y20002D01*
Y20868D01*
X111866Y21302D01*
X58200Y175100D02*
Y177699D01*
X59500D01*
X59933Y177266D01*
Y176400D01*
X59500Y175966D01*
X58200D01*
X59066D02*
X59933Y175100D01*
X62099D02*
Y177699D01*
X60799Y176400D01*
X62532D01*
X65131Y175100D02*
X63398D01*
X65131Y176833D01*
Y177266D01*
X64698Y177699D01*
X63832D01*
X63398Y177266D01*
X156900Y165000D02*
Y167599D01*
X158200D01*
X158633Y167166D01*
Y166300D01*
X158200Y165866D01*
X156900D01*
X157766D02*
X158633Y165000D01*
X160799D02*
Y167599D01*
X159499Y166300D01*
X161232D01*
X163831Y167599D02*
X162965Y167166D01*
X162098Y166300D01*
Y165433D01*
X162531Y165000D01*
X163398D01*
X163831Y165433D01*
Y165866D01*
X163398Y166300D01*
X162098D01*
X56200Y159800D02*
X58799D01*
Y158500D01*
X58366Y158067D01*
X57500D01*
X57066Y158500D01*
Y159800D01*
Y158934D02*
X56200Y158067D01*
Y155901D02*
X58799D01*
X57500Y157201D01*
Y155468D01*
X58799Y154602D02*
Y152869D01*
X58366D01*
X56633Y154602D01*
X56200D01*
X53100Y25400D02*
X55699D01*
Y24100D01*
X55266Y23667D01*
X54400D01*
X53966Y24100D01*
Y25400D01*
Y24534D02*
X53100Y23667D01*
Y22801D02*
Y21935D01*
Y22368D01*
X55699D01*
X55266Y22801D01*
X53100Y20635D02*
Y19769D01*
Y20202D01*
X55699D01*
X55266Y20635D01*
Y18469D02*
X55699Y18036D01*
Y17169D01*
X55266Y16736D01*
X53533D01*
X53100Y17169D01*
Y18036D01*
X53533Y18469D01*
X55266D01*
X107400Y127200D02*
Y129799D01*
X108700D01*
X109133Y129366D01*
Y128500D01*
X108700Y128066D01*
X107400D01*
X108266D02*
X109133Y127200D01*
X109999Y127633D02*
X110432Y127200D01*
X111299D01*
X111732Y127633D01*
Y129366D01*
X111299Y129799D01*
X110432D01*
X109999Y129366D01*
Y128933D01*
X110432Y128500D01*
X111732D01*
X112598Y129799D02*
X114331D01*
Y129366D01*
X112598Y127633D01*
Y127200D01*
X82900Y49700D02*
Y52299D01*
X84200D01*
X84633Y51866D01*
Y51000D01*
X84200Y50566D01*
X82900D01*
X83766D02*
X84633Y49700D01*
X85499Y50133D02*
X85932Y49700D01*
X86799D01*
X87232Y50133D01*
Y51866D01*
X86799Y52299D01*
X85932D01*
X85499Y51866D01*
Y51433D01*
X85932Y51000D01*
X87232D01*
X88098Y51866D02*
X88532Y52299D01*
X89398D01*
X89831Y51866D01*
Y50133D01*
X89398Y49700D01*
X88532D01*
X88098Y50133D01*
Y51866D01*
X137400Y72999D02*
Y70833D01*
X137833Y70400D01*
X138700D01*
X139133Y70833D01*
Y72999D01*
X139999Y70400D02*
X140866D01*
X140432D01*
Y72999D01*
X139999Y72566D01*
X143898Y72999D02*
X142165D01*
Y71700D01*
X143032Y72133D01*
X143465D01*
X143898Y71700D01*
Y70833D01*
X143465Y70400D01*
X142598D01*
X142165Y70833D01*
X169299Y114100D02*
X168866D01*
X168000Y113234D01*
X168866Y112367D01*
X169299D01*
X168000Y113234D02*
X166700D01*
Y111501D02*
Y110634D01*
Y111068D01*
X169299D01*
X168866Y111501D01*
X40533Y29066D02*
X40100Y29499D01*
X39233D01*
X38800Y29066D01*
Y27333D01*
X39233Y26900D01*
X40100D01*
X40533Y27333D01*
X41399Y26900D02*
X42266D01*
X41832D01*
Y29499D01*
X41399Y29066D01*
X43565D02*
X43998Y29499D01*
X44865D01*
X45298Y29066D01*
Y27333D01*
X44865Y26900D01*
X43998D01*
X43565Y27333D01*
Y29066D01*
X46164D02*
X46597Y29499D01*
X47464D01*
X47897Y29066D01*
Y28633D01*
X47464Y28200D01*
X47897Y27766D01*
Y27333D01*
X47464Y26900D01*
X46597D01*
X46164Y27333D01*
Y27766D01*
X46597Y28200D01*
X46164Y28633D01*
Y29066D01*
X46597Y28200D02*
X47464D01*
X191066Y106767D02*
X191499Y107200D01*
Y108067D01*
X191066Y108500D01*
X189333D01*
X188900Y108067D01*
Y107200D01*
X189333Y106767D01*
Y105901D02*
X188900Y105468D01*
Y104601D01*
X189333Y104168D01*
X191066D01*
X191499Y104601D01*
Y105468D01*
X191066Y105901D01*
X190633D01*
X190200Y105468D01*
Y104168D01*
X188900Y103302D02*
Y102435D01*
Y102868D01*
X191499D01*
X191066Y103302D01*
X146733Y106666D02*
X146300Y107099D01*
X145433D01*
X145000Y106666D01*
Y104933D01*
X145433Y104500D01*
X146300D01*
X146733Y104933D01*
X147599D02*
X148032Y104500D01*
X148899D01*
X149332Y104933D01*
Y106666D01*
X148899Y107099D01*
X148032D01*
X147599Y106666D01*
Y106233D01*
X148032Y105800D01*
X149332D01*
X150198Y106666D02*
X150631Y107099D01*
X151498D01*
X151931Y106666D01*
Y104933D01*
X151498Y104500D01*
X150631D01*
X150198Y104933D01*
Y106666D01*
X156599Y92900D02*
X154000D01*
Y91167D01*
Y89001D02*
X156599D01*
X155300Y90301D01*
Y88568D01*
X162300Y105299D02*
Y102700D01*
X164033D01*
X166632Y105299D02*
X164899D01*
Y104000D01*
X165766Y104433D01*
X166199D01*
X166632Y104000D01*
Y103133D01*
X166199Y102700D01*
X165332D01*
X164899Y103133D01*
X167900Y91499D02*
Y88900D01*
X169633D01*
X172232Y91499D02*
X171366Y91066D01*
X170499Y90200D01*
Y89333D01*
X170932Y88900D01*
X171799D01*
X172232Y89333D01*
Y89766D01*
X171799Y90200D01*
X170499D01*
X156800Y106999D02*
Y104400D01*
X158533D01*
X159399Y106999D02*
X161132D01*
Y106566D01*
X159399Y104833D01*
Y104400D01*
X138166Y80667D02*
X138599Y81100D01*
Y81967D01*
X138166Y82400D01*
X136433D01*
X136000Y81967D01*
Y81100D01*
X136433Y80667D01*
X138599Y79801D02*
Y78068D01*
X138166D01*
X136433Y79801D01*
X136000D01*
Y77202D02*
Y76335D01*
Y76768D01*
X138599D01*
X138166Y77202D01*
X110033Y90866D02*
X109600Y91299D01*
X108733D01*
X108300Y90866D01*
Y89133D01*
X108733Y88700D01*
X109600D01*
X110033Y89133D01*
X110899Y91299D02*
X112632D01*
Y90866D01*
X110899Y89133D01*
Y88700D01*
X115231D02*
X113498D01*
X115231Y90433D01*
Y90866D01*
X114798Y91299D01*
X113932D01*
X113498Y90866D01*
X129633Y131266D02*
X129200Y131699D01*
X128333D01*
X127900Y131266D01*
Y129533D01*
X128333Y129100D01*
X129200D01*
X129633Y129533D01*
X130499Y131699D02*
X132232D01*
Y131266D01*
X130499Y129533D01*
Y129100D01*
X134831Y131699D02*
X133965Y131266D01*
X133098Y130400D01*
Y129533D01*
X133531Y129100D01*
X134398D01*
X134831Y129533D01*
Y129966D01*
X134398Y130400D01*
X133098D01*
X8500Y198200D02*
Y200799D01*
X9800D01*
X10233Y200366D01*
Y199500D01*
X9800Y199066D01*
X8500D01*
X11099Y198200D02*
X11966D01*
X11532D01*
Y200799D01*
X11099Y200366D01*
X14565Y198200D02*
Y200799D01*
X13265Y199500D01*
X14998D01*
X134095Y120999D02*
Y118833D01*
X134528Y118400D01*
X135394D01*
X135827Y118833D01*
Y120999D01*
X138426Y118400D02*
X136694D01*
X138426Y120133D01*
Y120566D01*
X137993Y120999D01*
X137127D01*
X136694Y120566D01*
X101333Y38533D02*
Y40266D01*
X100900Y40699D01*
X100033D01*
X99600Y40266D01*
Y38533D01*
X100033Y38100D01*
X100900D01*
X100466Y38966D02*
X101333Y38100D01*
X100900D02*
X101333Y38533D01*
X103932Y38100D02*
X102199D01*
X103932Y39833D01*
Y40266D01*
X103499Y40699D01*
X102632D01*
X102199Y40266D01*
X104798Y40699D02*
X106531D01*
Y40266D01*
X104798Y38533D01*
Y38100D01*
X95944Y44900D02*
X98543D01*
Y43600D01*
X98110Y43167D01*
X97244D01*
X96811Y43600D01*
Y44900D01*
Y44034D02*
X95944Y43167D01*
X96377Y42301D02*
X95944Y41868D01*
Y41001D01*
X96377Y40568D01*
X98110D01*
X98543Y41001D01*
Y41868D01*
X98110Y42301D01*
X97677D01*
X97244Y41868D01*
Y40568D01*
X98110Y39702D02*
X98543Y39268D01*
Y38402D01*
X98110Y37969D01*
X97677D01*
X97244Y38402D01*
Y38835D01*
Y38402D01*
X96811Y37969D01*
X96377D01*
X95944Y38402D01*
Y39268D01*
X96377Y39702D01*
X141966Y37967D02*
X142399Y38400D01*
Y39267D01*
X141966Y39700D01*
X140233D01*
X139800Y39267D01*
Y38400D01*
X140233Y37967D01*
X142399Y35368D02*
Y37101D01*
X141100D01*
X141533Y36234D01*
Y35801D01*
X141100Y35368D01*
X140233D01*
X139800Y35801D01*
Y36668D01*
X140233Y37101D01*
X141966Y34502D02*
X142399Y34069D01*
Y33202D01*
X141966Y32769D01*
X141533D01*
X141100Y33202D01*
X140666Y32769D01*
X140233D01*
X139800Y33202D01*
Y34069D01*
X140233Y34502D01*
X140666D01*
X141100Y34069D01*
X141533Y34502D01*
X141966D01*
X141100Y34069D02*
Y33202D01*
X114600Y22699D02*
Y20100D01*
X115900D01*
X116333Y20533D01*
Y22266D01*
X115900Y22699D01*
X114600D01*
X117199Y22266D02*
X117632Y22699D01*
X118499D01*
X118932Y22266D01*
Y21833D01*
X118499Y21400D01*
X118066D01*
X118499D01*
X118932Y20966D01*
Y20533D01*
X118499Y20100D01*
X117632D01*
X117199Y20533D01*
X121531Y22699D02*
X120665Y22266D01*
X119798Y21400D01*
Y20533D01*
X120231Y20100D01*
X121098D01*
X121531Y20533D01*
Y20966D01*
X121098Y21400D01*
X119798D01*
X130200Y58600D02*
X132799D01*
Y57300D01*
X132366Y56867D01*
X131500D01*
X131066Y57300D01*
Y58600D01*
Y57734D02*
X130200Y56867D01*
X132366Y56001D02*
X132799Y55568D01*
Y54701D01*
X132366Y54268D01*
X131933D01*
X131500Y54701D01*
X131066Y54268D01*
X130633D01*
X130200Y54701D01*
Y55568D01*
X130633Y56001D01*
X131066D01*
X131500Y55568D01*
X131933Y56001D01*
X132366D01*
X131500Y55568D02*
Y54701D01*
X130633Y53402D02*
X130200Y52969D01*
Y52102D01*
X130633Y51669D01*
X132366D01*
X132799Y52102D01*
Y52969D01*
X132366Y53402D01*
X131933D01*
X131500Y52969D01*
Y51669D01*
X133000Y28700D02*
Y31299D01*
X134300D01*
X134733Y30866D01*
Y30000D01*
X134300Y29566D01*
X133000D01*
X133866D02*
X134733Y28700D01*
X135599Y30866D02*
X136032Y31299D01*
X136899D01*
X137332Y30866D01*
Y30433D01*
X136899Y30000D01*
X137332Y29566D01*
Y29133D01*
X136899Y28700D01*
X136032D01*
X135599Y29133D01*
Y29566D01*
X136032Y30000D01*
X135599Y30433D01*
Y30866D01*
X136032Y30000D02*
X136899D01*
X138198Y30866D02*
X138631Y31299D01*
X139498D01*
X139931Y30866D01*
Y30433D01*
X139498Y30000D01*
X139931Y29566D01*
Y29133D01*
X139498Y28700D01*
X138631D01*
X138198Y29133D01*
Y29566D01*
X138631Y30000D01*
X138198Y30433D01*
Y30866D01*
X138631Y30000D02*
X139498D01*
X83133Y26266D02*
X82700Y26699D01*
X81833D01*
X81400Y26266D01*
Y24533D01*
X81833Y24100D01*
X82700D01*
X83133Y24533D01*
X85732Y26699D02*
X83999D01*
Y25400D01*
X84865Y25833D01*
X85299D01*
X85732Y25400D01*
Y24533D01*
X85299Y24100D01*
X84432D01*
X83999Y24533D01*
X86598D02*
X87032Y24100D01*
X87898D01*
X88331Y24533D01*
Y26266D01*
X87898Y26699D01*
X87032D01*
X86598Y26266D01*
Y25833D01*
X87032Y25400D01*
X88331D01*
X47300Y25600D02*
X49899D01*
Y24300D01*
X49466Y23867D01*
X48600D01*
X48166Y24300D01*
Y25600D01*
Y24734D02*
X47300Y23867D01*
Y23001D02*
Y22135D01*
Y22568D01*
X49899D01*
X49466Y23001D01*
X47300Y20835D02*
Y19969D01*
Y20402D01*
X49899D01*
X49466Y20835D01*
X47300Y18669D02*
Y17803D01*
Y18236D01*
X49899D01*
X49466Y18669D01*
X25900Y85800D02*
X28499D01*
Y84500D01*
X28066Y84067D01*
X27200D01*
X26766Y84500D01*
Y85800D01*
Y84934D02*
X25900Y84067D01*
Y83201D02*
Y82335D01*
Y82768D01*
X28499D01*
X28066Y83201D01*
X25900Y81035D02*
Y80168D01*
Y80602D01*
X28499D01*
X28066Y81035D01*
X25900Y77569D02*
X28499D01*
X27200Y78869D01*
Y77136D01*
X75600Y54399D02*
Y52233D01*
X76033Y51800D01*
X76900D01*
X77333Y52233D01*
Y54399D01*
X78199Y51800D02*
X79066D01*
X78632D01*
Y54399D01*
X78199Y53966D01*
X82098Y51800D02*
X80365D01*
X82098Y53533D01*
Y53966D01*
X81665Y54399D01*
X80798D01*
X80365Y53966D01*
X118566Y46667D02*
X118999Y47100D01*
Y47967D01*
X118566Y48400D01*
X116833D01*
X116400Y47967D01*
Y47100D01*
X116833Y46667D01*
X118999Y44068D02*
Y45801D01*
X117700D01*
X118133Y44934D01*
Y44501D01*
X117700Y44068D01*
X116833D01*
X116400Y44501D01*
Y45368D01*
X116833Y45801D01*
X118999Y41469D02*
Y43202D01*
X117700D01*
X118133Y42335D01*
Y41902D01*
X117700Y41469D01*
X116833D01*
X116400Y41902D01*
Y42768D01*
X116833Y43202D01*
X126100Y20100D02*
Y22699D01*
X127400D01*
X127833Y22266D01*
Y21400D01*
X127400Y20966D01*
X126100D01*
X126966D02*
X127833Y20100D01*
X128699Y20533D02*
X129132Y20100D01*
X129999D01*
X130432Y20533D01*
Y22266D01*
X129999Y22699D01*
X129132D01*
X128699Y22266D01*
Y21833D01*
X129132Y21400D01*
X130432D01*
X131298Y20100D02*
X132165D01*
X131731D01*
Y22699D01*
X131298Y22266D01*
X84400Y37000D02*
X86999D01*
Y35700D01*
X86566Y35267D01*
X85700D01*
X85266Y35700D01*
Y37000D01*
Y36134D02*
X84400Y35267D01*
X84833Y34401D02*
X84400Y33968D01*
Y33101D01*
X84833Y32668D01*
X86566D01*
X86999Y33101D01*
Y33968D01*
X86566Y34401D01*
X86133D01*
X85700Y33968D01*
Y32668D01*
X84400Y30502D02*
X86999D01*
X85700Y31802D01*
Y30069D01*
X91100Y111500D02*
Y114099D01*
X92400D01*
X92833Y113666D01*
Y112800D01*
X92400Y112366D01*
X91100D01*
X91966D02*
X92833Y111500D01*
X93699Y111933D02*
X94132Y111500D01*
X94999D01*
X95432Y111933D01*
Y113666D01*
X94999Y114099D01*
X94132D01*
X93699Y113666D01*
Y113233D01*
X94132Y112800D01*
X95432D01*
X96298Y113666D02*
X96732Y114099D01*
X97598D01*
X98031Y113666D01*
Y113233D01*
X97598Y112800D01*
X98031Y112366D01*
Y111933D01*
X97598Y111500D01*
X96732D01*
X96298Y111933D01*
Y112366D01*
X96732Y112800D01*
X96298Y113233D01*
Y113666D01*
X96732Y112800D02*
X97598D01*
X140366Y52867D02*
X140799Y53300D01*
Y54167D01*
X140366Y54600D01*
X138633D01*
X138200Y54167D01*
Y53300D01*
X138633Y52867D01*
X140799Y50268D02*
X140366Y51134D01*
X139500Y52001D01*
X138633D01*
X138200Y51568D01*
Y50701D01*
X138633Y50268D01*
X139066D01*
X139500Y50701D01*
Y52001D01*
X140366Y49402D02*
X140799Y48968D01*
Y48102D01*
X140366Y47669D01*
X139933D01*
X139500Y48102D01*
X139066Y47669D01*
X138633D01*
X138200Y48102D01*
Y48968D01*
X138633Y49402D01*
X139066D01*
X139500Y48968D01*
X139933Y49402D01*
X140366D01*
X139500Y48968D02*
Y48102D01*
X62500Y46500D02*
X65099D01*
Y45200D01*
X64666Y44767D01*
X63800D01*
X63366Y45200D01*
Y46500D01*
Y45634D02*
X62500Y44767D01*
X64666Y43901D02*
X65099Y43468D01*
Y42601D01*
X64666Y42168D01*
X64233D01*
X63800Y42601D01*
X63366Y42168D01*
X62933D01*
X62500Y42601D01*
Y43468D01*
X62933Y43901D01*
X63366D01*
X63800Y43468D01*
X64233Y43901D01*
X64666D01*
X63800Y43468D02*
Y42601D01*
X65099Y41302D02*
Y39569D01*
X64666D01*
X62933Y41302D01*
X62500D01*
X47166Y196667D02*
X47599Y197100D01*
Y197967D01*
X47166Y198400D01*
X45433D01*
X45000Y197967D01*
Y197100D01*
X45433Y196667D01*
Y195801D02*
X45000Y195368D01*
Y194501D01*
X45433Y194068D01*
X47166D01*
X47599Y194501D01*
Y195368D01*
X47166Y195801D01*
X46733D01*
X46300Y195368D01*
Y194068D01*
X45000Y191902D02*
X47599D01*
X46300Y193202D01*
Y191469D01*
X25383Y177079D02*
X24950Y177513D01*
X24084D01*
X23651Y177079D01*
Y175347D01*
X24084Y174913D01*
X24950D01*
X25383Y175347D01*
X26250D02*
X26683Y174913D01*
X27549D01*
X27983Y175347D01*
Y177079D01*
X27549Y177513D01*
X26683D01*
X26250Y177079D01*
Y176646D01*
X26683Y176213D01*
X27983D01*
X28849Y177079D02*
X29282Y177513D01*
X30149D01*
X30582Y177079D01*
Y176646D01*
X30149Y176213D01*
X29715D01*
X30149D01*
X30582Y175780D01*
Y175347D01*
X30149Y174913D01*
X29282D01*
X28849Y175347D01*
X52133Y205566D02*
X51700Y205999D01*
X50833D01*
X50400Y205566D01*
Y203833D01*
X50833Y203400D01*
X51700D01*
X52133Y203833D01*
X52999D02*
X53432Y203400D01*
X54299D01*
X54732Y203833D01*
Y205566D01*
X54299Y205999D01*
X53432D01*
X52999Y205566D01*
Y205133D01*
X53432Y204700D01*
X54732D01*
X57331Y205999D02*
X55598D01*
Y204700D01*
X56465Y205133D01*
X56898D01*
X57331Y204700D01*
Y203833D01*
X56898Y203400D01*
X56032D01*
X55598Y203833D01*
X27466Y161367D02*
X27899Y161800D01*
Y162667D01*
X27466Y163100D01*
X25733D01*
X25300Y162667D01*
Y161800D01*
X25733Y161367D01*
Y160501D02*
X25300Y160068D01*
Y159201D01*
X25733Y158768D01*
X27466D01*
X27899Y159201D01*
Y160068D01*
X27466Y160501D01*
X27033D01*
X26600Y160068D01*
Y158768D01*
X27899Y156169D02*
X27466Y157035D01*
X26600Y157902D01*
X25733D01*
X25300Y157468D01*
Y156602D01*
X25733Y156169D01*
X26166D01*
X26600Y156602D01*
Y157902D01*
X51933Y173566D02*
X51500Y173999D01*
X50633D01*
X50200Y173566D01*
Y171833D01*
X50633Y171400D01*
X51500D01*
X51933Y171833D01*
X52799D02*
X53232Y171400D01*
X54099D01*
X54532Y171833D01*
Y173566D01*
X54099Y173999D01*
X53232D01*
X52799Y173566D01*
Y173133D01*
X53232Y172700D01*
X54532D01*
X55398Y173999D02*
X57131D01*
Y173566D01*
X55398Y171833D01*
Y171400D01*
X22233Y169666D02*
X21800Y170099D01*
X20933D01*
X20500Y169666D01*
Y167933D01*
X20933Y167500D01*
X21800D01*
X22233Y167933D01*
X23099Y167500D02*
X23966D01*
X23532D01*
Y170099D01*
X23099Y169666D01*
X25265D02*
X25698Y170099D01*
X26565D01*
X26998Y169666D01*
Y167933D01*
X26565Y167500D01*
X25698D01*
X25265Y167933D01*
Y169666D01*
X27864D02*
X28297Y170099D01*
X29164D01*
X29597Y169666D01*
Y167933D01*
X29164Y167500D01*
X28297D01*
X27864Y167933D01*
Y169666D01*
X51266Y196467D02*
X51699Y196900D01*
Y197767D01*
X51266Y198200D01*
X49533D01*
X49100Y197767D01*
Y196900D01*
X49533Y196467D01*
Y195601D02*
X49100Y195168D01*
Y194301D01*
X49533Y193868D01*
X51266D01*
X51699Y194301D01*
Y195168D01*
X51266Y195601D01*
X50833D01*
X50400Y195168D01*
Y193868D01*
X49533Y193002D02*
X49100Y192569D01*
Y191702D01*
X49533Y191269D01*
X51266D01*
X51699Y191702D01*
Y192569D01*
X51266Y193002D01*
X50833D01*
X50400Y192569D01*
Y191269D01*
X51433Y177966D02*
X51000Y178399D01*
X50133D01*
X49700Y177966D01*
Y176233D01*
X50133Y175800D01*
X51000D01*
X51433Y176233D01*
X52299D02*
X52732Y175800D01*
X53599D01*
X54032Y176233D01*
Y177966D01*
X53599Y178399D01*
X52732D01*
X52299Y177966D01*
Y177533D01*
X52732Y177100D01*
X54032D01*
X54898Y177966D02*
X55331Y178399D01*
X56198D01*
X56631Y177966D01*
Y177533D01*
X56198Y177100D01*
X56631Y176666D01*
Y176233D01*
X56198Y175800D01*
X55331D01*
X54898Y176233D01*
Y176666D01*
X55331Y177100D01*
X54898Y177533D01*
Y177966D01*
X55331Y177100D02*
X56198D01*
X24800Y188699D02*
Y186100D01*
X26100D01*
X26533Y186533D01*
Y188266D01*
X26100Y188699D01*
X24800D01*
X27399Y188266D02*
X27832Y188699D01*
X28699D01*
X29132Y188266D01*
Y187833D01*
X28699Y187400D01*
X28266D01*
X28699D01*
X29132Y186966D01*
Y186533D01*
X28699Y186100D01*
X27832D01*
X27399Y186533D01*
X29998Y188699D02*
X31731D01*
Y188266D01*
X29998Y186533D01*
Y186100D01*
X50600Y188299D02*
Y185700D01*
X51900D01*
X52333Y186133D01*
Y187866D01*
X51900Y188299D01*
X50600D01*
X53199Y187866D02*
X53632Y188299D01*
X54499D01*
X54932Y187866D01*
Y187433D01*
X54499Y187000D01*
X54066D01*
X54499D01*
X54932Y186566D01*
Y186133D01*
X54499Y185700D01*
X53632D01*
X53199Y186133D01*
X55798Y187866D02*
X56231Y188299D01*
X57098D01*
X57531Y187866D01*
Y187433D01*
X57098Y187000D01*
X57531Y186566D01*
Y186133D01*
X57098Y185700D01*
X56231D01*
X55798Y186133D01*
Y186566D01*
X56231Y187000D01*
X55798Y187433D01*
Y187866D01*
X56231Y187000D02*
X57098D01*
X31399Y220567D02*
Y221434D01*
Y221000D01*
X29233D01*
X28800Y221434D01*
Y221867D01*
X29233Y222300D01*
X28800Y217968D02*
Y219701D01*
X30533Y217968D01*
X30966D01*
X31399Y218401D01*
Y219268D01*
X30966Y219701D01*
X59499Y201700D02*
X56900D01*
Y199967D01*
X59066Y199101D02*
X59499Y198668D01*
Y197801D01*
X59066Y197368D01*
X58633D01*
X58200Y197801D01*
X57766Y197368D01*
X57333D01*
X56900Y197801D01*
Y198668D01*
X57333Y199101D01*
X57766D01*
X58200Y198668D01*
X58633Y199101D01*
X59066D01*
X58200Y198668D02*
Y197801D01*
X7200Y174300D02*
Y176899D01*
X8500D01*
X8933Y176466D01*
Y175600D01*
X8500Y175166D01*
X7200D01*
X9799Y174300D02*
X10666D01*
X10232D01*
Y176899D01*
X9799Y176466D01*
X11965Y174300D02*
X12832D01*
X12398D01*
Y176899D01*
X11965Y176466D01*
X23533Y206433D02*
Y208166D01*
X23100Y208599D01*
X22233D01*
X21800Y208166D01*
Y206433D01*
X22233Y206000D01*
X23100D01*
X22666Y206866D02*
X23533Y206000D01*
X23100D02*
X23533Y206433D01*
X26132Y206000D02*
X24399D01*
X26132Y207733D01*
Y208166D01*
X25699Y208599D01*
X24832D01*
X24399Y208166D01*
X26998Y206433D02*
X27431Y206000D01*
X28298D01*
X28731Y206433D01*
Y208166D01*
X28298Y208599D01*
X27431D01*
X26998Y208166D01*
Y207733D01*
X27431Y207300D01*
X28731D01*
X49572Y167719D02*
Y170318D01*
X50872D01*
X51305Y169885D01*
Y169018D01*
X50872Y168585D01*
X49572D01*
X50439D02*
X51305Y167719D01*
X52171D02*
X53038D01*
X52605D01*
Y170318D01*
X52171Y169885D01*
X54338D02*
X54771Y170318D01*
X55637D01*
X56070Y169885D01*
Y168152D01*
X55637Y167719D01*
X54771D01*
X54338Y168152D01*
Y169885D01*
X56937D02*
X57370Y170318D01*
X58236D01*
X58669Y169885D01*
Y168152D01*
X58236Y167719D01*
X57370D01*
X56937Y168152D01*
Y169885D01*
X32000Y170900D02*
Y173499D01*
X33300D01*
X33733Y173066D01*
Y172200D01*
X33300Y171766D01*
X32000D01*
X32866D02*
X33733Y170900D01*
X34599D02*
X35466D01*
X35032D01*
Y173499D01*
X34599Y173066D01*
X36765D02*
X37198Y173499D01*
X38065D01*
X38498Y173066D01*
Y171333D01*
X38065Y170900D01*
X37198D01*
X36765Y171333D01*
Y173066D01*
X39364Y170900D02*
X40231D01*
X39797D01*
Y173499D01*
X39364Y173066D01*
X30500Y160600D02*
Y163199D01*
X31800D01*
X32233Y162766D01*
Y161900D01*
X31800Y161466D01*
X30500D01*
X31366D02*
X32233Y160600D01*
X33099D02*
X33966D01*
X33532D01*
Y163199D01*
X33099Y162766D01*
X35265D02*
X35698Y163199D01*
X36565D01*
X36998Y162766D01*
Y161033D01*
X36565Y160600D01*
X35698D01*
X35265Y161033D01*
Y162766D01*
X39597Y160600D02*
X37864D01*
X39597Y162333D01*
Y162766D01*
X39164Y163199D01*
X38298D01*
X37864Y162766D01*
X40300Y157199D02*
Y155033D01*
X40733Y154600D01*
X41600D01*
X42033Y155033D01*
Y157199D01*
X44632Y154600D02*
X42899D01*
X44632Y156333D01*
Y156766D01*
X44199Y157199D01*
X43332D01*
X42899Y156766D01*
X45498D02*
X45932Y157199D01*
X46798D01*
X47231Y156766D01*
Y155033D01*
X46798Y154600D01*
X45932D01*
X45498Y155033D01*
Y156766D01*
X73800Y37300D02*
X76399D01*
Y36000D01*
X75966Y35567D01*
X75100D01*
X74666Y36000D01*
Y37300D01*
Y36434D02*
X73800Y35567D01*
X74233Y34701D02*
X73800Y34268D01*
Y33401D01*
X74233Y32968D01*
X75966D01*
X76399Y33401D01*
Y34268D01*
X75966Y34701D01*
X75533D01*
X75100Y34268D01*
Y32968D01*
X76399Y30369D02*
Y32102D01*
X75100D01*
X75533Y31235D01*
Y30802D01*
X75100Y30369D01*
X74233D01*
X73800Y30802D01*
Y31668D01*
X74233Y32102D01*
X52000Y53699D02*
X53733Y51100D01*
Y53699D02*
X52000Y51100D01*
X56332D02*
X54599D01*
X56332Y52833D01*
Y53266D01*
X55899Y53699D01*
X55032D01*
X54599Y53266D01*
X108500Y76400D02*
Y78999D01*
X109800D01*
X110233Y78566D01*
Y77700D01*
X109800Y77266D01*
X108500D01*
X109366D02*
X110233Y76400D01*
X111099Y76833D02*
X111532Y76400D01*
X112399D01*
X112832Y76833D01*
Y78566D01*
X112399Y78999D01*
X111532D01*
X111099Y78566D01*
Y78133D01*
X111532Y77700D01*
X112832D01*
X115431Y78999D02*
X114565Y78566D01*
X113698Y77700D01*
Y76833D01*
X114131Y76400D01*
X114998D01*
X115431Y76833D01*
Y77266D01*
X114998Y77700D01*
X113698D01*
X71933Y22766D02*
X71500Y23199D01*
X70633D01*
X70200Y22766D01*
Y21033D01*
X70633Y20600D01*
X71500D01*
X71933Y21033D01*
X74532Y23199D02*
X73665Y22766D01*
X72799Y21900D01*
Y21033D01*
X73232Y20600D01*
X74099D01*
X74532Y21033D01*
Y21466D01*
X74099Y21900D01*
X72799D01*
X75398Y21033D02*
X75832Y20600D01*
X76698D01*
X77131Y21033D01*
Y22766D01*
X76698Y23199D01*
X75832D01*
X75398Y22766D01*
Y22333D01*
X75832Y21900D01*
X77131D01*
X59133Y20266D02*
X58700Y20699D01*
X57833D01*
X57400Y20266D01*
Y18533D01*
X57833Y18100D01*
X58700D01*
X59133Y18533D01*
X59999Y20699D02*
X61732D01*
Y20266D01*
X59999Y18533D01*
Y18100D01*
X62598Y20266D02*
X63032Y20699D01*
X63898D01*
X64331Y20266D01*
Y18533D01*
X63898Y18100D01*
X63032D01*
X62598Y18533D01*
Y20266D01*
X80900Y14600D02*
Y17199D01*
X82200D01*
X82633Y16766D01*
Y15900D01*
X82200Y15466D01*
X80900D01*
X85232Y17199D02*
X83499D01*
Y15900D01*
X84365Y16333D01*
X84799D01*
X85232Y15900D01*
Y15033D01*
X84799Y14600D01*
X83932D01*
X83499Y15033D01*
X37600Y50799D02*
X39333Y48200D01*
Y50799D02*
X37600Y48200D01*
X40199D02*
X41066D01*
X40632D01*
Y50799D01*
X40199Y50366D01*
X28766Y41567D02*
X29199Y42000D01*
Y42867D01*
X28766Y43300D01*
X27033D01*
X26600Y42867D01*
Y42000D01*
X27033Y41567D01*
X26600Y40701D02*
Y39834D01*
Y40268D01*
X29199D01*
X28766Y40701D01*
Y38535D02*
X29199Y38102D01*
Y37235D01*
X28766Y36802D01*
X27033D01*
X26600Y37235D01*
Y38102D01*
X27033Y38535D01*
X28766D01*
X27033Y35936D02*
X26600Y35502D01*
Y34636D01*
X27033Y34203D01*
X28766D01*
X29199Y34636D01*
Y35502D01*
X28766Y35936D01*
X28333D01*
X27900Y35502D01*
Y34203D01*
X87033Y172866D02*
X86600Y173299D01*
X85733D01*
X85300Y172866D01*
Y172433D01*
X85733Y172000D01*
X86600D01*
X87033Y171566D01*
Y171133D01*
X86600Y170700D01*
X85733D01*
X85300Y171133D01*
X87899Y170700D02*
X88766D01*
X88332D01*
Y173299D01*
X87899Y172866D01*
X158066Y59367D02*
X158499Y59800D01*
Y60667D01*
X158066Y61100D01*
X156333D01*
X155900Y60667D01*
Y59800D01*
X156333Y59367D01*
X158499Y56768D02*
X158066Y57635D01*
X157200Y58501D01*
X156333D01*
X155900Y58068D01*
Y57201D01*
X156333Y56768D01*
X156766D01*
X157200Y57201D01*
Y58501D01*
X155900Y54169D02*
Y55902D01*
X157633Y54169D01*
X158066D01*
X158499Y54602D01*
Y55468D01*
X158066Y55902D01*
X153966Y59867D02*
X154399Y60300D01*
Y61167D01*
X153966Y61600D01*
X152233D01*
X151800Y61167D01*
Y60300D01*
X152233Y59867D01*
X154399Y57268D02*
X153966Y58135D01*
X153100Y59001D01*
X152233D01*
X151800Y58568D01*
Y57701D01*
X152233Y57268D01*
X152666D01*
X153100Y57701D01*
Y59001D01*
X153966Y56402D02*
X154399Y55968D01*
Y55102D01*
X153966Y54669D01*
X153533D01*
X153100Y55102D01*
Y55535D01*
Y55102D01*
X152666Y54669D01*
X152233D01*
X151800Y55102D01*
Y55968D01*
X152233Y56402D01*
X159199Y41800D02*
X157033D01*
X156600Y41367D01*
Y40500D01*
X157033Y40067D01*
X159199D01*
X156600Y39201D02*
Y38334D01*
Y38768D01*
X159199D01*
X158766Y39201D01*
X159199Y35302D02*
X158766Y36169D01*
X157900Y37035D01*
X157033D01*
X156600Y36602D01*
Y35735D01*
X157033Y35302D01*
X157466D01*
X157900Y35735D01*
Y37035D01*
X63666Y102367D02*
X64099Y102800D01*
Y103667D01*
X63666Y104100D01*
X61933D01*
X61500Y103667D01*
Y102800D01*
X61933Y102367D01*
X61500Y101501D02*
Y100635D01*
Y101068D01*
X64099D01*
X63666Y101501D01*
Y99335D02*
X64099Y98902D01*
Y98035D01*
X63666Y97602D01*
X61933D01*
X61500Y98035D01*
Y98902D01*
X61933Y99335D01*
X63666D01*
X61500Y96736D02*
Y95869D01*
Y96302D01*
X64099D01*
X63666Y96736D01*
X66733Y99666D02*
X66300Y100099D01*
X65433D01*
X65000Y99666D01*
Y97933D01*
X65433Y97500D01*
X66300D01*
X66733Y97933D01*
X67599Y97500D02*
X68466D01*
X68032D01*
Y100099D01*
X67599Y99666D01*
X69765D02*
X70198Y100099D01*
X71065D01*
X71498Y99666D01*
Y97933D01*
X71065Y97500D01*
X70198D01*
X69765Y97933D01*
Y99666D01*
X74097Y97500D02*
X72364D01*
X74097Y99233D01*
Y99666D01*
X73664Y100099D01*
X72798D01*
X72364Y99666D01*
X66533Y91066D02*
X66100Y91499D01*
X65233D01*
X64800Y91066D01*
Y89333D01*
X65233Y88900D01*
X66100D01*
X66533Y89333D01*
X67399Y88900D02*
X68265D01*
X67832D01*
Y91499D01*
X67399Y91066D01*
X69565D02*
X69998Y91499D01*
X70865D01*
X71298Y91066D01*
Y89333D01*
X70865Y88900D01*
X69998D01*
X69565Y89333D01*
Y91066D01*
X72164D02*
X72597Y91499D01*
X73464D01*
X73897Y91066D01*
Y90633D01*
X73464Y90200D01*
X73031D01*
X73464D01*
X73897Y89766D01*
Y89333D01*
X73464Y88900D01*
X72597D01*
X72164Y89333D01*
X66433Y86866D02*
X66000Y87299D01*
X65133D01*
X64700Y86866D01*
Y85133D01*
X65133Y84700D01*
X66000D01*
X66433Y85133D01*
X67299Y84700D02*
X68165D01*
X67732D01*
Y87299D01*
X67299Y86866D01*
X69465D02*
X69898Y87299D01*
X70765D01*
X71198Y86866D01*
Y85133D01*
X70765Y84700D01*
X69898D01*
X69465Y85133D01*
Y86866D01*
X73364Y84700D02*
Y87299D01*
X72064Y86000D01*
X73797D01*
X66733Y83566D02*
X66300Y83999D01*
X65433D01*
X65000Y83566D01*
Y81833D01*
X65433Y81400D01*
X66300D01*
X66733Y81833D01*
X67599Y81400D02*
X68466D01*
X68032D01*
Y83999D01*
X67599Y83566D01*
X69765D02*
X70198Y83999D01*
X71065D01*
X71498Y83566D01*
Y81833D01*
X71065Y81400D01*
X70198D01*
X69765Y81833D01*
Y83566D01*
X74097Y83999D02*
X72364D01*
Y82700D01*
X73231Y83133D01*
X73664D01*
X74097Y82700D01*
Y81833D01*
X73664Y81400D01*
X72798D01*
X72364Y81833D01*
X17266Y136767D02*
X17699Y137200D01*
Y138067D01*
X17266Y138500D01*
X15533D01*
X15100Y138067D01*
Y137200D01*
X15533Y136767D01*
X15100Y135901D02*
Y135034D01*
Y135468D01*
X17699D01*
X17266Y135901D01*
Y133735D02*
X17699Y133302D01*
Y132435D01*
X17266Y132002D01*
X15533D01*
X15100Y132435D01*
Y133302D01*
X15533Y133735D01*
X17266D01*
X17699Y129403D02*
X17266Y130269D01*
X16400Y131136D01*
X15533D01*
X15100Y130702D01*
Y129836D01*
X15533Y129403D01*
X15966D01*
X16400Y129836D01*
Y131136D01*
X18533Y127399D02*
X16800D01*
Y126100D01*
X17666D01*
X16800D01*
Y124800D01*
X19399Y127399D02*
Y124800D01*
X20699D01*
X21132Y125233D01*
Y125666D01*
X20699Y126100D01*
X19399D01*
X20699D01*
X21132Y126533D01*
Y126966D01*
X20699Y127399D01*
X19399D01*
X23731Y124800D02*
X21998D01*
X23731Y126533D01*
Y126966D01*
X23298Y127399D01*
X22432D01*
X21998Y126966D01*
X57500Y104100D02*
X60099D01*
Y102800D01*
X59666Y102367D01*
X58800D01*
X58366Y102800D01*
Y104100D01*
Y103234D02*
X57500Y102367D01*
Y101501D02*
Y100635D01*
Y101068D01*
X60099D01*
X59666Y101501D01*
Y99335D02*
X60099Y98902D01*
Y98035D01*
X59666Y97602D01*
X57933D01*
X57500Y98035D01*
Y98902D01*
X57933Y99335D01*
X59666D01*
Y96736D02*
X60099Y96302D01*
Y95436D01*
X59666Y95003D01*
X59233D01*
X58800Y95436D01*
Y95869D01*
Y95436D01*
X58366Y95003D01*
X57933D01*
X57500Y95436D01*
Y96302D01*
X57933Y96736D01*
X55100Y113300D02*
Y115899D01*
X56400D01*
X56833Y115466D01*
Y114600D01*
X56400Y114166D01*
X55100D01*
X55966D02*
X56833Y113300D01*
X57699D02*
X58565D01*
X58132D01*
Y115899D01*
X57699Y115466D01*
X59865D02*
X60298Y115899D01*
X61165D01*
X61598Y115466D01*
Y113733D01*
X61165Y113300D01*
X60298D01*
X59865Y113733D01*
Y115466D01*
X63764Y113300D02*
Y115899D01*
X62464Y114600D01*
X64197D01*
X20900Y138900D02*
X23499D01*
Y137600D01*
X23066Y137167D01*
X22200D01*
X21766Y137600D01*
Y138900D01*
Y138034D02*
X20900Y137167D01*
Y136301D02*
Y135434D01*
Y135868D01*
X23499D01*
X23066Y136301D01*
Y134135D02*
X23499Y133702D01*
Y132835D01*
X23066Y132402D01*
X21333D01*
X20900Y132835D01*
Y133702D01*
X21333Y134135D01*
X23066D01*
X23499Y129803D02*
Y131536D01*
X22200D01*
X22633Y130669D01*
Y130236D01*
X22200Y129803D01*
X21333D01*
X20900Y130236D01*
Y131103D01*
X21333Y131536D01*
X74800Y105200D02*
X77399D01*
Y103900D01*
X76966Y103467D01*
X76100D01*
X75666Y103900D01*
Y105200D01*
Y104334D02*
X74800Y103467D01*
Y102601D02*
Y101734D01*
Y102168D01*
X77399D01*
X76966Y102601D01*
Y100435D02*
X77399Y100002D01*
Y99135D01*
X76966Y98702D01*
X75233D01*
X74800Y99135D01*
Y100002D01*
X75233Y100435D01*
X76966D01*
X77399Y96103D02*
X76966Y96969D01*
X76100Y97836D01*
X75233D01*
X74800Y97403D01*
Y96536D01*
X75233Y96103D01*
X75666D01*
X76100Y96536D01*
Y97836D01*
X81900Y103100D02*
Y105699D01*
X83200D01*
X83633Y105266D01*
Y104400D01*
X83200Y103966D01*
X81900D01*
X82766D02*
X83633Y103100D01*
X84499D02*
X85365D01*
X84932D01*
Y105699D01*
X84499Y105266D01*
X86665D02*
X87098Y105699D01*
X87965D01*
X88398Y105266D01*
Y103533D01*
X87965Y103100D01*
X87098D01*
X86665Y103533D01*
Y105266D01*
X89264Y105699D02*
X90997D01*
Y105266D01*
X89264Y103533D01*
Y103100D01*
X66300Y96399D02*
Y94233D01*
X66733Y93800D01*
X67600D01*
X68033Y94233D01*
Y96399D01*
X70632Y93800D02*
X68899D01*
X70632Y95533D01*
Y95966D01*
X70199Y96399D01*
X69332D01*
X68899Y95966D01*
X73231Y93800D02*
X71498D01*
X73231Y95533D01*
Y95966D01*
X72798Y96399D01*
X71931D01*
X71498Y95966D01*
X16800Y123399D02*
Y121233D01*
X17233Y120800D01*
X18100D01*
X18533Y121233D01*
Y123399D01*
X21132Y120800D02*
X19399D01*
X21132Y122533D01*
Y122966D01*
X20699Y123399D01*
X19832D01*
X19399Y122966D01*
X21998Y120800D02*
X22865D01*
X22432D01*
Y123399D01*
X21998Y122966D01*
X9000Y22500D02*
Y25099D01*
X10300D01*
X10733Y24666D01*
Y23800D01*
X10300Y23366D01*
X9000D01*
X11599Y22500D02*
X12466D01*
X12032D01*
Y25099D01*
X11599Y24666D01*
X15498Y22500D02*
X13765D01*
X15498Y24233D01*
Y24666D01*
X15065Y25099D01*
X14198D01*
X13765Y24666D01*
X83433Y109266D02*
X83000Y109699D01*
X82133D01*
X81700Y109266D01*
Y107533D01*
X82133Y107100D01*
X83000D01*
X83433Y107533D01*
X84299Y107100D02*
X85166D01*
X84732D01*
Y109699D01*
X84299Y109266D01*
X86465D02*
X86898Y109699D01*
X87765D01*
X88198Y109266D01*
Y107533D01*
X87765Y107100D01*
X86898D01*
X86465Y107533D01*
Y109266D01*
X89064Y109699D02*
X90797D01*
Y109266D01*
X89064Y107533D01*
Y107100D01*
X19866Y84867D02*
X20299Y85300D01*
Y86167D01*
X19866Y86600D01*
X18133D01*
X17700Y86167D01*
Y85300D01*
X18133Y84867D01*
X17700Y84001D02*
Y83135D01*
Y83568D01*
X20299D01*
X19866Y84001D01*
X17700Y81835D02*
Y80968D01*
Y81402D01*
X20299D01*
X19866Y81835D01*
X17700Y78369D02*
X20299D01*
X19000Y79669D01*
Y77936D01*
X98800Y61999D02*
Y59833D01*
X99233Y59400D01*
X100100D01*
X100533Y59833D01*
Y61999D01*
X103132Y59400D02*
X101399D01*
X103132Y61133D01*
Y61566D01*
X102699Y61999D01*
X101832D01*
X101399Y61566D01*
X105298Y59400D02*
Y61999D01*
X103998Y60700D01*
X105731D01*
X93300Y60100D02*
X95899D01*
Y58800D01*
X95466Y58367D01*
X94600D01*
X94166Y58800D01*
Y60100D01*
Y59234D02*
X93300Y58367D01*
Y57501D02*
Y56634D01*
Y57068D01*
X95899D01*
X95466Y57501D01*
X93300Y55335D02*
Y54469D01*
Y54902D01*
X95899D01*
X95466Y55335D01*
X93300Y51436D02*
Y53169D01*
X95033Y51436D01*
X95466D01*
X95899Y51869D01*
Y52736D01*
X95466Y53169D01*
X77400Y61700D02*
X79999D01*
Y60400D01*
X79566Y59967D01*
X78700D01*
X78266Y60400D01*
Y61700D01*
Y60834D02*
X77400Y59967D01*
Y59101D02*
Y58235D01*
Y58668D01*
X79999D01*
X79566Y59101D01*
X77400Y56935D02*
Y56068D01*
Y56502D01*
X79999D01*
X79566Y56935D01*
Y54769D02*
X79999Y54336D01*
Y53469D01*
X79566Y53036D01*
X79133D01*
X78700Y53469D01*
Y53903D01*
Y53469D01*
X78266Y53036D01*
X77833D01*
X77400Y53469D01*
Y54336D01*
X77833Y54769D01*
X94060Y106440D02*
Y109039D01*
X95360D01*
X95793Y108606D01*
Y107740D01*
X95360Y107306D01*
X94060D01*
X98392Y106440D02*
X96659D01*
X98392Y108173D01*
Y108606D01*
X97959Y109039D01*
X97092D01*
X96659Y108606D01*
X87000Y132800D02*
X89599D01*
Y131500D01*
X89166Y131067D01*
X88300D01*
X87866Y131500D01*
Y132800D01*
X87000Y130201D02*
Y129334D01*
Y129768D01*
X89599D01*
X89166Y130201D01*
X95900Y18800D02*
X98499D01*
Y17500D01*
X98066Y17067D01*
X97200D01*
X96766Y17500D01*
Y18800D01*
X95900Y14901D02*
X98499D01*
X97200Y16201D01*
Y14468D01*
X188599Y179300D02*
X185800D01*
X187199D01*
X187666Y178833D01*
Y177901D01*
X187199Y177434D01*
X185800D01*
X188133Y176034D02*
X187666D01*
Y176501D01*
Y175568D01*
Y176034D01*
X186267D01*
X185800Y175568D01*
X188133Y173702D02*
X187666D01*
Y174168D01*
Y173235D01*
Y173702D01*
X186267D01*
X185800Y173235D01*
X184867Y171836D02*
X187666D01*
Y170436D01*
X187199Y169970D01*
X186267D01*
X185800Y170436D01*
Y171836D01*
X187666Y169037D02*
Y168570D01*
X187199D01*
Y169037D01*
X187666D01*
X186267D02*
Y168570D01*
X185800D01*
Y169037D01*
X186267D01*
X185800Y166704D02*
X187666Y164838D01*
X185800Y163905D02*
X187666Y162039D01*
X185800Y161106D02*
Y160173D01*
Y160639D01*
X187666D01*
Y161106D01*
X185800Y158773D02*
X187666D01*
Y157374D01*
X187199Y156907D01*
X185800D01*
X188133Y155508D02*
X187666D01*
Y155974D01*
Y155041D01*
Y155508D01*
X186267D01*
X185800Y155041D01*
Y152242D02*
Y153175D01*
X186267Y153642D01*
X187199D01*
X187666Y153175D01*
Y152242D01*
X187199Y151776D01*
X186733D01*
Y153642D01*
X187666Y150843D02*
X185800D01*
X186733D01*
X187199Y150376D01*
X187666Y149909D01*
Y149443D01*
X185800Y148044D02*
X187666D01*
Y147577D01*
X187199Y147110D01*
X185800D01*
X187199D01*
X187666Y146644D01*
X187199Y146177D01*
X185800D01*
Y145244D02*
Y144311D01*
Y144778D01*
X187666D01*
Y145244D01*
X188133Y142445D02*
X187666D01*
Y142912D01*
Y141979D01*
Y142445D01*
X186267D01*
X185800Y141979D01*
X188133Y140113D02*
X187666D01*
Y140579D01*
Y139646D01*
Y140113D01*
X186267D01*
X185800Y139646D01*
Y136847D02*
Y137780D01*
X186267Y138247D01*
X187199D01*
X187666Y137780D01*
Y136847D01*
X187199Y136381D01*
X186733D01*
Y138247D01*
X185800Y135448D02*
X187666D01*
Y134048D01*
X187199Y133581D01*
X185800D01*
X188133Y132182D02*
X187666D01*
Y132649D01*
Y131715D01*
Y132182D01*
X186267D01*
X185800Y131715D01*
Y130316D02*
X186267D01*
Y129849D01*
X185800D01*
Y130316D01*
Y127983D02*
Y126584D01*
X186267Y126117D01*
X186733Y126584D01*
Y127517D01*
X187199Y127983D01*
X187666Y127517D01*
Y126117D01*
Y125184D02*
X186267D01*
X185800Y124718D01*
Y123318D01*
X185334D01*
X184867Y123785D01*
Y124251D01*
X185800Y123318D02*
X187666D01*
X185800Y122385D02*
Y120986D01*
X186267Y120519D01*
X186733Y120986D01*
Y121919D01*
X187199Y122385D01*
X187666Y121919D01*
Y120519D01*
X188133Y119120D02*
X187666D01*
Y119586D01*
Y118653D01*
Y119120D01*
X186267D01*
X185800Y118653D01*
Y115854D02*
Y116787D01*
X186267Y117253D01*
X187199D01*
X187666Y116787D01*
Y115854D01*
X187199Y115387D01*
X186733D01*
Y117253D01*
X185800Y114454D02*
X187666D01*
Y113988D01*
X187199Y113521D01*
X185800D01*
X187199D01*
X187666Y113055D01*
X187199Y112588D01*
X185800D01*
Y111655D02*
Y110256D01*
X186267Y109789D01*
X186733Y110256D01*
Y111189D01*
X187199Y111655D01*
X187666Y111189D01*
Y109789D01*
X170766Y68399D02*
X169300D01*
Y67300D01*
X170033D01*
X169300D01*
Y66200D01*
X171499Y68399D02*
X172232D01*
X171866D01*
Y66200D01*
X171499D01*
X172232D01*
X170866Y63299D02*
X169400D01*
Y62200D01*
X170133D01*
X169400D01*
Y61100D01*
X171599D02*
Y63299D01*
X172699D01*
X173065Y62933D01*
Y62200D01*
X172699Y61833D01*
X171599D01*
X172332D02*
X173065Y61100D01*
X169300Y53799D02*
Y51600D01*
X170766D01*
X172966Y53433D02*
X172599Y53799D01*
X171866D01*
X171499Y53433D01*
Y53066D01*
X171866Y52700D01*
X172599D01*
X172966Y52333D01*
Y51967D01*
X172599Y51600D01*
X171866D01*
X171499Y51967D01*
X175165Y51600D02*
X173699D01*
X175165Y53066D01*
Y53433D01*
X174798Y53799D01*
X174065D01*
X173699Y53433D01*
X169200Y58599D02*
Y56400D01*
X170666D01*
X172865Y58233D02*
X172499Y58599D01*
X171766D01*
X171399Y58233D01*
Y57866D01*
X171766Y57500D01*
X172499D01*
X172865Y57133D01*
Y56766D01*
X172499Y56400D01*
X171766D01*
X171399Y56766D01*
X173599Y56400D02*
X174332D01*
X173965D01*
Y58599D01*
X173599Y58233D01*
X169000Y48199D02*
Y46000D01*
Y47100D01*
X170466D01*
Y48199D01*
Y46000D01*
X171199D02*
Y48199D01*
X171932Y47466D01*
X172666Y48199D01*
Y46000D01*
X169400Y38799D02*
Y36600D01*
X170866D01*
X171599D02*
Y38799D01*
X172699D01*
X173065Y38433D01*
Y37700D01*
X172699Y37333D01*
X171599D01*
X169200Y41300D02*
Y42766D01*
X169933Y43499D01*
X170666Y42766D01*
Y41300D01*
Y42400D01*
X169200D01*
X171399Y41300D02*
Y43499D01*
X172499D01*
X172865Y43133D01*
Y42400D01*
X172499Y42033D01*
X171399D01*
X170766Y33233D02*
X170400Y33599D01*
X169667D01*
X169300Y33233D01*
Y31767D01*
X169667Y31400D01*
X170400D01*
X170766Y31767D01*
Y32500D01*
X170033D01*
X171499Y33599D02*
Y31400D01*
X172599D01*
X172966Y31767D01*
Y33233D01*
X172599Y33599D01*
X171499D01*
X82799Y220900D02*
X80600D01*
Y219800D01*
X80967Y219434D01*
X81333D01*
X81700Y219800D01*
Y220900D01*
Y219800D01*
X82066Y219434D01*
X82433D01*
X82799Y219800D01*
Y220900D01*
X80967Y217234D02*
X82433D01*
X82799Y217601D01*
Y218334D01*
X82433Y218701D01*
X80967D01*
X80600Y218334D01*
Y217601D01*
X81333Y217968D02*
X80600Y217234D01*
Y217601D02*
X80967Y217234D01*
X80600Y216501D02*
X81700Y215402D01*
X82799Y216501D01*
X82433Y213203D02*
X82799Y213569D01*
Y214302D01*
X82433Y214669D01*
X80967D01*
X80600Y214302D01*
Y213569D01*
X80967Y213203D01*
X82799Y212469D02*
Y211736D01*
Y212103D01*
X80600D01*
Y212469D01*
Y211736D01*
Y210637D02*
X82799D01*
X80600Y209171D01*
X82799D01*
X78999Y220500D02*
X76800D01*
Y219400D01*
X77166Y219034D01*
X77533D01*
X77900Y219400D01*
Y220500D01*
Y219400D01*
X78266Y219034D01*
X78633D01*
X78999Y219400D01*
Y220500D01*
X77166Y216834D02*
X78633D01*
X78999Y217201D01*
Y217934D01*
X78633Y218301D01*
X77166D01*
X76800Y217934D01*
Y217201D01*
X77533Y217568D02*
X76800Y216834D01*
Y217201D02*
X77166Y216834D01*
X76800Y216101D02*
X77900Y215002D01*
X78999Y216101D01*
Y214269D02*
X76800D01*
Y213169D01*
X77166Y212803D01*
X77533D01*
X77900Y213169D01*
Y214269D01*
Y213169D01*
X78266Y212803D01*
X78633D01*
X78999Y213169D01*
Y214269D01*
X76800Y212069D02*
X78999D01*
Y210970D01*
X78633Y210603D01*
X77900D01*
X77533Y210970D01*
Y212069D01*
X75299Y220500D02*
Y219767D01*
Y220133D01*
X73100D01*
Y220500D01*
Y219767D01*
Y218667D02*
X75299D01*
X73100Y217201D01*
X75299D01*
X73100Y216468D02*
X74200Y215368D01*
X75299Y216468D01*
X74933Y213169D02*
X75299Y213536D01*
Y214269D01*
X74933Y214635D01*
X73466D01*
X73100Y214269D01*
Y213536D01*
X73466Y213169D01*
X75299Y212436D02*
Y211703D01*
Y212069D01*
X73100D01*
Y212436D01*
Y211703D01*
Y210603D02*
X75299D01*
X73100Y209137D01*
X75299D01*
X71999Y220400D02*
X69800D01*
Y218934D01*
X71999Y218201D02*
X69800D01*
Y217101D01*
X70166Y216735D01*
X71633D01*
X71999Y217101D01*
Y218201D01*
X69800Y216001D02*
X70900Y214902D01*
X71999Y216001D01*
Y214169D02*
X69800D01*
Y213069D01*
X70166Y212702D01*
X70533D01*
X70900Y213069D01*
Y214169D01*
Y213069D01*
X71266Y212702D01*
X71633D01*
X71999Y213069D01*
Y214169D01*
X69800Y211969D02*
X71999D01*
Y210870D01*
X71633Y210503D01*
X70900D01*
X70533Y210870D01*
Y211969D01*
X71999Y208304D02*
Y209770D01*
X69800D01*
Y208304D01*
X70900Y209770D02*
Y209037D01*
X61499Y221200D02*
X59300D01*
Y220100D01*
X59667Y219734D01*
X60033D01*
X60400Y220100D01*
Y221200D01*
Y220100D01*
X60766Y219734D01*
X61133D01*
X61499Y220100D01*
Y221200D01*
X59300Y219001D02*
X61499D01*
X59300Y217534D01*
X61499D01*
Y216801D02*
X59300D01*
X60033D01*
X61499Y215335D01*
X60400Y216435D01*
X59300Y215335D01*
Y214602D02*
X60400Y213503D01*
X61499Y214602D01*
Y212769D02*
X59300D01*
Y211670D01*
X59667Y211303D01*
X60033D01*
X60400Y211670D01*
Y212769D01*
Y211670D01*
X60766Y211303D01*
X61133D01*
X61499Y211670D01*
Y212769D01*
X59300Y210570D02*
X61499D01*
Y209471D01*
X61133Y209104D01*
X60400D01*
X60033Y209471D01*
Y210570D01*
X61133Y206905D02*
X61499Y207271D01*
Y208004D01*
X61133Y208371D01*
X60766D01*
X60400Y208004D01*
Y207271D01*
X60033Y206905D01*
X59667D01*
X59300Y207271D01*
Y208004D01*
X59667Y208371D01*
X58099Y220900D02*
Y220167D01*
Y220533D01*
X55900D01*
Y220900D01*
Y220167D01*
Y219067D02*
X58099D01*
X55900Y217601D01*
X58099D01*
X55900Y216868D02*
X57000Y215768D01*
X58099Y216868D01*
Y215035D02*
X55900D01*
Y213936D01*
X56266Y213569D01*
X56633D01*
X57000Y213936D01*
Y215035D01*
Y213936D01*
X57366Y213569D01*
X57733D01*
X58099Y213936D01*
Y215035D01*
X56266Y211370D02*
X57733D01*
X58099Y211736D01*
Y212469D01*
X57733Y212836D01*
X56266D01*
X55900Y212469D01*
Y211736D01*
X56633Y212103D02*
X55900Y211370D01*
Y211736D02*
X56266Y211370D01*
X52799Y147200D02*
X50600D01*
Y146100D01*
X50967Y145734D01*
X51333D01*
X51700Y146100D01*
Y147200D01*
Y146100D01*
X52066Y145734D01*
X52433D01*
X52799Y146100D01*
Y147200D01*
X50600Y145001D02*
X52799D01*
X50600Y143535D01*
X52799D01*
Y142801D02*
X50600D01*
X51333D01*
X52799Y141335D01*
X51700Y142435D01*
X50600Y141335D01*
Y139503D02*
X51700Y140602D01*
X52799Y139503D01*
Y138403D02*
X50600D01*
Y137303D01*
X50967Y136937D01*
X51333D01*
X51700Y137303D01*
Y138403D01*
Y137303D01*
X52066Y136937D01*
X52433D01*
X52799Y137303D01*
Y138403D01*
X50967Y134737D02*
X52433D01*
X52799Y135104D01*
Y135837D01*
X52433Y136204D01*
X50967D01*
X50600Y135837D01*
Y135104D01*
X51333Y135470D02*
X50600Y134737D01*
Y135104D02*
X50967Y134737D01*
X48668Y143869D02*
Y143135D01*
Y143502D01*
X46468D01*
Y143869D01*
Y143135D01*
Y142036D02*
X48668D01*
X46468Y140570D01*
X48668D01*
X47568Y139837D02*
Y138370D01*
X48668Y137637D02*
Y136904D01*
Y137271D01*
X46468D01*
Y137637D01*
Y136904D01*
Y135804D02*
X48668D01*
X46468Y134338D01*
X48668D01*
X43699Y143100D02*
Y142367D01*
Y142733D01*
X41500D01*
Y143100D01*
Y142367D01*
Y141267D02*
X43699D01*
X41500Y139801D01*
X43699D01*
X41500Y137968D02*
X42600Y139068D01*
X43699Y137968D01*
Y136869D02*
X41500D01*
X42600D01*
Y135403D01*
X43699D01*
X41500D01*
X38133Y138734D02*
X38499Y139100D01*
Y139833D01*
X38133Y140200D01*
X37766D01*
X37400Y139833D01*
Y139100D01*
X37033Y138734D01*
X36667D01*
X36300Y139100D01*
Y139833D01*
X36667Y140200D01*
X38499Y136901D02*
Y137634D01*
X38133Y138001D01*
X36667D01*
X36300Y137634D01*
Y136901D01*
X36667Y136535D01*
X38133D01*
X38499Y136901D01*
Y135801D02*
X36300D01*
Y134335D01*
X74400Y69599D02*
Y67400D01*
X75866D01*
X76599Y69599D02*
Y67400D01*
X77699D01*
X78066Y67766D01*
Y69233D01*
X77699Y69599D01*
X76599D01*
X79898Y67400D02*
X78799Y68500D01*
X79898Y69599D01*
X80998D02*
Y67400D01*
X82098D01*
X82464Y67766D01*
Y68133D01*
X82098Y68500D01*
X80998D01*
X82098D01*
X82464Y68866D01*
Y69233D01*
X82098Y69599D01*
X80998D01*
X84663Y69233D02*
X84297Y69599D01*
X83564D01*
X83197Y69233D01*
Y68866D01*
X83564Y68500D01*
X84297D01*
X84663Y68133D01*
Y67766D01*
X84297Y67400D01*
X83564D01*
X83197Y67766D01*
X85396Y69599D02*
X86863D01*
X86129D01*
Y67400D01*
X74500Y72899D02*
Y70700D01*
X75966D01*
X76699Y72899D02*
Y70700D01*
X77799D01*
X78166Y71066D01*
Y72533D01*
X77799Y72899D01*
X76699D01*
X78899Y70700D02*
X79998Y71800D01*
X78899Y72899D01*
X82197Y72533D02*
X81831Y72899D01*
X81098D01*
X80731Y72533D01*
Y72166D01*
X81098Y71800D01*
X81831D01*
X82197Y71433D01*
Y71066D01*
X81831Y70700D01*
X81098D01*
X80731Y71066D01*
X84397Y72899D02*
X82931D01*
Y70700D01*
X84397D01*
X82931Y71800D02*
X83664D01*
X85130Y70700D02*
Y72899D01*
X86596Y70700D01*
Y72899D01*
X74500Y79199D02*
Y77000D01*
X75966D01*
X76699Y79199D02*
Y77000D01*
X77799D01*
X78166Y77367D01*
Y78833D01*
X77799Y79199D01*
X76699D01*
X78899Y77000D02*
X79998Y78100D01*
X78899Y79199D01*
X80731Y77000D02*
Y79199D01*
X81464Y78466D01*
X82197Y79199D01*
Y77000D01*
X84397Y78833D02*
X84030Y79199D01*
X83297D01*
X82931Y78833D01*
Y77367D01*
X83297Y77000D01*
X84030D01*
X84397Y77367D01*
X85130Y79199D02*
Y77367D01*
X85496Y77000D01*
X86229D01*
X86596Y77367D01*
Y79199D01*
X74700Y83999D02*
Y81800D01*
X76166D01*
X76899Y83999D02*
Y81800D01*
X77999D01*
X78365Y82166D01*
Y83633D01*
X77999Y83999D01*
X76899D01*
X79099Y81800D02*
X80198Y82900D01*
X79099Y83999D01*
X80931Y81800D02*
Y83999D01*
X82031D01*
X82398Y83633D01*
Y82900D01*
X82031Y82533D01*
X80931D01*
X81664D02*
X82398Y81800D01*
X83131D02*
Y83266D01*
X83864Y83999D01*
X84597Y83266D01*
Y81800D01*
Y82900D01*
X83131D01*
X85330Y83999D02*
Y81800D01*
X86430D01*
X86796Y82166D01*
Y83633D01*
X86430Y83999D01*
X85330D01*
X75200Y88499D02*
Y86300D01*
X76300D01*
X76666Y86667D01*
Y87033D01*
X76300Y87400D01*
X75200D01*
X76300D01*
X76666Y87766D01*
Y88133D01*
X76300Y88499D01*
X75200D01*
X77399Y86300D02*
Y88499D01*
X78865Y86300D01*
Y88499D01*
X79599D02*
Y86300D01*
Y87033D01*
X81065Y88499D01*
X79965Y87400D01*
X81065Y86300D01*
X81798D02*
X82898Y87400D01*
X81798Y88499D01*
X83631D02*
Y86300D01*
X84730D01*
X85097Y86667D01*
Y87033D01*
X84730Y87400D01*
X83631D01*
X84730D01*
X85097Y87766D01*
Y88133D01*
X84730Y88499D01*
X83631D01*
X87296Y88133D02*
X86930Y88499D01*
X86197D01*
X85830Y88133D01*
Y87766D01*
X86197Y87400D01*
X86930D01*
X87296Y87033D01*
Y86667D01*
X86930Y86300D01*
X86197D01*
X85830Y86667D01*
X88029Y88499D02*
X89495D01*
X88762D01*
Y86300D01*
X76766Y91633D02*
X76400Y91999D01*
X75666D01*
X75300Y91633D01*
Y90166D01*
X75666Y89800D01*
X76400D01*
X76766Y90166D01*
X77499Y91999D02*
X78232D01*
X77866D01*
Y89800D01*
X77499D01*
X78232D01*
X79332D02*
Y91999D01*
X80798Y89800D01*
Y91999D01*
X81531Y89800D02*
X82631Y90900D01*
X81531Y91999D01*
X83364D02*
Y89800D01*
X84464D01*
X84830Y90166D01*
Y90533D01*
X84464Y90900D01*
X83364D01*
X84464D01*
X84830Y91266D01*
Y91633D01*
X84464Y91999D01*
X83364D01*
X85563Y89800D02*
Y91999D01*
X87029Y89800D01*
Y91999D01*
X87763D02*
Y89800D01*
Y90533D01*
X89229Y91999D01*
X88129Y90900D01*
X89229Y89800D01*
X79400Y98399D02*
Y96200D01*
X80866D01*
X81599Y98399D02*
Y96200D01*
X82699D01*
X83065Y96566D01*
Y98033D01*
X82699Y98399D01*
X81599D01*
X84898Y96200D02*
X83799Y97300D01*
X84898Y98399D01*
X85998D02*
Y96200D01*
X87098D01*
X87464Y96566D01*
Y96933D01*
X87098Y97300D01*
X85998D01*
X87098D01*
X87464Y97666D01*
Y98033D01*
X87098Y98399D01*
X85998D01*
X88197Y96200D02*
Y98399D01*
X89663Y96200D01*
Y98399D01*
X90396D02*
Y96200D01*
Y96933D01*
X91863Y98399D01*
X90763Y97300D01*
X91863Y96200D01*
X80066Y101633D02*
X79700Y101999D01*
X78966D01*
X78600Y101633D01*
Y100166D01*
X78966Y99800D01*
X79700D01*
X80066Y100166D01*
X80799Y99800D02*
Y101266D01*
X81532Y101999D01*
X82266Y101266D01*
Y99800D01*
Y100900D01*
X80799D01*
X82999Y99800D02*
Y101999D01*
X84098D01*
X84465Y101633D01*
Y100900D01*
X84098Y100533D01*
X82999D01*
X85198Y99800D02*
X86298Y100900D01*
X85198Y101999D01*
X87031D02*
Y99800D01*
X88130D01*
X88497Y100166D01*
Y100533D01*
X88130Y100900D01*
X87031D01*
X88130D01*
X88497Y101266D01*
Y101633D01*
X88130Y101999D01*
X87031D01*
X89230Y99800D02*
Y101999D01*
X90696Y99800D01*
Y101999D01*
X91429D02*
Y99800D01*
Y100533D01*
X92895Y101999D01*
X91796Y100900D01*
X92895Y99800D01*
X125199Y4900D02*
X123000D01*
Y3434D01*
Y2701D02*
X125199D01*
Y1601D01*
X124833Y1235D01*
X124100D01*
X123733Y1601D01*
Y2701D01*
X2500Y46699D02*
Y44500D01*
X3600D01*
X3966Y44867D01*
Y45233D01*
X3600Y45600D01*
X2500D01*
X3600D01*
X3966Y45966D01*
Y46333D01*
X3600Y46699D01*
X2500D01*
X4699D02*
X5432D01*
X5066D01*
Y44500D01*
X4699D01*
X5432D01*
X2900Y36199D02*
X2167D01*
X1800Y35833D01*
Y34367D01*
X2167Y34000D01*
X2900D01*
X3266Y34367D01*
Y35833D01*
X2900Y36199D01*
X3999D02*
Y34000D01*
Y34733D01*
X5466Y36199D01*
X4366Y35100D01*
X5466Y34000D01*
X3266Y30633D02*
X2900Y30999D01*
X2167D01*
X1800Y30633D01*
Y29167D01*
X2167Y28800D01*
X2900D01*
X3266Y29167D01*
Y29900D01*
X2533D01*
X3999Y30999D02*
Y28800D01*
X5099D01*
X5466Y29167D01*
Y30633D01*
X5099Y30999D01*
X3999D01*
X3666Y171133D02*
X3300Y171499D01*
X2567D01*
X2200Y171133D01*
Y169667D01*
X2567Y169300D01*
X3300D01*
X3666Y169667D01*
Y170400D01*
X2933D01*
X4399Y171499D02*
Y169300D01*
X5499D01*
X5866Y169667D01*
Y171133D01*
X5499Y171499D01*
X4399D01*
X2000Y163499D02*
Y162033D01*
X2733Y161300D01*
X3466Y162033D01*
Y163499D01*
X5666D02*
X4199D01*
Y161300D01*
X5666D01*
X4199Y162400D02*
X4932D01*
X1700Y141099D02*
Y139633D01*
X2433Y138900D01*
X3166Y139633D01*
Y141099D01*
X3899D02*
Y138900D01*
X4999D01*
X5365Y139267D01*
Y140733D01*
X4999Y141099D01*
X3899D01*
X1500Y146099D02*
X2966D01*
X2233D01*
Y143900D01*
X5165Y145733D02*
X4799Y146099D01*
X4066D01*
X3699Y145733D01*
Y145366D01*
X4066Y145000D01*
X4799D01*
X5165Y144633D01*
Y144267D01*
X4799Y143900D01*
X4066D01*
X3699Y144267D01*
X1600Y148900D02*
Y151099D01*
X2700D01*
X3066Y150733D01*
Y150000D01*
X2700Y149633D01*
X1600D01*
X2333D02*
X3066Y148900D01*
X5266Y150733D02*
X4899Y151099D01*
X4166D01*
X3799Y150733D01*
Y150366D01*
X4166Y150000D01*
X4899D01*
X5266Y149633D01*
Y149267D01*
X4899Y148900D01*
X4166D01*
X3799Y149267D01*
X53699Y96600D02*
X51500D01*
Y95500D01*
X51867Y95134D01*
X52233D01*
X52600Y95500D01*
Y96600D01*
Y95500D01*
X52966Y95134D01*
X53333D01*
X53699Y95500D01*
Y96600D01*
X51867Y92935D02*
X53333D01*
X53699Y93301D01*
Y94034D01*
X53333Y94401D01*
X51867D01*
X51500Y94034D01*
Y93301D01*
X52233Y93668D02*
X51500Y92935D01*
Y93301D02*
X51867Y92935D01*
X53699Y91102D02*
Y91835D01*
X53333Y92201D01*
X51867D01*
X51500Y91835D01*
Y91102D01*
X51867Y90735D01*
X53333D01*
X53699Y91102D01*
X1400Y88700D02*
Y90299D01*
X2200Y91099D01*
X2999Y90299D01*
Y88700D01*
Y89900D01*
X1400D01*
X3799Y90699D02*
X4199Y91099D01*
X4999D01*
X5399Y90699D01*
Y90299D01*
X4999Y89900D01*
X4599D01*
X4999D01*
X5399Y89500D01*
Y89100D01*
X4999Y88700D01*
X4199D01*
X3799Y89100D01*
X1700Y85699D02*
X3166D01*
X2433D01*
Y83500D01*
X3899Y85699D02*
X5365Y83500D01*
Y85699D02*
X3899Y83500D01*
X1800Y78700D02*
Y80899D01*
X2900D01*
X3266Y80533D01*
Y79800D01*
X2900Y79433D01*
X1800D01*
X2533D02*
X3266Y78700D01*
X3999Y80899D02*
X5466Y78700D01*
Y80899D02*
X3999Y78700D01*
X1600Y75699D02*
Y74233D01*
X2333Y73500D01*
X3066Y74233D01*
Y75699D01*
X3799D02*
Y73500D01*
Y74600D01*
X5266D01*
Y75699D01*
Y73500D01*
X1600Y70799D02*
Y69333D01*
X2333Y68600D01*
X3066Y69333D01*
Y70799D01*
X3799D02*
Y68600D01*
X4899D01*
X5266Y68967D01*
Y69333D01*
X4899Y69700D01*
X3799D01*
X4899D01*
X5266Y70066D01*
Y70433D01*
X4899Y70799D01*
X3799D01*
X1600Y63500D02*
Y64966D01*
X2333Y65699D01*
X3066Y64966D01*
Y63500D01*
Y64600D01*
X1600D01*
X4899Y63500D02*
Y65699D01*
X3799Y64600D01*
X5266D01*
X1500Y58400D02*
Y59866D01*
X2233Y60599D01*
X2966Y59866D01*
Y58400D01*
Y59500D01*
X1500D01*
X5165Y60599D02*
X3699D01*
Y59500D01*
X4432Y59866D01*
X4799D01*
X5165Y59500D01*
Y58767D01*
X4799Y58400D01*
X4066D01*
X3699Y58767D01*
X1800Y40933D02*
X2167Y41299D01*
X2900D01*
X3266Y40933D01*
Y40566D01*
X2900Y40200D01*
X2533D01*
X2900D01*
X3266Y39833D01*
Y39467D01*
X2900Y39100D01*
X2167D01*
X1800Y39467D01*
X5466Y41299D02*
X3999D01*
Y40200D01*
X4732Y40566D01*
X5099D01*
X5466Y40200D01*
Y39467D01*
X5099Y39100D01*
X4366D01*
X3999Y39467D01*
X7833Y98534D02*
X8199Y98900D01*
Y99634D01*
X7833Y100000D01*
X6367D01*
X6000Y99634D01*
Y98900D01*
X6367Y98534D01*
X7100D01*
Y99267D01*
X6000Y97801D02*
X8199D01*
X6000Y96334D01*
X8199D01*
Y95601D02*
X6000D01*
Y94502D01*
X6367Y94135D01*
X7833D01*
X8199Y94502D01*
Y95601D01*
X37000Y96300D02*
X38466D01*
X39199Y95567D01*
X38466Y94834D01*
X37000D01*
X38100D01*
Y96300D01*
X39199Y94101D02*
X37000Y92634D01*
X39199D02*
X37000Y94101D01*
X38833Y91901D02*
X39199Y91535D01*
Y90802D01*
X38833Y90435D01*
X37367D01*
X37000Y90802D01*
Y91535D01*
X37367Y91901D01*
X38833D01*
X11499Y100000D02*
X10033D01*
X9300Y99267D01*
X10033Y98534D01*
X11499D01*
Y97801D02*
X9300D01*
Y96701D01*
X9667Y96334D01*
X11133D01*
X11499Y96701D01*
Y97801D01*
Y95601D02*
X9300D01*
Y94502D01*
X9667Y94135D01*
X11133D01*
X11499Y94502D01*
Y95601D01*
X3766Y121833D02*
X3400Y122199D01*
X2667D01*
X2300Y121833D01*
Y120367D01*
X2667Y120000D01*
X3400D01*
X3766Y120367D01*
Y121100D01*
X3033D01*
X4499Y120000D02*
Y122199D01*
X5965Y120000D01*
Y122199D01*
X6699D02*
Y120000D01*
X7798D01*
X8165Y120367D01*
Y121833D01*
X7798Y122199D01*
X6699D01*
X3866Y116733D02*
X3500Y117099D01*
X2767D01*
X2400Y116733D01*
Y116366D01*
X2767Y116000D01*
X3500D01*
X3866Y115633D01*
Y115267D01*
X3500Y114900D01*
X2767D01*
X2400Y115267D01*
X6066Y116733D02*
X5699Y117099D01*
X4966D01*
X4599Y116733D01*
Y115267D01*
X4966Y114900D01*
X5699D01*
X6066Y115267D01*
X6799Y117099D02*
Y114900D01*
X8265D01*
X3766Y111233D02*
X3400Y111599D01*
X2667D01*
X2300Y111233D01*
Y110866D01*
X2667Y110500D01*
X3400D01*
X3766Y110133D01*
Y109767D01*
X3400Y109400D01*
X2667D01*
X2300Y109767D01*
X4499Y111599D02*
Y109400D01*
X5599D01*
X5965Y109767D01*
Y111233D01*
X5599Y111599D01*
X4499D01*
X6699Y109400D02*
Y110866D01*
X7432Y111599D01*
X8165Y110866D01*
Y109400D01*
Y110500D01*
X6699D01*
X2966Y155633D02*
X2600Y155999D01*
X1867D01*
X1500Y155633D01*
Y154167D01*
X1867Y153800D01*
X2600D01*
X2966Y154167D01*
Y154900D01*
X2233D01*
X3699Y155999D02*
Y153800D01*
X4799D01*
X5165Y154167D01*
Y155633D01*
X4799Y155999D01*
X3699D01*
X2100Y222099D02*
Y219900D01*
X3200D01*
X3566Y220267D01*
Y220633D01*
X3200Y221000D01*
X2100D01*
X3200D01*
X3566Y221366D01*
Y221733D01*
X3200Y222099D01*
X2100D01*
X4299Y219900D02*
X5032D01*
X4666D01*
Y222099D01*
X4299Y221733D01*
X2000Y217424D02*
Y215225D01*
X3100D01*
X3466Y215592D01*
Y215958D01*
X3100Y216325D01*
X2000D01*
X3100D01*
X3466Y216691D01*
Y217058D01*
X3100Y217424D01*
X2000D01*
X5666Y215225D02*
X4199D01*
X5666Y216691D01*
Y217058D01*
X5299Y217424D01*
X4566D01*
X4199Y217058D01*
X2000Y211702D02*
Y209503D01*
X3100D01*
X3466Y209870D01*
Y210236D01*
X3100Y210603D01*
X2000D01*
X3100D01*
X3466Y210969D01*
Y211336D01*
X3100Y211702D01*
X2000D01*
X4199Y211336D02*
X4566Y211702D01*
X5299D01*
X5666Y211336D01*
Y210969D01*
X5299Y210603D01*
X4932D01*
X5299D01*
X5666Y210236D01*
Y209870D01*
X5299Y209503D01*
X4566D01*
X4199Y209870D01*
X2000Y206702D02*
Y204503D01*
X3100D01*
X3466Y204870D01*
Y205236D01*
X3100Y205603D01*
X2000D01*
X3100D01*
X3466Y205969D01*
Y206336D01*
X3100Y206702D01*
X2000D01*
X5299Y204503D02*
Y206702D01*
X4199Y205603D01*
X5666D01*
X32200Y96500D02*
X33666D01*
X34399Y95767D01*
X33666Y95034D01*
X32200D01*
X33300D01*
Y96500D01*
X34399Y94301D02*
X32200Y92835D01*
X34399D02*
X32200Y94301D01*
Y92101D02*
Y91368D01*
Y91735D01*
X34399D01*
X34033Y92101D01*
X28200Y96100D02*
X29666D01*
X30399Y95367D01*
X29666Y94634D01*
X28200D01*
X29300D01*
Y96100D01*
X30399Y93901D02*
X28200Y92435D01*
X30399D02*
X28200Y93901D01*
Y90235D02*
Y91701D01*
X29666Y90235D01*
X30033D01*
X30399Y90602D01*
Y91335D01*
X30033Y91701D01*
X31000Y138500D02*
X33199D01*
Y137400D01*
X32833Y137034D01*
X32100D01*
X31733Y137400D01*
Y138500D01*
Y137767D02*
X31000Y137034D01*
X33199Y134835D02*
Y136301D01*
X32100D01*
Y135568D01*
Y136301D01*
X31000D01*
X27799Y139434D02*
Y140900D01*
X25600D01*
Y139434D01*
X26700Y140900D02*
Y140167D01*
X27799Y138701D02*
X25600Y137234D01*
X27799D02*
X25600Y138701D01*
X27799Y136501D02*
Y135035D01*
Y135768D01*
X25600D01*
X168333Y122134D02*
X168699Y122500D01*
Y123233D01*
X168333Y123600D01*
X166867D01*
X166500Y123233D01*
Y122500D01*
X166867Y122134D01*
X167600D01*
Y122867D01*
X166500Y121401D02*
X168699D01*
X166500Y119934D01*
X168699D01*
Y119201D02*
X166500D01*
Y118102D01*
X166867Y117735D01*
X168333D01*
X168699Y118102D01*
Y119201D01*
X162333Y123500D02*
X162699Y123133D01*
Y122400D01*
X162333Y122034D01*
X160867D01*
X160500Y122400D01*
Y123133D01*
X160867Y123500D01*
X162333D01*
X154900Y123200D02*
Y122467D01*
Y122833D01*
X157099D01*
X156733Y123200D01*
X150600Y122034D02*
Y123500D01*
X152066Y122034D01*
X152433D01*
X152799Y122400D01*
Y123133D01*
X152433Y123500D01*
X147033Y123300D02*
X147399Y122933D01*
Y122200D01*
X147033Y121834D01*
X146666D01*
X146300Y122200D01*
Y122567D01*
Y122200D01*
X145933Y121834D01*
X145567D01*
X145200Y122200D01*
Y122933D01*
X145567Y123300D01*
X140200Y122000D02*
X142399D01*
X141300Y123100D01*
Y121634D01*
X43999Y96600D02*
Y95134D01*
Y95867D01*
X41800D01*
X43999Y94401D02*
X41800Y92935D01*
X43999D02*
X41800Y94401D01*
X47500Y96200D02*
X49699D01*
Y95100D01*
X49333Y94734D01*
X48600D01*
X48233Y95100D01*
Y96200D01*
Y95467D02*
X47500Y94734D01*
X49699Y94001D02*
X47500Y92535D01*
X49699D02*
X47500Y94001D01*
X88933Y3534D02*
X89299Y3900D01*
Y4633D01*
X88933Y5000D01*
X88566D01*
X88200Y4633D01*
Y3900D01*
X87833Y3534D01*
X87467D01*
X87100Y3900D01*
Y4633D01*
X87467Y5000D01*
X88933Y1335D02*
X89299Y1701D01*
Y2434D01*
X88933Y2801D01*
X87467D01*
X87100Y2434D01*
Y1701D01*
X87467Y1335D01*
X53299Y5100D02*
X51833D01*
X51100Y4367D01*
X51833Y3634D01*
X53299D01*
Y2901D02*
X51100D01*
Y1801D01*
X51467Y1434D01*
X52933D01*
X53299Y1801D01*
Y2901D01*
X32733Y3934D02*
X33099Y4300D01*
Y5033D01*
X32733Y5400D01*
X31267D01*
X30900Y5033D01*
Y4300D01*
X31267Y3934D01*
X32000D01*
Y4667D01*
X33099Y3201D02*
X30900D01*
Y2101D01*
X31267Y1735D01*
X32733D01*
X33099Y2101D01*
Y3201D01*
X102900Y5100D02*
X104366D01*
X105099Y4367D01*
X104366Y3634D01*
X102900D01*
X104000D01*
Y5100D01*
X102900Y2901D02*
X105099D01*
Y1801D01*
X104733Y1434D01*
X104000D01*
X103633Y1801D01*
Y2901D01*
X108400Y5100D02*
X109866D01*
X110599Y4367D01*
X109866Y3634D01*
X108400D01*
X109500D01*
Y5100D01*
X110599Y2901D02*
X108400D01*
Y1434D01*
X115399Y5100D02*
X113200D01*
Y3634D01*
X115033Y1434D02*
X115399Y1801D01*
Y2534D01*
X115033Y2901D01*
X114666D01*
X114300Y2534D01*
Y1801D01*
X113933Y1434D01*
X113567D01*
X113200Y1801D01*
Y2534D01*
X113567Y2901D01*
X120499Y5100D02*
X118300D01*
X119400D01*
Y3634D01*
X120499D01*
X118300D01*
Y2901D02*
X120499D01*
X119766Y2168D01*
X120499Y1434D01*
X118300D01*
X129633Y3834D02*
X129999Y4200D01*
Y4933D01*
X129633Y5300D01*
X128167D01*
X127800Y4933D01*
Y4200D01*
X128167Y3834D01*
X128900D01*
Y4567D01*
X129999Y3101D02*
X127800D01*
Y2001D01*
X128167Y1634D01*
X129633D01*
X129999Y2001D01*
Y3101D01*
X37799Y5400D02*
X36333D01*
X35600Y4667D01*
X36333Y3934D01*
X37799D01*
Y3201D02*
X35600D01*
Y2101D01*
X35967Y1735D01*
X36333D01*
X36700Y2101D01*
Y3201D01*
Y2101D01*
X37066Y1735D01*
X37433D01*
X37799Y2101D01*
Y3201D01*
X43299Y5200D02*
X41100D01*
Y4100D01*
X41467Y3734D01*
X41833D01*
X42200Y4100D01*
Y5200D01*
Y4100D01*
X42566Y3734D01*
X42933D01*
X43299Y4100D01*
Y5200D01*
Y1901D02*
Y2634D01*
X42933Y3001D01*
X41467D01*
X41100Y2634D01*
Y1901D01*
X41467Y1534D01*
X42933D01*
X43299Y1901D01*
X63499Y5200D02*
X61300D01*
Y4100D01*
X61667Y3734D01*
X62033D01*
X62400Y4100D01*
Y5200D01*
Y4100D01*
X62766Y3734D01*
X63133D01*
X63499Y4100D01*
Y5200D01*
Y1534D02*
Y3001D01*
X61300D01*
Y1534D01*
X62400Y3001D02*
Y2268D01*
X68399Y5300D02*
X66933D01*
X66200Y4567D01*
X66933Y3834D01*
X68399D01*
Y3101D02*
Y1634D01*
Y2368D01*
X66200D01*
X58299Y5200D02*
X56100D01*
Y4100D01*
X56467Y3734D01*
X56833D01*
X57200Y4100D01*
Y5200D01*
Y4100D01*
X57566Y3734D01*
X57933D01*
X58299Y4100D01*
Y5200D01*
X56100Y3001D02*
X58299D01*
Y1901D01*
X57933Y1534D01*
X57200D01*
X56833Y1901D01*
Y3001D01*
X47933Y3834D02*
X48299Y4200D01*
Y4933D01*
X47933Y5300D01*
X46467D01*
X46100Y4933D01*
Y4200D01*
X46467Y3834D01*
X48299Y2001D02*
Y2734D01*
X47933Y3101D01*
X46467D01*
X46100Y2734D01*
Y2001D01*
X46467Y1634D01*
X47933D01*
X48299Y2001D01*
X78533Y3534D02*
X78899Y3900D01*
Y4633D01*
X78533Y5000D01*
X77066D01*
X76700Y4633D01*
Y3900D01*
X77066Y3534D01*
X77800D01*
Y4267D01*
X78899Y2801D02*
X76700D01*
Y1701D01*
X77066Y1335D01*
X78533D01*
X78899Y1701D01*
Y2801D01*
X83733Y3634D02*
X84099Y4000D01*
Y4733D01*
X83733Y5100D01*
X83366D01*
X83000Y4733D01*
Y4000D01*
X82633Y3634D01*
X82266D01*
X81900Y4000D01*
Y4733D01*
X82266Y5100D01*
X84099Y2901D02*
X81900D01*
Y1801D01*
X82266Y1434D01*
X83733D01*
X84099Y1801D01*
Y2901D01*
X94499Y5100D02*
X93033D01*
X92300Y4367D01*
X93033Y3634D01*
X94499D01*
X94133Y1434D02*
X94499Y1801D01*
Y2534D01*
X94133Y2901D01*
X93766D01*
X93400Y2534D01*
Y1801D01*
X93033Y1434D01*
X92667D01*
X92300Y1801D01*
Y2534D01*
X92667Y2901D01*
D114*
X149092Y159243D02*
G03*
X121519Y169241I-84070J-188823D01*
G01*
X87252Y181080D02*
G03*
X114825Y171081I84070J188823D01*
G01*
X65942Y58036D02*
G03*
X65942Y58036I-591J0D01*
G01*
X149274Y159002D02*
X172502Y135774D01*
X65022Y135774D02*
X172502D01*
X65219Y169239D02*
X121518D01*
X114826Y171084D02*
X171125D01*
X63842Y204549D02*
X171322D01*
X63842Y204549D02*
X87070Y181321D01*
D115*
X42447Y34701D02*
G03*
X42447Y34701I-394J0D01*
G01*
X153893Y88853D02*
G03*
X153893Y88853I-394J0D01*
G01*
X35163Y36079D02*
X43037D01*
Y45921D01*
X35163Y36079D02*
Y45921D01*
X43037D01*
X31068Y182041D02*
Y187159D01*
X39532Y182041D02*
Y187159D01*
X31068Y182041D02*
X39532D01*
X31068Y187159D02*
X39532D01*
X40668Y182041D02*
Y187159D01*
X49132Y182041D02*
Y187159D01*
X40668Y182041D02*
X49132D01*
X40668Y187159D02*
X49132D01*
X152121Y81963D02*
Y89837D01*
X142279D02*
X152121D01*
X142279Y81963D02*
X152121D01*
X142279D02*
Y89837D01*
X113938Y26070D02*
X115119D01*
X113938Y22920D02*
X115119D01*
X113938D02*
Y26070D01*
D116*
X127715Y68871D02*
G03*
X127715Y68871I-394J0D01*
G01*
X67181Y28366D02*
G03*
X64819Y28366I-1181J0D01*
G01*
X100000Y6500D02*
X132000D01*
X100000D02*
Y18500D01*
X132000D01*
Y6500D02*
Y18500D01*
X143839Y95920D02*
Y97633D01*
X142126Y95920D02*
X143839D01*
X122382D02*
X123169D01*
X122382D02*
Y96708D01*
Y116590D02*
Y117377D01*
X123169D01*
X143839Y116590D02*
Y117377D01*
X143051D02*
X143839D01*
X61414Y58036D02*
X62398Y59021D01*
X34839Y58036D02*
Y59099D01*
Y58036D02*
X35902D01*
X34839Y85595D02*
X35902D01*
X34839Y84532D02*
Y85595D01*
X62398Y84532D02*
Y85595D01*
X61335D02*
X62398D01*
X167543Y28957D02*
Y71043D01*
X160457D02*
X167543D01*
X160457Y28957D02*
Y71043D01*
Y28957D02*
X167543D01*
X24000Y133500D02*
X86000D01*
Y121500D02*
Y133500D01*
X24000Y121500D02*
X86000D01*
X24000D02*
Y133500D01*
X94000Y63500D02*
X106000D01*
Y105500D01*
X94000D02*
X106000D01*
X94000Y63500D02*
Y105500D01*
X121825Y75557D02*
X124975D01*
X121825D02*
Y82643D01*
X124975Y75557D02*
Y82643D01*
X121825D02*
X124975D01*
X154697Y33683D02*
Y41557D01*
X146823Y33683D02*
X154697D01*
X146823D02*
Y41557D01*
X154697D01*
X96543Y6457D02*
Y13543D01*
X74457D02*
X96543D01*
X74457Y6457D02*
Y13543D01*
Y6457D02*
X96543D01*
X41825Y159457D02*
X44975D01*
X41825D02*
Y166543D01*
X44975Y159457D02*
Y166543D01*
X41825D02*
X44975D01*
X6957Y161457D02*
X14043D01*
Y173543D01*
X6957D02*
X14043D01*
X6957Y161457D02*
Y173543D01*
X45080Y108374D02*
Y118905D01*
X43801Y107095D02*
X45080Y108374D01*
X30120Y118905D02*
X45080D01*
X30120Y107095D02*
Y118905D01*
Y107095D02*
X43801D01*
X73743Y109725D02*
Y112875D01*
X66657Y109725D02*
X73743D01*
X66657Y112875D02*
X73743D01*
X66657Y109725D02*
Y112875D01*
X98577Y43602D02*
X108124D01*
X98577D02*
Y56398D01*
X108124Y43602D02*
Y56398D01*
X98577D02*
X108124D01*
X119400Y55765D02*
Y67576D01*
Y55765D02*
X129243D01*
X119400Y67576D02*
X129243D01*
Y55765D02*
Y67576D01*
X126725Y41843D02*
X129875D01*
Y34757D02*
Y41843D01*
X126725Y34757D02*
Y41843D01*
Y34757D02*
X129875D01*
X70724Y28366D02*
Y36634D01*
X61276D02*
X70724D01*
X61276Y28366D02*
Y36634D01*
X61276Y28366D02*
X64819D01*
X67181Y28366D02*
X70724D01*
X74425Y48243D02*
X77575D01*
Y41157D02*
Y48243D01*
X74425Y41157D02*
Y48243D01*
Y41157D02*
X77575D01*
X96850Y120925D02*
X103150D01*
Y124075D01*
X96850D02*
X103150D01*
X96850Y120925D02*
Y124075D01*
X6957Y56057D02*
X14043D01*
X6957Y93143D02*
X14043D01*
Y56057D02*
Y93143D01*
X6957Y56057D02*
Y93143D01*
X13757Y98257D02*
Y105343D01*
X55843D01*
Y98257D02*
Y105343D01*
X13757Y98257D02*
X55843D01*
X9257Y107257D02*
Y124343D01*
X16343D01*
Y107257D02*
Y124343D01*
X9257Y107257D02*
X16343D01*
X6957Y202457D02*
X14043D01*
Y224543D01*
X6957D02*
X14043D01*
X6957Y202457D02*
Y224543D01*
Y136457D02*
X14043D01*
Y158543D01*
X6957D02*
X14043D01*
X6957Y136457D02*
Y158543D01*
X136457Y124457D02*
X168543D01*
X136457D02*
Y131543D01*
X168543Y124457D02*
Y131543D01*
X136457D02*
X168543D01*
X104080Y31941D02*
Y37059D01*
X28457Y6457D02*
Y13543D01*
X70543D01*
Y6457D02*
Y13543D01*
X28457Y6457D02*
X70543D01*
X6957Y48543D02*
X14043D01*
X6957Y26457D02*
Y48543D01*
Y26457D02*
X14043D01*
Y48543D01*
D117*
X26944Y193095D02*
Y204906D01*
Y193095D02*
X32456D01*
Y204906D01*
X26944D02*
X32456D01*
D118*
X178900Y37100D02*
Y39100D01*
X179000Y37000D02*
Y39900D01*
X179100Y36800D02*
Y40400D01*
X179200Y36700D02*
Y40700D01*
X179300Y36600D02*
Y41000D01*
X179400Y36500D02*
Y41200D01*
X179500Y36400D02*
Y41300D01*
X179600Y36300D02*
Y41500D01*
X179700Y36200D02*
Y37300D01*
Y39600D02*
Y41600D01*
X179800Y36100D02*
Y37200D01*
Y40100D02*
Y41800D01*
X179900Y36000D02*
Y37100D01*
Y40400D02*
Y41900D01*
X180000Y35900D02*
Y37000D01*
Y40500D02*
Y42100D01*
X180100Y35900D02*
Y36900D01*
Y40200D02*
Y42200D01*
X180200Y35900D02*
Y36800D01*
Y40000D02*
Y42000D01*
X180300Y35900D02*
Y36700D01*
Y39800D02*
Y41700D01*
X180400Y35900D02*
Y36700D01*
Y39500D02*
Y41500D01*
X180500Y35900D02*
Y36600D01*
Y39300D02*
Y41200D01*
X180600Y35900D02*
Y36600D01*
Y39000D02*
Y41000D01*
X180700Y35900D02*
Y36600D01*
Y38800D02*
Y40700D01*
X180800Y35900D02*
Y36600D01*
Y38500D02*
Y40500D01*
X180900Y35900D02*
Y36600D01*
Y38300D02*
Y40300D01*
X181000Y35900D02*
Y36600D01*
Y38100D02*
Y40000D01*
X181100Y35800D02*
Y36600D01*
Y38100D02*
Y39800D01*
X181200Y35800D02*
Y36600D01*
Y38100D02*
Y39500D01*
X181300Y35800D02*
Y36600D01*
Y38100D02*
Y39300D01*
X181400Y35800D02*
Y36600D01*
Y38200D02*
Y39000D01*
X181500Y35800D02*
Y36600D01*
Y38200D02*
Y38900D01*
X181600Y35800D02*
Y36600D01*
Y38200D02*
Y38900D01*
Y69800D02*
Y70000D01*
X181700Y35800D02*
Y36500D01*
Y38200D02*
Y38900D01*
Y69800D02*
Y70100D01*
X181800Y35800D02*
Y36500D01*
Y38200D02*
Y39000D01*
Y69800D02*
Y70200D01*
X181900Y35800D02*
Y36500D01*
Y38200D02*
Y39000D01*
Y69700D02*
Y70300D01*
X182000Y35800D02*
Y36500D01*
Y38200D02*
Y39000D01*
Y69700D02*
Y70400D01*
X182100Y35800D02*
Y36500D01*
Y38200D02*
Y39000D01*
Y69600D02*
Y70500D01*
X182200Y35800D02*
Y36500D01*
Y38200D02*
Y39000D01*
Y69600D02*
Y70600D01*
X182300Y35700D02*
Y36500D01*
Y38300D02*
Y39000D01*
Y69500D02*
Y70700D01*
X182400Y35700D02*
Y36500D01*
Y38300D02*
Y39000D01*
Y69500D02*
Y70800D01*
X182500Y35700D02*
Y36500D01*
Y38300D02*
Y39000D01*
Y69400D02*
Y71000D01*
Y72900D02*
Y73400D01*
X182600Y35700D02*
Y36500D01*
Y38300D02*
Y39000D01*
Y69400D02*
Y71100D01*
Y72300D02*
Y73700D01*
X182700Y35700D02*
Y36500D01*
Y38300D02*
Y39100D01*
Y69400D02*
Y71200D01*
Y71800D02*
Y74000D01*
X182800Y35700D02*
Y36500D01*
Y38300D02*
Y39100D01*
Y69300D02*
Y71200D01*
Y71300D02*
Y74400D01*
X182900Y35700D02*
Y36400D01*
Y38300D02*
Y39100D01*
Y69300D02*
Y70100D01*
Y70300D02*
Y74700D01*
X183000Y35700D02*
Y36400D01*
Y38300D02*
Y39100D01*
Y69200D02*
Y70000D01*
Y70400D02*
Y75100D01*
X183100Y35700D02*
Y36400D01*
Y38400D02*
Y39100D01*
Y69200D02*
Y70000D01*
Y70300D02*
Y75100D01*
X183200Y35700D02*
Y36400D01*
Y38400D02*
Y39100D01*
Y69100D02*
Y70000D01*
Y70300D02*
Y74900D01*
X183300Y35700D02*
Y36400D01*
Y38400D02*
Y39100D01*
Y69100D02*
Y69900D01*
Y70300D02*
Y74600D01*
X183400Y35700D02*
Y36400D01*
Y38400D02*
Y39100D01*
Y69000D02*
Y69900D01*
Y70300D02*
Y72100D01*
Y72500D02*
Y74400D01*
X183500Y35700D02*
Y36400D01*
Y38400D02*
Y39200D01*
Y69000D02*
Y69800D01*
Y70300D02*
Y71600D01*
Y72200D02*
Y74200D01*
X183600Y35700D02*
Y36400D01*
Y38400D02*
Y39200D01*
Y69000D02*
Y69800D01*
Y70300D02*
Y71100D01*
Y72000D02*
Y73900D01*
X183700Y35600D02*
Y36400D01*
Y38400D02*
Y39200D01*
Y68900D02*
Y69700D01*
Y70300D02*
Y70500D01*
Y71700D02*
Y73700D01*
X183800Y35600D02*
Y36400D01*
Y38400D02*
Y39200D01*
Y68900D02*
Y69700D01*
Y71500D02*
Y73500D01*
X183900Y35600D02*
Y36400D01*
Y38400D02*
Y39200D01*
Y68800D02*
Y69600D01*
Y71300D02*
Y73200D01*
X184000Y35600D02*
Y36400D01*
Y38500D02*
Y39200D01*
Y68800D02*
Y69600D01*
Y71100D02*
Y73000D01*
X184100Y35600D02*
Y36400D01*
Y38500D02*
Y39200D01*
Y68700D02*
Y69600D01*
Y71000D02*
Y72700D01*
X184200Y35600D02*
Y36400D01*
Y38500D02*
Y39200D01*
Y68700D02*
Y69500D01*
Y70800D02*
Y72500D01*
X184300Y35600D02*
Y36400D01*
Y38500D02*
Y39200D01*
Y68600D02*
Y69500D01*
Y70700D02*
Y72200D01*
X184400Y35600D02*
Y36400D01*
Y38500D02*
Y39300D01*
Y68600D02*
Y69400D01*
Y70700D02*
Y72000D01*
X184500Y35600D02*
Y36300D01*
Y38500D02*
Y39300D01*
Y68600D02*
Y69400D01*
Y70700D02*
Y71800D01*
X184600Y35600D02*
Y36300D01*
Y38500D02*
Y39300D01*
Y68500D02*
Y69300D01*
Y70700D02*
Y71600D01*
X184700Y35600D02*
Y36300D01*
Y38500D02*
Y39300D01*
Y68500D02*
Y69300D01*
Y70600D02*
Y71400D01*
X184800Y35600D02*
Y36300D01*
Y38600D02*
Y39300D01*
Y68400D02*
Y69200D01*
Y70600D02*
Y71400D01*
X184900Y35600D02*
Y36300D01*
Y38600D02*
Y39300D01*
Y68200D02*
Y69200D01*
Y70600D02*
Y71400D01*
X185000Y35600D02*
Y36300D01*
Y38600D02*
Y39300D01*
Y68000D02*
Y69200D01*
Y70500D02*
Y71300D01*
X185100Y35600D02*
Y36300D01*
Y38600D02*
Y39300D01*
Y67800D02*
Y69100D01*
Y70500D02*
Y71300D01*
X185200Y35600D02*
Y36300D01*
Y38600D02*
Y39400D01*
Y67700D02*
Y69100D01*
Y70500D02*
Y71300D01*
X185300Y35500D02*
Y36300D01*
Y38600D02*
Y39600D01*
Y67600D02*
Y69000D01*
Y70500D02*
Y71200D01*
X185400Y35500D02*
Y36300D01*
Y38600D02*
Y40100D01*
Y67600D02*
Y68900D01*
Y70400D02*
Y71200D01*
X185500Y35500D02*
Y36300D01*
Y38600D02*
Y40500D01*
Y67600D02*
Y68700D01*
Y70400D02*
Y71200D01*
X185600Y35500D02*
Y36300D01*
Y38600D02*
Y40900D01*
Y67700D02*
Y68500D01*
Y70400D02*
Y71100D01*
X185700Y35500D02*
Y36300D01*
Y38700D02*
Y41300D01*
Y67700D02*
Y68500D01*
Y70300D02*
Y71100D01*
X185800Y35500D02*
Y36300D01*
Y38700D02*
Y41800D01*
Y67800D02*
Y68600D01*
Y70300D02*
Y71100D01*
X185900Y35500D02*
Y36300D01*
Y38900D02*
Y42200D01*
Y67800D02*
Y68600D01*
Y70300D02*
Y71100D01*
X186000Y35500D02*
Y36300D01*
Y39300D02*
Y42400D01*
Y67800D02*
Y68600D01*
Y70300D02*
Y71000D01*
X186100Y35500D02*
Y36300D01*
Y39800D02*
Y42500D01*
Y67900D02*
Y68700D01*
Y70200D02*
Y71000D01*
X186200Y35500D02*
Y36300D01*
Y40200D02*
Y42700D01*
Y67900D02*
Y68700D01*
Y70200D02*
Y71000D01*
X186300Y35500D02*
Y36300D01*
Y40600D02*
Y42800D01*
Y67900D02*
Y68600D01*
Y70200D02*
Y70900D01*
X186400Y35500D02*
Y36300D01*
Y41000D02*
Y43000D01*
Y67900D02*
Y68600D01*
Y70100D02*
Y70900D01*
X186500Y35500D02*
Y36300D01*
Y41500D02*
Y43100D01*
Y67800D02*
Y68600D01*
Y70100D02*
Y70900D01*
X186600Y35500D02*
Y36300D01*
Y41900D02*
Y43300D01*
Y67800D02*
Y68600D01*
Y70100D02*
Y70900D01*
X186700Y35500D02*
Y36300D01*
Y42100D02*
Y43500D01*
Y67800D02*
Y68600D01*
Y70100D02*
Y70800D01*
X186800Y35500D02*
Y36300D01*
Y42200D02*
Y43600D01*
Y67800D02*
Y68500D01*
Y70000D02*
Y70800D01*
X186900Y35500D02*
Y36300D01*
Y42400D02*
Y43800D01*
Y67700D02*
Y68500D01*
Y70000D02*
Y70800D01*
X187000Y35500D02*
Y36300D01*
Y42500D02*
Y43900D01*
Y67700D02*
Y68500D01*
Y70100D02*
Y70800D01*
X187100Y35500D02*
Y36300D01*
Y42700D02*
Y44100D01*
Y67700D02*
Y68500D01*
Y70100D02*
Y70800D01*
X187200Y35500D02*
Y36300D01*
Y42900D02*
Y44200D01*
Y67700D02*
Y68400D01*
Y70100D02*
Y70900D01*
X187300Y35500D02*
Y36300D01*
Y43000D02*
Y44400D01*
Y67600D02*
Y68400D01*
Y70100D02*
Y70900D01*
X187400Y35500D02*
Y36300D01*
Y43200D02*
Y44500D01*
Y67600D02*
Y68400D01*
Y70100D02*
Y70900D01*
X187500Y35500D02*
Y36300D01*
Y43300D02*
Y44700D01*
Y67600D02*
Y68400D01*
Y70100D02*
Y70900D01*
X187600Y35500D02*
Y36300D01*
Y43500D02*
Y44900D01*
Y67600D02*
Y68300D01*
Y70200D02*
Y70900D01*
X187700Y35500D02*
Y36300D01*
Y43600D02*
Y45000D01*
Y67600D02*
Y68300D01*
Y70200D02*
Y70900D01*
X187800Y35500D02*
Y36300D01*
Y43800D02*
Y45200D01*
Y67500D02*
Y68300D01*
Y70200D02*
Y71000D01*
X187900Y35500D02*
Y36300D01*
Y43900D02*
Y45300D01*
Y67500D02*
Y68300D01*
Y70200D02*
Y71000D01*
X188000Y35500D02*
Y36300D01*
Y44100D02*
Y45500D01*
Y67500D02*
Y68200D01*
Y70200D02*
Y71000D01*
X188100Y35500D02*
Y36400D01*
Y44300D02*
Y45600D01*
Y67500D02*
Y68200D01*
Y70300D02*
Y71000D01*
X188200Y35600D02*
Y36500D01*
Y44400D02*
Y45800D01*
Y67400D02*
Y68200D01*
Y70300D02*
Y71000D01*
X188300Y35600D02*
Y36500D01*
Y44600D02*
Y45900D01*
Y67400D02*
Y68200D01*
Y70300D02*
Y71000D01*
X188400Y35700D02*
Y36600D01*
Y44700D02*
Y46100D01*
Y67400D02*
Y68200D01*
Y70300D02*
Y71100D01*
X188500Y35800D02*
Y36700D01*
Y44900D02*
Y46300D01*
Y67400D02*
Y68100D01*
Y70300D02*
Y71100D01*
X188600Y35800D02*
Y36900D01*
Y45000D02*
Y46400D01*
Y67300D02*
Y68100D01*
Y70300D02*
Y71100D01*
X188700Y35900D02*
Y37100D01*
Y45200D02*
Y46600D01*
Y67300D02*
Y68100D01*
Y70400D02*
Y71100D01*
X188800Y36000D02*
Y37300D01*
Y45300D02*
Y46700D01*
Y67300D02*
Y68100D01*
Y70400D02*
Y71100D01*
X188900Y36000D02*
Y37500D01*
Y45500D02*
Y46900D01*
Y67300D02*
Y68000D01*
Y70400D02*
Y71200D01*
X189000Y36100D02*
Y37700D01*
Y45700D02*
Y47000D01*
Y67200D02*
Y68000D01*
Y70400D02*
Y71200D01*
X189100Y36300D02*
Y37900D01*
Y45800D02*
Y47200D01*
Y67200D02*
Y68000D01*
Y70400D02*
Y71200D01*
X189200Y36500D02*
Y38000D01*
Y46000D02*
Y47300D01*
Y67200D02*
Y68000D01*
Y70500D02*
Y71200D01*
X189300Y36700D02*
Y38200D01*
Y46100D02*
Y47500D01*
Y67200D02*
Y67900D01*
Y70500D02*
Y71300D01*
X189400Y36900D02*
Y38300D01*
Y46300D02*
Y47600D01*
Y67200D02*
Y67900D01*
Y70500D02*
Y71300D01*
X189500Y37100D02*
Y38500D01*
Y46400D02*
Y47800D01*
Y67100D02*
Y67900D01*
Y70600D02*
Y71300D01*
X189600Y37200D02*
Y38600D01*
Y46600D02*
Y48000D01*
Y67100D02*
Y67900D01*
Y70600D02*
Y71400D01*
X189700Y37400D02*
Y38700D01*
Y46700D02*
Y48100D01*
Y67100D02*
Y67800D01*
Y70600D02*
Y71400D01*
X189800Y37600D02*
Y38800D01*
Y46900D02*
Y48300D01*
Y67100D02*
Y67800D01*
Y70600D02*
Y71400D01*
X189900Y37700D02*
Y39000D01*
Y47000D02*
Y48400D01*
Y67000D02*
Y67800D01*
Y70700D02*
Y71400D01*
X190000Y37900D02*
Y39100D01*
Y47200D02*
Y48600D01*
Y67000D02*
Y67800D01*
Y70700D02*
Y71500D01*
X190100Y38000D02*
Y39200D01*
Y47400D02*
Y48700D01*
Y67000D02*
Y67800D01*
Y70700D02*
Y71500D01*
X190200Y38100D02*
Y39300D01*
Y47500D02*
Y48900D01*
Y67000D02*
Y67700D01*
Y70700D02*
Y71500D01*
X190300Y38300D02*
Y39400D01*
Y47700D02*
Y49100D01*
Y56500D02*
Y59300D01*
Y66900D02*
Y67700D01*
Y70800D02*
Y71500D01*
X190400Y38400D02*
Y39400D01*
Y47800D02*
Y49200D01*
Y56100D02*
Y60200D01*
Y66900D02*
Y67700D01*
Y70800D02*
Y71600D01*
X190500Y38500D02*
Y39500D01*
Y48000D02*
Y49400D01*
Y55600D02*
Y60900D01*
Y66900D02*
Y67700D01*
Y70800D02*
Y71600D01*
X190600Y38600D02*
Y39600D01*
Y48100D02*
Y49500D01*
Y55100D02*
Y61500D01*
Y66900D02*
Y67600D01*
Y70800D02*
Y71600D01*
X190700Y38700D02*
Y39700D01*
Y48200D02*
Y49700D01*
Y54700D02*
Y62000D01*
Y66800D02*
Y67600D01*
Y70900D02*
Y71600D01*
X190800Y38800D02*
Y39800D01*
Y48300D02*
Y50000D01*
Y54200D02*
Y62500D01*
Y66600D02*
Y67600D01*
Y70900D02*
Y71700D01*
X190900Y38900D02*
Y39800D01*
Y48400D02*
Y50500D01*
Y53700D02*
Y62900D01*
Y66500D02*
Y67600D01*
Y70900D02*
Y71700D01*
X191000Y39000D02*
Y39900D01*
Y48400D02*
Y51200D01*
Y53300D02*
Y57100D01*
Y58600D02*
Y63400D01*
Y66400D02*
Y67600D01*
Y70900D02*
Y71700D01*
X191100Y39100D02*
Y40000D01*
Y48500D02*
Y52000D01*
Y52800D02*
Y56400D01*
Y59800D02*
Y63800D01*
Y66200D02*
Y67600D01*
Y71000D02*
Y71700D01*
X191200Y39100D02*
Y40000D01*
Y48600D02*
Y55900D01*
Y60500D02*
Y64200D01*
Y66100D02*
Y67700D01*
Y71000D02*
Y71800D01*
X191300Y39200D02*
Y40100D01*
Y48600D02*
Y55400D01*
Y61100D02*
Y64600D01*
Y65900D02*
Y67700D01*
Y71000D02*
Y71800D01*
X191400Y39300D02*
Y40100D01*
Y48700D02*
Y55000D01*
Y61700D02*
Y65000D01*
Y65800D02*
Y67700D01*
Y71000D02*
Y71800D01*
X191500Y39300D02*
Y40200D01*
Y48800D02*
Y54500D01*
Y62200D02*
Y65300D01*
Y65700D02*
Y67700D01*
Y71100D02*
Y71800D01*
X191600Y39400D02*
Y40200D01*
Y48900D02*
Y49700D01*
Y50200D02*
Y54000D01*
Y62600D02*
Y66800D01*
Y67000D02*
Y67800D01*
Y71100D02*
Y71900D01*
X191700Y39400D02*
Y40300D01*
Y48900D02*
Y49800D01*
Y50800D02*
Y53600D01*
Y63100D02*
Y66700D01*
Y67000D02*
Y67800D01*
Y71100D02*
Y71900D01*
X191800Y39500D02*
Y40300D01*
Y49000D02*
Y49900D01*
Y51600D02*
Y53100D01*
Y63500D02*
Y66500D01*
Y67100D02*
Y67800D01*
Y71200D02*
Y71900D01*
X191900Y39500D02*
Y40400D01*
Y49000D02*
Y49900D01*
Y52400D02*
Y52600D01*
Y63900D02*
Y66400D01*
Y67100D02*
Y67900D01*
Y71200D02*
Y72000D01*
X192000Y39600D02*
Y40400D01*
Y49100D02*
Y50000D01*
Y64300D02*
Y66300D01*
Y67100D02*
Y67900D01*
Y71200D02*
Y72000D01*
X192100Y39600D02*
Y40400D01*
Y49200D02*
Y50100D01*
Y64700D02*
Y66100D01*
Y67100D02*
Y67900D01*
Y71200D02*
Y72000D01*
X192200Y39700D02*
Y40500D01*
Y49200D02*
Y50100D01*
Y65000D02*
Y66000D01*
Y67200D02*
Y67900D01*
Y71300D02*
Y72000D01*
X192300Y39700D02*
Y40500D01*
Y49300D02*
Y50200D01*
Y65400D02*
Y65800D01*
Y67200D02*
Y68000D01*
Y71300D02*
Y72100D01*
X192400Y39700D02*
Y40500D01*
Y49400D02*
Y50200D01*
Y67200D02*
Y68000D01*
Y71300D02*
Y72100D01*
X192500Y39800D02*
Y40500D01*
Y49400D02*
Y50300D01*
Y67200D02*
Y68000D01*
Y71300D02*
Y72100D01*
X192600Y39800D02*
Y40600D01*
Y49500D02*
Y50400D01*
Y67300D02*
Y68000D01*
Y71400D02*
Y72100D01*
X192700Y39800D02*
Y40600D01*
Y49600D02*
Y50400D01*
Y67300D02*
Y68100D01*
Y71400D02*
Y72200D01*
X192800Y39800D02*
Y40600D01*
Y49600D02*
Y50500D01*
Y67300D02*
Y68100D01*
Y71400D02*
Y72200D01*
X192900Y39900D02*
Y40600D01*
Y49700D02*
Y50500D01*
Y67400D02*
Y68100D01*
Y71400D02*
Y72200D01*
X193000Y39900D02*
Y40600D01*
Y49700D02*
Y50600D01*
Y67400D02*
Y68200D01*
Y71500D02*
Y72300D01*
X193100Y39900D02*
Y40700D01*
Y49800D02*
Y50600D01*
Y67400D02*
Y68200D01*
Y71500D02*
Y72400D01*
X193200Y39900D02*
Y40700D01*
Y49800D02*
Y50700D01*
Y67400D02*
Y68200D01*
Y71600D02*
Y72400D01*
X193300Y39900D02*
Y40700D01*
Y49900D02*
Y50800D01*
Y67500D02*
Y68300D01*
Y71600D02*
Y72500D01*
X193400Y39900D02*
Y40600D01*
Y50000D02*
Y50800D01*
Y67500D02*
Y68300D01*
Y71700D02*
Y72500D01*
X193500Y39900D02*
Y40600D01*
Y50000D02*
Y50900D01*
Y67500D02*
Y68300D01*
Y71700D02*
Y72600D01*
X193600Y39900D02*
Y40600D01*
Y50100D02*
Y50900D01*
Y67600D02*
Y68300D01*
Y71800D02*
Y72600D01*
X193700Y39800D02*
Y40600D01*
Y50100D02*
Y51000D01*
Y67600D02*
Y68400D01*
Y71800D02*
Y72700D01*
X193800Y39800D02*
Y40600D01*
Y50200D02*
Y51000D01*
Y67600D02*
Y68400D01*
Y71900D02*
Y72800D01*
X193900Y39800D02*
Y40500D01*
Y50200D02*
Y51000D01*
Y67700D02*
Y68400D01*
Y71900D02*
Y72800D01*
X194000Y39800D02*
Y40500D01*
Y50300D02*
Y51100D01*
Y67700D02*
Y68500D01*
Y72000D02*
Y72900D01*
X194100Y39700D02*
Y40500D01*
Y50300D02*
Y51100D01*
Y67700D02*
Y68500D01*
Y72100D02*
Y72900D01*
X194200Y39700D02*
Y40500D01*
Y50400D02*
Y51200D01*
Y67800D02*
Y68600D01*
Y72100D02*
Y73000D01*
X194300Y39700D02*
Y40400D01*
Y50400D02*
Y51200D01*
Y67800D02*
Y68600D01*
Y72200D02*
Y73000D01*
X194400Y39700D02*
Y40400D01*
Y50400D02*
Y51200D01*
Y67800D02*
Y68600D01*
Y72200D02*
Y73100D01*
X194500Y39600D02*
Y40400D01*
Y50500D02*
Y51300D01*
Y67900D02*
Y68700D01*
Y72300D02*
Y73100D01*
X194600Y39600D02*
Y40400D01*
Y50500D02*
Y51300D01*
Y67900D02*
Y68700D01*
Y72300D02*
Y73200D01*
X194700Y39600D02*
Y40300D01*
Y50600D02*
Y51300D01*
Y67900D02*
Y68700D01*
Y72400D02*
Y73300D01*
X194800Y39600D02*
Y40300D01*
Y50600D02*
Y51400D01*
Y68000D02*
Y68800D01*
Y72500D02*
Y73300D01*
X194900Y39600D02*
Y40300D01*
Y50600D02*
Y51400D01*
Y68000D02*
Y68800D01*
Y72500D02*
Y73400D01*
X195000Y39500D02*
Y40300D01*
Y50700D02*
Y51400D01*
Y68100D02*
Y68900D01*
Y72600D02*
Y73400D01*
X195100Y39500D02*
Y40200D01*
Y50700D02*
Y51400D01*
Y68100D02*
Y68900D01*
Y72600D02*
Y73500D01*
X195200Y39500D02*
Y40200D01*
Y50700D02*
Y51500D01*
Y68100D02*
Y69000D01*
Y72700D02*
Y73500D01*
X195300Y39500D02*
Y40200D01*
Y50700D02*
Y51500D01*
Y68200D02*
Y69000D01*
Y72700D02*
Y73600D01*
X195400Y39400D02*
Y40200D01*
Y50700D02*
Y51500D01*
Y68200D02*
Y69100D01*
Y72800D02*
Y73700D01*
X195500Y39400D02*
Y40100D01*
Y50800D02*
Y51500D01*
Y68300D02*
Y69100D01*
Y72900D02*
Y73700D01*
X195600Y39400D02*
Y40100D01*
Y50800D02*
Y51500D01*
Y68300D02*
Y69200D01*
Y72900D02*
Y73800D01*
X195700Y39400D02*
Y40100D01*
Y50800D02*
Y51500D01*
Y68400D02*
Y69200D01*
Y73000D02*
Y73800D01*
X195800Y39300D02*
Y40100D01*
Y50800D02*
Y51500D01*
Y68400D02*
Y69300D01*
Y73000D02*
Y73900D01*
X195900Y39300D02*
Y40000D01*
Y50700D02*
Y51500D01*
Y68500D02*
Y69300D01*
Y73100D02*
Y73900D01*
X196000Y39300D02*
Y40000D01*
Y50800D02*
Y51500D01*
Y68500D02*
Y69300D01*
Y73100D02*
Y74000D01*
X196100Y39300D02*
Y40000D01*
Y50800D02*
Y51400D01*
Y68600D02*
Y69200D01*
Y73200D02*
Y74100D01*
X196200Y39200D02*
Y40000D01*
Y50800D02*
Y51400D01*
Y68600D02*
Y69000D01*
Y73200D02*
Y74100D01*
X196300Y39200D02*
Y39900D01*
Y50800D02*
Y51400D01*
Y68700D02*
Y68800D01*
Y73300D02*
Y74200D01*
X196400Y39200D02*
Y39900D01*
Y50800D02*
Y51300D01*
Y73400D02*
Y74200D01*
X196500Y39200D02*
Y39900D01*
Y50800D02*
Y51200D01*
Y73400D02*
Y74300D01*
X196600Y39100D02*
Y39900D01*
Y50900D02*
Y51000D01*
Y73500D02*
Y74300D01*
X196700Y39100D02*
Y39900D01*
Y73500D02*
Y74400D01*
X196800Y39100D02*
Y39800D01*
Y73600D02*
Y74400D01*
X196900Y39100D02*
Y39800D01*
Y73600D02*
Y74500D01*
X197000Y39000D02*
Y39800D01*
Y73700D02*
Y74600D01*
X197100Y39000D02*
Y39800D01*
Y73800D02*
Y74600D01*
X197200Y39000D02*
Y39700D01*
Y73800D02*
Y74700D01*
X197300Y39000D02*
Y39700D01*
Y73900D02*
Y74700D01*
X197400Y38900D02*
Y39700D01*
Y73900D02*
Y74800D01*
X197500Y38900D02*
Y39700D01*
Y74000D02*
Y74800D01*
X197600Y38900D02*
Y39600D01*
Y74000D02*
Y74900D01*
X197700Y38900D02*
Y39600D01*
Y74100D02*
Y75000D01*
X197800Y38900D02*
Y39600D01*
Y74200D02*
Y75000D01*
X197900Y38800D02*
Y39600D01*
Y74200D02*
Y75100D01*
X198000Y38800D02*
Y39500D01*
Y74300D02*
Y75100D01*
X198100Y38800D02*
Y39500D01*
Y74300D02*
Y75200D01*
X198200Y38800D02*
Y39500D01*
Y74400D02*
Y75200D01*
X198300Y38700D02*
Y39500D01*
Y74400D02*
Y75300D01*
X198400Y38700D02*
Y39400D01*
Y74500D02*
Y75400D01*
X198500Y38700D02*
Y39400D01*
Y74500D02*
Y75400D01*
X198600Y38700D02*
Y39400D01*
Y74600D02*
Y75500D01*
X198700Y38600D02*
Y39400D01*
Y74700D02*
Y75500D01*
X198800Y38600D02*
Y39300D01*
Y74700D02*
Y75600D01*
X198900Y38600D02*
Y39300D01*
Y74800D02*
Y75600D01*
X199000Y38500D02*
Y39300D01*
Y74800D02*
Y75700D01*
X199100Y38500D02*
Y39300D01*
Y74900D02*
Y75700D01*
X199200Y38400D02*
Y39200D01*
Y74900D02*
Y75800D01*
X199300Y38400D02*
Y39200D01*
Y75000D02*
Y75900D01*
X199400Y38400D02*
Y39200D01*
Y75100D02*
Y75900D01*
X199500Y38400D02*
Y39200D01*
Y75100D02*
Y76000D01*
X199600Y38500D02*
Y39200D01*
Y75200D02*
Y76000D01*
X199700Y38500D02*
Y39300D01*
Y75200D02*
Y76100D01*
X199800Y38500D02*
Y39300D01*
Y75300D02*
Y76100D01*
X199900Y38500D02*
Y39400D01*
Y75300D02*
Y76200D01*
X200000Y38600D02*
Y39400D01*
Y75400D02*
Y76200D01*
X200100Y38600D02*
Y39400D01*
Y75400D02*
Y76300D01*
X200200Y38700D02*
Y39500D01*
Y75500D02*
Y76300D01*
X200300Y38700D02*
Y39500D01*
Y75500D02*
Y76400D01*
X200400Y38800D02*
Y39600D01*
Y75600D02*
Y76400D01*
X200500Y38800D02*
Y39700D01*
Y75600D02*
Y76400D01*
X200600Y38900D02*
Y39700D01*
Y75700D02*
Y76500D01*
X200700Y38900D02*
Y39800D01*
Y75700D02*
Y76500D01*
X200800Y39000D02*
Y39800D01*
Y75800D02*
Y76600D01*
X200900Y39000D02*
Y39900D01*
Y75800D02*
Y76600D01*
X201000Y39100D02*
Y40000D01*
Y75800D02*
Y76700D01*
X201100Y39100D02*
Y40000D01*
Y75900D02*
Y76700D01*
X201200Y39200D02*
Y40100D01*
Y75900D02*
Y76800D01*
X201300Y39300D02*
Y40200D01*
Y76000D02*
Y76800D01*
X201400Y39300D02*
Y40200D01*
Y76000D02*
Y76900D01*
X201500Y39400D02*
Y40300D01*
Y76100D02*
Y76900D01*
X201600Y39500D02*
Y40400D01*
Y76100D02*
Y76900D01*
X201700Y39500D02*
Y40400D01*
Y76200D02*
Y77000D01*
X201800Y39600D02*
Y40500D01*
Y76200D02*
Y77000D01*
X201900Y39700D02*
Y40600D01*
Y76300D02*
Y77000D01*
X202000Y39700D02*
Y40700D01*
Y76300D02*
Y77000D01*
X202100Y39800D02*
Y40700D01*
Y76300D02*
Y77100D01*
X202200Y39900D02*
Y40800D01*
Y76300D02*
Y77100D01*
X202300Y40000D02*
Y40900D01*
Y76300D02*
Y77100D01*
X202400Y40000D02*
Y41000D01*
Y76400D02*
Y77100D01*
X202500Y40100D02*
Y41100D01*
Y76400D02*
Y77200D01*
X202600Y40200D02*
Y41100D01*
Y76400D02*
Y77200D01*
X202700Y40300D02*
Y41200D01*
Y76400D02*
Y77200D01*
X202800Y40300D02*
Y41300D01*
Y76500D02*
Y77200D01*
X202900Y40400D02*
Y41400D01*
Y76500D02*
Y77200D01*
X203000Y40500D02*
Y41500D01*
Y76500D02*
Y77300D01*
X203100Y40600D02*
Y41600D01*
Y76500D02*
Y77300D01*
X203200Y40700D02*
Y41700D01*
Y76500D02*
Y77300D01*
X203300Y40800D02*
Y41800D01*
Y76600D02*
Y77300D01*
X203400Y40800D02*
Y41900D01*
Y76600D02*
Y77400D01*
X203500Y40900D02*
Y42000D01*
Y76600D02*
Y77400D01*
X203600Y41000D02*
Y42100D01*
Y76600D02*
Y77400D01*
X203700Y41100D02*
Y42200D01*
Y76600D02*
Y77400D01*
X203800Y41200D02*
Y42300D01*
Y76700D02*
Y77400D01*
X203900Y41300D02*
Y42400D01*
Y76700D02*
Y77500D01*
X204000Y41400D02*
Y42500D01*
Y76700D02*
Y77500D01*
X204100Y41500D02*
Y42600D01*
Y76700D02*
Y77500D01*
X204200Y41600D02*
Y42700D01*
Y76800D02*
Y77500D01*
X204300Y41700D02*
Y42800D01*
Y76800D02*
Y77500D01*
X204400Y41800D02*
Y42900D01*
Y76800D02*
Y77600D01*
X204500Y41900D02*
Y43000D01*
Y76800D02*
Y77600D01*
X204600Y42000D02*
Y43100D01*
Y76800D02*
Y77600D01*
X204700Y42100D02*
Y43200D01*
Y76900D02*
Y77600D01*
X204800Y42200D02*
Y43400D01*
Y76900D02*
Y77700D01*
X204900Y42300D02*
Y43500D01*
Y76900D02*
Y77700D01*
X205000Y42400D02*
Y43600D01*
Y76900D02*
Y77700D01*
X205100Y42600D02*
Y43700D01*
Y77000D02*
Y77700D01*
X205200Y42700D02*
Y43900D01*
Y77000D02*
Y77700D01*
X205300Y42800D02*
Y44000D01*
Y77000D02*
Y77800D01*
X205400Y42900D02*
Y44100D01*
Y77000D02*
Y83600D01*
X205500Y43000D02*
Y44200D01*
Y76400D02*
Y83700D01*
X205600Y43200D02*
Y44400D01*
Y76100D02*
Y83700D01*
X205700Y43300D02*
Y44500D01*
Y75800D02*
Y83800D01*
X205800Y43400D02*
Y44700D01*
Y75600D02*
Y83800D01*
X205900Y43500D02*
Y44800D01*
Y75400D02*
Y83900D01*
X206000Y43700D02*
Y44900D01*
Y75200D02*
Y84000D01*
X206100Y43800D02*
Y45100D01*
Y75100D02*
Y84000D01*
X206200Y43900D02*
Y45300D01*
Y74900D02*
Y76700D01*
Y83200D02*
Y84100D01*
X206300Y44100D02*
Y45400D01*
Y74800D02*
Y76400D01*
Y83300D02*
Y84200D01*
X206400Y44200D02*
Y45600D01*
Y74600D02*
Y76100D01*
Y83300D02*
Y84300D01*
X206500Y44400D02*
Y45700D01*
Y74500D02*
Y75900D01*
Y83400D02*
Y84500D01*
X206600Y44500D02*
Y45900D01*
Y74400D02*
Y75700D01*
Y83400D02*
Y84700D01*
X206700Y44600D02*
Y46100D01*
Y74300D02*
Y75500D01*
Y83500D02*
Y84900D01*
X206800Y44800D02*
Y46200D01*
Y74100D02*
Y75400D01*
Y83600D02*
Y85000D01*
X206900Y45000D02*
Y46400D01*
Y74000D02*
Y75200D01*
Y83700D02*
Y85100D01*
X207000Y45100D02*
Y46600D01*
Y74000D02*
Y75100D01*
Y83900D02*
Y85200D01*
X207100Y45300D02*
Y46800D01*
Y74100D02*
Y75000D01*
Y84100D02*
Y85200D01*
X207200Y45400D02*
Y47000D01*
Y74100D02*
Y74800D01*
Y84300D02*
Y85300D01*
X207300Y45600D02*
Y47200D01*
Y74200D02*
Y74700D01*
Y84400D02*
Y85400D01*
X207400Y45800D02*
Y47400D01*
Y74300D02*
Y74600D01*
Y84600D02*
Y85400D01*
X207500Y46000D02*
Y47600D01*
Y64900D02*
Y65100D01*
Y74400D02*
Y74500D01*
Y84600D02*
Y85500D01*
X207600Y46100D02*
Y47800D01*
Y64800D02*
Y65200D01*
Y84700D02*
Y85500D01*
X207700Y46300D02*
Y48000D01*
Y64700D02*
Y65300D01*
Y84700D02*
Y85600D01*
X207800Y46500D02*
Y48300D01*
Y64600D02*
Y65400D01*
Y84800D02*
Y85600D01*
X207900Y46700D02*
Y48500D01*
Y64500D02*
Y65500D01*
Y84800D02*
Y85600D01*
X208000Y46900D02*
Y48800D01*
Y64400D02*
Y65700D01*
Y84900D02*
Y85700D01*
X208100Y47100D02*
Y49000D01*
Y64100D02*
Y65800D01*
Y84900D02*
Y85700D01*
X208200Y47300D02*
Y49300D01*
Y63800D02*
Y65900D01*
Y84900D02*
Y85700D01*
X208300Y47500D02*
Y49600D01*
Y63400D02*
Y66000D01*
Y85000D02*
Y85800D01*
X208400Y47800D02*
Y49900D01*
Y63000D02*
Y66100D01*
Y85000D02*
Y85800D01*
X208500Y48000D02*
Y50200D01*
Y62700D02*
Y66200D01*
Y85000D02*
Y85800D01*
X208600Y48200D02*
Y50600D01*
Y62300D02*
Y65000D01*
Y65200D02*
Y66300D01*
Y85100D02*
Y85800D01*
X208700Y48500D02*
Y50900D01*
Y61800D02*
Y64700D01*
Y65300D02*
Y66500D01*
Y85100D02*
Y85900D01*
X208800Y48800D02*
Y51300D01*
Y61400D02*
Y64400D01*
Y65400D02*
Y66600D01*
Y85100D02*
Y85900D01*
X208900Y49000D02*
Y51800D01*
Y60900D02*
Y64000D01*
Y65500D02*
Y66700D01*
Y85100D02*
Y85900D01*
X209000Y49300D02*
Y52300D01*
Y60300D02*
Y63700D01*
Y65700D02*
Y66800D01*
Y85100D02*
Y85900D01*
X209100Y49600D02*
Y52900D01*
Y59600D02*
Y63300D01*
Y65800D02*
Y66900D01*
Y85200D02*
Y85900D01*
X209200Y49900D02*
Y53600D01*
Y58800D02*
Y63000D01*
Y65900D02*
Y67000D01*
Y85200D02*
Y85900D01*
X209300Y50300D02*
Y54700D01*
Y57700D02*
Y62500D01*
Y66000D02*
Y67200D01*
Y85200D02*
Y85900D01*
X209400Y50700D02*
Y62100D01*
Y66100D02*
Y67300D01*
Y85200D02*
Y85900D01*
X209500Y51100D02*
Y61700D01*
Y66200D02*
Y67400D01*
Y85200D02*
Y85900D01*
X209600Y51500D02*
Y61200D01*
Y66400D02*
Y67500D01*
Y85200D02*
Y86000D01*
X209700Y52000D02*
Y60600D01*
Y66500D02*
Y67600D01*
Y85200D02*
Y86000D01*
X209800Y52500D02*
Y60000D01*
Y66600D02*
Y67700D01*
Y85200D02*
Y86000D01*
X209900Y53200D02*
Y59300D01*
Y66700D02*
Y67800D01*
Y85200D02*
Y86000D01*
X210000Y54100D02*
Y58300D01*
Y66800D02*
Y68000D01*
Y85200D02*
Y85900D01*
X210100Y66900D02*
Y68100D01*
Y85200D02*
Y85900D01*
X210200Y67000D02*
Y68200D01*
Y85200D02*
Y85900D01*
X210300Y67200D02*
Y68300D01*
Y85200D02*
Y85900D01*
X210400Y67300D02*
Y68400D01*
Y85200D02*
Y85900D01*
X210500Y67400D02*
Y68500D01*
Y85200D02*
Y85900D01*
X210600Y67500D02*
Y68600D01*
Y85200D02*
Y85900D01*
X210700Y67600D02*
Y68800D01*
Y85100D02*
Y85900D01*
X210800Y67700D02*
Y68900D01*
Y85100D02*
Y85900D01*
X210900Y67800D02*
Y69000D01*
Y85100D02*
Y85900D01*
X211000Y68000D02*
Y69100D01*
Y85100D02*
Y85900D01*
X211100Y68100D02*
Y69200D01*
Y85100D02*
Y85800D01*
X211200Y68200D02*
Y69300D01*
Y85100D02*
Y85800D01*
X211300Y68300D02*
Y69500D01*
Y85000D02*
Y85800D01*
X211400Y68400D02*
Y69600D01*
Y85000D02*
Y85800D01*
X211500Y68500D02*
Y69700D01*
Y85000D02*
Y85800D01*
X211600Y68700D02*
Y69800D01*
Y84900D02*
Y85700D01*
X211700Y68800D02*
Y69900D01*
Y84700D02*
Y85700D01*
X211800Y68900D02*
Y70000D01*
Y84600D02*
Y85700D01*
X211900Y69000D02*
Y70100D01*
Y84400D02*
Y85700D01*
X212000Y69100D02*
Y70300D01*
Y71700D02*
Y71900D01*
Y84300D02*
Y85600D01*
X212100Y69200D02*
Y70400D01*
Y71600D02*
Y71900D01*
Y84200D02*
Y85500D01*
X212200Y69300D02*
Y70500D01*
Y71500D02*
Y71900D01*
Y73900D02*
Y74100D01*
Y77000D02*
Y78100D01*
Y84000D02*
Y85300D01*
X212300Y69500D02*
Y70600D01*
Y71500D02*
Y72000D01*
Y73700D02*
Y74200D01*
Y76700D02*
Y78400D01*
Y83900D02*
Y85200D01*
X212400Y69600D02*
Y70700D01*
Y71400D02*
Y72000D01*
Y73600D02*
Y74200D01*
Y76500D02*
Y78600D01*
Y83700D02*
Y85000D01*
X212500Y69700D02*
Y70800D01*
Y71400D02*
Y72000D01*
Y73400D02*
Y74300D01*
Y76400D02*
Y78700D01*
Y83600D02*
Y84900D01*
X212600Y69800D02*
Y71000D01*
Y71400D02*
Y72100D01*
Y73500D02*
Y74300D01*
Y76300D02*
Y76900D01*
Y78200D02*
Y78800D01*
Y83400D02*
Y84800D01*
X212700Y69900D02*
Y71100D01*
Y71400D02*
Y72100D01*
Y73500D02*
Y74400D01*
Y76300D02*
Y76700D01*
Y78400D02*
Y78800D01*
Y83300D02*
Y84600D01*
X212800Y70000D02*
Y71100D01*
Y71400D02*
Y72100D01*
Y73600D02*
Y74400D01*
Y76300D02*
Y76700D01*
Y78400D02*
Y78800D01*
Y83100D02*
Y84500D01*
X212900Y70100D02*
Y71200D01*
Y71400D02*
Y72100D01*
Y73600D02*
Y74400D01*
Y76300D02*
Y76900D01*
Y78200D02*
Y78800D01*
Y83000D02*
Y84300D01*
X213000Y70300D02*
Y71200D01*
Y71400D02*
Y72100D01*
Y73700D02*
Y74500D01*
Y76400D02*
Y77500D01*
Y77600D02*
Y78700D01*
Y82800D02*
Y84200D01*
X213100Y70400D02*
Y71200D01*
Y71400D02*
Y72100D01*
Y73700D02*
Y74500D01*
Y76500D02*
Y78600D01*
Y82700D02*
Y84000D01*
X213200Y70400D02*
Y71100D01*
Y71400D02*
Y72100D01*
Y73700D02*
Y74500D01*
Y76600D02*
Y78500D01*
Y82500D02*
Y83900D01*
X213300Y70400D02*
Y71100D01*
Y71400D02*
Y72200D01*
Y73800D02*
Y74500D01*
Y76900D02*
Y78200D01*
Y82400D02*
Y83700D01*
X213400Y70300D02*
Y71100D01*
Y71400D02*
Y72200D01*
Y73800D02*
Y74500D01*
Y82200D02*
Y83600D01*
X213500Y70300D02*
Y71100D01*
Y71400D02*
Y72200D01*
Y73800D02*
Y74500D01*
Y82100D02*
Y83400D01*
X213600Y70300D02*
Y71100D01*
Y71400D02*
Y72200D01*
Y73800D02*
Y74500D01*
Y81700D02*
Y83300D01*
X213700Y70300D02*
Y71100D01*
Y71400D02*
Y72100D01*
Y73800D02*
Y74500D01*
Y81100D02*
Y83100D01*
X213800Y70300D02*
Y71100D01*
Y71400D02*
Y72100D01*
Y73800D02*
Y74500D01*
Y80500D02*
Y83000D01*
X213900Y70300D02*
Y71100D01*
Y71400D02*
Y72100D01*
Y73800D02*
Y74500D01*
Y79900D02*
Y82800D01*
X214000Y70400D02*
Y71200D01*
Y71400D02*
Y72100D01*
Y73700D02*
Y74500D01*
Y79300D02*
Y82700D01*
X214100Y70400D02*
Y71200D01*
Y71400D02*
Y72200D01*
Y73700D02*
Y74500D01*
Y78700D02*
Y82500D01*
X214200Y70400D02*
Y71200D01*
Y71400D02*
Y72200D01*
Y73600D02*
Y78000D01*
Y78100D02*
Y82400D01*
X214300Y70500D02*
Y71300D01*
Y71400D02*
Y72200D01*
Y73500D02*
Y82000D01*
X214400Y70500D02*
Y71300D01*
Y71500D02*
Y72300D01*
Y73400D02*
Y81400D01*
X214500Y70500D02*
Y71400D01*
Y71500D02*
Y72300D01*
Y73300D02*
Y80900D01*
X214600Y70600D02*
Y72400D01*
Y73200D02*
Y80300D01*
X214700Y70600D02*
Y79700D01*
X214800Y70600D02*
Y79100D01*
X214900Y70700D02*
Y74100D01*
Y76200D02*
Y78500D01*
X215000Y70700D02*
Y74000D01*
X215100Y70700D02*
Y73900D01*
X215200Y71000D02*
Y73700D01*
X215300Y71500D02*
Y73600D01*
X215400Y72000D02*
Y73400D01*
X221500Y127100D02*
Y127700D01*
X221400Y126700D02*
Y128200D01*
X221300Y126500D02*
Y128400D01*
Y125300D02*
Y125500D01*
X221200Y127800D02*
Y128600D01*
Y126300D02*
Y127000D01*
Y125300D02*
Y125600D01*
X221100Y128000D02*
Y128800D01*
Y126000D02*
Y126700D01*
Y125300D02*
Y125600D01*
X221000Y128100D02*
Y128900D01*
Y125300D02*
Y126600D01*
X220900Y128200D02*
Y129100D01*
Y125300D02*
Y126400D01*
X220800Y128300D02*
Y129200D01*
Y125300D02*
Y126300D01*
Y102000D02*
Y102200D01*
X220700Y128400D02*
Y129300D01*
Y125300D02*
Y126200D01*
Y101700D02*
Y102400D01*
X220600Y128400D02*
Y129400D01*
Y125300D02*
Y126100D01*
Y101600D02*
Y102600D01*
X220500Y128500D02*
Y129500D01*
Y125300D02*
Y126100D01*
Y101600D02*
Y102600D01*
X220400Y128500D02*
Y129600D01*
Y125300D02*
Y126000D01*
Y101500D02*
Y102700D01*
X220300Y128600D02*
Y129600D01*
Y125300D02*
Y125900D01*
Y101500D02*
Y102700D01*
X220200Y128600D02*
Y129700D01*
Y125300D02*
Y125900D01*
Y101500D02*
Y102700D01*
X220100Y128600D02*
Y129700D01*
Y125300D02*
Y125800D01*
Y101500D02*
Y102700D01*
X220000Y128600D02*
Y129800D01*
Y125300D02*
Y125800D01*
Y101500D02*
Y102700D01*
X219900Y128600D02*
Y129800D01*
Y125300D02*
Y125700D01*
Y101600D02*
Y102600D01*
X219800Y128700D02*
Y129900D01*
Y125300D02*
Y125700D01*
Y101600D02*
Y102500D01*
X219700Y128700D02*
Y130000D01*
Y125300D02*
Y125600D01*
Y101700D02*
Y102400D01*
X219600Y128700D02*
Y130000D01*
Y125300D02*
Y125600D01*
Y102000D02*
Y102200D01*
X219500Y128700D02*
Y130000D01*
Y125300D02*
Y125600D01*
X219400Y128700D02*
Y130100D01*
Y125300D02*
Y125600D01*
X219300Y128700D02*
Y130100D01*
Y125300D02*
Y125500D01*
X219200Y128700D02*
Y130100D01*
X219100Y128800D02*
Y130200D01*
Y117100D02*
Y117600D01*
Y112900D02*
Y113500D01*
X219000Y128800D02*
Y130200D01*
Y122000D02*
Y123500D01*
Y116900D02*
Y117900D01*
Y112600D02*
Y113900D01*
Y108900D02*
Y110000D01*
Y105100D02*
Y106300D01*
Y103800D02*
Y104300D01*
Y98400D02*
Y99500D01*
X218900Y128800D02*
Y130200D01*
Y121800D02*
Y123800D01*
Y118500D02*
Y120300D01*
Y116800D02*
Y118100D01*
Y114700D02*
Y116500D01*
Y112400D02*
Y114000D01*
Y108700D02*
Y110300D01*
Y104900D02*
Y106500D01*
Y103600D02*
Y104500D01*
Y101500D02*
Y103200D01*
Y98200D02*
Y99700D01*
X218800Y128800D02*
Y130200D01*
Y123300D02*
Y124000D01*
Y121600D02*
Y122600D01*
Y118500D02*
Y120300D01*
Y116700D02*
Y118200D01*
Y114700D02*
Y116500D01*
Y112300D02*
Y114200D01*
Y109700D02*
Y110500D01*
Y108500D02*
Y109300D01*
Y106000D02*
Y106700D01*
Y104700D02*
Y105500D01*
Y104200D02*
Y104600D01*
Y103500D02*
Y104100D01*
Y101500D02*
Y103200D01*
Y99200D02*
Y99900D01*
Y98000D02*
Y98800D01*
X218700Y128800D02*
Y130300D01*
Y123700D02*
Y124100D01*
Y121400D02*
Y122300D01*
Y118500D02*
Y119700D01*
Y118000D02*
Y118300D01*
Y116700D02*
Y117900D01*
Y114700D02*
Y115900D01*
Y114000D02*
Y114400D01*
Y112200D02*
Y113400D01*
Y109900D02*
Y110600D01*
Y108400D02*
Y109100D01*
Y106200D02*
Y106900D01*
Y104500D02*
Y105300D01*
Y103400D02*
Y104200D01*
Y101500D02*
Y102700D01*
Y99400D02*
Y100100D01*
Y97800D02*
Y98600D01*
X218600Y128800D02*
Y130300D01*
Y123700D02*
Y124200D01*
Y121300D02*
Y122300D01*
Y118500D02*
Y119700D01*
Y118100D02*
Y118400D01*
Y116700D02*
Y117900D01*
Y114700D02*
Y115900D01*
Y114100D02*
Y114500D01*
Y112200D02*
Y113300D01*
Y110000D02*
Y110700D01*
Y108300D02*
Y109100D01*
Y106200D02*
Y107000D01*
Y104500D02*
Y105300D01*
Y103400D02*
Y104200D01*
Y101500D02*
Y102700D01*
Y99400D02*
Y100200D01*
Y97700D02*
Y98500D01*
X218500Y128800D02*
Y130300D01*
Y123500D02*
Y124300D01*
Y121200D02*
Y122200D01*
Y118500D02*
Y119700D01*
Y118200D02*
Y118400D01*
Y116600D02*
Y117900D01*
Y114700D02*
Y115900D01*
Y114200D02*
Y114500D01*
Y112100D02*
Y113300D01*
Y110000D02*
Y110800D01*
Y108200D02*
Y109000D01*
Y106200D02*
Y107100D01*
Y104400D02*
Y105200D01*
Y103500D02*
Y104200D01*
Y101500D02*
Y102700D01*
Y99500D02*
Y100300D01*
Y97600D02*
Y98500D01*
X218400Y128800D02*
Y130300D01*
Y123400D02*
Y124300D01*
Y121200D02*
Y122200D01*
Y118200D02*
Y119700D01*
Y116600D02*
Y117900D01*
Y114700D02*
Y115900D01*
Y114300D02*
Y114600D01*
Y112100D02*
Y113200D01*
Y110000D02*
Y110900D01*
Y108100D02*
Y109000D01*
Y106200D02*
Y107100D01*
Y104400D02*
Y105200D01*
Y103500D02*
Y104100D01*
Y101500D02*
Y102700D01*
Y99500D02*
Y100400D01*
Y97500D02*
Y98500D01*
X218300Y128800D02*
Y130300D01*
Y123300D02*
Y124400D01*
Y121100D02*
Y122200D01*
Y118300D02*
Y119700D01*
Y116700D02*
Y117900D01*
Y114300D02*
Y115900D01*
Y112100D02*
Y113200D01*
Y110100D02*
Y111000D01*
Y108000D02*
Y109000D01*
Y106200D02*
Y107200D01*
Y104300D02*
Y105200D01*
Y103600D02*
Y104000D01*
Y101500D02*
Y102700D01*
Y99500D02*
Y100500D01*
Y97500D02*
Y98400D01*
X218200Y128800D02*
Y130300D01*
Y123300D02*
Y124400D01*
Y121100D02*
Y122200D01*
Y118300D02*
Y119700D01*
Y116700D02*
Y117900D01*
Y114400D02*
Y115900D01*
Y112000D02*
Y113200D01*
Y110100D02*
Y111100D01*
Y108000D02*
Y109000D01*
Y106300D02*
Y107200D01*
Y104300D02*
Y105200D01*
Y101500D02*
Y102700D01*
Y99500D02*
Y100500D01*
Y97400D02*
Y98400D01*
X218100Y128800D02*
Y130300D01*
Y123300D02*
Y124400D01*
Y121100D02*
Y122200D01*
Y118400D02*
Y119700D01*
Y116800D02*
Y117900D01*
Y114500D02*
Y115900D01*
Y112000D02*
Y113200D01*
Y110100D02*
Y111100D01*
Y107900D02*
Y109000D01*
Y106300D02*
Y107300D01*
Y104200D02*
Y105200D01*
Y101500D02*
Y102700D01*
Y99500D02*
Y100600D01*
Y97300D02*
Y98400D01*
X218000Y128800D02*
Y130300D01*
Y123300D02*
Y124400D01*
Y121000D02*
Y122200D01*
Y118400D02*
Y119700D01*
Y116800D02*
Y117800D01*
Y114500D02*
Y115900D01*
Y112000D02*
Y113200D01*
Y110100D02*
Y111200D01*
Y107800D02*
Y109000D01*
Y106300D02*
Y107300D01*
Y104200D02*
Y105200D01*
Y101500D02*
Y102700D01*
Y99500D02*
Y100600D01*
Y97300D02*
Y98400D01*
X217900Y128800D02*
Y130300D01*
Y123300D02*
Y124300D01*
Y121000D02*
Y122200D01*
Y118400D02*
Y119700D01*
Y117000D02*
Y117700D01*
Y114600D02*
Y115900D01*
Y112000D02*
Y113200D01*
Y110100D02*
Y111200D01*
Y107800D02*
Y109000D01*
Y106300D02*
Y107300D01*
Y104200D02*
Y105200D01*
Y101500D02*
Y102700D01*
Y99500D02*
Y100700D01*
Y97200D02*
Y98400D01*
X217800Y128800D02*
Y130300D01*
Y123400D02*
Y124300D01*
Y121000D02*
Y122200D01*
Y118500D02*
Y119700D01*
Y114600D02*
Y115900D01*
Y112000D02*
Y113200D01*
Y110100D02*
Y111300D01*
Y107800D02*
Y109000D01*
Y106300D02*
Y107300D01*
Y104200D02*
Y105200D01*
Y101500D02*
Y102700D01*
Y99500D02*
Y100700D01*
Y97200D02*
Y98400D01*
X217700Y128800D02*
Y130300D01*
Y123500D02*
Y124200D01*
Y121000D02*
Y122200D01*
Y118500D02*
Y119700D01*
Y114600D02*
Y115900D01*
Y112000D02*
Y113200D01*
Y110100D02*
Y111300D01*
Y107700D02*
Y109000D01*
Y106300D02*
Y107300D01*
Y104200D02*
Y105200D01*
Y101500D02*
Y102700D01*
Y99500D02*
Y100700D01*
Y97200D02*
Y98400D01*
X217600Y128800D02*
Y130200D01*
Y121000D02*
Y122200D01*
Y118500D02*
Y119700D01*
Y114700D02*
Y115900D01*
Y112000D02*
Y113200D01*
Y110100D02*
Y111300D01*
Y107700D02*
Y109000D01*
Y106300D02*
Y107300D01*
Y104200D02*
Y105200D01*
Y101500D02*
Y102700D01*
Y99500D02*
Y100800D01*
Y97200D02*
Y98400D01*
X217500Y128800D02*
Y130200D01*
Y121000D02*
Y122200D01*
Y118500D02*
Y119700D01*
Y114700D02*
Y115900D01*
Y112000D02*
Y113200D01*
Y107700D02*
Y111400D01*
Y106300D02*
Y107300D01*
Y104200D02*
Y105200D01*
Y101500D02*
Y102700D01*
Y97100D02*
Y100800D01*
X217400Y128800D02*
Y130200D01*
Y121000D02*
Y122200D01*
Y118500D02*
Y119700D01*
Y114700D02*
Y115900D01*
Y112000D02*
Y113200D01*
Y107700D02*
Y111400D01*
Y106200D02*
Y107200D01*
Y104300D02*
Y105200D01*
Y101500D02*
Y102700D01*
Y97100D02*
Y100800D01*
X217300Y128700D02*
Y130200D01*
Y125300D02*
Y125500D01*
Y121000D02*
Y123000D01*
Y118500D02*
Y119700D01*
Y114700D02*
Y115900D01*
Y112000D02*
Y113200D01*
Y107700D02*
Y111400D01*
Y106200D02*
Y107200D01*
Y104300D02*
Y105200D01*
Y101500D02*
Y102700D01*
Y97100D02*
Y100800D01*
X217200Y128700D02*
Y130200D01*
Y125300D02*
Y125500D01*
Y121000D02*
Y123700D01*
Y118500D02*
Y119700D01*
Y114700D02*
Y115900D01*
Y112000D02*
Y113200D01*
Y110100D02*
Y111400D01*
Y106200D02*
Y107100D01*
Y104400D02*
Y105200D01*
Y101500D02*
Y102700D01*
Y99500D02*
Y100800D01*
X217100Y128700D02*
Y130100D01*
Y125300D02*
Y125600D01*
Y122400D02*
Y124000D01*
Y121000D02*
Y122200D01*
Y118500D02*
Y119700D01*
Y114700D02*
Y115900D01*
Y112000D02*
Y113200D01*
Y110100D02*
Y111400D01*
Y106200D02*
Y107100D01*
Y104400D02*
Y105300D01*
Y101500D02*
Y102700D01*
Y99500D02*
Y100800D01*
X217000Y128700D02*
Y130100D01*
Y125300D02*
Y125600D01*
Y123100D02*
Y124200D01*
Y121000D02*
Y122200D01*
Y118500D02*
Y119700D01*
Y114700D02*
Y115900D01*
Y112000D02*
Y113200D01*
Y110100D02*
Y111400D01*
Y106200D02*
Y107000D01*
Y104500D02*
Y105300D01*
Y101500D02*
Y102700D01*
Y99500D02*
Y100800D01*
X216900Y128700D02*
Y130100D01*
Y125300D02*
Y125600D01*
Y123300D02*
Y124300D01*
Y121000D02*
Y122200D01*
Y118500D02*
Y119700D01*
Y114700D02*
Y115900D01*
Y112000D02*
Y113200D01*
Y110100D02*
Y111400D01*
Y106100D02*
Y106800D01*
Y104600D02*
Y105400D01*
Y101500D02*
Y102700D01*
Y99500D02*
Y100800D01*
X216800Y128700D02*
Y130000D01*
Y125300D02*
Y125600D01*
Y123400D02*
Y124500D01*
Y121000D02*
Y122200D01*
Y118500D02*
Y119700D01*
Y114700D02*
Y115900D01*
Y112000D02*
Y113200D01*
Y110100D02*
Y111400D01*
Y106000D02*
Y106700D01*
Y104700D02*
Y105500D01*
Y101500D02*
Y102700D01*
Y99500D02*
Y100800D01*
X216700Y128700D02*
Y130000D01*
Y125300D02*
Y125600D01*
Y123400D02*
Y124500D01*
Y121000D02*
Y122200D01*
Y118500D02*
Y119700D01*
Y114700D02*
Y115900D01*
Y112000D02*
Y113200D01*
Y110100D02*
Y111400D01*
Y104900D02*
Y106700D01*
Y101500D02*
Y102700D01*
Y99500D02*
Y100800D01*
X216600Y128700D02*
Y129900D01*
Y125300D02*
Y125700D01*
Y123500D02*
Y124600D01*
Y121000D02*
Y122200D01*
Y118500D02*
Y119700D01*
Y114700D02*
Y115900D01*
Y112000D02*
Y113200D01*
Y110100D02*
Y111400D01*
Y106400D02*
Y107000D01*
Y105100D02*
Y106200D01*
Y101500D02*
Y102700D01*
Y99500D02*
Y100800D01*
X216500Y128600D02*
Y129900D01*
Y125300D02*
Y125700D01*
Y123500D02*
Y124600D01*
Y121000D02*
Y122200D01*
Y118500D02*
Y119700D01*
Y114700D02*
Y115900D01*
Y112000D02*
Y113200D01*
Y110100D02*
Y111300D01*
Y107600D02*
Y107900D01*
Y106700D02*
Y107100D01*
Y105600D02*
Y105900D01*
Y101500D02*
Y102700D01*
Y99500D02*
Y100800D01*
Y97100D02*
Y97300D01*
X216400Y128600D02*
Y129800D01*
Y125300D02*
Y125800D01*
Y123500D02*
Y124700D01*
Y121000D02*
Y122200D01*
Y118500D02*
Y119700D01*
Y114700D02*
Y115900D01*
Y112000D02*
Y113200D01*
Y110100D02*
Y111300D01*
Y107700D02*
Y107900D01*
Y106900D02*
Y107200D01*
Y101500D02*
Y102700D01*
Y99500D02*
Y100700D01*
Y97100D02*
Y97400D01*
X216300Y128600D02*
Y129800D01*
Y125300D02*
Y125800D01*
Y123500D02*
Y124700D01*
Y121000D02*
Y122200D01*
Y118500D02*
Y119700D01*
Y114700D02*
Y115900D01*
Y112000D02*
Y113200D01*
Y110100D02*
Y111300D01*
Y107700D02*
Y108000D01*
Y106900D02*
Y107300D01*
Y101500D02*
Y102700D01*
Y99500D02*
Y100700D01*
Y97200D02*
Y97400D01*
X216200Y128600D02*
Y129700D01*
Y125300D02*
Y125900D01*
Y123500D02*
Y124700D01*
Y121000D02*
Y122200D01*
Y118500D02*
Y119700D01*
Y114700D02*
Y115900D01*
Y112000D02*
Y113200D01*
Y110100D02*
Y111200D01*
Y107700D02*
Y108000D01*
Y107000D02*
Y107300D01*
Y101500D02*
Y102700D01*
Y99500D02*
Y100700D01*
Y97200D02*
Y97400D01*
X216100Y128600D02*
Y129700D01*
Y125300D02*
Y125900D01*
Y123500D02*
Y124700D01*
Y121000D02*
Y122200D01*
Y118500D02*
Y119700D01*
Y114700D02*
Y115900D01*
Y112000D02*
Y113200D01*
Y110100D02*
Y111200D01*
Y107800D02*
Y108100D01*
Y107000D02*
Y107400D01*
Y101500D02*
Y102700D01*
Y99500D02*
Y100600D01*
Y97200D02*
Y97500D01*
X216000Y128500D02*
Y129600D01*
Y125300D02*
Y126000D01*
Y123500D02*
Y124700D01*
Y121000D02*
Y122200D01*
Y118500D02*
Y119700D01*
Y114700D02*
Y115900D01*
Y112000D02*
Y113200D01*
Y110000D02*
Y111100D01*
Y107800D02*
Y108100D01*
Y106900D02*
Y107400D01*
Y101500D02*
Y102700D01*
Y99500D02*
Y100600D01*
Y97300D02*
Y97500D01*
X215900Y128500D02*
Y129500D01*
Y125300D02*
Y126100D01*
Y123500D02*
Y124700D01*
Y121000D02*
Y122200D01*
Y118500D02*
Y119700D01*
Y114700D02*
Y115900D01*
Y112000D02*
Y113200D01*
Y110000D02*
Y111100D01*
Y107900D02*
Y108200D01*
Y104700D02*
Y107400D01*
Y101500D02*
Y102700D01*
Y99500D02*
Y100600D01*
Y97300D02*
Y97600D01*
X215800Y128400D02*
Y129400D01*
Y125300D02*
Y126200D01*
Y123500D02*
Y124700D01*
Y121000D02*
Y122300D01*
Y120400D02*
Y120600D01*
Y118500D02*
Y119700D01*
Y114700D02*
Y115900D01*
Y112000D02*
Y113200D01*
Y110000D02*
Y111000D01*
Y107900D02*
Y108200D01*
Y104400D02*
Y107400D01*
Y101500D02*
Y102700D01*
Y99400D02*
Y100500D01*
Y97400D02*
Y97700D01*
X215700Y128400D02*
Y129300D01*
Y125300D02*
Y126300D01*
Y123400D02*
Y124700D01*
Y121000D02*
Y122300D01*
Y120400D02*
Y120700D01*
Y118500D02*
Y119700D01*
Y114700D02*
Y115900D01*
Y112000D02*
Y113200D01*
Y109900D02*
Y110900D01*
Y108000D02*
Y108300D01*
Y104300D02*
Y107400D01*
Y101500D02*
Y102700D01*
Y99400D02*
Y100400D01*
Y97400D02*
Y97700D01*
X215600Y128300D02*
Y129200D01*
Y125300D02*
Y126400D01*
Y123400D02*
Y124600D01*
Y121000D02*
Y122400D01*
Y120400D02*
Y120700D01*
Y118500D02*
Y119700D01*
Y114700D02*
Y115900D01*
Y112000D02*
Y113200D01*
Y109900D02*
Y110800D01*
Y108100D02*
Y108400D01*
Y104100D02*
Y107400D01*
Y101500D02*
Y102700D01*
Y99300D02*
Y100300D01*
Y97500D02*
Y97800D01*
X215500Y128200D02*
Y129100D01*
Y125300D02*
Y126500D01*
Y123300D02*
Y124500D01*
Y121000D02*
Y122500D01*
Y120500D02*
Y120700D01*
Y118500D02*
Y119700D01*
Y114700D02*
Y115900D01*
Y112000D02*
Y113200D01*
Y109800D02*
Y110700D01*
Y108200D02*
Y108500D01*
Y104100D02*
Y107400D01*
Y101500D02*
Y102700D01*
Y99300D02*
Y100200D01*
Y97600D02*
Y97900D01*
X215400Y128100D02*
Y128900D01*
Y126000D02*
Y126600D01*
Y125300D02*
Y125600D01*
Y123200D02*
Y124500D01*
Y122300D02*
Y122600D01*
Y120900D02*
Y122100D01*
Y120500D02*
Y120800D01*
Y118500D02*
Y119700D01*
Y114700D02*
Y115900D01*
Y112000D02*
Y113200D01*
Y109700D02*
Y110700D01*
Y108300D02*
Y108600D01*
Y104000D02*
Y107400D01*
Y101500D02*
Y102700D01*
Y99100D02*
Y100100D01*
Y97700D02*
Y98100D01*
X215300Y127800D02*
Y128700D01*
Y126200D02*
Y127000D01*
Y125300D02*
Y125500D01*
Y122500D02*
Y124300D01*
Y120600D02*
Y122000D01*
Y117700D02*
Y120300D01*
Y114100D02*
Y116500D01*
Y111400D02*
Y113700D01*
Y108400D02*
Y110500D01*
Y104000D02*
Y107300D01*
Y100900D02*
Y103300D01*
Y97900D02*
Y99900D01*
X215200Y126400D02*
Y128500D01*
Y125300D02*
Y125500D01*
Y122600D02*
Y124100D01*
Y120700D02*
Y121900D01*
Y117700D02*
Y120300D01*
Y114100D02*
Y116500D01*
Y111400D02*
Y113700D01*
Y108600D02*
Y110300D01*
Y103900D02*
Y107300D01*
Y100900D02*
Y103300D01*
Y98100D02*
Y99700D01*
X215100Y126700D02*
Y128200D01*
Y122900D02*
Y123900D01*
Y120900D02*
Y121700D01*
Y108900D02*
Y110000D01*
Y103900D02*
Y107300D01*
Y98300D02*
Y99400D01*
X215000Y127300D02*
Y127700D01*
Y103900D02*
Y107200D01*
X214900Y103900D02*
Y107000D01*
X214800Y106700D02*
Y107000D01*
Y103900D02*
Y104800D01*
X214700Y106800D02*
Y107200D01*
Y103900D02*
Y104400D01*
X214600Y106800D02*
Y107300D01*
Y103900D02*
Y104300D01*
X214500Y106900D02*
Y107400D01*
Y103900D02*
Y104300D01*
X214400Y107000D02*
Y107500D01*
Y103900D02*
Y104300D01*
X214300Y107000D02*
Y107500D01*
Y103900D02*
Y104200D01*
X214200Y107100D02*
Y107600D01*
Y104000D02*
Y104200D01*
X214100Y107100D02*
Y107600D01*
Y104000D02*
Y104300D01*
X214000Y107100D02*
Y107600D01*
Y104000D02*
Y104300D01*
X213900Y107100D02*
Y107600D01*
Y104000D02*
Y104300D01*
X213800Y107100D02*
Y107600D01*
Y104100D02*
Y104400D01*
X213700Y128100D02*
Y130300D01*
Y107000D02*
Y107600D01*
Y104100D02*
Y104500D01*
X213600Y128100D02*
Y130300D01*
Y123200D02*
Y125300D01*
Y117600D02*
Y119400D01*
Y115000D02*
Y116800D01*
Y107000D02*
Y107500D01*
Y104200D02*
Y104500D01*
X213500Y128000D02*
Y130300D01*
Y123200D02*
Y125300D01*
Y117600D02*
Y119400D01*
Y115000D02*
Y116800D01*
Y106900D02*
Y107500D01*
Y104300D02*
Y104600D01*
X213400Y129500D02*
Y129700D01*
Y128000D02*
Y129400D01*
Y123800D02*
Y125300D01*
Y117600D02*
Y118800D01*
Y115000D02*
Y116300D01*
Y106900D02*
Y107400D01*
Y104400D02*
Y104800D01*
X213300Y129500D02*
Y129700D01*
Y128000D02*
Y129400D01*
Y123800D02*
Y125400D01*
Y117600D02*
Y118800D01*
Y115000D02*
Y116300D01*
Y106800D02*
Y107300D01*
Y104500D02*
Y104900D01*
X213200Y129500D02*
Y129700D01*
Y127900D02*
Y129400D01*
Y123800D02*
Y125400D01*
Y117600D02*
Y118800D01*
Y115000D02*
Y116300D01*
Y106600D02*
Y107200D01*
Y104600D02*
Y105100D01*
X213100Y129500D02*
Y129700D01*
Y127900D02*
Y129300D01*
Y125200D02*
Y125400D01*
Y123800D02*
Y125100D01*
Y117600D02*
Y118800D01*
Y115000D02*
Y116300D01*
Y106300D02*
Y107000D01*
Y104800D02*
Y105500D01*
X213000Y129500D02*
Y129700D01*
Y127800D02*
Y129300D01*
Y125200D02*
Y125500D01*
Y123800D02*
Y125100D01*
Y117600D02*
Y118800D01*
Y115000D02*
Y116300D01*
Y105000D02*
Y106800D01*
X212900Y129500D02*
Y129700D01*
Y127800D02*
Y129200D01*
Y125300D02*
Y125500D01*
Y123800D02*
Y125100D01*
Y117600D02*
Y118800D01*
Y115000D02*
Y116300D01*
Y105300D02*
Y106500D01*
X212800Y129500D02*
Y129700D01*
Y127800D02*
Y129200D01*
Y125300D02*
Y125500D01*
Y123800D02*
Y125100D01*
Y117600D02*
Y118800D01*
Y115000D02*
Y116300D01*
X212700Y129500D02*
Y129700D01*
Y127700D02*
Y129200D01*
Y125300D02*
Y125600D01*
Y123800D02*
Y125100D01*
Y117600D02*
Y118800D01*
Y115000D02*
Y116300D01*
X212600Y129500D02*
Y129700D01*
Y127700D02*
Y129100D01*
Y125300D02*
Y125600D01*
Y123800D02*
Y125100D01*
Y117600D02*
Y118800D01*
Y115000D02*
Y116300D01*
X212500Y129500D02*
Y129700D01*
Y127700D02*
Y129100D01*
Y125400D02*
Y125700D01*
Y123800D02*
Y125100D01*
Y117600D02*
Y118800D01*
Y115000D02*
Y116300D01*
X212400Y129500D02*
Y129700D01*
Y127600D02*
Y129100D01*
Y125400D02*
Y125700D01*
Y123800D02*
Y125100D01*
Y117600D02*
Y118800D01*
Y115000D02*
Y116300D01*
X212300Y129500D02*
Y129700D01*
Y127600D02*
Y129000D01*
Y125400D02*
Y125700D01*
Y123800D02*
Y125100D01*
Y117600D02*
Y118800D01*
Y115000D02*
Y116300D01*
X212200Y129500D02*
Y129700D01*
Y127600D02*
Y129000D01*
Y125500D02*
Y125800D01*
Y123800D02*
Y125100D01*
Y117600D02*
Y118800D01*
Y115000D02*
Y116300D01*
X212100Y129500D02*
Y129700D01*
Y127500D02*
Y129000D01*
Y125500D02*
Y125800D01*
Y123800D02*
Y125100D01*
Y117600D02*
Y118800D01*
Y115000D02*
Y116300D01*
X212000Y129500D02*
Y129700D01*
Y127500D02*
Y128900D01*
Y125500D02*
Y125800D01*
Y123800D02*
Y125100D01*
Y117600D02*
Y118800D01*
Y115000D02*
Y116300D01*
X211900Y129500D02*
Y129700D01*
Y127500D02*
Y128900D01*
Y125600D02*
Y125900D01*
Y123800D02*
Y125100D01*
Y117600D02*
Y118800D01*
Y115000D02*
Y116300D01*
X211800Y129500D02*
Y129700D01*
Y127500D02*
Y128800D01*
Y125600D02*
Y125900D01*
Y123800D02*
Y125100D01*
Y117600D02*
Y118800D01*
Y115000D02*
Y116300D01*
X211700Y129500D02*
Y129700D01*
Y127400D02*
Y128800D01*
Y125700D02*
Y125900D01*
Y123800D02*
Y125100D01*
Y117600D02*
Y118800D01*
Y115000D02*
Y116300D01*
X211600Y129500D02*
Y129700D01*
Y127400D02*
Y128800D01*
Y125700D02*
Y126000D01*
Y123800D02*
Y125100D01*
Y117600D02*
Y118800D01*
Y115000D02*
Y116300D01*
X211500Y129500D02*
Y129700D01*
Y127400D02*
Y128700D01*
Y125700D02*
Y126000D01*
Y123800D02*
Y125100D01*
Y121100D02*
Y121300D01*
Y117600D02*
Y118800D01*
Y115000D02*
Y116300D01*
Y112300D02*
Y112500D01*
Y106700D02*
Y107400D01*
X211400Y129500D02*
Y129700D01*
Y127300D02*
Y128700D01*
Y125800D02*
Y126100D01*
Y123800D02*
Y125100D01*
Y120700D02*
Y121800D01*
Y117600D02*
Y118800D01*
Y115000D02*
Y116300D01*
Y111700D02*
Y113000D01*
Y106400D02*
Y107700D01*
X211300Y129500D02*
Y129700D01*
Y127300D02*
Y128700D01*
Y125800D02*
Y126100D01*
Y123800D02*
Y125100D01*
Y120500D02*
Y122000D01*
Y117600D02*
Y118800D01*
Y115000D02*
Y116300D01*
Y111500D02*
Y113300D01*
Y108500D02*
Y110300D01*
Y106200D02*
Y107900D01*
X211200Y129500D02*
Y129700D01*
Y127300D02*
Y128600D01*
Y125800D02*
Y126100D01*
Y123800D02*
Y125100D01*
Y121500D02*
Y122200D01*
Y120300D02*
Y121100D01*
Y117600D02*
Y118800D01*
Y115000D02*
Y116300D01*
Y112600D02*
Y113500D01*
Y111300D02*
Y112100D01*
Y108500D02*
Y110300D01*
Y106200D02*
Y108100D01*
X211100Y129500D02*
Y129700D01*
Y127200D02*
Y128600D01*
Y125900D02*
Y126200D01*
Y123800D02*
Y125100D01*
Y121700D02*
Y122400D01*
Y120200D02*
Y120900D01*
Y117600D02*
Y118800D01*
Y115000D02*
Y116300D01*
Y112800D02*
Y113600D01*
Y111100D02*
Y111900D01*
Y108500D02*
Y109700D01*
Y107700D02*
Y108200D01*
Y106100D02*
Y107300D01*
X211000Y129500D02*
Y129700D01*
Y127200D02*
Y128600D01*
Y125900D02*
Y126200D01*
Y123800D02*
Y125100D01*
Y121700D02*
Y122500D01*
Y120100D02*
Y120800D01*
Y117600D02*
Y118800D01*
Y115000D02*
Y116300D01*
Y112900D02*
Y113800D01*
Y111000D02*
Y111800D01*
Y108500D02*
Y109700D01*
Y107900D02*
Y108300D01*
Y106000D02*
Y107200D01*
X210900Y129500D02*
Y129700D01*
Y127200D02*
Y128600D01*
Y125900D02*
Y126200D01*
Y123800D02*
Y125100D01*
Y121800D02*
Y122600D01*
Y120000D02*
Y120800D01*
Y117600D02*
Y118800D01*
Y115000D02*
Y116300D01*
Y112900D02*
Y113900D01*
Y110900D02*
Y111800D01*
Y108500D02*
Y109700D01*
Y108000D02*
Y108400D01*
Y106000D02*
Y107100D01*
X210800Y129500D02*
Y129700D01*
Y127100D02*
Y128500D01*
Y126000D02*
Y126300D01*
Y123800D02*
Y125100D01*
Y121800D02*
Y122700D01*
Y119800D02*
Y120800D01*
Y117600D02*
Y118800D01*
Y115000D02*
Y116300D01*
Y113000D02*
Y114000D01*
Y110700D02*
Y111700D01*
Y108500D02*
Y109700D01*
Y108100D02*
Y108400D01*
Y105900D02*
Y107100D01*
X210700Y129500D02*
Y129700D01*
Y127100D02*
Y128500D01*
Y126000D02*
Y126300D01*
Y123800D02*
Y125100D01*
Y121800D02*
Y122800D01*
Y119800D02*
Y120800D01*
Y117600D02*
Y118800D01*
Y115000D02*
Y116300D01*
Y113000D02*
Y114000D01*
Y110700D02*
Y111700D01*
Y108200D02*
Y109700D01*
Y105900D02*
Y107100D01*
X210600Y129500D02*
Y129700D01*
Y127000D02*
Y128400D01*
Y126100D02*
Y126300D01*
Y123800D02*
Y125100D01*
Y121900D02*
Y122800D01*
Y119700D02*
Y120800D01*
Y117600D02*
Y118800D01*
Y115000D02*
Y116300D01*
Y113000D02*
Y114100D01*
Y110600D02*
Y111700D01*
Y108300D02*
Y109700D01*
Y105900D02*
Y107100D01*
X210500Y129500D02*
Y129700D01*
Y127000D02*
Y128400D01*
Y126100D02*
Y126400D01*
Y123800D02*
Y125100D01*
Y121900D02*
Y122900D01*
Y119600D02*
Y120800D01*
Y117600D02*
Y118800D01*
Y115000D02*
Y116300D01*
Y113100D02*
Y114200D01*
Y110600D02*
Y111700D01*
Y108300D02*
Y109700D01*
Y105900D02*
Y107100D01*
X210400Y129500D02*
Y129700D01*
Y127000D02*
Y128400D01*
Y126100D02*
Y126400D01*
Y123800D02*
Y125100D01*
Y121900D02*
Y123000D01*
Y119600D02*
Y120800D01*
Y117600D02*
Y118800D01*
Y115000D02*
Y116300D01*
Y113100D02*
Y114200D01*
Y110500D02*
Y111700D01*
Y108400D02*
Y109700D01*
Y105800D02*
Y107100D01*
X210300Y129500D02*
Y129700D01*
Y126900D02*
Y128300D01*
Y126200D02*
Y126400D01*
Y123800D02*
Y125100D01*
Y121900D02*
Y123000D01*
Y119600D02*
Y120800D01*
Y117600D02*
Y118800D01*
Y115000D02*
Y116300D01*
Y113100D02*
Y114300D01*
Y110500D02*
Y111700D01*
Y108400D02*
Y109700D01*
Y105800D02*
Y107100D01*
X210200Y129500D02*
Y129700D01*
Y126900D02*
Y128300D01*
Y126200D02*
Y126400D01*
Y123800D02*
Y125100D01*
Y121900D02*
Y123000D01*
Y119500D02*
Y120800D01*
Y117600D02*
Y118800D01*
Y115000D02*
Y116300D01*
Y113100D02*
Y114300D01*
Y110400D02*
Y111700D01*
Y108400D02*
Y109700D01*
Y105800D02*
Y107100D01*
X210100Y129500D02*
Y129700D01*
Y126900D02*
Y128300D01*
Y126200D02*
Y126500D01*
Y123800D02*
Y125100D01*
Y121900D02*
Y123000D01*
Y119500D02*
Y120800D01*
Y117600D02*
Y118800D01*
Y115000D02*
Y116300D01*
Y113100D02*
Y114400D01*
Y110400D02*
Y111700D01*
Y108500D02*
Y109700D01*
Y105800D02*
Y107100D01*
X210000Y129500D02*
Y129700D01*
Y126800D02*
Y128200D01*
Y126300D02*
Y126500D01*
Y123800D02*
Y125100D01*
Y121900D02*
Y123100D01*
Y119500D02*
Y120800D01*
Y117600D02*
Y118800D01*
Y115000D02*
Y116300D01*
Y113100D02*
Y114400D01*
Y110400D02*
Y111700D01*
Y108500D02*
Y109700D01*
Y105800D02*
Y107100D01*
X209900Y129500D02*
Y129700D01*
Y126800D02*
Y128200D01*
Y126300D02*
Y126600D01*
Y123800D02*
Y125100D01*
Y121900D02*
Y123100D01*
Y119500D02*
Y120800D01*
Y117600D02*
Y118800D01*
Y115000D02*
Y116300D01*
Y113100D02*
Y114400D01*
Y110300D02*
Y111700D01*
Y108500D02*
Y109700D01*
Y105800D02*
Y107100D01*
X209800Y129500D02*
Y129700D01*
Y126800D02*
Y128200D01*
Y126300D02*
Y126600D01*
Y123800D02*
Y125100D01*
Y119400D02*
Y123100D01*
Y117600D02*
Y118800D01*
Y115000D02*
Y116300D01*
Y113100D02*
Y114400D01*
Y110300D02*
Y111700D01*
Y108500D02*
Y109700D01*
Y105800D02*
Y107100D01*
X209700Y129500D02*
Y129700D01*
Y126700D02*
Y128100D01*
Y126400D02*
Y126600D01*
Y123800D02*
Y125100D01*
Y119400D02*
Y123100D01*
Y117600D02*
Y118800D01*
Y115000D02*
Y116300D01*
Y113100D02*
Y114400D01*
Y110300D02*
Y111700D01*
Y108500D02*
Y109700D01*
Y105800D02*
Y107100D01*
X209600Y129500D02*
Y129700D01*
Y126400D02*
Y128100D01*
Y123800D02*
Y125100D01*
Y121900D02*
Y123100D01*
Y117600D02*
Y118800D01*
Y115000D02*
Y116300D01*
Y113100D02*
Y114400D01*
Y110300D02*
Y111700D01*
Y108500D02*
Y109700D01*
Y105800D02*
Y107100D01*
X209500Y129500D02*
Y129700D01*
Y126400D02*
Y128000D01*
Y123800D02*
Y125100D01*
Y121900D02*
Y123200D01*
Y117600D02*
Y118800D01*
Y115000D02*
Y116300D01*
Y113100D02*
Y114500D01*
Y110300D02*
Y111700D01*
Y108500D02*
Y109700D01*
Y105800D02*
Y107100D01*
X209400Y129500D02*
Y129700D01*
Y126500D02*
Y128000D01*
Y123800D02*
Y125100D01*
Y121900D02*
Y123200D01*
Y117600D02*
Y118800D01*
Y115000D02*
Y116300D01*
Y113100D02*
Y114500D01*
Y110300D02*
Y111700D01*
Y108500D02*
Y109700D01*
Y105800D02*
Y107100D01*
X209300Y129500D02*
Y129700D01*
Y126500D02*
Y128000D01*
Y123800D02*
Y125100D01*
Y121900D02*
Y123200D01*
Y117600D02*
Y118800D01*
Y115000D02*
Y116300D01*
Y113100D02*
Y114400D01*
Y110300D02*
Y111700D01*
Y108500D02*
Y109700D01*
Y105800D02*
Y107100D01*
X209200Y129500D02*
Y129700D01*
Y126500D02*
Y127900D01*
Y123800D02*
Y125100D01*
Y121900D02*
Y123100D01*
Y117600D02*
Y118800D01*
Y115000D02*
Y116300D01*
Y113100D02*
Y114400D01*
Y110300D02*
Y111700D01*
Y108500D02*
Y109700D01*
Y105800D02*
Y107100D01*
X209100Y129500D02*
Y129700D01*
Y126600D02*
Y127900D01*
Y123800D02*
Y125100D01*
Y121900D02*
Y123100D01*
Y117600D02*
Y118800D01*
Y115000D02*
Y116300D01*
Y113100D02*
Y114400D01*
Y110300D02*
Y111700D01*
Y108500D02*
Y109700D01*
Y105800D02*
Y107100D01*
X209000Y129500D02*
Y129700D01*
Y126600D02*
Y127900D01*
Y123800D02*
Y125100D01*
Y121900D02*
Y123100D01*
Y117600D02*
Y118800D01*
Y115000D02*
Y116300D01*
Y113100D02*
Y114400D01*
Y110300D02*
Y111700D01*
Y108500D02*
Y109700D01*
Y105800D02*
Y107100D01*
X208900Y129500D02*
Y129700D01*
Y126600D02*
Y127800D01*
Y123800D02*
Y125100D01*
Y121900D02*
Y123100D01*
Y119400D02*
Y119700D01*
Y117600D02*
Y118800D01*
Y115000D02*
Y116300D01*
Y113100D02*
Y114400D01*
Y110400D02*
Y111700D01*
Y108500D02*
Y109700D01*
Y105800D02*
Y107100D01*
X208800Y129500D02*
Y129700D01*
Y126700D02*
Y127800D01*
Y123800D02*
Y125100D01*
Y121900D02*
Y123100D01*
Y119500D02*
Y119700D01*
Y117600D02*
Y118800D01*
Y115000D02*
Y116300D01*
Y113100D02*
Y114300D01*
Y110400D02*
Y111700D01*
Y108500D02*
Y109700D01*
Y105800D02*
Y107100D01*
X208700Y129500D02*
Y129700D01*
Y126700D02*
Y127800D01*
Y123800D02*
Y125100D01*
Y121900D02*
Y123000D01*
Y119500D02*
Y119700D01*
Y117600D02*
Y118800D01*
Y115000D02*
Y116300D01*
Y113100D02*
Y114300D01*
Y110400D02*
Y111700D01*
Y108500D02*
Y109700D01*
Y105800D02*
Y107100D01*
X208600Y129500D02*
Y129700D01*
Y126700D02*
Y127700D01*
Y123800D02*
Y125100D01*
Y121800D02*
Y123000D01*
Y119500D02*
Y119800D01*
Y117600D02*
Y118800D01*
Y115000D02*
Y116300D01*
Y113100D02*
Y114300D01*
Y110500D02*
Y111700D01*
Y108500D02*
Y109700D01*
Y105800D02*
Y107100D01*
X208500Y129500D02*
Y129700D01*
Y126800D02*
Y127700D01*
Y123800D02*
Y125100D01*
Y121800D02*
Y123000D01*
Y119600D02*
Y119800D01*
Y117600D02*
Y118800D01*
Y115000D02*
Y116300D01*
Y113100D02*
Y114200D01*
Y110500D02*
Y111700D01*
Y108500D02*
Y109700D01*
Y105800D02*
Y107100D01*
X208400Y129500D02*
Y129700D01*
Y126800D02*
Y127600D01*
Y123800D02*
Y125100D01*
Y121800D02*
Y122900D01*
Y119600D02*
Y119900D01*
Y117600D02*
Y118800D01*
Y115000D02*
Y116300D01*
Y113100D02*
Y114200D01*
Y110600D02*
Y111700D01*
Y108500D02*
Y109700D01*
Y105800D02*
Y107100D01*
X208300Y129500D02*
Y129700D01*
Y126800D02*
Y127600D01*
Y123800D02*
Y125100D01*
Y121800D02*
Y122900D01*
Y119600D02*
Y119900D01*
Y117600D02*
Y118800D01*
Y115000D02*
Y116300D01*
Y113000D02*
Y114100D01*
Y110700D02*
Y111700D01*
Y108500D02*
Y109700D01*
Y105800D02*
Y107100D01*
X208200Y129400D02*
Y129700D01*
Y126900D02*
Y127600D01*
Y123800D02*
Y125100D01*
Y121800D02*
Y122800D01*
Y119700D02*
Y120000D01*
Y117600D02*
Y118800D01*
Y115000D02*
Y116300D01*
Y113000D02*
Y114000D01*
Y110700D02*
Y111700D01*
Y108500D02*
Y109700D01*
Y105800D02*
Y107100D01*
X208100Y129400D02*
Y129700D01*
Y126900D02*
Y127500D01*
Y123800D02*
Y125100D01*
Y121700D02*
Y122700D01*
Y119800D02*
Y120000D01*
Y117600D02*
Y118800D01*
Y115000D02*
Y116300D01*
Y113000D02*
Y114000D01*
Y110800D02*
Y111700D01*
Y108500D02*
Y109700D01*
Y105800D02*
Y107100D01*
X208000Y129400D02*
Y129800D01*
Y127000D02*
Y127500D01*
Y123800D02*
Y125100D01*
Y121700D02*
Y122600D01*
Y119800D02*
Y120100D01*
Y117600D02*
Y118800D01*
Y115000D02*
Y116300D01*
Y112900D02*
Y113900D01*
Y110900D02*
Y111800D01*
Y108500D02*
Y109700D01*
Y105800D02*
Y107100D01*
X207900Y129300D02*
Y129900D01*
Y127000D02*
Y127500D01*
Y123800D02*
Y125100D01*
Y121600D02*
Y122500D01*
Y119900D02*
Y120300D01*
Y117600D02*
Y118800D01*
Y115000D02*
Y116300D01*
Y112900D02*
Y113800D01*
Y111000D02*
Y111800D01*
Y108500D02*
Y109700D01*
Y105800D02*
Y107100D01*
X207800Y129100D02*
Y130100D01*
Y127000D02*
Y127500D01*
Y123800D02*
Y125100D01*
Y121400D02*
Y122400D01*
Y120000D02*
Y120400D01*
Y117600D02*
Y118800D01*
Y115000D02*
Y116300D01*
Y112800D02*
Y113600D01*
Y111100D02*
Y111900D01*
Y108500D02*
Y109700D01*
Y105800D02*
Y107100D01*
X207700Y128800D02*
Y130300D01*
Y127100D02*
Y127400D01*
Y123200D02*
Y125600D01*
Y121100D02*
Y122200D01*
Y120200D02*
Y120800D01*
Y117000D02*
Y119400D01*
Y114400D02*
Y116800D01*
Y112600D02*
Y113500D01*
Y111300D02*
Y112100D01*
Y108000D02*
Y110300D01*
Y105200D02*
Y107500D01*
X207600Y128800D02*
Y130300D01*
Y127100D02*
Y127400D01*
Y123200D02*
Y125600D01*
Y120300D02*
Y122100D01*
Y117000D02*
Y119400D01*
Y114400D02*
Y116800D01*
Y111500D02*
Y113300D01*
Y108000D02*
Y110300D01*
Y105200D02*
Y107500D01*
X207500Y120700D02*
Y121700D01*
Y111900D02*
Y112900D01*
X206200Y127800D02*
Y130300D01*
Y124400D02*
Y125900D01*
X206100Y127800D02*
Y130300D01*
Y124400D02*
Y125900D01*
X206000Y128400D02*
Y129700D01*
Y124800D02*
Y125500D01*
X205900Y128400D02*
Y129700D01*
Y124900D02*
Y125400D01*
X205800Y128400D02*
Y129700D01*
Y125000D02*
Y125300D01*
Y98300D02*
Y98500D01*
X205700Y128400D02*
Y129700D01*
Y125000D02*
Y125300D01*
Y117800D02*
Y118400D01*
Y100800D02*
Y101500D01*
Y98300D02*
Y98500D01*
X205600Y128400D02*
Y129700D01*
Y125000D02*
Y125300D01*
Y117600D02*
Y118500D01*
Y100700D02*
Y101600D01*
Y98300D02*
Y98500D01*
X205500Y128400D02*
Y129700D01*
Y125000D02*
Y125300D01*
Y117600D02*
Y118600D01*
Y100600D02*
Y101700D01*
Y98300D02*
Y98500D01*
X205400Y128400D02*
Y129700D01*
Y125000D02*
Y125300D01*
Y117500D02*
Y118600D01*
Y100600D02*
Y101700D01*
Y98300D02*
Y98600D01*
X205300Y128400D02*
Y129700D01*
Y125000D02*
Y125300D01*
Y117500D02*
Y118700D01*
Y100600D02*
Y101700D01*
Y98300D02*
Y98600D01*
X205200Y128400D02*
Y129700D01*
Y125000D02*
Y125300D01*
Y117500D02*
Y118700D01*
Y100600D02*
Y101800D01*
Y98300D02*
Y98600D01*
X205100Y128400D02*
Y129700D01*
Y125000D02*
Y125300D01*
Y117500D02*
Y118700D01*
Y100600D02*
Y101700D01*
Y98300D02*
Y98600D01*
X205000Y128400D02*
Y129700D01*
Y125000D02*
Y125300D01*
Y117500D02*
Y118700D01*
Y100600D02*
Y101700D01*
Y98300D02*
Y98700D01*
X204900Y128400D02*
Y129700D01*
Y125000D02*
Y125300D01*
Y117500D02*
Y118600D01*
Y100600D02*
Y101700D01*
Y98300D02*
Y98700D01*
X204800Y128400D02*
Y129700D01*
Y125000D02*
Y125300D01*
Y117600D02*
Y118500D01*
Y100700D02*
Y101600D01*
Y98300D02*
Y98800D01*
X204700Y128400D02*
Y129700D01*
Y125000D02*
Y125300D01*
Y117700D02*
Y118500D01*
Y100800D02*
Y101500D01*
Y98300D02*
Y98800D01*
X204600Y128400D02*
Y129700D01*
Y125000D02*
Y125300D01*
Y117900D02*
Y118300D01*
Y100900D02*
Y101400D01*
Y98300D02*
Y98900D01*
X204500Y128400D02*
Y129700D01*
Y125000D02*
Y125300D01*
Y98300D02*
Y99000D01*
X204400Y128400D02*
Y129700D01*
Y125000D02*
Y125300D01*
Y98300D02*
Y99100D01*
X204300Y128400D02*
Y129700D01*
Y125000D02*
Y125300D01*
Y98300D02*
Y99200D01*
X204200Y128400D02*
Y129700D01*
Y125000D02*
Y125300D01*
Y98300D02*
Y99300D01*
X204100Y128400D02*
Y129700D01*
Y125000D02*
Y125300D01*
Y121000D02*
Y121500D01*
Y106100D02*
Y106700D01*
Y98300D02*
Y99500D01*
X204000Y128400D02*
Y129700D01*
Y125000D02*
Y125300D01*
Y120700D02*
Y121900D01*
Y110700D02*
Y111700D01*
Y105900D02*
Y106900D01*
Y103700D02*
Y104600D01*
Y102800D02*
Y103000D01*
Y98300D02*
Y99800D01*
X203900Y128400D02*
Y129700D01*
Y125000D02*
Y125300D01*
Y122700D02*
Y124500D01*
Y120500D02*
Y122100D01*
Y117500D02*
Y119300D01*
Y115000D02*
Y117200D01*
Y112900D02*
Y114300D01*
Y110500D02*
Y112000D01*
Y107500D02*
Y109300D01*
Y105800D02*
Y107100D01*
Y103300D02*
Y104800D01*
Y102800D02*
Y103100D01*
Y100600D02*
Y102400D01*
Y95300D02*
Y100000D01*
Y93300D02*
Y94700D01*
X203800Y128400D02*
Y129700D01*
Y125000D02*
Y125300D01*
Y122700D02*
Y124500D01*
Y120400D02*
Y122200D01*
Y117500D02*
Y119300D01*
Y115000D02*
Y117200D01*
Y112900D02*
Y114300D01*
Y111400D02*
Y112100D01*
Y110300D02*
Y111100D01*
Y107500D02*
Y109300D01*
Y105700D02*
Y107200D01*
Y104400D02*
Y105000D01*
Y102800D02*
Y103800D01*
Y100600D02*
Y102400D01*
Y95300D02*
Y100000D01*
Y93300D02*
Y94700D01*
X203700Y128400D02*
Y129700D01*
Y125000D02*
Y125300D01*
Y122700D02*
Y123900D01*
Y121900D02*
Y122400D01*
Y120300D02*
Y121600D01*
Y117500D02*
Y118700D01*
Y115400D02*
Y116700D01*
Y113100D02*
Y113900D01*
Y111600D02*
Y112300D01*
Y110200D02*
Y110900D01*
Y107500D02*
Y108700D01*
Y105700D02*
Y107300D01*
Y104700D02*
Y105100D01*
Y102800D02*
Y103600D01*
Y100600D02*
Y101800D01*
Y98300D02*
Y99600D01*
Y95800D02*
Y97100D01*
Y93500D02*
Y94400D01*
X203600Y128400D02*
Y129700D01*
Y125000D02*
Y125300D01*
Y122700D02*
Y123900D01*
Y122100D02*
Y122500D01*
Y120300D02*
Y121400D01*
Y117500D02*
Y118700D01*
Y115400D02*
Y116700D01*
Y113300D02*
Y113800D01*
Y111700D02*
Y112400D01*
Y110000D02*
Y110800D01*
Y107500D02*
Y108700D01*
Y107100D02*
Y107300D01*
Y105600D02*
Y106900D01*
Y104800D02*
Y105100D01*
Y102800D02*
Y103500D01*
Y100600D02*
Y101800D01*
Y98300D02*
Y99600D01*
Y95800D02*
Y97100D01*
Y93700D02*
Y94200D01*
X203500Y128400D02*
Y129700D01*
Y125000D02*
Y125300D01*
Y122700D02*
Y123900D01*
Y122200D02*
Y122600D01*
Y120200D02*
Y121300D01*
Y117500D02*
Y118700D01*
Y115300D02*
Y116700D01*
Y113400D02*
Y113800D01*
Y111700D02*
Y112500D01*
Y109900D02*
Y110800D01*
Y107500D02*
Y108700D01*
Y107200D02*
Y107400D01*
Y105600D02*
Y106900D01*
Y104900D02*
Y105200D01*
Y102800D02*
Y103300D01*
Y100600D02*
Y101800D01*
Y98300D02*
Y99600D01*
Y95700D02*
Y97100D01*
Y93800D02*
Y94100D01*
X203400Y128400D02*
Y129700D01*
Y125000D02*
Y125300D01*
Y122700D02*
Y123900D01*
Y122300D02*
Y122600D01*
Y120200D02*
Y121300D01*
Y117500D02*
Y118700D01*
Y115300D02*
Y116600D01*
Y113400D02*
Y113800D01*
Y111800D02*
Y112600D01*
Y109800D02*
Y110700D01*
Y107500D02*
Y108700D01*
Y107200D02*
Y107400D01*
Y105600D02*
Y106900D01*
Y104900D02*
Y105300D01*
Y102800D02*
Y103300D01*
Y100600D02*
Y101800D01*
Y98300D02*
Y99600D01*
Y95700D02*
Y97000D01*
Y93800D02*
Y94200D01*
X203300Y128400D02*
Y129700D01*
Y125000D02*
Y125300D01*
Y122400D02*
Y123900D01*
Y120100D02*
Y121300D01*
Y117500D02*
Y118700D01*
Y115200D02*
Y116600D01*
Y113500D02*
Y113800D01*
Y111800D02*
Y112700D01*
Y109800D02*
Y110700D01*
Y107300D02*
Y108700D01*
Y105700D02*
Y106900D01*
Y104900D02*
Y105300D01*
Y102800D02*
Y103200D01*
Y100600D02*
Y101800D01*
Y98300D02*
Y99600D01*
Y95700D02*
Y97000D01*
Y93900D02*
Y94200D01*
X203200Y128400D02*
Y129700D01*
Y125000D02*
Y125300D01*
Y122400D02*
Y123900D01*
Y120100D02*
Y121300D01*
Y117500D02*
Y118700D01*
Y115200D02*
Y116500D01*
Y113500D02*
Y113800D01*
Y111800D02*
Y112800D01*
Y109700D02*
Y110700D01*
Y107300D02*
Y108700D01*
Y105700D02*
Y106900D01*
Y104900D02*
Y105400D01*
Y102800D02*
Y103100D01*
Y100600D02*
Y101800D01*
Y98300D02*
Y99600D01*
Y95600D02*
Y96900D01*
Y93900D02*
Y94200D01*
X203100Y128400D02*
Y129700D01*
Y125000D02*
Y125300D01*
Y122500D02*
Y123900D01*
Y120100D02*
Y121300D01*
Y117500D02*
Y118700D01*
Y115200D02*
Y116500D01*
Y113600D02*
Y113900D01*
Y111800D02*
Y112800D01*
Y109600D02*
Y110700D01*
Y107300D02*
Y108700D01*
Y105700D02*
Y106800D01*
Y104900D02*
Y105400D01*
Y102800D02*
Y103100D01*
Y100600D02*
Y101800D01*
Y98300D02*
Y99600D01*
Y95600D02*
Y96900D01*
Y94000D02*
Y94200D01*
X203000Y128400D02*
Y129700D01*
Y125000D02*
Y125300D01*
Y122600D02*
Y123900D01*
Y120100D02*
Y121300D01*
Y117500D02*
Y118700D01*
Y115100D02*
Y116400D01*
Y113600D02*
Y113900D01*
Y111800D02*
Y112900D01*
Y109600D02*
Y110700D01*
Y107400D02*
Y108700D01*
Y105800D02*
Y106700D01*
Y104900D02*
Y105400D01*
Y102800D02*
Y103000D01*
Y100600D02*
Y101800D01*
Y98300D02*
Y99600D01*
Y95500D02*
Y96800D01*
Y94000D02*
Y94300D01*
X202900Y128400D02*
Y129700D01*
Y125000D02*
Y125300D01*
Y122600D02*
Y123900D01*
Y120100D02*
Y121300D01*
Y117500D02*
Y118700D01*
Y115100D02*
Y116400D01*
Y113700D02*
Y114000D01*
Y111800D02*
Y112900D01*
Y109500D02*
Y110700D01*
Y107400D02*
Y108700D01*
Y106000D02*
Y106600D01*
Y104800D02*
Y105400D01*
Y102800D02*
Y103000D01*
Y100600D02*
Y101800D01*
Y98300D02*
Y99600D01*
Y95500D02*
Y96800D01*
Y94100D02*
Y94300D01*
X202800Y128400D02*
Y129700D01*
Y125000D02*
Y125300D01*
Y122700D02*
Y123900D01*
Y120100D02*
Y121300D01*
Y117500D02*
Y118700D01*
Y115000D02*
Y116300D01*
Y113700D02*
Y114000D01*
Y111800D02*
Y113000D01*
Y109500D02*
Y110700D01*
Y107400D02*
Y108700D01*
Y104500D02*
Y105400D01*
Y100600D02*
Y101800D01*
Y98300D02*
Y99600D01*
Y95400D02*
Y96700D01*
Y94100D02*
Y94400D01*
X202700Y128400D02*
Y129700D01*
Y125000D02*
Y125300D01*
Y122700D02*
Y123900D01*
Y120100D02*
Y121300D01*
Y117500D02*
Y118700D01*
Y115000D02*
Y116300D01*
Y113800D02*
Y114000D01*
Y111800D02*
Y113000D01*
Y109500D02*
Y110700D01*
Y107400D02*
Y108700D01*
Y103900D02*
Y105400D01*
Y100600D02*
Y101800D01*
Y98300D02*
Y99600D01*
Y95400D02*
Y96700D01*
Y94100D02*
Y94400D01*
X202600Y128400D02*
Y129700D01*
Y125000D02*
Y125300D01*
Y122700D02*
Y123900D01*
Y120100D02*
Y121300D01*
Y117500D02*
Y118700D01*
Y115000D02*
Y116300D01*
Y113800D02*
Y114100D01*
Y111800D02*
Y113000D01*
Y109400D02*
Y110700D01*
Y107400D02*
Y108700D01*
Y103400D02*
Y105400D01*
Y100600D02*
Y101800D01*
Y98300D02*
Y99600D01*
Y95300D02*
Y96700D01*
Y94200D02*
Y94500D01*
X202500Y128400D02*
Y129700D01*
Y125000D02*
Y125300D01*
Y122700D02*
Y123900D01*
Y120100D02*
Y121300D01*
Y117500D02*
Y118700D01*
Y114900D02*
Y116200D01*
Y113900D02*
Y114100D01*
Y111800D02*
Y113100D01*
Y109400D02*
Y110700D01*
Y107500D02*
Y108700D01*
Y103100D02*
Y105400D01*
Y100600D02*
Y101800D01*
Y98300D02*
Y99600D01*
Y95300D02*
Y96600D01*
Y94200D02*
Y94500D01*
X202400Y128400D02*
Y129700D01*
Y125000D02*
Y125300D01*
Y122700D02*
Y123900D01*
Y120100D02*
Y121300D01*
Y117500D02*
Y118700D01*
Y114900D02*
Y116200D01*
Y113900D02*
Y114100D01*
Y109400D02*
Y113100D01*
Y107500D02*
Y108700D01*
Y102900D02*
Y105400D01*
Y100600D02*
Y101800D01*
Y98300D02*
Y99600D01*
Y95200D02*
Y96600D01*
Y94300D02*
Y94600D01*
X202300Y128400D02*
Y129700D01*
Y125000D02*
Y125300D01*
Y122700D02*
Y123900D01*
Y120100D02*
Y121300D01*
Y117500D02*
Y118700D01*
Y114800D02*
Y116200D01*
Y113900D02*
Y114200D01*
Y109400D02*
Y113100D01*
Y107500D02*
Y108700D01*
Y102800D02*
Y105400D01*
Y100600D02*
Y101800D01*
Y98300D02*
Y99600D01*
Y95200D02*
Y96500D01*
Y94300D02*
Y94600D01*
X202200Y128400D02*
Y129700D01*
Y125000D02*
Y125300D01*
Y122700D02*
Y123900D01*
Y120100D02*
Y121300D01*
Y117500D02*
Y118700D01*
Y114800D02*
Y116100D01*
Y114000D02*
Y114200D01*
Y111800D02*
Y113100D01*
Y107500D02*
Y108700D01*
Y102700D02*
Y105300D01*
Y100600D02*
Y101800D01*
Y98300D02*
Y99600D01*
Y95100D02*
Y96500D01*
Y94400D02*
Y94600D01*
X202100Y128400D02*
Y129700D01*
Y125000D02*
Y125300D01*
Y122700D02*
Y123900D01*
Y120100D02*
Y121300D01*
Y117500D02*
Y118700D01*
Y114700D02*
Y116100D01*
Y114000D02*
Y114300D01*
Y111800D02*
Y113100D01*
Y107500D02*
Y108700D01*
Y102700D02*
Y105300D01*
Y100600D02*
Y101800D01*
Y98300D02*
Y99600D01*
Y95100D02*
Y96400D01*
Y94400D02*
Y94700D01*
X202000Y128400D02*
Y129700D01*
Y125000D02*
Y125300D01*
Y122700D02*
Y123900D01*
Y120100D02*
Y121300D01*
Y117500D02*
Y118700D01*
Y114700D02*
Y116000D01*
Y114000D02*
Y114300D01*
Y111800D02*
Y113100D01*
Y107500D02*
Y108700D01*
Y102600D02*
Y105200D01*
Y100600D02*
Y101800D01*
Y98300D02*
Y99600D01*
Y95100D02*
Y96400D01*
Y94400D02*
Y94700D01*
X201900Y128400D02*
Y129700D01*
Y125000D02*
Y125300D01*
Y122700D02*
Y123900D01*
Y120100D02*
Y121300D01*
Y117500D02*
Y118700D01*
Y114600D02*
Y116000D01*
Y114100D02*
Y114400D01*
Y111800D02*
Y113100D01*
Y107500D02*
Y108700D01*
Y102600D02*
Y105200D01*
Y100600D02*
Y101800D01*
Y98300D02*
Y99600D01*
Y95000D02*
Y96400D01*
Y94500D02*
Y94800D01*
X201800Y128300D02*
Y129700D01*
Y125000D02*
Y125300D01*
Y122700D02*
Y123900D01*
Y120100D02*
Y121300D01*
Y117500D02*
Y118700D01*
Y114600D02*
Y115900D01*
Y114100D02*
Y114400D01*
Y111800D02*
Y113100D01*
Y107500D02*
Y108700D01*
Y102500D02*
Y105100D01*
Y100600D02*
Y101800D01*
Y98300D02*
Y99600D01*
Y95000D02*
Y96300D01*
Y94500D02*
Y94800D01*
X201700Y128300D02*
Y129700D01*
Y125000D02*
Y125300D01*
Y122700D02*
Y123900D01*
Y120100D02*
Y121300D01*
Y117500D02*
Y118700D01*
Y114200D02*
Y115900D01*
Y111800D02*
Y113100D01*
Y107500D02*
Y108700D01*
Y102500D02*
Y104900D01*
Y100600D02*
Y101800D01*
Y98300D02*
Y99600D01*
Y94600D02*
Y96300D01*
X201600Y128300D02*
Y129600D01*
Y125100D02*
Y125300D01*
Y122700D02*
Y123900D01*
Y120100D02*
Y121300D01*
Y117500D02*
Y118700D01*
Y114200D02*
Y115800D01*
Y111800D02*
Y113100D01*
Y107500D02*
Y108700D01*
Y102500D02*
Y104700D01*
Y100600D02*
Y101800D01*
Y98300D02*
Y99600D01*
Y94600D02*
Y96200D01*
X201500Y128300D02*
Y129600D01*
Y125100D02*
Y125300D01*
Y122700D02*
Y123900D01*
Y120100D02*
Y121300D01*
Y117500D02*
Y118700D01*
Y114300D02*
Y115800D01*
Y111800D02*
Y113100D01*
Y109400D02*
Y109600D01*
Y107500D02*
Y108700D01*
Y102500D02*
Y104200D01*
Y100600D02*
Y101800D01*
Y98300D02*
Y99600D01*
Y94700D02*
Y96200D01*
X201400Y128300D02*
Y129600D01*
Y125100D02*
Y125400D01*
Y122700D02*
Y123900D01*
Y120100D02*
Y121300D01*
Y117500D02*
Y118700D01*
Y114300D02*
Y115800D01*
Y111800D02*
Y113000D01*
Y109400D02*
Y109600D01*
Y107500D02*
Y108700D01*
Y105200D02*
Y105400D01*
Y102500D02*
Y103500D01*
Y100600D02*
Y101800D01*
Y98300D02*
Y99600D01*
Y94700D02*
Y96100D01*
X201300Y128200D02*
Y129500D01*
Y125100D02*
Y125400D01*
Y122700D02*
Y123900D01*
Y120100D02*
Y121300D01*
Y117500D02*
Y118700D01*
Y114300D02*
Y115700D01*
Y111800D02*
Y113000D01*
Y109400D02*
Y109700D01*
Y107500D02*
Y108700D01*
Y105100D02*
Y105400D01*
Y102500D02*
Y103200D01*
Y100600D02*
Y101800D01*
Y98300D02*
Y99600D01*
Y94800D02*
Y96100D01*
X201200Y128200D02*
Y129500D01*
Y125200D02*
Y125400D01*
Y122700D02*
Y123900D01*
Y120100D02*
Y121300D01*
Y117500D02*
Y118700D01*
Y114400D02*
Y115700D01*
Y111800D02*
Y113000D01*
Y109500D02*
Y109700D01*
Y107500D02*
Y108700D01*
Y105100D02*
Y105400D01*
Y102500D02*
Y103100D01*
Y100600D02*
Y101800D01*
Y98300D02*
Y99600D01*
Y94800D02*
Y96100D01*
X201100Y128200D02*
Y129500D01*
Y125200D02*
Y125500D01*
Y122700D02*
Y123900D01*
Y120100D02*
Y121300D01*
Y117500D02*
Y118700D01*
Y114400D02*
Y115600D01*
Y111800D02*
Y112900D01*
Y109500D02*
Y109700D01*
Y107500D02*
Y108700D01*
Y105100D02*
Y105400D01*
Y102500D02*
Y103100D01*
Y100600D02*
Y101800D01*
Y98300D02*
Y99600D01*
Y94800D02*
Y96000D01*
X201000Y128100D02*
Y129400D01*
Y125200D02*
Y125500D01*
Y122700D02*
Y123900D01*
Y120100D02*
Y121300D01*
Y117500D02*
Y118700D01*
Y114500D02*
Y115600D01*
Y111800D02*
Y112900D01*
Y109500D02*
Y109800D01*
Y107500D02*
Y108700D01*
Y105000D02*
Y105400D01*
Y102600D02*
Y103100D01*
Y100600D02*
Y101800D01*
Y98300D02*
Y99600D01*
Y94900D02*
Y96000D01*
X200900Y128100D02*
Y129300D01*
Y125300D02*
Y125600D01*
Y122700D02*
Y123900D01*
Y120100D02*
Y121300D01*
Y117500D02*
Y118700D01*
Y114500D02*
Y115500D01*
Y111800D02*
Y112800D01*
Y109600D02*
Y109800D01*
Y107500D02*
Y108700D01*
Y105000D02*
Y105400D01*
Y102600D02*
Y103100D01*
Y100600D02*
Y101800D01*
Y98300D02*
Y99600D01*
Y94900D02*
Y95900D01*
X200800Y128000D02*
Y129300D01*
Y125300D02*
Y125700D01*
Y122700D02*
Y123900D01*
Y120100D02*
Y121300D01*
Y117500D02*
Y118700D01*
Y114600D02*
Y115500D01*
Y111700D02*
Y112800D01*
Y109600D02*
Y109900D01*
Y107500D02*
Y108700D01*
Y104900D02*
Y105400D01*
Y102700D02*
Y103100D01*
Y100600D02*
Y101800D01*
Y98300D02*
Y99500D01*
Y95000D02*
Y95900D01*
X200700Y127900D02*
Y129200D01*
Y125400D02*
Y125800D01*
Y122700D02*
Y123900D01*
Y120100D02*
Y121300D01*
Y117500D02*
Y118700D01*
Y114600D02*
Y115400D01*
Y111700D02*
Y112700D01*
Y109700D02*
Y110000D01*
Y107500D02*
Y108700D01*
Y104800D02*
Y105400D01*
Y102700D02*
Y103100D01*
Y100600D02*
Y101800D01*
Y98300D02*
Y99500D01*
Y97400D02*
Y97700D01*
Y95000D02*
Y95800D01*
X200600Y127800D02*
Y129100D01*
Y125500D02*
Y125900D01*
Y122700D02*
Y123900D01*
Y120100D02*
Y121300D01*
Y117500D02*
Y118700D01*
Y114700D02*
Y115400D01*
Y111600D02*
Y112600D01*
Y109800D02*
Y110100D01*
Y107500D02*
Y108700D01*
Y104700D02*
Y105400D01*
Y102800D02*
Y103200D01*
Y100600D02*
Y101800D01*
Y98300D02*
Y99500D01*
Y97500D02*
Y97800D01*
Y95000D02*
Y95800D01*
X200500Y127600D02*
Y129000D01*
Y125600D02*
Y126100D01*
Y122700D02*
Y123900D01*
Y120100D02*
Y121300D01*
Y117500D02*
Y118700D01*
Y114700D02*
Y115300D01*
Y111500D02*
Y112500D01*
Y109900D02*
Y110200D01*
Y107500D02*
Y108700D01*
Y104600D02*
Y105400D01*
Y102800D02*
Y103200D01*
Y100600D02*
Y101800D01*
Y98300D02*
Y99500D01*
Y97600D02*
Y97900D01*
Y95100D02*
Y95800D01*
X200400Y127400D02*
Y128800D01*
Y125700D02*
Y126300D01*
Y122700D02*
Y123900D01*
Y120100D02*
Y121300D01*
Y117500D02*
Y118700D01*
Y114700D02*
Y115300D01*
Y111400D02*
Y112400D01*
Y110000D02*
Y110400D01*
Y107500D02*
Y108700D01*
Y104400D02*
Y105400D01*
Y102900D02*
Y103400D01*
Y100600D02*
Y101800D01*
Y97600D02*
Y99400D01*
Y95100D02*
Y95700D01*
X200300Y125900D02*
Y128700D01*
Y122200D02*
Y124500D01*
Y119500D02*
Y121800D01*
Y116900D02*
Y119300D01*
Y114800D02*
Y115300D01*
Y111200D02*
Y112200D01*
Y110100D02*
Y110600D01*
Y106700D02*
Y109300D01*
Y104100D02*
Y105400D01*
Y103000D02*
Y103700D01*
Y99900D02*
Y102400D01*
Y97700D02*
Y99300D01*
Y95200D02*
Y95700D01*
X200200Y126100D02*
Y128500D01*
Y122200D02*
Y124500D01*
Y119500D02*
Y121800D01*
Y116900D02*
Y119300D01*
Y114800D02*
Y115200D01*
Y110300D02*
Y112000D01*
Y106700D02*
Y109300D01*
Y105000D02*
Y105400D01*
Y103200D02*
Y104800D01*
Y99900D02*
Y102400D01*
Y97900D02*
Y99200D01*
Y95200D02*
Y95600D01*
X200100Y126400D02*
Y128200D01*
Y122200D02*
Y124500D01*
Y119500D02*
Y121800D01*
Y116900D02*
Y119300D01*
Y114900D02*
Y115200D01*
Y110500D02*
Y111800D01*
Y105100D02*
Y105400D01*
Y103400D02*
Y104500D01*
Y100000D02*
Y102400D01*
Y98100D02*
Y99000D01*
Y95200D02*
Y95600D01*
X200000Y126800D02*
Y127800D01*
Y114900D02*
Y115200D01*
Y111000D02*
Y111300D01*
Y105200D02*
Y105400D01*
Y103800D02*
Y104000D01*
Y98500D02*
Y98600D01*
Y95300D02*
Y95600D01*
X199900Y95300D02*
Y95600D01*
X199800Y95400D02*
Y95600D01*
X199700Y95400D02*
Y95700D01*
X199600Y95500D02*
Y95700D01*
X199500Y95500D02*
Y95800D01*
X199400Y95600D02*
Y95800D01*
X199300Y95600D02*
Y95900D01*
X199200Y95600D02*
Y95900D01*
X199100Y96500D02*
Y97100D01*
Y95700D02*
Y96000D01*
X199000Y96400D02*
Y97200D01*
Y95700D02*
Y96000D01*
X198900Y96300D02*
Y97300D01*
Y95800D02*
Y96000D01*
X198800Y96200D02*
Y97400D01*
Y95800D02*
Y96100D01*
X198700Y96200D02*
Y97400D01*
Y95800D02*
Y96100D01*
X198600Y95900D02*
Y97400D01*
X198500Y96000D02*
Y97400D01*
X198400Y96000D02*
Y97400D01*
X198300Y96100D02*
Y97300D01*
X198200Y96200D02*
Y97300D01*
X198100Y96300D02*
Y97200D01*
X198000Y96500D02*
Y97000D01*
D119*
X138500Y26500D02*
X163500D01*
Y6500D02*
Y26500D01*
X138500Y6500D02*
X163500D01*
X138500D02*
Y26500D01*
D120*
X161300Y72200D02*
Y74799D01*
X162600D01*
X163033Y74366D01*
Y73500D01*
X162600Y73066D01*
X161300D01*
X165632Y74799D02*
X164766Y74366D01*
X163899Y73500D01*
Y72633D01*
X164332Y72200D01*
X165199D01*
X165632Y72633D01*
Y73066D01*
X165199Y73500D01*
X163899D01*
M02*
