G04 Layer_Color=128*
%FSLAX25Y25*%
%MOIN*%
G70*
G01*
G75*
%ADD16R,0.03543X0.02362*%
%ADD24R,0.03622X0.01575*%
%ADD27R,0.02362X0.03543*%
%ADD34R,0.01575X0.03622*%
%ADD44R,0.01968X0.02598*%
%ADD47R,0.02756X0.05118*%
%ADD54R,0.01968X0.01968*%
%ADD88R,0.01968X0.01968*%
%ADD89R,0.02362X0.04528*%
%ADD90R,0.02362X0.06102*%
%ADD91R,0.05709X0.01181*%
%ADD92R,0.02756X0.04724*%
%ADD93R,0.05709X0.01772*%
%ADD94R,0.04528X0.02362*%
%ADD95R,0.05118X0.02756*%
%ADD96R,0.02756X0.03937*%
%ADD97R,0.02500X0.04000*%
%ADD98R,0.03937X0.05512*%
%ADD99R,0.05512X0.03937*%
G04:AMPARAMS|DCode=100|XSize=9.84mil|YSize=23.62mil|CornerRadius=1.97mil|HoleSize=0mil|Usage=FLASHONLY|Rotation=180.000|XOffset=0mil|YOffset=0mil|HoleType=Round|Shape=RoundedRectangle|*
%AMROUNDEDRECTD100*
21,1,0.00984,0.01968,0,0,180.0*
21,1,0.00591,0.02362,0,0,180.0*
1,1,0.00394,-0.00295,0.00984*
1,1,0.00394,0.00295,0.00984*
1,1,0.00394,0.00295,-0.00984*
1,1,0.00394,-0.00295,-0.00984*
%
%ADD100ROUNDEDRECTD100*%
G04:AMPARAMS|DCode=101|XSize=9.84mil|YSize=23.62mil|CornerRadius=1.97mil|HoleSize=0mil|Usage=FLASHONLY|Rotation=270.000|XOffset=0mil|YOffset=0mil|HoleType=Round|Shape=RoundedRectangle|*
%AMROUNDEDRECTD101*
21,1,0.00984,0.01968,0,0,270.0*
21,1,0.00591,0.02362,0,0,270.0*
1,1,0.00394,-0.00984,-0.00295*
1,1,0.00394,-0.00984,0.00295*
1,1,0.00394,0.00984,0.00295*
1,1,0.00394,0.00984,-0.00295*
%
%ADD101ROUNDEDRECTD101*%
%ADD105R,0.02598X0.01968*%
%ADD106R,0.02362X0.03150*%
%ADD107R,0.03150X0.03150*%
%ADD207R,0.02756X0.02756*%
%ADD208R,0.04134X0.02677*%
%ADD209R,0.01968X0.01024*%
%ADD210R,0.08268X0.05905*%
%ADD211R,0.04724X0.05905*%
G04:AMPARAMS|DCode=212|XSize=9.06mil|YSize=31.5mil|CornerRadius=1mil|HoleSize=0mil|Usage=FLASHONLY|Rotation=0.000|XOffset=0mil|YOffset=0mil|HoleType=Round|Shape=RoundedRectangle|*
%AMROUNDEDRECTD212*
21,1,0.00906,0.02950,0,0,0.0*
21,1,0.00705,0.03150,0,0,0.0*
1,1,0.00200,0.00353,-0.01475*
1,1,0.00200,-0.00353,-0.01475*
1,1,0.00200,-0.00353,0.01475*
1,1,0.00200,0.00353,0.01475*
%
%ADD212ROUNDEDRECTD212*%
D16*
X138100Y82156D02*
D03*
Y76644D02*
D03*
X60900Y171956D02*
D03*
Y166444D02*
D03*
X85500Y185456D02*
D03*
Y179944D02*
D03*
X145100Y141644D02*
D03*
Y147156D02*
D03*
X114600Y185756D02*
D03*
Y180244D02*
D03*
X145100Y186256D02*
D03*
Y180744D02*
D03*
X66800Y140356D02*
D03*
Y134844D02*
D03*
X46400Y191344D02*
D03*
Y196856D02*
D03*
X46300Y187956D02*
D03*
Y182444D02*
D03*
X46200Y177156D02*
D03*
Y171644D02*
D03*
X46900Y167456D02*
D03*
Y161944D02*
D03*
X46800Y159456D02*
D03*
Y153944D02*
D03*
X58400Y94744D02*
D03*
Y100256D02*
D03*
X36500Y67756D02*
D03*
Y62244D02*
D03*
X155500Y62044D02*
D03*
Y67556D02*
D03*
X158100Y43156D02*
D03*
Y37644D02*
D03*
X175100Y166156D02*
D03*
Y160644D02*
D03*
X145300Y169744D02*
D03*
Y175256D02*
D03*
Y166400D02*
D03*
Y160888D02*
D03*
X115200Y166556D02*
D03*
Y161044D02*
D03*
X85200Y169444D02*
D03*
Y174956D02*
D03*
X85300Y166856D02*
D03*
Y161344D02*
D03*
X127000Y168356D02*
D03*
Y162844D02*
D03*
X96700Y168256D02*
D03*
Y162744D02*
D03*
X67100Y168656D02*
D03*
Y163144D02*
D03*
X116600Y95056D02*
D03*
Y89544D02*
D03*
X125800Y95044D02*
D03*
Y100556D02*
D03*
X153400Y43156D02*
D03*
Y37644D02*
D03*
X123200Y83944D02*
D03*
Y89456D02*
D03*
X47300Y113244D02*
D03*
Y118756D02*
D03*
X42600Y86944D02*
D03*
Y92456D02*
D03*
X57500Y112544D02*
D03*
Y118056D02*
D03*
X77800Y103656D02*
D03*
Y98144D02*
D03*
X122800Y108756D02*
D03*
Y103244D02*
D03*
X43000Y32556D02*
D03*
Y27044D02*
D03*
X49000Y43756D02*
D03*
Y38244D02*
D03*
X56900Y25856D02*
D03*
Y20344D02*
D03*
X67700Y47556D02*
D03*
Y42044D02*
D03*
X69300Y50344D02*
D03*
Y55856D02*
D03*
X64200Y89644D02*
D03*
Y95156D02*
D03*
X85500Y148356D02*
D03*
Y142844D02*
D03*
X115300Y147756D02*
D03*
Y142244D02*
D03*
X174900Y146756D02*
D03*
Y141244D02*
D03*
X37100Y33444D02*
D03*
Y38956D02*
D03*
X121300Y95044D02*
D03*
Y100556D02*
D03*
X161300Y98944D02*
D03*
Y104456D02*
D03*
X59000Y92156D02*
D03*
Y86644D02*
D03*
X44100Y43756D02*
D03*
Y38244D02*
D03*
X48200Y70056D02*
D03*
Y64544D02*
D03*
X161300Y110344D02*
D03*
Y115856D02*
D03*
X79800Y78956D02*
D03*
Y73444D02*
D03*
X75500Y84556D02*
D03*
Y79044D02*
D03*
X174400Y191244D02*
D03*
Y196756D02*
D03*
X115080Y32544D02*
D03*
Y38056D02*
D03*
X82300Y98144D02*
D03*
Y103656D02*
D03*
X160000Y89056D02*
D03*
Y83544D02*
D03*
X118200Y103244D02*
D03*
Y108756D02*
D03*
X128400Y89456D02*
D03*
Y83944D02*
D03*
X96400Y159056D02*
D03*
Y153544D02*
D03*
X126700Y158956D02*
D03*
Y153444D02*
D03*
X174400Y184656D02*
D03*
Y179144D02*
D03*
X67300Y158356D02*
D03*
Y152844D02*
D03*
X140700Y116344D02*
D03*
Y121856D02*
D03*
X156100Y167756D02*
D03*
Y162244D02*
D03*
X156000Y158456D02*
D03*
Y152944D02*
D03*
X174800Y169244D02*
D03*
Y174756D02*
D03*
X115200Y169144D02*
D03*
Y174656D02*
D03*
X41200Y67956D02*
D03*
Y62444D02*
D03*
X76800Y48356D02*
D03*
Y42844D02*
D03*
X97000Y50512D02*
D03*
Y45000D02*
D03*
X101900Y45044D02*
D03*
Y50556D02*
D03*
D24*
X143760Y74241D02*
D03*
Y76800D02*
D03*
Y79359D02*
D03*
X151240D02*
D03*
Y74241D02*
D03*
X81760Y47559D02*
D03*
Y42441D02*
D03*
X89240D02*
D03*
Y45000D02*
D03*
Y47559D02*
D03*
D27*
X50944Y172700D02*
D03*
X56456D02*
D03*
X57156Y186700D02*
D03*
X51644D02*
D03*
X96656Y176100D02*
D03*
X91144D02*
D03*
X126756Y176400D02*
D03*
X121244D02*
D03*
X184556Y173300D02*
D03*
X179044D02*
D03*
X149056Y194400D02*
D03*
X143544D02*
D03*
X20356Y140000D02*
D03*
X14844D02*
D03*
X20856Y148100D02*
D03*
X15344D02*
D03*
X91756Y97900D02*
D03*
X86244D02*
D03*
X43756Y52300D02*
D03*
X38244D02*
D03*
X49956Y47600D02*
D03*
X44444D02*
D03*
X57344Y34200D02*
D03*
X62856D02*
D03*
X83156Y29880D02*
D03*
X77644D02*
D03*
X83156Y34780D02*
D03*
X77644D02*
D03*
X153444Y56900D02*
D03*
X158956D02*
D03*
X157756Y49400D02*
D03*
X152244D02*
D03*
X67656Y117600D02*
D03*
X62144D02*
D03*
X89100Y129000D02*
D03*
X94612D02*
D03*
X122344Y181900D02*
D03*
X127856D02*
D03*
X62756Y29300D02*
D03*
X57244D02*
D03*
X140944Y30800D02*
D03*
X146456D02*
D03*
X151744Y181400D02*
D03*
X157256D02*
D03*
X92744Y181600D02*
D03*
X98256D02*
D03*
X62744Y180800D02*
D03*
X68256D02*
D03*
X49084Y93900D02*
D03*
X54596D02*
D03*
X138188Y25744D02*
D03*
X143700D02*
D03*
X65844Y83400D02*
D03*
X71356D02*
D03*
X91756Y116000D02*
D03*
X86244D02*
D03*
X28644Y164500D02*
D03*
X34156D02*
D03*
X28644Y159800D02*
D03*
X34156D02*
D03*
X28744Y155000D02*
D03*
X34256D02*
D03*
X28844Y150300D02*
D03*
X34356D02*
D03*
X154544Y121300D02*
D03*
X160056D02*
D03*
X103056Y26100D02*
D03*
X97544D02*
D03*
X125756Y45100D02*
D03*
X120244D02*
D03*
X44056Y82100D02*
D03*
X38544D02*
D03*
X131544Y32924D02*
D03*
X137056D02*
D03*
X57256Y52200D02*
D03*
X51744D02*
D03*
X67944Y89400D02*
D03*
X73456D02*
D03*
X71944Y111500D02*
D03*
X77456D02*
D03*
X145544Y119300D02*
D03*
X151056D02*
D03*
X51744Y63800D02*
D03*
X57256D02*
D03*
X62844Y68700D02*
D03*
X68356D02*
D03*
X71456Y73300D02*
D03*
X65944D02*
D03*
X59988Y63700D02*
D03*
X65500D02*
D03*
X155956Y175700D02*
D03*
X150444D02*
D03*
X88856Y194600D02*
D03*
X83344D02*
D03*
X30556Y118100D02*
D03*
X25044D02*
D03*
X119056Y194100D02*
D03*
X113544D02*
D03*
X120644Y57600D02*
D03*
X126156D02*
D03*
X24544Y113200D02*
D03*
X30056D02*
D03*
Y108000D02*
D03*
X24544D02*
D03*
X145244Y70247D02*
D03*
X150756D02*
D03*
X71580Y32100D02*
D03*
X66069D02*
D03*
X155044Y94000D02*
D03*
X160556D02*
D03*
X145244Y83900D02*
D03*
X150756D02*
D03*
X42256Y164500D02*
D03*
X36744D02*
D03*
X42356Y159800D02*
D03*
X36844D02*
D03*
X42356Y155000D02*
D03*
X36844D02*
D03*
X42356Y150300D02*
D03*
X36844D02*
D03*
D34*
X92159Y111140D02*
D03*
Y103660D02*
D03*
X89600D02*
D03*
X87041D02*
D03*
Y111140D02*
D03*
X89600D02*
D03*
D44*
X126631Y112544D02*
D03*
X130569D02*
D03*
X128600Y108056D02*
D03*
D47*
X84860Y84600D02*
D03*
X92340D02*
D03*
X84860Y78600D02*
D03*
X92340D02*
D03*
X32860Y76100D02*
D03*
X40340D02*
D03*
X84960Y72600D02*
D03*
X92440D02*
D03*
D54*
X92844Y195600D02*
D03*
X98356D02*
D03*
X62744Y195500D02*
D03*
X68256D02*
D03*
X122544Y194800D02*
D03*
X128056D02*
D03*
X91244Y171600D02*
D03*
X96756D02*
D03*
X121244Y171800D02*
D03*
X126756D02*
D03*
X150444Y171100D02*
D03*
X155956D02*
D03*
X152444Y195500D02*
D03*
X157956D02*
D03*
X60156Y134700D02*
D03*
X54644D02*
D03*
X73556Y94900D02*
D03*
X68044D02*
D03*
X94812Y124700D02*
D03*
X89300D02*
D03*
X77356Y107000D02*
D03*
X71844D02*
D03*
X39744Y58700D02*
D03*
X45256D02*
D03*
X125456Y28500D02*
D03*
X119944D02*
D03*
X132844Y86300D02*
D03*
X138356D02*
D03*
X105744Y51800D02*
D03*
X111256D02*
D03*
D88*
X92600Y191456D02*
D03*
Y185944D02*
D03*
X97000D02*
D03*
Y191456D02*
D03*
X67100Y143244D02*
D03*
Y148756D02*
D03*
X96900Y144144D02*
D03*
Y149656D02*
D03*
X126600Y144344D02*
D03*
Y149856D02*
D03*
X122700Y191856D02*
D03*
Y186344D02*
D03*
X127100D02*
D03*
Y191856D02*
D03*
X66200Y176756D02*
D03*
Y171244D02*
D03*
X156100Y144240D02*
D03*
Y149752D02*
D03*
X62900Y191256D02*
D03*
Y185744D02*
D03*
X67400D02*
D03*
Y191256D02*
D03*
X152300D02*
D03*
Y185744D02*
D03*
X157000Y185644D02*
D03*
Y191156D02*
D03*
X120000Y32444D02*
D03*
Y37956D02*
D03*
X97120Y121656D02*
D03*
Y116144D02*
D03*
X81200Y108144D02*
D03*
Y113656D02*
D03*
X48300Y53144D02*
D03*
Y58656D02*
D03*
X85400Y157156D02*
D03*
Y151644D02*
D03*
X115200Y151088D02*
D03*
Y156600D02*
D03*
X144900Y155800D02*
D03*
Y150288D02*
D03*
X174800Y150444D02*
D03*
Y155956D02*
D03*
D89*
X79640Y176371D02*
D03*
X72160D02*
D03*
X75900Y185229D02*
D03*
X79840Y149371D02*
D03*
X72360D02*
D03*
X76100Y158229D02*
D03*
X79640Y167371D02*
D03*
X72160D02*
D03*
X75900Y176229D02*
D03*
X109640Y149371D02*
D03*
X102160D02*
D03*
X105900Y158229D02*
D03*
X109640Y167371D02*
D03*
X102160D02*
D03*
X105900Y176229D02*
D03*
X109640Y176371D02*
D03*
X102160D02*
D03*
X105900Y185229D02*
D03*
X169640Y167371D02*
D03*
X162160D02*
D03*
X165900Y176229D02*
D03*
X169640Y149371D02*
D03*
X162160D02*
D03*
X165900Y158229D02*
D03*
X169640Y176371D02*
D03*
X162160D02*
D03*
X165900Y185229D02*
D03*
X139740Y149371D02*
D03*
X132260D02*
D03*
X136000Y158229D02*
D03*
X139640Y167371D02*
D03*
X132160D02*
D03*
X135900Y176229D02*
D03*
X139640Y176371D02*
D03*
X132160D02*
D03*
X135900Y185229D02*
D03*
X105900Y149229D02*
D03*
X102160Y140371D02*
D03*
X109640D02*
D03*
X75900Y149229D02*
D03*
X72160Y140371D02*
D03*
X79640D02*
D03*
X165900Y149229D02*
D03*
X162160Y140371D02*
D03*
X169640D02*
D03*
X135900Y149229D02*
D03*
X132160Y140371D02*
D03*
X139640D02*
D03*
X79640Y158371D02*
D03*
X72160D02*
D03*
X75900Y167229D02*
D03*
X109640Y158371D02*
D03*
X102160D02*
D03*
X105900Y167229D02*
D03*
X139640Y158371D02*
D03*
X132160D02*
D03*
X135900Y167229D02*
D03*
X169640Y158371D02*
D03*
X162160D02*
D03*
X165900Y167229D02*
D03*
X79640Y185371D02*
D03*
X72160D02*
D03*
X75900Y194229D02*
D03*
X109640Y185371D02*
D03*
X102160D02*
D03*
X105900Y194229D02*
D03*
X139640Y185371D02*
D03*
X132160D02*
D03*
X135900Y194229D02*
D03*
X169640Y185371D02*
D03*
X162160D02*
D03*
X165900Y194229D02*
D03*
D90*
X27300Y193330D02*
D03*
X32300D02*
D03*
X37300D02*
D03*
X42300D02*
D03*
X27300Y172070D02*
D03*
X32300D02*
D03*
X37300D02*
D03*
X42300D02*
D03*
D91*
X26239Y137963D02*
D03*
Y139931D02*
D03*
Y141900D02*
D03*
Y143869D02*
D03*
Y145837D02*
D03*
X43561Y137963D02*
D03*
Y139931D02*
D03*
Y141900D02*
D03*
Y143869D02*
D03*
Y145837D02*
D03*
D92*
X19700Y107616D02*
D03*
Y122184D02*
D03*
D93*
X108961Y38039D02*
D03*
Y35480D02*
D03*
Y32921D02*
D03*
Y30361D02*
D03*
X91639Y38039D02*
D03*
Y35480D02*
D03*
Y32921D02*
D03*
Y30361D02*
D03*
D94*
X130642Y61260D02*
D03*
X139500Y57520D02*
D03*
Y65000D02*
D03*
X139571Y61300D02*
D03*
X148429Y57560D02*
D03*
Y65040D02*
D03*
D95*
X117400Y80340D02*
D03*
Y72860D02*
D03*
X158300Y71760D02*
D03*
Y79240D02*
D03*
X130200Y80440D02*
D03*
Y72960D02*
D03*
X123700Y80340D02*
D03*
Y72860D02*
D03*
X139600Y105440D02*
D03*
Y97960D02*
D03*
X133600Y105340D02*
D03*
Y97860D02*
D03*
D96*
X33860Y117724D02*
D03*
X37600D02*
D03*
X41340D02*
D03*
X33860Y108276D02*
D03*
X41340D02*
D03*
X134100Y38300D02*
D03*
X137840D02*
D03*
X130360D02*
D03*
X137840Y47749D02*
D03*
X134100D02*
D03*
X130360D02*
D03*
D97*
X150600Y95100D02*
D03*
X145600D02*
D03*
X49200Y87400D02*
D03*
X54200D02*
D03*
D98*
X82500Y215428D02*
D03*
Y206372D02*
D03*
X155100Y206772D02*
D03*
Y215828D02*
D03*
X191100Y206772D02*
D03*
Y215828D02*
D03*
X130600Y215428D02*
D03*
Y206372D02*
D03*
X95000D02*
D03*
Y215428D02*
D03*
X58900Y215328D02*
D03*
Y206272D02*
D03*
X167100Y206772D02*
D03*
Y215828D02*
D03*
X107000Y206372D02*
D03*
Y215428D02*
D03*
X70800D02*
D03*
Y206372D02*
D03*
X179000Y215828D02*
D03*
Y206772D02*
D03*
X118700Y206372D02*
D03*
Y215428D02*
D03*
X143100D02*
D03*
Y206372D02*
D03*
D99*
X192628Y152900D02*
D03*
X183572D02*
D03*
Y165000D02*
D03*
X192628D02*
D03*
D100*
X52694Y82924D02*
D03*
X54663D02*
D03*
X56631D02*
D03*
X58600D02*
D03*
Y71900D02*
D03*
X56631D02*
D03*
X54663D02*
D03*
X52694D02*
D03*
D101*
X61159Y80365D02*
D03*
Y78396D02*
D03*
Y76428D02*
D03*
Y74459D02*
D03*
X50135D02*
D03*
Y76428D02*
D03*
Y78396D02*
D03*
Y80365D02*
D03*
D105*
X37239Y45768D02*
D03*
Y41831D02*
D03*
X32750Y43800D02*
D03*
D106*
X143641Y35960D02*
D03*
X148759D02*
D03*
X143641Y43440D02*
D03*
X57941Y40560D02*
D03*
X63059D02*
D03*
X57941Y48040D02*
D03*
X47541Y26360D02*
D03*
X52659D02*
D03*
X47541Y33840D02*
D03*
X62141Y105560D02*
D03*
X67259D02*
D03*
X62141Y113040D02*
D03*
D107*
X148759Y43440D02*
D03*
X63059Y48040D02*
D03*
X52659Y33840D02*
D03*
X67259Y113040D02*
D03*
D207*
X53876Y79184D02*
D03*
Y75640D02*
D03*
X57419Y79184D02*
D03*
Y75640D02*
D03*
D208*
X147760Y105623D02*
D03*
X147760Y109166D02*
D03*
X152759Y109166D02*
D03*
X152759Y105623D02*
D03*
D209*
X143843Y106410D02*
D03*
X143843Y108379D02*
D03*
X156677Y108379D02*
D03*
Y106410D02*
D03*
D210*
X54900Y160115D02*
D03*
Y146335D02*
D03*
Y179800D02*
D03*
Y193579D02*
D03*
D211*
X54600Y179600D02*
D03*
Y193773D02*
D03*
Y165427D02*
D03*
D212*
X154197Y113202D02*
D03*
X152228D02*
D03*
X150260D02*
D03*
X148291D02*
D03*
X146323D02*
D03*
Y101587D02*
D03*
X148291D02*
D03*
X150260D02*
D03*
X152228D02*
D03*
X154197D02*
D03*
M02*
