M48
;Layer_Color=9474304
;FILE_FORMAT=2:5
INCH,LZ
;TYPE=PLATED
T1F00S00C0.01500
T2F00S00C0.02200
T3F00S00C0.02362
T4F00S00C0.02362
T5F00S00C0.02400
T6F00S00C0.03300
;TYPE=NON_PLATED
T7F00S00C0.12500
%
T01
X00305Y00161
X00345Y00221
X00369Y00244
X00367Y00277
X00325Y00302
X00332Y00357
X00199Y00356
X00209Y00391
X00169Y00307
X00415Y00216
X00521Y00226
X00545Y00425
X00768Y00448
X00921Y0045131
X0086472Y0038129
X00862Y00256
X00799Y00176
X00749Y00196
X00708Y00178
X00712Y00133
X00654Y00253
X00939Y00188
X01072Y00273
X0117
X01282Y00338
X01371Y00434
X01475Y00291
X01523Y0031
X01555Y00331
X01825Y00302
X01829Y00217
X01754Y00187
X01786Y00134
X01708Y00132
X01953Y00217
X0195Y00308
X01837Y0048
X01867Y00548
X01799Y00547
X01795Y00617
X01866
X01877Y00775
X01812Y00773
X01805Y00844
X01876
X0181Y0091
X0176Y00912
X01719Y00932
X0168Y00931
X01638Y00904
X01571Y00947
X01539Y00824
X01556Y00745
X01717Y00807
X01714Y00861
X01717Y01018
X01718Y01077
X01756Y01101
X01762Y01039
X01827Y01038
X0187Y0106
X01899Y01012
X01934Y01085
X0183Y011
X01807Y01158
X01738Y0116
X01762Y01222
X01831Y01224
X01791Y0127
X01795Y01333
X01776Y01429
X01904Y01433
Y01487
X01906Y01697
X01902Y01733
X01604Y01682
X01574Y01154
X0152Y01068
X01376Y01045
X01334Y01121
X01315Y01206
X01283Y01208
X0125Y01202
X01242Y01168
X01163Y0116
Y01121
X01106Y01116
X01092Y01002
X01118Y00977
X01156Y00987
X01275Y01027
X01335Y00905
X01406Y00893
X01409Y00942
X01257Y00849
X01243Y00691
X01182Y00663
X0117817Y00606
X01188Y00529
X01144Y00524
X01151Y00492
X01121Y00477
X01084Y00596
X0105Y00584
X01Y00579
X00977Y005515
X00932Y00498
X00812Y00504
X00772Y00508
X00654Y00519
X00605Y00525
X00691Y00632
X00721Y00644
X00745Y00618
X00775Y00663
X0083Y00659
X00869Y00635
X00908Y00633
X00888Y00682
X00874Y00741
X0089Y0077
X00885Y00816
X00887Y00849
X00913Y00911
X0089Y00937
X00857Y00938
X00824
X00796Y01059
X00756Y01184
X00644Y01186
X00647Y01023
X00561Y01075
X00566Y00778
X00748Y00738
X00811Y00604
X01111Y00649
X01124Y00697
X01091Y00748
X01067Y00834
X01053Y01198
X01013Y01161
X009Y01189
X01027Y01308
X01061
X01095
X0113
X01187Y01201
X01343Y00699
X01311Y00649
X01327Y00575
X01344Y00505
X014427Y004793
X01491Y00474
X01507Y00535
X0124Y0054
X00693Y01721
X006Y01686
X00433Y01639
X00414Y01768
X00312Y01835
X00307Y01985
X00546Y01997
X0054Y01529
X0047Y01507
X00534Y01435
X00368Y01456
X00356Y01426
X00336Y014
X00172Y01438
X00171Y01525
X00172Y01629
X00171Y01679
X00166Y01773
X0012
X00076
X00048Y01651
X00255Y01642
X00196Y01332
X00097Y0135
X00195Y01105
X00116Y01006
X00146Y0088
X00154Y00832
X0024Y00834
X00219Y00786
X00216Y00754
X00292Y00645
X00313Y00594
X00344Y00579
X00329Y0055
X0035Y00523
X00292Y0051
X00268Y0054
X0028954Y0087279
X00324Y0086
X00457Y00943
X00452Y01061
X00434Y01207
X00445Y00737
X00538Y00761
Y00791
X00518Y0202
X00482Y02153
X00516Y02233
X00407Y02228
X0027Y02211
X00201Y0221
X00235Y02164
X00198Y02129
X00274
X00325Y02153
T02
X0065Y0211547
Y0217453
X00885
Y0211547
X01245
Y0217453
X01495
Y0211547
X01735
Y0217453
T03
X0141Y0014
Y0019
X0146
X0151
X0156
X0161
Y0014
X0156
X0151
X0146
T04
X00105Y003
Y0035
Y004
Y0045
X0032Y001
X0037
X0042
X0047
X0052
X0057
X0062
X0067
X0078
X0083
X0088
X0093
X0164Y00325
Y00375
Y00425
Y00475
Y00525
Y00575
Y00625
Y00675
X0165Y0128
X016
X0155
X015
X0145
X014
X00523Y01018
X00473
X00423
X00373
X00323
X00273
X00223
X00173
X00128Y01108
Y01158
Y01208
X00105Y014
Y0145
Y015
Y0155
Y0165
Y017
X00105Y00896
X00105Y00846
Y00796
Y00746
Y00696
Y00646
Y00596
Y0206
Y0211
Y0216
Y0221
T05
X01035Y001
X01085
Y0015
X01035
X01135
X01185
Y001
X01135
X01235
Y0015
X01285
Y001
X01025Y0067
X00975
Y0072
X01025
Y0077
Y0082
X00975
Y0077
Y0087
Y0092
Y0097
Y0102
X01025
Y0097
Y0092
Y0087
X00825Y0125
Y013
X00775
Y0125
X00725
X00675
Y013
X00625
Y0125
X00575
Y013
X00725
X00525
X00475
Y0125
X00525
X00425
X00375
Y013
X00425
X00325
Y0125
X00275
Y013
T06
X00355Y021
X00405Y0215
X00455Y021
Y022
X00355
T07
X00125Y00115
X01897
X02145Y00125
X01897Y01887
X00125
X02145Y02145
M30
