G04 Layer_Physical_Order=2*
G04 Layer_Color=36540*
%FSLAX25Y25*%
%MOIN*%
G70*
G01*
G75*
%ADD75C,0.06000*%
%ADD76C,0.04000*%
%ADD77C,0.03937*%
%ADD78R,0.03937X0.03937*%
%ADD81C,0.04331*%
%ADD83R,0.03937X0.03937*%
%ADD85C,0.02600*%
G36*
X197800Y191462D02*
X196800Y190754D01*
X196658Y190804D01*
X196478Y191399D01*
X196431Y191488D01*
X196401Y191584D01*
X195821Y192670D01*
X195757Y192747D01*
X195710Y192836D01*
X194929Y193788D01*
X194851Y193851D01*
X194788Y193929D01*
X193836Y194710D01*
X193747Y194757D01*
X193670Y194821D01*
X192584Y195401D01*
X192488Y195431D01*
X192399Y195478D01*
X191221Y195835D01*
X191121Y195845D01*
X191025Y195874D01*
X189800Y195995D01*
X189750Y195990D01*
X189700Y196000D01*
X189650Y195990D01*
X189600Y195995D01*
X188375Y195874D01*
X188279Y195845D01*
X188179Y195835D01*
X187001Y195478D01*
X186912Y195431D01*
X186816Y195401D01*
X185730Y194821D01*
X185653Y194757D01*
X185564Y194710D01*
X184612Y193929D01*
X184549Y193851D01*
X184471Y193788D01*
X183690Y192836D01*
X183643Y192747D01*
X183579Y192670D01*
X182999Y191584D01*
X182969Y191488D01*
X182922Y191399D01*
X182565Y190221D01*
X182555Y190121D01*
X182526Y190025D01*
X182405Y188800D01*
X182415Y188700D01*
X182405Y188600D01*
X182526Y187375D01*
X182555Y187279D01*
X182565Y187179D01*
X182922Y186001D01*
X182969Y185912D01*
X182999Y185816D01*
X183579Y184730D01*
X183643Y184653D01*
X183690Y184564D01*
X184471Y183612D01*
X184549Y183549D01*
X184612Y183471D01*
X185564Y182690D01*
X185653Y182643D01*
X185730Y182579D01*
X186816Y181999D01*
X186912Y181969D01*
X187001Y181922D01*
X188179Y181565D01*
X188279Y181555D01*
X188375Y181526D01*
X189600Y181405D01*
X189650Y181410D01*
X189700Y181400D01*
X189750Y181410D01*
X189800Y181405D01*
X191025Y181526D01*
X191121Y181555D01*
X191221Y181565D01*
X192399Y181922D01*
X192488Y181969D01*
X192584Y181999D01*
X193670Y182579D01*
X193747Y182643D01*
X193836Y182690D01*
X194788Y183471D01*
X194851Y183549D01*
X194929Y183612D01*
X195710Y184564D01*
X195757Y184653D01*
X195821Y184730D01*
X196401Y185816D01*
X196431Y185912D01*
X196478Y186001D01*
X196658Y186596D01*
X196800Y186646D01*
X197800Y185938D01*
Y14262D01*
X196800Y13554D01*
X196658Y13604D01*
X196478Y14199D01*
X196431Y14288D01*
X196401Y14384D01*
X195821Y15470D01*
X195757Y15547D01*
X195710Y15636D01*
X194929Y16588D01*
X194851Y16651D01*
X194788Y16729D01*
X193836Y17510D01*
X193747Y17557D01*
X193670Y17621D01*
X192584Y18201D01*
X192488Y18230D01*
X192399Y18278D01*
X191221Y18635D01*
X191121Y18645D01*
X191025Y18674D01*
X189800Y18795D01*
X189750Y18790D01*
X189700Y18800D01*
X189650Y18790D01*
X189600Y18795D01*
X188375Y18674D01*
X188279Y18645D01*
X188179Y18635D01*
X187001Y18278D01*
X186912Y18230D01*
X186816Y18201D01*
X185730Y17621D01*
X185653Y17557D01*
X185564Y17510D01*
X184612Y16729D01*
X184549Y16651D01*
X184471Y16588D01*
X183690Y15636D01*
X183643Y15547D01*
X183579Y15470D01*
X182999Y14384D01*
X182969Y14288D01*
X182922Y14199D01*
X182565Y13021D01*
X182555Y12921D01*
X182526Y12825D01*
X182405Y11600D01*
X182415Y11500D01*
X182405Y11400D01*
X182526Y10175D01*
X182555Y10079D01*
X182565Y9979D01*
X182922Y8801D01*
X182969Y8712D01*
X182999Y8616D01*
X183579Y7530D01*
X183643Y7453D01*
X183690Y7364D01*
X184471Y6412D01*
X184549Y6349D01*
X184612Y6271D01*
X185564Y5490D01*
X185653Y5443D01*
X185730Y5379D01*
X186816Y4799D01*
X186912Y4769D01*
X187001Y4722D01*
X188179Y4365D01*
X188279Y4355D01*
X188375Y4326D01*
X189600Y4205D01*
X189650Y4210D01*
X189700Y4200D01*
X189750Y4210D01*
X189800Y4205D01*
X191025Y4326D01*
X191121Y4355D01*
X191221Y4365D01*
X192399Y4722D01*
X192488Y4769D01*
X192584Y4799D01*
X193670Y5379D01*
X193747Y5443D01*
X193836Y5490D01*
X194788Y6271D01*
X194851Y6349D01*
X194929Y6412D01*
X195710Y7364D01*
X195757Y7453D01*
X195821Y7530D01*
X196401Y8616D01*
X196431Y8712D01*
X196478Y8801D01*
X196658Y9396D01*
X196800Y9446D01*
X197800Y8738D01*
Y1631D01*
X1631D01*
Y225369D01*
X197800D01*
Y191462D01*
D02*
G37*
%LPC*%
G36*
X112400Y72045D02*
X111503Y71867D01*
X110742Y71358D01*
X110233Y70597D01*
X110055Y69700D01*
X110233Y68803D01*
X110652Y68176D01*
X110538Y67544D01*
X110356Y67097D01*
X110203Y67067D01*
X109442Y66558D01*
X108933Y65797D01*
X108755Y64900D01*
X108933Y64003D01*
X109442Y63242D01*
X110203Y62734D01*
X111100Y62555D01*
X111997Y62734D01*
X112758Y63242D01*
X113267Y64003D01*
X113445Y64900D01*
X113267Y65797D01*
X112848Y66424D01*
X112962Y67057D01*
X113144Y67503D01*
X113297Y67533D01*
X114058Y68042D01*
X114567Y68803D01*
X114745Y69700D01*
X114567Y70597D01*
X114058Y71358D01*
X113297Y71867D01*
X112400Y72045D01*
D02*
G37*
G36*
X108400Y61945D02*
X107503Y61766D01*
X106742Y61258D01*
X106233Y60497D01*
X106090Y60438D01*
X105897Y60567D01*
X105000Y60745D01*
X104103Y60567D01*
X103342Y60058D01*
X102833Y59297D01*
X102655Y58400D01*
X102833Y57503D01*
X103342Y56742D01*
X104103Y56234D01*
X105000Y56055D01*
X105897Y56234D01*
X106658Y56742D01*
X107167Y57503D01*
X107310Y57562D01*
X107503Y57433D01*
X108400Y57255D01*
X109297Y57433D01*
X110058Y57942D01*
X110567Y58703D01*
X110745Y59600D01*
X110567Y60497D01*
X110058Y61258D01*
X109297Y61766D01*
X108400Y61945D01*
D02*
G37*
G36*
X29200Y66845D02*
X28303Y66667D01*
X27542Y66158D01*
X27033Y65397D01*
X26855Y64500D01*
X27033Y63603D01*
X27542Y62842D01*
X28303Y62334D01*
X29200Y62155D01*
X30097Y62334D01*
X30858Y62842D01*
X31367Y63603D01*
X31545Y64500D01*
X31367Y65397D01*
X30858Y66158D01*
X30097Y66667D01*
X29200Y66845D01*
D02*
G37*
G36*
X88800Y70545D02*
X87903Y70367D01*
X87142Y69858D01*
X86633Y69097D01*
X86455Y68200D01*
X86633Y67303D01*
X86818Y67026D01*
X86437Y66045D01*
X86045Y65971D01*
X85647Y65999D01*
X85252Y66368D01*
X85167Y66797D01*
X84658Y67558D01*
X83897Y68067D01*
X83000Y68245D01*
X82103Y68067D01*
X81342Y67558D01*
X80834Y66797D01*
X80800Y66627D01*
X79780D01*
X79667Y67197D01*
X79158Y67958D01*
X78397Y68467D01*
X77500Y68645D01*
X76603Y68467D01*
X75842Y67958D01*
X75333Y67197D01*
X75155Y66300D01*
X75306Y65539D01*
X74988Y65059D01*
X74611Y64684D01*
X74377Y64743D01*
X74266Y65297D01*
X73758Y66058D01*
X72997Y66566D01*
X72100Y66745D01*
X71203Y66566D01*
X70442Y66058D01*
X69982Y65370D01*
X69100Y65545D01*
X68203Y65367D01*
X67442Y64858D01*
X66934Y64097D01*
X66755Y63200D01*
X66934Y62303D01*
X67442Y61542D01*
X68203Y61033D01*
X69100Y60855D01*
X69997Y61033D01*
X70758Y61542D01*
X71100Y62054D01*
X71185Y62052D01*
X72155Y61800D01*
X72334Y60903D01*
X72842Y60142D01*
X73603Y59633D01*
X74500Y59455D01*
X75397Y59633D01*
X76158Y60142D01*
X76666Y60903D01*
X76845Y61800D01*
X76666Y62697D01*
X76326Y63207D01*
X76899Y64074D01*
X77500Y63955D01*
X78397Y64134D01*
X79158Y64642D01*
X79667Y65403D01*
X79700Y65573D01*
X80720D01*
X80834Y65003D01*
X81342Y64242D01*
X82103Y63734D01*
X83000Y63555D01*
X83579Y63670D01*
X84054Y63587D01*
X84648Y63032D01*
X84733Y62603D01*
X85242Y61842D01*
X86003Y61334D01*
X86900Y61155D01*
X87797Y61334D01*
X88558Y61842D01*
X89477Y61418D01*
X89903Y61133D01*
X90800Y60955D01*
X91697Y61133D01*
X92458Y61642D01*
X92967Y62403D01*
X93145Y63300D01*
X92967Y64197D01*
X92458Y64958D01*
X91697Y65466D01*
X90890Y65627D01*
X90651Y66065D01*
X90500Y66605D01*
X90966Y67303D01*
X91145Y68200D01*
X90966Y69097D01*
X90458Y69858D01*
X89697Y70367D01*
X88800Y70545D01*
D02*
G37*
G36*
X118200Y68645D02*
X117303Y68467D01*
X116542Y67958D01*
X116033Y67197D01*
X115855Y66300D01*
X116033Y65403D01*
X116542Y64642D01*
X117303Y64134D01*
X118200Y63955D01*
X119097Y64134D01*
X119858Y64642D01*
X120367Y65403D01*
X120545Y66300D01*
X120367Y67197D01*
X119858Y67958D01*
X119097Y68467D01*
X118200Y68645D01*
D02*
G37*
G36*
X131100Y67245D02*
X130203Y67067D01*
X129442Y66558D01*
X128933Y65797D01*
X128755Y64900D01*
X128933Y64003D01*
X129442Y63242D01*
X130203Y62734D01*
X131100Y62555D01*
X131997Y62734D01*
X132758Y63242D01*
X133267Y64003D01*
X133445Y64900D01*
X133267Y65797D01*
X132758Y66558D01*
X131997Y67067D01*
X131100Y67245D01*
D02*
G37*
G36*
X34400Y60245D02*
X33503Y60066D01*
X32742Y59558D01*
X32233Y58797D01*
X32055Y57900D01*
X32193Y57205D01*
X32003Y57166D01*
X31242Y56658D01*
X30733Y55897D01*
X30555Y55000D01*
X30733Y54103D01*
X30924Y53817D01*
X30204Y53096D01*
X30097Y53167D01*
X29200Y53345D01*
X29130Y53924D01*
X29145Y54000D01*
X28967Y54897D01*
X28458Y55658D01*
X27697Y56166D01*
X26800Y56345D01*
X25903Y56166D01*
X25142Y55658D01*
X24633Y54897D01*
X24455Y54000D01*
X24633Y53103D01*
X25142Y52342D01*
X25903Y51833D01*
X26800Y51655D01*
X26870Y51076D01*
X26855Y51000D01*
X27033Y50103D01*
X27542Y49342D01*
X28303Y48833D01*
X29200Y48655D01*
X30097Y48833D01*
X30858Y49342D01*
X31367Y50103D01*
X31545Y51000D01*
X31389Y51784D01*
X31664Y52158D01*
X32125Y52562D01*
X32663Y52341D01*
X32655Y52300D01*
X32833Y51403D01*
X33342Y50642D01*
X34103Y50133D01*
X35000Y49955D01*
X35897Y50133D01*
X36658Y50642D01*
X37167Y51403D01*
X37345Y52300D01*
X37167Y53197D01*
X36658Y53958D01*
X35897Y54466D01*
X35168Y54612D01*
X35245Y55000D01*
X35107Y55695D01*
X35297Y55734D01*
X36058Y56242D01*
X36567Y57003D01*
X36745Y57900D01*
X36567Y58797D01*
X36058Y59558D01*
X35297Y60066D01*
X34400Y60245D01*
D02*
G37*
G36*
X97700Y57495D02*
X96803Y57316D01*
X96042Y56808D01*
X95534Y56047D01*
X95355Y55150D01*
X95534Y54253D01*
X96042Y53492D01*
X96803Y52983D01*
X97700Y52805D01*
X98597Y52983D01*
X99358Y53492D01*
X99866Y54253D01*
X100045Y55150D01*
X99866Y56047D01*
X99358Y56808D01*
X98597Y57316D01*
X97700Y57495D01*
D02*
G37*
G36*
X65400Y54245D02*
X64503Y54066D01*
X63742Y53558D01*
X63234Y52797D01*
X63055Y51900D01*
X63234Y51003D01*
X63742Y50242D01*
X64503Y49733D01*
X65400Y49555D01*
X66297Y49733D01*
X67058Y50242D01*
X67567Y51003D01*
X67745Y51900D01*
X67567Y52797D01*
X67058Y53558D01*
X66297Y54066D01*
X65400Y54245D01*
D02*
G37*
G36*
X81100Y62745D02*
X80203Y62567D01*
X79442Y62058D01*
X78934Y61297D01*
X78755Y60400D01*
X78934Y59503D01*
X79442Y58742D01*
X80203Y58233D01*
X81100Y58055D01*
X81997Y58233D01*
X82758Y58742D01*
X83267Y59503D01*
X83445Y60400D01*
X83267Y61297D01*
X82758Y62058D01*
X81997Y62567D01*
X81100Y62745D01*
D02*
G37*
G36*
X132700Y59845D02*
X131803Y59667D01*
X131042Y59158D01*
X130533Y58397D01*
X130355Y57500D01*
X130533Y56603D01*
X131042Y55842D01*
X131803Y55334D01*
X132700Y55155D01*
X133597Y55334D01*
X134358Y55842D01*
X134867Y56603D01*
X135045Y57500D01*
X134867Y58397D01*
X134358Y59158D01*
X133597Y59667D01*
X132700Y59845D01*
D02*
G37*
G36*
X124000Y56345D02*
X123103Y56166D01*
X122342Y55658D01*
X121833Y54897D01*
X121742Y54437D01*
X120680Y54226D01*
X120458Y54558D01*
X119697Y55067D01*
X118800Y55245D01*
X117903Y55067D01*
X117142Y54558D01*
X117034Y54397D01*
X116101Y54073D01*
X115808Y54225D01*
X115297Y54567D01*
X114400Y54745D01*
X113503Y54567D01*
X112742Y54058D01*
X112233Y53297D01*
X112055Y52400D01*
X112233Y51503D01*
X112742Y50742D01*
X113172Y50454D01*
X112933Y50097D01*
X112755Y49200D01*
X112933Y48303D01*
X113442Y47542D01*
X114203Y47033D01*
X115100Y46855D01*
X115997Y47033D01*
X116758Y47542D01*
X117267Y48303D01*
X117445Y49200D01*
X117299Y49934D01*
X117629Y50371D01*
X118066Y50701D01*
X118800Y50555D01*
X119697Y50733D01*
X120458Y51242D01*
X120967Y52003D01*
X121058Y52463D01*
X122120Y52674D01*
X122342Y52342D01*
X123103Y51833D01*
X124000Y51655D01*
X124897Y51833D01*
X125658Y52342D01*
X126167Y53103D01*
X126345Y54000D01*
X126167Y54897D01*
X125658Y55658D01*
X124897Y56166D01*
X124000Y56345D01*
D02*
G37*
G36*
X134300Y72245D02*
X133403Y72066D01*
X132642Y71558D01*
X132133Y70797D01*
X131955Y69900D01*
X132133Y69003D01*
X132642Y68242D01*
X133403Y67734D01*
X134300Y67555D01*
X135197Y67734D01*
X135958Y68242D01*
X136467Y69003D01*
X136645Y69900D01*
X136467Y70797D01*
X135958Y71558D01*
X135197Y72066D01*
X134300Y72245D01*
D02*
G37*
G36*
X16500Y104788D02*
X15331D01*
X14941Y104710D01*
X14611Y104490D01*
X14390Y104159D01*
X14312Y103769D01*
Y102481D01*
X13312Y102178D01*
X13258Y102258D01*
X12497Y102767D01*
X11600Y102945D01*
X10703Y102767D01*
X9942Y102258D01*
X9433Y101497D01*
X9255Y100600D01*
X9433Y99703D01*
X9942Y98942D01*
X10703Y98434D01*
X11600Y98255D01*
X12497Y98434D01*
X13258Y98942D01*
X13435Y99207D01*
X13635Y99256D01*
X14592Y99138D01*
X14611Y99111D01*
X14941Y98889D01*
X15331Y98812D01*
X16500D01*
Y101800D01*
Y104788D01*
D02*
G37*
G36*
X109200Y102545D02*
X108303Y102366D01*
X107542Y101858D01*
X107033Y101097D01*
X106855Y100200D01*
X107033Y99303D01*
X107542Y98542D01*
X108303Y98033D01*
X109200Y97855D01*
X109611Y96917D01*
X109633Y96803D01*
X110142Y96042D01*
X110903Y95534D01*
X111800Y95355D01*
X112697Y95534D01*
X113458Y96042D01*
X113967Y96803D01*
X114633Y96580D01*
X114703Y96534D01*
X115600Y96355D01*
X116497Y96534D01*
X117258Y97042D01*
X117767Y97803D01*
X117945Y98700D01*
X117767Y99597D01*
X117258Y100358D01*
X116497Y100866D01*
X115600Y101045D01*
X114703Y100866D01*
X113942Y100358D01*
X113433Y99597D01*
X112767Y99820D01*
X112697Y99866D01*
X111800Y100045D01*
X111389Y100983D01*
X111367Y101097D01*
X110858Y101858D01*
X110097Y102366D01*
X109200Y102545D01*
D02*
G37*
G36*
X140900Y96545D02*
X140003Y96367D01*
X139242Y95858D01*
X138733Y95097D01*
X138555Y94200D01*
X138733Y93303D01*
X139242Y92542D01*
X140003Y92033D01*
X140900Y91855D01*
X141797Y92033D01*
X142558Y92542D01*
X143067Y93303D01*
X143245Y94200D01*
X143067Y95097D01*
X142558Y95858D01*
X141797Y96367D01*
X140900Y96545D01*
D02*
G37*
G36*
X102500Y105026D02*
X101717Y104923D01*
X100987Y104621D01*
X100700Y104400D01*
X100000Y104228D01*
X99300Y104400D01*
X99013Y104621D01*
X98283Y104923D01*
X97500Y105026D01*
X96717Y104923D01*
X95987Y104621D01*
X95360Y104140D01*
X94880Y103513D01*
X94577Y102783D01*
X94474Y102000D01*
X94577Y101217D01*
X94880Y100487D01*
X95100Y100200D01*
X95272Y99500D01*
X95100Y98800D01*
X94880Y98513D01*
X94577Y97783D01*
X94474Y97000D01*
X94577Y96217D01*
X94880Y95487D01*
X95100Y95200D01*
X95272Y94500D01*
X95100Y93800D01*
X94880Y93513D01*
X94577Y92783D01*
X94500Y92196D01*
X94474Y92000D01*
X93503Y91891D01*
X93472Y91982D01*
X93467Y91997D01*
X93436Y92044D01*
X92958Y92758D01*
X92197Y93266D01*
X91300Y93445D01*
X91295Y93450D01*
X91345Y93700D01*
X91167Y94597D01*
X90658Y95358D01*
X89897Y95867D01*
X89000Y96045D01*
X88103Y95867D01*
X87399Y95397D01*
X87358Y95458D01*
X86597Y95967D01*
X85700Y96145D01*
X84803Y95967D01*
X84050Y95464D01*
X83297Y95967D01*
X82400Y96145D01*
X81503Y95967D01*
X80742Y95458D01*
X80234Y94697D01*
X80055Y93800D01*
X80234Y92903D01*
X80742Y92142D01*
X81503Y91633D01*
X82400Y91455D01*
X83297Y91633D01*
X84050Y92136D01*
X84803Y91633D01*
X85700Y91455D01*
X86597Y91633D01*
X87301Y92103D01*
X87342Y92042D01*
X88103Y91533D01*
X89000Y91355D01*
X89005Y91350D01*
X88955Y91100D01*
X89134Y90203D01*
X89642Y89442D01*
X90403Y88933D01*
X91300Y88755D01*
X92197Y88933D01*
X92958Y89442D01*
X93467Y90203D01*
X93604Y90896D01*
X93645Y91100D01*
X94577Y91217D01*
X94650Y91042D01*
X94880Y90487D01*
X95100Y90200D01*
X95272Y89500D01*
X95100Y88800D01*
X94880Y88513D01*
X94577Y87783D01*
X94474Y87000D01*
X94577Y86217D01*
X94880Y85487D01*
X95100Y85200D01*
X95272Y84500D01*
X95100Y83800D01*
X94880Y83513D01*
X94577Y82783D01*
X94474Y82000D01*
X94577Y81217D01*
X94880Y80487D01*
X95100Y80200D01*
X95272Y79500D01*
X95100Y78800D01*
X94880Y78513D01*
X94577Y77783D01*
X94474Y77000D01*
X94577Y76217D01*
X94880Y75487D01*
X95100Y75200D01*
X95272Y74500D01*
X95100Y73800D01*
X94880Y73513D01*
X94577Y72783D01*
X94474Y72000D01*
X94577Y71217D01*
X94880Y70487D01*
X94779Y69721D01*
X94558Y69390D01*
X94480Y69000D01*
Y65000D01*
X94558Y64610D01*
X94779Y64279D01*
X95110Y64058D01*
X95500Y63980D01*
X99500D01*
X99890Y64058D01*
X100221Y64279D01*
X100987Y64380D01*
X101717Y64077D01*
X102500Y63974D01*
X103283Y64077D01*
X104013Y64380D01*
X104640Y64860D01*
X105121Y65487D01*
X105423Y66217D01*
X105526Y67000D01*
X105423Y67783D01*
X105121Y68513D01*
X104900Y68800D01*
X104728Y69500D01*
X104900Y70200D01*
X105121Y70487D01*
X105423Y71217D01*
X105526Y72000D01*
X105423Y72783D01*
X105121Y73513D01*
X104900Y73800D01*
X104728Y74500D01*
X104900Y75200D01*
X105121Y75487D01*
X105423Y76217D01*
X105526Y77000D01*
X105423Y77783D01*
X105121Y78513D01*
X104900Y78800D01*
X104728Y79500D01*
X104900Y80200D01*
X105121Y80487D01*
X105423Y81217D01*
X105526Y82000D01*
X105423Y82783D01*
X105121Y83513D01*
X104900Y83800D01*
X104728Y84500D01*
X104900Y85200D01*
X105121Y85487D01*
X105423Y86217D01*
X105526Y87000D01*
X105423Y87783D01*
X105121Y88513D01*
X104900Y88800D01*
X104728Y89500D01*
X104900Y90200D01*
X105121Y90487D01*
X105423Y91217D01*
X105526Y92000D01*
X105423Y92783D01*
X105121Y93513D01*
X104900Y93800D01*
X104728Y94500D01*
X104900Y95200D01*
X105121Y95487D01*
X105423Y96217D01*
X105526Y97000D01*
X105423Y97783D01*
X105121Y98513D01*
X104900Y98800D01*
X104728Y99500D01*
X104900Y100200D01*
X105121Y100487D01*
X105423Y101217D01*
X105526Y102000D01*
X105423Y102783D01*
X105121Y103513D01*
X104640Y104140D01*
X104013Y104621D01*
X103283Y104923D01*
X102500Y105026D01*
D02*
G37*
G36*
X45200Y108445D02*
X44303Y108267D01*
X43542Y107758D01*
X43033Y106997D01*
X42855Y106100D01*
X42931Y105720D01*
X42420Y104970D01*
X42230Y104805D01*
X42176Y104778D01*
X41525Y104692D01*
X40803Y104393D01*
X40183Y103917D01*
X39417D01*
X38797Y104393D01*
X38075Y104692D01*
X37300Y104794D01*
X36525Y104692D01*
X35803Y104393D01*
X35183Y103917D01*
X34417D01*
X33797Y104393D01*
X33075Y104692D01*
X32300Y104794D01*
X31525Y104692D01*
X30803Y104393D01*
X30183Y103917D01*
X29417D01*
X28797Y104393D01*
X28075Y104692D01*
X27300Y104794D01*
X26525Y104692D01*
X25803Y104393D01*
X25183Y103917D01*
X24417D01*
X23797Y104393D01*
X23075Y104692D01*
X22300Y104794D01*
X21525Y104692D01*
X21087Y104510D01*
X20796Y104394D01*
X19989Y104490D01*
X19659Y104710D01*
X19268Y104788D01*
X18100D01*
Y101800D01*
Y98812D01*
X19268D01*
X19659Y98889D01*
X19989Y99111D01*
X20796Y99206D01*
X21087Y99089D01*
X21525Y98908D01*
X22300Y98806D01*
X23075Y98908D01*
X23797Y99207D01*
X24417Y99683D01*
X25183D01*
X25803Y99207D01*
X26525Y98908D01*
X27300Y98806D01*
X28075Y98908D01*
X28797Y99207D01*
X29417Y99683D01*
X30183D01*
X30803Y99207D01*
X31525Y98908D01*
X32300Y98806D01*
X33075Y98908D01*
X33797Y99207D01*
X34417Y99683D01*
X35183D01*
X35803Y99207D01*
X36525Y98908D01*
X37300Y98806D01*
X38075Y98908D01*
X38797Y99207D01*
X39417Y99683D01*
X40183D01*
X40803Y99207D01*
X41525Y98908D01*
X42300Y98806D01*
X43075Y98908D01*
X43797Y99207D01*
X44417Y99683D01*
X45183D01*
X45803Y99207D01*
X46525Y98908D01*
X47300Y98806D01*
X48075Y98908D01*
X48797Y99207D01*
X49417Y99683D01*
X50183D01*
X50803Y99207D01*
X51525Y98908D01*
X52300Y98806D01*
X53075Y98908D01*
X53797Y99207D01*
X54417Y99683D01*
X54893Y100303D01*
X55192Y101025D01*
X55294Y101800D01*
X55192Y102575D01*
X54893Y103297D01*
X54417Y103917D01*
X53797Y104393D01*
X53075Y104692D01*
X52300Y104794D01*
X51525Y104692D01*
X50803Y104393D01*
X50183Y103917D01*
X49417D01*
X48797Y104393D01*
X48195Y104642D01*
X48048Y104742D01*
X47481Y105779D01*
X47545Y106100D01*
X47367Y106997D01*
X46858Y107758D01*
X46097Y108267D01*
X45200Y108445D01*
D02*
G37*
G36*
X79600Y108245D02*
X78703Y108067D01*
X77942Y107558D01*
X77434Y106797D01*
X77255Y105900D01*
X77434Y105003D01*
X77942Y104242D01*
X78703Y103733D01*
X79600Y103555D01*
X80497Y103733D01*
X81258Y104242D01*
X81766Y105003D01*
X81945Y105900D01*
X81766Y106797D01*
X81258Y107558D01*
X80497Y108067D01*
X79600Y108245D01*
D02*
G37*
G36*
X133500Y92845D02*
X132603Y92667D01*
X131842Y92158D01*
X131333Y91397D01*
X131155Y90500D01*
X131333Y89603D01*
X131842Y88842D01*
X132603Y88333D01*
X133500Y88155D01*
X134397Y88333D01*
X135158Y88842D01*
X135667Y89603D01*
X135845Y90500D01*
X135667Y91397D01*
X135158Y92158D01*
X134397Y92667D01*
X133500Y92845D01*
D02*
G37*
G36*
X24000Y85745D02*
X23103Y85567D01*
X22342Y85058D01*
X21833Y84297D01*
X21655Y83400D01*
X21833Y82503D01*
X22238Y81897D01*
X22012Y81261D01*
X21779Y80921D01*
X21003Y80766D01*
X20242Y80258D01*
X19733Y79497D01*
X19555Y78600D01*
X19733Y77703D01*
X20095Y77161D01*
X19942Y77058D01*
X19433Y76297D01*
X19255Y75400D01*
X19433Y74503D01*
X19942Y73742D01*
X20703Y73233D01*
X21600Y73055D01*
X22497Y73233D01*
X23258Y73742D01*
X23767Y74503D01*
X23945Y75400D01*
X23767Y76297D01*
X23405Y76839D01*
X23558Y76942D01*
X24067Y77703D01*
X24245Y78600D01*
X24067Y79497D01*
X23662Y80102D01*
X23888Y80739D01*
X24121Y81079D01*
X24897Y81234D01*
X25658Y81742D01*
X26167Y82503D01*
X26345Y83400D01*
X26167Y84297D01*
X25658Y85058D01*
X24897Y85567D01*
X24000Y85745D01*
D02*
G37*
G36*
X109100Y77145D02*
X108203Y76967D01*
X107442Y76458D01*
X106933Y75697D01*
X106755Y74800D01*
X106933Y73903D01*
X107442Y73142D01*
X108203Y72633D01*
X109100Y72455D01*
X109997Y72633D01*
X110758Y73142D01*
X111267Y73903D01*
X111445Y74800D01*
X111267Y75697D01*
X110758Y76458D01*
X109997Y76967D01*
X109100Y77145D01*
D02*
G37*
G36*
X74800Y76145D02*
X73903Y75967D01*
X73142Y75458D01*
X72633Y74697D01*
X72455Y73800D01*
X72633Y72903D01*
X73142Y72142D01*
X73903Y71633D01*
X74800Y71455D01*
X75697Y71633D01*
X76458Y72142D01*
X76967Y72903D01*
X77145Y73800D01*
X76967Y74697D01*
X76458Y75458D01*
X75697Y75967D01*
X74800Y76145D01*
D02*
G37*
G36*
X28954Y89624D02*
X28056Y89446D01*
X27295Y88937D01*
X26787Y88176D01*
X26608Y87279D01*
X26787Y86382D01*
X27295Y85621D01*
X28056Y85113D01*
X28954Y84934D01*
X29851Y85113D01*
X30632Y84505D01*
X30742Y84342D01*
X31503Y83833D01*
X32400Y83655D01*
X33297Y83833D01*
X34058Y84342D01*
X34567Y85103D01*
X34745Y86000D01*
X34567Y86897D01*
X34058Y87658D01*
X33297Y88166D01*
X32400Y88345D01*
X31503Y88166D01*
X30721Y88774D01*
X30612Y88937D01*
X29851Y89446D01*
X28954Y89624D01*
D02*
G37*
G36*
X10500Y92594D02*
X9725Y92492D01*
X9003Y92193D01*
X8383Y91717D01*
X7907Y91097D01*
X7608Y90375D01*
X7506Y89600D01*
X7608Y88825D01*
X7907Y88103D01*
X8144Y87794D01*
X8383Y86717D01*
X7907Y86097D01*
X7608Y85375D01*
X7506Y84600D01*
X7608Y83825D01*
X7907Y83103D01*
X8383Y82483D01*
Y81717D01*
X7907Y81097D01*
X7608Y80375D01*
X7506Y79600D01*
X7608Y78825D01*
X7907Y78103D01*
X8383Y77483D01*
Y76717D01*
X7907Y76097D01*
X7608Y75375D01*
X7506Y74600D01*
X7608Y73825D01*
X7907Y73103D01*
X8383Y72483D01*
Y71717D01*
X7907Y71097D01*
X7608Y70375D01*
X7506Y69600D01*
X7608Y68825D01*
X7907Y68103D01*
X8383Y67483D01*
Y66717D01*
X7907Y66097D01*
X7608Y65375D01*
X7506Y64600D01*
X7608Y63825D01*
X7790Y63387D01*
X7906Y63096D01*
X7811Y62289D01*
X7589Y61959D01*
X7512Y61568D01*
Y57631D01*
X7589Y57241D01*
X7811Y56911D01*
X8141Y56690D01*
X8531Y56612D01*
X12468D01*
X12859Y56690D01*
X13190Y56911D01*
X13410Y57241D01*
X13488Y57631D01*
Y61568D01*
X13410Y61959D01*
X13190Y62289D01*
X13094Y63096D01*
X13210Y63387D01*
X13392Y63825D01*
X13494Y64600D01*
X13392Y65375D01*
X13093Y66097D01*
X12617Y66717D01*
Y67483D01*
X13093Y68103D01*
X13392Y68825D01*
X13494Y69600D01*
X13392Y70375D01*
X13093Y71097D01*
X12617Y71717D01*
Y72483D01*
X13093Y73103D01*
X13392Y73825D01*
X13494Y74600D01*
X13392Y75375D01*
X13093Y76097D01*
X12617Y76717D01*
Y77483D01*
X13093Y78103D01*
X13392Y78825D01*
X13494Y79600D01*
X13392Y80375D01*
X13279Y80648D01*
X14087Y81311D01*
X14503Y81033D01*
X15400Y80855D01*
X16297Y81033D01*
X17058Y81542D01*
X17567Y82303D01*
X17745Y83200D01*
X17567Y84097D01*
X17058Y84858D01*
X16448Y85266D01*
X16266Y86142D01*
X16258Y86342D01*
X16767Y87103D01*
X16945Y88000D01*
X16767Y88897D01*
X16258Y89658D01*
X15497Y90166D01*
X14600Y90345D01*
X14410Y90307D01*
X13568Y90363D01*
X13137Y90991D01*
X13093Y91097D01*
X12617Y91717D01*
X11997Y92193D01*
X11275Y92492D01*
X10500Y92594D01*
D02*
G37*
G36*
X88700Y87245D02*
X87803Y87067D01*
X87042Y86558D01*
X86533Y85797D01*
X86355Y84900D01*
X86533Y84003D01*
X86972Y83346D01*
X86842Y83258D01*
X86334Y82497D01*
X86155Y81600D01*
X86334Y80703D01*
X86842Y79942D01*
X87152Y79734D01*
X87331Y78717D01*
X87267Y78547D01*
X86834Y77897D01*
X86655Y77000D01*
X86834Y76103D01*
X87342Y75342D01*
X88103Y74834D01*
X89000Y74655D01*
X89897Y74834D01*
X90658Y75342D01*
X91167Y76103D01*
X91345Y77000D01*
X91167Y77897D01*
X90658Y78658D01*
X90348Y78866D01*
X90168Y79883D01*
X90233Y80054D01*
X90667Y80703D01*
X90845Y81600D01*
X90667Y82497D01*
X90228Y83154D01*
X90358Y83242D01*
X90867Y84003D01*
X91045Y84900D01*
X90867Y85797D01*
X90358Y86558D01*
X89597Y87067D01*
X88700Y87245D01*
D02*
G37*
G36*
X77200Y53145D02*
X76303Y52966D01*
X75542Y52458D01*
X75033Y51697D01*
X74855Y50800D01*
X75033Y49903D01*
X75542Y49142D01*
X76303Y48633D01*
X77200Y48455D01*
X78097Y48633D01*
X78858Y49142D01*
X79716Y48625D01*
X80303Y48233D01*
X81200Y48055D01*
X82097Y48233D01*
X82858Y48742D01*
X83367Y49503D01*
X83545Y50400D01*
X83367Y51297D01*
X82858Y52058D01*
X82097Y52566D01*
X81200Y52745D01*
X80303Y52566D01*
X79542Y52058D01*
X78684Y52574D01*
X78097Y52966D01*
X77200Y53145D01*
D02*
G37*
G36*
X74900Y21945D02*
X74003Y21767D01*
X73242Y21258D01*
X72733Y20497D01*
X72730Y20479D01*
X71697Y19967D01*
X70800Y20145D01*
X69903Y19967D01*
X69142Y19458D01*
X68634Y18697D01*
X68455Y17800D01*
X68634Y16903D01*
X69142Y16142D01*
X69327Y16018D01*
X69538Y14978D01*
X69452Y14823D01*
X69033Y14197D01*
X68895Y13502D01*
X68279Y13007D01*
X67929Y12828D01*
X67775Y12892D01*
X67000Y12994D01*
X66225Y12892D01*
X65503Y12593D01*
X64883Y12117D01*
X64117D01*
X63497Y12593D01*
X62775Y12892D01*
X62000Y12994D01*
X61225Y12892D01*
X60503Y12593D01*
X59883Y12117D01*
X59117D01*
X58497Y12593D01*
X57775Y12892D01*
X57000Y12994D01*
X56225Y12892D01*
X55503Y12593D01*
X54883Y12117D01*
X54117D01*
X53497Y12593D01*
X52775Y12892D01*
X52000Y12994D01*
X51225Y12892D01*
X50503Y12593D01*
X49883Y12117D01*
X49117D01*
X48497Y12593D01*
X47775Y12892D01*
X47000Y12994D01*
X46225Y12892D01*
X45503Y12593D01*
X44883Y12117D01*
X44117D01*
X43497Y12593D01*
X42775Y12892D01*
X42000Y12994D01*
X41225Y12892D01*
X40503Y12593D01*
X39883Y12117D01*
X39117D01*
X38497Y12593D01*
X37775Y12892D01*
X37000Y12994D01*
X36225Y12892D01*
X35787Y12710D01*
X35496Y12594D01*
X34689Y12689D01*
X34359Y12911D01*
X33968Y12988D01*
X32108D01*
X31998Y13149D01*
X32158Y14442D01*
X32667Y15203D01*
X32845Y16100D01*
X32667Y16997D01*
X32158Y17758D01*
X31397Y18267D01*
X30500Y18445D01*
X29603Y18267D01*
X28842Y17758D01*
X28333Y16997D01*
X28155Y16100D01*
X28333Y15203D01*
X28842Y14442D01*
X29603Y13933D01*
X29630Y13928D01*
X29641Y12932D01*
X29636Y12907D01*
X29311Y12689D01*
X29089Y12359D01*
X29012Y11969D01*
Y10800D01*
X32000D01*
Y10000D01*
X32800D01*
Y7012D01*
X33968D01*
X34359Y7090D01*
X34689Y7310D01*
X35496Y7406D01*
X35787Y7289D01*
X36225Y7108D01*
X37000Y7006D01*
X37775Y7108D01*
X38497Y7407D01*
X39117Y7883D01*
X39883D01*
X40503Y7407D01*
X41225Y7108D01*
X42000Y7006D01*
X42775Y7108D01*
X43497Y7407D01*
X44117Y7883D01*
X44883D01*
X45503Y7407D01*
X46225Y7108D01*
X47000Y7006D01*
X47775Y7108D01*
X48497Y7407D01*
X49117Y7883D01*
X49883D01*
X50503Y7407D01*
X51225Y7108D01*
X52000Y7006D01*
X52775Y7108D01*
X53497Y7407D01*
X54117Y7883D01*
X54883D01*
X55503Y7407D01*
X56225Y7108D01*
X57000Y7006D01*
X57775Y7108D01*
X58497Y7407D01*
X59117Y7883D01*
X59883D01*
X60503Y7407D01*
X61225Y7108D01*
X62000Y7006D01*
X62775Y7108D01*
X63497Y7407D01*
X64117Y7883D01*
X64883D01*
X65503Y7407D01*
X66225Y7108D01*
X67000Y7006D01*
X67775Y7108D01*
X68497Y7407D01*
X69117Y7883D01*
X69593Y8503D01*
X69892Y9225D01*
X69994Y10000D01*
X69961Y10250D01*
X70806Y11028D01*
X70816Y11031D01*
X71200Y10955D01*
X72097Y11134D01*
X72858Y11642D01*
X73366Y12403D01*
X73545Y13300D01*
X73366Y14197D01*
X72858Y14958D01*
X72672Y15082D01*
X72462Y16122D01*
X72548Y16276D01*
X72966Y16903D01*
X72970Y16921D01*
X74003Y17433D01*
X74900Y17255D01*
X75797Y17433D01*
X76558Y17942D01*
X76622Y18038D01*
X77564Y17648D01*
X77555Y17600D01*
X77733Y16703D01*
X78242Y15942D01*
X79003Y15433D01*
X79900Y15255D01*
X80797Y15433D01*
X81558Y15942D01*
X82067Y16703D01*
X82245Y17600D01*
X82067Y18497D01*
X81558Y19258D01*
X80797Y19767D01*
X79900Y19945D01*
X79003Y19767D01*
X78242Y19258D01*
X78177Y19162D01*
X77236Y19552D01*
X77245Y19600D01*
X77066Y20497D01*
X76558Y21258D01*
X75797Y21767D01*
X74900Y21945D01*
D02*
G37*
G36*
X12500Y18800D02*
X12450Y18790D01*
X12400Y18795D01*
X11175Y18674D01*
X11079Y18645D01*
X10979Y18635D01*
X9801Y18278D01*
X9712Y18230D01*
X9616Y18201D01*
X8530Y17621D01*
X8453Y17557D01*
X8364Y17510D01*
X7412Y16729D01*
X7349Y16651D01*
X7271Y16588D01*
X6490Y15636D01*
X6443Y15547D01*
X6379Y15470D01*
X5799Y14384D01*
X5770Y14288D01*
X5722Y14199D01*
X5365Y13021D01*
X5355Y12921D01*
X5326Y12825D01*
X5205Y11600D01*
X5215Y11500D01*
X5205Y11400D01*
X5326Y10175D01*
X5355Y10079D01*
X5365Y9979D01*
X5722Y8801D01*
X5770Y8712D01*
X5799Y8616D01*
X6379Y7530D01*
X6443Y7453D01*
X6490Y7364D01*
X7271Y6412D01*
X7349Y6349D01*
X7412Y6271D01*
X8364Y5490D01*
X8453Y5443D01*
X8530Y5379D01*
X9616Y4799D01*
X9712Y4769D01*
X9801Y4722D01*
X10979Y4365D01*
X11079Y4355D01*
X11175Y4326D01*
X12400Y4205D01*
X12450Y4210D01*
X12500Y4200D01*
X12550Y4210D01*
X12600Y4205D01*
X13825Y4326D01*
X13921Y4355D01*
X14021Y4365D01*
X15199Y4722D01*
X15288Y4769D01*
X15384Y4799D01*
X16470Y5379D01*
X16547Y5443D01*
X16636Y5490D01*
X17588Y6271D01*
X17651Y6349D01*
X17729Y6412D01*
X18510Y7364D01*
X18557Y7453D01*
X18621Y7530D01*
X19201Y8616D01*
X19230Y8712D01*
X19278Y8801D01*
X19635Y9979D01*
X19645Y10079D01*
X19674Y10175D01*
X19795Y11400D01*
X19785Y11500D01*
X19795Y11600D01*
X19674Y12825D01*
X19645Y12921D01*
X19635Y13021D01*
X19278Y14199D01*
X19230Y14288D01*
X19201Y14384D01*
X18621Y15470D01*
X18557Y15547D01*
X18510Y15636D01*
X17729Y16588D01*
X17651Y16651D01*
X17588Y16729D01*
X16636Y17510D01*
X16547Y17557D01*
X16470Y17621D01*
X15384Y18201D01*
X15288Y18230D01*
X15199Y18278D01*
X14021Y18635D01*
X13921Y18645D01*
X13825Y18674D01*
X12600Y18795D01*
X12550Y18790D01*
X12500Y18800D01*
D02*
G37*
G36*
X123500Y18026D02*
X122717Y17923D01*
X121987Y17620D01*
X121700Y17400D01*
X121000Y17228D01*
X120300Y17400D01*
X120013Y17620D01*
X119283Y17923D01*
X118500Y18026D01*
X117717Y17923D01*
X116987Y17620D01*
X116700Y17400D01*
X116000Y17228D01*
X115300Y17400D01*
X115013Y17620D01*
X114283Y17923D01*
X113500Y18026D01*
X112717Y17923D01*
X111987Y17620D01*
X111700Y17400D01*
X111000Y17228D01*
X110300Y17400D01*
X110013Y17620D01*
X109283Y17923D01*
X108500Y18026D01*
X107717Y17923D01*
X106987Y17620D01*
X106700Y17400D01*
X106000Y17228D01*
X105300Y17400D01*
X105013Y17620D01*
X104283Y17923D01*
X103500Y18026D01*
X102717Y17923D01*
X101987Y17620D01*
X101360Y17140D01*
X100880Y16513D01*
X100577Y15783D01*
X100474Y15000D01*
X100577Y14217D01*
X100880Y13487D01*
X101100Y13200D01*
X101272Y12500D01*
X101100Y11800D01*
X100880Y11513D01*
X100577Y10783D01*
X100474Y10000D01*
X100577Y9217D01*
X100880Y8487D01*
X101360Y7860D01*
X101987Y7379D01*
X102717Y7077D01*
X103500Y6974D01*
X104283Y7077D01*
X105013Y7379D01*
X105300Y7600D01*
X106000Y7772D01*
X106700Y7600D01*
X106987Y7379D01*
X107717Y7077D01*
X108500Y6974D01*
X109283Y7077D01*
X110013Y7379D01*
X110300Y7600D01*
X111000Y7772D01*
X111700Y7600D01*
X111987Y7379D01*
X112717Y7077D01*
X113500Y6974D01*
X114283Y7077D01*
X115013Y7379D01*
X115300Y7600D01*
X116000Y7772D01*
X116700Y7600D01*
X116987Y7379D01*
X117717Y7077D01*
X118500Y6974D01*
X119283Y7077D01*
X120013Y7379D01*
X120300Y7600D01*
X121000Y7772D01*
X121700Y7600D01*
X121987Y7379D01*
X122717Y7077D01*
X123500Y6974D01*
X124283Y7077D01*
X125013Y7379D01*
X125300Y7600D01*
X126000Y7772D01*
X126700Y7600D01*
X126987Y7379D01*
X127700Y7084D01*
Y10000D01*
X128500D01*
Y10800D01*
X131416D01*
X131121Y11513D01*
X130900Y11800D01*
X130728Y12500D01*
X130900Y13200D01*
X131121Y13487D01*
X131416Y14200D01*
X128500D01*
Y15000D01*
X127700D01*
Y17916D01*
X126987Y17620D01*
X126700Y17400D01*
X126000Y17228D01*
X125300Y17400D01*
X125013Y17620D01*
X124283Y17923D01*
X123500Y18026D01*
D02*
G37*
G36*
X32500Y32545D02*
X31603Y32367D01*
X30842Y31858D01*
X30333Y31097D01*
X30155Y30200D01*
X30333Y29303D01*
X30842Y28542D01*
X31603Y28033D01*
X32500Y27855D01*
X33397Y28033D01*
X33402Y28037D01*
X33787Y27901D01*
X34395Y27498D01*
X34533Y26803D01*
X35042Y26042D01*
X35173Y25954D01*
X34733Y25297D01*
X34561Y24433D01*
X34500Y24445D01*
X33603Y24267D01*
X32842Y23758D01*
X32333Y22997D01*
X32155Y22100D01*
X32333Y21203D01*
X32842Y20442D01*
X33603Y19933D01*
X34500Y19755D01*
X35397Y19933D01*
X36158Y20442D01*
X36667Y21203D01*
X36838Y22067D01*
X36900Y22055D01*
X37797Y22233D01*
X38333Y22591D01*
X39166Y22176D01*
X39253Y22095D01*
X39155Y21600D01*
X39333Y20703D01*
X39842Y19942D01*
X40603Y19433D01*
X41500Y19255D01*
X42397Y19433D01*
X43158Y19942D01*
X43667Y20703D01*
X43845Y21600D01*
X43667Y22497D01*
X43158Y23258D01*
X42397Y23767D01*
X41500Y23945D01*
X40603Y23767D01*
X40067Y23409D01*
X39234Y23824D01*
X39147Y23905D01*
X39245Y24400D01*
X39067Y25297D01*
X38558Y26058D01*
X38427Y26145D01*
X38867Y26803D01*
X39045Y27700D01*
X38867Y28597D01*
X38358Y29358D01*
X37597Y29867D01*
X36700Y30045D01*
X35803Y29867D01*
X35798Y29863D01*
X35413Y29999D01*
X34805Y30402D01*
X34667Y31097D01*
X34158Y31858D01*
X33397Y32367D01*
X32500Y32545D01*
D02*
G37*
G36*
X86200Y27945D02*
X85303Y27767D01*
X84542Y27258D01*
X84034Y26497D01*
X83855Y25600D01*
X84034Y24703D01*
X84542Y23942D01*
X85303Y23433D01*
X86200Y23255D01*
X87097Y23433D01*
X87858Y23942D01*
X88367Y24703D01*
X88545Y25600D01*
X88367Y26497D01*
X87858Y27258D01*
X87097Y27767D01*
X86200Y27945D01*
D02*
G37*
G36*
X161000Y21994D02*
X160225Y21892D01*
X159503Y21593D01*
X158883Y21117D01*
X158117D01*
X157497Y21593D01*
X156775Y21892D01*
X156000Y21994D01*
X155225Y21892D01*
X154503Y21593D01*
X153883Y21117D01*
X153117D01*
X152497Y21593D01*
X151775Y21892D01*
X151000Y21994D01*
X150225Y21892D01*
X149503Y21593D01*
X148883Y21117D01*
X148117D01*
X147497Y21593D01*
X146775Y21892D01*
X146000Y21994D01*
X145225Y21892D01*
X144503Y21593D01*
X143883Y21117D01*
X143117D01*
X142497Y21593D01*
X141775Y21892D01*
X141000Y21994D01*
X140225Y21892D01*
X139503Y21593D01*
X138883Y21117D01*
X138407Y20497D01*
X138108Y19775D01*
X138006Y19000D01*
X138108Y18225D01*
X138407Y17503D01*
X138883Y16883D01*
Y16117D01*
X138407Y15497D01*
X138108Y14775D01*
X138006Y14000D01*
X138108Y13225D01*
X138407Y12503D01*
X138883Y11883D01*
X139503Y11407D01*
X140225Y11108D01*
X141000Y11006D01*
X141775Y11108D01*
X142497Y11407D01*
X143117Y11883D01*
X143883D01*
X144503Y11407D01*
X145200Y11118D01*
Y14000D01*
X146800D01*
Y11118D01*
X147497Y11407D01*
X148117Y11883D01*
X148883D01*
X149503Y11407D01*
X150200Y11118D01*
Y14000D01*
X151800D01*
Y11118D01*
X152497Y11407D01*
X153117Y11883D01*
X153883D01*
X154503Y11407D01*
X155225Y11108D01*
X156000Y11006D01*
X156775Y11108D01*
X157497Y11407D01*
X158117Y11883D01*
X158883D01*
X159503Y11407D01*
X160200Y11118D01*
Y14000D01*
X161000D01*
Y14800D01*
X163882D01*
X163593Y15497D01*
X163117Y16117D01*
Y16883D01*
X163593Y17503D01*
X163892Y18225D01*
X163994Y19000D01*
X163892Y19775D01*
X163593Y20497D01*
X163117Y21117D01*
X162497Y21593D01*
X161775Y21892D01*
X161000Y21994D01*
D02*
G37*
G36*
X129300Y17916D02*
Y15800D01*
X131416D01*
X131121Y16513D01*
X130640Y17140D01*
X130013Y17620D01*
X129300Y17916D01*
D02*
G37*
G36*
X131416Y9200D02*
X129300D01*
Y7084D01*
X130013Y7379D01*
X130640Y7860D01*
X131121Y8487D01*
X131416Y9200D01*
D02*
G37*
G36*
X77200D02*
X75012D01*
Y8032D01*
X75090Y7641D01*
X75310Y7310D01*
X75641Y7090D01*
X76032Y7012D01*
X77200D01*
Y9200D01*
D02*
G37*
G36*
X31200D02*
X29012D01*
Y8032D01*
X29089Y7641D01*
X29311Y7310D01*
X29641Y7090D01*
X30031Y7012D01*
X31200D01*
Y9200D01*
D02*
G37*
G36*
X93000Y12994D02*
X92225Y12892D01*
X91503Y12593D01*
X90883Y12117D01*
X90117D01*
X89497Y12593D01*
X88775Y12892D01*
X88000Y12994D01*
X87225Y12892D01*
X86503Y12593D01*
X85883Y12117D01*
X85117D01*
X84497Y12593D01*
X83775Y12892D01*
X83000Y12994D01*
X82225Y12892D01*
X81787Y12710D01*
X81496Y12594D01*
X80689Y12689D01*
X80359Y12911D01*
X79969Y12988D01*
X78800D01*
Y10000D01*
Y7012D01*
X79969D01*
X80359Y7090D01*
X80689Y7310D01*
X81496Y7406D01*
X81787Y7289D01*
X82225Y7108D01*
X83000Y7006D01*
X83775Y7108D01*
X84497Y7407D01*
X85117Y7883D01*
X85883D01*
X86503Y7407D01*
X87225Y7108D01*
X88000Y7006D01*
X88775Y7108D01*
X89497Y7407D01*
X90117Y7883D01*
X90883D01*
X91503Y7407D01*
X92225Y7108D01*
X93000Y7006D01*
X93775Y7108D01*
X94497Y7407D01*
X95117Y7883D01*
X95593Y8503D01*
X95892Y9225D01*
X95994Y10000D01*
X95892Y10775D01*
X95593Y11497D01*
X95117Y12117D01*
X94497Y12593D01*
X93775Y12892D01*
X93000Y12994D01*
D02*
G37*
G36*
X163882Y13200D02*
X161800D01*
Y11118D01*
X162497Y11407D01*
X163117Y11883D01*
X163593Y12503D01*
X163882Y13200D01*
D02*
G37*
G36*
X77200Y12988D02*
X76032D01*
X75641Y12911D01*
X75310Y12689D01*
X75090Y12359D01*
X75012Y11969D01*
Y10800D01*
X77200D01*
Y12988D01*
D02*
G37*
G36*
X107200Y29645D02*
X106303Y29467D01*
X105542Y28958D01*
X105033Y28197D01*
X104855Y27300D01*
X105033Y26403D01*
X105542Y25642D01*
X106303Y25133D01*
X107200Y24955D01*
X108097Y25133D01*
X108858Y25642D01*
X109367Y26403D01*
X109545Y27300D01*
X109367Y28197D01*
X108858Y28958D01*
X108097Y29467D01*
X107200Y29645D01*
D02*
G37*
G36*
X86472Y40473D02*
X85574Y40295D01*
X84813Y39787D01*
X84305Y39026D01*
X84127Y38129D01*
X84305Y37231D01*
X84813Y36470D01*
X85574Y35962D01*
X86472Y35783D01*
X87369Y35962D01*
X88130Y36470D01*
X88638Y37231D01*
X88817Y38129D01*
X88638Y39026D01*
X88130Y39787D01*
X87369Y40295D01*
X86472Y40473D01*
D02*
G37*
G36*
X164000Y70494D02*
X163225Y70392D01*
X162503Y70093D01*
X161883Y69617D01*
X161407Y68997D01*
X161108Y68275D01*
X161006Y67500D01*
X161108Y66725D01*
X161407Y66003D01*
X161883Y65383D01*
Y64617D01*
X161407Y63997D01*
X161108Y63275D01*
X161006Y62500D01*
X161108Y61725D01*
X161407Y61003D01*
X161883Y60383D01*
Y59617D01*
X161407Y58997D01*
X161108Y58275D01*
X161006Y57500D01*
X161108Y56725D01*
X161407Y56003D01*
X161883Y55383D01*
Y54617D01*
X161407Y53997D01*
X161108Y53275D01*
X161006Y52500D01*
X161108Y51725D01*
X161407Y51003D01*
X161883Y50383D01*
Y49617D01*
X161407Y48997D01*
X161108Y48275D01*
X161006Y47500D01*
X161108Y46725D01*
X161407Y46003D01*
X161883Y45383D01*
Y44617D01*
X161407Y43997D01*
X161108Y43275D01*
X161006Y42500D01*
X161108Y41725D01*
X161407Y41003D01*
X161883Y40383D01*
Y39617D01*
X161407Y38997D01*
X161108Y38275D01*
X161006Y37500D01*
X161108Y36725D01*
X161290Y36287D01*
X161406Y35996D01*
X161311Y35189D01*
X161090Y34859D01*
X161012Y34468D01*
Y33300D01*
X164000D01*
X166988D01*
Y34468D01*
X166911Y34859D01*
X166690Y35189D01*
X166594Y35996D01*
X166710Y36287D01*
X166892Y36725D01*
X166994Y37500D01*
X166892Y38275D01*
X166593Y38997D01*
X166117Y39617D01*
Y40383D01*
X166593Y41003D01*
X166892Y41725D01*
X166994Y42500D01*
X166892Y43275D01*
X166593Y43997D01*
X166117Y44617D01*
Y45383D01*
X166593Y46003D01*
X166892Y46725D01*
X166994Y47500D01*
X166892Y48275D01*
X166593Y48997D01*
X166117Y49617D01*
Y50383D01*
X166593Y51003D01*
X166892Y51725D01*
X166994Y52500D01*
X166892Y53275D01*
X166593Y53997D01*
X166117Y54617D01*
Y55383D01*
X166593Y56003D01*
X166892Y56725D01*
X166994Y57500D01*
X166892Y58275D01*
X166593Y58997D01*
X166117Y59617D01*
Y60383D01*
X166593Y61003D01*
X166892Y61725D01*
X166994Y62500D01*
X166892Y63275D01*
X166593Y63997D01*
X166117Y64617D01*
Y65383D01*
X166593Y66003D01*
X166892Y66725D01*
X166994Y67500D01*
X166892Y68275D01*
X166593Y68997D01*
X166117Y69617D01*
X165497Y70093D01*
X164775Y70392D01*
X164000Y70494D01*
D02*
G37*
G36*
X20900Y41445D02*
X20003Y41267D01*
X19242Y40758D01*
X18733Y39997D01*
X18555Y39100D01*
X18733Y38203D01*
X18242Y37258D01*
X17733Y36497D01*
X17555Y35600D01*
X17733Y34703D01*
X18242Y33942D01*
X19003Y33433D01*
X19900Y33255D01*
X20797Y33433D01*
X21558Y33942D01*
X22067Y34703D01*
X22245Y35600D01*
X22067Y36497D01*
X22558Y37442D01*
X23067Y38203D01*
X23245Y39100D01*
X23067Y39997D01*
X22558Y40758D01*
X21797Y41267D01*
X20900Y41445D01*
D02*
G37*
G36*
X93200Y52145D02*
X92303Y51967D01*
X91542Y51458D01*
X91034Y50697D01*
X90855Y49800D01*
X91034Y48903D01*
X91542Y48142D01*
X92303Y47633D01*
X93200Y47455D01*
X94097Y47633D01*
X94858Y48142D01*
X95367Y48903D01*
X95545Y49800D01*
X95367Y50697D01*
X94858Y51458D01*
X94097Y51967D01*
X93200Y52145D01*
D02*
G37*
G36*
X144270Y50275D02*
X143373Y50097D01*
X142612Y49588D01*
X142103Y48827D01*
X141925Y47930D01*
X142103Y47033D01*
X142612Y46272D01*
X143373Y45763D01*
X144270Y45585D01*
X145167Y45763D01*
X145928Y46272D01*
X145952Y46308D01*
X146239Y46365D01*
X147109Y46239D01*
X147442Y45742D01*
X148203Y45233D01*
X149100Y45055D01*
X149997Y45233D01*
X150758Y45742D01*
X151267Y46503D01*
X151445Y47400D01*
X151267Y48297D01*
X150758Y49058D01*
X149997Y49567D01*
X149100Y49745D01*
X148203Y49567D01*
X147442Y49058D01*
X147417Y49022D01*
X147131Y48965D01*
X146261Y49091D01*
X145928Y49588D01*
X145167Y50097D01*
X144270Y50275D01*
D02*
G37*
G36*
X137100Y45745D02*
X136203Y45567D01*
X135442Y45058D01*
X134933Y44297D01*
X134755Y43400D01*
X134933Y42503D01*
X135442Y41742D01*
X136203Y41233D01*
X137100Y41055D01*
X137997Y41233D01*
X138758Y41742D01*
X139267Y42503D01*
X139445Y43400D01*
X139267Y44297D01*
X138758Y45058D01*
X137997Y45567D01*
X137100Y45745D01*
D02*
G37*
G36*
X10500Y47994D02*
X9725Y47892D01*
X9003Y47593D01*
X8383Y47117D01*
X7907Y46497D01*
X7608Y45775D01*
X7506Y45000D01*
X7608Y44225D01*
X7907Y43503D01*
X8383Y42883D01*
Y42117D01*
X7907Y41497D01*
X7608Y40775D01*
X7506Y40000D01*
X7608Y39225D01*
X7907Y38503D01*
X8383Y37883D01*
Y37117D01*
X7907Y36497D01*
X7608Y35775D01*
X7506Y35000D01*
X7608Y34225D01*
X7790Y33787D01*
X7906Y33496D01*
X7811Y32689D01*
X7589Y32359D01*
X7512Y31969D01*
Y30800D01*
X10500D01*
X13488D01*
Y31969D01*
X13410Y32359D01*
X13190Y32689D01*
X13094Y33496D01*
X13210Y33787D01*
X13392Y34225D01*
X13494Y35000D01*
X13392Y35775D01*
X13093Y36497D01*
X12617Y37117D01*
Y37883D01*
X13093Y38503D01*
X13392Y39225D01*
X13494Y40000D01*
X13392Y40775D01*
X13093Y41497D01*
X12617Y42117D01*
Y42883D01*
X13093Y43503D01*
X13392Y44225D01*
X13494Y45000D01*
X13392Y45775D01*
X13093Y46497D01*
X12617Y47117D01*
X11997Y47593D01*
X11275Y47892D01*
X10500Y47994D01*
D02*
G37*
G36*
X16900Y33045D02*
X16003Y32867D01*
X15242Y32358D01*
X14733Y31597D01*
X14555Y30700D01*
X14733Y29803D01*
X15242Y29042D01*
X16003Y28533D01*
X16900Y28355D01*
X17797Y28533D01*
X18558Y29042D01*
X19067Y29803D01*
X19245Y30700D01*
X19067Y31597D01*
X18558Y32358D01*
X17797Y32867D01*
X16900Y33045D01*
D02*
G37*
G36*
X13488Y29200D02*
X11300D01*
Y27012D01*
X12468D01*
X12859Y27090D01*
X13190Y27310D01*
X13410Y27641D01*
X13488Y28032D01*
Y29200D01*
D02*
G37*
G36*
X9700D02*
X7512D01*
Y28032D01*
X7589Y27641D01*
X7811Y27310D01*
X8141Y27090D01*
X8531Y27012D01*
X9700D01*
Y29200D01*
D02*
G37*
G36*
X166988Y31700D02*
X164800D01*
Y29512D01*
X165969D01*
X166359Y29590D01*
X166690Y29811D01*
X166911Y30141D01*
X166988Y30531D01*
Y31700D01*
D02*
G37*
G36*
X163200D02*
X161012D01*
Y30531D01*
X161090Y30141D01*
X161311Y29811D01*
X161641Y29590D01*
X162031Y29512D01*
X163200D01*
Y31700D01*
D02*
G37*
G36*
X152300Y33345D02*
X151403Y33167D01*
X150642Y32658D01*
X150133Y31897D01*
X149955Y31000D01*
X150133Y30103D01*
X150642Y29342D01*
X151403Y28833D01*
X152300Y28655D01*
X153197Y28833D01*
X153958Y29342D01*
X154467Y30103D01*
X154645Y31000D01*
X154467Y31897D01*
X153958Y32658D01*
X153197Y33167D01*
X152300Y33345D01*
D02*
G37*
G36*
X34700Y213929D02*
X34456Y213897D01*
X33483Y213494D01*
X32647Y212853D01*
X32006Y212017D01*
X31603Y211044D01*
X31571Y210800D01*
X34700D01*
Y213929D01*
D02*
G37*
G36*
X40047Y219200D02*
X36300D01*
Y215453D01*
X36516Y215264D01*
Y214736D01*
X36300Y214547D01*
Y210800D01*
X40047D01*
X40236Y211016D01*
X40764D01*
X40953Y210800D01*
X44700D01*
Y214547D01*
X44484Y214736D01*
Y215264D01*
X44700Y215453D01*
Y219200D01*
X40953D01*
X40764Y218984D01*
X40236D01*
X40047Y219200D01*
D02*
G37*
G36*
X176587Y216653D02*
X173500D01*
X170413D01*
X170416Y216626D01*
X170735Y215856D01*
X171173Y215286D01*
X171242Y215173D01*
X171217Y213954D01*
X170614Y213351D01*
X170614Y213351D01*
X170393Y213020D01*
X170315Y212630D01*
Y210465D01*
X170393Y210074D01*
X170614Y209744D01*
X171696Y208661D01*
X172027Y208440D01*
X172417Y208362D01*
X174583D01*
X174973Y208440D01*
X175304Y208661D01*
X176386Y209744D01*
X176386Y209744D01*
X176607Y210074D01*
X176685Y210465D01*
Y212630D01*
X176607Y213020D01*
X176386Y213351D01*
X175783Y213954D01*
X175758Y215173D01*
X175827Y215286D01*
X176265Y215856D01*
X176584Y216626D01*
X176587Y216653D01*
D02*
G37*
G36*
X49429Y219200D02*
X46300D01*
Y216071D01*
X46544Y216103D01*
X47517Y216506D01*
X48353Y217147D01*
X48994Y217983D01*
X49397Y218956D01*
X49429Y219200D01*
D02*
G37*
G36*
X34700D02*
X31571D01*
X31603Y218956D01*
X32006Y217983D01*
X32647Y217147D01*
X33483Y216506D01*
X34456Y216103D01*
X34700Y216071D01*
Y219200D01*
D02*
G37*
G36*
X46300Y213929D02*
Y210800D01*
X49429D01*
X49397Y211044D01*
X48994Y212017D01*
X48353Y212853D01*
X47517Y213494D01*
X46544Y213897D01*
X46300Y213929D01*
D02*
G37*
G36*
X152587Y216653D02*
X149500D01*
X146413D01*
X146416Y216626D01*
X146735Y215856D01*
X147173Y215286D01*
X147242Y215173D01*
X147217Y213954D01*
X146614Y213351D01*
X146614Y213351D01*
X146393Y213020D01*
X146315Y212630D01*
Y210465D01*
X146393Y210074D01*
X146614Y209744D01*
X147696Y208661D01*
X148027Y208440D01*
X148417Y208362D01*
X150583D01*
X150973Y208440D01*
X151304Y208661D01*
X152386Y209744D01*
X152386Y209744D01*
X152607Y210074D01*
X152685Y210465D01*
Y212630D01*
X152607Y213020D01*
X152386Y213351D01*
X151783Y213954D01*
X151758Y215173D01*
X151827Y215286D01*
X152265Y215856D01*
X152584Y216626D01*
X152587Y216653D01*
D02*
G37*
G36*
X49429Y209200D02*
X46300D01*
Y206071D01*
X46544Y206103D01*
X47517Y206506D01*
X48353Y207147D01*
X48994Y207983D01*
X49397Y208956D01*
X49429Y209200D01*
D02*
G37*
G36*
X39429D02*
X36300D01*
Y206071D01*
X36544Y206103D01*
X37517Y206506D01*
X38353Y207147D01*
X38994Y207983D01*
X39397Y208956D01*
X39429Y209200D01*
D02*
G37*
G36*
X44700D02*
X41571D01*
X41603Y208956D01*
X42006Y207983D01*
X42647Y207147D01*
X43483Y206506D01*
X44456Y206103D01*
X44700Y206071D01*
Y209200D01*
D02*
G37*
G36*
X127587Y216653D02*
X124500D01*
X121413D01*
X121416Y216626D01*
X121735Y215856D01*
X122173Y215286D01*
X122242Y215173D01*
X122217Y213954D01*
X121614Y213351D01*
X121614Y213351D01*
X121393Y213020D01*
X121315Y212630D01*
Y210465D01*
X121393Y210074D01*
X121614Y209744D01*
X122696Y208661D01*
X123027Y208440D01*
X123417Y208362D01*
X125583D01*
X125973Y208440D01*
X126304Y208661D01*
X127386Y209744D01*
X127386Y209744D01*
X127607Y210074D01*
X127685Y210465D01*
Y212630D01*
X127607Y213020D01*
X127386Y213351D01*
X126783Y213954D01*
X126758Y215173D01*
X126827Y215286D01*
X127265Y215856D01*
X127584Y216626D01*
X127587Y216653D01*
D02*
G37*
G36*
X91587D02*
X88500D01*
X85413D01*
X85416Y216626D01*
X85735Y215856D01*
X86173Y215286D01*
X86242Y215173D01*
X86217Y213954D01*
X85614Y213351D01*
X85614Y213351D01*
X85393Y213020D01*
X85315Y212630D01*
Y210465D01*
X85393Y210074D01*
X85614Y209744D01*
X86696Y208661D01*
X87027Y208440D01*
X87417Y208362D01*
X89583D01*
X89973Y208440D01*
X90304Y208661D01*
X91386Y209744D01*
X91386Y209744D01*
X91607Y210074D01*
X91685Y210465D01*
Y212630D01*
X91607Y213020D01*
X91386Y213351D01*
X90783Y213954D01*
X90758Y215173D01*
X90827Y215286D01*
X91265Y215856D01*
X91584Y216626D01*
X91587Y216653D01*
D02*
G37*
G36*
X68087D02*
X65000D01*
X61913D01*
X61916Y216626D01*
X62235Y215856D01*
X62673Y215286D01*
X62742Y215173D01*
X62717Y213954D01*
X62114Y213351D01*
X62114Y213351D01*
X61893Y213020D01*
X61815Y212630D01*
Y210465D01*
X61893Y210074D01*
X62114Y209744D01*
X63196Y208661D01*
X63527Y208440D01*
X63917Y208362D01*
X66083D01*
X66473Y208440D01*
X66804Y208661D01*
X67886Y209744D01*
X67886Y209744D01*
X68107Y210074D01*
X68185Y210465D01*
Y212630D01*
X68107Y213020D01*
X67886Y213351D01*
X67283Y213954D01*
X67258Y215173D01*
X67327Y215286D01*
X67765Y215856D01*
X68084Y216626D01*
X68087Y216653D01*
D02*
G37*
G36*
X64200Y220540D02*
X64174Y220537D01*
X63404Y220218D01*
X62742Y219710D01*
X62235Y219049D01*
X61916Y218279D01*
X61913Y218253D01*
X64200D01*
Y220540D01*
D02*
G37*
G36*
X34700Y223929D02*
X34456Y223897D01*
X33483Y223494D01*
X32647Y222853D01*
X32006Y222017D01*
X31603Y221044D01*
X31571Y220800D01*
X34700D01*
Y223929D01*
D02*
G37*
G36*
X174300Y220540D02*
Y218253D01*
X176587D01*
X176584Y218279D01*
X176265Y219049D01*
X175758Y219710D01*
X175096Y220218D01*
X174326Y220537D01*
X174300Y220540D01*
D02*
G37*
G36*
X150300D02*
Y218253D01*
X152587D01*
X152584Y218279D01*
X152265Y219049D01*
X151758Y219710D01*
X151096Y220218D01*
X150326Y220537D01*
X150300Y220540D01*
D02*
G37*
G36*
X36300Y223929D02*
Y220800D01*
X39429D01*
X39397Y221044D01*
X38994Y222017D01*
X38353Y222853D01*
X37517Y223494D01*
X36544Y223897D01*
X36300Y223929D01*
D02*
G37*
G36*
X46300D02*
Y220800D01*
X49429D01*
X49397Y221044D01*
X48994Y222017D01*
X48353Y222853D01*
X47517Y223494D01*
X46544Y223897D01*
X46300Y223929D01*
D02*
G37*
G36*
X44700D02*
X44456Y223897D01*
X43483Y223494D01*
X42647Y222853D01*
X42006Y222017D01*
X41603Y221044D01*
X41571Y220800D01*
X44700D01*
Y223929D01*
D02*
G37*
G36*
X125300Y220540D02*
Y218253D01*
X127587D01*
X127584Y218279D01*
X127265Y219049D01*
X126758Y219710D01*
X126096Y220218D01*
X125326Y220537D01*
X125300Y220540D01*
D02*
G37*
G36*
X148700D02*
X148674Y220537D01*
X147904Y220218D01*
X147242Y219710D01*
X146735Y219049D01*
X146416Y218279D01*
X146413Y218253D01*
X148700D01*
Y220540D01*
D02*
G37*
G36*
X123700D02*
X123674Y220537D01*
X122904Y220218D01*
X122242Y219710D01*
X121735Y219049D01*
X121416Y218279D01*
X121413Y218253D01*
X123700D01*
Y220540D01*
D02*
G37*
G36*
X87700D02*
X87674Y220537D01*
X86904Y220218D01*
X86242Y219710D01*
X85735Y219049D01*
X85416Y218279D01*
X85413Y218253D01*
X87700D01*
Y220540D01*
D02*
G37*
G36*
X89300D02*
Y218253D01*
X91587D01*
X91584Y218279D01*
X91265Y219049D01*
X90758Y219710D01*
X90096Y220218D01*
X89326Y220537D01*
X89300Y220540D01*
D02*
G37*
G36*
X65800D02*
Y218253D01*
X68087D01*
X68084Y218279D01*
X67765Y219049D01*
X67258Y219710D01*
X66596Y220218D01*
X65826Y220537D01*
X65800Y220540D01*
D02*
G37*
G36*
X172700D02*
X172674Y220537D01*
X171904Y220218D01*
X171242Y219710D01*
X170735Y219049D01*
X170416Y218279D01*
X170413Y218253D01*
X172700D01*
Y220540D01*
D02*
G37*
G36*
X167988Y127200D02*
X165800D01*
Y125012D01*
X166969D01*
X167359Y125090D01*
X167690Y125311D01*
X167911Y125641D01*
X167988Y126031D01*
Y127200D01*
D02*
G37*
G36*
X128300Y123145D02*
X127403Y122967D01*
X126642Y122458D01*
X126370Y122051D01*
X125897Y122367D01*
X125000Y122545D01*
X124103Y122367D01*
X123342Y121858D01*
X122833Y121097D01*
X122655Y120200D01*
X122833Y119303D01*
X123134Y118854D01*
X122542Y118458D01*
X122033Y117697D01*
X121855Y116800D01*
X122033Y115903D01*
X122542Y115142D01*
X123303Y114633D01*
X124200Y114455D01*
X125097Y114633D01*
X125858Y115142D01*
X126367Y115903D01*
X126545Y116800D01*
X126367Y117697D01*
X126067Y118146D01*
X126658Y118542D01*
X126930Y118949D01*
X127403Y118633D01*
X128300Y118455D01*
X129197Y118633D01*
X129785Y119026D01*
X129842Y118942D01*
X130603Y118433D01*
X131500Y118255D01*
X132397Y118433D01*
X133158Y118942D01*
X133667Y119703D01*
X133845Y120600D01*
X133667Y121497D01*
X133158Y122258D01*
X132397Y122767D01*
X131500Y122945D01*
X130603Y122767D01*
X130015Y122374D01*
X129958Y122458D01*
X129197Y122967D01*
X128300Y123145D01*
D02*
G37*
G36*
X14769Y123788D02*
X13600D01*
Y121600D01*
X15788D01*
Y122768D01*
X15710Y123159D01*
X15489Y123489D01*
X15159Y123711D01*
X14769Y123788D01*
D02*
G37*
G36*
X19600Y135545D02*
X18703Y135367D01*
X17942Y134858D01*
X17433Y134097D01*
X17255Y133200D01*
X17433Y132303D01*
X17942Y131542D01*
X18703Y131033D01*
X19600Y130855D01*
X20497Y131033D01*
X21258Y131542D01*
X21767Y132303D01*
X21945Y133200D01*
X21767Y134097D01*
X21258Y134858D01*
X20497Y135367D01*
X19600Y135545D01*
D02*
G37*
G36*
X160000Y130994D02*
X159225Y130892D01*
X158503Y130593D01*
X157883Y130117D01*
X157117D01*
X156497Y130593D01*
X155775Y130892D01*
X155000Y130994D01*
X154225Y130892D01*
X153503Y130593D01*
X152883Y130117D01*
X152117D01*
X151497Y130593D01*
X150775Y130892D01*
X150000Y130994D01*
X149225Y130892D01*
X148503Y130593D01*
X147883Y130117D01*
X147117D01*
X146497Y130593D01*
X145775Y130892D01*
X145000Y130994D01*
X144225Y130892D01*
X143503Y130593D01*
X142883Y130117D01*
X142117D01*
X141497Y130593D01*
X140775Y130892D01*
X140000Y130994D01*
X139225Y130892D01*
X138503Y130593D01*
X137883Y130117D01*
X137407Y129497D01*
X137108Y128775D01*
X137006Y128000D01*
X137108Y127225D01*
X137407Y126503D01*
X137883Y125883D01*
X138503Y125407D01*
X139225Y125108D01*
X140000Y125006D01*
X140775Y125108D01*
X141497Y125407D01*
X142117Y125883D01*
X142883D01*
X143503Y125407D01*
X144225Y125108D01*
X145000Y125006D01*
X145775Y125108D01*
X146497Y125407D01*
X147117Y125883D01*
X147883D01*
X148503Y125407D01*
X149225Y125108D01*
X150000Y125006D01*
X150775Y125108D01*
X151497Y125407D01*
X152117Y125883D01*
X152883D01*
X153503Y125407D01*
X154225Y125108D01*
X155000Y125006D01*
X155775Y125108D01*
X156497Y125407D01*
X157117Y125883D01*
X157883D01*
X158503Y125407D01*
X159225Y125108D01*
X160000Y125006D01*
X160775Y125108D01*
X161213Y125289D01*
X161504Y125406D01*
X162311Y125311D01*
X162641Y125090D01*
X163031Y125012D01*
X164200D01*
Y128000D01*
Y130988D01*
X163031D01*
X162641Y130911D01*
X162311Y130690D01*
X161504Y130594D01*
X161213Y130710D01*
X160775Y130892D01*
X160000Y130994D01*
D02*
G37*
G36*
X166969Y130988D02*
X165800D01*
Y128800D01*
X167988D01*
Y129969D01*
X167911Y130359D01*
X167690Y130690D01*
X167359Y130911D01*
X166969Y130988D01*
D02*
G37*
G36*
X12000Y123788D02*
X10831D01*
X10441Y123711D01*
X10110Y123489D01*
X9889Y123159D01*
X9812Y122768D01*
Y121600D01*
X12000D01*
Y123788D01*
D02*
G37*
G36*
X110600Y113945D02*
X109703Y113767D01*
X108942Y113258D01*
X108433Y112497D01*
X108255Y111600D01*
X108433Y110703D01*
X108942Y109942D01*
X109703Y109433D01*
X110600Y109255D01*
X111497Y109433D01*
X112258Y109942D01*
X112767Y110703D01*
X112945Y111600D01*
X112767Y112497D01*
X112258Y113258D01*
X111497Y113767D01*
X110600Y113945D01*
D02*
G37*
G36*
X15788Y120000D02*
X12800D01*
X9812D01*
Y118832D01*
X9889Y118441D01*
X10110Y118111D01*
X10206Y117304D01*
X10090Y117013D01*
X9908Y116575D01*
X9806Y115800D01*
X9908Y115025D01*
X10207Y114303D01*
X10683Y113683D01*
Y112917D01*
X10207Y112297D01*
X9908Y111575D01*
X9806Y110800D01*
X9908Y110025D01*
X10207Y109303D01*
X10683Y108683D01*
X11303Y108207D01*
X12025Y107908D01*
X12800Y107806D01*
X13575Y107908D01*
X14297Y108207D01*
X14917Y108683D01*
X15393Y109303D01*
X15692Y110025D01*
X15794Y110800D01*
X15692Y111575D01*
X15393Y112297D01*
X14917Y112917D01*
Y113683D01*
X15393Y114303D01*
X15692Y115025D01*
X15794Y115800D01*
X15692Y116575D01*
X15510Y117013D01*
X15394Y117304D01*
X15489Y118111D01*
X15710Y118441D01*
X15788Y118832D01*
Y120000D01*
D02*
G37*
G36*
X56100Y109845D02*
X55203Y109667D01*
X54442Y109158D01*
X53934Y108397D01*
X53755Y107500D01*
X53934Y106603D01*
X54442Y105842D01*
X55203Y105333D01*
X56100Y105155D01*
X56997Y105333D01*
X57758Y105842D01*
X58267Y106603D01*
X58445Y107500D01*
X58267Y108397D01*
X57758Y109158D01*
X56997Y109667D01*
X56100Y109845D01*
D02*
G37*
G36*
X75600Y120745D02*
X74703Y120567D01*
X73942Y120058D01*
X73434Y119297D01*
X73255Y118400D01*
X73434Y117503D01*
X73942Y116742D01*
X74703Y116233D01*
X75600Y116055D01*
X76497Y116233D01*
X77258Y116742D01*
X77767Y117503D01*
X77945Y118400D01*
X77767Y119297D01*
X77258Y120058D01*
X76497Y120567D01*
X75600Y120745D01*
D02*
G37*
G36*
X101300Y118445D02*
X100403Y118267D01*
X99642Y117758D01*
X99133Y116997D01*
X98955Y116100D01*
X99133Y115203D01*
X99642Y114442D01*
X100403Y113933D01*
X101300Y113755D01*
X102197Y113933D01*
X102958Y114442D01*
X103467Y115203D01*
X103645Y116100D01*
X103467Y116997D01*
X102958Y117758D01*
X102197Y118267D01*
X101300Y118445D01*
D02*
G37*
G36*
X116300Y118345D02*
X115403Y118167D01*
X114642Y117658D01*
X114133Y116897D01*
X113955Y116000D01*
X114133Y115103D01*
X114356Y114770D01*
X114559Y114050D01*
X114356Y113330D01*
X114133Y112997D01*
X113955Y112100D01*
X114133Y111203D01*
X114642Y110442D01*
X115403Y109933D01*
X116300Y109755D01*
X117197Y109933D01*
X117958Y110442D01*
X118467Y111203D01*
X118645Y112100D01*
X118467Y112997D01*
X118244Y113330D01*
X118041Y114050D01*
X118244Y114770D01*
X118467Y115103D01*
X118645Y116000D01*
X118467Y116897D01*
X117958Y117658D01*
X117197Y118167D01*
X116300Y118345D01*
D02*
G37*
G36*
X82500Y133026D02*
X81717Y132923D01*
X80987Y132621D01*
X80700Y132400D01*
X80000Y132228D01*
X79300Y132400D01*
X79013Y132621D01*
X78283Y132923D01*
X77500Y133026D01*
X76717Y132923D01*
X75987Y132621D01*
X75700Y132400D01*
X75000Y132228D01*
X74300Y132400D01*
X74013Y132621D01*
X73283Y132923D01*
X72500Y133026D01*
X71717Y132923D01*
X70987Y132621D01*
X70700Y132400D01*
X70000Y132228D01*
X69300Y132400D01*
X69013Y132621D01*
X68283Y132923D01*
X67500Y133026D01*
X66717Y132923D01*
X65987Y132621D01*
X65700Y132400D01*
X65000Y132228D01*
X64300Y132400D01*
X64013Y132621D01*
X63283Y132923D01*
X62500Y133026D01*
X61717Y132923D01*
X60987Y132621D01*
X60700Y132400D01*
X60000Y132228D01*
X59300Y132400D01*
X59013Y132621D01*
X58283Y132923D01*
X57500Y133026D01*
X56717Y132923D01*
X55987Y132621D01*
X55700Y132400D01*
X55000Y132228D01*
X54300Y132400D01*
X54013Y132621D01*
X53283Y132923D01*
X52500Y133026D01*
X51717Y132923D01*
X50987Y132621D01*
X50700Y132400D01*
X50000Y132228D01*
X49300Y132400D01*
X49013Y132621D01*
X48283Y132923D01*
X47500Y133026D01*
X46717Y132923D01*
X45987Y132621D01*
X45700Y132400D01*
X45000Y132228D01*
X44300Y132400D01*
X44013Y132621D01*
X43283Y132923D01*
X42500Y133026D01*
X41717Y132923D01*
X40987Y132621D01*
X40700Y132400D01*
X40000Y132228D01*
X39300Y132400D01*
X39013Y132621D01*
X38283Y132923D01*
X37500Y133026D01*
X36717Y132923D01*
X35987Y132621D01*
X35700Y132400D01*
X35000Y132228D01*
X34300Y132400D01*
X34013Y132621D01*
X33283Y132923D01*
X32500Y133026D01*
X31717Y132923D01*
X30987Y132621D01*
X30221Y132721D01*
X29890Y132942D01*
X29500Y133020D01*
X25500D01*
X25110Y132942D01*
X24779Y132721D01*
X24558Y132390D01*
X24480Y132000D01*
Y128000D01*
X24558Y127610D01*
X24779Y127279D01*
X24880Y126513D01*
X24577Y125783D01*
X24474Y125000D01*
X24577Y124217D01*
X24880Y123487D01*
X25360Y122860D01*
X25987Y122380D01*
X26717Y122077D01*
X27500Y121974D01*
X28283Y122077D01*
X29013Y122380D01*
X29300Y122600D01*
X30000Y122772D01*
X30700Y122600D01*
X30987Y122380D01*
X31717Y122077D01*
X32500Y121974D01*
X33283Y122077D01*
X34013Y122380D01*
X34300Y122600D01*
X35000Y122772D01*
X35700Y122600D01*
X35987Y122380D01*
X36717Y122077D01*
X37500Y121974D01*
X38283Y122077D01*
X39013Y122380D01*
X39300Y122600D01*
X40000Y122772D01*
X40700Y122600D01*
X40987Y122380D01*
X41717Y122077D01*
X42500Y121974D01*
X43283Y122077D01*
X44013Y122380D01*
X44300Y122600D01*
X45000Y122772D01*
X45700Y122600D01*
X45987Y122380D01*
X46717Y122077D01*
X47500Y121974D01*
X48283Y122077D01*
X49013Y122380D01*
X49300Y122600D01*
X50000Y122772D01*
X50700Y122600D01*
X50987Y122380D01*
X51717Y122077D01*
X52500Y121974D01*
X53283Y122077D01*
X54013Y122380D01*
X54300Y122600D01*
X55000Y122772D01*
X55700Y122600D01*
X55987Y122380D01*
X56717Y122077D01*
X57500Y121974D01*
X58283Y122077D01*
X59013Y122380D01*
X59300Y122600D01*
X60000Y122772D01*
X60700Y122600D01*
X60987Y122380D01*
X61717Y122077D01*
X62500Y121974D01*
X63283Y122077D01*
X64013Y122380D01*
X64300Y122600D01*
X65000Y122772D01*
X65700Y122600D01*
X65987Y122380D01*
X66717Y122077D01*
X67500Y121974D01*
X68283Y122077D01*
X69013Y122380D01*
X69300Y122600D01*
X70000Y122772D01*
X70700Y122600D01*
X70987Y122380D01*
X71717Y122077D01*
X72500Y121974D01*
X73283Y122077D01*
X74013Y122380D01*
X74300Y122600D01*
X75000Y122772D01*
X75700Y122600D01*
X75987Y122380D01*
X76717Y122077D01*
X77500Y121974D01*
X78283Y122077D01*
X79013Y122380D01*
X79300Y122600D01*
X80000Y122772D01*
X80700Y122600D01*
X80987Y122380D01*
X81717Y122077D01*
X82500Y121974D01*
X83283Y122077D01*
X84013Y122380D01*
X84640Y122860D01*
X85120Y123487D01*
X85423Y124217D01*
X85526Y125000D01*
X85423Y125783D01*
X85120Y126513D01*
X84900Y126800D01*
X84728Y127500D01*
X84900Y128200D01*
X85120Y128487D01*
X85423Y129217D01*
X85526Y130000D01*
X85423Y130783D01*
X85120Y131513D01*
X84640Y132140D01*
X84013Y132621D01*
X83283Y132923D01*
X82500Y133026D01*
D02*
G37*
G36*
X12468Y172988D02*
X11300D01*
Y170800D01*
X13488D01*
Y171968D01*
X13410Y172359D01*
X13190Y172689D01*
X12859Y172910D01*
X12468Y172988D01*
D02*
G37*
G36*
X9700D02*
X8531D01*
X8141Y172910D01*
X7811Y172689D01*
X7589Y172359D01*
X7512Y171968D01*
Y170800D01*
X9700D01*
Y172988D01*
D02*
G37*
G36*
X13488Y169200D02*
X10500D01*
X7512D01*
Y168032D01*
X7589Y167641D01*
X7811Y167311D01*
X7906Y166504D01*
X7790Y166213D01*
X7608Y165775D01*
X7506Y165000D01*
X7608Y164225D01*
X7907Y163503D01*
X8383Y162883D01*
X9003Y162407D01*
X9725Y162108D01*
X10500Y162006D01*
X11275Y162108D01*
X11997Y162407D01*
X12617Y162883D01*
X13093Y163503D01*
X13392Y164225D01*
X13494Y165000D01*
X13392Y165775D01*
X13210Y166213D01*
X13094Y166504D01*
X13190Y167311D01*
X13410Y167641D01*
X13488Y168032D01*
Y169200D01*
D02*
G37*
G36*
X34700Y209200D02*
X31571D01*
X31603Y208956D01*
X32006Y207983D01*
X32647Y207147D01*
X33483Y206506D01*
X34456Y206103D01*
X34700Y206071D01*
Y209200D01*
D02*
G37*
G36*
X12468Y223988D02*
X8531D01*
X8141Y223910D01*
X7811Y223690D01*
X7589Y223359D01*
X7512Y222969D01*
Y219032D01*
X7589Y218641D01*
X7811Y218311D01*
X7906Y217504D01*
X7790Y217213D01*
X7608Y216775D01*
X7506Y216000D01*
X7608Y215225D01*
X7907Y214503D01*
X8383Y213883D01*
Y213117D01*
X7907Y212497D01*
X7608Y211775D01*
X7506Y211000D01*
X7608Y210225D01*
X7907Y209503D01*
X8383Y208883D01*
Y208117D01*
X7907Y207497D01*
X7608Y206775D01*
X7506Y206000D01*
X7608Y205225D01*
X7907Y204503D01*
X8383Y203883D01*
X9003Y203407D01*
X9725Y203108D01*
X10500Y203006D01*
X11275Y203108D01*
X11997Y203407D01*
X12617Y203883D01*
X13093Y204503D01*
X13392Y205225D01*
X13494Y206000D01*
X13392Y206775D01*
X13093Y207497D01*
X12617Y208117D01*
Y208883D01*
X13093Y209503D01*
X13392Y210225D01*
X13494Y211000D01*
X13392Y211775D01*
X13093Y212497D01*
X12617Y213117D01*
Y213883D01*
X13093Y214503D01*
X13392Y215225D01*
X13494Y216000D01*
X13392Y216775D01*
X13210Y217213D01*
X13094Y217504D01*
X13190Y218311D01*
X13410Y218641D01*
X13488Y219032D01*
Y222969D01*
X13410Y223359D01*
X13190Y223690D01*
X12859Y223910D01*
X12468Y223988D01*
D02*
G37*
G36*
X12500Y196000D02*
X12450Y195990D01*
X12400Y195995D01*
X11175Y195874D01*
X11079Y195845D01*
X10979Y195835D01*
X9801Y195478D01*
X9712Y195431D01*
X9616Y195401D01*
X8530Y194821D01*
X8453Y194757D01*
X8364Y194710D01*
X7412Y193929D01*
X7349Y193851D01*
X7271Y193788D01*
X6490Y192836D01*
X6443Y192747D01*
X6379Y192670D01*
X5799Y191584D01*
X5770Y191488D01*
X5722Y191399D01*
X5365Y190221D01*
X5355Y190121D01*
X5326Y190025D01*
X5205Y188800D01*
X5215Y188700D01*
X5205Y188600D01*
X5326Y187375D01*
X5355Y187279D01*
X5365Y187179D01*
X5722Y186001D01*
X5770Y185912D01*
X5799Y185816D01*
X6379Y184730D01*
X6443Y184653D01*
X6490Y184564D01*
X7271Y183612D01*
X7349Y183549D01*
X7412Y183471D01*
X8364Y182690D01*
X8453Y182643D01*
X8530Y182579D01*
X9616Y181999D01*
X9712Y181969D01*
X9801Y181922D01*
X10979Y181565D01*
X11079Y181555D01*
X11175Y181526D01*
X12400Y181405D01*
X12450Y181410D01*
X12500Y181400D01*
X12550Y181410D01*
X12600Y181405D01*
X13825Y181526D01*
X13921Y181555D01*
X14021Y181565D01*
X15199Y181922D01*
X15288Y181969D01*
X15384Y181999D01*
X16470Y182579D01*
X16547Y182643D01*
X16636Y182690D01*
X17588Y183471D01*
X17651Y183549D01*
X17729Y183612D01*
X18510Y184564D01*
X18557Y184653D01*
X18621Y184730D01*
X19201Y185816D01*
X19230Y185912D01*
X19278Y186001D01*
X19635Y187179D01*
X19645Y187279D01*
X19674Y187375D01*
X19795Y188600D01*
X19785Y188700D01*
X19795Y188800D01*
X19674Y190025D01*
X19645Y190121D01*
X19635Y190221D01*
X19278Y191399D01*
X19230Y191488D01*
X19201Y191584D01*
X18621Y192670D01*
X18557Y192747D01*
X18510Y192836D01*
X17729Y193788D01*
X17651Y193851D01*
X17588Y193929D01*
X16636Y194710D01*
X16547Y194757D01*
X16470Y194821D01*
X15384Y195401D01*
X15288Y195431D01*
X15199Y195478D01*
X14021Y195835D01*
X13921Y195845D01*
X13825Y195874D01*
X12600Y195995D01*
X12550Y195990D01*
X12500Y196000D01*
D02*
G37*
G36*
X12468Y157988D02*
X11300D01*
Y155800D01*
X13488D01*
Y156968D01*
X13410Y157359D01*
X13190Y157689D01*
X12859Y157911D01*
X12468Y157988D01*
D02*
G37*
G36*
X36800Y147945D02*
X35903Y147767D01*
X35142Y147258D01*
X34633Y146497D01*
X34455Y145600D01*
X34630Y144718D01*
X33942Y144258D01*
X33433Y143497D01*
X33255Y142600D01*
X33433Y141703D01*
X33942Y140942D01*
X34703Y140433D01*
X35600Y140255D01*
X36497Y140433D01*
X37258Y140942D01*
X37767Y141703D01*
X37945Y142600D01*
X37770Y143482D01*
X38458Y143942D01*
X38967Y144703D01*
X39145Y145600D01*
X38967Y146497D01*
X38458Y147258D01*
X37697Y147767D01*
X36800Y147945D01*
D02*
G37*
G36*
X13488Y154200D02*
X10500D01*
X7512D01*
Y153032D01*
X7589Y152641D01*
X7811Y152311D01*
X7906Y151504D01*
X7790Y151213D01*
X7608Y150775D01*
X7506Y150000D01*
X7608Y149225D01*
X7907Y148503D01*
X8383Y147883D01*
Y147117D01*
X7907Y146497D01*
X7608Y145775D01*
X7506Y145000D01*
X7608Y144225D01*
X7907Y143503D01*
X8383Y142883D01*
Y142117D01*
X7907Y141497D01*
X7608Y140775D01*
X7506Y140000D01*
X7608Y139225D01*
X7907Y138503D01*
X8288Y138006D01*
X8349Y137678D01*
X8199Y136763D01*
X8042Y136658D01*
X7534Y135897D01*
X7355Y135000D01*
X7534Y134103D01*
X8042Y133342D01*
X8803Y132833D01*
X9700Y132655D01*
X10597Y132833D01*
X11358Y133342D01*
X11867Y134103D01*
X12045Y135000D01*
X11867Y135897D01*
X11671Y136190D01*
X11928Y137342D01*
X11975Y137398D01*
X11997Y137407D01*
X12617Y137883D01*
X13093Y138503D01*
X13392Y139225D01*
X13494Y140000D01*
X13392Y140775D01*
X13093Y141497D01*
X12617Y142117D01*
Y142883D01*
X13093Y143503D01*
X13392Y144225D01*
X13494Y145000D01*
X13392Y145775D01*
X13093Y146497D01*
X12617Y147117D01*
Y147883D01*
X13093Y148503D01*
X13392Y149225D01*
X13494Y150000D01*
X13392Y150775D01*
X13210Y151213D01*
X13094Y151504D01*
X13190Y152311D01*
X13410Y152641D01*
X13488Y153032D01*
Y154200D01*
D02*
G37*
G36*
X113000Y133145D02*
X112103Y132967D01*
X111342Y132458D01*
X111158D01*
X110397Y132967D01*
X109500Y133145D01*
X108603Y132967D01*
X107800Y132483D01*
X106997Y132967D01*
X106100Y133145D01*
X105203Y132967D01*
X104400Y132483D01*
X103597Y132967D01*
X102700Y133145D01*
X101803Y132967D01*
X101042Y132458D01*
X100533Y131697D01*
X100355Y130800D01*
X100533Y129903D01*
X101042Y129142D01*
X101803Y128633D01*
X102700Y128455D01*
X103597Y128633D01*
X104400Y129117D01*
X105203Y128633D01*
X106100Y128455D01*
X106997Y128633D01*
X107800Y129117D01*
X108603Y128633D01*
X109500Y128455D01*
X110397Y128633D01*
X110454Y128671D01*
X111250Y129093D01*
X112046Y128671D01*
X112103Y128633D01*
X113000Y128455D01*
X113897Y128633D01*
X114658Y129142D01*
X115167Y129903D01*
X115345Y130800D01*
X115167Y131697D01*
X114658Y132458D01*
X113897Y132967D01*
X113000Y133145D01*
D02*
G37*
G36*
X9700Y157988D02*
X8531D01*
X8141Y157911D01*
X7811Y157689D01*
X7589Y157359D01*
X7512Y156968D01*
Y155800D01*
X9700D01*
Y157988D01*
D02*
G37*
G36*
X47000Y153045D02*
X46103Y152867D01*
X45342Y152358D01*
X44833Y151597D01*
X44655Y150700D01*
X44833Y149803D01*
X45342Y149042D01*
X46103Y148533D01*
X47000Y148355D01*
X47897Y148533D01*
X48658Y149042D01*
X49167Y149803D01*
X49345Y150700D01*
X49167Y151597D01*
X48658Y152358D01*
X47897Y152867D01*
X47000Y153045D01*
D02*
G37*
G36*
X17200Y146145D02*
X16303Y145967D01*
X15542Y145458D01*
X15033Y144697D01*
X14855Y143800D01*
X15033Y142903D01*
X15542Y142142D01*
X16303Y141633D01*
X17200Y141455D01*
X18097Y141633D01*
X18858Y142142D01*
X19367Y142903D01*
X19545Y143800D01*
X19367Y144697D01*
X18858Y145458D01*
X18097Y145967D01*
X17200Y146145D01*
D02*
G37*
%LPD*%
D75*
X45500Y210000D02*
D03*
X35500D02*
D03*
X45500Y220000D02*
D03*
X35500D02*
D03*
D76*
X128500Y15000D02*
D03*
Y10000D02*
D03*
D77*
X161000Y14000D02*
D03*
X146000D02*
D03*
X151000D02*
D03*
D78*
X164000Y32500D02*
D03*
X10500Y170000D02*
D03*
X12800Y120800D02*
D03*
X10500Y155000D02*
D03*
Y30000D02*
D03*
D81*
X65000Y217453D02*
D03*
X88500D02*
D03*
X173500D02*
D03*
X149500D02*
D03*
X124500D02*
D03*
D83*
X78000Y10000D02*
D03*
X17300Y101800D02*
D03*
X165000Y128000D02*
D03*
X32000Y10000D02*
D03*
D85*
X60000Y168600D02*
D03*
X53400Y143500D02*
D03*
X157400Y115400D02*
D03*
X43400Y120700D02*
D03*
X27400Y212900D02*
D03*
X23500Y216400D02*
D03*
X54000Y152900D02*
D03*
X43300Y163900D02*
D03*
X31200Y183500D02*
D03*
X32500Y215300D02*
D03*
X40700Y222800D02*
D03*
X48200Y215300D02*
D03*
X25500Y164200D02*
D03*
X51800Y202000D02*
D03*
X30700Y198500D02*
D03*
X41400Y176800D02*
D03*
X60500Y52500D02*
D03*
X152000Y106800D02*
D03*
X157100Y94700D02*
D03*
X153900Y82400D02*
D03*
X17100Y152500D02*
D03*
X92100Y45131D02*
D03*
X93900Y18800D02*
D03*
X155600Y74500D02*
D03*
X117000Y27300D02*
D03*
X65400Y25300D02*
D03*
X128200Y33800D02*
D03*
X134400Y50500D02*
D03*
X147500Y29100D02*
D03*
X155500Y33100D02*
D03*
X150700Y53500D02*
D03*
X106700Y83400D02*
D03*
X54500Y42500D02*
D03*
X76800Y44800D02*
D03*
X193400Y108500D02*
D03*
X124300Y69100D02*
D03*
X117817Y60600D02*
D03*
X171700Y80700D02*
D03*
X179900Y54700D02*
D03*
X171400Y86100D02*
D03*
X187700Y77500D02*
D03*
X181200Y77300D02*
D03*
X187600Y84400D02*
D03*
X180500D02*
D03*
X186700Y54800D02*
D03*
X186600Y61700D02*
D03*
X179500D02*
D03*
X181000Y91000D02*
D03*
X176000Y91200D02*
D03*
X171900Y93200D02*
D03*
X171800Y107700D02*
D03*
X171700Y101800D02*
D03*
X187000Y106000D02*
D03*
X189900Y101200D02*
D03*
X182700Y103800D02*
D03*
X173800Y116000D02*
D03*
X175600Y110100D02*
D03*
X180700Y115800D02*
D03*
X183000Y110000D02*
D03*
X176200Y103900D02*
D03*
X183100Y122400D02*
D03*
X176200Y122200D02*
D03*
X179500Y133300D02*
D03*
X179100Y127000D02*
D03*
X183700Y48000D02*
D03*
X195300Y21700D02*
D03*
X182500Y30200D02*
D03*
X195000Y30800D02*
D03*
X182900Y21700D02*
D03*
X170800Y13200D02*
D03*
X175400Y18700D02*
D03*
X178600Y13400D02*
D03*
X31300Y59400D02*
D03*
X45700Y94300D02*
D03*
X33200Y35700D02*
D03*
X133400Y112100D02*
D03*
X19500Y110500D02*
D03*
X64400Y118600D02*
D03*
X177600Y142900D02*
D03*
X112100Y47700D02*
D03*
X33600Y140000D02*
D03*
X51600Y223300D02*
D03*
X7600Y177300D02*
D03*
X12000D02*
D03*
X16600D02*
D03*
X4800Y165100D02*
D03*
X17200Y162900D02*
D03*
X17100Y167900D02*
D03*
X190600Y169700D02*
D03*
X20100Y221000D02*
D03*
X27000Y221100D02*
D03*
X190200Y173300D02*
D03*
X190400Y148700D02*
D03*
Y143300D02*
D03*
X69300Y172100D02*
D03*
X53800Y76100D02*
D03*
Y79100D02*
D03*
X56600Y77800D02*
D03*
X44500Y73700D02*
D03*
X160400Y168200D02*
D03*
X87400Y74100D02*
D03*
X105300Y119800D02*
D03*
X64700Y102300D02*
D03*
X118700Y120100D02*
D03*
X90000Y118900D02*
D03*
X168000Y93100D02*
D03*
X163800Y90400D02*
D03*
X125700Y84900D02*
D03*
X137600Y104500D02*
D03*
X140600Y89300D02*
D03*
X127500Y102700D02*
D03*
X54600Y199700D02*
D03*
X52100Y22600D02*
D03*
X100000Y57900D02*
D03*
X19800Y212900D02*
D03*
M02*
