G04 Layer_Color=32768*
%FSLAX25Y25*%
%MOIN*%
G70*
G01*
G75*
%ADD14R,0.03543X0.03150*%
%ADD15R,0.03543X0.04724*%
%ADD16R,0.03543X0.02362*%
%ADD17O,0.02362X0.00945*%
%ADD18O,0.00945X0.02362*%
%ADD21O,0.01102X0.03347*%
%ADD22O,0.03347X0.01102*%
%ADD24R,0.03622X0.01575*%
%ADD27R,0.02362X0.03543*%
%ADD28R,0.03937X0.07087*%
%ADD29R,0.03937X0.04724*%
%ADD30R,0.02362X0.01968*%
%ADD31R,0.01968X0.02362*%
%ADD32R,0.02756X0.03937*%
%ADD33C,0.03150*%
%ADD34R,0.01575X0.03622*%
%ADD38R,0.02835X0.02362*%
%ADD39R,0.02756X0.02362*%
%ADD40R,0.01772X0.00984*%
%ADD41R,0.00984X0.01772*%
%ADD42R,0.00984X0.01378*%
%ADD43R,0.02953X0.00984*%
%ADD44R,0.01968X0.02598*%
%ADD45R,0.02600X0.01200*%
%ADD46R,0.01200X0.02600*%
%ADD47R,0.02756X0.05118*%
%ADD48R,0.07087X0.03937*%
%ADD49R,0.02165X0.02165*%
%ADD50R,0.02756X0.02165*%
%ADD51R,0.10433X0.03150*%
%ADD52R,0.04724X0.03937*%
%ADD53R,0.05118X0.05905*%
%ADD54R,0.01968X0.01968*%
%ADD121R,0.05709X0.05709*%
%ADD122R,0.00100X0.00100*%
%ADD123R,0.01358X0.01240*%
%ADD124R,0.01240X0.01358*%
%ADD125R,0.00689X0.02020*%
%ADD126R,0.02020X0.00689*%
%ADD127R,0.02413X0.00689*%
G36*
X127372Y65411D02*
X126782D01*
Y65805D01*
X127766D01*
X127372Y65411D01*
D02*
G37*
D14*
X33637Y202937D02*
D03*
X25763D02*
D03*
Y195063D02*
D03*
D15*
X33637Y195850D02*
D03*
D16*
X175300Y203856D02*
D03*
Y198344D02*
D03*
X61000Y136444D02*
D03*
Y141956D02*
D03*
X90600Y59956D02*
D03*
Y54444D02*
D03*
X85500Y59956D02*
D03*
Y54444D02*
D03*
X152720Y45194D02*
D03*
Y50706D02*
D03*
X157140Y45204D02*
D03*
Y50716D02*
D03*
X77800Y36256D02*
D03*
Y30744D02*
D03*
X25800Y113344D02*
D03*
Y118856D02*
D03*
X20600Y113344D02*
D03*
Y118856D02*
D03*
X19500Y88944D02*
D03*
Y94456D02*
D03*
X58900Y112456D02*
D03*
Y106944D02*
D03*
X63700Y112456D02*
D03*
Y106944D02*
D03*
X77300Y114756D02*
D03*
Y109244D02*
D03*
X67100Y44056D02*
D03*
Y38544D02*
D03*
X123500Y91556D02*
D03*
Y86044D02*
D03*
X153900Y69556D02*
D03*
Y64044D02*
D03*
X92500Y120044D02*
D03*
Y125556D02*
D03*
X133100Y91456D02*
D03*
Y85944D02*
D03*
X128400Y91556D02*
D03*
Y86044D02*
D03*
X117600Y91456D02*
D03*
Y85944D02*
D03*
X133300Y76744D02*
D03*
Y82256D02*
D03*
X107200Y20544D02*
D03*
Y26056D02*
D03*
X54100Y27644D02*
D03*
Y33156D02*
D03*
X72300Y56156D02*
D03*
Y50644D02*
D03*
X60900Y154744D02*
D03*
Y160256D02*
D03*
X137300Y38812D02*
D03*
Y33300D02*
D03*
X131300Y49056D02*
D03*
Y43544D02*
D03*
X117800Y34144D02*
D03*
Y39656D02*
D03*
X94300Y44956D02*
D03*
Y39444D02*
D03*
X135700Y54056D02*
D03*
Y48544D02*
D03*
X82800Y36256D02*
D03*
Y30744D02*
D03*
X25100Y94556D02*
D03*
Y89044D02*
D03*
X48800Y27644D02*
D03*
Y33156D02*
D03*
D17*
X142559Y99759D02*
D03*
Y101727D02*
D03*
Y103696D02*
D03*
Y105665D02*
D03*
Y107633D02*
D03*
Y109602D02*
D03*
Y111570D02*
D03*
Y113539D02*
D03*
X123661D02*
D03*
Y111570D02*
D03*
Y109602D02*
D03*
Y107633D02*
D03*
Y105665D02*
D03*
Y103696D02*
D03*
Y101727D02*
D03*
Y99759D02*
D03*
D18*
X140000Y116098D02*
D03*
X138031D02*
D03*
X136063D02*
D03*
X134095D02*
D03*
X132126D02*
D03*
X130157D02*
D03*
X128189D02*
D03*
X126221D02*
D03*
Y97200D02*
D03*
X128189D02*
D03*
X130157D02*
D03*
X132126D02*
D03*
X134095D02*
D03*
X136063D02*
D03*
X138031D02*
D03*
X140000D02*
D03*
D21*
X59446Y58135D02*
D03*
X57477D02*
D03*
X55509D02*
D03*
X53540D02*
D03*
X51572D02*
D03*
X49603D02*
D03*
X47635D02*
D03*
X45666D02*
D03*
X43698D02*
D03*
X41729D02*
D03*
X39761D02*
D03*
X37792D02*
D03*
Y85497D02*
D03*
X39761D02*
D03*
X41729D02*
D03*
X43698D02*
D03*
X45666D02*
D03*
X47635D02*
D03*
X49603D02*
D03*
X51572D02*
D03*
X53540D02*
D03*
X55509D02*
D03*
X57477D02*
D03*
X59446D02*
D03*
D22*
X34938Y60989D02*
D03*
Y62958D02*
D03*
Y64926D02*
D03*
Y66895D02*
D03*
Y68863D02*
D03*
Y70832D02*
D03*
Y72800D02*
D03*
Y74769D02*
D03*
Y76737D02*
D03*
Y78706D02*
D03*
Y80674D02*
D03*
Y82643D02*
D03*
X62300D02*
D03*
Y80674D02*
D03*
Y78706D02*
D03*
Y76737D02*
D03*
Y74769D02*
D03*
Y72800D02*
D03*
Y70832D02*
D03*
Y68863D02*
D03*
Y66895D02*
D03*
Y64926D02*
D03*
Y62958D02*
D03*
Y60989D02*
D03*
D24*
X127140Y81659D02*
D03*
X119660D02*
D03*
Y79100D02*
D03*
Y76541D02*
D03*
X127140D02*
D03*
Y79100D02*
D03*
X39660Y160441D02*
D03*
Y165559D02*
D03*
X47140D02*
D03*
Y163000D02*
D03*
Y160441D02*
D03*
X124560Y35741D02*
D03*
X132040D02*
D03*
Y38300D02*
D03*
Y40859D02*
D03*
X124560D02*
D03*
Y38300D02*
D03*
X72260Y42141D02*
D03*
X79740D02*
D03*
Y44700D02*
D03*
Y47259D02*
D03*
X72260D02*
D03*
Y44700D02*
D03*
D27*
X70344Y25400D02*
D03*
X75856D02*
D03*
X63056Y23900D02*
D03*
X57544D02*
D03*
X22244Y109300D02*
D03*
X27756D02*
D03*
X47144Y117800D02*
D03*
X52656D02*
D03*
X52756Y112700D02*
D03*
X47244D02*
D03*
X52756Y108400D02*
D03*
X47244D02*
D03*
X55744Y117700D02*
D03*
X61256D02*
D03*
X66744Y102800D02*
D03*
X72256D02*
D03*
X88256Y112600D02*
D03*
X82744D02*
D03*
X88356Y117300D02*
D03*
X82844D02*
D03*
X149656Y72600D02*
D03*
X144144D02*
D03*
X165944Y160000D02*
D03*
X171456D02*
D03*
X66644Y181300D02*
D03*
X72156D02*
D03*
X115024Y122000D02*
D03*
X120536D02*
D03*
X111256Y124700D02*
D03*
X105744D02*
D03*
X104944Y116300D02*
D03*
X110456D02*
D03*
X120356Y116100D02*
D03*
X114844D02*
D03*
X118444Y126800D02*
D03*
X123956D02*
D03*
X133456Y126300D02*
D03*
X127944D02*
D03*
X114256Y85900D02*
D03*
X108744D02*
D03*
X141964Y52280D02*
D03*
X147476D02*
D03*
X113656Y36000D02*
D03*
X108144D02*
D03*
X84344Y47400D02*
D03*
X89856D02*
D03*
X84344Y42400D02*
D03*
X89856D02*
D03*
X171256Y166100D02*
D03*
X165744D02*
D03*
X66644Y176200D02*
D03*
X72156D02*
D03*
X145044Y94600D02*
D03*
X150556D02*
D03*
X85656Y21600D02*
D03*
X80144D02*
D03*
X125444Y30500D02*
D03*
X130956D02*
D03*
X124244Y25500D02*
D03*
X129756D02*
D03*
X122244Y48900D02*
D03*
X127756D02*
D03*
X98000Y116600D02*
D03*
X92488D02*
D03*
X108744Y80900D02*
D03*
X114256D02*
D03*
X64256Y53500D02*
D03*
X58744D02*
D03*
D28*
X59121Y46500D02*
D03*
X49279D02*
D03*
D29*
X36541Y44346D02*
D03*
X41659Y37653D02*
D03*
X36541D02*
D03*
X41659Y44346D02*
D03*
D30*
X40600Y199432D02*
D03*
Y203368D02*
D03*
X29200Y164969D02*
D03*
Y161031D02*
D03*
X38800Y192631D02*
D03*
Y196569D02*
D03*
X42300Y192631D02*
D03*
Y196569D02*
D03*
X153900Y94832D02*
D03*
Y98769D02*
D03*
X167900Y103832D02*
D03*
Y107768D02*
D03*
X154700Y110231D02*
D03*
Y114169D02*
D03*
Y120668D02*
D03*
Y116732D02*
D03*
X138900Y87868D02*
D03*
Y83931D02*
D03*
X153900Y102631D02*
D03*
Y106569D02*
D03*
X193400Y100432D02*
D03*
Y104368D02*
D03*
X163900Y97768D02*
D03*
Y93831D02*
D03*
X156500Y87868D02*
D03*
Y83931D02*
D03*
X31000Y43569D02*
D03*
Y39632D02*
D03*
D31*
X43632Y176400D02*
D03*
X47569D02*
D03*
X43632Y172200D02*
D03*
X47569D02*
D03*
X47569Y168900D02*
D03*
X43632D02*
D03*
X40069D02*
D03*
X36132D02*
D03*
X32131Y165000D02*
D03*
X36068D02*
D03*
X29131Y168900D02*
D03*
X33068D02*
D03*
X33332Y176400D02*
D03*
X37268D02*
D03*
X43632Y203400D02*
D03*
X47569D02*
D03*
X189232Y97500D02*
D03*
X193168D02*
D03*
X160869Y102800D02*
D03*
X156931D02*
D03*
X156931Y98800D02*
D03*
X160869D02*
D03*
X167868Y100800D02*
D03*
X163932D02*
D03*
X146432Y98800D02*
D03*
X150368D02*
D03*
X146432Y102800D02*
D03*
X150368D02*
D03*
X171869Y97300D02*
D03*
X167931D02*
D03*
X52668Y40600D02*
D03*
X48731D02*
D03*
X59668D02*
D03*
X55731D02*
D03*
X37031Y31800D02*
D03*
X40968D02*
D03*
D32*
X32741Y180565D02*
D03*
X37859D02*
D03*
X35300Y188635D02*
D03*
X42341Y180565D02*
D03*
X47459D02*
D03*
X44900Y188635D02*
D03*
D33*
X42443Y116347D02*
D03*
X32757D02*
D03*
Y109653D02*
D03*
X42443D02*
D03*
D34*
X72759Y107560D02*
D03*
X67641D02*
D03*
Y115040D02*
D03*
X70200D02*
D03*
X72759D02*
D03*
D38*
X90067Y22202D02*
D03*
X93807D02*
D03*
X97547D02*
D03*
X101287D02*
D03*
Y27713D02*
D03*
X97547D02*
D03*
X93807D02*
D03*
D39*
X90067D02*
D03*
D40*
X127963Y63639D02*
D03*
Y61671D02*
D03*
Y59702D02*
D03*
X120679D02*
D03*
Y61671D02*
D03*
Y63639D02*
D03*
D41*
X127274Y57045D02*
D03*
X125305D02*
D03*
X123337D02*
D03*
X121369D02*
D03*
Y66297D02*
D03*
X123337D02*
D03*
X125305D02*
D03*
D42*
X127274Y66494D02*
D03*
D43*
X59898Y35453D02*
D03*
Y33484D02*
D03*
Y31516D02*
D03*
Y29547D02*
D03*
X72102Y35453D02*
D03*
Y33484D02*
D03*
Y31516D02*
D03*
Y29547D02*
D03*
D44*
X98032Y120256D02*
D03*
X101969D02*
D03*
X100000Y124744D02*
D03*
D45*
X137100Y59347D02*
D03*
Y61316D02*
D03*
Y63300D02*
D03*
Y65300D02*
D03*
X147894D02*
D03*
Y63300D02*
D03*
Y61316D02*
D03*
Y59347D02*
D03*
D46*
X139500Y67700D02*
D03*
X141500D02*
D03*
X143484D02*
D03*
X145453D02*
D03*
Y56906D02*
D03*
X143484D02*
D03*
X141500D02*
D03*
X139500D02*
D03*
D47*
X111960Y29600D02*
D03*
X119440D02*
D03*
D48*
X160800Y119721D02*
D03*
Y109879D02*
D03*
D49*
X174696Y97300D02*
D03*
D50*
X185523D02*
D03*
D51*
X180405Y93068D02*
D03*
Y101532D02*
D03*
D52*
X143853Y83341D02*
D03*
X150547Y88459D02*
D03*
Y83341D02*
D03*
X143853Y88459D02*
D03*
D53*
X92860Y34500D02*
D03*
X100340D02*
D03*
D54*
X113544Y24500D02*
D03*
X119056D02*
D03*
D121*
X129666Y110093D02*
D03*
X136555D02*
D03*
Y103204D02*
D03*
X129666D02*
D03*
X48619Y78705D02*
D03*
Y64926D02*
D03*
X55509D02*
D03*
X41729D02*
D03*
X48717Y71815D02*
D03*
X55509Y71816D02*
D03*
X41729Y78705D02*
D03*
Y71816D02*
D03*
X55509Y78705D02*
D03*
D122*
X133110Y106649D02*
D03*
D123*
X153762Y37620D02*
D03*
Y35651D02*
D03*
Y39588D02*
D03*
X147758D02*
D03*
Y35651D02*
D03*
Y37620D02*
D03*
D124*
X151744Y40622D02*
D03*
X149776D02*
D03*
Y34618D02*
D03*
X151744D02*
D03*
D125*
X105762Y45400D02*
D03*
X104187D02*
D03*
X102613D02*
D03*
X101038D02*
D03*
Y54600D02*
D03*
X102613D02*
D03*
X104187D02*
D03*
X105762D02*
D03*
D126*
X100380Y47638D02*
D03*
Y49213D02*
D03*
Y50787D02*
D03*
X106420Y52362D02*
D03*
Y50787D02*
D03*
Y49213D02*
D03*
X106420Y47638D02*
D03*
D127*
X100577Y52362D02*
D03*
M02*
