G04 Layer_Physical_Order=1*
G04 Layer_Color=255*
%FSLAX25Y25*%
%MOIN*%
G70*
G01*
G75*
%ADD10C,0.00800*%
%ADD11R,0.19685X0.19685*%
%ADD12R,0.03937X0.07874*%
%ADD13R,0.11811X0.23622*%
%ADD14R,0.03543X0.03150*%
%ADD15R,0.03543X0.04724*%
%ADD16R,0.03543X0.02362*%
%ADD17O,0.02362X0.00945*%
%ADD18O,0.00945X0.02362*%
%ADD19R,0.13583X0.13583*%
%ADD20R,0.15748X0.15748*%
%ADD21O,0.01102X0.03347*%
%ADD22O,0.03347X0.01102*%
%ADD23R,0.01811X0.01811*%
%ADD24R,0.03622X0.01575*%
%ADD25R,0.01476X0.01358*%
%ADD26R,0.01358X0.01476*%
%ADD27R,0.02362X0.03543*%
%ADD28R,0.03937X0.07087*%
%ADD29R,0.03937X0.04724*%
%ADD30R,0.02362X0.01968*%
%ADD31R,0.01968X0.02362*%
%ADD32R,0.02756X0.03937*%
%ADD33C,0.03150*%
%ADD34R,0.01575X0.03622*%
%ADD35R,0.00886X0.02217*%
%ADD36R,0.02217X0.00886*%
%ADD37R,0.02610X0.00886*%
%ADD38R,0.02835X0.02362*%
%ADD39R,0.02756X0.02362*%
%ADD40R,0.01772X0.00984*%
%ADD41R,0.00984X0.01772*%
%ADD42R,0.00984X0.01378*%
%ADD43R,0.02953X0.00984*%
%ADD44R,0.01968X0.02598*%
%ADD45R,0.02600X0.01200*%
%ADD46R,0.01200X0.02600*%
%ADD47R,0.02756X0.05118*%
%ADD48R,0.07087X0.03937*%
%ADD49R,0.02165X0.02165*%
%ADD50R,0.02756X0.02165*%
%ADD51R,0.10433X0.03150*%
%ADD52R,0.04724X0.03937*%
%ADD53R,0.05118X0.05905*%
%ADD54R,0.01968X0.01968*%
%ADD55C,0.01000*%
%ADD56C,0.01200*%
%ADD57C,0.01600*%
%ADD58C,0.01400*%
%ADD59C,0.01800*%
%ADD60C,0.02020*%
%ADD61C,0.01042*%
%ADD62C,0.01811*%
%ADD63C,0.00600*%
%ADD64C,0.01500*%
%ADD65R,0.13780X0.33465*%
%ADD66R,0.07874X0.33465*%
%ADD67R,0.07874X0.33465*%
%ADD68R,0.07874X0.25590*%
%ADD69R,0.37402X0.07874*%
%ADD70R,0.87795X0.07874*%
G04:AMPARAMS|DCode=71|XSize=428.67mil|YSize=78.74mil|CornerRadius=0mil|HoleSize=0mil|Usage=FLASHONLY|Rotation=340.000|XOffset=0mil|YOffset=0mil|HoleType=Round|Shape=Rectangle|*
%AMROTATEDRECTD71*
4,1,4,-0.21488,0.03631,-0.18794,0.11030,0.21488,-0.03631,0.18794,-0.11030,-0.21488,0.03631,0.0*
%
%ADD71ROTATEDRECTD71*%

%ADD72R,0.11200X0.14707*%
%ADD73R,0.07499X0.06400*%
%ADD74C,0.05200*%
%ADD75C,0.06000*%
%ADD76C,0.04000*%
%ADD77C,0.03937*%
%ADD78R,0.03937X0.03937*%
%ADD79R,0.04000X0.04000*%
%ADD80R,0.04000X0.04000*%
%ADD81C,0.04331*%
%ADD82P,0.04688X8X112.5*%
%ADD83R,0.03937X0.03937*%
%ADD84C,0.11000*%
%ADD85C,0.02600*%
G36*
X127372Y65411D02*
X126782D01*
Y65805D01*
X127766D01*
X127372Y65411D01*
D02*
G37*
G36*
X58757Y62958D02*
X57477Y61678D01*
X38481D01*
Y81954D01*
X58757D01*
Y62958D01*
D02*
G37*
G36*
X197794Y180700D02*
X197794Y99443D01*
X195604D01*
X195601Y99447D01*
Y101416D01*
X195523Y101806D01*
X195302Y102137D01*
Y102663D01*
X195523Y102994D01*
X195601Y103384D01*
Y103868D01*
X193400D01*
X191199D01*
Y103384D01*
X191277Y102994D01*
X191498Y102663D01*
Y102137D01*
X191277Y101806D01*
X191199Y101416D01*
Y99948D01*
X190606Y99623D01*
X190216Y99701D01*
X188247D01*
X187857Y99623D01*
X187526Y99402D01*
X187418Y99240D01*
X187291Y99325D01*
X187088Y99365D01*
X186881Y99445D01*
X186641Y99958D01*
Y101032D01*
X180405D01*
X174169D01*
Y99958D01*
X173690Y99402D01*
X173613D01*
X173352Y99350D01*
X173243Y99423D01*
X172853Y99501D01*
X170884D01*
X170494Y99423D01*
X170438Y99385D01*
X170133Y99511D01*
X169872Y99729D01*
Y101981D01*
X169834Y102174D01*
X170023Y102457D01*
X170101Y102847D01*
Y104816D01*
X170023Y105206D01*
X169802Y105537D01*
Y106063D01*
X170023Y106394D01*
X170101Y106784D01*
Y107269D01*
X167900D01*
Y107768D01*
X167400D01*
Y109772D01*
X166719D01*
X166329Y109695D01*
X165998Y109474D01*
X165963Y109421D01*
X165363Y109603D01*
Y111847D01*
X165285Y112237D01*
X165164Y112418D01*
Y117182D01*
X165285Y117363D01*
X165363Y117753D01*
Y121690D01*
X165285Y122080D01*
X165064Y122411D01*
X164734Y122632D01*
X164343Y122709D01*
X160900D01*
Y125160D01*
X161497Y125407D01*
X161561Y125456D01*
X162311Y125311D01*
X162641Y125090D01*
X163031Y125012D01*
X164200D01*
Y128000D01*
Y130988D01*
X163031D01*
X162641Y130911D01*
X162311Y130690D01*
X161561Y130544D01*
X161497Y130593D01*
X161390Y130638D01*
X161206Y131363D01*
X163965Y134754D01*
X175061D01*
X175452Y134832D01*
X175782Y135053D01*
X176003Y135384D01*
X176081Y135774D01*
Y155459D01*
X176003Y155849D01*
X175782Y156180D01*
X175700Y156235D01*
X175700Y167804D01*
X176870Y168974D01*
X177290Y169603D01*
X177437Y170344D01*
Y180700D01*
X197794Y180700D01*
D02*
G37*
G36*
X224999Y54744D02*
X200708D01*
Y82224D01*
X197794D01*
Y86161D01*
X200708D01*
Y90886D01*
X197794D01*
Y94823D01*
X205787D01*
Y63327D01*
X216298D01*
Y86161D01*
X213149D01*
Y82224D01*
X208385D01*
Y94618D01*
X205787Y96595D01*
X197794D01*
Y98405D01*
X206180D01*
X210743Y94823D01*
X213149D01*
Y90886D01*
X220235D01*
Y155453D01*
X224999D01*
Y54744D01*
D02*
G37*
G36*
X161748Y96036D02*
X161910Y95406D01*
X161777Y95206D01*
X161699Y94816D01*
Y94332D01*
X163900D01*
X166101D01*
Y94760D01*
X166280Y94929D01*
X166644Y95160D01*
X166947Y95099D01*
X168916D01*
X169306Y95177D01*
X169637Y95398D01*
X170163D01*
X170494Y95177D01*
X170884Y95099D01*
X172853D01*
X173243Y95177D01*
X173352Y95250D01*
X173613Y95198D01*
X173690D01*
X174169Y94643D01*
Y93568D01*
X180405D01*
X186641D01*
Y94643D01*
X186881Y95155D01*
X187088Y95235D01*
X187291Y95275D01*
X187622Y95496D01*
X187639Y95522D01*
X187857Y95377D01*
X188247Y95299D01*
X189401D01*
X189900Y94800D01*
X193900D01*
Y95299D01*
X194153D01*
X194543Y95377D01*
X194813Y95557D01*
X196361D01*
X196461Y95487D01*
X196802Y94957D01*
X196775Y94823D01*
Y90886D01*
X196853Y90496D01*
X197073Y90165D01*
X197404Y89944D01*
X197794Y89866D01*
X197794D01*
Y87181D01*
X197794D01*
X197404Y87103D01*
X197073Y86882D01*
X196853Y86552D01*
X196775Y86161D01*
Y82224D01*
X196853Y81834D01*
X197073Y81503D01*
X197404Y81282D01*
X197794Y81205D01*
X197794D01*
X197795Y2000D01*
X160900Y2000D01*
Y10918D01*
X161000Y11006D01*
X161775Y11108D01*
X162497Y11407D01*
X163117Y11883D01*
X163593Y12503D01*
X163882Y13200D01*
X161000D01*
Y14800D01*
X163882D01*
X163593Y15497D01*
X163117Y16117D01*
X163009Y16200D01*
Y16800D01*
X163117Y16883D01*
X163593Y17503D01*
X163892Y18225D01*
X163994Y19000D01*
X163892Y19775D01*
X163593Y20497D01*
X163117Y21117D01*
X162497Y21593D01*
X161775Y21892D01*
X161000Y21994D01*
X160900Y22082D01*
Y29418D01*
X160917Y29434D01*
X161500Y29684D01*
X161641Y29590D01*
X162031Y29512D01*
X163200D01*
Y32500D01*
X164000D01*
Y33300D01*
X166988D01*
Y34468D01*
X166911Y34859D01*
X166690Y35189D01*
X166544Y35939D01*
X166593Y36003D01*
X166892Y36725D01*
X166994Y37500D01*
X166892Y38275D01*
X166593Y38997D01*
X166117Y39617D01*
X166009Y39700D01*
Y40300D01*
X166117Y40383D01*
X166593Y41003D01*
X166892Y41725D01*
X166994Y42500D01*
X166892Y43275D01*
X166593Y43997D01*
X166117Y44617D01*
X166009Y44700D01*
Y45300D01*
X166117Y45383D01*
X166593Y46003D01*
X166892Y46725D01*
X166994Y47500D01*
X166892Y48275D01*
X166593Y48997D01*
X166117Y49617D01*
X166009Y49700D01*
Y50300D01*
X166117Y50383D01*
X166593Y51003D01*
X166892Y51725D01*
X166994Y52500D01*
X166892Y53275D01*
X166593Y53997D01*
X166117Y54617D01*
X166009Y54700D01*
Y55300D01*
X166117Y55383D01*
X166593Y56003D01*
X166892Y56725D01*
X166994Y57500D01*
X166892Y58275D01*
X166593Y58997D01*
X166117Y59617D01*
X166009Y59700D01*
Y60300D01*
X166117Y60383D01*
X166593Y61003D01*
X166892Y61725D01*
X166994Y62500D01*
X166892Y63275D01*
X166593Y63997D01*
X166117Y64617D01*
X166009Y64700D01*
Y65300D01*
X166117Y65383D01*
X166593Y66003D01*
X166892Y66725D01*
X166994Y67500D01*
X166892Y68275D01*
X166593Y68997D01*
X166117Y69617D01*
X165497Y70093D01*
X164775Y70392D01*
X164000Y70494D01*
X163225Y70392D01*
X162503Y70093D01*
X161883Y69617D01*
X161529Y69156D01*
X160929Y69356D01*
Y76074D01*
X160900Y76222D01*
X160900Y95849D01*
X161377Y96183D01*
X161748Y96036D01*
D02*
G37*
G36*
X203148Y206786D02*
X203865Y206489D01*
X204510Y206058D01*
X205058Y205510D01*
X205489Y204865D01*
X205786Y204148D01*
X205937Y203388D01*
Y203000D01*
Y202612D01*
X205786Y201852D01*
X205489Y201135D01*
X205058Y200490D01*
X204510Y199942D01*
X203865Y199511D01*
X203148Y199214D01*
X202388Y199063D01*
X201612D01*
X200852Y199214D01*
X200135Y199511D01*
X199490Y199942D01*
X198942Y200490D01*
X198511Y201135D01*
X198214Y201852D01*
X198063Y202612D01*
Y203000D01*
Y203388D01*
X198214Y204148D01*
X198511Y204865D01*
X198942Y205510D01*
X199490Y206058D01*
X200135Y206489D01*
X200852Y206786D01*
X201612Y206937D01*
X202388D01*
X203148Y206786D01*
D02*
G37*
G36*
X193000Y206500D02*
X59900D01*
Y175795D01*
X56002Y171898D01*
X55604Y171302D01*
X55465Y170600D01*
Y152660D01*
X53829Y151025D01*
X52829Y151439D01*
Y163400D01*
X52713Y163985D01*
X52381Y164481D01*
X50963Y165900D01*
X50963Y207100D01*
X49577D01*
X49208Y207658D01*
X49043Y208100D01*
X49397Y208956D01*
X49429Y209200D01*
X45500D01*
Y210000D01*
X44700D01*
Y214547D01*
X44484Y214736D01*
Y215264D01*
X44700Y215453D01*
Y219200D01*
X40953D01*
X40764Y218984D01*
X40236D01*
X40047Y219200D01*
X36300D01*
Y215453D01*
X36516Y215264D01*
Y214736D01*
X36300Y214547D01*
Y210000D01*
X35500D01*
Y209200D01*
X31571D01*
X31603Y208956D01*
X31957Y208100D01*
X31792Y207658D01*
X31423Y207100D01*
X22400D01*
Y173963D01*
X18609Y170171D01*
X18277Y169675D01*
X18161Y169090D01*
Y157979D01*
X16133D01*
Y161100D01*
X16001Y161763D01*
X15626Y162326D01*
X13431Y164520D01*
X13494Y165000D01*
X13392Y165775D01*
X13210Y166213D01*
X13094Y166504D01*
X13190Y167311D01*
X13410Y167641D01*
X13488Y168032D01*
Y169200D01*
X10500D01*
X7512D01*
Y168032D01*
X7589Y167641D01*
X7811Y167311D01*
X7906Y166504D01*
X7790Y166213D01*
X7608Y165775D01*
X7506Y165000D01*
X7608Y164225D01*
X7907Y163503D01*
X8383Y162883D01*
X9003Y162407D01*
X9725Y162108D01*
X10500Y162006D01*
X10980Y162069D01*
X12667Y160382D01*
Y158968D01*
X12468Y157988D01*
X8531D01*
X8488Y157979D01*
X2000D01*
X2000Y225369D01*
X51100D01*
Y225287D01*
X58400Y225287D01*
Y225369D01*
X193000D01*
Y206500D01*
D02*
G37*
G36*
X25248Y26986D02*
X25965Y26689D01*
X26610Y26258D01*
X27158Y25710D01*
X27589Y25065D01*
X27886Y24348D01*
X28037Y23588D01*
Y23200D01*
Y22812D01*
X27886Y22052D01*
X27589Y21335D01*
X27158Y20690D01*
X26610Y20142D01*
X25965Y19711D01*
X25248Y19414D01*
X24488Y19263D01*
X23712D01*
X22952Y19414D01*
X22235Y19711D01*
X21590Y20142D01*
X21042Y20690D01*
X20611Y21335D01*
X20314Y22052D01*
X20163Y22812D01*
Y23200D01*
Y23588D01*
X20314Y24348D01*
X20611Y25065D01*
X21042Y25710D01*
X21590Y26258D01*
X22235Y26689D01*
X22952Y26986D01*
X23712Y27137D01*
X24488D01*
X25248Y26986D01*
D02*
G37*
G36*
X208448Y32186D02*
X209165Y31889D01*
X209810Y31458D01*
X210358Y30910D01*
X210789Y30265D01*
X211086Y29548D01*
X211237Y28788D01*
Y28400D01*
Y28012D01*
X211086Y27252D01*
X210789Y26535D01*
X210358Y25890D01*
X209810Y25342D01*
X209165Y24911D01*
X208448Y24614D01*
X207688Y24463D01*
X206912D01*
X206152Y24614D01*
X205435Y24911D01*
X204790Y25342D01*
X204242Y25890D01*
X203811Y26535D01*
X203514Y27252D01*
X203363Y28012D01*
Y28400D01*
Y28788D01*
X203514Y29548D01*
X203811Y30265D01*
X204242Y30910D01*
X204790Y31458D01*
X205435Y31889D01*
X206152Y32186D01*
X206912Y32337D01*
X207688D01*
X208448Y32186D01*
D02*
G37*
%LPC*%
G36*
X194581Y106372D02*
X193900D01*
Y104868D01*
X195601D01*
Y105353D01*
X195523Y105743D01*
X195302Y106074D01*
X194971Y106295D01*
X194581Y106372D01*
D02*
G37*
G36*
X169081Y109772D02*
X168400D01*
Y108268D01*
X170101D01*
Y108753D01*
X170023Y109143D01*
X169802Y109474D01*
X169471Y109695D01*
X169081Y109772D01*
D02*
G37*
G36*
X167988Y127200D02*
X165800D01*
Y125012D01*
X166969D01*
X167359Y125090D01*
X167690Y125311D01*
X167911Y125641D01*
X167988Y126031D01*
Y127200D01*
D02*
G37*
G36*
X166969Y130988D02*
X165800D01*
Y128800D01*
X167988D01*
Y129969D01*
X167911Y130359D01*
X167690Y130690D01*
X167359Y130911D01*
X166969Y130988D01*
D02*
G37*
G36*
X185621Y104127D02*
X180905D01*
Y102032D01*
X186641D01*
Y103107D01*
X186563Y103497D01*
X186342Y103828D01*
X186011Y104049D01*
X185621Y104127D01*
D02*
G37*
G36*
X192900Y106372D02*
X192219D01*
X191829Y106295D01*
X191498Y106074D01*
X191277Y105743D01*
X191199Y105353D01*
Y104868D01*
X192900D01*
Y106372D01*
D02*
G37*
G36*
X179905Y104127D02*
X175188D01*
X174798Y104049D01*
X174467Y103828D01*
X174246Y103497D01*
X174169Y103107D01*
Y102032D01*
X179905D01*
Y104127D01*
D02*
G37*
G36*
Y92568D02*
X174169D01*
Y91493D01*
X174246Y91103D01*
X174467Y90772D01*
X174798Y90551D01*
X175188Y90473D01*
X179905D01*
Y92568D01*
D02*
G37*
G36*
X186641D02*
X180905D01*
Y90473D01*
X185621D01*
X186011Y90551D01*
X186342Y90772D01*
X186563Y91103D01*
X186641Y91493D01*
Y92568D01*
D02*
G37*
G36*
X189700Y18800D02*
X189650Y18790D01*
X189600Y18795D01*
X188375Y18674D01*
X188279Y18645D01*
X188179Y18635D01*
X187001Y18278D01*
X186912Y18230D01*
X186816Y18201D01*
X185730Y17621D01*
X185653Y17557D01*
X185564Y17510D01*
X184612Y16729D01*
X184549Y16651D01*
X184471Y16588D01*
X183690Y15636D01*
X183643Y15547D01*
X183579Y15470D01*
X182999Y14384D01*
X182969Y14288D01*
X182922Y14199D01*
X182565Y13021D01*
X182555Y12921D01*
X182526Y12825D01*
X182405Y11600D01*
X182415Y11500D01*
X182405Y11400D01*
X182526Y10175D01*
X182555Y10079D01*
X182565Y9979D01*
X182922Y8801D01*
X182969Y8712D01*
X182999Y8616D01*
X183579Y7530D01*
X183643Y7453D01*
X183690Y7364D01*
X184471Y6412D01*
X184549Y6349D01*
X184612Y6271D01*
X185564Y5490D01*
X185653Y5443D01*
X185730Y5379D01*
X186816Y4799D01*
X186912Y4769D01*
X187001Y4722D01*
X188179Y4365D01*
X188279Y4355D01*
X188375Y4326D01*
X189600Y4205D01*
X189650Y4210D01*
X189700Y4200D01*
X189750Y4210D01*
X189800Y4205D01*
X191025Y4326D01*
X191121Y4355D01*
X191221Y4365D01*
X192399Y4722D01*
X192488Y4769D01*
X192584Y4799D01*
X193670Y5379D01*
X193747Y5443D01*
X193836Y5490D01*
X194788Y6271D01*
X194851Y6349D01*
X194929Y6412D01*
X195710Y7364D01*
X195757Y7453D01*
X195821Y7530D01*
X196401Y8616D01*
X196431Y8712D01*
X196478Y8801D01*
X196835Y9979D01*
X196845Y10079D01*
X196874Y10175D01*
X196995Y11400D01*
X196985Y11500D01*
X196995Y11600D01*
X196874Y12825D01*
X196845Y12921D01*
X196835Y13021D01*
X196478Y14199D01*
X196431Y14288D01*
X196401Y14384D01*
X195821Y15470D01*
X195757Y15547D01*
X195710Y15636D01*
X194929Y16588D01*
X194851Y16651D01*
X194788Y16729D01*
X193836Y17510D01*
X193747Y17557D01*
X193670Y17621D01*
X192584Y18201D01*
X192488Y18230D01*
X192399Y18278D01*
X191221Y18635D01*
X191121Y18645D01*
X191025Y18674D01*
X189800Y18795D01*
X189750Y18790D01*
X189700Y18800D01*
D02*
G37*
G36*
X166988Y31700D02*
X164800D01*
Y29512D01*
X165969D01*
X166359Y29590D01*
X166690Y29811D01*
X166911Y30141D01*
X166988Y30531D01*
Y31700D01*
D02*
G37*
G36*
X163400Y93331D02*
X161699D01*
Y92847D01*
X161777Y92457D01*
X161998Y92126D01*
X162329Y91905D01*
X162719Y91828D01*
X163400D01*
Y93331D01*
D02*
G37*
G36*
X166101D02*
X164400D01*
Y91828D01*
X165081D01*
X165471Y91905D01*
X165802Y92126D01*
X166023Y92457D01*
X166101Y92847D01*
Y93331D01*
D02*
G37*
G36*
X12500Y196000D02*
X12450Y195990D01*
X12400Y195995D01*
X11175Y195874D01*
X11079Y195845D01*
X10979Y195835D01*
X9801Y195478D01*
X9712Y195431D01*
X9616Y195401D01*
X8530Y194821D01*
X8453Y194757D01*
X8364Y194710D01*
X7412Y193929D01*
X7349Y193851D01*
X7271Y193788D01*
X6490Y192836D01*
X6443Y192747D01*
X6379Y192670D01*
X5799Y191584D01*
X5770Y191488D01*
X5722Y191399D01*
X5365Y190221D01*
X5355Y190121D01*
X5326Y190025D01*
X5205Y188800D01*
X5215Y188700D01*
X5205Y188600D01*
X5326Y187375D01*
X5355Y187279D01*
X5365Y187179D01*
X5722Y186001D01*
X5770Y185912D01*
X5799Y185816D01*
X6379Y184730D01*
X6443Y184653D01*
X6490Y184564D01*
X7271Y183612D01*
X7349Y183549D01*
X7412Y183471D01*
X8364Y182690D01*
X8453Y182643D01*
X8530Y182579D01*
X9616Y181999D01*
X9712Y181969D01*
X9801Y181922D01*
X10979Y181565D01*
X11079Y181555D01*
X11175Y181526D01*
X12400Y181405D01*
X12450Y181410D01*
X12500Y181400D01*
X12550Y181410D01*
X12600Y181405D01*
X13825Y181526D01*
X13921Y181555D01*
X14021Y181565D01*
X15199Y181922D01*
X15288Y181969D01*
X15384Y181999D01*
X16470Y182579D01*
X16547Y182643D01*
X16636Y182690D01*
X17588Y183471D01*
X17651Y183549D01*
X17729Y183612D01*
X18510Y184564D01*
X18557Y184653D01*
X18621Y184730D01*
X19201Y185816D01*
X19230Y185912D01*
X19278Y186001D01*
X19635Y187179D01*
X19645Y187279D01*
X19674Y187375D01*
X19795Y188600D01*
X19785Y188700D01*
X19795Y188800D01*
X19674Y190025D01*
X19645Y190121D01*
X19635Y190221D01*
X19278Y191399D01*
X19230Y191488D01*
X19201Y191584D01*
X18621Y192670D01*
X18557Y192747D01*
X18510Y192836D01*
X17729Y193788D01*
X17651Y193851D01*
X17588Y193929D01*
X16636Y194710D01*
X16547Y194757D01*
X16470Y194821D01*
X15384Y195401D01*
X15288Y195431D01*
X15199Y195478D01*
X14021Y195835D01*
X13921Y195845D01*
X13825Y195874D01*
X12600Y195995D01*
X12550Y195990D01*
X12500Y196000D01*
D02*
G37*
G36*
X12468Y172988D02*
X11300D01*
Y170800D01*
X13488D01*
Y171968D01*
X13410Y172359D01*
X13190Y172689D01*
X12859Y172910D01*
X12468Y172988D01*
D02*
G37*
G36*
X9700D02*
X8531D01*
X8141Y172910D01*
X7811Y172689D01*
X7589Y172359D01*
X7512Y171968D01*
Y170800D01*
X9700D01*
Y172988D01*
D02*
G37*
G36*
X65800Y220540D02*
Y218253D01*
X68087D01*
X68084Y218279D01*
X67765Y219049D01*
X67258Y219710D01*
X66596Y220218D01*
X65826Y220537D01*
X65800Y220540D01*
D02*
G37*
G36*
X89300D02*
Y218253D01*
X91587D01*
X91584Y218279D01*
X91265Y219049D01*
X90758Y219710D01*
X90096Y220218D01*
X89326Y220537D01*
X89300Y220540D01*
D02*
G37*
G36*
X125300D02*
Y218253D01*
X127587D01*
X127584Y218279D01*
X127265Y219049D01*
X126758Y219710D01*
X126096Y220218D01*
X125326Y220537D01*
X125300Y220540D01*
D02*
G37*
G36*
X123700D02*
X123674Y220537D01*
X122904Y220218D01*
X122242Y219710D01*
X121735Y219049D01*
X121416Y218279D01*
X121413Y218253D01*
X123700D01*
Y220540D01*
D02*
G37*
G36*
X148700D02*
X148674Y220537D01*
X147904Y220218D01*
X147242Y219710D01*
X146735Y219049D01*
X146416Y218279D01*
X146413Y218253D01*
X148700D01*
Y220540D01*
D02*
G37*
G36*
X172700D02*
X172674Y220537D01*
X171904Y220218D01*
X171242Y219710D01*
X170735Y219049D01*
X170416Y218279D01*
X170413Y218253D01*
X172700D01*
Y220540D01*
D02*
G37*
G36*
X44700Y223929D02*
X44456Y223897D01*
X43483Y223494D01*
X42647Y222853D01*
X42006Y222017D01*
X41603Y221044D01*
X41571Y220800D01*
X44700D01*
Y223929D01*
D02*
G37*
G36*
X46300D02*
Y220800D01*
X49429D01*
X49397Y221044D01*
X48994Y222017D01*
X48353Y222853D01*
X47517Y223494D01*
X46544Y223897D01*
X46300Y223929D01*
D02*
G37*
G36*
X36300D02*
Y220800D01*
X39429D01*
X39397Y221044D01*
X38994Y222017D01*
X38353Y222853D01*
X37517Y223494D01*
X36544Y223897D01*
X36300Y223929D01*
D02*
G37*
G36*
X150300Y220540D02*
Y218253D01*
X152587D01*
X152584Y218279D01*
X152265Y219049D01*
X151758Y219710D01*
X151096Y220218D01*
X150326Y220537D01*
X150300Y220540D01*
D02*
G37*
G36*
X174300D02*
Y218253D01*
X176587D01*
X176584Y218279D01*
X176265Y219049D01*
X175758Y219710D01*
X175096Y220218D01*
X174326Y220537D01*
X174300Y220540D01*
D02*
G37*
G36*
X34700Y223929D02*
X34456Y223897D01*
X33483Y223494D01*
X32647Y222853D01*
X32006Y222017D01*
X31603Y221044D01*
X31571Y220800D01*
X34700D01*
Y223929D01*
D02*
G37*
G36*
X127587Y216653D02*
X124500D01*
X121413D01*
X121416Y216626D01*
X121735Y215856D01*
X122242Y215195D01*
X122482Y215012D01*
X122534Y214872D01*
X122502Y214240D01*
X121614Y213351D01*
X121614Y213351D01*
X121393Y213020D01*
X121315Y212630D01*
Y210465D01*
X121393Y210074D01*
X121614Y209744D01*
X122696Y208661D01*
X123027Y208440D01*
X123417Y208362D01*
X125583D01*
X125973Y208440D01*
X126304Y208661D01*
X127386Y209744D01*
X127386Y209744D01*
X127607Y210074D01*
X127685Y210465D01*
Y212630D01*
X127607Y213020D01*
X127386Y213351D01*
X126498Y214240D01*
X126466Y214872D01*
X126518Y215012D01*
X126758Y215195D01*
X127265Y215856D01*
X127584Y216626D01*
X127587Y216653D01*
D02*
G37*
G36*
X152587D02*
X149500D01*
X146413D01*
X146416Y216626D01*
X146735Y215856D01*
X147242Y215195D01*
X147482Y215012D01*
X147534Y214872D01*
X147502Y214240D01*
X146614Y213351D01*
X146614Y213351D01*
X146393Y213020D01*
X146315Y212630D01*
Y210465D01*
X146393Y210074D01*
X146614Y209744D01*
X147696Y208661D01*
X148027Y208440D01*
X148417Y208362D01*
X150583D01*
X150973Y208440D01*
X151304Y208661D01*
X152386Y209744D01*
X152386Y209744D01*
X152607Y210074D01*
X152685Y210465D01*
Y212630D01*
X152607Y213020D01*
X152386Y213351D01*
X151498Y214240D01*
X151466Y214872D01*
X151518Y215012D01*
X151758Y215195D01*
X152265Y215856D01*
X152584Y216626D01*
X152587Y216653D01*
D02*
G37*
G36*
X176587D02*
X173500D01*
X170413D01*
X170416Y216626D01*
X170735Y215856D01*
X171242Y215195D01*
X171482Y215012D01*
X171534Y214872D01*
X171502Y214240D01*
X170614Y213351D01*
X170614Y213351D01*
X170393Y213020D01*
X170315Y212630D01*
Y210465D01*
X170393Y210074D01*
X170614Y209744D01*
X171696Y208661D01*
X172027Y208440D01*
X172417Y208362D01*
X174583D01*
X174973Y208440D01*
X175304Y208661D01*
X176386Y209744D01*
X176386Y209744D01*
X176607Y210074D01*
X176685Y210465D01*
Y212630D01*
X176607Y213020D01*
X176386Y213351D01*
X175498Y214240D01*
X175466Y214872D01*
X175518Y215012D01*
X175758Y215195D01*
X176265Y215856D01*
X176584Y216626D01*
X176587Y216653D01*
D02*
G37*
G36*
X12468Y223988D02*
X8531D01*
X8141Y223910D01*
X7811Y223690D01*
X7589Y223359D01*
X7512Y222969D01*
Y219032D01*
X7589Y218641D01*
X7811Y218311D01*
X7906Y217504D01*
X7790Y217213D01*
X7608Y216775D01*
X7506Y216000D01*
X7608Y215225D01*
X7907Y214503D01*
X8383Y213883D01*
Y213117D01*
X7907Y212497D01*
X7608Y211775D01*
X7506Y211000D01*
X7608Y210225D01*
X7907Y209503D01*
X8383Y208883D01*
Y208117D01*
X7907Y207497D01*
X7608Y206775D01*
X7506Y206000D01*
X7608Y205225D01*
X7907Y204503D01*
X8383Y203883D01*
X9003Y203407D01*
X9725Y203108D01*
X10500Y203006D01*
X11275Y203108D01*
X11997Y203407D01*
X12617Y203883D01*
X13093Y204503D01*
X13392Y205225D01*
X13494Y206000D01*
X13392Y206775D01*
X13093Y207497D01*
X12617Y208117D01*
Y208883D01*
X13093Y209503D01*
X13392Y210225D01*
X13494Y211000D01*
X13392Y211775D01*
X13093Y212497D01*
X12617Y213117D01*
Y213883D01*
X13093Y214503D01*
X13392Y215225D01*
X13494Y216000D01*
X13392Y216775D01*
X13210Y217213D01*
X13094Y217504D01*
X13190Y218311D01*
X13410Y218641D01*
X13488Y219032D01*
Y222969D01*
X13410Y223359D01*
X13190Y223690D01*
X12859Y223910D01*
X12468Y223988D01*
D02*
G37*
G36*
X68087Y216653D02*
X65000D01*
X61913D01*
X61916Y216626D01*
X62235Y215856D01*
X62742Y215195D01*
X62982Y215012D01*
X63034Y214872D01*
X63002Y214240D01*
X62114Y213351D01*
X62114Y213351D01*
X61893Y213020D01*
X61815Y212630D01*
Y210465D01*
X61893Y210074D01*
X62114Y209744D01*
X63196Y208661D01*
X63527Y208440D01*
X63917Y208362D01*
X66083D01*
X66473Y208440D01*
X66804Y208661D01*
X67886Y209744D01*
X67886Y209744D01*
X68107Y210074D01*
X68185Y210465D01*
Y212630D01*
X68107Y213020D01*
X67886Y213351D01*
X66998Y214240D01*
X66966Y214872D01*
X67018Y215012D01*
X67258Y215195D01*
X67765Y215856D01*
X68084Y216626D01*
X68087Y216653D01*
D02*
G37*
G36*
X91587D02*
X88500D01*
X85413D01*
X85416Y216626D01*
X85735Y215856D01*
X86242Y215195D01*
X86482Y215012D01*
X86534Y214872D01*
X86502Y214240D01*
X85614Y213351D01*
X85614Y213351D01*
X85393Y213020D01*
X85315Y212630D01*
Y210465D01*
X85393Y210074D01*
X85614Y209744D01*
X86696Y208661D01*
X87027Y208440D01*
X87417Y208362D01*
X89583D01*
X89973Y208440D01*
X90304Y208661D01*
X91386Y209744D01*
X91386Y209744D01*
X91607Y210074D01*
X91685Y210465D01*
Y212630D01*
X91607Y213020D01*
X91386Y213351D01*
X90498Y214240D01*
X90466Y214872D01*
X90518Y215012D01*
X90758Y215195D01*
X91265Y215856D01*
X91584Y216626D01*
X91587Y216653D01*
D02*
G37*
G36*
X49429Y219200D02*
X46300D01*
Y216071D01*
X46544Y216103D01*
X47517Y216506D01*
X48353Y217147D01*
X48994Y217983D01*
X49397Y218956D01*
X49429Y219200D01*
D02*
G37*
G36*
X64200Y220540D02*
X64174Y220537D01*
X63404Y220218D01*
X62742Y219710D01*
X62235Y219049D01*
X61916Y218279D01*
X61913Y218253D01*
X64200D01*
Y220540D01*
D02*
G37*
G36*
X87700D02*
X87674Y220537D01*
X86904Y220218D01*
X86242Y219710D01*
X85735Y219049D01*
X85416Y218279D01*
X85413Y218253D01*
X87700D01*
Y220540D01*
D02*
G37*
G36*
X34700Y213929D02*
X34456Y213897D01*
X33483Y213494D01*
X32647Y212853D01*
X32006Y212017D01*
X31603Y211044D01*
X31571Y210800D01*
X34700D01*
Y213929D01*
D02*
G37*
G36*
X46300D02*
Y210800D01*
X49429D01*
X49397Y211044D01*
X48994Y212017D01*
X48353Y212853D01*
X47517Y213494D01*
X46544Y213897D01*
X46300Y213929D01*
D02*
G37*
G36*
X34700Y219200D02*
X31571D01*
X31603Y218956D01*
X32006Y217983D01*
X32647Y217147D01*
X33483Y216506D01*
X34456Y216103D01*
X34700Y216071D01*
Y219200D01*
D02*
G37*
%LPD*%
D10*
X52700Y62300D02*
G03*
X51572Y61200I-14J-1114D01*
G01*
D02*
G03*
X50700Y62100I-886J14D01*
G01*
X46500Y62128D02*
G03*
X45772Y61400I0J-728D01*
G01*
X45600D02*
G03*
X44300Y62100I-1000J-300D01*
G01*
X68100Y31300D02*
G03*
X68100Y33100I-900J900D01*
G01*
X69684Y31516D02*
G03*
X68100Y31300I-684J-900D01*
G01*
X127478Y53878D02*
G03*
X129500Y55300I300J1722D01*
G01*
X129500D02*
G03*
X130700Y53878I1311J-111D01*
G01*
X129500Y38300D02*
G03*
X128200Y37000I0J-1300D01*
G01*
Y36900D02*
G03*
X127000Y38300I-1300J100D01*
G01*
X104184Y60984D02*
G03*
X102600Y59700I-150J-1434D01*
G01*
D02*
G03*
X101400Y60900I-1200J0D01*
G01*
X94400Y56200D02*
G03*
X94300Y54400I850J-950D01*
G01*
D02*
G03*
X92344Y54144I-850J-1106D01*
G01*
X26323Y78677D02*
G03*
X25495Y77600I224J-1030D01*
G01*
X99850Y57750D02*
X101038Y56562D01*
X67100Y38544D02*
X67706Y39150D01*
X159953Y110231D02*
X160853Y109332D01*
X150932Y110231D02*
X154700D01*
X146365Y105665D02*
X150932Y110231D01*
X150000Y116800D02*
X154100Y120900D01*
X150000Y112440D02*
Y116800D01*
X153900Y124100D02*
X156100D01*
X148600Y118800D02*
X153900Y124100D01*
X148600Y113020D02*
Y118800D01*
X46735Y73700D02*
X48619Y71816D01*
X44500Y73700D02*
X46735D01*
X147500Y29100D02*
Y35394D01*
Y28700D02*
Y29100D01*
X88480Y91100D02*
X91200D01*
X81477Y84097D02*
X88480Y91100D01*
X132700Y19400D02*
X141800Y28500D01*
X144300Y47460D02*
X144400Y47360D01*
X144300Y47460D02*
X144370Y47530D01*
X135522Y53878D02*
X140200Y49200D01*
Y29600D02*
Y49200D01*
X131400Y20800D02*
X140200Y29600D01*
X122900Y19400D02*
X132700D01*
X125500Y18000D02*
X133780D01*
X141480Y25700D02*
X149500D01*
X133780Y18000D02*
X141480Y25700D01*
X108500Y15000D02*
X115700Y22200D01*
X123500Y16000D02*
X125500Y18000D01*
X118500Y15000D02*
X122900Y19400D01*
X119200Y20800D02*
X131400D01*
X114500Y16100D02*
X119200Y20800D01*
X115700Y22200D02*
X125700D01*
X127000Y23500D01*
X94300Y39444D02*
X94344D01*
X110700Y54000D02*
Y60853D01*
X109062Y52362D02*
X110700Y54000D01*
X70700Y17700D02*
X70800Y17800D01*
X41600Y17700D02*
X70700D01*
X22700Y35147D02*
Y37300D01*
X13100Y33200D02*
X20753D01*
X22700Y35147D01*
X19800Y40200D02*
X20900Y39100D01*
X22700Y37300D01*
X133500Y63100D02*
Y69900D01*
Y63100D02*
X135284Y61316D01*
X131246Y72953D02*
X134300Y69900D01*
X118954Y72953D02*
X131246D01*
X134700Y45800D02*
X137100Y43400D01*
X117100Y45800D02*
X134700D01*
X119000Y49700D02*
Y52700D01*
X118800Y52900D02*
X119000Y52700D01*
X104500Y30000D02*
X107200Y27300D01*
Y30800D01*
X85600Y65500D02*
X87400Y63700D01*
Y63156D02*
Y63700D01*
X83000Y62456D02*
Y65900D01*
Y62456D02*
X85500Y59956D01*
X83000Y65900D02*
Y69620D01*
X87400Y63156D02*
X90600Y59956D01*
X109100Y74800D02*
X110100Y73800D01*
Y65900D02*
Y73800D01*
Y65900D02*
X111100Y64900D01*
X155753Y77600D02*
X157900Y75453D01*
X142797Y77600D02*
X155753D01*
X142559Y107633D02*
X145193D01*
X142559Y109602D02*
X145182D01*
X148600Y113020D01*
X145193Y107633D02*
X150000Y112440D01*
X147200Y113600D02*
Y119400D01*
X145170Y111570D02*
X147200Y113600D01*
X142559Y111570D02*
X145170D01*
X147200Y119400D02*
X155900Y128100D01*
X156100Y124100D02*
X160000Y128000D01*
X62300Y82643D02*
X69442D01*
X70897Y84097D01*
X11300Y35000D02*
X13100Y33200D01*
X10500Y35000D02*
X11300D01*
X19900Y35100D02*
Y36100D01*
X18400Y37600D02*
X19900Y36100D01*
X18400Y37600D02*
Y64920D01*
X19800Y40200D02*
Y64340D01*
X22800Y31800D02*
X24700Y33700D01*
X18600Y31800D02*
X22800D01*
X16700Y29900D02*
X18600Y31800D01*
X24700Y33700D02*
Y40820D01*
X26100Y33347D02*
Y41400D01*
X21200Y44320D02*
X24700Y40820D01*
X22600Y44900D02*
X26100Y41400D01*
X31747Y27700D02*
X36700D01*
X26100Y33347D02*
X31747Y27700D01*
X10500Y40000D02*
X17000Y46500D01*
X10500Y45000D02*
X15400Y49900D01*
X25495Y75994D02*
Y78706D01*
X15400Y65900D02*
X25495Y75994D01*
X28294Y66895D02*
X34938D01*
X24000Y62600D02*
X28294Y66895D01*
X24000Y51500D02*
Y62600D01*
X28282Y68863D02*
X34938D01*
X22600Y63180D02*
X28282Y68863D01*
X22600Y44900D02*
Y63180D01*
X28271Y70832D02*
X34938D01*
X21200Y63760D02*
X28271Y70832D01*
X21200Y44320D02*
Y63760D01*
X28260Y72800D02*
X34938D01*
X19800Y64340D02*
X28260Y72800D01*
X28248Y74769D02*
X34938D01*
X18400Y64920D02*
X28248Y74769D01*
X28400Y76900D02*
X34901D01*
X17000Y65500D02*
X28400Y76900D01*
X17000Y46500D02*
Y65500D01*
X15400Y49900D02*
Y65900D01*
Y82500D02*
X16800Y81100D01*
X23100D01*
X25495Y78706D01*
X14900Y83000D02*
X15400Y82500D01*
Y83200D01*
X143177Y76000D02*
X146400D01*
X141500Y74323D02*
X143177Y76000D01*
X141500Y67700D02*
Y74323D01*
X139500Y74303D02*
X142797Y77600D01*
X139500Y67700D02*
Y74303D01*
X105040Y109900D02*
X111240Y103700D01*
X104660Y108300D02*
X109900Y103060D01*
X111240Y103700D02*
X119400D01*
X109900Y102960D02*
X110660Y102200D01*
X109900Y102960D02*
Y103060D01*
X104080Y106900D02*
X108500Y102480D01*
Y100600D02*
Y102480D01*
Y100600D02*
X109200Y99900D01*
X87600Y52100D02*
X94500D01*
X84444Y48944D02*
X87600Y52100D01*
X84444Y47200D02*
Y48944D01*
X74937Y68863D02*
X77500Y66300D01*
X89653Y87200D02*
X92300Y84553D01*
X86560Y87200D02*
X89653D01*
X82057Y82697D02*
X86560Y87200D01*
X80897Y85497D02*
X88800Y93400D01*
X88197Y81297D02*
X88500Y81600D01*
X71477Y82697D02*
X82057D01*
X70897Y84097D02*
X81477D01*
X59446Y85497D02*
X80897D01*
X80500Y88600D02*
X85700Y93800D01*
X58800Y88600D02*
X80500D01*
X78600Y90000D02*
X82400Y93800D01*
X57800Y90000D02*
X78600D01*
X89453Y79300D02*
X90800Y80647D01*
X72040Y79300D02*
X89453D01*
X97700Y54600D02*
Y55150D01*
X94500Y52100D02*
X97387Y49213D01*
X157900Y71900D02*
Y75453D01*
X155556Y69556D02*
X157900Y71900D01*
X154100Y69556D02*
X155556D01*
X152644Y65300D02*
X153900Y64044D01*
X147894Y65300D02*
X152644D01*
X94300Y49500D02*
X97200Y46600D01*
Y42300D02*
Y46600D01*
X94344Y39444D02*
X97200Y42300D01*
X93200Y49500D02*
X94300D01*
X97934Y50787D02*
X100380D01*
X97387Y49213D02*
X100380D01*
X99200Y46600D02*
X100238Y47638D01*
X99200Y35640D02*
Y46600D01*
Y35640D02*
X100340Y34500D01*
X106420Y47638D02*
X112638D01*
X125544Y29700D02*
X127000Y28244D01*
Y23500D02*
Y28244D01*
X125544Y29700D02*
Y31300D01*
X136488Y38300D02*
X137100Y38912D01*
X117100Y43800D02*
X131456D01*
X114600Y41300D02*
X117100Y43800D01*
X104100Y41300D02*
X114600D01*
X114000Y42700D02*
X117100Y45800D01*
X104800Y42700D02*
X114000D01*
X114700Y45400D02*
X119000Y49700D01*
X105762Y45400D02*
X114700D01*
X104956Y33044D02*
X107200Y30800D01*
X104956Y33044D02*
Y37644D01*
X146080Y37620D02*
X147758D01*
X144400Y39300D02*
X146080Y37620D01*
X144400Y39300D02*
Y47360D01*
X146600Y40747D02*
Y51404D01*
Y40747D02*
X147758Y39588D01*
X149100Y47400D02*
X149776Y46724D01*
X132700Y57500D02*
Y57900D01*
Y57500D02*
X133294Y56906D01*
X149776Y40622D02*
Y46724D01*
X149500Y25700D02*
X151800Y28000D01*
X149776Y29624D02*
Y34618D01*
Y29624D02*
X151200Y28200D01*
X155500Y33100D02*
Y33913D01*
Y33100D02*
X156300Y33900D01*
X147500Y35394D02*
X147758Y35651D01*
X146600Y51404D02*
X147476Y52280D01*
X150700Y52926D02*
Y53500D01*
X148696D02*
X150700D01*
X79953Y60400D02*
X80500D01*
X72100Y62500D02*
Y64400D01*
X69000Y24344D02*
X70200Y25544D01*
X63056Y23900D02*
X63500Y24344D01*
X69000D01*
X30474Y88800D02*
X34489D01*
X128189Y116098D02*
Y117611D01*
X79441Y42141D02*
X79740D01*
X61897Y37400D02*
X63300Y35997D01*
Y34200D02*
Y35997D01*
X62584Y33484D02*
X63300Y34200D01*
X48600Y37400D02*
X61897D01*
X63700Y37577D02*
X64900Y36377D01*
Y32800D02*
Y36377D01*
X63616Y31516D02*
X64900Y32800D01*
X70200Y25544D02*
X70344Y25400D01*
X69900Y25844D02*
X70200Y25544D01*
X70344Y25400D02*
X73744Y22000D01*
X80144D01*
X69900Y25844D02*
Y28800D01*
X70647Y29547D01*
X72102D01*
X86654Y22202D02*
X90067D01*
X87600Y31000D02*
Y36800D01*
X85500Y38900D02*
X87600Y36800D01*
X80400Y38900D02*
X85500D01*
X43800Y30280D02*
Y32600D01*
X41220Y27700D02*
X43800Y30280D01*
X128929Y61671D02*
X132700Y57900D01*
X135284Y61316D02*
X137100D01*
X131100Y63400D02*
X135153Y59347D01*
X131100Y63400D02*
Y64900D01*
X135153Y59347D02*
X137100D01*
X129839Y63639D02*
X131100Y64900D01*
X127963Y63639D02*
X129839D01*
X127963Y61671D02*
X128929D01*
X132040Y43784D02*
X132400Y44144D01*
X121420Y99700D02*
X123602D01*
X97547Y27713D02*
X101287D01*
X112638Y47638D02*
X112900Y47900D01*
X104187Y54600D02*
Y57687D01*
X127274Y66494D02*
Y69426D01*
X125200Y71500D02*
X127274Y69426D01*
X120000Y71500D02*
X125200D01*
X123337Y68137D02*
X124300Y69100D01*
X125305Y68094D01*
X115300Y66800D02*
X120000Y71500D01*
X117459Y76741D02*
X120360D01*
X113800Y67800D02*
X118954Y72953D01*
X118900Y66300D02*
X118903Y66297D01*
X115300Y59700D02*
Y66800D01*
Y59700D02*
X117955Y57045D01*
X121369D01*
X118887Y61671D02*
X120679D01*
X117817Y60600D02*
X118887Y61671D01*
X117817Y60600D02*
X118714Y59702D01*
X120679D01*
X115300Y63639D02*
X118739D01*
X118903Y66297D02*
X121369D01*
X125305D02*
Y68094D01*
X123337Y66297D02*
Y68137D01*
Y54663D02*
Y57045D01*
X101038Y41562D02*
Y45400D01*
Y41562D02*
X104956Y37644D01*
X93807Y27713D02*
Y28407D01*
X89987Y28613D02*
X90067D01*
X84385Y47259D02*
X84444Y47200D01*
X89856Y47100D02*
X89956Y47200D01*
X119000Y40556D02*
X119303Y40859D01*
X124560D01*
X83100Y36556D02*
X85700Y33956D01*
X77800Y36556D02*
X78056D01*
X80400Y38900D01*
X49100Y33056D02*
Y34700D01*
X49853Y35453D01*
X59898D01*
Y31516D02*
X63616D01*
X59898Y33484D02*
X62584D01*
X43800Y32600D02*
X48600Y37400D01*
X39900Y24400D02*
X48100Y32600D01*
X100238Y47638D02*
X100380D01*
X97700Y54600D02*
X99938Y52362D01*
X100577D01*
X49000Y27744D02*
X49200Y27544D01*
X149656Y71903D02*
Y72600D01*
X145453Y67700D02*
X149656Y71903D01*
Y72600D02*
Y72744D01*
X146400Y76000D02*
X149656Y72744D01*
X72050Y35400D02*
X72102Y35453D01*
X55000Y27600D02*
X57200Y25400D01*
X54100Y33256D02*
X54328Y33484D01*
X59898D01*
X54022Y27822D02*
X57716Y31516D01*
X59898D01*
X76697Y35453D02*
X77800Y36556D01*
X80028Y33484D02*
X83100Y36556D01*
X72102Y33484D02*
X80028D01*
X72102Y35453D02*
X76697D01*
X32100Y85480D02*
X34938Y82643D01*
X32100Y85480D02*
Y85500D01*
X123602Y99700D02*
X123661Y99759D01*
X47635Y85497D02*
Y88515D01*
X45666Y85497D02*
Y88526D01*
X43700Y85499D02*
Y88540D01*
X34901Y76700D02*
X34938Y76737D01*
X120628Y116572D02*
X123661Y113539D01*
X142559Y105665D02*
X146365D01*
X140000Y95400D02*
X140900Y94500D01*
X140000Y95400D02*
Y97200D01*
X143644Y94200D02*
X143844Y94000D01*
X132126Y116098D02*
Y119874D01*
X130157Y116098D02*
Y118543D01*
X134095Y92450D02*
Y97200D01*
X133100Y91456D02*
X134095Y92450D01*
X143844Y94000D02*
X144644Y94800D01*
X148747Y89059D02*
Y90259D01*
X147306Y91700D02*
X148747Y90259D01*
X131800Y120200D02*
X132126Y119874D01*
X138000Y97168D02*
X138031Y97200D01*
X124702Y116098D02*
X126221D01*
X128700Y120000D02*
X130157Y118543D01*
X148747Y89059D02*
X149337Y88468D01*
X139800Y91700D02*
X147306D01*
X136137Y86563D02*
X138400Y84300D01*
X144541Y88459D02*
X149659Y83341D01*
X34489Y88800D02*
X37792Y85497D01*
X134095Y116098D02*
Y121309D01*
X43698Y85497D02*
X43700Y85499D01*
X49603Y85497D02*
Y88503D01*
X51572Y85497D02*
Y88372D01*
X53540Y85497D02*
Y87740D01*
X55509Y85497D02*
Y87709D01*
X57477Y85497D02*
Y87277D01*
X41729Y56129D02*
Y58135D01*
X39761Y56141D02*
Y58135D01*
X43698Y55998D02*
Y58135D01*
X37200Y51600D02*
X41729Y56129D01*
X41559Y43559D02*
Y45246D01*
X36541Y37653D02*
Y38454D01*
Y38541D01*
X30700Y62700D02*
X30753D01*
X31010Y62958D01*
X34938D01*
X32389Y60989D02*
X34938D01*
X29874Y64926D02*
X34938D01*
X29800Y65000D02*
X29874Y64926D01*
X41729Y85497D02*
Y88571D01*
X31700Y60300D02*
X32389Y60989D01*
X31700Y60000D02*
Y60300D01*
X36956Y90544D02*
X39761Y87739D01*
Y85497D02*
Y87739D01*
X38300Y92000D02*
X41729Y88571D01*
X87600Y31000D02*
X89987Y28613D01*
X29200Y51000D02*
X31100Y49100D01*
X36800D01*
X43698Y55998D01*
X35300Y51600D02*
X37200D01*
X35200Y51700D02*
X35300Y51600D01*
X26200Y54000D02*
Y58200D01*
X30700Y62700D01*
X33100Y54700D02*
X38320D01*
X39761Y56141D01*
X36700Y27700D02*
X41220D01*
X36900Y24400D02*
X39900D01*
X36900Y22400D02*
Y24400D01*
X41500Y21600D02*
X42900Y20200D01*
X92200Y25000D02*
X93400Y23800D01*
Y22800D02*
Y23800D01*
X113200Y16100D02*
X114500D01*
X24000Y51500D02*
X28500Y47000D01*
Y33900D02*
Y47000D01*
X140900Y94200D02*
X143644D01*
X138000Y93500D02*
X139800Y91700D01*
X138000Y93500D02*
Y97168D01*
X136137Y86563D02*
Y97102D01*
X121372Y101727D02*
X123661D01*
X153850Y39500D02*
X155320D01*
X153762Y39588D02*
X153850Y39500D01*
X151744Y30956D02*
Y34618D01*
Y30956D02*
X151800Y30900D01*
X155320Y39500D02*
X158000Y36820D01*
X153762Y35651D02*
X155500Y33913D01*
X153762Y37620D02*
X155080D01*
X156300Y36400D01*
Y33900D02*
Y36400D01*
X123500Y15000D02*
Y16000D01*
X102613Y42787D02*
Y45400D01*
Y42787D02*
X104100Y41300D01*
X104187Y43313D02*
Y45400D01*
Y43313D02*
X104800Y42700D01*
X131156Y49200D02*
X131300Y49056D01*
X133294Y56906D02*
X139500D01*
X135288Y49056D02*
X135700Y48644D01*
X131756Y43500D02*
X132040Y43784D01*
X131456Y43800D02*
X131756Y43500D01*
X27800Y92000D02*
X38300D01*
X62300Y64926D02*
X68374D01*
X62300Y78706D02*
X69465D01*
X68374Y64926D02*
X69500Y63800D01*
X62300Y60989D02*
X63111D01*
X63700Y41100D02*
X63800Y41000D01*
X16185Y90000D02*
X17641Y88544D01*
X18900D01*
X14500Y87800D02*
X16500Y85800D01*
X53540Y87740D02*
X57200Y91400D01*
X55509Y87709D02*
X57800Y90000D01*
X57477Y87277D02*
X58800Y88600D01*
X57200Y91400D02*
X76260D01*
X56000Y92800D02*
X75680D01*
X55300Y94200D02*
X75100D01*
X43700Y88540D02*
X53560Y98400D01*
X45666Y88526D02*
X54140Y97000D01*
X47635Y88515D02*
X54720Y95600D01*
X74400D01*
X49603Y88503D02*
X55300Y94200D01*
X51572Y88372D02*
X56000Y92800D01*
X124000Y116800D02*
X124702Y116098D01*
X125600Y120200D02*
X128189Y117611D01*
X111700Y83256D02*
Y93500D01*
Y83256D02*
X114056Y80900D01*
X114100Y80100D02*
X117459Y76741D01*
X113800Y64000D02*
Y67800D01*
X123337Y54663D02*
X124000Y54000D01*
X106420Y52362D02*
X109062D01*
X106420Y50787D02*
X109487D01*
X111000Y52300D01*
X113900D01*
X106420Y49213D02*
X110113D01*
X110900Y50000D01*
X113900Y52300D02*
X114000Y52400D01*
X93807Y28407D02*
X95400Y30000D01*
X104500D01*
X98000Y120224D02*
X98032Y120256D01*
X16700Y29900D02*
Y30500D01*
X62300Y62958D02*
X65242D01*
X94200Y109880D02*
Y109880D01*
X94220Y109900D01*
X84240Y101900D02*
X93840Y111500D01*
X53560Y98400D02*
X73000D01*
X78000Y103400D01*
X54140Y97000D02*
X73800D01*
X78700Y101900D01*
X74400Y95600D02*
X79300Y100500D01*
X75100Y94200D02*
X80000Y99100D01*
X75680Y92800D02*
X80580Y97700D01*
X76260Y91400D02*
X81160Y96300D01*
X78000Y103400D02*
X83700D01*
X78700Y101900D02*
X84240D01*
X79300Y100500D02*
X84820D01*
X94200Y109880D01*
X80000Y99100D02*
X85400D01*
X80580Y97700D02*
X85980D01*
X81160Y96300D02*
X86560D01*
X90900Y90300D02*
X91200Y90600D01*
Y91100D01*
X92300Y80200D02*
Y84553D01*
X90900Y80780D02*
Y82800D01*
X90800Y80647D02*
Y80680D01*
X90900Y80780D01*
X90000Y77900D02*
X90033D01*
X92200Y80067D01*
Y80100D01*
X92300Y80200D01*
X88750Y84950D02*
X90900Y82800D01*
X89000Y76900D02*
X90000Y77900D01*
X82400Y93800D02*
X83300D01*
X88700Y93500D02*
X88800Y93400D01*
X83700Y103400D02*
X93200Y112900D01*
X132103Y123300D02*
X134095Y121309D01*
X125956Y123300D02*
X132103D01*
X124056Y125200D02*
X125956Y123300D01*
X118920Y102200D02*
X121420Y99700D01*
X119400Y103700D02*
X121372Y101727D01*
X98500Y116100D02*
X101300D01*
X98000Y116600D02*
X98500Y116100D01*
X123597Y105600D02*
X123661Y105665D01*
X110660Y102200D02*
X118920D01*
X109200Y99900D02*
Y100200D01*
X112598Y109602D02*
X123661D01*
X110600Y111600D02*
X112598Y109602D01*
X107700Y114500D02*
X110600Y111600D01*
X107700Y114500D02*
Y122744D01*
X105744Y124700D02*
X107700Y122744D01*
X138031Y116098D02*
Y125232D01*
X140900Y128100D01*
X140000Y116098D02*
Y122200D01*
X145900Y128100D01*
X142559Y113539D02*
Y119759D01*
X150900Y128100D01*
X25495Y78706D02*
X34938D01*
X25900Y85800D02*
X31026Y80674D01*
X34938D01*
X28954Y87279D02*
X30474Y88800D01*
X62300Y68863D02*
X74937D01*
X43300Y13300D02*
X71200D01*
X34500Y22100D02*
X43300Y13300D01*
X67000Y10000D02*
X72000D01*
X105762Y54600D02*
Y55762D01*
X108500Y58500D01*
X101038Y54600D02*
Y56562D01*
X102613Y54600D02*
Y60797D01*
X104187Y57687D02*
X105200Y58700D01*
X110676Y60876D02*
X110700Y60853D01*
X110676Y60876D02*
Y60876D01*
X113800Y64000D01*
X151800Y28000D02*
Y28200D01*
X151200D02*
X151800D01*
X158000Y31100D02*
Y36820D01*
X151800Y28200D02*
X155100D01*
X158000Y31100D01*
X28500Y33900D02*
X32200Y30200D01*
X76800Y77800D02*
X85600Y69000D01*
Y65500D02*
Y69000D01*
X76320Y76300D02*
X83000Y69620D01*
X72520Y77800D02*
X76800D01*
X73000Y76300D02*
X76320D01*
X72057Y81297D02*
X88197D01*
X69499Y72800D02*
X73000Y76300D01*
X69488Y74769D02*
X72520Y77800D01*
X69477Y76737D02*
X72040Y79300D01*
X62300Y76737D02*
X69477D01*
X62300Y74769D02*
X69488D01*
X62300Y72800D02*
X69499D01*
X62300Y80674D02*
X69454D01*
X71477Y82697D01*
X69465Y78706D02*
X72057Y81297D01*
X110900Y50000D02*
X114300D01*
X115100Y49200D01*
X16500Y85800D02*
X25900D01*
X16447Y92000D02*
X27800D01*
X26600Y90544D02*
X36956D01*
X25100Y89044D02*
X26600Y90544D01*
X73458Y66895D02*
X79953Y60400D01*
X62300Y66895D02*
X73458D01*
X65242Y62958D02*
X67300Y60900D01*
X70500D01*
X72100Y62500D01*
X63111Y60989D02*
X64600Y59500D01*
X72600D01*
X75100Y62000D01*
X106500Y98700D02*
X111700Y93500D01*
X106500Y98700D02*
Y102500D01*
X111320Y105600D02*
X123597D01*
X111266Y107633D02*
X123661D01*
X106000Y112900D02*
X111266Y107633D01*
X105420Y111500D02*
X111320Y105600D01*
X94220Y109900D02*
X105040D01*
X93840Y111500D02*
X105420D01*
X93200Y112900D02*
X106000D01*
X86560Y96300D02*
X95760Y105500D01*
X103500D01*
X106500Y102500D01*
X95180Y106900D02*
X104080D01*
X94600Y108300D02*
X104660D01*
X85980Y97700D02*
X95180Y106900D01*
X85400Y99100D02*
X94600Y108300D01*
X86200Y25000D02*
X92200D01*
X85700D02*
Y33956D01*
X72000Y10000D02*
X79600Y17600D01*
X79900D01*
X36900Y22400D02*
X41600Y17700D01*
X42900Y20200D02*
X74900D01*
D11*
X165219Y145617D02*
D03*
X71125Y194706D02*
D03*
D12*
X61085Y147391D02*
D03*
X175259Y192932D02*
D03*
D13*
X72699Y149947D02*
D03*
X155376D02*
D03*
X80968Y190376D02*
D03*
X163645D02*
D03*
D14*
X33637Y202937D02*
D03*
X25763D02*
D03*
Y195063D02*
D03*
D15*
X33637Y195850D02*
D03*
D16*
X175300Y203856D02*
D03*
Y198344D02*
D03*
X61000Y136444D02*
D03*
Y141956D02*
D03*
X90600Y59956D02*
D03*
Y54444D02*
D03*
X85500Y59956D02*
D03*
Y54444D02*
D03*
X152720Y45194D02*
D03*
Y50706D02*
D03*
X157140Y45204D02*
D03*
Y50716D02*
D03*
X77800Y36256D02*
D03*
Y30744D02*
D03*
X25800Y113344D02*
D03*
Y118856D02*
D03*
X20600Y113344D02*
D03*
Y118856D02*
D03*
X19500Y88944D02*
D03*
Y94456D02*
D03*
X58900Y112456D02*
D03*
Y106944D02*
D03*
X63700Y112456D02*
D03*
Y106944D02*
D03*
X77300Y114756D02*
D03*
Y109244D02*
D03*
X67100Y44056D02*
D03*
Y38544D02*
D03*
X123500Y91556D02*
D03*
Y86044D02*
D03*
X153900Y69556D02*
D03*
Y64044D02*
D03*
X92500Y120044D02*
D03*
Y125556D02*
D03*
X133100Y91456D02*
D03*
Y85944D02*
D03*
X128400Y91556D02*
D03*
Y86044D02*
D03*
X117600Y91456D02*
D03*
Y85944D02*
D03*
X133300Y76744D02*
D03*
Y82256D02*
D03*
X107200Y20544D02*
D03*
Y26056D02*
D03*
X54100Y27644D02*
D03*
Y33156D02*
D03*
X72300Y56156D02*
D03*
Y50644D02*
D03*
X60900Y154744D02*
D03*
Y160256D02*
D03*
X137300Y38812D02*
D03*
Y33300D02*
D03*
X131300Y49056D02*
D03*
Y43544D02*
D03*
X117800Y34144D02*
D03*
Y39656D02*
D03*
X94300Y44956D02*
D03*
Y39444D02*
D03*
X135700Y54056D02*
D03*
Y48544D02*
D03*
X82800Y36256D02*
D03*
Y30744D02*
D03*
X25100Y94556D02*
D03*
Y89044D02*
D03*
X48800Y27644D02*
D03*
Y33156D02*
D03*
D17*
X142559Y99759D02*
D03*
Y101727D02*
D03*
Y103696D02*
D03*
Y105665D02*
D03*
Y107633D02*
D03*
Y109602D02*
D03*
Y111570D02*
D03*
Y113539D02*
D03*
X123661D02*
D03*
Y111570D02*
D03*
Y109602D02*
D03*
Y107633D02*
D03*
Y105665D02*
D03*
Y103696D02*
D03*
Y101727D02*
D03*
Y99759D02*
D03*
D18*
X140000Y116098D02*
D03*
X138031D02*
D03*
X136063D02*
D03*
X134095D02*
D03*
X132126D02*
D03*
X130157D02*
D03*
X128189D02*
D03*
X126221D02*
D03*
Y97200D02*
D03*
X128189D02*
D03*
X130157D02*
D03*
X132126D02*
D03*
X134095D02*
D03*
X136063D02*
D03*
X138031D02*
D03*
X140000D02*
D03*
D19*
X133110Y106649D02*
D03*
D20*
X48619Y71816D02*
D03*
D21*
X59446Y58135D02*
D03*
X57477D02*
D03*
X55509D02*
D03*
X53540D02*
D03*
X51572D02*
D03*
X49603D02*
D03*
X47635D02*
D03*
X45666D02*
D03*
X43698D02*
D03*
X41729D02*
D03*
X39761D02*
D03*
X37792D02*
D03*
Y85497D02*
D03*
X39761D02*
D03*
X41729D02*
D03*
X43698D02*
D03*
X45666D02*
D03*
X47635D02*
D03*
X49603D02*
D03*
X51572D02*
D03*
X53540D02*
D03*
X55509D02*
D03*
X57477D02*
D03*
X59446D02*
D03*
D22*
X34938Y60989D02*
D03*
Y62958D02*
D03*
Y64926D02*
D03*
Y66895D02*
D03*
Y68863D02*
D03*
Y70832D02*
D03*
Y72800D02*
D03*
Y74769D02*
D03*
Y76737D02*
D03*
Y78706D02*
D03*
Y80674D02*
D03*
Y82643D02*
D03*
X62300D02*
D03*
Y80674D02*
D03*
Y78706D02*
D03*
Y76737D02*
D03*
Y74769D02*
D03*
Y72800D02*
D03*
Y70832D02*
D03*
Y68863D02*
D03*
Y66895D02*
D03*
Y64926D02*
D03*
Y62958D02*
D03*
Y60989D02*
D03*
D23*
X198700Y85256D02*
D03*
Y93917D02*
D03*
Y97500D02*
D03*
D24*
X127140Y81659D02*
D03*
X119660D02*
D03*
Y79100D02*
D03*
Y76541D02*
D03*
X127140D02*
D03*
Y79100D02*
D03*
X39660Y160441D02*
D03*
Y165559D02*
D03*
X47140D02*
D03*
Y163000D02*
D03*
Y160441D02*
D03*
X124560Y35741D02*
D03*
X132040D02*
D03*
Y38300D02*
D03*
Y40859D02*
D03*
X124560D02*
D03*
Y38300D02*
D03*
X72260Y42141D02*
D03*
X79740D02*
D03*
Y44700D02*
D03*
Y47259D02*
D03*
X72260D02*
D03*
Y44700D02*
D03*
D25*
X153762Y37620D02*
D03*
Y35651D02*
D03*
Y39588D02*
D03*
X147758D02*
D03*
Y35651D02*
D03*
Y37620D02*
D03*
D26*
X151744Y40622D02*
D03*
X149776D02*
D03*
Y34618D02*
D03*
X151744D02*
D03*
D27*
X70344Y25400D02*
D03*
X75856D02*
D03*
X63056Y23900D02*
D03*
X57544D02*
D03*
X22244Y109300D02*
D03*
X27756D02*
D03*
X47144Y117800D02*
D03*
X52656D02*
D03*
X52756Y112700D02*
D03*
X47244D02*
D03*
X52756Y108400D02*
D03*
X47244D02*
D03*
X55744Y117700D02*
D03*
X61256D02*
D03*
X66744Y102800D02*
D03*
X72256D02*
D03*
X88256Y112600D02*
D03*
X82744D02*
D03*
X88356Y117300D02*
D03*
X82844D02*
D03*
X149656Y72600D02*
D03*
X144144D02*
D03*
X165944Y160000D02*
D03*
X171456D02*
D03*
X66644Y181300D02*
D03*
X72156D02*
D03*
X115024Y122000D02*
D03*
X120536D02*
D03*
X111256Y124700D02*
D03*
X105744D02*
D03*
X104944Y116300D02*
D03*
X110456D02*
D03*
X120356Y116100D02*
D03*
X114844D02*
D03*
X118444Y126800D02*
D03*
X123956D02*
D03*
X133456Y126300D02*
D03*
X127944D02*
D03*
X114256Y85900D02*
D03*
X108744D02*
D03*
X141964Y52280D02*
D03*
X147476D02*
D03*
X113656Y36000D02*
D03*
X108144D02*
D03*
X84344Y47400D02*
D03*
X89856D02*
D03*
X84344Y42400D02*
D03*
X89856D02*
D03*
X171256Y166100D02*
D03*
X165744D02*
D03*
X66644Y176200D02*
D03*
X72156D02*
D03*
X145044Y94600D02*
D03*
X150556D02*
D03*
X85656Y21600D02*
D03*
X80144D02*
D03*
X125444Y30500D02*
D03*
X130956D02*
D03*
X124244Y25500D02*
D03*
X129756D02*
D03*
X122244Y48900D02*
D03*
X127756D02*
D03*
X98000Y116600D02*
D03*
X92488D02*
D03*
X108744Y80900D02*
D03*
X114256D02*
D03*
X64256Y53500D02*
D03*
X58744D02*
D03*
D28*
X59121Y46500D02*
D03*
X49279D02*
D03*
D29*
X36541Y44346D02*
D03*
X41659Y37653D02*
D03*
X36541D02*
D03*
X41659Y44346D02*
D03*
D30*
X40600Y199432D02*
D03*
Y203368D02*
D03*
X29200Y164969D02*
D03*
Y161031D02*
D03*
X38800Y192631D02*
D03*
Y196569D02*
D03*
X42300Y192631D02*
D03*
Y196569D02*
D03*
X153900Y94832D02*
D03*
Y98769D02*
D03*
X167900Y103832D02*
D03*
Y107768D02*
D03*
X154700Y110231D02*
D03*
Y114169D02*
D03*
Y120668D02*
D03*
Y116732D02*
D03*
X138900Y87868D02*
D03*
Y83931D02*
D03*
X153900Y102631D02*
D03*
Y106569D02*
D03*
X193400Y100432D02*
D03*
Y104368D02*
D03*
X163900Y97768D02*
D03*
Y93831D02*
D03*
X156500Y87868D02*
D03*
Y83931D02*
D03*
X31000Y43569D02*
D03*
Y39632D02*
D03*
D31*
X43632Y176400D02*
D03*
X47569D02*
D03*
X43632Y172200D02*
D03*
X47569D02*
D03*
X47569Y168900D02*
D03*
X43632D02*
D03*
X40069D02*
D03*
X36132D02*
D03*
X32131Y165000D02*
D03*
X36068D02*
D03*
X29131Y168900D02*
D03*
X33068D02*
D03*
X33332Y176400D02*
D03*
X37268D02*
D03*
X43632Y203400D02*
D03*
X47569D02*
D03*
X189232Y97500D02*
D03*
X193168D02*
D03*
X160869Y102800D02*
D03*
X156931D02*
D03*
X156931Y98800D02*
D03*
X160869D02*
D03*
X167868Y100800D02*
D03*
X163932D02*
D03*
X146432Y98800D02*
D03*
X150368D02*
D03*
X146432Y102800D02*
D03*
X150368D02*
D03*
X171869Y97300D02*
D03*
X167931D02*
D03*
X52668Y40600D02*
D03*
X48731D02*
D03*
X59668D02*
D03*
X55731D02*
D03*
X37031Y31800D02*
D03*
X40968D02*
D03*
D32*
X32741Y180565D02*
D03*
X37859D02*
D03*
X35300Y188635D02*
D03*
X42341Y180565D02*
D03*
X47459D02*
D03*
X44900Y188635D02*
D03*
D33*
X42443Y116347D02*
D03*
X32757D02*
D03*
Y109653D02*
D03*
X42443D02*
D03*
D34*
X72759Y107560D02*
D03*
X67641D02*
D03*
Y115040D02*
D03*
X70200D02*
D03*
X72759D02*
D03*
D35*
X105762Y45400D02*
D03*
X104187D02*
D03*
X102613D02*
D03*
X101038D02*
D03*
Y54600D02*
D03*
X102613D02*
D03*
X104187D02*
D03*
X105762D02*
D03*
D36*
X100380Y47638D02*
D03*
Y49213D02*
D03*
Y50787D02*
D03*
X106420Y52362D02*
D03*
Y50787D02*
D03*
Y49213D02*
D03*
X106420Y47638D02*
D03*
D37*
X100577Y52362D02*
D03*
D38*
X90067Y22202D02*
D03*
X93807D02*
D03*
X97547D02*
D03*
X101287D02*
D03*
Y27713D02*
D03*
X97547D02*
D03*
X93807D02*
D03*
D39*
X90067D02*
D03*
D40*
X127963Y63639D02*
D03*
Y61671D02*
D03*
Y59702D02*
D03*
X120679D02*
D03*
Y61671D02*
D03*
Y63639D02*
D03*
D41*
X127274Y57045D02*
D03*
X125305D02*
D03*
X123337D02*
D03*
X121369D02*
D03*
Y66297D02*
D03*
X123337D02*
D03*
X125305D02*
D03*
D42*
X127274Y66494D02*
D03*
D43*
X59898Y35453D02*
D03*
Y33484D02*
D03*
Y31516D02*
D03*
Y29547D02*
D03*
X72102Y35453D02*
D03*
Y33484D02*
D03*
Y31516D02*
D03*
Y29547D02*
D03*
D44*
X98032Y120256D02*
D03*
X101969D02*
D03*
X100000Y124744D02*
D03*
D45*
X137100Y59347D02*
D03*
Y61316D02*
D03*
Y63300D02*
D03*
Y65300D02*
D03*
X147894D02*
D03*
Y63300D02*
D03*
Y61316D02*
D03*
Y59347D02*
D03*
D46*
X139500Y67700D02*
D03*
X141500D02*
D03*
X143484D02*
D03*
X145453D02*
D03*
Y56906D02*
D03*
X143484D02*
D03*
X141500D02*
D03*
X139500D02*
D03*
D47*
X111960Y29600D02*
D03*
X119440D02*
D03*
D48*
X160800Y119721D02*
D03*
Y109879D02*
D03*
D49*
X174696Y97300D02*
D03*
D50*
X185523D02*
D03*
D51*
X180405Y93068D02*
D03*
Y101532D02*
D03*
D52*
X143853Y83341D02*
D03*
X150547Y88459D02*
D03*
Y83341D02*
D03*
X143853Y88459D02*
D03*
D53*
X92860Y34500D02*
D03*
X100340D02*
D03*
D54*
X113544Y24500D02*
D03*
X119056D02*
D03*
D55*
X25763Y175163D02*
Y202937D01*
X51300Y150600D02*
Y163400D01*
X49141Y165559D02*
X51300Y163400D01*
X47140Y165559D02*
X49141D01*
X19690Y169090D02*
X25763Y175163D01*
X19690Y134410D02*
Y169090D01*
X46300Y145600D02*
X51300Y150600D01*
X36800Y145600D02*
X46300D01*
X19690Y134410D02*
X19800Y134300D01*
X122444Y50100D02*
X123700D01*
X141800Y52668D02*
X142832D01*
X141800Y28500D02*
Y52668D01*
X79540Y42341D02*
X79749Y42331D01*
X112444Y23400D02*
X113544Y24500D01*
X102486Y23400D02*
X112444D01*
X101287Y22202D02*
X102486Y23400D01*
X156374Y79100D02*
X159400Y76074D01*
X142176Y79100D02*
X156374D01*
X137100Y65300D02*
Y74024D01*
X142176Y79100D01*
X94000Y85521D02*
Y95600D01*
X159400Y63656D02*
Y76074D01*
X152650Y56906D02*
X159400Y63656D01*
X145453Y56906D02*
X152650D01*
X93561Y55161D02*
X97934Y50787D01*
X117000Y27300D02*
X119300Y29600D01*
X119440D01*
X111600Y30900D02*
Y31700D01*
X108144Y35156D02*
Y36000D01*
X111600Y30900D02*
X111960Y30540D01*
Y29600D02*
Y30540D01*
X128200Y38300D02*
X132040D01*
X124560D02*
X128200D01*
Y33800D02*
Y38300D01*
X119000Y38800D02*
X121100Y36700D01*
Y34700D02*
Y36700D01*
Y34700D02*
X124500Y31300D01*
X119000Y38800D02*
Y40556D01*
X124500Y31300D02*
X125544D01*
X135700Y48544D02*
X135902D01*
X137100Y38912D02*
X137112D01*
X129500Y53878D02*
X135522D01*
X127478D02*
X129500D01*
Y58165D01*
X127963Y59702D02*
X129500Y58165D01*
X123700Y50100D02*
X127478Y53878D01*
X73856Y50644D02*
X76200Y48300D01*
Y45400D02*
Y48300D01*
Y45400D02*
X76800Y44800D01*
Y44700D02*
Y44800D01*
X77600Y50400D02*
X81400Y54200D01*
X122844Y24500D02*
X124244Y25900D01*
X119056Y24500D02*
X122844D01*
X67944Y37700D02*
X68100Y37544D01*
X94000Y95600D02*
X95600Y97200D01*
X101500Y82200D02*
X101940Y81760D01*
X68100Y33100D02*
Y37544D01*
X124200Y74500D02*
X126441Y76741D01*
X133297D02*
X133300Y76744D01*
X126441Y76741D02*
X133297D01*
X118739Y63639D02*
X120679D01*
X69000Y32200D02*
X69684Y31516D01*
X68100Y33100D02*
X69000Y32200D01*
X66347Y29547D02*
X69000Y32200D01*
X59898Y29547D02*
X66347D01*
X69684Y31516D02*
X72102D01*
X48331Y45753D02*
X49279Y46700D01*
X48331Y40800D02*
Y45753D01*
X59121Y46700D02*
X59668Y46153D01*
Y40700D02*
Y46153D01*
X53540Y52040D02*
Y58135D01*
X50400Y48900D02*
X53540Y52040D01*
X49200Y48900D02*
X50400D01*
X59121Y46700D02*
Y48179D01*
X55509Y51791D02*
X59121Y48179D01*
X55509Y51791D02*
Y58135D01*
X47635Y56576D02*
Y58135D01*
X37200Y46141D02*
X47635Y56576D01*
X36441Y46141D02*
X37200D01*
X49603Y55003D02*
Y58135D01*
X45300Y50700D02*
X49603Y55003D01*
X45300Y41295D02*
Y50700D01*
X41659Y37653D02*
X45300Y41295D01*
X72102Y31516D02*
X77744D01*
X133100Y81600D02*
Y85944D01*
X130400Y78900D02*
X133100Y81600D01*
X120360Y78900D02*
X130400D01*
X57477Y55323D02*
X59900Y52900D01*
X57477Y55323D02*
Y58135D01*
X29032Y168800D02*
X29131Y168900D01*
X141500Y54000D02*
Y56906D01*
Y54000D02*
X142832Y52668D01*
X148800Y9600D02*
X151200D01*
X153868Y94800D02*
X153900Y94832D01*
X143484Y67700D02*
Y71753D01*
X145453Y55121D02*
Y56906D01*
X143000Y52668D02*
X145453Y55121D01*
X133000Y86044D02*
X133100Y85944D01*
X128400Y86044D02*
X133000D01*
X36441Y45246D02*
Y46141D01*
X31000Y43468D02*
X34663D01*
X36441Y45246D01*
X31000Y39531D02*
X35463D01*
X36541Y38441D02*
X41559Y43459D01*
X35463Y39531D02*
X36541Y38454D01*
X40968Y32800D02*
Y37653D01*
X34635Y58135D02*
X37792D01*
X34400Y57900D02*
X34635Y58135D01*
X88700Y14800D02*
X93500Y10000D01*
X82800Y19200D02*
Y30744D01*
Y19200D02*
X87200Y14800D01*
X88700D01*
X93500Y10000D02*
X103500D01*
X106800Y6700D01*
X110800D01*
X113500Y9400D01*
Y10000D01*
X118500D01*
X123500D01*
X163932Y97800D02*
Y100800D01*
X128800Y91800D02*
X132126Y95126D01*
Y97200D01*
X153762Y39588D02*
Y44800D01*
X151744Y40622D02*
Y45018D01*
X18900Y88544D02*
X24500D01*
X73843Y108644D02*
X77700D01*
X72759Y107560D02*
X73843Y108644D01*
X73643Y114156D02*
X81188D01*
X72759Y115040D02*
X73643Y114156D01*
X56100Y107500D02*
X56656Y106944D01*
X58900D01*
X63700Y37718D02*
Y41100D01*
Y52644D01*
X47244Y108800D02*
X50844Y105200D01*
X54100D01*
X59400Y99900D01*
X69456D01*
X72256Y102700D01*
X101940Y81760D02*
X103040D01*
X107600Y77200D01*
X113900D01*
X116600Y74500D01*
X124200D01*
X121369Y48900D02*
Y57045D01*
X162500Y166100D02*
X165744D01*
X158600Y9600D02*
X161000Y12000D01*
X151200Y9600D02*
Y14000D01*
Y9600D02*
X158600D01*
X146100Y12300D02*
X148800Y9600D01*
X146100Y12300D02*
Y14100D01*
X161000Y12000D02*
Y14000D01*
X36541Y37653D02*
X37031Y37163D01*
Y31700D02*
Y37163D01*
X45666Y58135D02*
Y68863D01*
X48619Y71816D01*
X51572Y58135D02*
Y68863D01*
X48619Y71816D02*
X51572Y68863D01*
X160400Y168200D02*
X162500Y166100D01*
X95600Y97200D02*
X97200D01*
Y82200D02*
Y82321D01*
X94000Y85521D02*
X97200Y82321D01*
X81188Y114156D02*
X82744Y112600D01*
Y117200D02*
X82844Y117300D01*
X100000Y124744D02*
X100044Y124700D01*
X92500Y125556D02*
X99188D01*
X100000Y124744D01*
X136063Y116098D02*
Y123693D01*
X133456Y126300D02*
X136063Y123693D01*
X116830Y111570D02*
X123661D01*
X116300Y112100D02*
X116830Y111570D01*
X100044Y124700D02*
X105744D01*
X160900Y127200D02*
Y128100D01*
X123900Y86044D02*
X128400D01*
X8600Y133900D02*
X9700Y135000D01*
X8600Y103600D02*
Y133900D01*
Y103600D02*
X11600Y100600D01*
X4800Y101385D02*
X16185Y90000D01*
X4800Y101385D02*
Y144300D01*
X10500Y150000D01*
X6400Y140900D02*
X10500Y145000D01*
X6400Y102048D02*
Y140900D01*
X81400Y54200D02*
X90200D01*
X63700Y52644D02*
X64356Y53300D01*
X62300Y70832D02*
X72031D01*
X74700Y73500D01*
X6400Y102048D02*
X16447Y92000D01*
X24500Y88544D02*
X24600Y88444D01*
D56*
X76450Y39150D02*
X79441Y42141D01*
X67706Y39150D02*
X76450D01*
X118444Y126800D02*
Y127944D01*
X120600Y130100D01*
X118444Y125300D02*
Y126800D01*
X120600Y130100D02*
X126300D01*
X118444Y125300D02*
X120536Y123208D01*
X129500Y131900D02*
X133456Y127944D01*
X111756Y125756D02*
X117900Y131900D01*
X129500D01*
X126300Y130100D02*
X127944Y128456D01*
Y126300D02*
Y128456D01*
X133456Y126300D02*
Y127944D01*
X111756Y124700D02*
Y125756D01*
X154700Y110231D02*
X159953D01*
X43700Y120800D02*
X49100D01*
X12500Y131800D02*
X16800Y127500D01*
X12500Y131800D02*
Y138000D01*
X10500Y140000D02*
X12500Y138000D01*
X130956Y30500D02*
X132040Y31584D01*
Y35741D01*
X92860Y34500D02*
X94300Y35940D01*
Y39444D01*
X92344Y54144D02*
X99184Y60984D01*
X92344Y54144D02*
X92344Y54144D01*
X99184Y60984D02*
X104184D01*
X83885Y42141D02*
X84344Y42600D01*
X79740Y42141D02*
X83885D01*
X52668Y40600D02*
X55731D01*
X52668D02*
X54500Y42432D01*
Y42500D01*
X119440Y29600D02*
Y32504D01*
X117800Y34144D02*
X119440Y32504D01*
X115944Y36000D02*
X117800Y34144D01*
X113656Y36000D02*
X115944D01*
X111960Y29600D02*
X113544Y28016D01*
Y24500D02*
Y28016D01*
X93164Y14900D02*
X103500D01*
X90067Y17998D02*
X93164Y14900D01*
X103500Y15000D02*
Y16844D01*
X107200Y20544D01*
X115600Y98700D02*
X117600Y96700D01*
Y91456D02*
Y96700D01*
X88556Y113800D02*
Y117456D01*
X90000Y118900D02*
X92488Y116412D01*
X93900Y18800D02*
X95900D01*
X97547Y20447D01*
Y22202D01*
X92100Y45131D02*
X92400D01*
X91825D02*
X92100D01*
X90067Y17998D02*
Y22202D01*
X89856Y43161D02*
X91825Y45131D01*
X89856Y41800D02*
Y43161D01*
Y47100D02*
X91825Y45131D01*
X92500Y57100D02*
X98400Y63000D01*
X73244Y57100D02*
X92500D01*
X155600Y74500D02*
X155700D01*
X151556D02*
X155600D01*
X149656Y72600D02*
X151556Y74500D01*
X108144Y35156D02*
X111600Y31700D01*
X129756Y29300D02*
X130956Y30500D01*
X129756Y25500D02*
Y29300D01*
X132040Y38300D02*
X136488D01*
X127256Y49200D02*
X131156D01*
X132744Y50500D02*
X134400D01*
X131300Y49056D02*
X132744Y50500D01*
X150700Y52926D02*
X152920Y50706D01*
X147476Y52280D02*
X148696Y53500D01*
X106700Y83856D02*
X108744Y85900D01*
X106700Y83400D02*
Y83856D01*
X49100Y120800D02*
X49900Y120000D01*
Y115200D02*
Y120000D01*
Y115200D02*
X51900Y113200D01*
X52756D01*
X64400Y118600D02*
X64900Y119100D01*
X68800D01*
X70200Y117700D01*
Y115040D02*
Y117700D01*
X68500Y47200D02*
Y52356D01*
Y45456D02*
Y47200D01*
X68559Y47259D01*
X67100Y44056D02*
X68500Y45456D01*
Y52356D02*
X72300Y56156D01*
X73244Y57100D01*
X76800Y44700D02*
X79740D01*
X72260D02*
X76800D01*
X78400Y31344D02*
X82800D01*
X79740Y47259D02*
X84385D01*
X49000Y27744D02*
X54100D01*
X118244Y91556D02*
X122900D01*
X123500D02*
X128400D01*
X122900D02*
X123500D01*
X118800Y85444D02*
X118900Y85544D01*
X150547Y83941D02*
X151137Y84531D01*
Y83931D02*
X155400D01*
X128556Y91556D02*
X128800Y91800D01*
X128400Y91556D02*
X128556D01*
X17300Y95656D02*
Y101800D01*
X103500Y15000D02*
X108500Y10000D01*
X122900Y91556D02*
X123400Y92056D01*
X152920Y45194D02*
X157630D01*
X152930Y50716D02*
X157640D01*
X132040Y35741D02*
X134759D01*
X137100Y33400D01*
X132040Y40859D02*
Y43784D01*
X20600Y118544D02*
X25800Y113344D01*
X17300Y95656D02*
X18900Y94056D01*
X19500Y110500D02*
X20700Y109300D01*
X22244D01*
X19500Y110500D02*
Y112244D01*
X20600Y113344D01*
X28109Y109653D02*
X32757D01*
X27756Y109300D02*
X28109Y109653D01*
X30248Y118856D02*
X32757Y116347D01*
X25800Y118856D02*
X30248D01*
X61156Y112600D02*
Y116500D01*
Y112600D02*
X61300Y112456D01*
X58900D02*
X61300D01*
X63700D01*
X58900Y106944D02*
X63700D01*
X66284Y115040D02*
X67641D01*
X63700Y112456D02*
X66284Y115040D01*
X72759Y103203D02*
Y107560D01*
X64316D02*
X67641D01*
X63700Y106944D02*
X64316Y107560D01*
X52656Y117700D02*
X55644D01*
X42443Y116347D02*
X43796Y117700D01*
X47144D01*
X42443Y109653D02*
X43296Y108800D01*
X47244D01*
Y113200D01*
X52756Y108800D02*
Y113200D01*
X68559Y47259D02*
X72260D01*
X44600Y106156D02*
X47244Y108800D01*
X90200Y54144D02*
X92344D01*
X114056Y85900D02*
X117556D01*
X117600Y85944D01*
X119660Y81659D02*
Y84984D01*
X118800Y85844D02*
X119660Y84984D01*
X98000Y116600D02*
Y120224D01*
X44600Y106156D02*
X44656Y106100D01*
X44700D01*
X82744Y112600D02*
Y117200D01*
X92488Y115700D02*
Y116412D01*
X120536Y120600D02*
Y123208D01*
X105300Y116656D02*
Y119800D01*
X104944Y116300D02*
X105300Y116656D01*
X101969Y119956D02*
X104544D01*
X113700Y112100D02*
X116300D01*
X110456Y115344D02*
X113700Y112100D01*
X110456Y115344D02*
Y116300D01*
Y123900D01*
X111256Y124700D01*
X88556Y117456D02*
X90000Y118900D01*
X16800Y108500D02*
Y127500D01*
Y108500D02*
X22300Y103000D01*
Y101800D02*
Y103000D01*
X59446Y58135D02*
X61765D01*
X64356Y55544D01*
Y53300D02*
Y55544D01*
X98400Y63000D02*
X103634D01*
X25100Y94556D02*
Y99000D01*
X22300Y101800D02*
X25100Y99000D01*
X102200Y76800D02*
X103165D01*
X104184Y60984D02*
X108300Y65100D01*
Y71665D01*
X103165Y76800D02*
X108300Y71665D01*
X103634Y63000D02*
X106200Y65566D01*
Y69700D01*
X103840Y72060D02*
X106200Y69700D01*
X102540Y72060D02*
X103840D01*
D57*
X71100Y195200D02*
X71359Y194941D01*
X71125Y194706D02*
X72156Y193676D01*
Y181300D02*
Y193676D01*
X60000Y168600D02*
X60900Y167700D01*
Y160256D02*
Y167700D01*
X66644Y175700D02*
Y180500D01*
X62400Y175700D02*
X66644D01*
X57300Y170600D02*
X62400Y175700D01*
X57300Y151900D02*
Y170600D01*
X37500Y132100D02*
X57300Y151900D01*
X65244Y136444D02*
X66200Y137400D01*
X61000Y136444D02*
X65244D01*
X168600Y203600D02*
X168856Y203856D01*
X175300D01*
X37500Y130000D02*
Y132100D01*
X139000Y87868D02*
X141463D01*
X66644Y180500D02*
X66744Y180600D01*
D58*
X77200Y176200D02*
X86300Y167100D01*
X72156Y176200D02*
X77200D01*
X154700Y115831D02*
X156968D01*
X154100Y120900D02*
X159221D01*
X160900Y119221D01*
X156968Y115831D02*
X157400Y115400D01*
X43300Y163900D02*
X44200Y163000D01*
X47140D01*
X10500Y165000D02*
X14400Y161100D01*
Y134600D02*
Y161100D01*
Y134600D02*
X18900Y130100D01*
X185523Y97300D02*
X189232D01*
X75856Y25400D02*
X77744Y27288D01*
Y30744D01*
X114844Y116400D02*
X115024Y116580D01*
X149337Y87868D02*
X155400D01*
X160853Y109332D02*
X160900Y109379D01*
X167868Y97363D02*
X167931Y97300D01*
X156900Y98769D02*
X156931Y98800D01*
X139000Y83931D02*
X141463D01*
X115024Y116580D02*
Y120600D01*
Y121100D01*
X28500Y130100D02*
X28600Y130000D01*
X18900Y130100D02*
X27400D01*
X27500Y130000D01*
X165944Y147623D02*
Y160000D01*
X163644Y145323D02*
X165944Y147623D01*
X34587Y35700D02*
X36541Y37653D01*
X32700Y35700D02*
X33200D01*
X34587D01*
X29200Y148800D02*
Y161031D01*
Y148800D02*
X35500Y142500D01*
D59*
X61256Y141956D02*
Y147220D01*
X60900Y147576D02*
X61085Y147391D01*
X60900Y147576D02*
Y154744D01*
X175259Y192932D02*
X175300Y192973D01*
Y198344D01*
X175500Y170344D02*
Y191291D01*
X171256Y166100D02*
X175500Y170344D01*
X61085Y147391D02*
X61256Y147220D01*
X171456Y160000D02*
Y165900D01*
X171256Y166100D02*
X171456Y165900D01*
D60*
X154700Y115831D02*
Y116732D01*
Y114169D02*
Y115831D01*
X25500Y164200D02*
X26269Y164969D01*
X29200D01*
X43632Y172200D02*
X43632Y172200D01*
Y168900D02*
Y172200D01*
X27000Y173000D02*
X34800D01*
X22590Y168590D02*
X27000Y173000D01*
X22590Y142810D02*
Y168590D01*
Y142810D02*
X32500Y132900D01*
X31200Y182106D02*
X32741Y180565D01*
X31200Y182106D02*
Y183500D01*
X29131Y165037D02*
X29200Y164969D01*
X29131Y165037D02*
Y168900D01*
X47000Y150700D02*
X47140Y150840D01*
Y159600D01*
X47569Y203400D02*
X50400D01*
X51800Y202000D01*
X31100Y198600D02*
X34440Y195260D01*
X40500Y216000D02*
X40600Y215900D01*
Y204000D02*
Y215900D01*
X32500Y130000D02*
Y132900D01*
X34800Y173000D02*
X37268Y175469D01*
Y176400D01*
X29200Y164969D02*
X31400D01*
X36068Y165700D02*
X39719D01*
X36068D02*
X36132Y165763D01*
Y168900D01*
X33068D02*
X36132D01*
X43632Y167743D02*
Y168900D01*
Y167743D02*
X45637Y165737D01*
X43632Y168900D02*
X43632Y168900D01*
X40069Y168900D02*
X43632D01*
X47459Y170009D02*
Y180565D01*
X42341Y177691D02*
X43632Y176400D01*
X42341Y177691D02*
Y180565D01*
X37268Y176400D02*
X37859Y176991D01*
Y180565D01*
X33332Y176400D02*
Y179974D01*
X32741Y180565D02*
X33332Y179974D01*
X44900Y188635D02*
Y190032D01*
X42300Y192631D02*
X44900Y190032D01*
X35300Y188635D02*
X38800Y192135D01*
Y192631D01*
X42300Y196569D02*
Y197731D01*
X40600Y199432D02*
X42300Y197731D01*
X38800Y196569D02*
Y197632D01*
X40600Y199432D01*
Y203368D02*
X43600D01*
X33637D02*
X40600D01*
D61*
X39719Y165700D02*
X39860Y165559D01*
X45500Y188435D02*
Y189432D01*
X37268Y179974D02*
X37859Y180565D01*
X43632Y168900D02*
X43632Y168900D01*
X47569D02*
X48059Y169391D01*
X35300Y188635D02*
Y189131D01*
X43600Y203368D02*
X43632Y203400D01*
X171869Y97300D02*
X174696D01*
X150556Y94600D02*
X150787Y94832D01*
X153900D01*
X160869Y98800D02*
X161900Y97768D01*
X163900D01*
X167868Y100800D02*
X167931Y100737D01*
Y97300D02*
Y100737D01*
X167868Y100800D02*
X167900Y100831D01*
Y103832D01*
X160869Y102800D02*
X160869Y102800D01*
X160869Y98800D02*
Y102800D01*
X153900Y102631D02*
X154069Y102800D01*
X156931D01*
X153900Y98769D02*
X153931Y98800D01*
X156931D01*
X153868D02*
X153900Y98769D01*
X150368Y98800D02*
X153868D01*
X153732Y102800D02*
X153900Y102631D01*
X150368Y102800D02*
X153732D01*
X145472Y99759D02*
X146432Y98800D01*
X142559Y99759D02*
X145472D01*
X145359Y101727D02*
X146432Y102800D01*
X142559Y101727D02*
X145359D01*
X29291Y160441D02*
X39660D01*
X39860D01*
D62*
X193347Y97500D02*
X200250D01*
X193168Y97300D02*
X193400Y97531D01*
Y100432D01*
D63*
X101500Y77200D02*
X101600Y77100D01*
X149659Y83341D02*
X150547D01*
X143853Y88459D02*
X144541D01*
D64*
X153868Y102800D02*
X153900Y102831D01*
X156900D02*
X156931Y102800D01*
X163900Y97768D02*
X163932Y97800D01*
D65*
X71715Y152506D02*
D03*
X164629Y187817D02*
D03*
D66*
X88447Y152506D02*
D03*
X147897Y187817D02*
D03*
D67*
X112069Y152506D02*
D03*
X124275Y187817D02*
D03*
D68*
X135691Y148569D02*
D03*
X100653Y191753D02*
D03*
D69*
X103211Y165302D02*
D03*
X133133Y175021D02*
D03*
D70*
X128408Y139711D02*
D03*
X107936Y200612D02*
D03*
D71*
X140655Y158207D02*
D03*
X95689Y182116D02*
D03*
D72*
X192200Y88154D02*
D03*
D73*
X157950Y93300D02*
D03*
D74*
X40500Y215000D02*
D03*
D75*
X45500Y210000D02*
D03*
X35500D02*
D03*
X45500Y220000D02*
D03*
X35500D02*
D03*
D76*
X108500Y10000D02*
D03*
Y15000D02*
D03*
X103500D02*
D03*
Y10000D02*
D03*
X118500D02*
D03*
Y15000D02*
D03*
X113500D02*
D03*
Y10000D02*
D03*
X123500D02*
D03*
Y15000D02*
D03*
X128500D02*
D03*
Y10000D02*
D03*
X82500Y125000D02*
D03*
Y130000D02*
D03*
X67500D02*
D03*
Y125000D02*
D03*
X62500D02*
D03*
Y130000D02*
D03*
X77500D02*
D03*
Y125000D02*
D03*
X72500D02*
D03*
Y130000D02*
D03*
X47500D02*
D03*
Y125000D02*
D03*
X52500D02*
D03*
Y130000D02*
D03*
X37500D02*
D03*
Y125000D02*
D03*
X42500D02*
D03*
Y130000D02*
D03*
X32500D02*
D03*
Y125000D02*
D03*
X27500D02*
D03*
X57500Y130000D02*
D03*
Y125000D02*
D03*
X97500Y102000D02*
D03*
X102500D02*
D03*
Y97000D02*
D03*
X97500D02*
D03*
X102500Y67000D02*
D03*
Y72000D02*
D03*
X97500D02*
D03*
Y82000D02*
D03*
X102500D02*
D03*
Y77000D02*
D03*
X97500D02*
D03*
Y92000D02*
D03*
X102500D02*
D03*
Y87000D02*
D03*
X97500D02*
D03*
D77*
X164000Y67500D02*
D03*
Y62500D02*
D03*
Y57500D02*
D03*
Y52500D02*
D03*
Y47500D02*
D03*
Y42500D02*
D03*
Y37500D02*
D03*
X93000Y10000D02*
D03*
X88000D02*
D03*
X83000D02*
D03*
X10500Y165000D02*
D03*
X161000Y19000D02*
D03*
Y14000D02*
D03*
X141000Y19000D02*
D03*
X146000D02*
D03*
X151000D02*
D03*
X156000D02*
D03*
Y14000D02*
D03*
X146000D02*
D03*
X141000D02*
D03*
X151000D02*
D03*
X10500Y64600D02*
D03*
Y69600D02*
D03*
Y74600D02*
D03*
Y79600D02*
D03*
Y84600D02*
D03*
X10500Y89600D02*
D03*
X22300Y101800D02*
D03*
X27300D02*
D03*
X32300D02*
D03*
X37300D02*
D03*
X42300D02*
D03*
X47300D02*
D03*
X52300D02*
D03*
X12800Y115800D02*
D03*
Y110800D02*
D03*
X10500Y206000D02*
D03*
Y211000D02*
D03*
Y216000D02*
D03*
Y140000D02*
D03*
Y145000D02*
D03*
Y150000D02*
D03*
X140000Y128000D02*
D03*
X145000D02*
D03*
X150000D02*
D03*
X155000D02*
D03*
X160000D02*
D03*
X37000Y10000D02*
D03*
X42000D02*
D03*
X47000D02*
D03*
X52000D02*
D03*
X57000D02*
D03*
X62000D02*
D03*
X67000D02*
D03*
X10500Y45000D02*
D03*
Y40000D02*
D03*
Y35000D02*
D03*
D78*
X164000Y32500D02*
D03*
X10500Y170000D02*
D03*
Y59600D02*
D03*
X12800Y120800D02*
D03*
X10500Y221000D02*
D03*
Y155000D02*
D03*
Y30000D02*
D03*
D79*
X27500Y130000D02*
D03*
D80*
X97500Y67000D02*
D03*
D81*
X65000Y217453D02*
D03*
X88500D02*
D03*
X173500D02*
D03*
X149500D02*
D03*
X124500D02*
D03*
D82*
X65000Y211547D02*
D03*
X88500D02*
D03*
X173500D02*
D03*
X149500D02*
D03*
X124500D02*
D03*
D83*
X78000Y10000D02*
D03*
X17300Y101800D02*
D03*
X165000Y128000D02*
D03*
X32000Y10000D02*
D03*
D84*
X214500Y12500D02*
D03*
Y214500D02*
D03*
X189700Y11500D02*
D03*
X12500D02*
D03*
X189700Y188700D02*
D03*
X12500D02*
D03*
D85*
X60000Y168600D02*
D03*
X53400Y143500D02*
D03*
X157400Y115400D02*
D03*
X43400Y120700D02*
D03*
X27400Y212900D02*
D03*
X23500Y216400D02*
D03*
X54000Y152900D02*
D03*
X43300Y163900D02*
D03*
X31200Y183500D02*
D03*
X32500Y215300D02*
D03*
X40700Y222800D02*
D03*
X48200Y215300D02*
D03*
X25500Y164200D02*
D03*
X51800Y202000D02*
D03*
X30700Y198500D02*
D03*
X41400Y176800D02*
D03*
X17200Y143800D02*
D03*
X60500Y52500D02*
D03*
X152000Y106800D02*
D03*
X20900Y39100D02*
D03*
X157100Y94700D02*
D03*
X152300Y31000D02*
D03*
X108400Y59600D02*
D03*
X90800Y63300D02*
D03*
X86900Y63500D02*
D03*
X88800Y68200D02*
D03*
X134300Y69900D02*
D03*
X107200Y27300D02*
D03*
X153900Y82400D02*
D03*
X19900Y35600D02*
D03*
X17100Y152500D02*
D03*
X93200Y49800D02*
D03*
X92100Y45131D02*
D03*
X81200Y50400D02*
D03*
X77500Y66300D02*
D03*
X88700Y84900D02*
D03*
X88500Y81600D02*
D03*
X93900Y18800D02*
D03*
X97700Y55150D02*
D03*
X155600Y74500D02*
D03*
X117000Y27300D02*
D03*
X65400Y25300D02*
D03*
X70800Y17800D02*
D03*
X128200Y33800D02*
D03*
X137100Y43400D02*
D03*
X144270Y47930D02*
D03*
X149100Y47400D02*
D03*
X134400Y50500D02*
D03*
X132700Y57500D02*
D03*
X147500Y29100D02*
D03*
X155500Y33100D02*
D03*
X150700Y53500D02*
D03*
X106700Y83400D02*
D03*
X54500Y42500D02*
D03*
X76800Y44800D02*
D03*
X79600Y105900D02*
D03*
X193400Y108500D02*
D03*
X29200Y51000D02*
D03*
X131100Y64900D02*
D03*
X21600Y75400D02*
D03*
X118200Y66300D02*
D03*
X124300Y69100D02*
D03*
X117817Y60600D02*
D03*
X32400Y86000D02*
D03*
X171700Y80700D02*
D03*
X179900Y54700D02*
D03*
X171400Y86100D02*
D03*
X187700Y77500D02*
D03*
X181200Y77300D02*
D03*
X187600Y84400D02*
D03*
X180500D02*
D03*
X186700Y54800D02*
D03*
X186600Y61700D02*
D03*
X179500D02*
D03*
X181000Y91000D02*
D03*
X176000Y91200D02*
D03*
X171900Y93200D02*
D03*
X171800Y107700D02*
D03*
X171700Y101800D02*
D03*
X187000Y106000D02*
D03*
X189900Y101200D02*
D03*
X182700Y103800D02*
D03*
X173800Y116000D02*
D03*
X175600Y110100D02*
D03*
X180700Y115800D02*
D03*
X183000Y110000D02*
D03*
X176200Y103900D02*
D03*
X183100Y122400D02*
D03*
X176200Y122200D02*
D03*
X179500Y133300D02*
D03*
X179100Y127000D02*
D03*
X183700Y48000D02*
D03*
X195300Y21700D02*
D03*
X182500Y30200D02*
D03*
X195000Y30800D02*
D03*
X182900Y21700D02*
D03*
X170800Y13200D02*
D03*
X175400Y18700D02*
D03*
X178600Y13400D02*
D03*
X124200Y116800D02*
D03*
X131500Y120600D02*
D03*
X29200Y64500D02*
D03*
X34400Y57900D02*
D03*
X31300Y59400D02*
D03*
X45700Y94300D02*
D03*
X35000Y52300D02*
D03*
X32900Y55000D02*
D03*
X26800Y54000D02*
D03*
X36700Y27700D02*
D03*
X36900Y24400D02*
D03*
X41500Y21600D02*
D03*
X34500Y22100D02*
D03*
X33200Y35700D02*
D03*
X140900Y94200D02*
D03*
X116300Y116000D02*
D03*
X133400Y112100D02*
D03*
X133500Y90500D02*
D03*
X74800Y73800D02*
D03*
X19500Y110500D02*
D03*
X56100Y107500D02*
D03*
X69100Y63200D02*
D03*
X19600Y133200D02*
D03*
X64400Y118600D02*
D03*
X177600Y142900D02*
D03*
X128300Y120800D02*
D03*
X109100Y74800D02*
D03*
X111100Y64900D02*
D03*
X112400Y69700D02*
D03*
X124000Y54000D02*
D03*
X118800Y52900D02*
D03*
X114400Y52400D02*
D03*
X112100Y47700D02*
D03*
X45200Y106100D02*
D03*
X33600Y140000D02*
D03*
X51600Y223300D02*
D03*
X7600Y177300D02*
D03*
X12000D02*
D03*
X16600D02*
D03*
X47000Y150700D02*
D03*
X36800Y145600D02*
D03*
X35600Y142600D02*
D03*
X4800Y165100D02*
D03*
X17200Y162900D02*
D03*
X17100Y167900D02*
D03*
X190600Y169700D02*
D03*
X20100Y221000D02*
D03*
X27000Y221100D02*
D03*
X190200Y173300D02*
D03*
X190400Y148700D02*
D03*
Y143300D02*
D03*
X69300Y172100D02*
D03*
X30500Y16100D02*
D03*
X16900Y30700D02*
D03*
X53800Y76100D02*
D03*
Y79100D02*
D03*
X56600Y77800D02*
D03*
X44500Y73700D02*
D03*
X160400Y168200D02*
D03*
X106100Y130800D02*
D03*
X125000Y120200D02*
D03*
X91300Y91100D02*
D03*
X82400Y93800D02*
D03*
X85700D02*
D03*
X89000Y93700D02*
D03*
X87400Y74100D02*
D03*
X89000Y77000D02*
D03*
X102700Y130800D02*
D03*
X113000D02*
D03*
X101300Y116100D02*
D03*
X105300Y119800D02*
D03*
X75600Y118400D02*
D03*
X64700Y102300D02*
D03*
X118700Y120100D02*
D03*
X110600Y111600D02*
D03*
X109200Y100200D02*
D03*
X111800Y97700D02*
D03*
X116300Y112100D02*
D03*
X90000Y118900D02*
D03*
X109500Y130800D02*
D03*
X168000Y93100D02*
D03*
X163800Y90400D02*
D03*
X125700Y84900D02*
D03*
X137600Y104500D02*
D03*
X140600Y89300D02*
D03*
X127500Y102700D02*
D03*
X115600Y98700D02*
D03*
X54600Y199700D02*
D03*
X9700Y135000D02*
D03*
X11600Y100600D02*
D03*
X24000Y83400D02*
D03*
X28954Y87279D02*
D03*
X15400Y83200D02*
D03*
X14600Y88000D02*
D03*
X65400Y51900D02*
D03*
X52100Y22600D02*
D03*
X77200Y50800D02*
D03*
X86200Y25600D02*
D03*
X79900Y17600D02*
D03*
X71200Y13300D02*
D03*
X100000Y57900D02*
D03*
X105000Y58400D02*
D03*
X74900Y19600D02*
D03*
X86472Y38129D02*
D03*
X32500Y30200D02*
D03*
X115100Y49200D02*
D03*
X21900Y78600D02*
D03*
X83000Y65900D02*
D03*
X74500Y61800D02*
D03*
X81100Y60400D02*
D03*
X72100Y64400D02*
D03*
X19800Y212900D02*
D03*
M02*
