G04 Layer_Physical_Order=4*
G04 Layer_Color=13085014*
%FSLAX25Y25*%
%MOIN*%
G70*
G01*
G75*
%ADD10C,0.00800*%
%ADD16R,0.03543X0.02362*%
%ADD24R,0.03622X0.01575*%
%ADD27R,0.02362X0.03543*%
%ADD34R,0.01575X0.03622*%
%ADD44R,0.01968X0.02598*%
%ADD47R,0.02756X0.05118*%
%ADD54R,0.01968X0.01968*%
%ADD55C,0.01000*%
%ADD56C,0.01200*%
%ADD57C,0.01600*%
%ADD58C,0.01400*%
%ADD61C,0.01042*%
%ADD63C,0.00600*%
%ADD74C,0.05200*%
%ADD75C,0.06000*%
%ADD76C,0.04000*%
%ADD77C,0.03937*%
%ADD78R,0.03937X0.03937*%
%ADD79R,0.04000X0.04000*%
%ADD80R,0.04000X0.04000*%
%ADD81C,0.04331*%
%ADD82P,0.04688X8X112.5*%
%ADD83R,0.03937X0.03937*%
%ADD84C,0.11000*%
%ADD85C,0.02600*%
%ADD86R,0.10236X0.07874*%
%ADD87R,0.06299X0.07480*%
%ADD88R,0.01968X0.01968*%
%ADD89R,0.02362X0.04528*%
%ADD90R,0.02362X0.06102*%
%ADD91R,0.05709X0.01181*%
%ADD92R,0.02756X0.04724*%
%ADD93R,0.05709X0.01772*%
%ADD94R,0.04528X0.02362*%
%ADD95R,0.05118X0.02756*%
%ADD96R,0.02756X0.03937*%
%ADD97R,0.02500X0.04000*%
%ADD98R,0.03937X0.05512*%
%ADD99R,0.05512X0.03937*%
G04:AMPARAMS|DCode=100|XSize=9.84mil|YSize=23.62mil|CornerRadius=1.97mil|HoleSize=0mil|Usage=FLASHONLY|Rotation=180.000|XOffset=0mil|YOffset=0mil|HoleType=Round|Shape=RoundedRectangle|*
%AMROUNDEDRECTD100*
21,1,0.00984,0.01968,0,0,180.0*
21,1,0.00591,0.02362,0,0,180.0*
1,1,0.00394,-0.00295,0.00984*
1,1,0.00394,0.00295,0.00984*
1,1,0.00394,0.00295,-0.00984*
1,1,0.00394,-0.00295,-0.00984*
%
%ADD100ROUNDEDRECTD100*%
G04:AMPARAMS|DCode=101|XSize=9.84mil|YSize=23.62mil|CornerRadius=1.97mil|HoleSize=0mil|Usage=FLASHONLY|Rotation=270.000|XOffset=0mil|YOffset=0mil|HoleType=Round|Shape=RoundedRectangle|*
%AMROUNDEDRECTD101*
21,1,0.00984,0.01968,0,0,270.0*
21,1,0.00591,0.02362,0,0,270.0*
1,1,0.00394,-0.00984,-0.00295*
1,1,0.00394,-0.00984,0.00295*
1,1,0.00394,0.00984,0.00295*
1,1,0.00394,0.00984,-0.00295*
%
%ADD101ROUNDEDRECTD101*%
G04:AMPARAMS|DCode=102|XSize=66.93mil|YSize=66.93mil|CornerRadius=2.01mil|HoleSize=0mil|Usage=FLASHONLY|Rotation=270.000|XOffset=0mil|YOffset=0mil|HoleType=Round|Shape=RoundedRectangle|*
%AMROUNDEDRECTD102*
21,1,0.06693,0.06291,0,0,270.0*
21,1,0.06291,0.06693,0,0,270.0*
1,1,0.00402,-0.03146,-0.03146*
1,1,0.00402,-0.03146,0.03146*
1,1,0.00402,0.03146,0.03146*
1,1,0.00402,0.03146,-0.03146*
%
%ADD102ROUNDEDRECTD102*%
G04:AMPARAMS|DCode=103|XSize=11.02mil|YSize=33.47mil|CornerRadius=1.98mil|HoleSize=0mil|Usage=FLASHONLY|Rotation=0.000|XOffset=0mil|YOffset=0mil|HoleType=Round|Shape=RoundedRectangle|*
%AMROUNDEDRECTD103*
21,1,0.01102,0.02950,0,0,0.0*
21,1,0.00705,0.03347,0,0,0.0*
1,1,0.00397,0.00353,-0.01475*
1,1,0.00397,-0.00353,-0.01475*
1,1,0.00397,-0.00353,0.01475*
1,1,0.00397,0.00353,0.01475*
%
%ADD103ROUNDEDRECTD103*%
G04:AMPARAMS|DCode=104|XSize=64.96mil|YSize=94.49mil|CornerRadius=1.95mil|HoleSize=0mil|Usage=FLASHONLY|Rotation=90.000|XOffset=0mil|YOffset=0mil|HoleType=Round|Shape=RoundedRectangle|*
%AMROUNDEDRECTD104*
21,1,0.06496,0.09059,0,0,90.0*
21,1,0.06106,0.09449,0,0,90.0*
1,1,0.00390,0.04530,0.03053*
1,1,0.00390,0.04530,-0.03053*
1,1,0.00390,-0.04530,-0.03053*
1,1,0.00390,-0.04530,0.03053*
%
%ADD104ROUNDEDRECTD104*%
%ADD105R,0.02598X0.01968*%
%ADD106R,0.02362X0.03150*%
%ADD107R,0.03150X0.03150*%
%ADD108C,0.02000*%
%ADD109C,0.02400*%
%ADD110R,0.03180X0.01102*%
%ADD111R,0.03280X0.01102*%
%ADD112R,0.03380X0.01102*%
%ADD113R,0.03380X0.01102*%
D10*
X40300Y147800D02*
G03*
X40500Y147600I200J0D01*
G01*
X37600Y114600D02*
G03*
X39900Y113244I1828J472D01*
G01*
X35600Y113300D02*
G03*
X37600Y114600I350J1650D01*
G01*
X27500Y48600D02*
G03*
X25579Y47400I-361J-1561D01*
G01*
Y49700D02*
G03*
X26999Y48725I1361J461D01*
G01*
X147583Y122400D02*
G03*
X149150Y122550I709J859D01*
G01*
X167700Y180600D02*
G03*
X165900Y179400I-300J-1500D01*
G01*
X165900D02*
G03*
X164300Y180600I-1400J-200D01*
G01*
X138300Y180700D02*
G03*
X136200Y179300I-350J-1750D01*
G01*
Y179400D02*
G03*
X133900Y180600I-1750J-550D01*
G01*
X107300Y180244D02*
G03*
X105600Y179000I-228J-1472D01*
G01*
D02*
G03*
X104000Y180244I-1422J-178D01*
G01*
X76000Y179400D02*
G03*
X74300Y180700I-1500J-200D01*
G01*
X77100Y180800D02*
G03*
X76000Y179400I150J-1250D01*
G01*
X42500Y183500D02*
G03*
X43900Y182100I1400J0D01*
G01*
X94441Y42441D02*
X97000Y45000D01*
X89240Y42441D02*
X94441D01*
X97000Y45000D02*
X97044Y45044D01*
X101900D01*
Y50556D02*
X102700Y51356D01*
Y61500D01*
X105344Y43444D02*
Y52344D01*
X102400Y40500D02*
X105344Y43444D01*
X75750Y40500D02*
X102400D01*
X26172Y159728D02*
X28272D01*
X23200Y162700D02*
X26172Y159728D01*
X23200Y162700D02*
Y193660D01*
X46900Y147600D02*
X47500Y147000D01*
X20400Y158844D02*
X28844Y150400D01*
X20400Y158844D02*
Y192500D01*
X27200Y155300D02*
X28744D01*
X21800Y160700D02*
X27200Y155300D01*
X21800Y160700D02*
Y193080D01*
X18200Y201100D02*
X24600Y194700D01*
X17200Y143800D02*
X20356Y140644D01*
Y140000D02*
Y140644D01*
Y140000D02*
X20424Y139931D01*
X26239D01*
X44500Y73700D02*
X48300Y69900D01*
X39500Y48600D02*
X41100Y50200D01*
X45244Y44412D02*
X45500Y44156D01*
X70800Y17800D02*
Y20100D01*
X74400Y23700D01*
X129140Y61260D02*
X130642D01*
X127400Y63000D02*
X129140Y61260D01*
X116300Y63000D02*
X127400D01*
X139500Y65000D02*
X140700D01*
X141100Y64600D01*
X147327Y122656D02*
X148291Y121691D01*
X141800Y122656D02*
X147327D01*
X131200Y138400D02*
X132160Y139360D01*
X117347Y138400D02*
X131200D01*
X21044Y38956D02*
X37100D01*
X20900Y39100D02*
X21044Y38956D01*
X20900Y39100D02*
X21800D01*
X125456Y28500D02*
X125556Y28600D01*
X108961Y35480D02*
X108982Y35500D01*
X121400D01*
X122800Y36900D01*
X113800Y42600D02*
X115356D01*
X108100Y48300D02*
X113800Y42600D01*
X108100Y48300D02*
Y52800D01*
X115356Y42600D02*
X120000Y37956D01*
X83156Y29880D02*
X86197Y32921D01*
X91639D01*
X83156Y34780D02*
X83576Y35200D01*
X111100Y58100D02*
Y64900D01*
X105344Y52344D02*
X111100Y58100D01*
X113900Y58600D02*
Y60600D01*
X108100Y52800D02*
X113900Y58600D01*
Y60600D02*
X116300Y63000D01*
X90800Y62000D02*
Y63300D01*
X97200Y64440D02*
Y67000D01*
X76200Y55100D02*
X87860D01*
X93500Y62720D02*
Y71540D01*
X70044Y56600D02*
X87380D01*
X93500Y62720D01*
X87860Y55100D02*
X97200Y64440D01*
X86900Y58100D02*
X90800Y62000D01*
X46044Y58100D02*
X86900D01*
X108900Y74800D02*
Y82100D01*
X24420Y134600D02*
X35180D01*
X15900Y117800D02*
Y126080D01*
X24420Y134600D01*
X25000Y133200D02*
X35760D01*
X17300Y125500D02*
X25000Y133200D01*
X17300Y115300D02*
Y125500D01*
X125100Y180200D02*
Y184344D01*
Y180200D02*
X126756Y178544D01*
X125100Y184344D02*
X127100Y186344D01*
X158800Y40300D02*
Y43156D01*
X146300Y40300D02*
X158800D01*
X22300Y32700D02*
X33300D01*
X19900Y35100D02*
X22300Y32700D01*
X3900Y57500D02*
X14500Y46900D01*
Y28700D02*
Y46900D01*
X5800Y58000D02*
X15900Y47900D01*
Y32257D02*
Y47900D01*
X14500Y28700D02*
X27100Y16100D01*
X15900Y32257D02*
X16900Y31257D01*
Y29900D02*
Y31257D01*
X84344Y157156D02*
X85400D01*
X82118Y159382D02*
X84344Y157156D01*
X82118Y159382D02*
Y161300D01*
X89600Y113044D02*
X92156Y115600D01*
X76300Y53200D02*
X90100D01*
X74000Y50900D02*
X76300Y53200D01*
X72500Y51400D02*
X76200Y55100D01*
X81850Y68200D02*
X88800D01*
X79800Y66150D02*
X81850Y68200D01*
X79800Y63000D02*
Y66150D01*
X76300Y59500D02*
X79800Y63000D01*
X51000Y59500D02*
X76300D01*
X80200Y18000D02*
X80250Y17950D01*
X97100Y13300D02*
X102000Y18200D01*
X71200Y13300D02*
X97100D01*
X102000Y18200D02*
X135011D01*
X71200Y13300D02*
X71300Y13200D01*
X57244Y29155D02*
X57422Y28978D01*
X52559Y33840D02*
X57244Y29155D01*
Y28800D02*
X57422Y28978D01*
X57100Y28656D02*
X57244Y28800D01*
X90100Y53200D02*
X102200Y65300D01*
X135011Y18200D02*
X140944Y24133D01*
Y44645D01*
X128700Y53200D02*
X142800D01*
X129156Y54600D02*
X145900D01*
X122800Y47300D02*
X128700Y53200D01*
X145900Y54600D02*
X150872Y49628D01*
X126156Y57600D02*
X129156Y54600D01*
X142800Y53200D02*
X146640Y49360D01*
X150872Y49628D02*
X152472D01*
X146640Y45559D02*
Y49360D01*
X143641Y42959D02*
X146300Y40300D01*
X56800Y14600D02*
X60100Y17900D01*
X51600Y14600D02*
X56800D01*
X52300Y9700D02*
X55768Y13168D01*
X68167Y23566D02*
Y25567D01*
X57767Y13168D02*
X68167Y23566D01*
X55768Y13168D02*
X57767D01*
X61800Y15000D02*
X69467Y22667D01*
X61800Y11700D02*
Y15000D01*
X60100Y17900D02*
Y36500D01*
X59200Y37400D02*
X60100Y36500D01*
X56300Y37400D02*
X59200D01*
X49944Y43756D02*
X56300Y37400D01*
X49000Y43756D02*
X49944D01*
X49000D02*
X49956Y44712D01*
Y47600D01*
X77356Y107000D02*
X78456Y105900D01*
X79600D01*
X77800Y103656D02*
Y104100D01*
X79600Y105900D01*
X81200Y107500D01*
Y108144D01*
X64200Y95156D02*
X67244D01*
X70700Y91700D01*
X38844Y88700D02*
X42600Y92456D01*
X171100Y162200D02*
X172000Y161300D01*
Y158156D02*
Y161300D01*
X126756Y176400D02*
Y178544D01*
X138500Y75844D02*
X139456Y76800D01*
X102160Y139640D02*
Y140371D01*
X114400Y156600D02*
X115200D01*
X112200Y158800D02*
X114400Y156600D01*
X112200Y158800D02*
Y161200D01*
X111300Y162100D02*
X112200Y161200D01*
X109900Y162100D02*
X111300D01*
X80918Y162500D02*
X82118Y161300D01*
X144700Y155800D02*
X144900D01*
X142100Y158400D02*
X144700Y155800D01*
X142100Y158400D02*
Y161400D01*
X141300Y162200D02*
X142100Y161400D01*
X172000Y158156D02*
X174200Y155956D01*
X79000Y162500D02*
X80918D01*
X75900Y165600D02*
X79000Y162500D01*
X75900Y165600D02*
Y167229D01*
X105900Y166100D02*
X109900Y162100D01*
X105900Y166100D02*
Y167229D01*
X139000Y162200D02*
X141300D01*
X136100Y165100D02*
X139000Y162200D01*
X136100Y165100D02*
Y167629D01*
X58456Y63000D02*
X60356Y64900D01*
X61500Y89144D02*
X67688D01*
X58400Y86932D02*
X58963Y86369D01*
X145444Y120500D02*
X146323Y119621D01*
X52000Y63000D02*
X56631Y67632D01*
X60356Y64900D02*
Y66144D01*
X58600Y67900D02*
X60356Y66144D01*
X58600Y67900D02*
Y71900D01*
X56631Y67632D02*
Y71900D01*
X150260Y107395D02*
X151286Y106369D01*
X56631Y85232D02*
X57600Y86200D01*
X52694Y70695D02*
Y71900D01*
X51656Y69656D02*
X52694Y70695D01*
X52694Y74459D02*
X52694Y74459D01*
X52000Y67400D02*
X54663Y70063D01*
Y71900D01*
X56631Y82924D02*
Y85232D01*
X59000Y86644D02*
X61500Y89144D01*
X67688D02*
X67944Y89400D01*
X154197Y101587D02*
X163687D01*
X165200Y103100D01*
X116344Y89544D02*
X123800D01*
X73456Y88281D02*
Y89400D01*
X47600Y64144D02*
X50400D01*
X51544Y63000D01*
X52000D01*
X57056D02*
X58456D01*
X38844Y82100D02*
Y88700D01*
X52694Y82924D02*
Y83706D01*
Y74459D02*
X55647Y77412D01*
X72100Y86926D02*
X73456Y88281D01*
X70700Y87400D02*
Y91700D01*
X146323Y113202D02*
Y119621D01*
X148291Y113202D02*
Y121691D01*
X42600Y92456D02*
X43856D01*
X45700Y94300D01*
X48684D01*
X49084Y94700D01*
X44200Y98300D02*
X47300Y101400D01*
Y101800D01*
X32100Y89021D02*
X41379Y98300D01*
X32100Y85500D02*
Y89021D01*
X41379Y98300D02*
X44200D01*
X28954Y88454D02*
X42300Y101800D01*
X132160Y139160D02*
Y140371D01*
X61159Y80365D02*
X67665D01*
X108900Y82100D02*
X116344Y89544D01*
X7500Y77600D02*
X10500Y74600D01*
X25300Y125000D02*
X27500D01*
X3900Y106900D02*
X12800Y115800D01*
X3900Y57500D02*
Y106900D01*
X5800Y58000D02*
Y102900D01*
X12800Y109900D01*
Y110800D01*
X29537Y145737D02*
X31400Y147600D01*
X27039Y145737D02*
X29537D01*
X34356Y147656D02*
Y151500D01*
X30468Y143769D02*
X34356Y147656D01*
X27039Y143769D02*
X30468D01*
X46468Y143869D02*
X47500Y144900D01*
X16600Y111500D02*
X19400Y114300D01*
Y122184D01*
X7500Y77600D02*
Y100300D01*
X16600Y109400D01*
Y111500D01*
X12800Y115800D02*
X13900D01*
X12800Y110800D02*
X17300Y115300D01*
X13900Y115800D02*
X15900Y117800D01*
X4732Y202368D02*
X8500Y198600D01*
X14300D01*
X34600Y136000D02*
X40500Y141900D01*
X35180Y134600D02*
X38543Y137963D01*
X116056Y57700D02*
X119744D01*
X110856Y52500D02*
X111600Y53244D01*
Y53253D01*
X112947Y54600D01*
X112956D01*
X116056Y57700D01*
X169140Y185071D02*
X170225Y186156D01*
X9080Y200000D02*
X14880D01*
X6132Y202948D02*
X9080Y200000D01*
X6132Y202948D02*
Y211631D01*
X10500Y214900D02*
Y215000D01*
X9660Y201400D02*
X15460D01*
X7531Y203528D02*
X9660Y201400D01*
X4732Y202368D02*
Y215231D01*
X10500Y221000D01*
X6132Y211631D02*
X10500Y216000D01*
X7531Y203528D02*
Y208032D01*
X10500Y211000D01*
X38543Y137963D02*
X43561D01*
X47700Y136900D02*
Y139100D01*
X43561Y139931D02*
X43730Y140100D01*
X46869Y139931D02*
X47700Y139100D01*
X43561Y139931D02*
X46869D01*
X35760Y133200D02*
X38160Y135600D01*
X46400D01*
X47700Y136900D01*
X40500Y141900D02*
X43561D01*
X74400Y137000D02*
X96300D01*
X72160Y139240D02*
X74400Y137000D01*
X72160Y139240D02*
Y140371D01*
X132160Y139360D02*
Y140371D01*
X159100Y136300D02*
X162160Y139360D01*
Y140371D01*
X47500Y144900D02*
Y147000D01*
X32200Y24400D02*
X34500Y22100D01*
X27100Y16100D02*
X30500D01*
X48300Y69656D02*
X51656D01*
X48300D02*
Y69900D01*
X45259Y74459D02*
X50135D01*
X44500Y73700D02*
X45259Y74459D01*
X165200Y164800D02*
Y167229D01*
Y164800D02*
X167800Y162200D01*
X171100D01*
X165200Y103100D02*
Y120900D01*
X161800Y124300D02*
X165200Y120900D01*
X150900Y124300D02*
X161800D01*
X148291Y121691D02*
X149150Y122550D01*
X150900Y124300D01*
X89600Y112440D02*
Y113044D01*
X67665Y80365D02*
X68800Y81500D01*
Y85500D01*
X70700Y87400D01*
X72512Y84556D02*
X75500D01*
X72100Y84144D02*
Y86926D01*
X71356Y83400D02*
X72100Y84144D01*
X72512Y84556D01*
X71456Y73300D02*
Y73500D01*
X102700Y130600D02*
Y130800D01*
X96300Y137000D02*
X102700Y130600D01*
X109900Y130200D02*
X110000Y130100D01*
X109900Y130200D02*
Y131100D01*
X118554Y136300D02*
X159100D01*
X109624Y130676D02*
X117347Y138400D01*
X112854Y131000D02*
X113054Y130800D01*
X112500Y131000D02*
X112854D01*
X112908D01*
X129688Y89456D02*
X132844Y86300D01*
X128400Y89456D02*
X129688D01*
X123200D02*
X128400D01*
X111800Y102356D02*
X118200Y108756D01*
X111800Y97700D02*
Y102356D01*
X127000Y95044D02*
X129800Y97844D01*
X128600Y108056D02*
X129800Y106856D01*
Y97844D02*
Y106856D01*
X15544Y139456D02*
X19000Y136000D01*
X34600D01*
X32000Y95599D02*
Y100700D01*
X37600Y99219D02*
Y100700D01*
X27300Y92879D02*
Y101800D01*
X24000Y85619D02*
X37600Y99219D01*
X28954Y86879D02*
Y87279D01*
Y88454D01*
X24000Y83400D02*
Y85619D01*
X19600Y77000D02*
X21300Y75300D01*
X19600Y77000D02*
Y85179D01*
X27300Y92879D01*
X21200Y79300D02*
Y84799D01*
X32000Y95599D01*
X15400Y83200D02*
Y85300D01*
X17700Y87600D01*
Y94500D01*
X11600Y100600D02*
X17700Y94500D01*
X29600Y64900D02*
X43300D01*
X29200Y64500D02*
X29600Y64900D01*
X41200Y59956D02*
Y62344D01*
X39744Y58500D02*
X41200Y59956D01*
X42600Y67400D02*
X52000D01*
X36500Y67956D02*
X41200D01*
X48300Y52944D02*
X51500D01*
X51744Y52700D01*
X50756Y47600D02*
X57601D01*
X57741Y47740D01*
X61800Y11700D02*
X63500Y10000D01*
X44913Y45869D02*
X45244Y46200D01*
Y47600D01*
X46600Y61600D02*
X48900D01*
X43300Y64900D02*
X46600Y61600D01*
X39200Y12800D02*
X42000Y10000D01*
X102200Y65300D02*
Y66800D01*
X102700Y61500D02*
X110900Y69700D01*
X111900D01*
X68928Y55928D02*
X69500Y55356D01*
X83576Y35200D02*
X90876D01*
X74400Y23700D02*
Y31516D01*
X77644Y34760D01*
Y34780D01*
X137840Y47749D02*
X140944Y44645D01*
X148759Y43440D02*
X153516D01*
X153800Y43156D01*
X152784Y57560D02*
X153444Y56900D01*
X122800Y36900D02*
Y47300D01*
X146640Y45559D02*
X148759Y43440D01*
X153856Y48100D02*
X158800Y43156D01*
X151800Y48100D02*
X153856D01*
X74000Y41300D02*
Y50900D01*
X72000Y36750D02*
X75750Y40500D01*
X66200Y35600D02*
X72500Y41900D01*
X66200Y32232D02*
Y35600D01*
X66069Y32100D02*
X66200Y32232D01*
X72500Y41900D02*
Y51400D01*
X47000Y10000D02*
X51600Y14600D01*
X143641Y42959D02*
Y43440D01*
Y35960D02*
X143760D01*
X43756Y49088D02*
X45244Y47600D01*
X37100Y38956D02*
Y41693D01*
X37239Y41831D01*
Y45768D02*
X37339Y45869D01*
X44913D01*
X41100Y50200D02*
Y54800D01*
X42900Y56600D01*
X43744Y38644D02*
X50300D01*
X39200Y12800D02*
Y28756D01*
X43000Y32556D01*
X37156Y30800D02*
X39200Y28756D01*
X35200Y30800D02*
X37156D01*
X33300Y32700D02*
X35200Y30800D01*
X32200Y24400D02*
Y30200D01*
X21200Y79300D02*
X21900Y78600D01*
X69300Y55856D02*
X70044Y56600D01*
X42900D02*
X68256D01*
X68928Y55928D01*
X45300Y58844D02*
X46044Y58100D01*
X48900Y61600D02*
X51000Y59500D01*
X15460Y201400D02*
X23200Y193660D01*
X14880Y200000D02*
X21800Y193080D01*
X14300Y198600D02*
X20400Y192500D01*
X24600Y168644D02*
Y194700D01*
Y168644D02*
X28644Y164600D01*
X31400Y147600D02*
Y152844D01*
X34256Y155700D01*
X90876Y30082D02*
X91639D01*
X137256Y25744D02*
X138188D01*
X113054Y130800D02*
X118554Y136300D01*
X102160Y138740D02*
Y140371D01*
Y138740D02*
X106100Y134800D01*
Y130800D02*
Y134800D01*
D16*
X138100Y82156D02*
D03*
Y76644D02*
D03*
X60900Y171956D02*
D03*
Y166444D02*
D03*
X85500Y185456D02*
D03*
Y179944D02*
D03*
X145100Y141644D02*
D03*
Y147156D02*
D03*
X114600Y185756D02*
D03*
Y180244D02*
D03*
X145100Y186256D02*
D03*
Y180744D02*
D03*
X66800Y140356D02*
D03*
Y134844D02*
D03*
X46400Y191344D02*
D03*
Y196856D02*
D03*
X46300Y187956D02*
D03*
Y182444D02*
D03*
X46200Y177156D02*
D03*
Y171644D02*
D03*
X46900Y167456D02*
D03*
Y161944D02*
D03*
X46800Y159456D02*
D03*
Y153944D02*
D03*
X58400Y94744D02*
D03*
Y100256D02*
D03*
X36500Y67756D02*
D03*
Y62244D02*
D03*
X155500Y62044D02*
D03*
Y67556D02*
D03*
X158100Y43156D02*
D03*
Y37644D02*
D03*
X175100Y166156D02*
D03*
Y160644D02*
D03*
X145300Y169744D02*
D03*
Y175256D02*
D03*
Y166400D02*
D03*
Y160888D02*
D03*
X115200Y166556D02*
D03*
Y161044D02*
D03*
X85200Y169444D02*
D03*
Y174956D02*
D03*
X85300Y166856D02*
D03*
Y161344D02*
D03*
X127000Y168356D02*
D03*
Y162844D02*
D03*
X96700Y168256D02*
D03*
Y162744D02*
D03*
X67100Y168656D02*
D03*
Y163144D02*
D03*
X116600Y95056D02*
D03*
Y89544D02*
D03*
X125800Y95044D02*
D03*
Y100556D02*
D03*
X153400Y43156D02*
D03*
Y37644D02*
D03*
X123200Y83944D02*
D03*
Y89456D02*
D03*
X47300Y113244D02*
D03*
Y118756D02*
D03*
X42600Y86944D02*
D03*
Y92456D02*
D03*
X57500Y112544D02*
D03*
Y118056D02*
D03*
X77800Y103656D02*
D03*
Y98144D02*
D03*
X122800Y108756D02*
D03*
Y103244D02*
D03*
X43000Y32556D02*
D03*
Y27044D02*
D03*
X49000Y43756D02*
D03*
Y38244D02*
D03*
X56900Y25856D02*
D03*
Y20344D02*
D03*
X67700Y47556D02*
D03*
Y42044D02*
D03*
X69300Y50344D02*
D03*
Y55856D02*
D03*
X64200Y89644D02*
D03*
Y95156D02*
D03*
X85500Y148356D02*
D03*
Y142844D02*
D03*
X115300Y147756D02*
D03*
Y142244D02*
D03*
X174900Y146756D02*
D03*
Y141244D02*
D03*
X37100Y33444D02*
D03*
Y38956D02*
D03*
X121300Y95044D02*
D03*
Y100556D02*
D03*
X161300Y98944D02*
D03*
Y104456D02*
D03*
X59000Y92156D02*
D03*
Y86644D02*
D03*
X44100Y43756D02*
D03*
Y38244D02*
D03*
X48200Y70056D02*
D03*
Y64544D02*
D03*
X161300Y110344D02*
D03*
Y115856D02*
D03*
X79800Y78956D02*
D03*
Y73444D02*
D03*
X75500Y84556D02*
D03*
Y79044D02*
D03*
X174400Y191244D02*
D03*
Y196756D02*
D03*
X115080Y32544D02*
D03*
Y38056D02*
D03*
X82300Y98144D02*
D03*
Y103656D02*
D03*
X160000Y89056D02*
D03*
Y83544D02*
D03*
X118200Y103244D02*
D03*
Y108756D02*
D03*
X128400Y89456D02*
D03*
Y83944D02*
D03*
X96400Y159056D02*
D03*
Y153544D02*
D03*
X126700Y158956D02*
D03*
Y153444D02*
D03*
X174400Y184656D02*
D03*
Y179144D02*
D03*
X67300Y158356D02*
D03*
Y152844D02*
D03*
X140700Y116344D02*
D03*
Y121856D02*
D03*
X156100Y167756D02*
D03*
Y162244D02*
D03*
X156000Y158456D02*
D03*
Y152944D02*
D03*
X174800Y169244D02*
D03*
Y174756D02*
D03*
X115200Y169144D02*
D03*
Y174656D02*
D03*
X41200Y67956D02*
D03*
Y62444D02*
D03*
X76800Y48356D02*
D03*
Y42844D02*
D03*
X97000Y50512D02*
D03*
Y45000D02*
D03*
X101900Y45044D02*
D03*
Y50556D02*
D03*
D24*
X143760Y74241D02*
D03*
Y76800D02*
D03*
Y79359D02*
D03*
X151240D02*
D03*
Y74241D02*
D03*
X81760Y47559D02*
D03*
Y42441D02*
D03*
X89240D02*
D03*
Y45000D02*
D03*
Y47559D02*
D03*
D27*
X50944Y172700D02*
D03*
X56456D02*
D03*
X57156Y186700D02*
D03*
X51644D02*
D03*
X96656Y176100D02*
D03*
X91144D02*
D03*
X126756Y176400D02*
D03*
X121244D02*
D03*
X184556Y173300D02*
D03*
X179044D02*
D03*
X149056Y194400D02*
D03*
X143544D02*
D03*
X20356Y140000D02*
D03*
X14844D02*
D03*
X20856Y148100D02*
D03*
X15344D02*
D03*
X91756Y97900D02*
D03*
X86244D02*
D03*
X43756Y52300D02*
D03*
X38244D02*
D03*
X49956Y47600D02*
D03*
X44444D02*
D03*
X57344Y34200D02*
D03*
X62856D02*
D03*
X83156Y29880D02*
D03*
X77644D02*
D03*
X83156Y34780D02*
D03*
X77644D02*
D03*
X153444Y56900D02*
D03*
X158956D02*
D03*
X157756Y49400D02*
D03*
X152244D02*
D03*
X67656Y117600D02*
D03*
X62144D02*
D03*
X89100Y129000D02*
D03*
X94612D02*
D03*
X122344Y181900D02*
D03*
X127856D02*
D03*
X62756Y29300D02*
D03*
X57244D02*
D03*
X140944Y30800D02*
D03*
X146456D02*
D03*
X151744Y181400D02*
D03*
X157256D02*
D03*
X92744Y181600D02*
D03*
X98256D02*
D03*
X62744Y180800D02*
D03*
X68256D02*
D03*
X49084Y93900D02*
D03*
X54596D02*
D03*
X138188Y25744D02*
D03*
X143700D02*
D03*
X65844Y83400D02*
D03*
X71356D02*
D03*
X91756Y116000D02*
D03*
X86244D02*
D03*
X28644Y164500D02*
D03*
X34156D02*
D03*
X28644Y159800D02*
D03*
X34156D02*
D03*
X28744Y155000D02*
D03*
X34256D02*
D03*
X28844Y150300D02*
D03*
X34356D02*
D03*
X154544Y121300D02*
D03*
X160056D02*
D03*
X103056Y26100D02*
D03*
X97544D02*
D03*
X125756Y45100D02*
D03*
X120244D02*
D03*
X44056Y82100D02*
D03*
X38544D02*
D03*
X131544Y32924D02*
D03*
X137056D02*
D03*
X57256Y52200D02*
D03*
X51744D02*
D03*
X67944Y89400D02*
D03*
X73456D02*
D03*
X71944Y111500D02*
D03*
X77456D02*
D03*
X145544Y119300D02*
D03*
X151056D02*
D03*
X51744Y63800D02*
D03*
X57256D02*
D03*
X62844Y68700D02*
D03*
X68356D02*
D03*
X71456Y73300D02*
D03*
X65944D02*
D03*
X59988Y63700D02*
D03*
X65500D02*
D03*
X155956Y175700D02*
D03*
X150444D02*
D03*
X88856Y194600D02*
D03*
X83344D02*
D03*
X30556Y118100D02*
D03*
X25044D02*
D03*
X119056Y194100D02*
D03*
X113544D02*
D03*
X120644Y57600D02*
D03*
X126156D02*
D03*
X24544Y113200D02*
D03*
X30056D02*
D03*
Y108000D02*
D03*
X24544D02*
D03*
X145244Y70247D02*
D03*
X150756D02*
D03*
X71580Y32100D02*
D03*
X66069D02*
D03*
X155044Y94000D02*
D03*
X160556D02*
D03*
X145244Y83900D02*
D03*
X150756D02*
D03*
X42256Y164500D02*
D03*
X36744D02*
D03*
X42356Y159800D02*
D03*
X36844D02*
D03*
X42356Y155000D02*
D03*
X36844D02*
D03*
X42356Y150300D02*
D03*
X36844D02*
D03*
D34*
X92159Y111140D02*
D03*
Y103660D02*
D03*
X89600D02*
D03*
X87041D02*
D03*
Y111140D02*
D03*
X89600D02*
D03*
D44*
X126631Y112544D02*
D03*
X130569D02*
D03*
X128600Y108056D02*
D03*
D47*
X84860Y84600D02*
D03*
X92340D02*
D03*
X84860Y78600D02*
D03*
X92340D02*
D03*
X32860Y76100D02*
D03*
X40340D02*
D03*
X84960Y72600D02*
D03*
X92440D02*
D03*
D54*
X92844Y195600D02*
D03*
X98356D02*
D03*
X62744Y195500D02*
D03*
X68256D02*
D03*
X122544Y194800D02*
D03*
X128056D02*
D03*
X91244Y171600D02*
D03*
X96756D02*
D03*
X121244Y171800D02*
D03*
X126756D02*
D03*
X150444Y171100D02*
D03*
X155956D02*
D03*
X152444Y195500D02*
D03*
X157956D02*
D03*
X60156Y134700D02*
D03*
X54644D02*
D03*
X73556Y94900D02*
D03*
X68044D02*
D03*
X94812Y124700D02*
D03*
X89300D02*
D03*
X77356Y107000D02*
D03*
X71844D02*
D03*
X39744Y58700D02*
D03*
X45256D02*
D03*
X125456Y28500D02*
D03*
X119944D02*
D03*
X132844Y86300D02*
D03*
X138356D02*
D03*
X105744Y51800D02*
D03*
X111256D02*
D03*
D55*
X100000Y57900D02*
X100400Y57500D01*
Y54100D02*
Y57500D01*
X97000Y50700D02*
X100400Y54100D01*
X97000Y50512D02*
Y50700D01*
X82765Y42765D02*
X87700Y47700D01*
X82765Y42200D02*
Y42765D01*
X86399Y50400D02*
X89240Y47559D01*
X64100Y155444D02*
Y166600D01*
X124800Y134500D02*
X164800D01*
X94250Y103950D02*
X124800Y134500D01*
X154998Y112400D02*
X159587D01*
X154197Y113202D02*
X154998Y112400D01*
X159587D02*
X161322Y110666D01*
X157400Y115400D02*
Y115800D01*
X155900Y117300D02*
X157400Y115800D01*
X153900Y117300D02*
X155900D01*
X157400Y115400D02*
X157856Y115856D01*
X161300D01*
X48900Y202600D02*
X54100Y207800D01*
X48237Y204200D02*
X52500Y208463D01*
X10500Y216000D02*
X22300Y204200D01*
X18200Y201100D02*
X20875D01*
X47373Y201000D02*
X53800Y194573D01*
X20975Y201000D02*
X47373D01*
X20875Y201100D02*
X20975Y201000D01*
X21637Y202600D02*
X48900D01*
X21537Y202700D02*
X21637Y202600D01*
X19900Y202700D02*
X21537D01*
X22300Y204200D02*
X48237D01*
X47574Y205800D02*
X50900Y209125D01*
X22963Y205800D02*
X47574D01*
X15900Y212863D02*
X22963Y205800D01*
X12069Y210531D02*
X19900Y202700D01*
X11031Y210531D02*
X12069D01*
X15900Y212863D02*
Y215600D01*
X44600Y198500D02*
X45200Y197900D01*
X40600Y198500D02*
X44600D01*
X37400Y195300D02*
X40600Y198500D01*
X50900Y209125D02*
Y219200D01*
X52500Y208463D02*
Y218200D01*
X54100Y207800D02*
Y217500D01*
X56000Y94744D02*
X58600D01*
X54200Y92944D02*
X56000Y94744D01*
X25579Y48600D02*
X39500D01*
X25579Y47500D02*
Y49921D01*
X45244Y44412D02*
Y46200D01*
X77644Y22344D02*
Y29880D01*
X74900Y19600D02*
X77644Y22344D01*
X131200Y33268D02*
X131544Y32924D01*
X130360Y38300D02*
X131200Y37460D01*
X74729Y195400D02*
X75900Y194229D01*
X67200Y194044D02*
X68556Y195400D01*
X114700Y45100D02*
X120244D01*
X95437Y16400D02*
X100600Y21563D01*
X123000Y180200D02*
X123600Y179600D01*
Y179579D02*
Y179600D01*
X123000Y180200D02*
Y181244D01*
X123600Y179579D02*
X123900Y179279D01*
X37000Y10000D02*
Y13994D01*
X17400Y33594D02*
X37000Y13994D01*
X17400Y33594D02*
Y39321D01*
X25579Y47500D01*
X18100Y152500D02*
X20856Y149744D01*
X18000Y152500D02*
X18100D01*
X81200Y50400D02*
X86399D01*
X79900Y17600D02*
X81100Y16400D01*
X95437D01*
X96100Y14800D02*
X101000Y19700D01*
X79300Y14800D02*
X96100D01*
X77400Y16700D02*
X79300Y14800D01*
X101000Y19700D02*
X132144D01*
X57244Y29155D02*
Y29300D01*
Y28800D02*
Y29155D01*
X56900Y25856D02*
X57244Y26200D01*
X112100Y47700D02*
X114700Y45100D01*
X132144Y19700D02*
X138188Y25744D01*
X62300Y116500D02*
X64400Y118600D01*
X78197Y47459D02*
X81860D01*
X61556Y97800D02*
X64200Y95156D01*
X52700Y97800D02*
X61556D01*
X51900Y97000D02*
X52700Y97800D01*
X87041Y112440D02*
Y115603D01*
X77756Y111500D02*
X78356Y110900D01*
X58600Y94744D02*
X59000Y94344D01*
X54200Y87400D02*
Y92944D01*
Y87400D02*
X54663Y86937D01*
Y82924D02*
Y86937D01*
X83300Y110900D02*
X84840Y112440D01*
X87041D01*
X78356Y110900D02*
X83300D01*
X72160Y185371D02*
Y186240D01*
X66300Y177256D02*
X71275D01*
X65400Y184044D02*
X67200Y185844D01*
X65400Y177956D02*
Y184044D01*
Y177956D02*
X66600Y176756D01*
X67200Y191356D02*
Y194044D01*
X62700Y195056D02*
X62744Y195100D01*
X62700Y185844D02*
X62744Y185800D01*
Y180800D02*
Y185800D01*
X101889Y174711D02*
Y176100D01*
Y174711D02*
X104800Y171800D01*
X121244D01*
X157412Y180644D02*
X165900D01*
Y176229D02*
Y180644D01*
X164900Y171900D02*
X178244D01*
X162160Y174640D02*
X164900Y171900D01*
X162160Y174640D02*
Y176371D01*
X84644Y180800D02*
X85500Y179944D01*
X68256Y180800D02*
X84644D01*
X85100Y180144D02*
X85300Y179944D01*
X92600Y191456D02*
X95356Y188700D01*
X99600D01*
X102160Y186140D01*
X97000Y194244D02*
X98356Y195600D01*
X97000Y191456D02*
Y194244D01*
X92600Y191456D02*
X92844Y191700D01*
Y195600D01*
X89856D02*
X92844D01*
X88856Y194600D02*
X89856Y195600D01*
X104529D02*
X105900Y194229D01*
X98356Y195600D02*
X104529D01*
X92600Y185944D02*
X92744Y185800D01*
Y181600D02*
Y185800D01*
X95800Y184744D02*
X97000Y185944D01*
X151744Y185188D02*
X152300Y185744D01*
X151744Y181400D02*
Y185188D01*
X154800Y183500D02*
X157000Y185700D01*
X127100Y191856D02*
Y194444D01*
X123300Y191000D02*
X125000Y189300D01*
X132160Y185371D02*
Y186940D01*
X129800Y189300D02*
X132160Y186940D01*
X125000Y189300D02*
X129800D01*
X122344Y185988D02*
X122700Y186344D01*
X122344Y181900D02*
Y185988D01*
X154800Y178100D02*
Y183500D01*
Y178100D02*
X155956Y176944D01*
Y175700D02*
Y176944D01*
X175056Y174756D02*
X178000Y177700D01*
X169544Y174756D02*
X175056D01*
X153000Y173300D02*
X156100Y170200D01*
X151744Y180800D02*
X153000Y179544D01*
Y173300D02*
Y179544D01*
X157256Y180800D02*
X157412Y180644D01*
X123900Y174344D02*
Y179279D01*
X122344Y181900D02*
X123000Y181244D01*
X123900Y174344D02*
X126900Y171344D01*
X102160Y185371D02*
Y186140D01*
X95800Y176956D02*
Y184744D01*
X98256Y180800D02*
X98812Y180244D01*
X92744Y180800D02*
X94000Y179544D01*
Y173500D02*
Y179544D01*
X95800Y176956D02*
X96656Y176100D01*
X150756Y70247D02*
X151940Y71431D01*
Y74241D01*
X139500Y57520D02*
X139571Y57591D01*
X157400Y79240D02*
X159900D01*
X157281Y79359D02*
X157400Y79240D01*
X74796Y78396D02*
X75600Y79200D01*
X80356D01*
X38872Y76428D02*
X50135D01*
X35300Y80000D02*
X38872Y76428D01*
X58600Y82924D02*
X65300D01*
X82744Y145600D02*
X85500Y142844D01*
X73800Y145600D02*
X82744D01*
X72360Y147040D02*
X73800Y145600D01*
X76011Y144000D02*
X79640Y140371D01*
X67856Y144000D02*
X76011D01*
X132260Y148560D02*
Y149371D01*
X130696Y146996D02*
X132260Y148560D01*
X121496Y146996D02*
X130696D01*
X102160Y147760D02*
Y149371D01*
X101200Y146800D02*
X102160Y147760D01*
X89456Y146800D02*
X101200D01*
X85500Y142844D02*
X89456Y146800D01*
X146044Y141644D02*
X151200Y146800D01*
X145100Y141644D02*
X146044D01*
X116744Y142244D02*
X121496Y146996D01*
X115300Y142244D02*
X116744D01*
X126600Y144000D02*
X135931D01*
X91956Y139200D02*
X96900Y144144D01*
X79640Y140371D02*
X80811Y139200D01*
X96900Y144000D02*
X107200D01*
X71275Y177256D02*
X72160Y176371D01*
X109640Y167371D02*
X115200Y161811D01*
Y161044D02*
Y161811D01*
Y151088D02*
X118800Y154688D01*
X114600Y147756D02*
X115200Y148356D01*
X111255Y147756D02*
X114600D01*
X115200Y148356D02*
Y151088D01*
X109640Y149371D02*
X111255Y147756D01*
X111700Y145600D02*
X114378Y142922D01*
X104200Y145600D02*
X111700D01*
X115200Y166556D02*
X118800Y162956D01*
X115200Y166556D02*
Y169144D01*
X114800Y174656D02*
X117900Y177756D01*
X109640Y176371D02*
X111355Y174656D01*
X114800D02*
X115200D01*
X111355D02*
X114800D01*
X85200Y174956D02*
X89000Y178756D01*
X79640Y176371D02*
X81055Y174956D01*
X85200D01*
X121244Y171800D02*
Y176400D01*
X126756D02*
X126785Y176371D01*
X132160D01*
X90544Y172300D02*
X91144Y171700D01*
X74400Y172300D02*
X90544D01*
X72160Y174540D02*
X74400Y172300D01*
X72160Y174540D02*
Y176371D01*
X89300Y155000D02*
Y163200D01*
X85200Y150900D02*
X89300Y155000D01*
X85200Y148956D02*
Y150900D01*
Y167300D02*
X89300Y163200D01*
X85200Y167300D02*
Y169444D01*
Y166956D02*
Y167300D01*
Y166956D02*
X85300Y166856D01*
X91144Y171700D02*
Y176100D01*
X96656D02*
X101889D01*
X94000Y173500D02*
X97000Y170500D01*
Y168556D02*
Y170500D01*
X139640Y166048D02*
X145300Y160388D01*
X139640Y166048D02*
Y167371D01*
X148600Y154500D02*
Y162600D01*
X144900Y150800D02*
X148600Y154500D01*
X144900Y147356D02*
Y150800D01*
X144700Y175156D02*
X148400Y178856D01*
X144700Y175156D02*
X145100D01*
X140855D02*
X144700D01*
X139640Y176371D02*
X140855Y175156D01*
X144700Y169644D02*
X145300Y169044D01*
Y165900D02*
Y169044D01*
Y165900D02*
X148600Y162600D01*
X150444Y171100D02*
Y175700D01*
X156056Y175900D02*
X160760D01*
X149444Y172100D02*
X150444Y171100D01*
X134600Y172100D02*
X149444D01*
X132160Y174540D02*
X134600Y172100D01*
X132160Y174540D02*
Y176371D01*
X156100Y167756D02*
Y170200D01*
X145100Y186256D02*
X148400Y182956D01*
Y178856D02*
Y182956D01*
X168840Y166671D02*
X174683Y160828D01*
X109640Y140371D02*
Y141560D01*
X107200Y144000D02*
X109640Y141560D01*
X102160Y147640D02*
X104200Y145600D01*
X102160Y147640D02*
Y149371D01*
Y152540D01*
X98500Y156200D02*
X102160Y152540D01*
X94500Y156200D02*
X98500D01*
X93000Y157700D02*
X94500Y156200D01*
X93956Y153544D02*
X96400D01*
X91100Y156400D02*
X93956Y153544D01*
X91100Y156400D02*
Y165256D01*
X93000Y157700D02*
Y163800D01*
X94600Y165400D01*
X100189D01*
X102160Y167371D01*
X94100Y168256D02*
X96700D01*
X91100Y165256D02*
X94100Y168256D01*
X96700D02*
X97000Y168556D01*
X134500Y145600D02*
X141144D01*
X132260Y147840D02*
X134500Y145600D01*
X132260Y147840D02*
Y149371D01*
X141144Y145600D02*
X145100Y141644D01*
X135931Y144000D02*
X139400Y140531D01*
X132160Y166460D02*
Y167371D01*
X131100Y165400D02*
X132160Y166460D01*
X124400Y165400D02*
X131100D01*
X132260Y149371D02*
Y152740D01*
X128800Y156200D02*
X132260Y152740D01*
X124900Y156200D02*
X128800D01*
X123200Y157900D02*
X124900Y156200D01*
X123200Y157900D02*
Y164200D01*
X124400Y165400D01*
X125256Y153444D02*
X126900D01*
X121300Y157400D02*
X125256Y153444D01*
X121300Y157400D02*
Y165400D01*
X124656Y168756D02*
X127000D01*
X121300Y165400D02*
X124656Y168756D01*
X161160Y147740D02*
X163300Y145600D01*
X153900Y164800D02*
X159600D01*
X153800Y155700D02*
X157900D01*
X152800Y156700D02*
X153800Y155700D01*
X152800Y156700D02*
Y163700D01*
X153900Y164800D01*
X96700Y163100D02*
X102900D01*
X80140Y165871D02*
X84767Y161244D01*
X72145Y158356D02*
X72160Y158371D01*
X66700Y158356D02*
X72145D01*
X66800Y163144D02*
X66944Y163000D01*
X73300D01*
X76100Y160200D01*
Y158229D02*
Y160200D01*
X66156Y168656D02*
X66800D01*
X64100Y155444D02*
X67100Y152444D01*
Y148756D02*
Y152444D01*
X84100Y147856D02*
X85200Y148956D01*
X79640Y176371D02*
X80025Y176756D01*
X89000Y178756D02*
Y182400D01*
X85944Y185456D02*
X89000Y182400D01*
X79725Y185456D02*
X85944D01*
X79498Y158229D02*
X79640Y158371D01*
X76100Y158229D02*
X79498D01*
X75900Y149229D02*
X76042Y149371D01*
X79840D01*
X79600Y147856D02*
X84100D01*
X66700Y168756D02*
X66800Y168656D01*
X66700Y168756D02*
Y171444D01*
X79640Y185371D02*
X79725Y185456D01*
X75900Y176229D02*
Y180500D01*
X114600Y185756D02*
X117900Y182456D01*
Y177756D02*
Y182456D01*
X105600Y180244D02*
X114600D01*
X98812D02*
X105600D01*
Y176529D02*
X105900Y176229D01*
X105600Y176529D02*
Y180244D01*
X96400Y153544D02*
X96900Y153044D01*
Y149956D02*
Y153044D01*
X96400Y159056D02*
X97085Y158371D01*
X102160D01*
X102900Y163100D02*
X105900Y160100D01*
Y158229D02*
Y160100D01*
Y158229D02*
X106042Y158371D01*
X109640D01*
X105900Y149229D02*
X106042Y149371D01*
X109640D01*
X118800Y154688D02*
Y162956D01*
X139498Y158229D02*
X139640Y158371D01*
X139098Y149229D02*
X139740Y149871D01*
X142455Y147156D01*
X135900Y149229D02*
X139098D01*
X126600Y153144D02*
X126900Y153444D01*
X126600Y149856D02*
Y153144D01*
X126900Y168856D02*
X127000Y168756D01*
X126900Y168856D02*
Y171344D01*
Y158956D02*
X127485Y158371D01*
X132160D01*
X127000Y163244D02*
X133256D01*
X136000Y160500D01*
Y158229D02*
Y160500D01*
X142455Y147156D02*
X145100D01*
X144900Y147356D02*
X145100Y147156D01*
X44356Y80900D02*
X46860Y78396D01*
X49400Y81100D02*
Y88400D01*
X150260Y113202D02*
Y119500D01*
X66044Y71900D02*
Y73600D01*
X129800Y80840D02*
X130200Y80440D01*
X142102Y113202D02*
X146323D01*
X152756Y121300D02*
X154144D01*
X150956Y119500D02*
X152756Y121300D01*
X150956Y120500D02*
X151047Y120591D01*
X61159Y78396D02*
X61187Y78424D01*
X61159Y76428D02*
X61163Y76424D01*
X52694Y80365D02*
Y82924D01*
X146310Y101600D02*
X146323Y101587D01*
X150260Y95100D02*
Y101587D01*
X46860Y78396D02*
X50135D01*
X148291Y101587D02*
Y105426D01*
X61159Y74459D02*
X64997D01*
X65500Y73956D01*
X63244Y69100D02*
X66044Y71900D01*
X49400Y81100D02*
X50135Y80365D01*
X161300Y104456D02*
Y110344D01*
X152228Y99372D02*
Y101587D01*
Y99372D02*
X153900Y97700D01*
X160056D01*
X160356Y98000D01*
X159900Y79240D02*
X160000Y79340D01*
X123188Y95056D02*
X123200Y95044D01*
X42600Y86944D02*
X46400Y90744D01*
X161800Y212072D02*
Y218800D01*
X179000Y206772D02*
X179100Y206672D01*
X52694Y80365D02*
X55647Y77412D01*
X159756Y119956D02*
Y121200D01*
X161300Y115856D02*
Y119656D01*
X159756Y121200D02*
X161300Y119656D01*
X71556Y73600D02*
X71712Y73756D01*
X139944Y83900D02*
X145244D01*
X152228Y113202D02*
Y115628D01*
X153900Y117300D01*
X68406Y67800D02*
X68756D01*
Y76384D01*
X66000Y64700D02*
Y65394D01*
X68406Y67800D01*
X10500Y155000D02*
X12044Y153456D01*
X52300Y100000D02*
Y101800D01*
X46400Y90744D02*
X50844D01*
X51900Y91800D01*
Y97000D01*
X49072Y96772D02*
X52300Y100000D01*
X35300Y80000D02*
Y90100D01*
X41972Y96772D01*
X49072D01*
X32500Y54700D02*
X33100D01*
X32706Y51700D02*
X35200D01*
X10500Y69600D02*
X11400D01*
X16500Y64500D01*
Y59000D02*
Y64500D01*
X27900Y62000D02*
X32200D01*
X34400Y57900D02*
Y59800D01*
X32200Y62000D02*
X34400Y59800D01*
X61159Y78396D02*
X74796D01*
X61159Y76428D02*
X68800D01*
X67600Y124800D02*
X71100Y121300D01*
X156100Y144000D02*
X166400D01*
X163300Y145600D02*
X169744D01*
X174100Y141244D01*
X151200Y146800D02*
X160200D01*
X161160Y147760D01*
X162160Y149371D02*
Y151440D01*
X174900Y141244D02*
X175944D01*
X177600Y142900D01*
X127100Y194444D02*
X127756Y195100D01*
X135029D01*
X135900Y194229D01*
X137400Y61300D02*
X139571D01*
X134600Y64100D02*
X137400Y61300D01*
X134600Y64100D02*
Y66000D01*
X133100Y67500D02*
X134600Y66000D01*
X126900Y67500D02*
X133100D01*
X126000Y66600D02*
X126900Y67500D01*
X122300Y66600D02*
X126000D01*
X119600Y69300D02*
X122300Y66600D01*
X37600Y113344D02*
Y117724D01*
Y113344D02*
X37700Y113244D01*
X47300D01*
X30556Y118100D02*
X33484D01*
X33860Y117724D01*
X30356Y108100D02*
Y113200D01*
X30256Y108000D02*
X30356Y108100D01*
Y113244D02*
X37700D01*
X94812Y124700D02*
Y128800D01*
X94612Y129000D02*
X94812Y128800D01*
X94600Y129012D02*
X94612Y129000D01*
X27039Y141800D02*
X32200D01*
X34100Y139900D01*
X27039Y137863D02*
X32063D01*
X34100Y139900D01*
X174400Y184656D02*
X175344D01*
X178000Y182000D01*
Y177700D02*
Y182000D01*
X170355Y184656D02*
X174400D01*
X169640Y185371D02*
X170355Y184656D01*
X165900Y180644D02*
X172900D01*
X174400Y179144D01*
X10500Y221000D02*
X15900Y215600D01*
X10500Y205000D02*
X11600Y206100D01*
X13200D01*
X178800Y206572D02*
X179000Y206772D01*
X13200Y206100D02*
X21500Y197800D01*
X34156Y160100D02*
X36844D01*
X34156Y164600D02*
X36744D01*
X66000Y140056D02*
Y142144D01*
X67100Y143244D01*
X67856Y144000D01*
X80811Y139200D02*
X91956D01*
X71900Y129800D02*
X75500Y133400D01*
X69000Y137600D02*
X71400Y135200D01*
X56544Y137600D02*
X69000D01*
X54644Y135700D02*
X56544Y137600D01*
X122156Y139900D02*
X126600Y144344D01*
X110300Y139600D02*
X110600Y139900D01*
X122156D01*
X139640Y140371D02*
X141311Y138700D01*
X150560D01*
X156100Y144240D01*
X166400Y144000D02*
X170100Y140300D01*
X164800Y134500D02*
X169640Y139340D01*
Y140371D01*
X83100Y130500D02*
X83600Y130000D01*
X178244Y171900D02*
X179044Y172700D01*
X62744Y175400D02*
X66700Y171444D01*
X62744Y175400D02*
Y180800D01*
X72360Y149360D02*
Y149371D01*
X69200Y146200D02*
X72360Y149360D01*
X54735Y146200D02*
X69200D01*
X54600Y146335D02*
X54735Y146200D01*
X72360Y147040D02*
Y149360D01*
X159600Y164800D02*
X162165Y167365D01*
X157900Y155700D02*
X162160Y151440D01*
X92159Y96841D02*
Y103660D01*
X68756Y76384D02*
X68800Y76428D01*
X76717D01*
X79700Y73444D01*
X92159Y96841D02*
X97200Y91800D01*
X94250Y99750D02*
X97200Y96800D01*
X97000Y87000D02*
X97200Y87200D01*
X86600Y116000D02*
X86844D01*
X77500Y124644D02*
Y125000D01*
X92159Y103660D02*
Y104559D01*
X97120Y109520D01*
Y116144D01*
X89600Y101256D02*
Y103660D01*
X86244Y97900D02*
X89600Y101256D01*
X82300Y103656D02*
X87037D01*
X87041Y103660D01*
X77800Y103656D02*
X82300D01*
X71100Y121300D02*
X76400D01*
X81200Y116500D01*
Y113656D02*
Y116500D01*
X62144D02*
X62300D01*
X71644Y111000D02*
X72144Y111500D01*
X57500Y112544D02*
X61645D01*
X62141Y113040D01*
Y112359D02*
Y113040D01*
Y112359D02*
X65500Y109000D01*
X71644D01*
X96744Y121500D02*
X97400Y122156D01*
X93700Y121500D02*
X96744D01*
X75500Y133400D02*
X89800D01*
X91700Y131500D01*
X71400Y135200D02*
X90500D01*
X94600Y131100D01*
Y129012D02*
Y131100D01*
X94250Y99750D02*
Y103950D01*
X77700Y124900D02*
X86600Y116000D01*
X91700Y123500D02*
Y131500D01*
Y123500D02*
X93700Y121500D01*
X138356Y82312D02*
Y86300D01*
X138300Y82256D02*
X138356Y82312D01*
X139944Y83900D01*
X146323Y95100D02*
Y101587D01*
X117800Y95056D02*
X123188D01*
X123200Y95044D02*
X125800D01*
X127000D01*
X136956Y108056D02*
X142102Y113202D01*
X128600Y108056D02*
X136956D01*
X140560Y106400D02*
X144100D01*
X139600Y105440D02*
X140560Y106400D01*
X102900Y210472D02*
Y214900D01*
Y210472D02*
X107000Y206372D01*
X50900Y219200D02*
X55700Y224000D01*
X156600D01*
X161800Y218800D01*
X52500Y218200D02*
X56700Y222400D01*
X131500D01*
X54100Y217500D02*
X57400Y220800D01*
X97000D01*
X102900Y214900D01*
X131500Y222400D02*
X137800Y216100D01*
Y212561D02*
Y216100D01*
X20856Y147300D02*
Y149744D01*
X21156Y147300D02*
Y148344D01*
X22300Y90000D02*
Y101800D01*
X14500Y69906D02*
X32706Y51700D01*
X16100Y71100D02*
X32500Y54700D01*
X14500Y69906D02*
Y75600D01*
X10500Y79600D02*
X14500Y75600D01*
X16100Y71100D02*
Y79000D01*
X10500Y84600D02*
X16100Y79000D01*
X18000Y71900D02*
X27900Y62000D01*
X18000Y85700D02*
X22300Y90000D01*
X18000Y71900D02*
Y85700D01*
X37200Y53494D02*
Y61744D01*
X38444Y51600D02*
Y52250D01*
X37200Y53494D02*
X38444Y52250D01*
X36500Y62444D02*
X37200Y61744D01*
X57256Y48425D02*
Y52700D01*
X92440Y72600D02*
X93500Y71540D01*
X92440Y83580D02*
X92900Y84040D01*
X69500Y55356D02*
X69678Y55178D01*
X69700Y55200D01*
X111900Y69300D02*
X119600D01*
X68928Y55928D02*
X69300Y56300D01*
X16500Y59000D02*
X25579Y49921D01*
X43756Y49088D02*
Y52300D01*
X77300Y48356D02*
X78197Y47459D01*
X43000Y32556D02*
X44284Y33840D01*
X47441D01*
X50200Y172700D02*
X51444D01*
X46200Y176700D02*
X50200Y172700D01*
X46200Y176700D02*
Y177156D01*
Y177556D01*
X54600Y165427D02*
X56956Y167783D01*
X64100Y166600D02*
X66156Y168656D01*
X37400Y195030D02*
Y195300D01*
X137800Y212561D02*
X143888Y206472D01*
X161800Y212072D02*
X167100Y206772D01*
X105220Y32921D02*
X108961D01*
X103000Y30700D02*
X105220Y32921D01*
X103000Y26156D02*
Y30700D01*
Y26156D02*
X103056Y26100D01*
X104079Y35480D02*
X108961D01*
X100600Y32000D02*
X104079Y35480D01*
X100600Y21563D02*
Y32000D01*
X71580Y32100D02*
Y33880D01*
X75900Y38200D01*
X79100D01*
X80200Y37100D01*
X77400Y19300D02*
X80200Y22100D01*
Y37100D01*
X77400Y16700D02*
Y19300D01*
D56*
X43400Y119600D02*
Y120700D01*
X41524Y117724D02*
X43400Y119600D01*
X10500Y140000D02*
X14844D01*
X14400Y147156D02*
X15344Y148100D01*
X14400Y140444D02*
Y147156D01*
Y140444D02*
X14844Y140000D01*
X10500D02*
X10600Y139900D01*
X42326Y172044D02*
X46200D01*
X131200Y33268D02*
Y37460D01*
X143641Y35960D02*
X146456Y33145D01*
Y30800D02*
Y33145D01*
X141100Y64600D02*
X142500D01*
X146900Y60200D01*
X147340Y57560D02*
X148429D01*
X146900Y58000D02*
X147340Y57560D01*
X146900Y58000D02*
Y60200D01*
X135756Y76744D02*
X138300D01*
X155912Y89056D02*
X160000D01*
X150756Y83900D02*
X155912Y89056D01*
X55701Y42300D02*
X57741Y40260D01*
X115080Y32544D02*
X115180Y32444D01*
X120000D01*
X158956Y56900D02*
Y64900D01*
X156300Y67556D02*
X158956Y64900D01*
X125556Y28600D02*
Y45100D01*
X125756D02*
X128405Y47749D01*
X130360D01*
X119944Y28500D02*
X120000Y28556D01*
Y32444D01*
X93900Y18800D02*
X97544Y22444D01*
Y26100D01*
X42356Y155300D02*
X43512Y154144D01*
X47256D01*
X42356Y155300D02*
Y164400D01*
Y150400D02*
Y155300D01*
X42256Y164500D02*
X42356Y164400D01*
X89600Y103660D02*
Y111140D01*
X90000Y118900D02*
X91756Y117144D01*
Y116000D02*
Y117144D01*
X57244Y26200D02*
Y28800D01*
X155600Y74460D02*
X158300Y71760D01*
X155600Y74460D02*
Y74500D01*
X153800Y34800D02*
X155500Y33100D01*
X153800Y34800D02*
Y37644D01*
X156300Y69760D02*
X158300Y71760D01*
X156300Y67556D02*
Y69760D01*
Y50856D02*
X157756Y49400D01*
X156300Y50856D02*
Y62044D01*
X146656Y28700D02*
X147500D01*
X65844Y43900D02*
X67700Y42044D01*
X61100Y43900D02*
X65844D01*
X57941Y40741D02*
X61100Y43900D01*
X57941Y40560D02*
Y40741D01*
X62756Y34100D02*
X62856Y34200D01*
X62756Y29300D02*
Y34100D01*
X62856Y34200D02*
X63056Y34000D01*
Y32100D02*
Y34000D01*
X62856Y29400D02*
Y31900D01*
X63056Y32100D01*
X66069D01*
X62756Y29300D02*
X62856Y29400D01*
X54356Y20344D02*
X56900D01*
X52100Y22600D02*
X54356Y20344D01*
X67656Y112337D02*
Y116500D01*
X62700Y124900D02*
X67656Y119944D01*
Y117600D02*
Y119944D01*
X175687Y151087D02*
X178300Y153700D01*
Y163000D01*
X62744Y195100D02*
Y195500D01*
X62700Y191356D02*
X65556Y188500D01*
X69900D01*
X72160Y186240D01*
X62700Y191356D02*
Y195056D01*
X152300Y191256D02*
X155156Y188400D01*
X159131D01*
X162160Y185371D01*
X164629Y195500D02*
X165900Y194229D01*
X157956Y195500D02*
X164629D01*
X157000Y191156D02*
Y194544D01*
X157956Y195500D01*
X149056Y194400D02*
X150156Y195500D01*
X152444D01*
X152300Y195356D02*
X152444Y195500D01*
X152300Y191256D02*
Y195356D01*
X165900Y158229D02*
X166042Y158371D01*
X169640D01*
X165900Y158229D02*
Y160100D01*
X174522Y166778D02*
X178300Y163000D01*
X174800Y147456D02*
Y149844D01*
X174100Y146756D02*
X174800Y147456D01*
X154800Y206472D02*
X155100Y206772D01*
X144460Y71031D02*
X145244Y70247D01*
X144460Y71031D02*
Y74241D01*
X151013Y62456D02*
X155100D01*
X139571Y57591D02*
Y61300D01*
X148429Y65040D02*
X151013Y62456D01*
X142160Y72960D02*
X143200Y74000D01*
X130200Y72960D02*
X142160D01*
X139456Y76800D02*
X144460D01*
X103200Y87200D02*
X108378Y92378D01*
X102200Y87200D02*
X103200D01*
X174300Y166656D02*
X174800Y166156D01*
X174300Y166656D02*
Y168156D01*
X153500Y167400D02*
X154600D01*
X150800Y164700D02*
X153500Y167400D01*
X150800Y156000D02*
Y164700D01*
X153856Y152944D02*
X156000D01*
X150800Y156000D02*
X153856Y152944D01*
X109640Y185371D02*
X110025Y185756D01*
X114600D01*
X140040Y185271D02*
X141025Y186256D01*
X145100D01*
X136000Y180744D02*
X145100D01*
X127400D02*
X136000D01*
X136200Y180544D01*
Y176500D02*
Y180544D01*
X174300Y168156D02*
X174400Y168056D01*
X160356Y89612D02*
Y98000D01*
X148291Y105426D02*
X150260Y107395D01*
X152228Y109363D01*
X160356Y98000D02*
X161300Y98944D01*
X44356Y80900D02*
Y86188D01*
X43600Y86944D02*
X44356Y86188D01*
X42600Y86944D02*
X43600D01*
X123700Y72860D02*
X130100D01*
X130200Y72960D01*
X117400Y72860D02*
X123700D01*
X165300Y149529D02*
X165342Y149571D01*
X156856Y158300D02*
X161389D01*
X161460Y158371D01*
X156100Y149752D02*
Y152844D01*
X156000Y152944D02*
X156100Y152844D01*
X165342Y149571D02*
X171285D01*
X174100Y146756D01*
X155044Y93600D02*
Y94000D01*
Y93600D02*
X155444Y94000D01*
X53000Y105856D02*
X58600Y100256D01*
X53000Y105856D02*
Y120500D01*
X51200Y102900D02*
X52300Y101800D01*
X78300Y130300D02*
X78600Y130000D01*
X51200Y102900D02*
Y123700D01*
X52500Y125000D01*
X53000Y120500D02*
X57500Y125000D01*
X167000Y206672D02*
X167100Y206772D01*
X122544Y194800D02*
X122700Y194956D01*
Y195244D01*
X119056Y194100D02*
X121556D01*
X41340Y117724D02*
X41524D01*
X19783Y108000D02*
X24744D01*
X19400Y107616D02*
X19783Y108000D01*
X82700Y129900D02*
X88200D01*
X89100Y129000D01*
Y124900D02*
Y129000D01*
Y124900D02*
X89300Y124700D01*
X142736Y206009D02*
X143100Y206372D01*
X58800Y195600D02*
X58900Y195500D01*
X34356Y150400D02*
X36844D01*
X77700Y129900D02*
X82700D01*
X156100Y162800D02*
X163200D01*
X165900Y160100D01*
X77800Y98144D02*
X78044Y97900D01*
X86244D01*
X57500Y117256D02*
X61388D01*
X62144Y116500D01*
X62141Y104859D02*
Y105560D01*
Y104859D02*
X64700Y102300D01*
X71644Y107000D02*
Y109000D01*
Y111000D01*
X96258Y116538D02*
X96700D01*
X82200Y125300D02*
X85900Y121600D01*
X91196D01*
X96258Y116538D01*
X130200Y80440D02*
X132060D01*
X135756Y76744D01*
X125700Y81240D02*
X126600Y80340D01*
X123200Y83944D02*
X125700D01*
X128400D01*
X125700Y81240D02*
Y83944D01*
Y84900D01*
X125800Y100556D02*
Y100700D01*
X127800Y102700D01*
X122500Y100556D02*
X125800D01*
X118200Y108756D02*
X122800D01*
X122843D01*
X126631Y112544D01*
X130569D02*
X132956D01*
X133400Y112100D01*
X133600Y105340D02*
X136760D01*
X137600Y104500D01*
X108378Y92378D02*
X129878D01*
X132500Y95000D01*
Y97000D01*
X134100Y28900D02*
Y37900D01*
X137540Y33009D02*
Y38300D01*
X148429Y57560D02*
X152784D01*
X51201Y22600D02*
X52100D01*
X63059Y47740D02*
X67516D01*
X69300Y49524D02*
Y50344D01*
X67516Y47740D02*
X69300Y49524D01*
X153800Y37644D02*
X158800D01*
X37100Y33444D02*
X38544D01*
X43744Y38644D01*
X43000Y27044D02*
X46757D01*
X51201Y22600D01*
X102200Y67400D02*
X105700D01*
X111160Y72860D01*
X117400D01*
X67700Y129900D02*
Y133944D01*
X66800Y134844D02*
X67700Y133944D01*
X62744Y195500D02*
Y202428D01*
X58900Y206272D02*
X62744Y202428D01*
X42300Y172070D02*
X42326Y172044D01*
X50000Y187000D02*
X51444D01*
X45900Y182900D02*
X50000Y187000D01*
X45900Y182444D02*
Y182900D01*
X47256Y154144D02*
X52300Y149100D01*
X46300Y187956D02*
Y190844D01*
X46400Y190944D01*
X51771D01*
X54600Y193773D01*
X28644Y164600D02*
X29000D01*
X31900Y167500D01*
X45844D01*
X46300Y167956D01*
X121556Y194100D02*
X122700Y195244D01*
Y191856D02*
Y194956D01*
X91639Y30361D02*
X93283D01*
X97544Y26100D01*
X91639Y38039D02*
X95261D01*
X97544Y35756D01*
Y26100D02*
Y35756D01*
X108961Y38039D02*
X115063D01*
X115080Y38056D01*
X108961Y30361D02*
X112898D01*
X115080Y32544D01*
X143700Y25744D02*
X146656Y28700D01*
X134100Y28900D02*
X137256Y25744D01*
D57*
X125800Y132600D02*
X171500D01*
X97800Y104600D02*
X125800Y132600D01*
X32400Y195030D02*
X37400D01*
X32300Y189900D02*
Y193330D01*
X27300Y184900D02*
X32300Y189900D01*
X27300Y172070D02*
Y184900D01*
X59000Y92156D02*
Y94344D01*
X179928Y207500D02*
X190228D01*
X117400Y80340D02*
X123700D01*
X130100D02*
X130200Y80440D01*
X190228Y207500D02*
X191100Y208372D01*
X42700Y129900D02*
X47700D01*
Y124900D02*
Y129900D01*
X179100Y206672D02*
X179928Y207500D01*
X32300Y172070D02*
X33430Y173200D01*
X37300D01*
X190600Y167028D02*
Y169700D01*
X184656Y165956D02*
Y178544D01*
X183272Y164572D02*
X184656Y165956D01*
X171500Y132600D02*
X183272Y144372D01*
Y164572D01*
X97800Y101500D02*
Y104600D01*
X123700Y80340D02*
X126600D01*
X130100D01*
X174400Y196756D02*
Y199272D01*
X167100Y206572D02*
X174400Y199272D01*
X173400Y206572D02*
X178800D01*
X97200Y67200D02*
Y82200D01*
X56856Y167783D02*
Y172700D01*
X83344Y194600D02*
Y205428D01*
X92844Y195600D02*
X97144Y199900D01*
X100528D01*
X107000Y206372D01*
X113544Y194100D02*
Y199828D01*
X107000Y206372D02*
X113544Y199828D01*
X127244Y199500D02*
X136228D01*
X142736Y206009D01*
X122700Y194956D02*
X127244Y199500D01*
X143544Y194400D02*
Y205201D01*
X142736Y206009D02*
X143544Y205201D01*
X152444Y195500D02*
X152600D01*
X157900Y200800D01*
X162500D01*
X167000Y205300D01*
Y206672D01*
X167100Y206572D01*
X173400D01*
D58*
X43400Y120700D02*
X46100D01*
X47300Y119500D01*
X27300Y193330D02*
Y195100D01*
X30700Y198500D01*
X68556Y195400D02*
X74729D01*
X151940Y74241D02*
Y79359D01*
X88577Y88900D02*
X92340Y85137D01*
X75500Y84556D02*
X84816D01*
X76800Y50400D02*
X77200Y50800D01*
X76800Y48356D02*
Y50400D01*
X73056Y95300D02*
Y100156D01*
X75900Y185229D02*
Y194229D01*
X165900Y185229D02*
Y194229D01*
X135900Y185229D02*
Y194229D01*
X105900Y185229D02*
Y194229D01*
X151940Y79359D02*
X157281D01*
X136000Y158229D02*
X139498D01*
X160000Y79340D02*
Y83544D01*
X113500Y215428D02*
X113700Y215628D01*
X125200Y215528D02*
X125300Y215428D01*
X131150Y206322D02*
X131200Y206372D01*
X73056Y100156D02*
X74700Y101800D01*
X22117Y124900D02*
X27700D01*
X19400Y122184D02*
X22117Y124900D01*
X47300Y118756D02*
Y119500D01*
X25044Y113400D02*
Y118100D01*
X24844Y113200D02*
X25044Y113400D01*
Y118100D02*
Y122244D01*
X27700Y124900D01*
X28600Y125000D02*
X43600D01*
X34256Y155600D02*
X37344D01*
X37300Y172070D02*
Y173200D01*
X60156Y134700D02*
X62700Y132156D01*
Y129900D02*
Y132156D01*
X52700Y129900D02*
Y132756D01*
X54644Y134700D01*
X190600Y167028D02*
X192328Y165300D01*
X72160Y167371D02*
Y169240D01*
X69300Y172100D02*
X72160Y169240D01*
X55800Y143800D02*
Y145135D01*
X54735Y146200D02*
X55800Y145135D01*
X92340Y84600D02*
X92900Y84040D01*
X71456Y72244D02*
Y73300D01*
Y72244D02*
X73400Y70300D01*
X82660D01*
X84960Y72600D01*
Y84412D01*
X137644Y116344D02*
X140700D01*
X84816Y84556D02*
X84960Y84412D01*
Y72600D02*
X86200D01*
X87400Y73800D01*
X73556Y94900D02*
X79556Y88900D01*
X92340Y84600D02*
Y85137D01*
X79556Y88900D02*
X88577D01*
X94740Y87000D02*
X97000D01*
X97200D01*
X74700Y101800D02*
Y117500D01*
X75600Y118400D01*
X139600Y97960D02*
X142740D01*
X145600Y95100D01*
X133600Y98060D02*
X139500D01*
X139600Y97960D01*
X133400Y112100D02*
X137644Y116344D01*
X118200Y103244D02*
X122800D01*
X127256D01*
X127800Y102700D01*
X180100Y183100D02*
X184656Y178544D01*
X180100Y183100D02*
Y186800D01*
X175900Y191000D02*
X180100Y186800D01*
X102200Y92000D02*
Y102000D01*
X97200Y86800D02*
X102200Y91800D01*
X32920Y74340D02*
Y75500D01*
Y74340D02*
X35660Y71600D01*
X42400D01*
X44500Y73700D01*
X92440Y72600D02*
Y83580D01*
X92340Y84600D02*
X94740Y87000D01*
X33200Y35700D02*
X34844D01*
X37100Y33444D01*
X37300Y172070D02*
Y176600D01*
X42300Y181600D01*
X46200Y177556D02*
Y182900D01*
X42300Y181800D02*
Y192630D01*
Y181800D02*
X45144D01*
X57156Y182156D02*
Y187000D01*
X60900Y171956D02*
Y173400D01*
X54500Y179800D02*
X54650Y179650D01*
X60900Y173400D01*
X54600Y179600D02*
X54650Y179650D01*
X57156Y182156D01*
X47588Y160844D02*
X53771D01*
X54500Y160115D01*
X46400Y159656D02*
X47588Y160844D01*
X82400Y206372D02*
X83344Y205428D01*
X46300Y159756D02*
Y162444D01*
Y159756D02*
X46400Y159656D01*
D61*
X41900Y176400D02*
X42300Y176000D01*
Y172070D02*
Y176000D01*
D63*
X40200Y147800D02*
X40400Y147600D01*
X46900D01*
X68167Y25567D02*
X68224Y25624D01*
X69467Y22667D02*
Y34216D01*
X50800Y41000D02*
X56750Y35050D01*
X41900Y41000D02*
X50800D01*
X39100Y43800D02*
X41900Y41000D01*
X32750Y43800D02*
X39100D01*
X37344Y155056D02*
Y155600D01*
X36744Y164600D02*
X40200Y161144D01*
X37700Y158700D02*
X39000Y157400D01*
Y146900D02*
Y157400D01*
X40200Y147800D02*
Y161144D01*
X69467Y34216D02*
X72000Y36750D01*
X68224Y35524D02*
X74000Y41300D01*
X68224Y25624D02*
Y35524D01*
X39000Y146900D02*
X40063Y145837D01*
X43561D01*
D74*
X40500Y215000D02*
D03*
D75*
X45500Y210000D02*
D03*
X35500D02*
D03*
X45500Y220000D02*
D03*
X35500D02*
D03*
D76*
X108500Y10000D02*
D03*
Y15000D02*
D03*
X103500D02*
D03*
Y10000D02*
D03*
X118500D02*
D03*
Y15000D02*
D03*
X113500D02*
D03*
Y10000D02*
D03*
X123500D02*
D03*
Y15000D02*
D03*
X128500D02*
D03*
Y10000D02*
D03*
X82500Y125000D02*
D03*
Y130000D02*
D03*
X67500D02*
D03*
Y125000D02*
D03*
X62500D02*
D03*
Y130000D02*
D03*
X77500D02*
D03*
Y125000D02*
D03*
X72500D02*
D03*
Y130000D02*
D03*
X47500D02*
D03*
Y125000D02*
D03*
X52500D02*
D03*
Y130000D02*
D03*
X37500D02*
D03*
Y125000D02*
D03*
X42500D02*
D03*
Y130000D02*
D03*
X32500D02*
D03*
Y125000D02*
D03*
X27500D02*
D03*
X57500Y130000D02*
D03*
Y125000D02*
D03*
X97500Y102000D02*
D03*
X102500D02*
D03*
Y97000D02*
D03*
X97500D02*
D03*
X102500Y67000D02*
D03*
Y72000D02*
D03*
X97500D02*
D03*
Y82000D02*
D03*
X102500D02*
D03*
Y77000D02*
D03*
X97500D02*
D03*
Y92000D02*
D03*
X102500D02*
D03*
Y87000D02*
D03*
X97500D02*
D03*
D77*
X164000Y67500D02*
D03*
Y62500D02*
D03*
Y57500D02*
D03*
Y52500D02*
D03*
Y47500D02*
D03*
Y42500D02*
D03*
Y37500D02*
D03*
X93000Y10000D02*
D03*
X88000D02*
D03*
X83000D02*
D03*
X10500Y165000D02*
D03*
X161000Y19000D02*
D03*
Y14000D02*
D03*
X141000Y19000D02*
D03*
X146000D02*
D03*
X151000D02*
D03*
X156000D02*
D03*
Y14000D02*
D03*
X146000D02*
D03*
X141000D02*
D03*
X151000D02*
D03*
X10500Y64600D02*
D03*
Y69600D02*
D03*
Y74600D02*
D03*
Y79600D02*
D03*
Y84600D02*
D03*
X10500Y89600D02*
D03*
X22300Y101800D02*
D03*
X27300D02*
D03*
X32300D02*
D03*
X37300D02*
D03*
X42300D02*
D03*
X47300D02*
D03*
X52300D02*
D03*
X12800Y115800D02*
D03*
Y110800D02*
D03*
X10500Y206000D02*
D03*
Y211000D02*
D03*
Y216000D02*
D03*
Y140000D02*
D03*
Y145000D02*
D03*
Y150000D02*
D03*
X140000Y128000D02*
D03*
X145000D02*
D03*
X150000D02*
D03*
X155000D02*
D03*
X160000D02*
D03*
X37000Y10000D02*
D03*
X42000D02*
D03*
X47000D02*
D03*
X52000D02*
D03*
X57000D02*
D03*
X62000D02*
D03*
X67000D02*
D03*
X10500Y45000D02*
D03*
Y40000D02*
D03*
Y35000D02*
D03*
D78*
X164000Y32500D02*
D03*
X10500Y170000D02*
D03*
Y59600D02*
D03*
X12800Y120800D02*
D03*
X10500Y221000D02*
D03*
Y155000D02*
D03*
Y30000D02*
D03*
D79*
X27500Y130000D02*
D03*
D80*
X97500Y67000D02*
D03*
D81*
X65000Y217453D02*
D03*
X88500D02*
D03*
X173500D02*
D03*
X149500D02*
D03*
X124500D02*
D03*
D82*
X65000Y211547D02*
D03*
X88500D02*
D03*
X173500D02*
D03*
X149500D02*
D03*
X124500D02*
D03*
D83*
X78000Y10000D02*
D03*
X17300Y101800D02*
D03*
X165000Y128000D02*
D03*
X32000Y10000D02*
D03*
D84*
X214500Y12500D02*
D03*
Y214500D02*
D03*
X189700Y11500D02*
D03*
X12500D02*
D03*
X189700Y188700D02*
D03*
X12500D02*
D03*
D85*
X60000Y168600D02*
D03*
X53400Y143500D02*
D03*
X157400Y115400D02*
D03*
X43400Y120700D02*
D03*
X27400Y212900D02*
D03*
X23500Y216400D02*
D03*
X54000Y152900D02*
D03*
X43300Y163900D02*
D03*
X31200Y183500D02*
D03*
X32500Y215300D02*
D03*
X40700Y222800D02*
D03*
X48200Y215300D02*
D03*
X25500Y164200D02*
D03*
X51800Y202000D02*
D03*
X30700Y198500D02*
D03*
X41400Y176800D02*
D03*
X17200Y143800D02*
D03*
X60500Y52500D02*
D03*
X152000Y106800D02*
D03*
X20900Y39100D02*
D03*
X157100Y94700D02*
D03*
X152300Y31000D02*
D03*
X108400Y59600D02*
D03*
X90800Y63300D02*
D03*
X86900Y63500D02*
D03*
X88800Y68200D02*
D03*
X134300Y69900D02*
D03*
X107200Y27300D02*
D03*
X153900Y82400D02*
D03*
X19900Y35600D02*
D03*
X17100Y152500D02*
D03*
X93200Y49800D02*
D03*
X92100Y45131D02*
D03*
X81200Y50400D02*
D03*
X77500Y66300D02*
D03*
X88700Y84900D02*
D03*
X88500Y81600D02*
D03*
X93900Y18800D02*
D03*
X97700Y55150D02*
D03*
X155600Y74500D02*
D03*
X117000Y27300D02*
D03*
X65400Y25300D02*
D03*
X70800Y17800D02*
D03*
X128200Y33800D02*
D03*
X137100Y43400D02*
D03*
X144270Y47930D02*
D03*
X149100Y47400D02*
D03*
X134400Y50500D02*
D03*
X132700Y57500D02*
D03*
X147500Y29100D02*
D03*
X155500Y33100D02*
D03*
X150700Y53500D02*
D03*
X106700Y83400D02*
D03*
X54500Y42500D02*
D03*
X76800Y44800D02*
D03*
X79600Y105900D02*
D03*
X193400Y108500D02*
D03*
X29200Y51000D02*
D03*
X131100Y64900D02*
D03*
X21600Y75400D02*
D03*
X118200Y66300D02*
D03*
X124300Y69100D02*
D03*
X117817Y60600D02*
D03*
X32400Y86000D02*
D03*
X171700Y80700D02*
D03*
X179900Y54700D02*
D03*
X171400Y86100D02*
D03*
X187700Y77500D02*
D03*
X181200Y77300D02*
D03*
X187600Y84400D02*
D03*
X180500D02*
D03*
X186700Y54800D02*
D03*
X186600Y61700D02*
D03*
X179500D02*
D03*
X181000Y91000D02*
D03*
X176000Y91200D02*
D03*
X171900Y93200D02*
D03*
X171800Y107700D02*
D03*
X171700Y101800D02*
D03*
X187000Y106000D02*
D03*
X189900Y101200D02*
D03*
X182700Y103800D02*
D03*
X173800Y116000D02*
D03*
X175600Y110100D02*
D03*
X180700Y115800D02*
D03*
X183000Y110000D02*
D03*
X176200Y103900D02*
D03*
X183100Y122400D02*
D03*
X176200Y122200D02*
D03*
X179500Y133300D02*
D03*
X179100Y127000D02*
D03*
X183700Y48000D02*
D03*
X195300Y21700D02*
D03*
X182500Y30200D02*
D03*
X195000Y30800D02*
D03*
X182900Y21700D02*
D03*
X170800Y13200D02*
D03*
X175400Y18700D02*
D03*
X178600Y13400D02*
D03*
X124200Y116800D02*
D03*
X131500Y120600D02*
D03*
X29200Y64500D02*
D03*
X34400Y57900D02*
D03*
X31300Y59400D02*
D03*
X45700Y94300D02*
D03*
X35000Y52300D02*
D03*
X32900Y55000D02*
D03*
X26800Y54000D02*
D03*
X36700Y27700D02*
D03*
X36900Y24400D02*
D03*
X41500Y21600D02*
D03*
X34500Y22100D02*
D03*
X33200Y35700D02*
D03*
X140900Y94200D02*
D03*
X116300Y116000D02*
D03*
X133400Y112100D02*
D03*
X133500Y90500D02*
D03*
X74800Y73800D02*
D03*
X19500Y110500D02*
D03*
X56100Y107500D02*
D03*
X69100Y63200D02*
D03*
X19600Y133200D02*
D03*
X64400Y118600D02*
D03*
X177600Y142900D02*
D03*
X128300Y120800D02*
D03*
X109100Y74800D02*
D03*
X111100Y64900D02*
D03*
X112400Y69700D02*
D03*
X124000Y54000D02*
D03*
X118800Y52900D02*
D03*
X114400Y52400D02*
D03*
X112100Y47700D02*
D03*
X45200Y106100D02*
D03*
X33600Y140000D02*
D03*
X51600Y223300D02*
D03*
X7600Y177300D02*
D03*
X12000D02*
D03*
X16600D02*
D03*
X47000Y150700D02*
D03*
X36800Y145600D02*
D03*
X35600Y142600D02*
D03*
X4800Y165100D02*
D03*
X17200Y162900D02*
D03*
X17100Y167900D02*
D03*
X190600Y169700D02*
D03*
X20100Y221000D02*
D03*
X27000Y221100D02*
D03*
X190200Y173300D02*
D03*
X190400Y148700D02*
D03*
Y143300D02*
D03*
X69300Y172100D02*
D03*
X30500Y16100D02*
D03*
X16900Y30700D02*
D03*
X53800Y76100D02*
D03*
Y79100D02*
D03*
X56600Y77800D02*
D03*
X44500Y73700D02*
D03*
X160400Y168200D02*
D03*
X106100Y130800D02*
D03*
X125000Y120200D02*
D03*
X91300Y91100D02*
D03*
X82400Y93800D02*
D03*
X85700D02*
D03*
X89000Y93700D02*
D03*
X87400Y74100D02*
D03*
X89000Y77000D02*
D03*
X102700Y130800D02*
D03*
X113000D02*
D03*
X101300Y116100D02*
D03*
X105300Y119800D02*
D03*
X75600Y118400D02*
D03*
X64700Y102300D02*
D03*
X118700Y120100D02*
D03*
X110600Y111600D02*
D03*
X109200Y100200D02*
D03*
X111800Y97700D02*
D03*
X116300Y112100D02*
D03*
X90000Y118900D02*
D03*
X109500Y130800D02*
D03*
X168000Y93100D02*
D03*
X163800Y90400D02*
D03*
X125700Y84900D02*
D03*
X137600Y104500D02*
D03*
X140600Y89300D02*
D03*
X127500Y102700D02*
D03*
X115600Y98700D02*
D03*
X54600Y199700D02*
D03*
X9700Y135000D02*
D03*
X11600Y100600D02*
D03*
X24000Y83400D02*
D03*
X28954Y87279D02*
D03*
X15400Y83200D02*
D03*
X14600Y88000D02*
D03*
X65400Y51900D02*
D03*
X52100Y22600D02*
D03*
X77200Y50800D02*
D03*
X86200Y25600D02*
D03*
X79900Y17600D02*
D03*
X71200Y13300D02*
D03*
X100000Y57900D02*
D03*
X105000Y58400D02*
D03*
X74900Y19600D02*
D03*
X86472Y38129D02*
D03*
X32500Y30200D02*
D03*
X115100Y49200D02*
D03*
X21900Y78600D02*
D03*
X83000Y65900D02*
D03*
X74500Y61800D02*
D03*
X81100Y60400D02*
D03*
X72100Y64400D02*
D03*
X19800Y212900D02*
D03*
D86*
X54900Y160115D02*
D03*
Y146335D02*
D03*
Y179800D02*
D03*
Y193579D02*
D03*
D87*
X54600Y179600D02*
D03*
Y193773D02*
D03*
Y165427D02*
D03*
D88*
X92600Y191456D02*
D03*
Y185944D02*
D03*
X97000D02*
D03*
Y191456D02*
D03*
X67100Y143244D02*
D03*
Y148756D02*
D03*
X96900Y144144D02*
D03*
Y149656D02*
D03*
X126600Y144344D02*
D03*
Y149856D02*
D03*
X122700Y191856D02*
D03*
Y186344D02*
D03*
X127100D02*
D03*
Y191856D02*
D03*
X66200Y176756D02*
D03*
Y171244D02*
D03*
X156100Y144240D02*
D03*
Y149752D02*
D03*
X62900Y191256D02*
D03*
Y185744D02*
D03*
X67400D02*
D03*
Y191256D02*
D03*
X152300D02*
D03*
Y185744D02*
D03*
X157000Y185644D02*
D03*
Y191156D02*
D03*
X120000Y32444D02*
D03*
Y37956D02*
D03*
X97120Y121656D02*
D03*
Y116144D02*
D03*
X81200Y108144D02*
D03*
Y113656D02*
D03*
X48300Y53144D02*
D03*
Y58656D02*
D03*
X85400Y157156D02*
D03*
Y151644D02*
D03*
X115200Y151088D02*
D03*
Y156600D02*
D03*
X144900Y155800D02*
D03*
Y150288D02*
D03*
X174800Y150444D02*
D03*
Y155956D02*
D03*
D89*
X79640Y176371D02*
D03*
X72160D02*
D03*
X75900Y185229D02*
D03*
X79840Y149371D02*
D03*
X72360D02*
D03*
X76100Y158229D02*
D03*
X79640Y167371D02*
D03*
X72160D02*
D03*
X75900Y176229D02*
D03*
X109640Y149371D02*
D03*
X102160D02*
D03*
X105900Y158229D02*
D03*
X109640Y167371D02*
D03*
X102160D02*
D03*
X105900Y176229D02*
D03*
X109640Y176371D02*
D03*
X102160D02*
D03*
X105900Y185229D02*
D03*
X169640Y167371D02*
D03*
X162160D02*
D03*
X165900Y176229D02*
D03*
X169640Y149371D02*
D03*
X162160D02*
D03*
X165900Y158229D02*
D03*
X169640Y176371D02*
D03*
X162160D02*
D03*
X165900Y185229D02*
D03*
X139740Y149371D02*
D03*
X132260D02*
D03*
X136000Y158229D02*
D03*
X139640Y167371D02*
D03*
X132160D02*
D03*
X135900Y176229D02*
D03*
X139640Y176371D02*
D03*
X132160D02*
D03*
X135900Y185229D02*
D03*
X105900Y149229D02*
D03*
X102160Y140371D02*
D03*
X109640D02*
D03*
X75900Y149229D02*
D03*
X72160Y140371D02*
D03*
X79640D02*
D03*
X165900Y149229D02*
D03*
X162160Y140371D02*
D03*
X169640D02*
D03*
X135900Y149229D02*
D03*
X132160Y140371D02*
D03*
X139640D02*
D03*
X79640Y158371D02*
D03*
X72160D02*
D03*
X75900Y167229D02*
D03*
X109640Y158371D02*
D03*
X102160D02*
D03*
X105900Y167229D02*
D03*
X139640Y158371D02*
D03*
X132160D02*
D03*
X135900Y167229D02*
D03*
X169640Y158371D02*
D03*
X162160D02*
D03*
X165900Y167229D02*
D03*
X79640Y185371D02*
D03*
X72160D02*
D03*
X75900Y194229D02*
D03*
X109640Y185371D02*
D03*
X102160D02*
D03*
X105900Y194229D02*
D03*
X139640Y185371D02*
D03*
X132160D02*
D03*
X135900Y194229D02*
D03*
X169640Y185371D02*
D03*
X162160D02*
D03*
X165900Y194229D02*
D03*
D90*
X27300Y193330D02*
D03*
X32300D02*
D03*
X37300D02*
D03*
X42300D02*
D03*
X27300Y172070D02*
D03*
X32300D02*
D03*
X37300D02*
D03*
X42300D02*
D03*
D91*
X26239Y137963D02*
D03*
Y139931D02*
D03*
Y141900D02*
D03*
Y143869D02*
D03*
Y145837D02*
D03*
X43561Y137963D02*
D03*
Y139931D02*
D03*
Y141900D02*
D03*
Y143869D02*
D03*
Y145837D02*
D03*
D92*
X19700Y107616D02*
D03*
Y122184D02*
D03*
D93*
X108961Y38039D02*
D03*
Y35480D02*
D03*
Y32921D02*
D03*
Y30361D02*
D03*
X91639Y38039D02*
D03*
Y35480D02*
D03*
Y32921D02*
D03*
Y30361D02*
D03*
D94*
X130642Y61260D02*
D03*
X139500Y57520D02*
D03*
Y65000D02*
D03*
X139571Y61300D02*
D03*
X148429Y57560D02*
D03*
Y65040D02*
D03*
D95*
X117400Y80340D02*
D03*
Y72860D02*
D03*
X158300Y71760D02*
D03*
Y79240D02*
D03*
X130200Y80440D02*
D03*
Y72960D02*
D03*
X123700Y80340D02*
D03*
Y72860D02*
D03*
X139600Y105440D02*
D03*
Y97960D02*
D03*
X133600Y105340D02*
D03*
Y97860D02*
D03*
D96*
X33860Y117724D02*
D03*
X37600D02*
D03*
X41340D02*
D03*
X33860Y108276D02*
D03*
X41340D02*
D03*
X134100Y38300D02*
D03*
X137840D02*
D03*
X130360D02*
D03*
X137840Y47749D02*
D03*
X134100D02*
D03*
X130360D02*
D03*
D97*
X150600Y95100D02*
D03*
X145600D02*
D03*
X49200Y87400D02*
D03*
X54200D02*
D03*
D98*
X82500Y215428D02*
D03*
Y206372D02*
D03*
X155100Y206772D02*
D03*
Y215828D02*
D03*
X191100Y206772D02*
D03*
Y215828D02*
D03*
X130600Y215428D02*
D03*
Y206372D02*
D03*
X95000D02*
D03*
Y215428D02*
D03*
X58900Y215328D02*
D03*
Y206272D02*
D03*
X167100Y206772D02*
D03*
Y215828D02*
D03*
X107000Y206372D02*
D03*
Y215428D02*
D03*
X70800D02*
D03*
Y206372D02*
D03*
X179000Y215828D02*
D03*
Y206772D02*
D03*
X118700Y206372D02*
D03*
Y215428D02*
D03*
X143100D02*
D03*
Y206372D02*
D03*
D99*
X192628Y152900D02*
D03*
X183572D02*
D03*
Y165000D02*
D03*
X192628D02*
D03*
D100*
X52694Y82924D02*
D03*
X54663D02*
D03*
X56631D02*
D03*
X58600D02*
D03*
Y71900D02*
D03*
X56631D02*
D03*
X54663D02*
D03*
X52694D02*
D03*
D101*
X61159Y80365D02*
D03*
Y78396D02*
D03*
Y76428D02*
D03*
Y74459D02*
D03*
X50135D02*
D03*
Y76428D02*
D03*
Y78396D02*
D03*
Y80365D02*
D03*
D102*
X55647Y77412D02*
D03*
D103*
X154197Y113202D02*
D03*
X152228D02*
D03*
X150260D02*
D03*
X148291D02*
D03*
X146323D02*
D03*
Y101587D02*
D03*
X148291D02*
D03*
X150260D02*
D03*
X152228D02*
D03*
X154197D02*
D03*
D104*
X150260Y107395D02*
D03*
D105*
X37239Y45768D02*
D03*
Y41831D02*
D03*
X32750Y43800D02*
D03*
D106*
X143641Y35960D02*
D03*
X148759D02*
D03*
X143641Y43440D02*
D03*
X57941Y40560D02*
D03*
X63059D02*
D03*
X57941Y48040D02*
D03*
X47541Y26360D02*
D03*
X52659D02*
D03*
X47541Y33840D02*
D03*
X62141Y105560D02*
D03*
X67259D02*
D03*
X62141Y113040D02*
D03*
D107*
X148759Y43440D02*
D03*
X63059Y48040D02*
D03*
X52659Y33840D02*
D03*
X67259Y113040D02*
D03*
D108*
X95100Y215428D02*
X95200Y215328D01*
X189300Y215628D02*
X190200Y216528D01*
X167000Y215528D02*
X167100Y215628D01*
X143100Y215428D02*
X154700D01*
X155100Y215828D01*
X58400Y215428D02*
X70800D01*
X107200D02*
X113500D01*
X125300D02*
X131200D01*
X167100Y215628D02*
X189300D01*
X131100Y206372D02*
X131150Y206322D01*
X113500Y215428D02*
X125300D01*
X70800D02*
X89100D01*
X95100D01*
X89047Y215480D02*
X89100Y215428D01*
X107200Y206372D02*
X118700D01*
X130600D02*
X131100D01*
X58800Y192079D02*
Y195600D01*
Y203772D01*
X54600Y146335D02*
X57278Y149013D01*
X63975Y211347D02*
X64800D01*
X58900Y206272D02*
X59000Y206372D01*
X64800Y206472D02*
Y211347D01*
Y206472D02*
X64900Y206372D01*
X59000D02*
X64900D01*
X70800D01*
X124500Y206472D02*
Y211547D01*
Y206472D02*
X124600Y206372D01*
X118700D02*
X124600D01*
X130600D01*
X149500Y206572D02*
Y211547D01*
X149400Y206472D02*
X149500Y206572D01*
X143888Y206472D02*
X149400D01*
X154800D01*
X173500Y206672D02*
Y211547D01*
X173400Y206572D02*
X173500Y206672D01*
X88500Y206772D02*
Y211547D01*
Y206772D02*
X88900Y206372D01*
X95000D01*
X95200D01*
X58400D02*
X59000D01*
X70800D02*
X82400D01*
X88900D01*
D109*
X192128Y150428D02*
Y153200D01*
X190400Y148700D02*
X192128Y150428D01*
X192328Y153200D02*
Y165300D01*
D110*
X144370Y106410D02*
D03*
D111*
X144420Y108379D02*
D03*
D112*
X156050Y108379D02*
D03*
D113*
X156050Y106410D02*
D03*
M02*
