G04 Layer_Color=16711935*
%FSLAX25Y25*%
%MOIN*%
G70*
G01*
G75*
%ADD76C,0.04000*%
%ADD80R,0.04000X0.04000*%
%ADD134R,0.04143X0.02962*%
%ADD140R,0.04222X0.02175*%
%ADD143R,0.02962X0.04143*%
%ADD150R,0.02175X0.04222*%
%ADD160R,0.02568X0.03198*%
%ADD163R,0.03356X0.05718*%
%ADD170R,0.02568X0.02568*%
%ADD171C,0.05800*%
%ADD172C,0.06600*%
%ADD173C,0.04537*%
%ADD174R,0.04537X0.04537*%
%ADD175C,0.04600*%
%ADD176R,0.04600X0.04600*%
%ADD177C,0.04931*%
%ADD178P,0.05337X8X112.5*%
%ADD179R,0.04537X0.04537*%
%ADD181R,0.10836X0.08474*%
%ADD182R,0.06899X0.08080*%
%ADD183R,0.02568X0.02568*%
%ADD184R,0.02962X0.05128*%
%ADD185R,0.02962X0.06702*%
%ADD186R,0.06102X0.01575*%
%ADD187R,0.03356X0.05324*%
%ADD188R,0.06102X0.02165*%
%ADD189R,0.05128X0.02962*%
%ADD190R,0.05718X0.03356*%
%ADD191R,0.03356X0.04537*%
%ADD192R,0.03100X0.04600*%
%ADD193R,0.04537X0.06112*%
%ADD194R,0.06112X0.04537*%
G04:AMPARAMS|DCode=195|XSize=15.84mil|YSize=29.62mil|CornerRadius=4.97mil|HoleSize=0mil|Usage=FLASHONLY|Rotation=180.000|XOffset=0mil|YOffset=0mil|HoleType=Round|Shape=RoundedRectangle|*
%AMROUNDEDRECTD195*
21,1,0.01584,0.01968,0,0,180.0*
21,1,0.00591,0.02962,0,0,180.0*
1,1,0.00994,-0.00295,0.00984*
1,1,0.00994,0.00295,0.00984*
1,1,0.00994,0.00295,-0.00984*
1,1,0.00994,-0.00295,-0.00984*
%
%ADD195ROUNDEDRECTD195*%
G04:AMPARAMS|DCode=196|XSize=15.84mil|YSize=29.62mil|CornerRadius=4.97mil|HoleSize=0mil|Usage=FLASHONLY|Rotation=270.000|XOffset=0mil|YOffset=0mil|HoleType=Round|Shape=RoundedRectangle|*
%AMROUNDEDRECTD196*
21,1,0.01584,0.01968,0,0,270.0*
21,1,0.00591,0.02962,0,0,270.0*
1,1,0.00994,-0.00984,-0.00295*
1,1,0.00994,-0.00984,0.00295*
1,1,0.00994,0.00984,0.00295*
1,1,0.00994,0.00984,-0.00295*
%
%ADD196ROUNDEDRECTD196*%
G04:AMPARAMS|DCode=197|XSize=72.93mil|YSize=72.93mil|CornerRadius=5.01mil|HoleSize=0mil|Usage=FLASHONLY|Rotation=270.000|XOffset=0mil|YOffset=0mil|HoleType=Round|Shape=RoundedRectangle|*
%AMROUNDEDRECTD197*
21,1,0.07293,0.06291,0,0,270.0*
21,1,0.06291,0.07293,0,0,270.0*
1,1,0.01002,-0.03146,-0.03146*
1,1,0.01002,-0.03146,0.03146*
1,1,0.01002,0.03146,0.03146*
1,1,0.01002,0.03146,-0.03146*
%
%ADD197ROUNDEDRECTD197*%
G04:AMPARAMS|DCode=198|XSize=16.54mil|YSize=38.98mil|CornerRadius=4.74mil|HoleSize=0mil|Usage=FLASHONLY|Rotation=0.000|XOffset=0mil|YOffset=0mil|HoleType=Round|Shape=RoundedRectangle|*
%AMROUNDEDRECTD198*
21,1,0.01654,0.02950,0,0,0.0*
21,1,0.00705,0.03898,0,0,0.0*
1,1,0.00948,0.00353,-0.01475*
1,1,0.00948,-0.00353,-0.01475*
1,1,0.00948,-0.00353,0.01475*
1,1,0.00948,0.00353,0.01475*
%
%ADD198ROUNDEDRECTD198*%
G04:AMPARAMS|DCode=199|XSize=70.47mil|YSize=100mil|CornerRadius=4.7mil|HoleSize=0mil|Usage=FLASHONLY|Rotation=90.000|XOffset=0mil|YOffset=0mil|HoleType=Round|Shape=RoundedRectangle|*
%AMROUNDEDRECTD199*
21,1,0.07047,0.09059,0,0,90.0*
21,1,0.06106,0.10000,0,0,90.0*
1,1,0.00941,0.04530,0.03053*
1,1,0.00941,0.04530,-0.03053*
1,1,0.00941,-0.04530,-0.03053*
1,1,0.00941,-0.04530,0.03053*
%
%ADD199ROUNDEDRECTD199*%
%ADD200R,0.03198X0.02568*%
%ADD201R,0.02962X0.03750*%
%ADD202R,0.03750X0.03750*%
%ADD203R,0.03780X0.01702*%
%ADD204R,0.03880X0.01702*%
%ADD205R,0.03980X0.01702*%
%ADD206R,0.03980X0.01702*%
D76*
X108500Y10000D02*
D03*
Y15000D02*
D03*
X103500D02*
D03*
Y10000D02*
D03*
X118500D02*
D03*
Y15000D02*
D03*
X113500D02*
D03*
Y10000D02*
D03*
X123500D02*
D03*
Y15000D02*
D03*
X128500D02*
D03*
Y10000D02*
D03*
X97500Y102000D02*
D03*
X102500D02*
D03*
Y97000D02*
D03*
X97500D02*
D03*
X102500Y67000D02*
D03*
Y72000D02*
D03*
X97500D02*
D03*
Y82000D02*
D03*
X102500D02*
D03*
Y77000D02*
D03*
X97500D02*
D03*
Y92000D02*
D03*
X102500D02*
D03*
Y87000D02*
D03*
X97500D02*
D03*
D80*
Y67000D02*
D03*
D134*
X138100Y82156D02*
D03*
Y76644D02*
D03*
X60900Y171956D02*
D03*
Y166444D02*
D03*
X85500Y185456D02*
D03*
Y179944D02*
D03*
X145100Y141644D02*
D03*
Y147156D02*
D03*
X114600Y185756D02*
D03*
Y180244D02*
D03*
X145100Y186256D02*
D03*
Y180744D02*
D03*
X66800Y140356D02*
D03*
Y134844D02*
D03*
X46400Y191344D02*
D03*
Y196856D02*
D03*
X46300Y187956D02*
D03*
Y182444D02*
D03*
X46200Y177156D02*
D03*
Y171644D02*
D03*
X46900Y167456D02*
D03*
Y161944D02*
D03*
X46800Y159456D02*
D03*
Y153944D02*
D03*
X58400Y94744D02*
D03*
Y100256D02*
D03*
X36500Y67756D02*
D03*
Y62244D02*
D03*
X155500Y62044D02*
D03*
Y67556D02*
D03*
X158100Y43156D02*
D03*
Y37644D02*
D03*
X175100Y166156D02*
D03*
Y160644D02*
D03*
X145300Y169744D02*
D03*
Y175256D02*
D03*
Y166400D02*
D03*
Y160888D02*
D03*
X115200Y166556D02*
D03*
Y161044D02*
D03*
X85200Y169444D02*
D03*
Y174956D02*
D03*
X85300Y166856D02*
D03*
Y161344D02*
D03*
X127000Y168356D02*
D03*
Y162844D02*
D03*
X96700Y168256D02*
D03*
Y162744D02*
D03*
X67100Y168656D02*
D03*
Y163144D02*
D03*
X116600Y95056D02*
D03*
Y89544D02*
D03*
X125800Y95044D02*
D03*
Y100556D02*
D03*
X153400Y43156D02*
D03*
Y37644D02*
D03*
X123200Y83944D02*
D03*
Y89456D02*
D03*
X47300Y113244D02*
D03*
Y118756D02*
D03*
X42600Y86944D02*
D03*
Y92456D02*
D03*
X57500Y112544D02*
D03*
Y118056D02*
D03*
X77800Y103656D02*
D03*
Y98144D02*
D03*
X122800Y108756D02*
D03*
Y103244D02*
D03*
X43000Y32556D02*
D03*
Y27044D02*
D03*
X49000Y43756D02*
D03*
Y38244D02*
D03*
X56900Y25856D02*
D03*
Y20344D02*
D03*
X67700Y47556D02*
D03*
Y42044D02*
D03*
X69300Y50344D02*
D03*
Y55856D02*
D03*
X64200Y89644D02*
D03*
Y95156D02*
D03*
X85500Y148356D02*
D03*
Y142844D02*
D03*
X115300Y147756D02*
D03*
Y142244D02*
D03*
X174900Y146756D02*
D03*
Y141244D02*
D03*
X37100Y33444D02*
D03*
Y38956D02*
D03*
X121300Y95044D02*
D03*
Y100556D02*
D03*
X161300Y98944D02*
D03*
Y104456D02*
D03*
X59000Y92156D02*
D03*
Y86644D02*
D03*
X44100Y43756D02*
D03*
Y38244D02*
D03*
X48200Y70056D02*
D03*
Y64544D02*
D03*
X161300Y110344D02*
D03*
Y115856D02*
D03*
X79800Y78956D02*
D03*
Y73444D02*
D03*
X75500Y84556D02*
D03*
Y79044D02*
D03*
X174400Y191244D02*
D03*
Y196756D02*
D03*
X115080Y32544D02*
D03*
Y38056D02*
D03*
X82300Y98144D02*
D03*
Y103656D02*
D03*
X160000Y89056D02*
D03*
Y83544D02*
D03*
X118200Y103244D02*
D03*
Y108756D02*
D03*
X128400Y89456D02*
D03*
Y83944D02*
D03*
X96400Y159056D02*
D03*
Y153544D02*
D03*
X126700Y158956D02*
D03*
Y153444D02*
D03*
X174400Y184656D02*
D03*
Y179144D02*
D03*
X67300Y158356D02*
D03*
Y152844D02*
D03*
X140700Y116344D02*
D03*
Y121856D02*
D03*
X156100Y167756D02*
D03*
Y162244D02*
D03*
X156000Y158456D02*
D03*
Y152944D02*
D03*
X174800Y169244D02*
D03*
Y174756D02*
D03*
X115200Y169144D02*
D03*
Y174656D02*
D03*
X41200Y67956D02*
D03*
Y62444D02*
D03*
X76800Y48356D02*
D03*
Y42844D02*
D03*
X97000Y50512D02*
D03*
Y45000D02*
D03*
X101900Y45044D02*
D03*
Y50556D02*
D03*
D140*
X143760Y74241D02*
D03*
Y76800D02*
D03*
Y79359D02*
D03*
X151240D02*
D03*
Y74241D02*
D03*
X81760Y47559D02*
D03*
Y42441D02*
D03*
X89240D02*
D03*
Y45000D02*
D03*
Y47559D02*
D03*
D143*
X50944Y172700D02*
D03*
X56456D02*
D03*
X57156Y186700D02*
D03*
X51644D02*
D03*
X96656Y176100D02*
D03*
X91144D02*
D03*
X126756Y176400D02*
D03*
X121244D02*
D03*
X184556Y173300D02*
D03*
X179044D02*
D03*
X149056Y194400D02*
D03*
X143544D02*
D03*
X20356Y140000D02*
D03*
X14844D02*
D03*
X20856Y148100D02*
D03*
X15344D02*
D03*
X91756Y97900D02*
D03*
X86244D02*
D03*
X43756Y52300D02*
D03*
X38244D02*
D03*
X49956Y47600D02*
D03*
X44444D02*
D03*
X57344Y34200D02*
D03*
X62856D02*
D03*
X83156Y29880D02*
D03*
X77644D02*
D03*
X83156Y34780D02*
D03*
X77644D02*
D03*
X153444Y56900D02*
D03*
X158956D02*
D03*
X157756Y49400D02*
D03*
X152244D02*
D03*
X67656Y117600D02*
D03*
X62144D02*
D03*
X89100Y129000D02*
D03*
X94612D02*
D03*
X122344Y181900D02*
D03*
X127856D02*
D03*
X62756Y29300D02*
D03*
X57244D02*
D03*
X140944Y30800D02*
D03*
X146456D02*
D03*
X151744Y181400D02*
D03*
X157256D02*
D03*
X92744Y181600D02*
D03*
X98256D02*
D03*
X62744Y180800D02*
D03*
X68256D02*
D03*
X49084Y93900D02*
D03*
X54596D02*
D03*
X138188Y25744D02*
D03*
X143700D02*
D03*
X65844Y83400D02*
D03*
X71356D02*
D03*
X91756Y116000D02*
D03*
X86244D02*
D03*
X28644Y164500D02*
D03*
X34156D02*
D03*
X28644Y159800D02*
D03*
X34156D02*
D03*
X28744Y155000D02*
D03*
X34256D02*
D03*
X28844Y150300D02*
D03*
X34356D02*
D03*
X154544Y121300D02*
D03*
X160056D02*
D03*
X103056Y26100D02*
D03*
X97544D02*
D03*
X125756Y45100D02*
D03*
X120244D02*
D03*
X44056Y82100D02*
D03*
X38544D02*
D03*
X131544Y32924D02*
D03*
X137056D02*
D03*
X57256Y52200D02*
D03*
X51744D02*
D03*
X67944Y89400D02*
D03*
X73456D02*
D03*
X71944Y111500D02*
D03*
X77456D02*
D03*
X145544Y119300D02*
D03*
X151056D02*
D03*
X51744Y63800D02*
D03*
X57256D02*
D03*
X62844Y68700D02*
D03*
X68356D02*
D03*
X71456Y73300D02*
D03*
X65944D02*
D03*
X59988Y63700D02*
D03*
X65500D02*
D03*
X155956Y175700D02*
D03*
X150444D02*
D03*
X88856Y194600D02*
D03*
X83344D02*
D03*
X30556Y118100D02*
D03*
X25044D02*
D03*
X119056Y194100D02*
D03*
X113544D02*
D03*
X120644Y57600D02*
D03*
X126156D02*
D03*
X24544Y113200D02*
D03*
X30056D02*
D03*
Y108000D02*
D03*
X24544D02*
D03*
X145244Y70247D02*
D03*
X150756D02*
D03*
X71580Y32100D02*
D03*
X66069D02*
D03*
X155044Y94000D02*
D03*
X160556D02*
D03*
X145244Y83900D02*
D03*
X150756D02*
D03*
X42256Y164500D02*
D03*
X36744D02*
D03*
X42356Y159800D02*
D03*
X36844D02*
D03*
X42356Y155000D02*
D03*
X36844D02*
D03*
X42356Y150300D02*
D03*
X36844D02*
D03*
D150*
X92159Y111140D02*
D03*
Y103660D02*
D03*
X89600D02*
D03*
X87041D02*
D03*
Y111140D02*
D03*
X89600D02*
D03*
D160*
X126631Y112544D02*
D03*
X130569D02*
D03*
X128600Y108056D02*
D03*
D163*
X84860Y84600D02*
D03*
X92340D02*
D03*
X84860Y78600D02*
D03*
X92340D02*
D03*
X32860Y76100D02*
D03*
X40340D02*
D03*
X84960Y72600D02*
D03*
X92440D02*
D03*
D170*
X92844Y195600D02*
D03*
X98356D02*
D03*
X62744Y195500D02*
D03*
X68256D02*
D03*
X122544Y194800D02*
D03*
X128056D02*
D03*
X91244Y171600D02*
D03*
X96756D02*
D03*
X121244Y171800D02*
D03*
X126756D02*
D03*
X150444Y171100D02*
D03*
X155956D02*
D03*
X152444Y195500D02*
D03*
X157956D02*
D03*
X60156Y134700D02*
D03*
X54644D02*
D03*
X73556Y94900D02*
D03*
X68044D02*
D03*
X94812Y124700D02*
D03*
X89300D02*
D03*
X77356Y107000D02*
D03*
X71844D02*
D03*
X39744Y58700D02*
D03*
X45256D02*
D03*
X125456Y28500D02*
D03*
X119944D02*
D03*
X132844Y86300D02*
D03*
X138356D02*
D03*
X105744Y51800D02*
D03*
X111256D02*
D03*
D171*
X40500Y215000D02*
D03*
D172*
X45500Y210000D02*
D03*
X35500D02*
D03*
X45500Y220000D02*
D03*
X35500D02*
D03*
D173*
X164000Y67500D02*
D03*
Y62500D02*
D03*
Y57500D02*
D03*
Y52500D02*
D03*
Y47500D02*
D03*
Y42500D02*
D03*
Y37500D02*
D03*
X93000Y10000D02*
D03*
X88000D02*
D03*
X83000D02*
D03*
X10500Y165000D02*
D03*
X161000Y19000D02*
D03*
Y14000D02*
D03*
X141000Y19000D02*
D03*
X146000D02*
D03*
X151000D02*
D03*
X156000D02*
D03*
Y14000D02*
D03*
X146000D02*
D03*
X141000D02*
D03*
X151000D02*
D03*
X10500Y64600D02*
D03*
Y69600D02*
D03*
Y74600D02*
D03*
Y79600D02*
D03*
Y84600D02*
D03*
X10500Y89600D02*
D03*
X22300Y101800D02*
D03*
X27300D02*
D03*
X32300D02*
D03*
X37300D02*
D03*
X42300D02*
D03*
X47300D02*
D03*
X52300D02*
D03*
X12800Y115800D02*
D03*
Y110800D02*
D03*
X10500Y206000D02*
D03*
Y211000D02*
D03*
Y216000D02*
D03*
Y140000D02*
D03*
Y145000D02*
D03*
Y150000D02*
D03*
X140000Y128000D02*
D03*
X145000D02*
D03*
X150000D02*
D03*
X155000D02*
D03*
X160000D02*
D03*
X37000Y10000D02*
D03*
X42000D02*
D03*
X47000D02*
D03*
X52000D02*
D03*
X57000D02*
D03*
X62000D02*
D03*
X67000D02*
D03*
X10500Y45000D02*
D03*
Y40000D02*
D03*
Y35000D02*
D03*
D174*
X164000Y32500D02*
D03*
X10500Y170000D02*
D03*
Y59600D02*
D03*
X12800Y120800D02*
D03*
X10500Y221000D02*
D03*
Y155000D02*
D03*
Y30000D02*
D03*
D175*
X82500Y125000D02*
D03*
Y130000D02*
D03*
X67500D02*
D03*
Y125000D02*
D03*
X62500D02*
D03*
Y130000D02*
D03*
X77500D02*
D03*
Y125000D02*
D03*
X72500D02*
D03*
Y130000D02*
D03*
X47500D02*
D03*
Y125000D02*
D03*
X52500D02*
D03*
Y130000D02*
D03*
X37500D02*
D03*
Y125000D02*
D03*
X42500D02*
D03*
Y130000D02*
D03*
X32500D02*
D03*
Y125000D02*
D03*
X27500D02*
D03*
X57500Y130000D02*
D03*
Y125000D02*
D03*
D176*
X27500Y130000D02*
D03*
D177*
X65000Y217453D02*
D03*
X88500D02*
D03*
X173500D02*
D03*
X149500D02*
D03*
X124500D02*
D03*
D178*
X65000Y211547D02*
D03*
X88500D02*
D03*
X173500D02*
D03*
X149500D02*
D03*
X124500D02*
D03*
D179*
X78000Y10000D02*
D03*
X17300Y101800D02*
D03*
X165000Y128000D02*
D03*
X32000Y10000D02*
D03*
D181*
X54900Y160115D02*
D03*
Y146335D02*
D03*
Y179800D02*
D03*
Y193579D02*
D03*
D182*
X54600Y179600D02*
D03*
Y193773D02*
D03*
Y165427D02*
D03*
D183*
X92600Y191456D02*
D03*
Y185944D02*
D03*
X97000D02*
D03*
Y191456D02*
D03*
X67100Y143244D02*
D03*
Y148756D02*
D03*
X96900Y144144D02*
D03*
Y149656D02*
D03*
X126600Y144344D02*
D03*
Y149856D02*
D03*
X122700Y191856D02*
D03*
Y186344D02*
D03*
X127100D02*
D03*
Y191856D02*
D03*
X66200Y176756D02*
D03*
Y171244D02*
D03*
X156100Y144240D02*
D03*
Y149752D02*
D03*
X62900Y191256D02*
D03*
Y185744D02*
D03*
X67400D02*
D03*
Y191256D02*
D03*
X152300D02*
D03*
Y185744D02*
D03*
X157000Y185644D02*
D03*
Y191156D02*
D03*
X120000Y32444D02*
D03*
Y37956D02*
D03*
X97120Y121656D02*
D03*
Y116144D02*
D03*
X81200Y108144D02*
D03*
Y113656D02*
D03*
X48300Y53144D02*
D03*
Y58656D02*
D03*
X85400Y157156D02*
D03*
Y151644D02*
D03*
X115200Y151088D02*
D03*
Y156600D02*
D03*
X144900Y155800D02*
D03*
Y150288D02*
D03*
X174800Y150444D02*
D03*
Y155956D02*
D03*
D184*
X79640Y176371D02*
D03*
X72160D02*
D03*
X75900Y185229D02*
D03*
X79840Y149371D02*
D03*
X72360D02*
D03*
X76100Y158229D02*
D03*
X79640Y167371D02*
D03*
X72160D02*
D03*
X75900Y176229D02*
D03*
X109640Y149371D02*
D03*
X102160D02*
D03*
X105900Y158229D02*
D03*
X109640Y167371D02*
D03*
X102160D02*
D03*
X105900Y176229D02*
D03*
X109640Y176371D02*
D03*
X102160D02*
D03*
X105900Y185229D02*
D03*
X169640Y167371D02*
D03*
X162160D02*
D03*
X165900Y176229D02*
D03*
X169640Y149371D02*
D03*
X162160D02*
D03*
X165900Y158229D02*
D03*
X169640Y176371D02*
D03*
X162160D02*
D03*
X165900Y185229D02*
D03*
X139740Y149371D02*
D03*
X132260D02*
D03*
X136000Y158229D02*
D03*
X139640Y167371D02*
D03*
X132160D02*
D03*
X135900Y176229D02*
D03*
X139640Y176371D02*
D03*
X132160D02*
D03*
X135900Y185229D02*
D03*
X105900Y149229D02*
D03*
X102160Y140371D02*
D03*
X109640D02*
D03*
X75900Y149229D02*
D03*
X72160Y140371D02*
D03*
X79640D02*
D03*
X165900Y149229D02*
D03*
X162160Y140371D02*
D03*
X169640D02*
D03*
X135900Y149229D02*
D03*
X132160Y140371D02*
D03*
X139640D02*
D03*
X79640Y158371D02*
D03*
X72160D02*
D03*
X75900Y167229D02*
D03*
X109640Y158371D02*
D03*
X102160D02*
D03*
X105900Y167229D02*
D03*
X139640Y158371D02*
D03*
X132160D02*
D03*
X135900Y167229D02*
D03*
X169640Y158371D02*
D03*
X162160D02*
D03*
X165900Y167229D02*
D03*
X79640Y185371D02*
D03*
X72160D02*
D03*
X75900Y194229D02*
D03*
X109640Y185371D02*
D03*
X102160D02*
D03*
X105900Y194229D02*
D03*
X139640Y185371D02*
D03*
X132160D02*
D03*
X135900Y194229D02*
D03*
X169640Y185371D02*
D03*
X162160D02*
D03*
X165900Y194229D02*
D03*
D185*
X27300Y193330D02*
D03*
X32300D02*
D03*
X37300D02*
D03*
X42300D02*
D03*
X27300Y172070D02*
D03*
X32300D02*
D03*
X37300D02*
D03*
X42300D02*
D03*
D186*
X26239Y137963D02*
D03*
Y139931D02*
D03*
Y141900D02*
D03*
Y143869D02*
D03*
Y145837D02*
D03*
X43561Y137963D02*
D03*
Y139931D02*
D03*
Y141900D02*
D03*
Y143869D02*
D03*
Y145837D02*
D03*
D187*
X19700Y107616D02*
D03*
Y122184D02*
D03*
D188*
X108961Y38039D02*
D03*
Y35480D02*
D03*
Y32921D02*
D03*
Y30361D02*
D03*
X91639Y38039D02*
D03*
Y35480D02*
D03*
Y32921D02*
D03*
Y30361D02*
D03*
D189*
X130642Y61260D02*
D03*
X139500Y57520D02*
D03*
Y65000D02*
D03*
X139571Y61300D02*
D03*
X148429Y57560D02*
D03*
Y65040D02*
D03*
D190*
X117400Y80340D02*
D03*
Y72860D02*
D03*
X158300Y71760D02*
D03*
Y79240D02*
D03*
X130200Y80440D02*
D03*
Y72960D02*
D03*
X123700Y80340D02*
D03*
Y72860D02*
D03*
X139600Y105440D02*
D03*
Y97960D02*
D03*
X133600Y105340D02*
D03*
Y97860D02*
D03*
D191*
X33860Y117724D02*
D03*
X37600D02*
D03*
X41340D02*
D03*
X33860Y108276D02*
D03*
X41340D02*
D03*
X134100Y38300D02*
D03*
X137840D02*
D03*
X130360D02*
D03*
X137840Y47749D02*
D03*
X134100D02*
D03*
X130360D02*
D03*
D192*
X150600Y95100D02*
D03*
X145600D02*
D03*
X49200Y87400D02*
D03*
X54200D02*
D03*
D193*
X82500Y215428D02*
D03*
Y206372D02*
D03*
X155100Y206772D02*
D03*
Y215828D02*
D03*
X191100Y206772D02*
D03*
Y215828D02*
D03*
X130600Y215428D02*
D03*
Y206372D02*
D03*
X95000D02*
D03*
Y215428D02*
D03*
X58900Y215328D02*
D03*
Y206272D02*
D03*
X167100Y206772D02*
D03*
Y215828D02*
D03*
X107000Y206372D02*
D03*
Y215428D02*
D03*
X70800D02*
D03*
Y206372D02*
D03*
X179000Y215828D02*
D03*
Y206772D02*
D03*
X118700Y206372D02*
D03*
Y215428D02*
D03*
X143100D02*
D03*
Y206372D02*
D03*
D194*
X192628Y152900D02*
D03*
X183572D02*
D03*
Y165000D02*
D03*
X192628D02*
D03*
D195*
X52694Y82924D02*
D03*
X54663D02*
D03*
X56631D02*
D03*
X58600D02*
D03*
Y71900D02*
D03*
X56631D02*
D03*
X54663D02*
D03*
X52694D02*
D03*
D196*
X61159Y80365D02*
D03*
Y78396D02*
D03*
Y76428D02*
D03*
Y74459D02*
D03*
X50135D02*
D03*
Y76428D02*
D03*
Y78396D02*
D03*
Y80365D02*
D03*
D197*
X55647Y77412D02*
D03*
D198*
X154197Y113202D02*
D03*
X152228D02*
D03*
X150260D02*
D03*
X148291D02*
D03*
X146323D02*
D03*
Y101587D02*
D03*
X148291D02*
D03*
X150260D02*
D03*
X152228D02*
D03*
X154197D02*
D03*
D199*
X150260Y107395D02*
D03*
D200*
X37239Y45768D02*
D03*
Y41831D02*
D03*
X32750Y43800D02*
D03*
D201*
X143641Y35960D02*
D03*
X148759D02*
D03*
X143641Y43440D02*
D03*
X57941Y40560D02*
D03*
X63059D02*
D03*
X57941Y48040D02*
D03*
X47541Y26360D02*
D03*
X52659D02*
D03*
X47541Y33840D02*
D03*
X62141Y105560D02*
D03*
X67259D02*
D03*
X62141Y113040D02*
D03*
D202*
X148759Y43440D02*
D03*
X63059Y48040D02*
D03*
X52659Y33840D02*
D03*
X67259Y113040D02*
D03*
D203*
X144370Y106410D02*
D03*
D204*
X144420Y108379D02*
D03*
D205*
X156050Y108379D02*
D03*
D206*
X156050Y106410D02*
D03*
M02*
